G04 #@! TF.GenerationSoftware,KiCad,Pcbnew,6.0.6+dfsg-1~bpo11+1*
G04 #@! TF.CreationDate,2022-07-19T19:35:54+02:00*
G04 #@! TF.ProjectId,EnergyMeter,456e6572-6779-44d6-9574-65722e6b6963,rev?*
G04 #@! TF.SameCoordinates,Original*
G04 #@! TF.FileFunction,Other,Comment*
%FSLAX46Y46*%
G04 Gerber Fmt 4.6, Leading zero omitted, Abs format (unit mm)*
G04 Created by KiCad (PCBNEW 6.0.6+dfsg-1~bpo11+1) date 2022-07-19 19:35:54*
%MOMM*%
%LPD*%
G01*
G04 APERTURE LIST*
%ADD10C,0.150000*%
%ADD11C,0.100000*%
G04 APERTURE END LIST*
D10*
G04 #@! TO.C,U1*
X81052380Y-39271428D02*
X80052380Y-39271428D01*
X81052380Y-38700000D02*
X80480952Y-39128571D01*
X80052380Y-38700000D02*
X80623809Y-39271428D01*
X80528571Y-38271428D02*
X80528571Y-37938095D01*
X81052380Y-37795238D02*
X81052380Y-38271428D01*
X80052380Y-38271428D01*
X80052380Y-37795238D01*
X80528571Y-37366666D02*
X80528571Y-37033333D01*
X81052380Y-36890476D02*
X81052380Y-37366666D01*
X80052380Y-37366666D01*
X80052380Y-36890476D01*
X81052380Y-36461904D02*
X80052380Y-36461904D01*
X80052380Y-36080952D01*
X80100000Y-35985714D01*
X80147619Y-35938095D01*
X80242857Y-35890476D01*
X80385714Y-35890476D01*
X80480952Y-35938095D01*
X80528571Y-35985714D01*
X80576190Y-36080952D01*
X80576190Y-36461904D01*
X80671428Y-35461904D02*
X80671428Y-34700000D01*
X80052380Y-34033333D02*
X80052380Y-33842857D01*
X80100000Y-33747619D01*
X80195238Y-33652380D01*
X80385714Y-33604761D01*
X80719047Y-33604761D01*
X80909523Y-33652380D01*
X81004761Y-33747619D01*
X81052380Y-33842857D01*
X81052380Y-34033333D01*
X81004761Y-34128571D01*
X80909523Y-34223809D01*
X80719047Y-34271428D01*
X80385714Y-34271428D01*
X80195238Y-34223809D01*
X80100000Y-34128571D01*
X80052380Y-34033333D01*
X80052380Y-33176190D02*
X80861904Y-33176190D01*
X80957142Y-33128571D01*
X81004761Y-33080952D01*
X81052380Y-32985714D01*
X81052380Y-32795238D01*
X81004761Y-32700000D01*
X80957142Y-32652380D01*
X80861904Y-32604761D01*
X80052380Y-32604761D01*
X80052380Y-32271428D02*
X80052380Y-31700000D01*
X81052380Y-31985714D02*
X80052380Y-31985714D01*
X80052380Y-30700000D02*
X80052380Y-30033333D01*
X81052380Y-30700000D01*
X81052380Y-30033333D01*
X80052380Y-29461904D02*
X80052380Y-29271428D01*
X80100000Y-29176190D01*
X80195238Y-29080952D01*
X80385714Y-29033333D01*
X80719047Y-29033333D01*
X80909523Y-29080952D01*
X81004761Y-29176190D01*
X81052380Y-29271428D01*
X81052380Y-29461904D01*
X81004761Y-29557142D01*
X80909523Y-29652380D01*
X80719047Y-29700000D01*
X80385714Y-29700000D01*
X80195238Y-29652380D01*
X80100000Y-29557142D01*
X80052380Y-29461904D01*
X81052380Y-28604761D02*
X80052380Y-28604761D01*
X81052380Y-28033333D01*
X80052380Y-28033333D01*
X80528571Y-27557142D02*
X80528571Y-27223809D01*
X81052380Y-27080952D02*
X81052380Y-27557142D01*
X80052380Y-27557142D01*
X80052380Y-27080952D01*
D11*
X75701190Y-22738095D02*
X75701190Y-22976190D01*
X75939285Y-23000000D01*
X75915476Y-22976190D01*
X75891666Y-22928571D01*
X75891666Y-22809523D01*
X75915476Y-22761904D01*
X75939285Y-22738095D01*
X75986904Y-22714285D01*
X76105952Y-22714285D01*
X76153571Y-22738095D01*
X76177380Y-22761904D01*
X76201190Y-22809523D01*
X76201190Y-22928571D01*
X76177380Y-22976190D01*
X76153571Y-23000000D01*
X76201190Y-22119047D02*
X75867857Y-22119047D01*
X75915476Y-22119047D02*
X75891666Y-22095238D01*
X75867857Y-22047619D01*
X75867857Y-21976190D01*
X75891666Y-21928571D01*
X75939285Y-21904761D01*
X76201190Y-21904761D01*
X75939285Y-21904761D02*
X75891666Y-21880952D01*
X75867857Y-21833333D01*
X75867857Y-21761904D01*
X75891666Y-21714285D01*
X75939285Y-21690476D01*
X76201190Y-21690476D01*
X76201190Y-21452380D02*
X75867857Y-21452380D01*
X75915476Y-21452380D02*
X75891666Y-21428571D01*
X75867857Y-21380952D01*
X75867857Y-21309523D01*
X75891666Y-21261904D01*
X75939285Y-21238095D01*
X76201190Y-21238095D01*
X75939285Y-21238095D02*
X75891666Y-21214285D01*
X75867857Y-21166666D01*
X75867857Y-21095238D01*
X75891666Y-21047619D01*
X75939285Y-21023809D01*
X76201190Y-21023809D01*
D10*
X74766666Y-35961904D02*
X74766666Y-35485714D01*
X75052380Y-36057142D02*
X74052380Y-35723809D01*
X75052380Y-35390476D01*
X74385714Y-35057142D02*
X75052380Y-35057142D01*
X74480952Y-35057142D02*
X74433333Y-35009523D01*
X74385714Y-34914285D01*
X74385714Y-34771428D01*
X74433333Y-34676190D01*
X74528571Y-34628571D01*
X75052380Y-34628571D01*
X74385714Y-34295238D02*
X74385714Y-33914285D01*
X74052380Y-34152380D02*
X74909523Y-34152380D01*
X75004761Y-34104761D01*
X75052380Y-34009523D01*
X75052380Y-33914285D01*
X75004761Y-33200000D02*
X75052380Y-33295238D01*
X75052380Y-33485714D01*
X75004761Y-33580952D01*
X74909523Y-33628571D01*
X74528571Y-33628571D01*
X74433333Y-33580952D01*
X74385714Y-33485714D01*
X74385714Y-33295238D01*
X74433333Y-33200000D01*
X74528571Y-33152380D01*
X74623809Y-33152380D01*
X74719047Y-33628571D01*
X74385714Y-32723809D02*
X75052380Y-32723809D01*
X74480952Y-32723809D02*
X74433333Y-32676190D01*
X74385714Y-32580952D01*
X74385714Y-32438095D01*
X74433333Y-32342857D01*
X74528571Y-32295238D01*
X75052380Y-32295238D01*
X74385714Y-31819047D02*
X75052380Y-31819047D01*
X74480952Y-31819047D02*
X74433333Y-31771428D01*
X74385714Y-31676190D01*
X74385714Y-31533333D01*
X74433333Y-31438095D01*
X74528571Y-31390476D01*
X75052380Y-31390476D01*
X75052380Y-30485714D02*
X74528571Y-30485714D01*
X74433333Y-30533333D01*
X74385714Y-30628571D01*
X74385714Y-30819047D01*
X74433333Y-30914285D01*
X75004761Y-30485714D02*
X75052380Y-30580952D01*
X75052380Y-30819047D01*
X75004761Y-30914285D01*
X74909523Y-30961904D01*
X74814285Y-30961904D01*
X74719047Y-30914285D01*
X74671428Y-30819047D01*
X74671428Y-30580952D01*
X74623809Y-30485714D01*
D11*
X79936904Y-40726190D02*
X79698809Y-40726190D01*
X79675000Y-40964285D01*
X79698809Y-40940476D01*
X79746428Y-40916666D01*
X79865476Y-40916666D01*
X79913095Y-40940476D01*
X79936904Y-40964285D01*
X79960714Y-41011904D01*
X79960714Y-41130952D01*
X79936904Y-41178571D01*
X79913095Y-41202380D01*
X79865476Y-41226190D01*
X79746428Y-41226190D01*
X79698809Y-41202380D01*
X79675000Y-41178571D01*
X80555952Y-41226190D02*
X80555952Y-40892857D01*
X80555952Y-40940476D02*
X80579761Y-40916666D01*
X80627380Y-40892857D01*
X80698809Y-40892857D01*
X80746428Y-40916666D01*
X80770238Y-40964285D01*
X80770238Y-41226190D01*
X80770238Y-40964285D02*
X80794047Y-40916666D01*
X80841666Y-40892857D01*
X80913095Y-40892857D01*
X80960714Y-40916666D01*
X80984523Y-40964285D01*
X80984523Y-41226190D01*
X81222619Y-41226190D02*
X81222619Y-40892857D01*
X81222619Y-40940476D02*
X81246428Y-40916666D01*
X81294047Y-40892857D01*
X81365476Y-40892857D01*
X81413095Y-40916666D01*
X81436904Y-40964285D01*
X81436904Y-41226190D01*
X81436904Y-40964285D02*
X81460714Y-40916666D01*
X81508333Y-40892857D01*
X81579761Y-40892857D01*
X81627380Y-40916666D01*
X81651190Y-40964285D01*
X81651190Y-41226190D01*
X75701190Y-45738095D02*
X75701190Y-45976190D01*
X75939285Y-46000000D01*
X75915476Y-45976190D01*
X75891666Y-45928571D01*
X75891666Y-45809523D01*
X75915476Y-45761904D01*
X75939285Y-45738095D01*
X75986904Y-45714285D01*
X76105952Y-45714285D01*
X76153571Y-45738095D01*
X76177380Y-45761904D01*
X76201190Y-45809523D01*
X76201190Y-45928571D01*
X76177380Y-45976190D01*
X76153571Y-46000000D01*
X76201190Y-45119047D02*
X75867857Y-45119047D01*
X75915476Y-45119047D02*
X75891666Y-45095238D01*
X75867857Y-45047619D01*
X75867857Y-44976190D01*
X75891666Y-44928571D01*
X75939285Y-44904761D01*
X76201190Y-44904761D01*
X75939285Y-44904761D02*
X75891666Y-44880952D01*
X75867857Y-44833333D01*
X75867857Y-44761904D01*
X75891666Y-44714285D01*
X75939285Y-44690476D01*
X76201190Y-44690476D01*
X76201190Y-44452380D02*
X75867857Y-44452380D01*
X75915476Y-44452380D02*
X75891666Y-44428571D01*
X75867857Y-44380952D01*
X75867857Y-44309523D01*
X75891666Y-44261904D01*
X75939285Y-44238095D01*
X76201190Y-44238095D01*
X75939285Y-44238095D02*
X75891666Y-44214285D01*
X75867857Y-44166666D01*
X75867857Y-44095238D01*
X75891666Y-44047619D01*
X75939285Y-44023809D01*
X76201190Y-44023809D01*
X75475000Y-19400000D02*
X75675000Y-19600000D01*
X75475000Y-42400000D02*
X75675000Y-42600000D01*
X82200000Y-41600000D02*
X82000000Y-41800000D01*
X82200000Y-41600000D02*
X82000000Y-41400000D01*
X77600000Y-41600000D02*
X77800000Y-41800000D01*
X75475000Y-47000000D02*
X75275000Y-46800000D01*
X77600000Y-41600000D02*
X82200000Y-41600000D01*
X75475000Y-47000000D02*
X75675000Y-46800000D01*
X77600000Y-41600000D02*
X77800000Y-41400000D01*
X75475000Y-24000000D02*
X75275000Y-23800000D01*
X75475000Y-19400000D02*
X75275000Y-19600000D01*
X75475000Y-42400000D02*
X75275000Y-42600000D01*
X75475000Y-24000000D02*
X75675000Y-23800000D01*
X75475000Y-19400000D02*
X75475000Y-24000000D01*
X75475000Y-42400000D02*
X75475000Y-47000000D01*
G04 #@! TD*
M02*
