M48
; DRILL file {KiCad 6.0.6+dfsg-1~bpo11+1} date Tue Jul 19 19:35:54 2022
; FORMAT={-:-/ absolute / metric / decimal}
; #@! TF.CreationDate,2022-07-19T19:35:54+02:00
; #@! TF.GenerationSoftware,Kicad,Pcbnew,6.0.6+dfsg-1~bpo11+1
; #@! TF.FileFunction,MixedPlating,1,4
FMAT,2
METRIC
; #@! TA.AperFunction,Plated,PTH,ViaDrill
T1C0.300
; #@! TA.AperFunction,Plated,PTH,ComponentDrill
T2C0.600
; #@! TA.AperFunction,Plated,PTH,ComponentDrill
T3C0.760
; #@! TA.AperFunction,Plated,PTH,ComponentDrill
T4C0.800
; #@! TA.AperFunction,Plated,PTH,ComponentDrill
T5C0.900
; #@! TA.AperFunction,Plated,PTH,ComponentDrill
T6C1.000
; #@! TA.AperFunction,Plated,PTH,ComponentDrill
T7C1.020
; #@! TA.AperFunction,Plated,PTH,ComponentDrill
T8C1.630
; #@! TA.AperFunction,NonPlated,NPTH,ComponentDrill
T9C0.650
; #@! TA.AperFunction,NonPlated,NPTH,ComponentDrill
T10C3.250
%
G90
G05
T1
X29.2Y-47.7
X29.4Y-53.8
X32.0Y-52.4
X32.3Y-49.1
X32.3Y-50.0
X32.4Y-50.9
X33.0Y-51.5
X33.1Y-48.5
X33.1Y-49.4
X33.6Y-47.4
X33.7Y-64.1
X34.1Y-51.86
X34.2Y-46.5
X35.1Y-46.5
X35.2Y-56.2
X36.0Y-46.3
X36.1Y-49.8
X36.4Y-26.6
X36.4Y-31.5
X37.2Y-46.0
X37.399Y-34.225
X37.4Y-39.5
X37.8Y-43.1
X38.0Y-46.4
X38.3Y-51.7
X38.741Y-47.032
X39.0Y-49.124
X39.0Y-50.0
X39.1Y-51.0
X39.3Y-43.2
X39.3Y-56.2
X39.325Y-34.8
X39.425Y-31.6
X40.25Y-33.125
X40.3Y-37.1
X40.5Y-56.1
X40.8Y-43.2
X41.2Y-33.1
X41.225Y-46.8
X41.3Y-30.8
X41.3Y-31.9
X41.3Y-50.1
X41.5Y-54.3
X41.6Y-51.9
X42.8Y-51.7
X44.0Y-34.225
X44.1Y-56.6
X44.6Y-24.9
X44.6Y-43.2
X44.9Y-39.3
X45.2Y-57.2
X45.225Y-36.15
X45.975Y-34.225
X46.7Y-39.4
X46.7Y-40.6
X46.7Y-41.9
X46.7Y-43.1
X47.3Y-33.0
X48.325Y-36.25
X49.0Y-25.6
X49.9Y-39.3
X50.799Y-37.7
X52.4Y-43.4
X53.7Y-44.8
X54.2Y-27.5
X54.5Y-37.7
X54.7Y-51.8
X54.8Y-28.8
X55.6Y-38.6
X55.7Y-39.9
X55.8Y-51.9
X55.8Y-53.4
X57.3Y-52.1
X57.8Y-43.9
X57.8Y-48.6
X58.2Y-57.2
X59.4Y-48.1
X59.695Y-44.07
X60.4Y-48.7
X61.275Y-48.1
X61.4Y-51.8
X61.8Y-57.2
X62.1Y-39.7
X62.1Y-43.9
X62.2Y-51.3
X62.4Y-28.9
X62.7Y-48.2
X63.1Y-52.2
X63.5Y-46.399
X63.8Y-38.7
X64.2Y-44.3
X64.6Y-35.4
X65.1Y-48.8
X65.1Y-59.5
X65.9Y-44.3
X66.0Y-35.3
X66.5Y-46.3
X66.5Y-48.9
X67.2Y-44.3
X67.2Y-48.3
X67.3Y-36.4
X68.6Y-26.5
X69.2Y-45.9
X69.9Y-39.7
X70.3Y-26.6
X70.3Y-43.7
X70.5Y-29.0
X72.7Y-51.6
X73.8Y-60.0
X73.9Y-52.3
X74.9Y-48.0
X75.8Y-56.5
X76.3Y-48.1
T3
X51.83Y-61.23
X53.1Y-63.77
X54.37Y-61.23
X55.64Y-63.77
X56.91Y-61.23
X58.18Y-63.77
X66.83Y-61.23
X68.1Y-63.77
X69.37Y-61.23
X70.64Y-63.77
X71.91Y-61.23
X73.18Y-63.77
T4
X44.272Y-50.225
X47.772Y-50.225
X52.747Y-48.15
X56.247Y-48.15
T5
X33.56Y-60.427
X34.82Y-57.887
X36.1Y-60.427
X37.36Y-57.887
X38.64Y-60.427
X39.9Y-57.887
X41.18Y-60.427
X42.44Y-57.887
T6
X32.3Y-38.1
X32.3Y-40.64
X32.3Y-43.18
X34.84Y-38.1
X34.84Y-40.64
X34.84Y-43.18
X67.5Y-52.27
X67.5Y-54.81
X67.5Y-57.35
T7
X31.375Y-71.688
X33.915Y-71.688
X42.085Y-71.688
X44.625Y-71.688
T8
X30.255Y-63.737
X45.745Y-63.737
T9
X33.6Y-26.11
X33.6Y-31.89
T10
X32.285Y-66.787
X43.715Y-66.787
X49.92Y-70.12
X60.08Y-70.12
X64.92Y-70.12
X75.08Y-70.12
T2
X30.25Y-24.68G85X29.65Y-24.68
G05
X30.25Y-33.32G85X29.65Y-33.32
G05
X34.68Y-24.68G85X33.58Y-24.68
G05
X34.68Y-33.32G85X33.58Y-33.32
G05
T0
M30
