G04 #@! TF.GenerationSoftware,KiCad,Pcbnew,6.0.6+dfsg-1~bpo11+1*
G04 #@! TF.CreationDate,2022-07-19T19:35:54+02:00*
G04 #@! TF.ProjectId,EnergyMeter,456e6572-6779-44d6-9574-65722e6b6963,rev?*
G04 #@! TF.SameCoordinates,Original*
G04 #@! TF.FileFunction,Copper,L1,Top*
G04 #@! TF.FilePolarity,Positive*
%FSLAX46Y46*%
G04 Gerber Fmt 4.6, Leading zero omitted, Abs format (unit mm)*
G04 Created by KiCad (PCBNEW 6.0.6+dfsg-1~bpo11+1) date 2022-07-19 19:35:54*
%MOMM*%
%LPD*%
G01*
G04 APERTURE LIST*
G04 Aperture macros list*
%AMRoundRect*
0 Rectangle with rounded corners*
0 $1 Rounding radius*
0 $2 $3 $4 $5 $6 $7 $8 $9 X,Y pos of 4 corners*
0 Add a 4 corners polygon primitive as box body*
4,1,4,$2,$3,$4,$5,$6,$7,$8,$9,$2,$3,0*
0 Add four circle primitives for the rounded corners*
1,1,$1+$1,$2,$3*
1,1,$1+$1,$4,$5*
1,1,$1+$1,$6,$7*
1,1,$1+$1,$8,$9*
0 Add four rect primitives between the rounded corners*
20,1,$1+$1,$2,$3,$4,$5,0*
20,1,$1+$1,$4,$5,$6,$7,0*
20,1,$1+$1,$6,$7,$8,$9,0*
20,1,$1+$1,$8,$9,$2,$3,0*%
G04 Aperture macros list end*
G04 #@! TA.AperFunction,SMDPad,CuDef*
%ADD10RoundRect,0.150000X-0.675000X-0.150000X0.675000X-0.150000X0.675000X0.150000X-0.675000X0.150000X0*%
G04 #@! TD*
G04 #@! TA.AperFunction,SMDPad,CuDef*
%ADD11RoundRect,0.225000X-0.250000X0.225000X-0.250000X-0.225000X0.250000X-0.225000X0.250000X0.225000X0*%
G04 #@! TD*
G04 #@! TA.AperFunction,SMDPad,CuDef*
%ADD12R,0.900000X2.000000*%
G04 #@! TD*
G04 #@! TA.AperFunction,SMDPad,CuDef*
%ADD13R,2.000000X0.900000*%
G04 #@! TD*
G04 #@! TA.AperFunction,SMDPad,CuDef*
%ADD14R,5.000000X5.000000*%
G04 #@! TD*
G04 #@! TA.AperFunction,SMDPad,CuDef*
%ADD15RoundRect,0.200000X0.200000X0.275000X-0.200000X0.275000X-0.200000X-0.275000X0.200000X-0.275000X0*%
G04 #@! TD*
G04 #@! TA.AperFunction,SMDPad,CuDef*
%ADD16RoundRect,0.200000X0.275000X-0.200000X0.275000X0.200000X-0.275000X0.200000X-0.275000X-0.200000X0*%
G04 #@! TD*
G04 #@! TA.AperFunction,SMDPad,CuDef*
%ADD17RoundRect,0.200000X-0.200000X-0.275000X0.200000X-0.275000X0.200000X0.275000X-0.200000X0.275000X0*%
G04 #@! TD*
G04 #@! TA.AperFunction,ComponentPad*
%ADD18R,1.600000X1.600000*%
G04 #@! TD*
G04 #@! TA.AperFunction,ComponentPad*
%ADD19C,1.600000*%
G04 #@! TD*
G04 #@! TA.AperFunction,SMDPad,CuDef*
%ADD20RoundRect,0.150000X-0.825000X-0.150000X0.825000X-0.150000X0.825000X0.150000X-0.825000X0.150000X0*%
G04 #@! TD*
G04 #@! TA.AperFunction,SMDPad,CuDef*
%ADD21RoundRect,0.225000X-0.225000X-0.250000X0.225000X-0.250000X0.225000X0.250000X-0.225000X0.250000X0*%
G04 #@! TD*
G04 #@! TA.AperFunction,ComponentPad*
%ADD22R,1.520000X1.520000*%
G04 #@! TD*
G04 #@! TA.AperFunction,ComponentPad*
%ADD23C,1.520000*%
G04 #@! TD*
G04 #@! TA.AperFunction,SMDPad,CuDef*
%ADD24R,3.700000X1.200000*%
G04 #@! TD*
G04 #@! TA.AperFunction,SMDPad,CuDef*
%ADD25RoundRect,0.225000X0.250000X-0.225000X0.250000X0.225000X-0.250000X0.225000X-0.250000X-0.225000X0*%
G04 #@! TD*
G04 #@! TA.AperFunction,SMDPad,CuDef*
%ADD26R,1.450000X0.600000*%
G04 #@! TD*
G04 #@! TA.AperFunction,SMDPad,CuDef*
%ADD27R,1.450000X0.300000*%
G04 #@! TD*
G04 #@! TA.AperFunction,ComponentPad*
%ADD28O,2.100000X1.000000*%
G04 #@! TD*
G04 #@! TA.AperFunction,ComponentPad*
%ADD29O,1.600000X1.000000*%
G04 #@! TD*
G04 #@! TA.AperFunction,SMDPad,CuDef*
%ADD30RoundRect,0.200000X-0.275000X0.200000X-0.275000X-0.200000X0.275000X-0.200000X0.275000X0.200000X0*%
G04 #@! TD*
G04 #@! TA.AperFunction,ComponentPad*
%ADD31RoundRect,0.250500X-0.499500X-0.499500X0.499500X-0.499500X0.499500X0.499500X-0.499500X0.499500X0*%
G04 #@! TD*
G04 #@! TA.AperFunction,ComponentPad*
%ADD32C,1.500000*%
G04 #@! TD*
G04 #@! TA.AperFunction,ComponentPad*
%ADD33C,2.500000*%
G04 #@! TD*
G04 #@! TA.AperFunction,SMDPad,CuDef*
%ADD34RoundRect,0.243750X-0.456250X0.243750X-0.456250X-0.243750X0.456250X-0.243750X0.456250X0.243750X0*%
G04 #@! TD*
G04 #@! TA.AperFunction,SMDPad,CuDef*
%ADD35RoundRect,0.250000X-0.262500X-0.450000X0.262500X-0.450000X0.262500X0.450000X-0.262500X0.450000X0*%
G04 #@! TD*
G04 #@! TA.AperFunction,SMDPad,CuDef*
%ADD36RoundRect,0.062500X0.350000X0.062500X-0.350000X0.062500X-0.350000X-0.062500X0.350000X-0.062500X0*%
G04 #@! TD*
G04 #@! TA.AperFunction,SMDPad,CuDef*
%ADD37RoundRect,0.062500X0.062500X0.350000X-0.062500X0.350000X-0.062500X-0.350000X0.062500X-0.350000X0*%
G04 #@! TD*
G04 #@! TA.AperFunction,SMDPad,CuDef*
%ADD38R,2.600000X2.600000*%
G04 #@! TD*
G04 #@! TA.AperFunction,SMDPad,CuDef*
%ADD39RoundRect,0.225000X0.225000X0.250000X-0.225000X0.250000X-0.225000X-0.250000X0.225000X-0.250000X0*%
G04 #@! TD*
G04 #@! TA.AperFunction,SMDPad,CuDef*
%ADD40RoundRect,0.150000X-0.150000X0.587500X-0.150000X-0.587500X0.150000X-0.587500X0.150000X0.587500X0*%
G04 #@! TD*
G04 #@! TA.AperFunction,ComponentPad*
%ADD41R,1.700000X1.700000*%
G04 #@! TD*
G04 #@! TA.AperFunction,ComponentPad*
%ADD42O,1.700000X1.700000*%
G04 #@! TD*
G04 #@! TA.AperFunction,SMDPad,CuDef*
%ADD43RoundRect,0.150000X0.825000X0.150000X-0.825000X0.150000X-0.825000X-0.150000X0.825000X-0.150000X0*%
G04 #@! TD*
G04 #@! TA.AperFunction,SMDPad,CuDef*
%ADD44R,0.600000X0.450000*%
G04 #@! TD*
G04 #@! TA.AperFunction,SMDPad,CuDef*
%ADD45R,0.400000X0.650000*%
G04 #@! TD*
G04 #@! TA.AperFunction,ViaPad*
%ADD46C,0.600000*%
G04 #@! TD*
G04 #@! TA.AperFunction,Conductor*
%ADD47C,0.200000*%
G04 #@! TD*
G04 #@! TA.AperFunction,Conductor*
%ADD48C,0.250000*%
G04 #@! TD*
G04 #@! TA.AperFunction,Conductor*
%ADD49C,0.600000*%
G04 #@! TD*
G04 #@! TA.AperFunction,Conductor*
%ADD50C,0.300000*%
G04 #@! TD*
G04 #@! TA.AperFunction,Conductor*
%ADD51C,0.090000*%
G04 #@! TD*
G04 APERTURE END LIST*
D10*
G04 #@! TO.P,U2,1,Pin_1*
G04 #@! TO.N,+5V*
X42925000Y-39345000D03*
G04 #@! TO.P,U2,2,Pin_2*
G04 #@! TO.N,Net-(D3-Pad1)*
X42925000Y-40615000D03*
G04 #@! TO.P,U2,3,Pin_3*
G04 #@! TO.N,Net-(C2-Pad2)*
X42925000Y-41885000D03*
G04 #@! TO.P,U2,4,Pin_4*
G04 #@! TO.N,GND*
X42925000Y-43155000D03*
G04 #@! TO.P,U2,5,Pin_5*
X48175000Y-43155000D03*
G04 #@! TO.P,U2,6,Pin_6*
X48175000Y-41885000D03*
G04 #@! TO.P,U2,7,Pin_7*
X48175000Y-40615000D03*
G04 #@! TO.P,U2,8,Pin_8*
X48175000Y-39345000D03*
G04 #@! TD*
D11*
G04 #@! TO.P,C11,1*
G04 #@! TO.N,GND*
X29400000Y-49025000D03*
G04 #@! TO.P,C11,2*
G04 #@! TO.N,+3V3*
X29400000Y-50575000D03*
G04 #@! TD*
D12*
G04 #@! TO.P,U1,1,GND*
G04 #@! TO.N,GND*
X69855000Y-24700000D03*
G04 #@! TO.P,U1,2,VDD*
G04 #@! TO.N,+3V3*
X68585000Y-24700000D03*
G04 #@! TO.P,U1,3,EN*
G04 #@! TO.N,/USB/EN*
X67315000Y-24700000D03*
G04 #@! TO.P,U1,4,SENSOR_VP*
G04 #@! TO.N,unconnected-(U1-Pad4)*
X66045000Y-24700000D03*
G04 #@! TO.P,U1,5,SENSOR_VN*
G04 #@! TO.N,unconnected-(U1-Pad5)*
X64775000Y-24700000D03*
G04 #@! TO.P,U1,6,IO34*
G04 #@! TO.N,unconnected-(U1-Pad6)*
X63505000Y-24700000D03*
G04 #@! TO.P,U1,7,IO35*
G04 #@! TO.N,unconnected-(U1-Pad7)*
X62235000Y-24700000D03*
G04 #@! TO.P,U1,8,IO32*
G04 #@! TO.N,unconnected-(U1-Pad8)*
X60965000Y-24700000D03*
G04 #@! TO.P,U1,9,IO33*
G04 #@! TO.N,unconnected-(U1-Pad9)*
X59695000Y-24700000D03*
G04 #@! TO.P,U1,10,IO25*
G04 #@! TO.N,/ethernet/RXD0*
X58425000Y-24700000D03*
G04 #@! TO.P,U1,11,IO26*
G04 #@! TO.N,/ethernet/RXD1*
X57155000Y-24700000D03*
G04 #@! TO.P,U1,12,IO27*
G04 #@! TO.N,/ethernet/CRS_DV*
X55885000Y-24700000D03*
G04 #@! TO.P,U1,13,IO14*
G04 #@! TO.N,/P1_UART/DATA_IN*
X54615000Y-24700000D03*
G04 #@! TO.P,U1,14,IO12*
G04 #@! TO.N,/RS485/DI*
X53345000Y-24700000D03*
D13*
G04 #@! TO.P,U1,15,GND*
G04 #@! TO.N,GND*
X52345000Y-27485000D03*
G04 #@! TO.P,U1,16,IO13*
G04 #@! TO.N,/RS485/DO*
X52345000Y-28755000D03*
G04 #@! TO.P,U1,17,SHD/SD2*
G04 #@! TO.N,unconnected-(U1-Pad17)*
X52345000Y-30025000D03*
G04 #@! TO.P,U1,18,SWP/SD3*
G04 #@! TO.N,unconnected-(U1-Pad18)*
X52345000Y-31295000D03*
G04 #@! TO.P,U1,19,SCS/CMD*
G04 #@! TO.N,unconnected-(U1-Pad19)*
X52345000Y-32565000D03*
G04 #@! TO.P,U1,20,SCK/CLK*
G04 #@! TO.N,unconnected-(U1-Pad20)*
X52345000Y-33835000D03*
G04 #@! TO.P,U1,21,SDO/SD0*
G04 #@! TO.N,unconnected-(U1-Pad21)*
X52345000Y-35105000D03*
G04 #@! TO.P,U1,22,SDI/SD1*
G04 #@! TO.N,unconnected-(U1-Pad22)*
X52345000Y-36375000D03*
G04 #@! TO.P,U1,23,IO15*
G04 #@! TO.N,/P1_UART/DATA_OUT*
X52345000Y-37645000D03*
G04 #@! TO.P,U1,24,IO2*
G04 #@! TO.N,Net-(D2-Pad1)*
X52345000Y-38915000D03*
D12*
G04 #@! TO.P,U1,25,IO0*
G04 #@! TO.N,/USB/GP0*
X53345000Y-41700000D03*
G04 #@! TO.P,U1,26,IO4*
G04 #@! TO.N,/RS485/TXEN*
X54615000Y-41700000D03*
G04 #@! TO.P,U1,27,IO16*
G04 #@! TO.N,unconnected-(U1-Pad27)*
X55885000Y-41700000D03*
G04 #@! TO.P,U1,28,IO17*
G04 #@! TO.N,/ethernet/REFCLK*
X57155000Y-41700000D03*
G04 #@! TO.P,U1,29,IO5*
G04 #@! TO.N,/ethernet/RST*
X58425000Y-41700000D03*
G04 #@! TO.P,U1,30,IO18*
G04 #@! TO.N,/ethernet/MDIO*
X59695000Y-41700000D03*
G04 #@! TO.P,U1,31,IO19*
G04 #@! TO.N,/ethernet/TXD0*
X60965000Y-41700000D03*
G04 #@! TO.P,U1,32,NC*
G04 #@! TO.N,unconnected-(U1-Pad32)*
X62235000Y-41700000D03*
G04 #@! TO.P,U1,33,IO21*
G04 #@! TO.N,/ethernet/TXEN*
X63505000Y-41700000D03*
G04 #@! TO.P,U1,34,RXD0/IO3*
G04 #@! TO.N,/USB/TX*
X64775000Y-41700000D03*
G04 #@! TO.P,U1,35,TXD0/IO1*
G04 #@! TO.N,/USB/RX*
X66045000Y-41700000D03*
G04 #@! TO.P,U1,36,IO22*
G04 #@! TO.N,/ethernet/TXD1*
X67315000Y-41700000D03*
G04 #@! TO.P,U1,37,IO23*
G04 #@! TO.N,/ethernet/MDC*
X68585000Y-41700000D03*
G04 #@! TO.P,U1,38,GND*
G04 #@! TO.N,GND*
X69855000Y-41700000D03*
D14*
G04 #@! TO.P,U1,39,GND*
X62355000Y-32200000D03*
G04 #@! TD*
D15*
G04 #@! TO.P,R3,1*
G04 #@! TO.N,Net-(C2-Pad2)*
X48525000Y-44775000D03*
G04 #@! TO.P,R3,2*
G04 #@! TO.N,Net-(R28-Pad1)*
X46875000Y-44775000D03*
G04 #@! TD*
D16*
G04 #@! TO.P,R18,1*
G04 #@! TO.N,Net-(J6-Pad11)*
X50400000Y-58325000D03*
G04 #@! TO.P,R18,2*
G04 #@! TO.N,Net-(R18-Pad2)*
X50400000Y-56675000D03*
G04 #@! TD*
D17*
G04 #@! TO.P,R9,1*
G04 #@! TO.N,Net-(Q2-Pad2)*
X35175000Y-35300000D03*
G04 #@! TO.P,R9,2*
G04 #@! TO.N,Net-(Q1-Pad1)*
X36825000Y-35300000D03*
G04 #@! TD*
D18*
G04 #@! TO.P,C1,1*
G04 #@! TO.N,+3V3*
X44272349Y-50225000D03*
D19*
G04 #@! TO.P,C1,2*
G04 #@! TO.N,GND*
X47772349Y-50225000D03*
G04 #@! TD*
D20*
G04 #@! TO.P,U5,1,RO*
G04 #@! TO.N,/RS485/DO*
X71025000Y-50995000D03*
G04 #@! TO.P,U5,2,~{RE}*
G04 #@! TO.N,/RS485/TXEN*
X71025000Y-52265000D03*
G04 #@! TO.P,U5,3,DE*
X71025000Y-53535000D03*
G04 #@! TO.P,U5,4,DI*
G04 #@! TO.N,/RS485/DI*
X71025000Y-54805000D03*
G04 #@! TO.P,U5,5,GND*
G04 #@! TO.N,GND*
X75975000Y-54805000D03*
G04 #@! TO.P,U5,6,A*
G04 #@! TO.N,Net-(J4-Pad4)*
X75975000Y-53535000D03*
G04 #@! TO.P,U5,7,B*
G04 #@! TO.N,Net-(J4-Pad3)*
X75975000Y-52265000D03*
G04 #@! TO.P,U5,8,VCC*
G04 #@! TO.N,+3V3*
X75975000Y-50995000D03*
G04 #@! TD*
D16*
G04 #@! TO.P,R28,1*
G04 #@! TO.N,Net-(R28-Pad1)*
X42350000Y-46325000D03*
G04 #@! TO.P,R28,2*
G04 #@! TO.N,+3V3*
X42350000Y-44675000D03*
G04 #@! TD*
D21*
G04 #@! TO.P,C12,1*
G04 #@! TO.N,GND*
X29325000Y-55000000D03*
G04 #@! TO.P,C12,2*
G04 #@! TO.N,VDDA*
X30875000Y-55000000D03*
G04 #@! TD*
D17*
G04 #@! TO.P,R7,1*
G04 #@! TO.N,GND*
X29175000Y-35300000D03*
G04 #@! TO.P,R7,2*
G04 #@! TO.N,Net-(J5-PadA5)*
X30825000Y-35300000D03*
G04 #@! TD*
D22*
G04 #@! TO.P,J4,1*
G04 #@! TO.N,unconnected-(J4-Pad1)*
X66830000Y-61230000D03*
D23*
G04 #@! TO.P,J4,2*
G04 #@! TO.N,5V_INVERTER*
X68100000Y-63770000D03*
G04 #@! TO.P,J4,3*
G04 #@! TO.N,Net-(J4-Pad3)*
X69370000Y-61230000D03*
G04 #@! TO.P,J4,4*
G04 #@! TO.N,Net-(J4-Pad4)*
X70640000Y-63770000D03*
G04 #@! TO.P,J4,5*
G04 #@! TO.N,GND*
X71910000Y-61230000D03*
G04 #@! TO.P,J4,6*
G04 #@! TO.N,unconnected-(J4-Pad6)*
X73180000Y-63770000D03*
G04 #@! TD*
D11*
G04 #@! TO.P,C14,1*
G04 #@! TO.N,GND*
X40100000Y-46950000D03*
G04 #@! TO.P,C14,2*
G04 #@! TO.N,Net-(C14-Pad2)*
X40100000Y-48500000D03*
G04 #@! TD*
D24*
G04 #@! TO.P,L1,1,1*
G04 #@! TO.N,+3V3*
X39300000Y-44300000D03*
G04 #@! TO.P,L1,2,2*
G04 #@! TO.N,Net-(D3-Pad1)*
X39300000Y-41500000D03*
G04 #@! TD*
D25*
G04 #@! TO.P,C18,1*
G04 #@! TO.N,Net-(C18-Pad1)*
X47200000Y-58275000D03*
G04 #@! TO.P,C18,2*
G04 #@! TO.N,GND*
X47200000Y-56725000D03*
G04 #@! TD*
D16*
G04 #@! TO.P,R13,1*
G04 #@! TO.N,+3V3*
X64300000Y-47125000D03*
G04 #@! TO.P,R13,2*
G04 #@! TO.N,/ethernet/CRS_DV*
X64300000Y-45475000D03*
G04 #@! TD*
G04 #@! TO.P,R24,1*
G04 #@! TO.N,Net-(C18-Pad1)*
X39000000Y-55025000D03*
G04 #@! TO.P,R24,2*
G04 #@! TO.N,VDDA*
X39000000Y-53375000D03*
G04 #@! TD*
D17*
G04 #@! TO.P,R19,1*
G04 #@! TO.N,Net-(R19-Pad1)*
X42175000Y-55100000D03*
G04 #@! TO.P,R19,2*
G04 #@! TO.N,GND*
X43825000Y-55100000D03*
G04 #@! TD*
D15*
G04 #@! TO.P,R25,1*
G04 #@! TO.N,Net-(J4-Pad4)*
X72325000Y-58300000D03*
G04 #@! TO.P,R25,2*
G04 #@! TO.N,+5V*
X70675000Y-58300000D03*
G04 #@! TD*
D26*
G04 #@! TO.P,J5,A1,GND*
G04 #@! TO.N,GND*
X35045000Y-25750000D03*
G04 #@! TO.P,J5,A4,VBUS*
G04 #@! TO.N,5V_USB*
X35045000Y-26550000D03*
D27*
G04 #@! TO.P,J5,A5,CC1*
G04 #@! TO.N,Net-(J5-PadA5)*
X35045000Y-27750000D03*
G04 #@! TO.P,J5,A6,D+*
G04 #@! TO.N,Net-(J5-PadA6)*
X35045000Y-28750000D03*
G04 #@! TO.P,J5,A7,D-*
G04 #@! TO.N,Net-(J5-PadA7)*
X35045000Y-29250000D03*
G04 #@! TO.P,J5,A8,SBU1*
G04 #@! TO.N,unconnected-(J5-PadA8)*
X35045000Y-30250000D03*
D26*
G04 #@! TO.P,J5,A9,VBUS*
G04 #@! TO.N,5V_USB*
X35045000Y-31450000D03*
G04 #@! TO.P,J5,A12,GND*
G04 #@! TO.N,GND*
X35045000Y-32250000D03*
G04 #@! TO.P,J5,B1,GND*
X35045000Y-32250000D03*
G04 #@! TO.P,J5,B4,VBUS*
G04 #@! TO.N,5V_USB*
X35045000Y-31450000D03*
D27*
G04 #@! TO.P,J5,B5,CC2*
G04 #@! TO.N,Net-(J5-PadB5)*
X35045000Y-30750000D03*
G04 #@! TO.P,J5,B6,D+*
G04 #@! TO.N,Net-(J5-PadA6)*
X35045000Y-29750000D03*
G04 #@! TO.P,J5,B7,D-*
G04 #@! TO.N,Net-(J5-PadA7)*
X35045000Y-28250000D03*
G04 #@! TO.P,J5,B8,SBU2*
G04 #@! TO.N,unconnected-(J5-PadB8)*
X35045000Y-27250000D03*
D26*
G04 #@! TO.P,J5,B9,VBUS*
G04 #@! TO.N,5V_USB*
X35045000Y-26550000D03*
G04 #@! TO.P,J5,B12,GND*
G04 #@! TO.N,GND*
X35045000Y-25750000D03*
D28*
G04 #@! TO.P,J5,S1,SHIELD*
X34130000Y-33320000D03*
D29*
X29950000Y-33320000D03*
D28*
X34130000Y-24680000D03*
D29*
X29950000Y-24680000D03*
G04 #@! TD*
D30*
G04 #@! TO.P,R30,1*
G04 #@! TO.N,+3V3*
X49100000Y-35400000D03*
G04 #@! TO.P,R30,2*
G04 #@! TO.N,/USB/GP0*
X49100000Y-37050000D03*
G04 #@! TD*
D16*
G04 #@! TO.P,R10,1*
G04 #@! TO.N,Net-(Q1-Pad2)*
X46000000Y-37050000D03*
G04 #@! TO.P,R10,2*
G04 #@! TO.N,Net-(Q2-Pad1)*
X46000000Y-35400000D03*
G04 #@! TD*
G04 #@! TO.P,R16,1*
G04 #@! TO.N,+3V3*
X65900000Y-47125000D03*
G04 #@! TO.P,R16,2*
G04 #@! TO.N,/ethernet/RXD0*
X65900000Y-45475000D03*
G04 #@! TD*
D31*
G04 #@! TO.P,J6,1,TD+*
G04 #@! TO.N,/ethernet/TX_P*
X33560000Y-60427500D03*
D32*
G04 #@! TO.P,J6,2,TD-*
G04 #@! TO.N,/ethernet/TX_N*
X34820000Y-57887500D03*
G04 #@! TO.P,J6,3,RD+*
G04 #@! TO.N,/ethernet/RX_P*
X36100000Y-60427500D03*
G04 #@! TO.P,J6,4,TCT*
G04 #@! TO.N,Net-(C18-Pad1)*
X37360000Y-57887500D03*
G04 #@! TO.P,J6,5,RCT*
X38640000Y-60427500D03*
G04 #@! TO.P,J6,6,RD-*
G04 #@! TO.N,/ethernet/RX_N*
X39900000Y-57887500D03*
G04 #@! TO.P,J6,7*
G04 #@! TO.N,N/C*
X41180000Y-60427500D03*
G04 #@! TO.P,J6,8,GND*
G04 #@! TO.N,GND*
X42440000Y-57887500D03*
G04 #@! TO.P,J6,9,LEDG_A*
X31375000Y-71687500D03*
G04 #@! TO.P,J6,10,LEDG_K*
G04 #@! TO.N,Net-(J6-Pad10)*
X33915000Y-71687500D03*
G04 #@! TO.P,J6,11,LEDY_K*
G04 #@! TO.N,Net-(J6-Pad11)*
X42085000Y-71687500D03*
G04 #@! TO.P,J6,12,LEDY_A*
G04 #@! TO.N,VDDA*
X44625000Y-71687500D03*
D33*
G04 #@! TO.P,J6,SH,SHIELD*
G04 #@! TO.N,GND*
X30255000Y-63737500D03*
X45745000Y-63737500D03*
G04 #@! TD*
D30*
G04 #@! TO.P,R21,1*
G04 #@! TO.N,/ethernet/RX_P*
X37500000Y-53375000D03*
G04 #@! TO.P,R21,2*
G04 #@! TO.N,VDDA*
X37500000Y-55025000D03*
G04 #@! TD*
D21*
G04 #@! TO.P,C2,1*
G04 #@! TO.N,+3V3*
X43875000Y-44750000D03*
G04 #@! TO.P,C2,2*
G04 #@! TO.N,Net-(C2-Pad2)*
X45425000Y-44750000D03*
G04 #@! TD*
D34*
G04 #@! TO.P,D1,1,K*
G04 #@! TO.N,/USB/GP0*
X46200000Y-27862500D03*
G04 #@! TO.P,D1,2,A*
G04 #@! TO.N,Net-(D1-Pad2)*
X46200000Y-29737500D03*
G04 #@! TD*
D16*
G04 #@! TO.P,R4,1*
G04 #@! TO.N,Net-(C2-Pad2)*
X50050000Y-44850000D03*
G04 #@! TO.P,R4,2*
G04 #@! TO.N,GND*
X50050000Y-43200000D03*
G04 #@! TD*
D11*
G04 #@! TO.P,C4,1*
G04 #@! TO.N,Net-(C4-Pad1)*
X64400000Y-54425000D03*
G04 #@! TO.P,C4,2*
G04 #@! TO.N,GND*
X64400000Y-55975000D03*
G04 #@! TD*
D35*
G04 #@! TO.P,FB1,1*
G04 #@! TO.N,+3V3*
X29087500Y-52300000D03*
G04 #@! TO.P,FB1,2*
G04 #@! TO.N,VDDA*
X30912500Y-52300000D03*
G04 #@! TD*
D34*
G04 #@! TO.P,D2,1,K*
G04 #@! TO.N,Net-(D2-Pad1)*
X48400000Y-27862500D03*
G04 #@! TO.P,D2,2,A*
G04 #@! TO.N,Net-(D2-Pad2)*
X48400000Y-29737500D03*
G04 #@! TD*
D16*
G04 #@! TO.P,R11,1*
G04 #@! TO.N,+3V3*
X67400000Y-47125000D03*
G04 #@! TO.P,R11,2*
G04 #@! TO.N,/ethernet/RXER*
X67400000Y-45475000D03*
G04 #@! TD*
D36*
G04 #@! TO.P,U7,1,VDD2A*
G04 #@! TO.N,VDDA*
X37987500Y-51000000D03*
G04 #@! TO.P,U7,2,LED2/nINTSEL*
G04 #@! TO.N,Net-(R18-Pad2)*
X37987500Y-50500000D03*
G04 #@! TO.P,U7,3,LED1/REGOFF*
G04 #@! TO.N,Net-(R17-Pad2)*
X37987500Y-50000000D03*
G04 #@! TO.P,U7,4,XTAL2*
G04 #@! TO.N,unconnected-(U7-Pad4)*
X37987500Y-49500000D03*
G04 #@! TO.P,U7,5,XTAL1/CLKIN*
G04 #@! TO.N,/ethernet/REFCLK*
X37987500Y-49000000D03*
G04 #@! TO.P,U7,6,VDDCR*
G04 #@! TO.N,Net-(C14-Pad2)*
X37987500Y-48500000D03*
D37*
G04 #@! TO.P,U7,7,RXD1/MODE1*
G04 #@! TO.N,/ethernet/RXD1*
X37300000Y-47812500D03*
G04 #@! TO.P,U7,8,RXD0/MODE0*
G04 #@! TO.N,/ethernet/RXD0*
X36800000Y-47812500D03*
G04 #@! TO.P,U7,9,VDDIO*
G04 #@! TO.N,+3V3*
X36300000Y-47812500D03*
G04 #@! TO.P,U7,10,RXER/PHYAD0*
G04 #@! TO.N,/ethernet/RXER*
X35800000Y-47812500D03*
G04 #@! TO.P,U7,11,CRS_DV/MODE2*
G04 #@! TO.N,/ethernet/CRS_DV*
X35300000Y-47812500D03*
G04 #@! TO.P,U7,12,MDIO*
G04 #@! TO.N,/ethernet/MDIO*
X34800000Y-47812500D03*
D36*
G04 #@! TO.P,U7,13,MDC*
G04 #@! TO.N,/ethernet/MDC*
X34112500Y-48500000D03*
G04 #@! TO.P,U7,14,INT/REFCLKO*
G04 #@! TO.N,unconnected-(U7-Pad14)*
X34112500Y-49000000D03*
G04 #@! TO.P,U7,15,RST*
G04 #@! TO.N,/ethernet/RST*
X34112500Y-49500000D03*
G04 #@! TO.P,U7,16,TXEN*
G04 #@! TO.N,/ethernet/TXEN*
X34112500Y-50000000D03*
G04 #@! TO.P,U7,17,TXD0*
G04 #@! TO.N,/ethernet/TXD0*
X34112500Y-50500000D03*
G04 #@! TO.P,U7,18,TXD1*
G04 #@! TO.N,/ethernet/TXD1*
X34112500Y-51000000D03*
D37*
G04 #@! TO.P,U7,19,VDD1A*
G04 #@! TO.N,VDDA*
X34800000Y-51687500D03*
G04 #@! TO.P,U7,20,TXN*
G04 #@! TO.N,/ethernet/TX_N*
X35300000Y-51687500D03*
G04 #@! TO.P,U7,21,TXP*
G04 #@! TO.N,/ethernet/TX_P*
X35800000Y-51687500D03*
G04 #@! TO.P,U7,22,RXN*
G04 #@! TO.N,/ethernet/RX_N*
X36300000Y-51687500D03*
G04 #@! TO.P,U7,23,RXP*
G04 #@! TO.N,/ethernet/RX_P*
X36800000Y-51687500D03*
G04 #@! TO.P,U7,24,RBIAS*
G04 #@! TO.N,Net-(R19-Pad1)*
X37300000Y-51687500D03*
D38*
G04 #@! TO.P,U7,25,VSS*
G04 #@! TO.N,GND*
X36050000Y-49750000D03*
G04 #@! TD*
D16*
G04 #@! TO.P,R12,1*
G04 #@! TO.N,+3V3*
X61100000Y-47125000D03*
G04 #@! TO.P,R12,2*
G04 #@! TO.N,/ethernet/MDIO*
X61100000Y-45475000D03*
G04 #@! TD*
D25*
G04 #@! TO.P,C15,1*
G04 #@! TO.N,GND*
X40550000Y-54975000D03*
G04 #@! TO.P,C15,2*
G04 #@! TO.N,VDDA*
X40550000Y-53425000D03*
G04 #@! TD*
G04 #@! TO.P,C16,1*
G04 #@! TO.N,GND*
X40100000Y-51575000D03*
G04 #@! TO.P,C16,2*
G04 #@! TO.N,Net-(C14-Pad2)*
X40100000Y-50025000D03*
G04 #@! TD*
D39*
G04 #@! TO.P,C5,1*
G04 #@! TO.N,+3V3*
X59975000Y-51800000D03*
G04 #@! TO.P,C5,2*
G04 #@! TO.N,GND*
X58425000Y-51800000D03*
G04 #@! TD*
D40*
G04 #@! TO.P,Q2,1,B*
G04 #@! TO.N,Net-(Q2-Pad1)*
X43950000Y-35462500D03*
G04 #@! TO.P,Q2,2,E*
G04 #@! TO.N,Net-(Q2-Pad2)*
X42050000Y-35462500D03*
G04 #@! TO.P,Q2,3,C*
G04 #@! TO.N,/USB/GP0*
X43000000Y-37337500D03*
G04 #@! TD*
D41*
G04 #@! TO.P,J1,1,Pin_1*
G04 #@! TO.N,+5V*
X34840000Y-43180000D03*
D42*
G04 #@! TO.P,J1,2,Pin_2*
G04 #@! TO.N,5V_DSM*
X32300000Y-43180000D03*
G04 #@! TO.P,J1,3,Pin_3*
G04 #@! TO.N,+5V*
X34840000Y-40640000D03*
G04 #@! TO.P,J1,4,Pin_4*
G04 #@! TO.N,5V_INVERTER*
X32300000Y-40640000D03*
G04 #@! TO.P,J1,5,Pin_5*
G04 #@! TO.N,+5V*
X34840000Y-38100000D03*
G04 #@! TO.P,J1,6,Pin_6*
G04 #@! TO.N,5V_USB*
X32300000Y-38100000D03*
G04 #@! TD*
D16*
G04 #@! TO.P,R2,1*
G04 #@! TO.N,+3V3*
X48600000Y-32925000D03*
G04 #@! TO.P,R2,2*
G04 #@! TO.N,Net-(D2-Pad2)*
X48600000Y-31275000D03*
G04 #@! TD*
D30*
G04 #@! TO.P,R14,1*
G04 #@! TO.N,/ethernet/RST*
X59500000Y-45475000D03*
G04 #@! TO.P,R14,2*
G04 #@! TO.N,GND*
X59500000Y-47125000D03*
G04 #@! TD*
D15*
G04 #@! TO.P,R27,1*
G04 #@! TO.N,GND*
X75525000Y-58300000D03*
G04 #@! TO.P,R27,2*
G04 #@! TO.N,Net-(J4-Pad3)*
X73875000Y-58300000D03*
G04 #@! TD*
D39*
G04 #@! TO.P,C6,1*
G04 #@! TO.N,+3V3*
X76475000Y-49300000D03*
G04 #@! TO.P,C6,2*
G04 #@! TO.N,GND*
X74925000Y-49300000D03*
G04 #@! TD*
D30*
G04 #@! TO.P,R20,1*
G04 #@! TO.N,/ethernet/RX_N*
X35800000Y-53375000D03*
G04 #@! TO.P,R20,2*
G04 #@! TO.N,VDDA*
X35800000Y-55025000D03*
G04 #@! TD*
D43*
G04 #@! TO.P,U6,1,GND*
G04 #@! TO.N,GND*
X42875000Y-33345000D03*
G04 #@! TO.P,U6,2,TXD*
G04 #@! TO.N,/USB/TX*
X42875000Y-32075000D03*
G04 #@! TO.P,U6,3,RXD*
G04 #@! TO.N,/USB/RX*
X42875000Y-30805000D03*
G04 #@! TO.P,U6,4,V3*
G04 #@! TO.N,+3V3*
X42875000Y-29535000D03*
G04 #@! TO.P,U6,5,UD+*
G04 #@! TO.N,Net-(J5-PadA6)*
X42875000Y-28265000D03*
G04 #@! TO.P,U6,6,UD-*
G04 #@! TO.N,Net-(J5-PadA7)*
X42875000Y-26995000D03*
G04 #@! TO.P,U6,7,NC*
G04 #@! TO.N,unconnected-(U6-Pad7)*
X42875000Y-25725000D03*
G04 #@! TO.P,U6,8,NC*
G04 #@! TO.N,unconnected-(U6-Pad8)*
X42875000Y-24455000D03*
G04 #@! TO.P,U6,9,~{CTS}*
G04 #@! TO.N,unconnected-(U6-Pad9)*
X37925000Y-24455000D03*
G04 #@! TO.P,U6,10,~{DSR}*
G04 #@! TO.N,unconnected-(U6-Pad10)*
X37925000Y-25725000D03*
G04 #@! TO.P,U6,11,~{RI}*
G04 #@! TO.N,unconnected-(U6-Pad11)*
X37925000Y-26995000D03*
G04 #@! TO.P,U6,12,~{DCD}*
G04 #@! TO.N,unconnected-(U6-Pad12)*
X37925000Y-28265000D03*
G04 #@! TO.P,U6,13,~{DTR}*
G04 #@! TO.N,Net-(Q2-Pad2)*
X37925000Y-29535000D03*
G04 #@! TO.P,U6,14,~{RTS}*
G04 #@! TO.N,Net-(Q1-Pad2)*
X37925000Y-30805000D03*
G04 #@! TO.P,U6,15,R232*
G04 #@! TO.N,unconnected-(U6-Pad15)*
X37925000Y-32075000D03*
G04 #@! TO.P,U6,16,VCC*
G04 #@! TO.N,+3V3*
X37925000Y-33345000D03*
G04 #@! TD*
D22*
G04 #@! TO.P,J2,1*
G04 #@! TO.N,5V_DSM*
X51830000Y-61230000D03*
D23*
G04 #@! TO.P,J2,2*
G04 #@! TO.N,Net-(J2-Pad2)*
X53100000Y-63770000D03*
G04 #@! TO.P,J2,3*
G04 #@! TO.N,GND*
X54370000Y-61230000D03*
G04 #@! TO.P,J2,4*
G04 #@! TO.N,unconnected-(J2-Pad4)*
X55640000Y-63770000D03*
G04 #@! TO.P,J2,5*
G04 #@! TO.N,Net-(J2-Pad5)*
X56910000Y-61230000D03*
G04 #@! TO.P,J2,6*
G04 #@! TO.N,GND*
X58180000Y-63770000D03*
G04 #@! TD*
D30*
G04 #@! TO.P,R23,1*
G04 #@! TO.N,/ethernet/TX_P*
X34300000Y-53375000D03*
G04 #@! TO.P,R23,2*
G04 #@! TO.N,VDDA*
X34300000Y-55025000D03*
G04 #@! TD*
D44*
G04 #@! TO.P,D3,1,K*
G04 #@! TO.N,Net-(D3-Pad1)*
X41050000Y-39500000D03*
G04 #@! TO.P,D3,2,A*
G04 #@! TO.N,GND*
X38950000Y-39500000D03*
G04 #@! TD*
D21*
G04 #@! TO.P,C13,1*
G04 #@! TO.N,GND*
X30625000Y-47450000D03*
G04 #@! TO.P,C13,2*
G04 #@! TO.N,+3V3*
X32175000Y-47450000D03*
G04 #@! TD*
D16*
G04 #@! TO.P,R1,1*
G04 #@! TO.N,+3V3*
X46000000Y-32925000D03*
G04 #@! TO.P,R1,2*
G04 #@! TO.N,Net-(D1-Pad2)*
X46000000Y-31275000D03*
G04 #@! TD*
D17*
G04 #@! TO.P,R5,1*
G04 #@! TO.N,Net-(C4-Pad1)*
X59825000Y-58370000D03*
G04 #@! TO.P,R5,2*
G04 #@! TO.N,Net-(J2-Pad5)*
X61475000Y-58370000D03*
G04 #@! TD*
D40*
G04 #@! TO.P,Q1,1,B*
G04 #@! TO.N,Net-(Q1-Pad1)*
X40250000Y-35262500D03*
G04 #@! TO.P,Q1,2,E*
G04 #@! TO.N,Net-(Q1-Pad2)*
X38350000Y-35262500D03*
G04 #@! TO.P,Q1,3,C*
G04 #@! TO.N,/USB/EN*
X39300000Y-37137500D03*
G04 #@! TD*
D11*
G04 #@! TO.P,C17,1*
G04 #@! TO.N,GND*
X31000000Y-49025000D03*
G04 #@! TO.P,C17,2*
G04 #@! TO.N,VDDA*
X31000000Y-50575000D03*
G04 #@! TD*
D15*
G04 #@! TO.P,R26,1*
G04 #@! TO.N,Net-(J4-Pad3)*
X73925000Y-56600000D03*
G04 #@! TO.P,R26,2*
G04 #@! TO.N,Net-(J4-Pad4)*
X72275000Y-56600000D03*
G04 #@! TD*
D11*
G04 #@! TO.P,C9,1*
G04 #@! TO.N,+3V3*
X47600000Y-24525000D03*
G04 #@! TO.P,C9,2*
G04 #@! TO.N,GND*
X47600000Y-26075000D03*
G04 #@! TD*
D41*
G04 #@! TO.P,J3,1,Pin_1*
G04 #@! TO.N,+3V3*
X67500000Y-57350000D03*
D42*
G04 #@! TO.P,J3,2,Pin_2*
G04 #@! TO.N,Net-(C4-Pad1)*
X67500000Y-54810000D03*
G04 #@! TO.P,J3,3,Pin_3*
G04 #@! TO.N,+5V*
X67500000Y-52270000D03*
G04 #@! TD*
D45*
G04 #@! TO.P,U4,1,VCCA*
G04 #@! TO.N,Net-(C4-Pad1)*
X57550000Y-55650000D03*
G04 #@! TO.P,U4,2,GND*
G04 #@! TO.N,GND*
X58200000Y-55650000D03*
G04 #@! TO.P,U4,3,A*
G04 #@! TO.N,Net-(J2-Pad2)*
X58850000Y-55650000D03*
G04 #@! TO.P,U4,4,B*
G04 #@! TO.N,/P1_UART/DATA_IN*
X58850000Y-53750000D03*
G04 #@! TO.P,U4,5,DIR*
G04 #@! TO.N,GND*
X58200000Y-53750000D03*
G04 #@! TO.P,U4,6,VCCB*
G04 #@! TO.N,+3V3*
X57550000Y-53750000D03*
G04 #@! TD*
D30*
G04 #@! TO.P,R29,1*
G04 #@! TO.N,+3V3*
X47550000Y-35400000D03*
G04 #@! TO.P,R29,2*
G04 #@! TO.N,/USB/EN*
X47550000Y-37050000D03*
G04 #@! TD*
D16*
G04 #@! TO.P,R17,1*
G04 #@! TO.N,Net-(J6-Pad10)*
X48800000Y-58325000D03*
G04 #@! TO.P,R17,2*
G04 #@! TO.N,Net-(R17-Pad2)*
X48800000Y-56675000D03*
G04 #@! TD*
D15*
G04 #@! TO.P,R8,1*
G04 #@! TO.N,GND*
X33825000Y-35300000D03*
G04 #@! TO.P,R8,2*
G04 #@! TO.N,Net-(J5-PadB5)*
X32175000Y-35300000D03*
G04 #@! TD*
D18*
G04 #@! TO.P,C3,1*
G04 #@! TO.N,+5V*
X52747349Y-48150000D03*
D19*
G04 #@! TO.P,C3,2*
G04 #@! TO.N,GND*
X56247349Y-48150000D03*
G04 #@! TD*
D45*
G04 #@! TO.P,U3,1,VCCA*
G04 #@! TO.N,Net-(C4-Pad1)*
X61050000Y-55657500D03*
G04 #@! TO.P,U3,2,GND*
G04 #@! TO.N,GND*
X61700000Y-55657500D03*
G04 #@! TO.P,U3,3,A*
G04 #@! TO.N,Net-(J2-Pad5)*
X62350000Y-55657500D03*
G04 #@! TO.P,U3,4,B*
G04 #@! TO.N,/P1_UART/DATA_OUT*
X62350000Y-53757500D03*
G04 #@! TO.P,U3,5,DIR*
G04 #@! TO.N,Net-(C4-Pad1)*
X61700000Y-53757500D03*
G04 #@! TO.P,U3,6,VCCB*
G04 #@! TO.N,+3V3*
X61050000Y-53757500D03*
G04 #@! TD*
D25*
G04 #@! TO.P,C10,1*
G04 #@! TO.N,GND*
X45900000Y-26075000D03*
G04 #@! TO.P,C10,2*
G04 #@! TO.N,+3V3*
X45900000Y-24525000D03*
G04 #@! TD*
D30*
G04 #@! TO.P,R22,1*
G04 #@! TO.N,/ethernet/TX_N*
X32500000Y-53375000D03*
G04 #@! TO.P,R22,2*
G04 #@! TO.N,VDDA*
X32500000Y-55025000D03*
G04 #@! TD*
D16*
G04 #@! TO.P,R15,1*
G04 #@! TO.N,+3V3*
X62700000Y-47125000D03*
G04 #@! TO.P,R15,2*
G04 #@! TO.N,/ethernet/RXD1*
X62700000Y-45475000D03*
G04 #@! TD*
D17*
G04 #@! TO.P,R6,1*
G04 #@! TO.N,Net-(J2-Pad5)*
X63225000Y-58370000D03*
G04 #@! TO.P,R6,2*
G04 #@! TO.N,GND*
X64875000Y-58370000D03*
G04 #@! TD*
D46*
G04 #@! TO.N,GND*
X46700000Y-41900000D03*
X44600000Y-43200000D03*
X45200000Y-57200000D03*
X58200000Y-57200000D03*
X49000000Y-25600000D03*
X62400000Y-28900000D03*
X70300000Y-26600000D03*
X32300000Y-49100000D03*
X41225000Y-46800500D03*
X74900000Y-48000000D03*
X55800000Y-51900000D03*
X75800000Y-56500000D03*
X44100000Y-56600000D03*
X41600000Y-51900000D03*
X46700000Y-40600000D03*
X40500000Y-56100000D03*
X61800000Y-57200000D03*
X36100000Y-49800000D03*
X37400000Y-39500000D03*
X59400000Y-48100000D03*
X29400000Y-53800000D03*
X46700000Y-39400000D03*
X54200000Y-27500000D03*
X46700000Y-43100000D03*
X41200000Y-33100000D03*
X69900000Y-39700000D03*
X65100000Y-59500000D03*
G04 #@! TO.N,+3V3*
X67200000Y-48300000D03*
X68600000Y-26500000D03*
X33600000Y-47400000D03*
X76300000Y-48100000D03*
X39300000Y-43200000D03*
X61275020Y-48100000D03*
X47300000Y-33000000D03*
X61400000Y-51800000D03*
X29200000Y-47700000D03*
X40800000Y-43200000D03*
X44600000Y-24900000D03*
X57300000Y-52100000D03*
X39425000Y-31600000D03*
X37200000Y-46000000D03*
X37800000Y-43100000D03*
X62700000Y-48200000D03*
G04 #@! TO.N,5V_USB*
X36400000Y-31500000D03*
X36400000Y-26600000D03*
G04 #@! TO.N,VDDA*
X38300000Y-51700000D03*
X32000000Y-52400000D03*
X41500000Y-54300000D03*
X34100000Y-51859700D03*
X35200000Y-56200000D03*
G04 #@! TO.N,Net-(C18-Pad1)*
X39300000Y-56200000D03*
G04 #@! TO.N,5V_INVERTER*
X33700000Y-64100000D03*
G04 #@! TO.N,+5V*
X44900000Y-39300000D03*
G04 #@! TO.N,Net-(J4-Pad3)*
X73800000Y-60000000D03*
X73900000Y-52300000D03*
G04 #@! TO.N,/USB/EN*
X48325000Y-36250000D03*
X40300000Y-37100000D03*
X67300000Y-36400000D03*
G04 #@! TO.N,Net-(Q1-Pad2)*
X45225000Y-36150000D03*
X39325000Y-34800000D03*
G04 #@! TO.N,Net-(Q2-Pad1)*
X45975000Y-34225000D03*
X44000500Y-34225000D03*
G04 #@! TO.N,Net-(Q2-Pad2)*
X37399500Y-34225000D03*
X40250000Y-33125000D03*
G04 #@! TO.N,/ethernet/RXER*
X36000000Y-46300000D03*
X67200000Y-44300000D03*
G04 #@! TO.N,/ethernet/MDIO*
X59695000Y-44070000D03*
X34200000Y-46500000D03*
G04 #@! TO.N,/ethernet/CRS_DV*
X55700000Y-39900000D03*
X53700000Y-44800000D03*
X64200000Y-44300000D03*
X35100000Y-46500000D03*
X52400000Y-43400000D03*
G04 #@! TO.N,/ethernet/RST*
X33100000Y-49400000D03*
X60400000Y-48700000D03*
G04 #@! TO.N,/ethernet/RXD1*
X62100000Y-43900000D03*
X63499905Y-46399500D03*
X62100000Y-39700000D03*
X38741398Y-47031774D03*
G04 #@! TO.N,/ethernet/RXD0*
X63800000Y-38700000D03*
X66500000Y-46300000D03*
X38000000Y-46399509D03*
X65900000Y-44300000D03*
G04 #@! TO.N,Net-(R17-Pad2)*
X39000000Y-50000000D03*
X41300000Y-50100000D03*
G04 #@! TO.N,Net-(R18-Pad2)*
X42800000Y-51700000D03*
X39100000Y-51000000D03*
G04 #@! TO.N,/P1_UART/DATA_IN*
X55600000Y-38600000D03*
X57800000Y-43900000D03*
G04 #@! TO.N,/RS485/DI*
X70300000Y-43700000D03*
X54500000Y-37699500D03*
G04 #@! TO.N,/RS485/DO*
X54800000Y-28800000D03*
X70500000Y-29000000D03*
G04 #@! TO.N,/P1_UART/DATA_OUT*
X49900000Y-39300000D03*
X55800000Y-53400000D03*
X63100000Y-52200000D03*
X50799500Y-37699500D03*
G04 #@! TO.N,/RS485/TXEN*
X72700000Y-51600000D03*
X54700000Y-51800000D03*
G04 #@! TO.N,/ethernet/REFCLK*
X39000000Y-49124500D03*
X57800000Y-48600000D03*
G04 #@! TO.N,/ethernet/TXD0*
X62200000Y-51300000D03*
X32400000Y-50900000D03*
G04 #@! TO.N,/ethernet/TXEN*
X32300000Y-50000000D03*
X65100000Y-48800000D03*
G04 #@! TO.N,/USB/TX*
X64600000Y-35400000D03*
X41300000Y-31900000D03*
G04 #@! TO.N,/USB/RX*
X66000000Y-35300000D03*
X41300000Y-30800000D03*
G04 #@! TO.N,/ethernet/TXD1*
X33000000Y-51500000D03*
X66500000Y-48900000D03*
G04 #@! TO.N,/ethernet/MDC*
X33100000Y-48500000D03*
X69200000Y-45900000D03*
G04 #@! TD*
D47*
G04 #@! TO.N,Net-(C2-Pad2)*
X45425000Y-44750000D02*
X45700000Y-44475000D01*
X45700000Y-44475000D02*
X45700000Y-43825000D01*
X45700000Y-43825000D02*
X47575000Y-43825000D01*
X49975000Y-44775000D02*
X50050000Y-44850000D01*
X47575000Y-43825000D02*
X48525000Y-44775000D01*
X45700000Y-43825000D02*
X45700000Y-42500000D01*
X48525000Y-44775000D02*
X49975000Y-44775000D01*
D48*
X42925000Y-41885000D02*
X45085000Y-41885000D01*
X45085000Y-41885000D02*
X45700000Y-42500000D01*
D47*
G04 #@! TO.N,Net-(C4-Pad1)*
X61700000Y-54600000D02*
X61500000Y-54800000D01*
X61500000Y-54800000D02*
X64025000Y-54800000D01*
X64785000Y-54810000D02*
X67500000Y-54810000D01*
X61050000Y-55657500D02*
X61050000Y-57145000D01*
X61050000Y-57145000D02*
X59825000Y-58370000D01*
X64400000Y-54425000D02*
X64785000Y-54810000D01*
X57550000Y-55650000D02*
X57550000Y-55225000D01*
X61050000Y-54825000D02*
X61025000Y-54800000D01*
X61700000Y-53570000D02*
X61700000Y-54600000D01*
X64025000Y-54800000D02*
X64400000Y-54425000D01*
X61500000Y-54800000D02*
X61025000Y-54800000D01*
X61025000Y-54800000D02*
X57975000Y-54800000D01*
X61050000Y-55657500D02*
X61050000Y-54825000D01*
X57550000Y-55225000D02*
X57975000Y-54800000D01*
G04 #@! TO.N,GND*
X62355000Y-28945000D02*
X62400000Y-28900000D01*
X58200000Y-55837500D02*
X58200000Y-57200000D01*
X45900000Y-26075000D02*
X47600000Y-26075000D01*
X74925000Y-49300000D02*
X74925000Y-48025000D01*
D48*
X43825000Y-56325000D02*
X44100000Y-56600000D01*
X45675000Y-56725000D02*
X45200000Y-57200000D01*
D49*
X69855000Y-39745000D02*
X69900000Y-39700000D01*
D47*
X36200000Y-24900000D02*
X36200000Y-25500000D01*
X35880000Y-33320000D02*
X36200000Y-33000000D01*
X58200000Y-53562500D02*
X58200000Y-52025000D01*
D49*
X69855000Y-24700000D02*
X69855000Y-26155000D01*
D47*
X29175000Y-35300000D02*
X29175000Y-34325000D01*
D48*
X42875000Y-33345000D02*
X41445000Y-33345000D01*
X30625000Y-47450000D02*
X30625000Y-48650000D01*
D47*
X64400000Y-55975000D02*
X64400000Y-57895000D01*
X36200000Y-33000000D02*
X36200000Y-32500000D01*
X75975000Y-56325000D02*
X75800000Y-56500000D01*
D48*
X30625000Y-48650000D02*
X31000000Y-49025000D01*
X41445000Y-33345000D02*
X41200000Y-33100000D01*
D47*
X61700000Y-55845000D02*
X61700000Y-57100000D01*
X35950000Y-25750000D02*
X35045000Y-25750000D01*
D48*
X29325000Y-55000000D02*
X29325000Y-53875000D01*
X41275000Y-51575000D02*
X41600000Y-51900000D01*
X40550000Y-56050000D02*
X40500000Y-56100000D01*
D47*
X35950000Y-32250000D02*
X35045000Y-32250000D01*
X36200000Y-25500000D02*
X35950000Y-25750000D01*
X33825000Y-35300000D02*
X34130000Y-34995000D01*
X56199511Y-51500489D02*
X55800000Y-51900000D01*
X34130000Y-24680000D02*
X35980000Y-24680000D01*
D49*
X46715000Y-41885000D02*
X46700000Y-41900000D01*
D48*
X47200000Y-56725000D02*
X45675000Y-56725000D01*
D47*
X29950000Y-33550000D02*
X29950000Y-33320000D01*
X59600000Y-47900000D02*
X59400000Y-48100000D01*
D48*
X43825000Y-55100000D02*
X43825000Y-56325000D01*
D47*
X34130000Y-33320000D02*
X35880000Y-33320000D01*
D49*
X48175000Y-40615000D02*
X46715000Y-40615000D01*
D47*
X75525000Y-58300000D02*
X75525000Y-56775000D01*
D49*
X54185000Y-27485000D02*
X54200000Y-27500000D01*
D47*
X75975000Y-54805000D02*
X75975000Y-56325000D01*
X50005000Y-43155000D02*
X50050000Y-43200000D01*
D49*
X48175000Y-41885000D02*
X46715000Y-41885000D01*
D48*
X32225000Y-49025000D02*
X32300000Y-49100000D01*
X41075500Y-46950000D02*
X40100000Y-46950000D01*
D49*
X44555000Y-43155000D02*
X44600000Y-43200000D01*
X52345000Y-27485000D02*
X54185000Y-27485000D01*
D47*
X74925000Y-48025000D02*
X74900000Y-48000000D01*
D49*
X42925000Y-43155000D02*
X44555000Y-43155000D01*
X69855000Y-41700000D02*
X69855000Y-39745000D01*
D47*
X64875000Y-58370000D02*
X64875000Y-59275000D01*
X58200000Y-52025000D02*
X58425000Y-51800000D01*
X36200000Y-32500000D02*
X35950000Y-32250000D01*
X61700000Y-57100000D02*
X61800000Y-57200000D01*
D49*
X69855000Y-26155000D02*
X70300000Y-26600000D01*
D47*
X64875000Y-59275000D02*
X65100000Y-59500000D01*
D49*
X46715000Y-40615000D02*
X46700000Y-40600000D01*
D47*
X64400000Y-57895000D02*
X64875000Y-58370000D01*
X75525000Y-56775000D02*
X75800000Y-56500000D01*
X48175000Y-43155000D02*
X50005000Y-43155000D01*
X58125489Y-51500489D02*
X56199511Y-51500489D01*
X35980000Y-24680000D02*
X36200000Y-24900000D01*
X58425000Y-51800000D02*
X58125489Y-51500489D01*
D48*
X40100000Y-51575000D02*
X41275000Y-51575000D01*
X41225000Y-46800500D02*
X41075500Y-46950000D01*
D49*
X46755000Y-39345000D02*
X46700000Y-39400000D01*
D47*
X29175000Y-34325000D02*
X29950000Y-33550000D01*
D49*
X48175000Y-39345000D02*
X46755000Y-39345000D01*
D48*
X31000000Y-49025000D02*
X32225000Y-49025000D01*
X29325000Y-53875000D02*
X29400000Y-53800000D01*
X40550000Y-54975000D02*
X40550000Y-56050000D01*
X29400000Y-49025000D02*
X31000000Y-49025000D01*
D47*
X48525000Y-26075000D02*
X49000000Y-25600000D01*
X47600000Y-26075000D02*
X48525000Y-26075000D01*
X62355000Y-32200000D02*
X62355000Y-28945000D01*
D49*
X46755000Y-43155000D02*
X46700000Y-43100000D01*
X38950000Y-39500000D02*
X37400000Y-39500000D01*
D47*
X34130000Y-34995000D02*
X34130000Y-33320000D01*
X59600000Y-47125000D02*
X59600000Y-47900000D01*
D49*
X48175000Y-43155000D02*
X46755000Y-43155000D01*
D47*
G04 #@! TO.N,+3V3*
X62700000Y-47125000D02*
X62700000Y-48200000D01*
D48*
X28600480Y-50100480D02*
X28600480Y-48299520D01*
D47*
X32175000Y-47450000D02*
X33550000Y-47450000D01*
D49*
X68585000Y-24700000D02*
X68585000Y-26485000D01*
D47*
X47550000Y-35400000D02*
X49100000Y-35400000D01*
X65900000Y-47125000D02*
X66625000Y-47125000D01*
D48*
X29400000Y-50575000D02*
X29400000Y-51987500D01*
D49*
X40700000Y-44000000D02*
X40800000Y-43900000D01*
D47*
X76600000Y-49425000D02*
X76475000Y-49300000D01*
D49*
X40400000Y-44300000D02*
X40700000Y-44000000D01*
D50*
X47600000Y-24525000D02*
X45900000Y-24525000D01*
D47*
X76475000Y-49300000D02*
X76475000Y-48275000D01*
X47300000Y-33000000D02*
X47550000Y-33250000D01*
X46000000Y-32925000D02*
X47225000Y-32925000D01*
D50*
X45900000Y-24525000D02*
X44975000Y-24525000D01*
D47*
X66625000Y-47725000D02*
X67200000Y-48300000D01*
X57300000Y-52850000D02*
X57550000Y-53100000D01*
D49*
X40800000Y-43900000D02*
X40800000Y-43200000D01*
D47*
X44465000Y-29535000D02*
X42875000Y-29535000D01*
X76600000Y-50900000D02*
X76600000Y-49425000D01*
D49*
X39300000Y-44300000D02*
X40400000Y-44300000D01*
D47*
X39425000Y-32350000D02*
X39425000Y-31600000D01*
X43875000Y-44750000D02*
X42425000Y-44750000D01*
X76505000Y-50995000D02*
X76600000Y-50900000D01*
X37925000Y-33345000D02*
X38430000Y-33345000D01*
X47225000Y-32925000D02*
X47300000Y-33000000D01*
X61100000Y-47125000D02*
X61100000Y-47924980D01*
X59975000Y-51800000D02*
X61400000Y-51800000D01*
D49*
X39300000Y-44300000D02*
X39300000Y-43200000D01*
D50*
X44975000Y-24525000D02*
X44600000Y-24900000D01*
D49*
X39300000Y-44300000D02*
X40700000Y-44300000D01*
D47*
X36300000Y-46900000D02*
X37200000Y-46000000D01*
X66625000Y-47125000D02*
X67400000Y-47125000D01*
X61050000Y-53757500D02*
X61050000Y-52150000D01*
X42425000Y-44750000D02*
X42350000Y-44675000D01*
D48*
X29075000Y-50575000D02*
X28600480Y-50100480D01*
D47*
X44600000Y-24900000D02*
X44600000Y-29400000D01*
D49*
X68585000Y-26485000D02*
X68600000Y-26500000D01*
D47*
X33550000Y-47450000D02*
X33600000Y-47400000D01*
X38430000Y-33345000D02*
X39350000Y-32425000D01*
D48*
X29400000Y-51987500D02*
X29087500Y-52300000D01*
D47*
X76475000Y-48275000D02*
X76300000Y-48100000D01*
D49*
X39300000Y-44300000D02*
X38100000Y-44300000D01*
D47*
X75975000Y-50995000D02*
X76505000Y-50995000D01*
X57300000Y-52100000D02*
X57300000Y-52850000D01*
X39350000Y-32425000D02*
X39425000Y-32350000D01*
X66625000Y-47125000D02*
X66625000Y-47725000D01*
X41975000Y-44300000D02*
X39300000Y-44300000D01*
X47375000Y-32925000D02*
X47300000Y-33000000D01*
X61100000Y-47924980D02*
X61275020Y-48100000D01*
X42350000Y-44675000D02*
X41975000Y-44300000D01*
X57550000Y-53100000D02*
X57550000Y-53750000D01*
X62700000Y-47125000D02*
X64300000Y-47125000D01*
D48*
X28600480Y-48299520D02*
X29200000Y-47700000D01*
D47*
X44600000Y-29400000D02*
X44465000Y-29535000D01*
D49*
X37800000Y-44000000D02*
X37800000Y-43100000D01*
D47*
X47550000Y-33250000D02*
X47550000Y-35400000D01*
D48*
X29400000Y-50575000D02*
X29075000Y-50575000D01*
D49*
X38100000Y-44300000D02*
X37800000Y-44000000D01*
D47*
X61050000Y-52150000D02*
X61400000Y-51800000D01*
X48600000Y-32925000D02*
X47375000Y-32925000D01*
X36300000Y-47812500D02*
X36300000Y-46900000D01*
G04 #@! TO.N,5V_USB*
X35045000Y-26550000D02*
X36350000Y-26550000D01*
X35045000Y-31450000D02*
X36350000Y-31450000D01*
X36350000Y-26550000D02*
X36400000Y-26600000D01*
X36350000Y-31450000D02*
X36400000Y-31500000D01*
G04 #@! TO.N,VDDA*
X30912500Y-54962500D02*
X30875000Y-55000000D01*
D48*
X32000000Y-52300000D02*
X30912500Y-52300000D01*
X37500000Y-54875000D02*
X39000000Y-53375000D01*
X34300000Y-55800000D02*
X34700000Y-56200000D01*
X32500000Y-55025000D02*
X30900000Y-55025000D01*
X34800000Y-51687500D02*
X34272200Y-51687500D01*
X37500000Y-55025000D02*
X37500000Y-54875000D01*
X41500000Y-54300000D02*
X40925000Y-53425000D01*
X40500000Y-53375000D02*
X40550000Y-53425000D01*
X34300000Y-55025000D02*
X34300000Y-55800000D01*
X40925000Y-53425000D02*
X40550000Y-53425000D01*
X37987500Y-51000000D02*
X37987500Y-51387500D01*
D47*
X30912500Y-52300000D02*
X30912500Y-54962500D01*
D48*
X32000000Y-52400000D02*
X32000000Y-52300000D01*
X35800000Y-55600000D02*
X35200000Y-56200000D01*
X35800000Y-55025000D02*
X35800000Y-55600000D01*
X34700000Y-56200000D02*
X35200000Y-56200000D01*
D47*
X31000000Y-52212500D02*
X30912500Y-52300000D01*
D48*
X34272200Y-51687500D02*
X34100000Y-51859700D01*
X30900000Y-55025000D02*
X30875000Y-55000000D01*
X37987500Y-51387500D02*
X38300000Y-51700000D01*
X39000000Y-53375000D02*
X40500000Y-53375000D01*
D47*
X31000000Y-50575000D02*
X31000000Y-52212500D01*
D48*
G04 #@! TO.N,Net-(C14-Pad2)*
X40100000Y-48500000D02*
X40100000Y-50025000D01*
X37987500Y-48500000D02*
X40100000Y-48500000D01*
G04 #@! TO.N,Net-(C18-Pad1)*
X37120411Y-57887500D02*
X37360000Y-57887500D01*
X38600000Y-62100000D02*
X35400000Y-62100000D01*
X39000000Y-55900000D02*
X39300000Y-56200000D01*
X39000000Y-55025000D02*
X39000000Y-55900000D01*
X38640000Y-60427500D02*
X38640000Y-62060000D01*
X34900000Y-61600000D02*
X34900000Y-60107911D01*
X38640000Y-62060000D02*
X38600000Y-62100000D01*
X35400000Y-62100000D02*
X34900000Y-61600000D01*
X47200000Y-58275000D02*
X43375000Y-62100000D01*
X34900000Y-60107911D02*
X37120411Y-57887500D01*
X43375000Y-62100000D02*
X38600000Y-62100000D01*
D47*
G04 #@! TO.N,/USB/GP0*
X49600000Y-38100000D02*
X50600000Y-39100000D01*
X43662500Y-38000000D02*
X44700000Y-38000000D01*
X43000000Y-37337500D02*
X43662500Y-38000000D01*
X46200000Y-27862500D02*
X45337500Y-27862500D01*
X44600000Y-37900000D02*
X44700000Y-38000000D01*
X50600000Y-41200000D02*
X51100000Y-41700000D01*
X44600000Y-30000000D02*
X44600000Y-37900000D01*
X44999520Y-28200480D02*
X44999520Y-29600480D01*
X49100000Y-37600000D02*
X49600000Y-38100000D01*
X44999520Y-29600480D02*
X44600000Y-30000000D01*
X49100000Y-37050000D02*
X49100000Y-37600000D01*
X45337500Y-27862500D02*
X44999520Y-28200480D01*
X49500000Y-38000000D02*
X49600000Y-38100000D01*
X50600000Y-39100000D02*
X50600000Y-41200000D01*
X44700000Y-38000000D02*
X49500000Y-38000000D01*
X51100000Y-41700000D02*
X53345000Y-41700000D01*
G04 #@! TO.N,Net-(D1-Pad2)*
X46200000Y-31075000D02*
X46000000Y-31275000D01*
X46200000Y-29737500D02*
X46200000Y-31075000D01*
G04 #@! TO.N,Net-(D2-Pad1)*
X50200000Y-38134994D02*
X50980006Y-38915000D01*
X48400000Y-27862500D02*
X49662500Y-27862500D01*
X49662500Y-27862500D02*
X50200000Y-28400000D01*
X50980006Y-38915000D02*
X52345000Y-38915000D01*
X50200000Y-28400000D02*
X50200000Y-38134994D01*
G04 #@! TO.N,Net-(D2-Pad2)*
X48400000Y-31075000D02*
X48600000Y-31275000D01*
X48400000Y-29737500D02*
X48400000Y-31075000D01*
D49*
G04 #@! TO.N,Net-(D3-Pad1)*
X41115000Y-40615000D02*
X40185000Y-40615000D01*
X42925000Y-40615000D02*
X41115000Y-40615000D01*
X41050000Y-40550000D02*
X41115000Y-40615000D01*
X40185000Y-40615000D02*
X39300000Y-41500000D01*
X41050000Y-39500000D02*
X41050000Y-40550000D01*
D47*
G04 #@! TO.N,+5V*
X69100000Y-56400000D02*
X69100000Y-53100000D01*
D49*
X42925000Y-39345000D02*
X44855000Y-39345000D01*
D47*
X70675000Y-58300000D02*
X70675000Y-57975000D01*
X68270000Y-52270000D02*
X67500000Y-52270000D01*
X69100000Y-53100000D02*
X68270000Y-52270000D01*
X70675000Y-57975000D02*
X69100000Y-56400000D01*
D49*
X44855000Y-39345000D02*
X44900000Y-39300000D01*
D47*
G04 #@! TO.N,Net-(J2-Pad5)*
X62350000Y-55657500D02*
X62350000Y-56300000D01*
X62350000Y-56300000D02*
X62650000Y-56600000D01*
X56910000Y-61230000D02*
X60470000Y-61230000D01*
X60470000Y-61230000D02*
X61600000Y-60100000D01*
X62650000Y-56600000D02*
X62650000Y-57795000D01*
X61600000Y-58495000D02*
X61475000Y-58370000D01*
X62650000Y-57795000D02*
X63225000Y-58370000D01*
X61600000Y-60100000D02*
X61600000Y-58495000D01*
X61475000Y-58370000D02*
X63225000Y-58370000D01*
G04 #@! TO.N,Net-(J2-Pad2)*
X53100000Y-63770000D02*
X53100000Y-58900000D01*
X53100000Y-58900000D02*
X53800000Y-58200000D01*
X58375000Y-58200000D02*
X58850000Y-57725000D01*
X53800000Y-58200000D02*
X58375000Y-58200000D01*
X58850000Y-57725000D02*
X58850000Y-55650000D01*
G04 #@! TO.N,Net-(J4-Pad4)*
X70640000Y-63770000D02*
X70640000Y-60260000D01*
X71400000Y-59500000D02*
X72300000Y-59500000D01*
X72325000Y-59475000D02*
X72325000Y-58300000D01*
X75840000Y-53400000D02*
X75975000Y-53535000D01*
X73000000Y-53400000D02*
X75840000Y-53400000D01*
X72299520Y-54100480D02*
X73000000Y-53400000D01*
X70640000Y-60260000D02*
X71400000Y-59500000D01*
X72275000Y-58250000D02*
X72325000Y-58300000D01*
X72275000Y-56600000D02*
X72275000Y-58250000D01*
X72300000Y-59500000D02*
X72325000Y-59475000D01*
X72275000Y-56600000D02*
X72299520Y-56575480D01*
X72299520Y-56575480D02*
X72299520Y-54100480D01*
G04 #@! TO.N,Net-(J4-Pad3)*
X73875000Y-58300000D02*
X73875000Y-56650000D01*
X73900000Y-52300000D02*
X75940000Y-52300000D01*
X75940000Y-52300000D02*
X75975000Y-52265000D01*
X73875000Y-58300000D02*
X73875000Y-59925000D01*
X73875000Y-56650000D02*
X73925000Y-56600000D01*
X73875000Y-59925000D02*
X73800000Y-60000000D01*
D51*
G04 #@! TO.N,/ethernet/TX_P*
X35339682Y-52595800D02*
X33639576Y-52595800D01*
X35716111Y-57216111D02*
X35716111Y-58483889D01*
X33639576Y-52595800D02*
X33495800Y-52739576D01*
X35716111Y-58483889D02*
X33772500Y-60427500D01*
X33495800Y-56160318D02*
X34267741Y-56932259D01*
X35800000Y-51687500D02*
X35645800Y-51841700D01*
X33772500Y-60427500D02*
X33560000Y-60427500D01*
X35645800Y-52289682D02*
X35339682Y-52595800D01*
X35645800Y-51841700D02*
X35645800Y-52289682D01*
X33495800Y-53395800D02*
X33495800Y-56160318D01*
X34267741Y-56932259D02*
X35432259Y-56932259D01*
X35432259Y-56932259D02*
X35716111Y-57216111D01*
X34300000Y-53375000D02*
X33516600Y-53375000D01*
X33516600Y-53375000D02*
X33495800Y-53395800D01*
X33495800Y-52739576D02*
X33495800Y-53395800D01*
G04 #@! TO.N,/ethernet/TX_N*
X33304200Y-56239682D02*
X34820000Y-57755482D01*
X35454200Y-51841700D02*
X35454200Y-52210318D01*
X33304200Y-52660212D02*
X33304200Y-53395800D01*
X32500000Y-53375000D02*
X33283400Y-53375000D01*
X35454200Y-52210318D02*
X35260318Y-52404200D01*
X33283400Y-53375000D02*
X33304200Y-53395800D01*
X33304200Y-53395800D02*
X33304200Y-56239682D01*
X35300000Y-51687500D02*
X35454200Y-51841700D01*
X35260318Y-52404200D02*
X33560212Y-52404200D01*
X34820000Y-57755482D02*
X34820000Y-57887500D01*
X33560212Y-52404200D02*
X33304200Y-52660212D01*
G04 #@! TO.N,/ethernet/RX_P*
X38567741Y-56332259D02*
X38567741Y-56332939D01*
X36780480Y-52344998D02*
X36645800Y-52210318D01*
X36780480Y-55409126D02*
X37040874Y-55669520D01*
X38567741Y-56332939D02*
X39117401Y-56882599D01*
X39117401Y-56882599D02*
X40482599Y-56882599D01*
X37905002Y-55669520D02*
X38567741Y-56332259D01*
X36645800Y-51841700D02*
X36645800Y-52210318D01*
X37500000Y-53375000D02*
X36785960Y-53375000D01*
X36780480Y-53380480D02*
X36780480Y-55409126D01*
X36785960Y-53375000D02*
X36780480Y-53380480D01*
X36800000Y-51687500D02*
X36645800Y-51841700D01*
X41000000Y-57400000D02*
X41000000Y-58700000D01*
X41000000Y-58700000D02*
X40600000Y-59100000D01*
X36780480Y-52900005D02*
X36780480Y-52344998D01*
X40482599Y-56882599D02*
X41000000Y-57400000D01*
X36780480Y-53380480D02*
X36780480Y-52900005D01*
X40600000Y-59100000D02*
X37427500Y-59100000D01*
X37427500Y-59100000D02*
X36100000Y-60427500D01*
X37040874Y-55669520D02*
X37905002Y-55669520D01*
G04 #@! TO.N,/ethernet/RX_N*
X36300000Y-51687500D02*
X36454200Y-51841700D01*
X35800000Y-53375000D02*
X36575000Y-53375000D01*
X36588885Y-52424367D02*
X36454200Y-52289682D01*
X36588885Y-52900000D02*
X36588885Y-52424367D01*
X36961515Y-55861111D02*
X36588890Y-55488486D01*
X36588890Y-53388890D02*
X36588890Y-52900005D01*
X36454200Y-51841700D02*
X36454200Y-52289682D01*
X37825629Y-55861111D02*
X36961515Y-55861111D01*
X39900000Y-57887500D02*
X39852018Y-57887500D01*
X39852018Y-57887500D02*
X37825629Y-55861111D01*
X36575000Y-53375000D02*
X36588890Y-53388890D01*
X36588890Y-55488486D02*
X36588890Y-53388890D01*
X36588890Y-52900005D02*
X36588885Y-52900000D01*
D47*
G04 #@! TO.N,Net-(Q1-Pad1)*
X39801783Y-35262500D02*
X40250000Y-35262500D01*
X36825000Y-35925000D02*
X37625000Y-36725000D01*
X38339283Y-36725000D02*
X39801783Y-35262500D01*
X36825000Y-35300000D02*
X36825000Y-35925000D01*
X37625000Y-36725000D02*
X38339283Y-36725000D01*
G04 #@! TO.N,/USB/EN*
X47550000Y-37025000D02*
X48325000Y-36250000D01*
X39300000Y-37137500D02*
X40262500Y-37137500D01*
X40262500Y-37137500D02*
X40300000Y-37100000D01*
X67300000Y-36400000D02*
X67315000Y-36385000D01*
X47550000Y-37050000D02*
X47550000Y-37025000D01*
X67315000Y-36385000D02*
X67315000Y-24700000D01*
G04 #@! TO.N,Net-(Q1-Pad2)*
X39325000Y-33200000D02*
X39325000Y-34800000D01*
X38350000Y-35262500D02*
X38862500Y-35262500D01*
X38862500Y-35262500D02*
X39325000Y-34800000D01*
X37925000Y-30805000D02*
X39680000Y-30805000D01*
X39680000Y-30805000D02*
X40025000Y-31150000D01*
X46000000Y-36925000D02*
X45225000Y-36150000D01*
X40025000Y-32500000D02*
X39325000Y-33200000D01*
X40025000Y-31150000D02*
X40025000Y-32500000D01*
X46000000Y-37050000D02*
X46000000Y-36925000D01*
G04 #@! TO.N,Net-(Q2-Pad1)*
X43950000Y-34275500D02*
X44000500Y-34225000D01*
X43950000Y-35462500D02*
X43950000Y-34275500D01*
X45975000Y-34225000D02*
X45975000Y-35375000D01*
X45975000Y-35375000D02*
X46000000Y-35400000D01*
G04 #@! TO.N,Net-(Q2-Pad2)*
X35175000Y-35300000D02*
X35175000Y-34775000D01*
X39135000Y-29535000D02*
X39799520Y-30199520D01*
X41075000Y-33950000D02*
X41075000Y-34050000D01*
X40525000Y-30925000D02*
X40525000Y-32850000D01*
X35525000Y-34425000D02*
X35725000Y-34225000D01*
X35725000Y-34225000D02*
X37399500Y-34225000D01*
X39799520Y-30199520D02*
X40525000Y-30925000D01*
X40525000Y-32850000D02*
X40250000Y-33125000D01*
X37925000Y-29535000D02*
X39135000Y-29535000D01*
X40250000Y-33125000D02*
X41075000Y-33950000D01*
X41700000Y-34050000D02*
X42050000Y-34400000D01*
X41075000Y-34050000D02*
X41700000Y-34050000D01*
X35175000Y-34775000D02*
X35525000Y-34425000D01*
X42050000Y-34400000D02*
X42050000Y-35462500D01*
G04 #@! TO.N,Net-(J5-PadA5)*
X31049520Y-35075480D02*
X31049520Y-28950480D01*
X30825000Y-35300000D02*
X31049520Y-35075480D01*
X32250000Y-27750000D02*
X35045000Y-27750000D01*
X31049520Y-28950480D02*
X32250000Y-27750000D01*
G04 #@! TO.N,Net-(J5-PadB5)*
X35045000Y-30750000D02*
X32850000Y-30750000D01*
X32175000Y-35300000D02*
X32175000Y-31425000D01*
X32850000Y-30750000D02*
X32175000Y-31425000D01*
G04 #@! TO.N,/ethernet/RXER*
X67200000Y-44300000D02*
X67200000Y-45475000D01*
X35800000Y-47812500D02*
X35800000Y-46500000D01*
X35800000Y-46500000D02*
X36000000Y-46300000D01*
G04 #@! TO.N,/ethernet/MDIO*
X61100000Y-45475000D02*
X59695000Y-44070000D01*
D48*
X34800000Y-47812500D02*
X34800000Y-47100000D01*
D47*
X59695000Y-44070000D02*
X59695000Y-41700000D01*
D48*
X34800000Y-47100000D02*
X34200000Y-46500000D01*
D47*
G04 #@! TO.N,/ethernet/CRS_DV*
X56500000Y-26500000D02*
X56500000Y-39100000D01*
X55885000Y-24700000D02*
X55885000Y-25885000D01*
X53700000Y-44700000D02*
X52400000Y-43400000D01*
X64200000Y-44300000D02*
X64200000Y-45475000D01*
X35300000Y-47812500D02*
X35300000Y-46700000D01*
X53700000Y-44800000D02*
X53700000Y-44700000D01*
X55885000Y-25885000D02*
X56500000Y-26500000D01*
X35300000Y-46700000D02*
X35100000Y-46500000D01*
X56500000Y-39100000D02*
X55700000Y-39900000D01*
G04 #@! TO.N,/ethernet/RST*
X60400000Y-48700000D02*
X60325480Y-48625480D01*
D48*
X34112500Y-49500000D02*
X33200000Y-49500000D01*
D47*
X60325480Y-48625480D02*
X60325480Y-46300480D01*
D48*
X33200000Y-49500000D02*
X33100000Y-49400000D01*
D47*
X58425000Y-44300000D02*
X59600000Y-45475000D01*
X60325480Y-46300480D02*
X59500000Y-45475000D01*
X58425000Y-41700000D02*
X58425000Y-44300000D01*
G04 #@! TO.N,/ethernet/RXD1*
X63499905Y-46274905D02*
X62700000Y-45475000D01*
X62700000Y-44500000D02*
X62100000Y-43900000D01*
X63499905Y-46399500D02*
X63499905Y-46274905D01*
X37300000Y-47300000D02*
X37500000Y-47100000D01*
X37300000Y-47812500D02*
X37300000Y-47300000D01*
X62700000Y-45475000D02*
X62700000Y-44500000D01*
X62100000Y-39700000D02*
X58000000Y-39700000D01*
X57155000Y-38745000D02*
X57155000Y-24700000D01*
X37500000Y-47100000D02*
X37568226Y-47031774D01*
X57100000Y-38800000D02*
X57155000Y-38745000D01*
X37568226Y-47031774D02*
X38741398Y-47031774D01*
X58000000Y-39700000D02*
X57100000Y-38800000D01*
G04 #@! TO.N,/ethernet/RXD0*
X63700000Y-38800000D02*
X63800000Y-38700000D01*
X66500000Y-46275000D02*
X65700000Y-45475000D01*
X37032503Y-46732503D02*
X37165006Y-46600000D01*
X58425000Y-24700000D02*
X58425000Y-38225000D01*
X58425000Y-38225000D02*
X59000000Y-38800000D01*
X37165006Y-46600000D02*
X37600000Y-46600000D01*
X59000000Y-38800000D02*
X63700000Y-38800000D01*
X37600000Y-46600000D02*
X37800491Y-46399509D01*
X36800000Y-46965006D02*
X37032503Y-46732503D01*
X36800000Y-47812500D02*
X36800000Y-46965006D01*
X65900000Y-44300000D02*
X65900000Y-45475000D01*
X37800491Y-46399509D02*
X38000000Y-46399509D01*
X66500000Y-46300000D02*
X66500000Y-46275000D01*
G04 #@! TO.N,Net-(R17-Pad2)*
X48800000Y-56675000D02*
X46025000Y-53900000D01*
D48*
X37987500Y-50000000D02*
X39000000Y-50000000D01*
D47*
X42200000Y-51600000D02*
X42200000Y-51000000D01*
X42200000Y-53100000D02*
X42200000Y-51600000D01*
X42200000Y-51000000D02*
X41300000Y-50100000D01*
X46025000Y-53900000D02*
X43000000Y-53900000D01*
X43000000Y-53900000D02*
X42200000Y-53100000D01*
D48*
G04 #@! TO.N,Net-(R18-Pad2)*
X37987500Y-50500000D02*
X38600000Y-50500000D01*
D47*
X50400000Y-55800000D02*
X50400000Y-56675000D01*
X50000000Y-55400000D02*
X50400000Y-55800000D01*
X42800000Y-53000000D02*
X43300000Y-53500000D01*
X48100000Y-55400000D02*
X50000000Y-55400000D01*
X43300000Y-53500000D02*
X46200000Y-53500000D01*
D48*
X38600000Y-50500000D02*
X39100000Y-51000000D01*
D47*
X42800000Y-51700000D02*
X42800000Y-53000000D01*
X46200000Y-53500000D02*
X48100000Y-55400000D01*
D48*
G04 #@! TO.N,Net-(R19-Pad1)*
X37300000Y-51687500D02*
X37300000Y-52200000D01*
X42175000Y-55100000D02*
X42175000Y-53775000D01*
X37300000Y-52200000D02*
X37600000Y-52500000D01*
X42175000Y-53775000D02*
X40900000Y-52500000D01*
X37600000Y-52500000D02*
X40900000Y-52500000D01*
D47*
G04 #@! TO.N,/P1_UART/DATA_IN*
X58400000Y-45800000D02*
X58400000Y-49300000D01*
X58850000Y-53750000D02*
X58850000Y-53325000D01*
X55900000Y-27100000D02*
X55900000Y-38300000D01*
X54615000Y-24700000D02*
X54615000Y-25815000D01*
X58400000Y-49300000D02*
X59174520Y-50074520D01*
X55900000Y-38300000D02*
X55600000Y-38600000D01*
X59174520Y-50074520D02*
X59174520Y-53000480D01*
X57800000Y-45200000D02*
X58400000Y-45800000D01*
X54615000Y-25815000D02*
X55900000Y-27100000D01*
X57800000Y-43900000D02*
X57800000Y-45200000D01*
X58850000Y-53325000D02*
X59174520Y-53000480D01*
G04 #@! TO.N,/RS485/DI*
X54800500Y-37699500D02*
X55485480Y-37014520D01*
X55485480Y-27685480D02*
X54300000Y-26500000D01*
X71025000Y-54805000D02*
X70305000Y-54805000D01*
X53345000Y-26245000D02*
X53345000Y-24700000D01*
X55485480Y-37014520D02*
X55485480Y-27685480D01*
X70305000Y-54805000D02*
X69750480Y-54250480D01*
X69750480Y-54250480D02*
X69750480Y-46649520D01*
X70400000Y-43800000D02*
X70300000Y-43700000D01*
X54300000Y-26500000D02*
X53600000Y-26500000D01*
X70400000Y-46000000D02*
X70400000Y-43800000D01*
X54500000Y-37699500D02*
X54800500Y-37699500D01*
X69750480Y-46649520D02*
X70400000Y-46000000D01*
X53600000Y-26500000D02*
X53345000Y-26245000D01*
G04 #@! TO.N,/RS485/DO*
X52345000Y-28755000D02*
X54755000Y-28755000D01*
X71025000Y-29525000D02*
X70500000Y-29000000D01*
X54755000Y-28755000D02*
X54800000Y-28800000D01*
X71025000Y-50995000D02*
X71025000Y-29525000D01*
G04 #@! TO.N,/P1_UART/DATA_OUT*
X52000000Y-53400000D02*
X55800000Y-53400000D01*
X49900000Y-41800000D02*
X50800000Y-42700000D01*
X62350000Y-53757500D02*
X62350000Y-52950000D01*
X49900000Y-39300000D02*
X49900000Y-41800000D01*
X51900000Y-53300000D02*
X52000000Y-53400000D01*
X51000000Y-48800000D02*
X51000000Y-52400000D01*
X52345000Y-37645000D02*
X50854000Y-37645000D01*
X50800000Y-42700000D02*
X51000000Y-42900000D01*
X51000000Y-42900000D02*
X51000000Y-48800000D01*
X62350000Y-52950000D02*
X63100000Y-52200000D01*
X51000000Y-52400000D02*
X51900000Y-53300000D01*
X50854000Y-37645000D02*
X50799500Y-37699500D01*
G04 #@! TO.N,/RS485/TXEN*
X54615000Y-44962707D02*
X54700000Y-45047707D01*
X54700000Y-45047707D02*
X54700000Y-51800000D01*
X72035000Y-52265000D02*
X72700000Y-51600000D01*
X71025000Y-52265000D02*
X72035000Y-52265000D01*
X54615000Y-41700000D02*
X54615000Y-44962707D01*
X71025000Y-53535000D02*
X71025000Y-52265000D01*
G04 #@! TO.N,/ethernet/REFCLK*
X57800000Y-46600000D02*
X57155000Y-45921027D01*
X57800000Y-48600000D02*
X57800000Y-46600000D01*
X57155000Y-45921027D02*
X57155000Y-41700000D01*
D48*
X38875500Y-49000000D02*
X39000000Y-49124500D01*
X37987500Y-49000000D02*
X38875500Y-49000000D01*
D47*
G04 #@! TO.N,/ethernet/TXD0*
X34112500Y-50500000D02*
X32800000Y-50500000D01*
X61874520Y-44774520D02*
X60965000Y-43865000D01*
X62200000Y-51300000D02*
X61874520Y-50974520D01*
X32800000Y-50500000D02*
X32400000Y-50900000D01*
X60965000Y-43865000D02*
X60965000Y-41700000D01*
X61874520Y-50974520D02*
X61874520Y-44774520D01*
G04 #@! TO.N,/ethernet/TXEN*
X65100000Y-43900000D02*
X64500000Y-43300000D01*
X63505000Y-43105000D02*
X63505000Y-41700000D01*
X65100000Y-48800000D02*
X65100000Y-43900000D01*
X34112500Y-50000000D02*
X32300000Y-50000000D01*
X63700000Y-43300000D02*
X63505000Y-43105000D01*
X64500000Y-43300000D02*
X63700000Y-43300000D01*
G04 #@! TO.N,/USB/TX*
X64600000Y-35400000D02*
X64775000Y-35575000D01*
X42875000Y-32075000D02*
X41475000Y-32075000D01*
X64775000Y-35575000D02*
X64775000Y-41700000D01*
X41475000Y-32075000D02*
X41300000Y-31900000D01*
G04 #@! TO.N,/USB/RX*
X66045000Y-35345000D02*
X66045000Y-41700000D01*
X42875000Y-30805000D02*
X41305000Y-30805000D01*
X66000000Y-35300000D02*
X66045000Y-35345000D01*
X41305000Y-30805000D02*
X41300000Y-30800000D01*
G04 #@! TO.N,/ethernet/TXD1*
X68500000Y-48000000D02*
X68500000Y-44300000D01*
X67300000Y-43100000D02*
X67315000Y-43085000D01*
X34112500Y-51000000D02*
X33500000Y-51000000D01*
X68500000Y-44300000D02*
X67300000Y-43100000D01*
X67315000Y-43085000D02*
X67315000Y-41700000D01*
X66500000Y-48900000D02*
X67600000Y-48900000D01*
X33500000Y-51000000D02*
X33000000Y-51500000D01*
X67600000Y-48900000D02*
X68500000Y-48000000D01*
G04 #@! TO.N,/ethernet/MDC*
X68585000Y-41700000D02*
X68585000Y-43285000D01*
X68585000Y-43285000D02*
X69200000Y-43900000D01*
X69200000Y-43900000D02*
X69200000Y-45900000D01*
D48*
X34112500Y-48500000D02*
X33100000Y-48500000D01*
G04 #@! TO.N,Net-(J5-PadA6)*
X35950000Y-28750000D02*
X36089520Y-28889520D01*
X35950000Y-28750000D02*
X36069022Y-28750000D01*
X36069022Y-28750000D02*
X36094511Y-28775489D01*
X36094511Y-28775489D02*
X36094511Y-29605489D01*
X36089520Y-28889520D02*
X40610480Y-28889520D01*
X41235000Y-28265000D02*
X42875000Y-28265000D01*
X36094511Y-29605489D02*
X35950000Y-29750000D01*
X35950000Y-29750000D02*
X35045000Y-29750000D01*
X40610480Y-28889520D02*
X41235000Y-28265000D01*
X35045000Y-28750000D02*
X35950000Y-28750000D01*
G04 #@! TO.N,Net-(J5-PadA7)*
X36050000Y-28250000D02*
X36680480Y-27619520D01*
X41005000Y-26995000D02*
X42875000Y-26995000D01*
X34020978Y-28250000D02*
X33995489Y-28275489D01*
X40380480Y-27619520D02*
X41005000Y-26995000D01*
X33995489Y-28275489D02*
X33995489Y-29224511D01*
X33995489Y-29224511D02*
X34020978Y-29250000D01*
X36680480Y-27619520D02*
X40380480Y-27619520D01*
X35045000Y-28250000D02*
X36050000Y-28250000D01*
X34020978Y-29250000D02*
X35045000Y-29250000D01*
X35045000Y-28250000D02*
X34020978Y-28250000D01*
G04 #@! TO.N,Net-(J6-Pad10)*
X48200000Y-59400000D02*
X46710718Y-59400000D01*
X34900000Y-63700000D02*
X34900000Y-70702500D01*
X43561197Y-62549520D02*
X36050480Y-62549520D01*
X34900000Y-70702500D02*
X33915000Y-71687500D01*
X46710718Y-59400000D02*
X43561197Y-62549520D01*
X36050480Y-62549520D02*
X34900000Y-63700000D01*
X48800000Y-58325000D02*
X48800000Y-58800000D01*
X48800000Y-58800000D02*
X48200000Y-59400000D01*
G04 #@! TO.N,Net-(J6-Pad11)*
X46896916Y-59849520D02*
X49850480Y-59849520D01*
X41200000Y-70802500D02*
X41200000Y-63800000D01*
X43747395Y-62999040D02*
X46896916Y-59849520D01*
X42000960Y-62999040D02*
X43747395Y-62999040D01*
X49850480Y-59849520D02*
X50400000Y-59300000D01*
X50400000Y-59300000D02*
X50400000Y-58325000D01*
X41200000Y-63800000D02*
X42000960Y-62999040D01*
X42085000Y-71687500D02*
X41200000Y-70802500D01*
D47*
G04 #@! TO.N,Net-(R28-Pad1)*
X42350000Y-46325000D02*
X42900000Y-46325000D01*
X46875000Y-45325000D02*
X46875000Y-44775000D01*
X46375000Y-45825000D02*
X46875000Y-45325000D01*
X42900000Y-46325000D02*
X43425000Y-45800000D01*
X43425000Y-45800000D02*
X46350000Y-45800000D01*
X46350000Y-45800000D02*
X46375000Y-45825000D01*
G04 #@! TD*
M02*
