G04 #@! TF.GenerationSoftware,KiCad,Pcbnew,6.0.6+dfsg-1~bpo11+1*
G04 #@! TF.CreationDate,2022-07-19T19:35:54+02:00*
G04 #@! TF.ProjectId,EnergyMeter,456e6572-6779-44d6-9574-65722e6b6963,rev?*
G04 #@! TF.SameCoordinates,Original*
G04 #@! TF.FileFunction,Copper,L4,Bot*
G04 #@! TF.FilePolarity,Positive*
%FSLAX46Y46*%
G04 Gerber Fmt 4.6, Leading zero omitted, Abs format (unit mm)*
G04 Created by KiCad (PCBNEW 6.0.6+dfsg-1~bpo11+1) date 2022-07-19 19:35:54*
%MOMM*%
%LPD*%
G01*
G04 APERTURE LIST*
G04 Aperture macros list*
%AMRoundRect*
0 Rectangle with rounded corners*
0 $1 Rounding radius*
0 $2 $3 $4 $5 $6 $7 $8 $9 X,Y pos of 4 corners*
0 Add a 4 corners polygon primitive as box body*
4,1,4,$2,$3,$4,$5,$6,$7,$8,$9,$2,$3,0*
0 Add four circle primitives for the rounded corners*
1,1,$1+$1,$2,$3*
1,1,$1+$1,$4,$5*
1,1,$1+$1,$6,$7*
1,1,$1+$1,$8,$9*
0 Add four rect primitives between the rounded corners*
20,1,$1+$1,$2,$3,$4,$5,0*
20,1,$1+$1,$4,$5,$6,$7,0*
20,1,$1+$1,$6,$7,$8,$9,0*
20,1,$1+$1,$8,$9,$2,$3,0*%
G04 Aperture macros list end*
G04 #@! TA.AperFunction,ComponentPad*
%ADD10R,1.600000X1.600000*%
G04 #@! TD*
G04 #@! TA.AperFunction,ComponentPad*
%ADD11C,1.600000*%
G04 #@! TD*
G04 #@! TA.AperFunction,ComponentPad*
%ADD12R,1.520000X1.520000*%
G04 #@! TD*
G04 #@! TA.AperFunction,ComponentPad*
%ADD13C,1.520000*%
G04 #@! TD*
G04 #@! TA.AperFunction,ComponentPad*
%ADD14O,2.100000X1.000000*%
G04 #@! TD*
G04 #@! TA.AperFunction,ComponentPad*
%ADD15O,1.600000X1.000000*%
G04 #@! TD*
G04 #@! TA.AperFunction,ComponentPad*
%ADD16RoundRect,0.250500X-0.499500X-0.499500X0.499500X-0.499500X0.499500X0.499500X-0.499500X0.499500X0*%
G04 #@! TD*
G04 #@! TA.AperFunction,ComponentPad*
%ADD17C,1.500000*%
G04 #@! TD*
G04 #@! TA.AperFunction,ComponentPad*
%ADD18C,2.500000*%
G04 #@! TD*
G04 #@! TA.AperFunction,ComponentPad*
%ADD19R,1.700000X1.700000*%
G04 #@! TD*
G04 #@! TA.AperFunction,ComponentPad*
%ADD20O,1.700000X1.700000*%
G04 #@! TD*
G04 #@! TA.AperFunction,SMDPad,CuDef*
%ADD21RoundRect,0.225000X-0.250000X0.225000X-0.250000X-0.225000X0.250000X-0.225000X0.250000X0.225000X0*%
G04 #@! TD*
G04 #@! TA.AperFunction,SMDPad,CuDef*
%ADD22RoundRect,0.225000X0.225000X0.250000X-0.225000X0.250000X-0.225000X-0.250000X0.225000X-0.250000X0*%
G04 #@! TD*
G04 #@! TA.AperFunction,ViaPad*
%ADD23C,0.600000*%
G04 #@! TD*
G04 #@! TA.AperFunction,Conductor*
%ADD24C,0.200000*%
G04 #@! TD*
G04 #@! TA.AperFunction,Conductor*
%ADD25C,0.250000*%
G04 #@! TD*
G04 #@! TA.AperFunction,Conductor*
%ADD26C,1.000000*%
G04 #@! TD*
G04 APERTURE END LIST*
D10*
G04 #@! TO.P,C1,1*
G04 #@! TO.N,+3V3*
X44272349Y-50225000D03*
D11*
G04 #@! TO.P,C1,2*
G04 #@! TO.N,GND*
X47772349Y-50225000D03*
G04 #@! TD*
D12*
G04 #@! TO.P,J4,1*
G04 #@! TO.N,unconnected-(J4-Pad1)*
X66830000Y-61230000D03*
D13*
G04 #@! TO.P,J4,2*
G04 #@! TO.N,5V_INVERTER*
X68100000Y-63770000D03*
G04 #@! TO.P,J4,3*
G04 #@! TO.N,Net-(J4-Pad3)*
X69370000Y-61230000D03*
G04 #@! TO.P,J4,4*
G04 #@! TO.N,Net-(J4-Pad4)*
X70640000Y-63770000D03*
G04 #@! TO.P,J4,5*
G04 #@! TO.N,GND*
X71910000Y-61230000D03*
G04 #@! TO.P,J4,6*
G04 #@! TO.N,unconnected-(J4-Pad6)*
X73180000Y-63770000D03*
G04 #@! TD*
D14*
G04 #@! TO.P,J5,S1,SHIELD*
G04 #@! TO.N,GND*
X34130000Y-33320000D03*
D15*
X29950000Y-33320000D03*
D14*
X34130000Y-24680000D03*
D15*
X29950000Y-24680000D03*
G04 #@! TD*
D16*
G04 #@! TO.P,J6,1,TD+*
G04 #@! TO.N,/ethernet/TX_P*
X33560000Y-60427500D03*
D17*
G04 #@! TO.P,J6,2,TD-*
G04 #@! TO.N,/ethernet/TX_N*
X34820000Y-57887500D03*
G04 #@! TO.P,J6,3,RD+*
G04 #@! TO.N,/ethernet/RX_P*
X36100000Y-60427500D03*
G04 #@! TO.P,J6,4,TCT*
G04 #@! TO.N,Net-(C18-Pad1)*
X37360000Y-57887500D03*
G04 #@! TO.P,J6,5,RCT*
X38640000Y-60427500D03*
G04 #@! TO.P,J6,6,RD-*
G04 #@! TO.N,/ethernet/RX_N*
X39900000Y-57887500D03*
G04 #@! TO.P,J6,7*
G04 #@! TO.N,N/C*
X41180000Y-60427500D03*
G04 #@! TO.P,J6,8,GND*
G04 #@! TO.N,GND*
X42440000Y-57887500D03*
G04 #@! TO.P,J6,9,LEDG_A*
X31375000Y-71687500D03*
G04 #@! TO.P,J6,10,LEDG_K*
G04 #@! TO.N,Net-(J6-Pad10)*
X33915000Y-71687500D03*
G04 #@! TO.P,J6,11,LEDY_K*
G04 #@! TO.N,Net-(J6-Pad11)*
X42085000Y-71687500D03*
G04 #@! TO.P,J6,12,LEDY_A*
G04 #@! TO.N,VDDA*
X44625000Y-71687500D03*
D18*
G04 #@! TO.P,J6,SH,SHIELD*
G04 #@! TO.N,GND*
X30255000Y-63737500D03*
X45745000Y-63737500D03*
G04 #@! TD*
D19*
G04 #@! TO.P,J1,1,Pin_1*
G04 #@! TO.N,+5V*
X34840000Y-43180000D03*
D20*
G04 #@! TO.P,J1,2,Pin_2*
G04 #@! TO.N,5V_DSM*
X32300000Y-43180000D03*
G04 #@! TO.P,J1,3,Pin_3*
G04 #@! TO.N,+5V*
X34840000Y-40640000D03*
G04 #@! TO.P,J1,4,Pin_4*
G04 #@! TO.N,5V_INVERTER*
X32300000Y-40640000D03*
G04 #@! TO.P,J1,5,Pin_5*
G04 #@! TO.N,+5V*
X34840000Y-38100000D03*
G04 #@! TO.P,J1,6,Pin_6*
G04 #@! TO.N,5V_USB*
X32300000Y-38100000D03*
G04 #@! TD*
D12*
G04 #@! TO.P,J2,1*
G04 #@! TO.N,5V_DSM*
X51830000Y-61230000D03*
D13*
G04 #@! TO.P,J2,2*
G04 #@! TO.N,Net-(J2-Pad2)*
X53100000Y-63770000D03*
G04 #@! TO.P,J2,3*
G04 #@! TO.N,GND*
X54370000Y-61230000D03*
G04 #@! TO.P,J2,4*
G04 #@! TO.N,unconnected-(J2-Pad4)*
X55640000Y-63770000D03*
G04 #@! TO.P,J2,5*
G04 #@! TO.N,Net-(J2-Pad5)*
X56910000Y-61230000D03*
G04 #@! TO.P,J2,6*
G04 #@! TO.N,GND*
X58180000Y-63770000D03*
G04 #@! TD*
D19*
G04 #@! TO.P,J3,1,Pin_1*
G04 #@! TO.N,+3V3*
X67500000Y-57350000D03*
D20*
G04 #@! TO.P,J3,2,Pin_2*
G04 #@! TO.N,Net-(C4-Pad1)*
X67500000Y-54810000D03*
G04 #@! TO.P,J3,3,Pin_3*
G04 #@! TO.N,+5V*
X67500000Y-52270000D03*
G04 #@! TD*
D10*
G04 #@! TO.P,C3,1*
G04 #@! TO.N,+5V*
X52747349Y-48150000D03*
D11*
G04 #@! TO.P,C3,2*
G04 #@! TO.N,GND*
X56247349Y-48150000D03*
G04 #@! TD*
D21*
G04 #@! TO.P,C8,1*
G04 #@! TO.N,+3V3*
X67300000Y-27125000D03*
G04 #@! TO.P,C8,2*
G04 #@! TO.N,GND*
X67300000Y-28675000D03*
G04 #@! TD*
G04 #@! TO.P,C7,1*
G04 #@! TO.N,+3V3*
X65775000Y-27125000D03*
G04 #@! TO.P,C7,2*
G04 #@! TO.N,GND*
X65775000Y-28675000D03*
G04 #@! TD*
D22*
G04 #@! TO.P,C20,1*
G04 #@! TO.N,+5V*
X45175000Y-41000000D03*
G04 #@! TO.P,C20,2*
G04 #@! TO.N,GND*
X43625000Y-41000000D03*
G04 #@! TD*
G04 #@! TO.P,C19,1*
G04 #@! TO.N,+3V3*
X39300000Y-41425000D03*
G04 #@! TO.P,C19,2*
G04 #@! TO.N,GND*
X37750000Y-41425000D03*
G04 #@! TD*
D23*
G04 #@! TO.N,GND*
X46700000Y-41900000D03*
X44600000Y-43200000D03*
X45200000Y-57200000D03*
X58200000Y-57200000D03*
X49000000Y-25600000D03*
X62400000Y-28900000D03*
X70300000Y-26600000D03*
X32300000Y-49100000D03*
X41225000Y-46800500D03*
X74900000Y-48000000D03*
X55800000Y-51900000D03*
X75800000Y-56500000D03*
X44100000Y-56600000D03*
X41600000Y-51900000D03*
X46700000Y-40600000D03*
X40500000Y-56100000D03*
X61800000Y-57200000D03*
X36100000Y-49800000D03*
X37400000Y-39500000D03*
X59400000Y-48100000D03*
X29400000Y-53800000D03*
X46700000Y-39400000D03*
X54200000Y-27500000D03*
X46700000Y-43100000D03*
X41200000Y-33100000D03*
X69900000Y-39700000D03*
X65100000Y-59500000D03*
G04 #@! TO.N,+3V3*
X67200000Y-48300000D03*
X68600000Y-26500000D03*
X33600000Y-47400000D03*
X76300000Y-48100000D03*
X39300000Y-43200000D03*
X61275020Y-48100000D03*
X47300000Y-33000000D03*
X61400000Y-51800000D03*
X29200000Y-47700000D03*
X40800000Y-43200000D03*
X44600000Y-24900000D03*
X57300000Y-52100000D03*
X39425000Y-31600000D03*
X37200000Y-46000000D03*
X37800000Y-43100000D03*
X62700000Y-48200000D03*
G04 #@! TO.N,5V_USB*
X36400000Y-31500000D03*
X36400000Y-26600000D03*
G04 #@! TO.N,VDDA*
X38300000Y-51700000D03*
X32000000Y-52400000D03*
X41500000Y-54300000D03*
X34100000Y-51859700D03*
X35200000Y-56200000D03*
G04 #@! TO.N,Net-(C18-Pad1)*
X39300000Y-56200000D03*
G04 #@! TO.N,5V_INVERTER*
X33700000Y-64100000D03*
G04 #@! TO.N,+5V*
X44900000Y-39300000D03*
G04 #@! TO.N,Net-(J4-Pad3)*
X73800000Y-60000000D03*
X73900000Y-52300000D03*
G04 #@! TO.N,/USB/EN*
X48325000Y-36250000D03*
X40300000Y-37100000D03*
X67300000Y-36400000D03*
G04 #@! TO.N,Net-(Q1-Pad2)*
X45225000Y-36150000D03*
X39325000Y-34800000D03*
G04 #@! TO.N,Net-(Q2-Pad1)*
X45975000Y-34225000D03*
X44000500Y-34225000D03*
G04 #@! TO.N,Net-(Q2-Pad2)*
X37399500Y-34225000D03*
X40250000Y-33125000D03*
G04 #@! TO.N,/ethernet/RXER*
X36000000Y-46300000D03*
X67200000Y-44300000D03*
G04 #@! TO.N,/ethernet/MDIO*
X59695000Y-44070000D03*
X34200000Y-46500000D03*
G04 #@! TO.N,/ethernet/CRS_DV*
X55700000Y-39900000D03*
X53700000Y-44800000D03*
X64200000Y-44300000D03*
X35100000Y-46500000D03*
X52400000Y-43400000D03*
G04 #@! TO.N,/ethernet/RST*
X33100000Y-49400000D03*
X60400000Y-48700000D03*
G04 #@! TO.N,/ethernet/RXD1*
X62100000Y-43900000D03*
X63499905Y-46399500D03*
X62100000Y-39700000D03*
X38741398Y-47031774D03*
G04 #@! TO.N,/ethernet/RXD0*
X63800000Y-38700000D03*
X66500000Y-46300000D03*
X38000000Y-46399509D03*
X65900000Y-44300000D03*
G04 #@! TO.N,Net-(R17-Pad2)*
X39000000Y-50000000D03*
X41300000Y-50100000D03*
G04 #@! TO.N,Net-(R18-Pad2)*
X42800000Y-51700000D03*
X39100000Y-51000000D03*
G04 #@! TO.N,/P1_UART/DATA_IN*
X55600000Y-38600000D03*
X57800000Y-43900000D03*
G04 #@! TO.N,/RS485/DI*
X70300000Y-43700000D03*
X54500000Y-37699500D03*
G04 #@! TO.N,/RS485/DO*
X54800000Y-28800000D03*
X70500000Y-29000000D03*
G04 #@! TO.N,/P1_UART/DATA_OUT*
X49900000Y-39300000D03*
X55800000Y-53400000D03*
X63100000Y-52200000D03*
X50799500Y-37699500D03*
G04 #@! TO.N,/RS485/TXEN*
X72700000Y-51600000D03*
X54700000Y-51800000D03*
G04 #@! TO.N,/ethernet/REFCLK*
X39000000Y-49124500D03*
X57800000Y-48600000D03*
G04 #@! TO.N,/ethernet/TXD0*
X62200000Y-51300000D03*
X32400000Y-50900000D03*
G04 #@! TO.N,/ethernet/TXEN*
X32300000Y-50000000D03*
X65100000Y-48800000D03*
G04 #@! TO.N,/USB/TX*
X64600000Y-35400000D03*
X41300000Y-31900000D03*
G04 #@! TO.N,/USB/RX*
X66000000Y-35300000D03*
X41300000Y-30800000D03*
G04 #@! TO.N,/ethernet/TXD1*
X33000000Y-51500000D03*
X66500000Y-48900000D03*
G04 #@! TO.N,/ethernet/MDC*
X33100000Y-48500000D03*
X69200000Y-45900000D03*
G04 #@! TD*
D24*
G04 #@! TO.N,+3V3*
X33600000Y-47400000D02*
X35800000Y-47400000D01*
D25*
X39300000Y-41425000D02*
X39300000Y-43200000D01*
X67975000Y-27125000D02*
X68600000Y-26500000D01*
X65775000Y-27125000D02*
X67975000Y-27125000D01*
D24*
X35800000Y-47400000D02*
X37200000Y-46000000D01*
D25*
G04 #@! TO.N,VDDA*
X41500000Y-55300000D02*
X42300000Y-56100000D01*
X42300000Y-56100000D02*
X42700000Y-56100000D01*
X43700000Y-69700000D02*
X44625000Y-70625000D01*
X44625000Y-70625000D02*
X44625000Y-71687500D01*
X41500000Y-54300000D02*
X41500000Y-55300000D01*
X43900000Y-60900000D02*
X41200000Y-63600000D01*
X41200000Y-63600000D02*
X41200000Y-68700000D01*
X43900000Y-57283193D02*
X43900000Y-60900000D01*
X42200000Y-69700000D02*
X43700000Y-69700000D01*
X41200000Y-68700000D02*
X42200000Y-69700000D01*
X42700000Y-56100000D02*
X42800000Y-56183193D01*
X42800000Y-56183193D02*
X43900000Y-57283193D01*
G04 #@! TO.N,Net-(C18-Pad1)*
X39047500Y-56200000D02*
X37360000Y-57887500D01*
X39300000Y-56200000D02*
X39047500Y-56200000D01*
D26*
G04 #@! TO.N,5V_INVERTER*
X33700000Y-64100000D02*
X33700000Y-63600000D01*
X30500000Y-60400000D02*
X30500000Y-44800000D01*
X30560000Y-40640000D02*
X32300000Y-40640000D01*
X29800000Y-41400000D02*
X30560000Y-40640000D01*
X29800000Y-44100000D02*
X29800000Y-41400000D01*
X33700000Y-63600000D02*
X30500000Y-60400000D01*
X30500000Y-44800000D02*
X29800000Y-44100000D01*
G04 #@! TO.N,+5V*
X43700000Y-38100000D02*
X44900000Y-39300000D01*
D25*
X45175000Y-41000000D02*
X45175000Y-39575000D01*
X45175000Y-39575000D02*
X44900000Y-39300000D01*
D26*
X34840000Y-38100000D02*
X43700000Y-38100000D01*
X34840000Y-43180000D02*
X34840000Y-38100000D01*
D24*
G04 #@! TO.N,Net-(J4-Pad3)*
X70000000Y-59700000D02*
X73500000Y-59700000D01*
X73800000Y-60000000D02*
X73800000Y-52400000D01*
X69370000Y-60330000D02*
X70000000Y-59700000D01*
X73500000Y-59700000D02*
X73800000Y-60000000D01*
X69370000Y-61230000D02*
X69370000Y-60330000D01*
X73800000Y-52400000D02*
X73900000Y-52300000D01*
G04 #@! TO.N,/USB/EN*
X66600000Y-37100000D02*
X67300000Y-36400000D01*
X48300000Y-37100000D02*
X66600000Y-37100000D01*
X48325000Y-36250000D02*
X48300000Y-36275000D01*
X48300000Y-36275000D02*
X48300000Y-37100000D01*
X40300000Y-37100000D02*
X48300000Y-37100000D01*
G04 #@! TO.N,Net-(Q1-Pad2)*
X40675000Y-36150000D02*
X39325000Y-34800000D01*
X45225000Y-36150000D02*
X40675000Y-36150000D01*
G04 #@! TO.N,Net-(Q2-Pad1)*
X44000500Y-34225000D02*
X45975000Y-34225000D01*
G04 #@! TO.N,Net-(Q2-Pad2)*
X39150000Y-34225000D02*
X40250000Y-33125000D01*
X37399500Y-34225000D02*
X39150000Y-34225000D01*
G04 #@! TO.N,/ethernet/RXER*
X63665966Y-45399040D02*
X57099039Y-45399039D01*
X63666926Y-45400000D02*
X63665966Y-45399040D01*
X66100000Y-45400000D02*
X63666926Y-45400000D01*
X55300480Y-44399040D02*
X54299520Y-45400000D01*
X56099040Y-44399040D02*
X55300480Y-44399040D01*
X54299520Y-45400000D02*
X38800000Y-45400000D01*
X67200000Y-44300000D02*
X66100000Y-45400000D01*
X38799511Y-45400489D02*
X36899511Y-45400489D01*
X57099039Y-45399039D02*
X56099040Y-44399040D01*
X36899511Y-45400489D02*
X36000000Y-46300000D01*
X38800000Y-45400000D02*
X38799511Y-45400489D01*
G04 #@! TO.N,/ethernet/MDIO*
X57465006Y-44600000D02*
X56465006Y-43600000D01*
X59695000Y-44070000D02*
X59165000Y-44600000D01*
X52300000Y-44600000D02*
X36100000Y-44600000D01*
X53300000Y-43600000D02*
X52300000Y-44600000D01*
X36100000Y-44600000D02*
X34200000Y-46500000D01*
X56465006Y-43600000D02*
X53300000Y-43600000D01*
X59165000Y-44600000D02*
X57465006Y-44600000D01*
G04 #@! TO.N,/ethernet/CRS_DV*
X52400000Y-43400000D02*
X52400000Y-43200000D01*
X63500480Y-44999520D02*
X57299520Y-44999520D01*
X35100000Y-46352162D02*
X36452162Y-45000000D01*
X36452162Y-45000000D02*
X42100000Y-45000000D01*
X53500480Y-44999520D02*
X53700000Y-44800000D01*
X35100000Y-46500000D02*
X35100000Y-46352162D01*
X64200000Y-44300000D02*
X63500480Y-44999520D01*
X52500480Y-44999520D02*
X53500480Y-44999520D01*
X42100480Y-44999520D02*
X52500480Y-44999520D01*
X52400000Y-43200000D02*
X55700000Y-39900000D01*
X57299520Y-44999520D02*
X56299520Y-43999520D01*
X56299520Y-43999520D02*
X53500480Y-43999520D01*
X42100000Y-45000000D02*
X42100480Y-44999520D01*
X53500480Y-43999520D02*
X52500480Y-44999520D01*
G04 #@! TO.N,/ethernet/RST*
X59500000Y-49700000D02*
X59700000Y-49700000D01*
X50800000Y-49700000D02*
X59500000Y-49700000D01*
X60400000Y-48700000D02*
X60400000Y-49000000D01*
X60400000Y-49000000D02*
X59700000Y-49700000D01*
X33100000Y-49400000D02*
X36199511Y-52499511D01*
X48000489Y-52499511D02*
X50800000Y-49700000D01*
X36199511Y-52499511D02*
X48000489Y-52499511D01*
G04 #@! TO.N,/ethernet/RXD1*
X61700000Y-46600000D02*
X63299405Y-46600000D01*
X57900000Y-46600000D02*
X61700000Y-46600000D01*
X40031774Y-47031774D02*
X40400000Y-47400000D01*
X38741398Y-47031774D02*
X40031774Y-47031774D01*
X63299405Y-46600000D02*
X63499905Y-46399500D01*
X43200000Y-46600000D02*
X57900000Y-46600000D01*
X40400000Y-47400000D02*
X42400000Y-47400000D01*
X42400000Y-47400000D02*
X43200000Y-46600000D01*
X62100000Y-43900000D02*
X62100000Y-39700000D01*
G04 #@! TO.N,/ethernet/RXD0*
X65900000Y-39700000D02*
X65900000Y-44300000D01*
X38000491Y-46399509D02*
X38000000Y-46399509D01*
X57899529Y-46199529D02*
X54399529Y-46199529D01*
X57900000Y-46200000D02*
X57899529Y-46199529D01*
X54399529Y-46199529D02*
X38200471Y-46199529D01*
X63500480Y-45799520D02*
X65999520Y-45799520D01*
X60800498Y-45798560D02*
X63498560Y-45798560D01*
X63800000Y-38700000D02*
X64900000Y-38700000D01*
X65500000Y-39300000D02*
X65900000Y-39700000D01*
X38200471Y-46199529D02*
X38000491Y-46399509D01*
X63498560Y-45798560D02*
X63500000Y-45800000D01*
X60399529Y-46199529D02*
X60800498Y-45798560D01*
X65999520Y-45799520D02*
X66500000Y-46300000D01*
X54399529Y-46199529D02*
X60399529Y-46199529D01*
X63500000Y-45800000D02*
X63500480Y-45799520D01*
X64900000Y-38700000D02*
X65500000Y-39300000D01*
G04 #@! TO.N,Net-(R17-Pad2)*
X41300000Y-50100000D02*
X41200000Y-50000000D01*
X41200000Y-50000000D02*
X39000000Y-50000000D01*
G04 #@! TO.N,Net-(R18-Pad2)*
X39100000Y-51000000D02*
X42100000Y-51000000D01*
X42100000Y-51000000D02*
X42800000Y-51700000D01*
G04 #@! TO.N,/P1_UART/DATA_IN*
X57800000Y-43000000D02*
X57800000Y-43900000D01*
X57800000Y-40300000D02*
X57800000Y-43000000D01*
X56100000Y-38600000D02*
X57800000Y-40300000D01*
X55600000Y-38600000D02*
X56100000Y-38600000D01*
G04 #@! TO.N,/RS485/DI*
X70300000Y-43700000D02*
X68000000Y-41400000D01*
X68000000Y-41400000D02*
X68000000Y-39000000D01*
X68000000Y-39000000D02*
X66699500Y-37699500D01*
X66699500Y-37699500D02*
X54500000Y-37699500D01*
G04 #@! TO.N,/RS485/DO*
X70500000Y-29000000D02*
X69400000Y-27900000D01*
X69400000Y-27900000D02*
X55700000Y-27900000D01*
X55700000Y-27900000D02*
X54800000Y-28800000D01*
G04 #@! TO.N,/P1_UART/DATA_OUT*
X55800000Y-53400000D02*
X61900000Y-53400000D01*
X50799500Y-37699500D02*
X50799500Y-38400500D01*
X61900000Y-53400000D02*
X63100000Y-52200000D01*
X50799500Y-38400500D02*
X49900000Y-39300000D01*
G04 #@! TO.N,/RS485/TXEN*
X67100000Y-50100000D02*
X71200000Y-50100000D01*
X66000000Y-51200000D02*
X67100000Y-50100000D01*
X55199511Y-51300489D02*
X59600489Y-51300489D01*
X71200000Y-50100000D02*
X72700000Y-51600000D01*
X61952162Y-52500000D02*
X63252162Y-51200000D01*
X63252162Y-51200000D02*
X65700000Y-51200000D01*
X65700000Y-51200000D02*
X66000000Y-51200000D01*
X54700000Y-51800000D02*
X55199511Y-51300489D01*
X59600489Y-51300489D02*
X60800000Y-52500000D01*
X60800000Y-52500000D02*
X61952162Y-52500000D01*
G04 #@! TO.N,/ethernet/REFCLK*
X42730974Y-48199038D02*
X41700000Y-48199040D01*
X48699040Y-47400000D02*
X43530012Y-47400000D01*
X57600000Y-49300000D02*
X50599520Y-49300480D01*
X57800000Y-49300000D02*
X57600000Y-49300000D01*
X41700000Y-48199040D02*
X40765486Y-48199040D01*
X57800000Y-48600000D02*
X57800000Y-49300000D01*
X39840026Y-49124500D02*
X39000000Y-49124500D01*
X50599520Y-49300480D02*
X48699040Y-47400000D01*
X40765486Y-48199040D02*
X39840026Y-49124500D01*
X43530012Y-47400000D02*
X42730974Y-48199038D01*
G04 #@! TO.N,/ethernet/TXD0*
X48496950Y-53698068D02*
X51295018Y-50900000D01*
X32400000Y-50900000D02*
X32400000Y-51952162D01*
X36200000Y-53698070D02*
X48496950Y-53698068D01*
X51295018Y-50900000D02*
X59500000Y-50900000D01*
X32400000Y-51952162D02*
X33306569Y-52858731D01*
X34863713Y-52858731D02*
X35703052Y-53698070D01*
X33306569Y-52858731D02*
X34863713Y-52858731D01*
X61800000Y-50900000D02*
X62200000Y-51300000D01*
X35703052Y-53698070D02*
X36200000Y-53698070D01*
X59500000Y-50900000D02*
X61800000Y-50900000D01*
G04 #@! TO.N,/ethernet/TXEN*
X48165976Y-52899030D02*
X50965006Y-50100000D01*
X33134994Y-50000000D02*
X36034024Y-52899030D01*
X63800000Y-50100000D02*
X65100000Y-48800000D01*
X50965006Y-50100000D02*
X59500000Y-50100000D01*
X32300000Y-50000000D02*
X33134994Y-50000000D01*
X36034024Y-52899030D02*
X48165976Y-52899030D01*
X59500000Y-50100000D02*
X63800000Y-50100000D01*
G04 #@! TO.N,/USB/TX*
X61100000Y-31900000D02*
X64600000Y-35400000D01*
X41300000Y-31900000D02*
X61100000Y-31900000D01*
G04 #@! TO.N,/USB/RX*
X41300000Y-30800000D02*
X61500000Y-30800000D01*
X61500000Y-30800000D02*
X66000000Y-35300000D01*
G04 #@! TO.N,/ethernet/TXD1*
X48331463Y-53298549D02*
X51130012Y-50500000D01*
X35868538Y-53298550D02*
X48331463Y-53298549D01*
X33851673Y-52459211D02*
X35029199Y-52459211D01*
X33000000Y-51607538D02*
X33851673Y-52459211D01*
X64900000Y-50500000D02*
X66400000Y-49000000D01*
X35029199Y-52459211D02*
X35868538Y-53298550D01*
X66400000Y-49000000D02*
X66500000Y-48900000D01*
X51130012Y-50500000D02*
X59500000Y-50500000D01*
X33000000Y-51500000D02*
X33000000Y-51607538D01*
X59500000Y-50500000D02*
X64900000Y-50500000D01*
G04 #@! TO.N,/ethernet/MDC*
X42565487Y-47799519D02*
X40600000Y-47799520D01*
X69200000Y-45900000D02*
X68100000Y-47000000D01*
X68100000Y-47000000D02*
X43365006Y-47000000D01*
X40600000Y-47799520D02*
X39899520Y-48500000D01*
X43365006Y-47000000D02*
X42565487Y-47799519D01*
X39899520Y-48500000D02*
X33100000Y-48500000D01*
G04 #@! TD*
G04 #@! TA.AperFunction,Conductor*
G04 #@! TO.N,GND*
G36*
X71542121Y-23320502D02*
G01*
X71588614Y-23374158D01*
X71600000Y-23426500D01*
X71600000Y-47200000D01*
X77573500Y-47200000D01*
X77641621Y-47220002D01*
X77688114Y-47273658D01*
X77699500Y-47326000D01*
X77699500Y-72573500D01*
X77679498Y-72641621D01*
X77625842Y-72688114D01*
X77573500Y-72699500D01*
X45401999Y-72699500D01*
X45333878Y-72679498D01*
X45287385Y-72625842D01*
X45277281Y-72555568D01*
X45306775Y-72490988D01*
X45324426Y-72474210D01*
X45348101Y-72455713D01*
X45352951Y-72451924D01*
X45487564Y-72295972D01*
X45508387Y-72259318D01*
X45586276Y-72122207D01*
X45589323Y-72116844D01*
X45654351Y-71921363D01*
X45680171Y-71716974D01*
X45680390Y-71701306D01*
X45680534Y-71691022D01*
X45680534Y-71691018D01*
X45680583Y-71687500D01*
X45660480Y-71482470D01*
X45600935Y-71285249D01*
X45504218Y-71103349D01*
X45421473Y-71001894D01*
X45377906Y-70948475D01*
X45377903Y-70948472D01*
X45374011Y-70943700D01*
X45356786Y-70929450D01*
X45220024Y-70816310D01*
X45220019Y-70816307D01*
X45215275Y-70812382D01*
X45209854Y-70809451D01*
X45209853Y-70809450D01*
X45116572Y-70759014D01*
X45066163Y-70709020D01*
X45050500Y-70648178D01*
X45050500Y-70557607D01*
X45047437Y-70548180D01*
X45047436Y-70548173D01*
X45043087Y-70534788D01*
X45038473Y-70515569D01*
X45036271Y-70501669D01*
X45036270Y-70501666D01*
X45034719Y-70491874D01*
X45023830Y-70470503D01*
X45016265Y-70452239D01*
X45011915Y-70438852D01*
X45011914Y-70438849D01*
X45008850Y-70429420D01*
X44994744Y-70410006D01*
X44984416Y-70393150D01*
X44978032Y-70380620D01*
X44973528Y-70371780D01*
X44691426Y-70089678D01*
X47989820Y-70089678D01*
X47990064Y-70094113D01*
X47990064Y-70094117D01*
X47991623Y-70122436D01*
X48004804Y-70361946D01*
X48058001Y-70629385D01*
X48148350Y-70886661D01*
X48274048Y-71128641D01*
X48276631Y-71132256D01*
X48276635Y-71132262D01*
X48429999Y-71346874D01*
X48432587Y-71350495D01*
X48620805Y-71547797D01*
X48624301Y-71550553D01*
X48624302Y-71550554D01*
X48802485Y-71691022D01*
X48834944Y-71716611D01*
X48895912Y-71752024D01*
X49066880Y-71851331D01*
X49066886Y-71851334D01*
X49070734Y-71853569D01*
X49223002Y-71915244D01*
X49319337Y-71954264D01*
X49319340Y-71954265D01*
X49323468Y-71955937D01*
X49467204Y-71991641D01*
X49583780Y-72020599D01*
X49583785Y-72020600D01*
X49588105Y-72021673D01*
X49820664Y-72045500D01*
X49989458Y-72045500D01*
X50191998Y-72031159D01*
X50196353Y-72030221D01*
X50196356Y-72030221D01*
X50454222Y-71974704D01*
X50454224Y-71974704D01*
X50458569Y-71973768D01*
X50714395Y-71879389D01*
X50954370Y-71749906D01*
X51038861Y-71687500D01*
X51170129Y-71590543D01*
X51173706Y-71587901D01*
X51368028Y-71396608D01*
X51424234Y-71322961D01*
X51530756Y-71183385D01*
X51530759Y-71183381D01*
X51533458Y-71179844D01*
X51599967Y-71061083D01*
X51664516Y-70945822D01*
X51664519Y-70945817D01*
X51666694Y-70941932D01*
X51689698Y-70882471D01*
X51763473Y-70691776D01*
X51763475Y-70691770D01*
X51765080Y-70687621D01*
X51773144Y-70652833D01*
X51808181Y-70501669D01*
X51826651Y-70421984D01*
X51850180Y-70150322D01*
X51848814Y-70125500D01*
X51846843Y-70089678D01*
X58149820Y-70089678D01*
X58150064Y-70094113D01*
X58150064Y-70094117D01*
X58151623Y-70122436D01*
X58164804Y-70361946D01*
X58218001Y-70629385D01*
X58308350Y-70886661D01*
X58434048Y-71128641D01*
X58436631Y-71132256D01*
X58436635Y-71132262D01*
X58589999Y-71346874D01*
X58592587Y-71350495D01*
X58780805Y-71547797D01*
X58784301Y-71550553D01*
X58784302Y-71550554D01*
X58962485Y-71691022D01*
X58994944Y-71716611D01*
X59055912Y-71752024D01*
X59226880Y-71851331D01*
X59226886Y-71851334D01*
X59230734Y-71853569D01*
X59383002Y-71915244D01*
X59479337Y-71954264D01*
X59479340Y-71954265D01*
X59483468Y-71955937D01*
X59627204Y-71991641D01*
X59743780Y-72020599D01*
X59743785Y-72020600D01*
X59748105Y-72021673D01*
X59980664Y-72045500D01*
X60149458Y-72045500D01*
X60351998Y-72031159D01*
X60356353Y-72030221D01*
X60356356Y-72030221D01*
X60614222Y-71974704D01*
X60614224Y-71974704D01*
X60618569Y-71973768D01*
X60874395Y-71879389D01*
X61114370Y-71749906D01*
X61198861Y-71687500D01*
X61330129Y-71590543D01*
X61333706Y-71587901D01*
X61528028Y-71396608D01*
X61584234Y-71322961D01*
X61690756Y-71183385D01*
X61690759Y-71183381D01*
X61693458Y-71179844D01*
X61759967Y-71061083D01*
X61824516Y-70945822D01*
X61824519Y-70945817D01*
X61826694Y-70941932D01*
X61849698Y-70882471D01*
X61923473Y-70691776D01*
X61923475Y-70691770D01*
X61925080Y-70687621D01*
X61933144Y-70652833D01*
X61968181Y-70501669D01*
X61986651Y-70421984D01*
X62010180Y-70150322D01*
X62008814Y-70125500D01*
X62006843Y-70089678D01*
X62989820Y-70089678D01*
X62990064Y-70094113D01*
X62990064Y-70094117D01*
X62991623Y-70122436D01*
X63004804Y-70361946D01*
X63058001Y-70629385D01*
X63148350Y-70886661D01*
X63274048Y-71128641D01*
X63276631Y-71132256D01*
X63276635Y-71132262D01*
X63429999Y-71346874D01*
X63432587Y-71350495D01*
X63620805Y-71547797D01*
X63624301Y-71550553D01*
X63624302Y-71550554D01*
X63802485Y-71691022D01*
X63834944Y-71716611D01*
X63895912Y-71752024D01*
X64066880Y-71851331D01*
X64066886Y-71851334D01*
X64070734Y-71853569D01*
X64223002Y-71915244D01*
X64319337Y-71954264D01*
X64319340Y-71954265D01*
X64323468Y-71955937D01*
X64467204Y-71991641D01*
X64583780Y-72020599D01*
X64583785Y-72020600D01*
X64588105Y-72021673D01*
X64820664Y-72045500D01*
X64989458Y-72045500D01*
X65191998Y-72031159D01*
X65196353Y-72030221D01*
X65196356Y-72030221D01*
X65454222Y-71974704D01*
X65454224Y-71974704D01*
X65458569Y-71973768D01*
X65714395Y-71879389D01*
X65954370Y-71749906D01*
X66038861Y-71687500D01*
X66170129Y-71590543D01*
X66173706Y-71587901D01*
X66368028Y-71396608D01*
X66424234Y-71322961D01*
X66530756Y-71183385D01*
X66530759Y-71183381D01*
X66533458Y-71179844D01*
X66599967Y-71061083D01*
X66664516Y-70945822D01*
X66664519Y-70945817D01*
X66666694Y-70941932D01*
X66689698Y-70882471D01*
X66763473Y-70691776D01*
X66763475Y-70691770D01*
X66765080Y-70687621D01*
X66773144Y-70652833D01*
X66808181Y-70501669D01*
X66826651Y-70421984D01*
X66850180Y-70150322D01*
X66848814Y-70125500D01*
X66846843Y-70089678D01*
X73149820Y-70089678D01*
X73150064Y-70094113D01*
X73150064Y-70094117D01*
X73151623Y-70122436D01*
X73164804Y-70361946D01*
X73218001Y-70629385D01*
X73308350Y-70886661D01*
X73434048Y-71128641D01*
X73436631Y-71132256D01*
X73436635Y-71132262D01*
X73589999Y-71346874D01*
X73592587Y-71350495D01*
X73780805Y-71547797D01*
X73784301Y-71550553D01*
X73784302Y-71550554D01*
X73962485Y-71691022D01*
X73994944Y-71716611D01*
X74055912Y-71752024D01*
X74226880Y-71851331D01*
X74226886Y-71851334D01*
X74230734Y-71853569D01*
X74383002Y-71915244D01*
X74479337Y-71954264D01*
X74479340Y-71954265D01*
X74483468Y-71955937D01*
X74627204Y-71991641D01*
X74743780Y-72020599D01*
X74743785Y-72020600D01*
X74748105Y-72021673D01*
X74980664Y-72045500D01*
X75149458Y-72045500D01*
X75351998Y-72031159D01*
X75356353Y-72030221D01*
X75356356Y-72030221D01*
X75614222Y-71974704D01*
X75614224Y-71974704D01*
X75618569Y-71973768D01*
X75874395Y-71879389D01*
X76114370Y-71749906D01*
X76198861Y-71687500D01*
X76330129Y-71590543D01*
X76333706Y-71587901D01*
X76528028Y-71396608D01*
X76584234Y-71322961D01*
X76690756Y-71183385D01*
X76690759Y-71183381D01*
X76693458Y-71179844D01*
X76759967Y-71061083D01*
X76824516Y-70945822D01*
X76824519Y-70945817D01*
X76826694Y-70941932D01*
X76849698Y-70882471D01*
X76923473Y-70691776D01*
X76923475Y-70691770D01*
X76925080Y-70687621D01*
X76933144Y-70652833D01*
X76968181Y-70501669D01*
X76986651Y-70421984D01*
X77010180Y-70150322D01*
X77008814Y-70125500D01*
X76995441Y-69882497D01*
X76995440Y-69882490D01*
X76995196Y-69878054D01*
X76941999Y-69610615D01*
X76851650Y-69353339D01*
X76725952Y-69111359D01*
X76723369Y-69107744D01*
X76723365Y-69107738D01*
X76570001Y-68893126D01*
X76569998Y-68893122D01*
X76567413Y-68889505D01*
X76379195Y-68692203D01*
X76375698Y-68689446D01*
X76168551Y-68526144D01*
X76168549Y-68526142D01*
X76165056Y-68523389D01*
X75986240Y-68419524D01*
X75933120Y-68388669D01*
X75933114Y-68388666D01*
X75929266Y-68386431D01*
X75763992Y-68319488D01*
X75680663Y-68285736D01*
X75680660Y-68285735D01*
X75676532Y-68284063D01*
X75509425Y-68242554D01*
X75416220Y-68219401D01*
X75416215Y-68219400D01*
X75411895Y-68218327D01*
X75179336Y-68194500D01*
X75010542Y-68194500D01*
X74808002Y-68208841D01*
X74803647Y-68209779D01*
X74803644Y-68209779D01*
X74545778Y-68265296D01*
X74545776Y-68265296D01*
X74541431Y-68266232D01*
X74285605Y-68360611D01*
X74045630Y-68490094D01*
X73826294Y-68652099D01*
X73631972Y-68843392D01*
X73629273Y-68846929D01*
X73629270Y-68846932D01*
X73609557Y-68872763D01*
X73466542Y-69060156D01*
X73464367Y-69064040D01*
X73337667Y-69290281D01*
X73333306Y-69298068D01*
X73331698Y-69302226D01*
X73331695Y-69302231D01*
X73309932Y-69358486D01*
X73234920Y-69552379D01*
X73173349Y-69818016D01*
X73149820Y-70089678D01*
X66846843Y-70089678D01*
X66835441Y-69882497D01*
X66835440Y-69882490D01*
X66835196Y-69878054D01*
X66781999Y-69610615D01*
X66691650Y-69353339D01*
X66565952Y-69111359D01*
X66563369Y-69107744D01*
X66563365Y-69107738D01*
X66410001Y-68893126D01*
X66409998Y-68893122D01*
X66407413Y-68889505D01*
X66219195Y-68692203D01*
X66215698Y-68689446D01*
X66008551Y-68526144D01*
X66008549Y-68526142D01*
X66005056Y-68523389D01*
X65826240Y-68419524D01*
X65773120Y-68388669D01*
X65773114Y-68388666D01*
X65769266Y-68386431D01*
X65603992Y-68319488D01*
X65520663Y-68285736D01*
X65520660Y-68285735D01*
X65516532Y-68284063D01*
X65349425Y-68242554D01*
X65256220Y-68219401D01*
X65256215Y-68219400D01*
X65251895Y-68218327D01*
X65019336Y-68194500D01*
X64850542Y-68194500D01*
X64648002Y-68208841D01*
X64643647Y-68209779D01*
X64643644Y-68209779D01*
X64385778Y-68265296D01*
X64385776Y-68265296D01*
X64381431Y-68266232D01*
X64125605Y-68360611D01*
X63885630Y-68490094D01*
X63666294Y-68652099D01*
X63471972Y-68843392D01*
X63469273Y-68846929D01*
X63469270Y-68846932D01*
X63449557Y-68872763D01*
X63306542Y-69060156D01*
X63304367Y-69064040D01*
X63177667Y-69290281D01*
X63173306Y-69298068D01*
X63171698Y-69302226D01*
X63171695Y-69302231D01*
X63149932Y-69358486D01*
X63074920Y-69552379D01*
X63013349Y-69818016D01*
X62989820Y-70089678D01*
X62006843Y-70089678D01*
X61995441Y-69882497D01*
X61995440Y-69882490D01*
X61995196Y-69878054D01*
X61941999Y-69610615D01*
X61851650Y-69353339D01*
X61725952Y-69111359D01*
X61723369Y-69107744D01*
X61723365Y-69107738D01*
X61570001Y-68893126D01*
X61569998Y-68893122D01*
X61567413Y-68889505D01*
X61379195Y-68692203D01*
X61375698Y-68689446D01*
X61168551Y-68526144D01*
X61168549Y-68526142D01*
X61165056Y-68523389D01*
X60986240Y-68419524D01*
X60933120Y-68388669D01*
X60933114Y-68388666D01*
X60929266Y-68386431D01*
X60763992Y-68319488D01*
X60680663Y-68285736D01*
X60680660Y-68285735D01*
X60676532Y-68284063D01*
X60509425Y-68242554D01*
X60416220Y-68219401D01*
X60416215Y-68219400D01*
X60411895Y-68218327D01*
X60179336Y-68194500D01*
X60010542Y-68194500D01*
X59808002Y-68208841D01*
X59803647Y-68209779D01*
X59803644Y-68209779D01*
X59545778Y-68265296D01*
X59545776Y-68265296D01*
X59541431Y-68266232D01*
X59285605Y-68360611D01*
X59045630Y-68490094D01*
X58826294Y-68652099D01*
X58631972Y-68843392D01*
X58629273Y-68846929D01*
X58629270Y-68846932D01*
X58609557Y-68872763D01*
X58466542Y-69060156D01*
X58464367Y-69064040D01*
X58337667Y-69290281D01*
X58333306Y-69298068D01*
X58331698Y-69302226D01*
X58331695Y-69302231D01*
X58309932Y-69358486D01*
X58234920Y-69552379D01*
X58173349Y-69818016D01*
X58149820Y-70089678D01*
X51846843Y-70089678D01*
X51835441Y-69882497D01*
X51835440Y-69882490D01*
X51835196Y-69878054D01*
X51781999Y-69610615D01*
X51691650Y-69353339D01*
X51565952Y-69111359D01*
X51563369Y-69107744D01*
X51563365Y-69107738D01*
X51410001Y-68893126D01*
X51409998Y-68893122D01*
X51407413Y-68889505D01*
X51219195Y-68692203D01*
X51215698Y-68689446D01*
X51008551Y-68526144D01*
X51008549Y-68526142D01*
X51005056Y-68523389D01*
X50826240Y-68419524D01*
X50773120Y-68388669D01*
X50773114Y-68388666D01*
X50769266Y-68386431D01*
X50603992Y-68319488D01*
X50520663Y-68285736D01*
X50520660Y-68285735D01*
X50516532Y-68284063D01*
X50349425Y-68242554D01*
X50256220Y-68219401D01*
X50256215Y-68219400D01*
X50251895Y-68218327D01*
X50019336Y-68194500D01*
X49850542Y-68194500D01*
X49648002Y-68208841D01*
X49643647Y-68209779D01*
X49643644Y-68209779D01*
X49385778Y-68265296D01*
X49385776Y-68265296D01*
X49381431Y-68266232D01*
X49125605Y-68360611D01*
X48885630Y-68490094D01*
X48666294Y-68652099D01*
X48471972Y-68843392D01*
X48469273Y-68846929D01*
X48469270Y-68846932D01*
X48449557Y-68872763D01*
X48306542Y-69060156D01*
X48304367Y-69064040D01*
X48177667Y-69290281D01*
X48173306Y-69298068D01*
X48171698Y-69302226D01*
X48171695Y-69302231D01*
X48149932Y-69358486D01*
X48074920Y-69552379D01*
X48013349Y-69818016D01*
X47989820Y-70089678D01*
X44691426Y-70089678D01*
X43953220Y-69351472D01*
X43931837Y-69340577D01*
X43914991Y-69330253D01*
X43903604Y-69321980D01*
X43895581Y-69316151D01*
X43886150Y-69313087D01*
X43886147Y-69313085D01*
X43872763Y-69308736D01*
X43854502Y-69301172D01*
X43841964Y-69294784D01*
X43841963Y-69294784D01*
X43833126Y-69290281D01*
X43809429Y-69286528D01*
X43790210Y-69281914D01*
X43767393Y-69274500D01*
X42428438Y-69274500D01*
X42360317Y-69254498D01*
X42339343Y-69237595D01*
X41662405Y-68560657D01*
X41628379Y-68498345D01*
X41625500Y-68471562D01*
X41625500Y-67388131D01*
X41645502Y-67320010D01*
X41699158Y-67273517D01*
X41769432Y-67263413D01*
X41834012Y-67292907D01*
X41870382Y-67346382D01*
X41941873Y-67549959D01*
X41941880Y-67549976D01*
X41943350Y-67554161D01*
X42069048Y-67796141D01*
X42071631Y-67799756D01*
X42071635Y-67799762D01*
X42224999Y-68014374D01*
X42227587Y-68017995D01*
X42415805Y-68215297D01*
X42419301Y-68218053D01*
X42419302Y-68218054D01*
X42598180Y-68359070D01*
X42629944Y-68384111D01*
X42690912Y-68419524D01*
X42861880Y-68518831D01*
X42861886Y-68518834D01*
X42865734Y-68521069D01*
X42963472Y-68560657D01*
X43114337Y-68621764D01*
X43114340Y-68621765D01*
X43118468Y-68623437D01*
X43246411Y-68655218D01*
X43378780Y-68688099D01*
X43378785Y-68688100D01*
X43383105Y-68689173D01*
X43615664Y-68713000D01*
X43784458Y-68713000D01*
X43986998Y-68698659D01*
X43991353Y-68697721D01*
X43991356Y-68697721D01*
X44249222Y-68642204D01*
X44249224Y-68642204D01*
X44253569Y-68641268D01*
X44509395Y-68546889D01*
X44749370Y-68417406D01*
X44968706Y-68255401D01*
X45163028Y-68064108D01*
X45328458Y-67847344D01*
X45461694Y-67609432D01*
X45484698Y-67549971D01*
X45558473Y-67359276D01*
X45558475Y-67359270D01*
X45560080Y-67355121D01*
X45621651Y-67089484D01*
X45645180Y-66817822D01*
X45630196Y-66545554D01*
X45576999Y-66278115D01*
X45486650Y-66020839D01*
X45360952Y-65778859D01*
X45358369Y-65775244D01*
X45358365Y-65775238D01*
X45275121Y-65658750D01*
X45251789Y-65591697D01*
X45268412Y-65522674D01*
X45319713Y-65473595D01*
X45389404Y-65460043D01*
X45401138Y-65461703D01*
X45540842Y-65488227D01*
X45550098Y-65489281D01*
X45801857Y-65499173D01*
X45811171Y-65498847D01*
X46061615Y-65471420D01*
X46070792Y-65469719D01*
X46314431Y-65405574D01*
X46323251Y-65402537D01*
X46554736Y-65303083D01*
X46563008Y-65298776D01*
X46777249Y-65166200D01*
X46784188Y-65161158D01*
X46792518Y-65148519D01*
X46786456Y-65138166D01*
X45386922Y-63738632D01*
X46109408Y-63738632D01*
X46109539Y-63740465D01*
X46113790Y-63747080D01*
X47144913Y-64778203D01*
X47157293Y-64784963D01*
X47165634Y-64778719D01*
X47291765Y-64582627D01*
X47296212Y-64574436D01*
X47399691Y-64344722D01*
X47402882Y-64335955D01*
X47471269Y-64093476D01*
X47473129Y-64084334D01*
X47505116Y-63832896D01*
X47505597Y-63826608D01*
X47507468Y-63755121D01*
X52034473Y-63755121D01*
X52035971Y-63772965D01*
X52049291Y-63931578D01*
X52051876Y-63962367D01*
X52109201Y-64162285D01*
X52112019Y-64167767D01*
X52112020Y-64167771D01*
X52201446Y-64341775D01*
X52201449Y-64341779D01*
X52204266Y-64347261D01*
X52333449Y-64510249D01*
X52338143Y-64514244D01*
X52455442Y-64614073D01*
X52491830Y-64645042D01*
X52497208Y-64648048D01*
X52497210Y-64648049D01*
X52652422Y-64734794D01*
X52673376Y-64746505D01*
X52871171Y-64810772D01*
X53077683Y-64835397D01*
X53083818Y-64834925D01*
X53083820Y-64834925D01*
X53278904Y-64819915D01*
X53278909Y-64819914D01*
X53285045Y-64819442D01*
X53290977Y-64817786D01*
X53290981Y-64817785D01*
X53479414Y-64765173D01*
X53479418Y-64765172D01*
X53485358Y-64763513D01*
X53490862Y-64760733D01*
X53490864Y-64760732D01*
X53665493Y-64672521D01*
X53665495Y-64672520D01*
X53670994Y-64669742D01*
X53834880Y-64541700D01*
X53970775Y-64384264D01*
X53973818Y-64378907D01*
X53973821Y-64378903D01*
X54022138Y-64293848D01*
X54073502Y-64203431D01*
X54085622Y-64166999D01*
X54137202Y-64011941D01*
X54139149Y-64006089D01*
X54161029Y-63832896D01*
X54164774Y-63803256D01*
X54164775Y-63803249D01*
X54165216Y-63799754D01*
X54165631Y-63770000D01*
X54164172Y-63755121D01*
X54574473Y-63755121D01*
X54575971Y-63772965D01*
X54589291Y-63931578D01*
X54591876Y-63962367D01*
X54649201Y-64162285D01*
X54652019Y-64167767D01*
X54652020Y-64167771D01*
X54741446Y-64341775D01*
X54741449Y-64341779D01*
X54744266Y-64347261D01*
X54873449Y-64510249D01*
X54878143Y-64514244D01*
X54995442Y-64614073D01*
X55031830Y-64645042D01*
X55037208Y-64648048D01*
X55037210Y-64648049D01*
X55192422Y-64734794D01*
X55213376Y-64746505D01*
X55411171Y-64810772D01*
X55617683Y-64835397D01*
X55623818Y-64834925D01*
X55623820Y-64834925D01*
X55722376Y-64827342D01*
X57487213Y-64827342D01*
X57496509Y-64839357D01*
X57539069Y-64869158D01*
X57548565Y-64874641D01*
X57739680Y-64963759D01*
X57749972Y-64967505D01*
X57953660Y-65022083D01*
X57964453Y-65023986D01*
X58174525Y-65042365D01*
X58185475Y-65042365D01*
X58395547Y-65023986D01*
X58406340Y-65022083D01*
X58610028Y-64967505D01*
X58620320Y-64963759D01*
X58811435Y-64874641D01*
X58820931Y-64869158D01*
X58864329Y-64838770D01*
X58872704Y-64828293D01*
X58865635Y-64814845D01*
X58192812Y-64142022D01*
X58178868Y-64134408D01*
X58177035Y-64134539D01*
X58170420Y-64138790D01*
X57493643Y-64815567D01*
X57487213Y-64827342D01*
X55722376Y-64827342D01*
X55818904Y-64819915D01*
X55818909Y-64819914D01*
X55825045Y-64819442D01*
X55830977Y-64817786D01*
X55830981Y-64817785D01*
X56019414Y-64765173D01*
X56019418Y-64765172D01*
X56025358Y-64763513D01*
X56030862Y-64760733D01*
X56030864Y-64760732D01*
X56205493Y-64672521D01*
X56205495Y-64672520D01*
X56210994Y-64669742D01*
X56374880Y-64541700D01*
X56510775Y-64384264D01*
X56513818Y-64378907D01*
X56513821Y-64378903D01*
X56562138Y-64293848D01*
X56613502Y-64203431D01*
X56625622Y-64166999D01*
X56677202Y-64011941D01*
X56679149Y-64006089D01*
X56679922Y-63999968D01*
X56681286Y-63993966D01*
X56683853Y-63994549D01*
X56707662Y-63939955D01*
X56766720Y-63900551D01*
X56837707Y-63899332D01*
X56898083Y-63936685D01*
X56924752Y-63991493D01*
X56926493Y-63991027D01*
X56982495Y-64200028D01*
X56986241Y-64210320D01*
X57075359Y-64401435D01*
X57080842Y-64410931D01*
X57111230Y-64454329D01*
X57121707Y-64462704D01*
X57135155Y-64455635D01*
X57807978Y-63782812D01*
X57814356Y-63771132D01*
X58544408Y-63771132D01*
X58544539Y-63772965D01*
X58548790Y-63779580D01*
X59225567Y-64456357D01*
X59237342Y-64462787D01*
X59249357Y-64453491D01*
X59279158Y-64410931D01*
X59284641Y-64401435D01*
X59373759Y-64210320D01*
X59377505Y-64200028D01*
X59432083Y-63996340D01*
X59433986Y-63985547D01*
X59452365Y-63775475D01*
X59452365Y-63764525D01*
X59451542Y-63755121D01*
X67034473Y-63755121D01*
X67035971Y-63772965D01*
X67049291Y-63931578D01*
X67051876Y-63962367D01*
X67109201Y-64162285D01*
X67112019Y-64167767D01*
X67112020Y-64167771D01*
X67201446Y-64341775D01*
X67201449Y-64341779D01*
X67204266Y-64347261D01*
X67333449Y-64510249D01*
X67338143Y-64514244D01*
X67455442Y-64614073D01*
X67491830Y-64645042D01*
X67497208Y-64648048D01*
X67497210Y-64648049D01*
X67652422Y-64734794D01*
X67673376Y-64746505D01*
X67871171Y-64810772D01*
X68077683Y-64835397D01*
X68083818Y-64834925D01*
X68083820Y-64834925D01*
X68278904Y-64819915D01*
X68278909Y-64819914D01*
X68285045Y-64819442D01*
X68290977Y-64817786D01*
X68290981Y-64817785D01*
X68479414Y-64765173D01*
X68479418Y-64765172D01*
X68485358Y-64763513D01*
X68490862Y-64760733D01*
X68490864Y-64760732D01*
X68665493Y-64672521D01*
X68665495Y-64672520D01*
X68670994Y-64669742D01*
X68834880Y-64541700D01*
X68970775Y-64384264D01*
X68973818Y-64378907D01*
X68973821Y-64378903D01*
X69022138Y-64293848D01*
X69073502Y-64203431D01*
X69085622Y-64166999D01*
X69137202Y-64011941D01*
X69139149Y-64006089D01*
X69161029Y-63832896D01*
X69164774Y-63803256D01*
X69164775Y-63803249D01*
X69165216Y-63799754D01*
X69165631Y-63770000D01*
X69164172Y-63755121D01*
X69574473Y-63755121D01*
X69575971Y-63772965D01*
X69589291Y-63931578D01*
X69591876Y-63962367D01*
X69649201Y-64162285D01*
X69652019Y-64167767D01*
X69652020Y-64167771D01*
X69741446Y-64341775D01*
X69741449Y-64341779D01*
X69744266Y-64347261D01*
X69873449Y-64510249D01*
X69878143Y-64514244D01*
X69995442Y-64614073D01*
X70031830Y-64645042D01*
X70037208Y-64648048D01*
X70037210Y-64648049D01*
X70192422Y-64734794D01*
X70213376Y-64746505D01*
X70411171Y-64810772D01*
X70617683Y-64835397D01*
X70623818Y-64834925D01*
X70623820Y-64834925D01*
X70818904Y-64819915D01*
X70818909Y-64819914D01*
X70825045Y-64819442D01*
X70830977Y-64817786D01*
X70830981Y-64817785D01*
X71019414Y-64765173D01*
X71019418Y-64765172D01*
X71025358Y-64763513D01*
X71030862Y-64760733D01*
X71030864Y-64760732D01*
X71205493Y-64672521D01*
X71205495Y-64672520D01*
X71210994Y-64669742D01*
X71374880Y-64541700D01*
X71510775Y-64384264D01*
X71513818Y-64378907D01*
X71513821Y-64378903D01*
X71562138Y-64293848D01*
X71613502Y-64203431D01*
X71625622Y-64166999D01*
X71677202Y-64011941D01*
X71679149Y-64006089D01*
X71701029Y-63832896D01*
X71704774Y-63803256D01*
X71704775Y-63803249D01*
X71705216Y-63799754D01*
X71705631Y-63770000D01*
X71704172Y-63755121D01*
X72114473Y-63755121D01*
X72115971Y-63772965D01*
X72129291Y-63931578D01*
X72131876Y-63962367D01*
X72189201Y-64162285D01*
X72192019Y-64167767D01*
X72192020Y-64167771D01*
X72281446Y-64341775D01*
X72281449Y-64341779D01*
X72284266Y-64347261D01*
X72413449Y-64510249D01*
X72418143Y-64514244D01*
X72535442Y-64614073D01*
X72571830Y-64645042D01*
X72577208Y-64648048D01*
X72577210Y-64648049D01*
X72732422Y-64734794D01*
X72753376Y-64746505D01*
X72951171Y-64810772D01*
X73157683Y-64835397D01*
X73163818Y-64834925D01*
X73163820Y-64834925D01*
X73358904Y-64819915D01*
X73358909Y-64819914D01*
X73365045Y-64819442D01*
X73370977Y-64817786D01*
X73370981Y-64817785D01*
X73559414Y-64765173D01*
X73559418Y-64765172D01*
X73565358Y-64763513D01*
X73570862Y-64760733D01*
X73570864Y-64760732D01*
X73745493Y-64672521D01*
X73745495Y-64672520D01*
X73750994Y-64669742D01*
X73914880Y-64541700D01*
X74050775Y-64384264D01*
X74053818Y-64378907D01*
X74053821Y-64378903D01*
X74102138Y-64293848D01*
X74153502Y-64203431D01*
X74165622Y-64166999D01*
X74217202Y-64011941D01*
X74219149Y-64006089D01*
X74241029Y-63832896D01*
X74244774Y-63803256D01*
X74244775Y-63803249D01*
X74245216Y-63799754D01*
X74245631Y-63770000D01*
X74225336Y-63563018D01*
X74219492Y-63543660D01*
X74167006Y-63369819D01*
X74165225Y-63363920D01*
X74147019Y-63329680D01*
X74070481Y-63185731D01*
X74070479Y-63185728D01*
X74067587Y-63180289D01*
X74063697Y-63175519D01*
X74063694Y-63175515D01*
X73940036Y-63023895D01*
X73940033Y-63023892D01*
X73936141Y-63019120D01*
X73931392Y-63015191D01*
X73780643Y-62890481D01*
X73780640Y-62890479D01*
X73775893Y-62886552D01*
X73592949Y-62787634D01*
X73394275Y-62726134D01*
X73388150Y-62725490D01*
X73388149Y-62725490D01*
X73193568Y-62705039D01*
X73193566Y-62705039D01*
X73187439Y-62704395D01*
X73124026Y-62710166D01*
X72986460Y-62722685D01*
X72986457Y-62722686D01*
X72980321Y-62723244D01*
X72974415Y-62724982D01*
X72974411Y-62724983D01*
X72869909Y-62755740D01*
X72780808Y-62781964D01*
X72596500Y-62878318D01*
X72434417Y-63008636D01*
X72430459Y-63013353D01*
X72430457Y-63013355D01*
X72370873Y-63084365D01*
X72300733Y-63167954D01*
X72297769Y-63173346D01*
X72297766Y-63173350D01*
X72204469Y-63343058D01*
X72200541Y-63350203D01*
X72137656Y-63548443D01*
X72136970Y-63554560D01*
X72136969Y-63554564D01*
X72116323Y-63738632D01*
X72114473Y-63755121D01*
X71704172Y-63755121D01*
X71685336Y-63563018D01*
X71679492Y-63543660D01*
X71627006Y-63369819D01*
X71625225Y-63363920D01*
X71607019Y-63329680D01*
X71530481Y-63185731D01*
X71530479Y-63185728D01*
X71527587Y-63180289D01*
X71523697Y-63175519D01*
X71523694Y-63175515D01*
X71400036Y-63023895D01*
X71400033Y-63023892D01*
X71396141Y-63019120D01*
X71391392Y-63015191D01*
X71240643Y-62890481D01*
X71240640Y-62890479D01*
X71235893Y-62886552D01*
X71052949Y-62787634D01*
X70854275Y-62726134D01*
X70848150Y-62725490D01*
X70848149Y-62725490D01*
X70653568Y-62705039D01*
X70653566Y-62705039D01*
X70647439Y-62704395D01*
X70584026Y-62710166D01*
X70446460Y-62722685D01*
X70446457Y-62722686D01*
X70440321Y-62723244D01*
X70434415Y-62724982D01*
X70434411Y-62724983D01*
X70329909Y-62755740D01*
X70240808Y-62781964D01*
X70056500Y-62878318D01*
X69894417Y-63008636D01*
X69890459Y-63013353D01*
X69890457Y-63013355D01*
X69830873Y-63084365D01*
X69760733Y-63167954D01*
X69757769Y-63173346D01*
X69757766Y-63173350D01*
X69664469Y-63343058D01*
X69660541Y-63350203D01*
X69597656Y-63548443D01*
X69596970Y-63554560D01*
X69596969Y-63554564D01*
X69576323Y-63738632D01*
X69574473Y-63755121D01*
X69164172Y-63755121D01*
X69145336Y-63563018D01*
X69139492Y-63543660D01*
X69087006Y-63369819D01*
X69085225Y-63363920D01*
X69067019Y-63329680D01*
X68990481Y-63185731D01*
X68990479Y-63185728D01*
X68987587Y-63180289D01*
X68983697Y-63175519D01*
X68983694Y-63175515D01*
X68860036Y-63023895D01*
X68860033Y-63023892D01*
X68856141Y-63019120D01*
X68851392Y-63015191D01*
X68700643Y-62890481D01*
X68700640Y-62890479D01*
X68695893Y-62886552D01*
X68512949Y-62787634D01*
X68314275Y-62726134D01*
X68308150Y-62725490D01*
X68308149Y-62725490D01*
X68113568Y-62705039D01*
X68113566Y-62705039D01*
X68107439Y-62704395D01*
X68044026Y-62710166D01*
X67906460Y-62722685D01*
X67906457Y-62722686D01*
X67900321Y-62723244D01*
X67894415Y-62724982D01*
X67894411Y-62724983D01*
X67789909Y-62755740D01*
X67700808Y-62781964D01*
X67516500Y-62878318D01*
X67354417Y-63008636D01*
X67350459Y-63013353D01*
X67350457Y-63013355D01*
X67290873Y-63084365D01*
X67220733Y-63167954D01*
X67217769Y-63173346D01*
X67217766Y-63173350D01*
X67124469Y-63343058D01*
X67120541Y-63350203D01*
X67057656Y-63548443D01*
X67056970Y-63554560D01*
X67056969Y-63554564D01*
X67036323Y-63738632D01*
X67034473Y-63755121D01*
X59451542Y-63755121D01*
X59433986Y-63554453D01*
X59432083Y-63543660D01*
X59377505Y-63339972D01*
X59373759Y-63329680D01*
X59284641Y-63138565D01*
X59279158Y-63129069D01*
X59248770Y-63085671D01*
X59238293Y-63077296D01*
X59224845Y-63084365D01*
X58552022Y-63757188D01*
X58544408Y-63771132D01*
X57814356Y-63771132D01*
X57815592Y-63768868D01*
X57815461Y-63767035D01*
X57811210Y-63760420D01*
X57134433Y-63083643D01*
X57122658Y-63077213D01*
X57110643Y-63086509D01*
X57080842Y-63129069D01*
X57075359Y-63138565D01*
X56986241Y-63329680D01*
X56982495Y-63339972D01*
X56926493Y-63548973D01*
X56925032Y-63548581D01*
X56896628Y-63605876D01*
X56835711Y-63642340D01*
X56764750Y-63640080D01*
X56706276Y-63599815D01*
X56683457Y-63556795D01*
X56625225Y-63363920D01*
X56607019Y-63329680D01*
X56530481Y-63185731D01*
X56530479Y-63185728D01*
X56527587Y-63180289D01*
X56523697Y-63175519D01*
X56523694Y-63175515D01*
X56400036Y-63023895D01*
X56400033Y-63023892D01*
X56396141Y-63019120D01*
X56391392Y-63015191D01*
X56240643Y-62890481D01*
X56240640Y-62890479D01*
X56235893Y-62886552D01*
X56052949Y-62787634D01*
X55854275Y-62726134D01*
X55848150Y-62725490D01*
X55848149Y-62725490D01*
X55717011Y-62711707D01*
X57487296Y-62711707D01*
X57494365Y-62725155D01*
X58167188Y-63397978D01*
X58181132Y-63405592D01*
X58182965Y-63405461D01*
X58189580Y-63401210D01*
X58866357Y-62724433D01*
X58872787Y-62712658D01*
X58863491Y-62700643D01*
X58820931Y-62670842D01*
X58811435Y-62665359D01*
X58620320Y-62576241D01*
X58610028Y-62572495D01*
X58406340Y-62517917D01*
X58395547Y-62516014D01*
X58185475Y-62497635D01*
X58174525Y-62497635D01*
X57964453Y-62516014D01*
X57953660Y-62517917D01*
X57749972Y-62572495D01*
X57739680Y-62576241D01*
X57548565Y-62665359D01*
X57539069Y-62670842D01*
X57495671Y-62701230D01*
X57487296Y-62711707D01*
X55717011Y-62711707D01*
X55653568Y-62705039D01*
X55653566Y-62705039D01*
X55647439Y-62704395D01*
X55584026Y-62710166D01*
X55446460Y-62722685D01*
X55446457Y-62722686D01*
X55440321Y-62723244D01*
X55434415Y-62724982D01*
X55434411Y-62724983D01*
X55329909Y-62755740D01*
X55240808Y-62781964D01*
X55056500Y-62878318D01*
X54894417Y-63008636D01*
X54890459Y-63013353D01*
X54890457Y-63013355D01*
X54830873Y-63084365D01*
X54760733Y-63167954D01*
X54757769Y-63173346D01*
X54757766Y-63173350D01*
X54664469Y-63343058D01*
X54660541Y-63350203D01*
X54597656Y-63548443D01*
X54596970Y-63554560D01*
X54596969Y-63554564D01*
X54576323Y-63738632D01*
X54574473Y-63755121D01*
X54164172Y-63755121D01*
X54145336Y-63563018D01*
X54139492Y-63543660D01*
X54087006Y-63369819D01*
X54085225Y-63363920D01*
X54067019Y-63329680D01*
X53990481Y-63185731D01*
X53990479Y-63185728D01*
X53987587Y-63180289D01*
X53983697Y-63175519D01*
X53983694Y-63175515D01*
X53860036Y-63023895D01*
X53860033Y-63023892D01*
X53856141Y-63019120D01*
X53851392Y-63015191D01*
X53700643Y-62890481D01*
X53700640Y-62890479D01*
X53695893Y-62886552D01*
X53512949Y-62787634D01*
X53314275Y-62726134D01*
X53308150Y-62725490D01*
X53308149Y-62725490D01*
X53113568Y-62705039D01*
X53113566Y-62705039D01*
X53107439Y-62704395D01*
X53044026Y-62710166D01*
X52906460Y-62722685D01*
X52906457Y-62722686D01*
X52900321Y-62723244D01*
X52894415Y-62724982D01*
X52894411Y-62724983D01*
X52789909Y-62755740D01*
X52700808Y-62781964D01*
X52516500Y-62878318D01*
X52354417Y-63008636D01*
X52350459Y-63013353D01*
X52350457Y-63013355D01*
X52290873Y-63084365D01*
X52220733Y-63167954D01*
X52217769Y-63173346D01*
X52217766Y-63173350D01*
X52124469Y-63343058D01*
X52120541Y-63350203D01*
X52057656Y-63548443D01*
X52056970Y-63554560D01*
X52056969Y-63554564D01*
X52036323Y-63738632D01*
X52034473Y-63755121D01*
X47507468Y-63755121D01*
X47507847Y-63740660D01*
X47507696Y-63734351D01*
X47488912Y-63481574D01*
X47487536Y-63472368D01*
X47431929Y-63226626D01*
X47429205Y-63217715D01*
X47337888Y-62982892D01*
X47333877Y-62974483D01*
X47208854Y-62755740D01*
X47203643Y-62748014D01*
X47166391Y-62700761D01*
X47154466Y-62692290D01*
X47142934Y-62698776D01*
X46117022Y-63724688D01*
X46109408Y-63738632D01*
X45386922Y-63738632D01*
X44346321Y-62698031D01*
X44333013Y-62690764D01*
X44322974Y-62697886D01*
X44312761Y-62710166D01*
X44307346Y-62717758D01*
X44176646Y-62933146D01*
X44172408Y-62941463D01*
X44074981Y-63173799D01*
X44072020Y-63182649D01*
X44010006Y-63426831D01*
X44008384Y-63436028D01*
X43983143Y-63686698D01*
X43982898Y-63696023D01*
X43994987Y-63947675D01*
X43996124Y-63956935D01*
X44045274Y-64204035D01*
X44047768Y-64213028D01*
X44132900Y-64450139D01*
X44136700Y-64458674D01*
X44255946Y-64680601D01*
X44260954Y-64688462D01*
X44279509Y-64713310D01*
X44304241Y-64779859D01*
X44289069Y-64849216D01*
X44238808Y-64899359D01*
X44169416Y-64914369D01*
X44148177Y-64910985D01*
X44051220Y-64886901D01*
X44051215Y-64886900D01*
X44046895Y-64885827D01*
X43814336Y-64862000D01*
X43645542Y-64862000D01*
X43443002Y-64876341D01*
X43438647Y-64877279D01*
X43438644Y-64877279D01*
X43180778Y-64932796D01*
X43180776Y-64932796D01*
X43176431Y-64933732D01*
X42920605Y-65028111D01*
X42680630Y-65157594D01*
X42461294Y-65319599D01*
X42266972Y-65510892D01*
X42264273Y-65514429D01*
X42264270Y-65514432D01*
X42154130Y-65658750D01*
X42101542Y-65727656D01*
X41968306Y-65965568D01*
X41869920Y-66219879D01*
X41868647Y-66219386D01*
X41832777Y-66273649D01*
X41767821Y-66302306D01*
X41697684Y-66291297D01*
X41644632Y-66244116D01*
X41625500Y-66177368D01*
X41625500Y-63828438D01*
X41645502Y-63760317D01*
X41662405Y-63739343D01*
X43075445Y-62326303D01*
X44698216Y-62326303D01*
X44702789Y-62336079D01*
X45732188Y-63365478D01*
X45746132Y-63373092D01*
X45747965Y-63372961D01*
X45754580Y-63368710D01*
X46783419Y-62339871D01*
X46789803Y-62328181D01*
X46780391Y-62316070D01*
X46643593Y-62221170D01*
X46635565Y-62216442D01*
X46409593Y-62105005D01*
X46400960Y-62101517D01*
X46192054Y-62034646D01*
X50769500Y-62034646D01*
X50772618Y-62060846D01*
X50776456Y-62069486D01*
X50776456Y-62069487D01*
X50790475Y-62101049D01*
X50818061Y-62163153D01*
X50897287Y-62242241D01*
X50907924Y-62246944D01*
X50907926Y-62246945D01*
X50957515Y-62268868D01*
X50999673Y-62287506D01*
X51025354Y-62290500D01*
X52634646Y-62290500D01*
X52638350Y-62290059D01*
X52638353Y-62290059D01*
X52645746Y-62289179D01*
X52660846Y-62287382D01*
X52660936Y-62287342D01*
X53677213Y-62287342D01*
X53686509Y-62299357D01*
X53729069Y-62329158D01*
X53738565Y-62334641D01*
X53929680Y-62423759D01*
X53939972Y-62427505D01*
X54143660Y-62482083D01*
X54154453Y-62483986D01*
X54364525Y-62502365D01*
X54375475Y-62502365D01*
X54585547Y-62483986D01*
X54596340Y-62482083D01*
X54800028Y-62427505D01*
X54810320Y-62423759D01*
X55001435Y-62334641D01*
X55010931Y-62329158D01*
X55054329Y-62298770D01*
X55062704Y-62288293D01*
X55055635Y-62274845D01*
X54382812Y-61602022D01*
X54368868Y-61594408D01*
X54367035Y-61594539D01*
X54360420Y-61598790D01*
X53683643Y-62275567D01*
X53677213Y-62287342D01*
X52660936Y-62287342D01*
X52687446Y-62275567D01*
X52752518Y-62246663D01*
X52763153Y-62241939D01*
X52842241Y-62162713D01*
X52867738Y-62105042D01*
X52883675Y-62068992D01*
X52887506Y-62060327D01*
X52890500Y-62034646D01*
X52890500Y-61564675D01*
X52910502Y-61496554D01*
X52964158Y-61450061D01*
X53034432Y-61439957D01*
X53099012Y-61469451D01*
X53138207Y-61532064D01*
X53172495Y-61660028D01*
X53176241Y-61670320D01*
X53265359Y-61861435D01*
X53270842Y-61870931D01*
X53301230Y-61914329D01*
X53311707Y-61922704D01*
X53325155Y-61915635D01*
X53997978Y-61242812D01*
X54004356Y-61231132D01*
X54734408Y-61231132D01*
X54734539Y-61232965D01*
X54738790Y-61239580D01*
X55415567Y-61916357D01*
X55427342Y-61922787D01*
X55439357Y-61913491D01*
X55469158Y-61870931D01*
X55474641Y-61861435D01*
X55563759Y-61670320D01*
X55567505Y-61660028D01*
X55622085Y-61456333D01*
X55622330Y-61454945D01*
X55622607Y-61454387D01*
X55623507Y-61451027D01*
X55624182Y-61451208D01*
X55653859Y-61391333D01*
X55714774Y-61354866D01*
X55785735Y-61357120D01*
X55844212Y-61397381D01*
X55867533Y-61442097D01*
X55919201Y-61622285D01*
X55922019Y-61627767D01*
X55922020Y-61627771D01*
X56011446Y-61801775D01*
X56011449Y-61801779D01*
X56014266Y-61807261D01*
X56143449Y-61970249D01*
X56148143Y-61974244D01*
X56195329Y-62014402D01*
X56301830Y-62105042D01*
X56307208Y-62108048D01*
X56307210Y-62108049D01*
X56460377Y-62193651D01*
X56483376Y-62206505D01*
X56681171Y-62270772D01*
X56887683Y-62295397D01*
X56893818Y-62294925D01*
X56893820Y-62294925D01*
X57088904Y-62279915D01*
X57088909Y-62279914D01*
X57095045Y-62279442D01*
X57100977Y-62277786D01*
X57100981Y-62277785D01*
X57289414Y-62225173D01*
X57289418Y-62225172D01*
X57295358Y-62223513D01*
X57300862Y-62220733D01*
X57300864Y-62220732D01*
X57475493Y-62132521D01*
X57475495Y-62132520D01*
X57480994Y-62129742D01*
X57602711Y-62034646D01*
X65769500Y-62034646D01*
X65772618Y-62060846D01*
X65776456Y-62069486D01*
X65776456Y-62069487D01*
X65790475Y-62101049D01*
X65818061Y-62163153D01*
X65897287Y-62242241D01*
X65907924Y-62246944D01*
X65907926Y-62246945D01*
X65957515Y-62268868D01*
X65999673Y-62287506D01*
X66025354Y-62290500D01*
X67634646Y-62290500D01*
X67638350Y-62290059D01*
X67638353Y-62290059D01*
X67645746Y-62289179D01*
X67660846Y-62287382D01*
X67687446Y-62275567D01*
X67752518Y-62246663D01*
X67763153Y-62241939D01*
X67842241Y-62162713D01*
X67867738Y-62105042D01*
X67883675Y-62068992D01*
X67887506Y-62060327D01*
X67890500Y-62034646D01*
X67890500Y-60425354D01*
X67887382Y-60399154D01*
X67841939Y-60296847D01*
X67808890Y-60263855D01*
X67770945Y-60225977D01*
X67762713Y-60217759D01*
X67752076Y-60213056D01*
X67752074Y-60213055D01*
X67673419Y-60178282D01*
X67660327Y-60172494D01*
X67634646Y-60169500D01*
X66025354Y-60169500D01*
X66021650Y-60169941D01*
X66021647Y-60169941D01*
X66014254Y-60170821D01*
X65999154Y-60172618D01*
X65990514Y-60176456D01*
X65990513Y-60176456D01*
X65908117Y-60213055D01*
X65896847Y-60218061D01*
X65888628Y-60226294D01*
X65888627Y-60226295D01*
X65865230Y-60249733D01*
X65817759Y-60297287D01*
X65813056Y-60307924D01*
X65813055Y-60307926D01*
X65795979Y-60346552D01*
X65772494Y-60399673D01*
X65769500Y-60425354D01*
X65769500Y-62034646D01*
X57602711Y-62034646D01*
X57644880Y-62001700D01*
X57662561Y-61981217D01*
X57681952Y-61958752D01*
X57780775Y-61844264D01*
X57783818Y-61838907D01*
X57783821Y-61838903D01*
X57832139Y-61753847D01*
X57883502Y-61663431D01*
X57897190Y-61622285D01*
X57927202Y-61532064D01*
X57949149Y-61466089D01*
X57962636Y-61359332D01*
X57974774Y-61263256D01*
X57974775Y-61263249D01*
X57975216Y-61259754D01*
X57975631Y-61230000D01*
X57955336Y-61023018D01*
X57951754Y-61011152D01*
X57897006Y-60829819D01*
X57895225Y-60823920D01*
X57891054Y-60816076D01*
X57800481Y-60645731D01*
X57800479Y-60645728D01*
X57797587Y-60640289D01*
X57793697Y-60635519D01*
X57793694Y-60635515D01*
X57670036Y-60483895D01*
X57670033Y-60483892D01*
X57666141Y-60479120D01*
X57660387Y-60474360D01*
X57510643Y-60350481D01*
X57510640Y-60350479D01*
X57505893Y-60346552D01*
X57322949Y-60247634D01*
X57124275Y-60186134D01*
X57118150Y-60185490D01*
X57118149Y-60185490D01*
X56923568Y-60165039D01*
X56923566Y-60165039D01*
X56917439Y-60164395D01*
X56837093Y-60171707D01*
X56716460Y-60182685D01*
X56716457Y-60182686D01*
X56710321Y-60183244D01*
X56704415Y-60184982D01*
X56704411Y-60184983D01*
X56609032Y-60213055D01*
X56510808Y-60241964D01*
X56326500Y-60338318D01*
X56164417Y-60468636D01*
X56160459Y-60473353D01*
X56160457Y-60473355D01*
X56100873Y-60544365D01*
X56030733Y-60627954D01*
X56027769Y-60633346D01*
X56027766Y-60633350D01*
X55933508Y-60804806D01*
X55930541Y-60810203D01*
X55867656Y-61008443D01*
X55867299Y-61008330D01*
X55835212Y-61067762D01*
X55773061Y-61102082D01*
X55702222Y-61097353D01*
X55645186Y-61055076D01*
X55624931Y-61008592D01*
X55623507Y-61008973D01*
X55567505Y-60799972D01*
X55563759Y-60789680D01*
X55474641Y-60598565D01*
X55469158Y-60589069D01*
X55438770Y-60545671D01*
X55428293Y-60537296D01*
X55414845Y-60544365D01*
X54742022Y-61217188D01*
X54734408Y-61231132D01*
X54004356Y-61231132D01*
X54005592Y-61228868D01*
X54005461Y-61227035D01*
X54001210Y-61220420D01*
X53324433Y-60543643D01*
X53312658Y-60537213D01*
X53300643Y-60546509D01*
X53270842Y-60589069D01*
X53265359Y-60598565D01*
X53176241Y-60789680D01*
X53172495Y-60799972D01*
X53138207Y-60927936D01*
X53101255Y-60988559D01*
X53037394Y-61019580D01*
X52966900Y-61011152D01*
X52912153Y-60965949D01*
X52890500Y-60895325D01*
X52890500Y-60425354D01*
X52887382Y-60399154D01*
X52841939Y-60296847D01*
X52808890Y-60263855D01*
X52770945Y-60225977D01*
X52762713Y-60217759D01*
X52752076Y-60213056D01*
X52752074Y-60213055D01*
X52673419Y-60178282D01*
X52660327Y-60172494D01*
X52653577Y-60171707D01*
X53677296Y-60171707D01*
X53684365Y-60185155D01*
X54357188Y-60857978D01*
X54371132Y-60865592D01*
X54372965Y-60865461D01*
X54379580Y-60861210D01*
X55056357Y-60184433D01*
X55062787Y-60172658D01*
X55053491Y-60160643D01*
X55010931Y-60130842D01*
X55001435Y-60125359D01*
X54810320Y-60036241D01*
X54800028Y-60032495D01*
X54596340Y-59977917D01*
X54585547Y-59976014D01*
X54375475Y-59957635D01*
X54364525Y-59957635D01*
X54154453Y-59976014D01*
X54143660Y-59977917D01*
X53939972Y-60032495D01*
X53929680Y-60036241D01*
X53738565Y-60125359D01*
X53729069Y-60130842D01*
X53685671Y-60161230D01*
X53677296Y-60171707D01*
X52653577Y-60171707D01*
X52634646Y-60169500D01*
X51025354Y-60169500D01*
X51021650Y-60169941D01*
X51021647Y-60169941D01*
X51014254Y-60170821D01*
X50999154Y-60172618D01*
X50990514Y-60176456D01*
X50990513Y-60176456D01*
X50908117Y-60213055D01*
X50896847Y-60218061D01*
X50888628Y-60226294D01*
X50888627Y-60226295D01*
X50865230Y-60249733D01*
X50817759Y-60297287D01*
X50813056Y-60307924D01*
X50813055Y-60307926D01*
X50795979Y-60346552D01*
X50772494Y-60399673D01*
X50769500Y-60425354D01*
X50769500Y-62034646D01*
X46192054Y-62034646D01*
X46160998Y-62024705D01*
X46151938Y-62022529D01*
X45903260Y-61982029D01*
X45893973Y-61981217D01*
X45642053Y-61977919D01*
X45632742Y-61978489D01*
X45383097Y-62012464D01*
X45373978Y-62014402D01*
X45132098Y-62084904D01*
X45123367Y-62088167D01*
X44894558Y-62193651D01*
X44886406Y-62198170D01*
X44707353Y-62315562D01*
X44698216Y-62326303D01*
X43075445Y-62326303D01*
X44248528Y-61153220D01*
X44259419Y-61131844D01*
X44269749Y-61114989D01*
X44278021Y-61103604D01*
X44278021Y-61103603D01*
X44283850Y-61095581D01*
X44291264Y-61072763D01*
X44298827Y-61054502D01*
X44309719Y-61033126D01*
X44311270Y-61023335D01*
X44311272Y-61023328D01*
X44313473Y-61009431D01*
X44318087Y-60990212D01*
X44322436Y-60976827D01*
X44322437Y-60976820D01*
X44325500Y-60967393D01*
X44325500Y-57215800D01*
X44318086Y-57192983D01*
X44313472Y-57173763D01*
X44311270Y-57159861D01*
X44309719Y-57150067D01*
X44301184Y-57133315D01*
X44298828Y-57128691D01*
X44291264Y-57110430D01*
X44286915Y-57097046D01*
X44286913Y-57097043D01*
X44283849Y-57087612D01*
X44269747Y-57068202D01*
X44259423Y-57051356D01*
X44248528Y-57029973D01*
X43113676Y-55895121D01*
X43108028Y-55889091D01*
X43101133Y-55881227D01*
X43097871Y-55877506D01*
X43091528Y-55872229D01*
X43083017Y-55864462D01*
X43077194Y-55858639D01*
X43064745Y-55849594D01*
X43058224Y-55844522D01*
X42991527Y-55789035D01*
X42983015Y-55781267D01*
X42953220Y-55751472D01*
X42944390Y-55746973D01*
X42944386Y-55746970D01*
X42909293Y-55729090D01*
X42902056Y-55725098D01*
X42868217Y-55704959D01*
X42868215Y-55704958D01*
X42859694Y-55699887D01*
X42850021Y-55697697D01*
X42846050Y-55696112D01*
X42841964Y-55694784D01*
X42833126Y-55690281D01*
X42799356Y-55684932D01*
X42784425Y-55682567D01*
X42776338Y-55681013D01*
X42728237Y-55670122D01*
X42718362Y-55671028D01*
X42686265Y-55673973D01*
X42674753Y-55674500D01*
X42528438Y-55674500D01*
X42460317Y-55654498D01*
X42439343Y-55637595D01*
X41962405Y-55160657D01*
X41928379Y-55098345D01*
X41925500Y-55071562D01*
X41925500Y-54779754D01*
X66344967Y-54779754D01*
X66358796Y-54990749D01*
X66360217Y-54996345D01*
X66360218Y-54996350D01*
X66382784Y-55085200D01*
X66410845Y-55195690D01*
X66499369Y-55387714D01*
X66621405Y-55560391D01*
X66680661Y-55618116D01*
X66754741Y-55690281D01*
X66772865Y-55707937D01*
X66777661Y-55711142D01*
X66777664Y-55711144D01*
X66920936Y-55806875D01*
X66948677Y-55825411D01*
X66953985Y-55827692D01*
X66953986Y-55827692D01*
X67137650Y-55906600D01*
X67137653Y-55906601D01*
X67142953Y-55908878D01*
X67148582Y-55910152D01*
X67148583Y-55910152D01*
X67327368Y-55950607D01*
X67389395Y-55985150D01*
X67422899Y-56047743D01*
X67417245Y-56118514D01*
X67374226Y-56174994D01*
X67307501Y-56199249D01*
X67299560Y-56199500D01*
X66605354Y-56199500D01*
X66601650Y-56199941D01*
X66601647Y-56199941D01*
X66594254Y-56200821D01*
X66579154Y-56202618D01*
X66476847Y-56248061D01*
X66397759Y-56327287D01*
X66352494Y-56429673D01*
X66349500Y-56455354D01*
X66349500Y-58244646D01*
X66352618Y-58270846D01*
X66356456Y-58279486D01*
X66356456Y-58279487D01*
X66375432Y-58322207D01*
X66398061Y-58373153D01*
X66477287Y-58452241D01*
X66487924Y-58456944D01*
X66487926Y-58456945D01*
X66547462Y-58483265D01*
X66579673Y-58497506D01*
X66605354Y-58500500D01*
X68394646Y-58500500D01*
X68398350Y-58500059D01*
X68398353Y-58500059D01*
X68405746Y-58499179D01*
X68420846Y-58497382D01*
X68506541Y-58459318D01*
X68512518Y-58456663D01*
X68523153Y-58451939D01*
X68602241Y-58372713D01*
X68647506Y-58270327D01*
X68650500Y-58244646D01*
X68650500Y-56455354D01*
X68647382Y-56429154D01*
X68618616Y-56364391D01*
X68606663Y-56337482D01*
X68601939Y-56326847D01*
X68522713Y-56247759D01*
X68512076Y-56243056D01*
X68512074Y-56243055D01*
X68433206Y-56208188D01*
X68420327Y-56202494D01*
X68394646Y-56199500D01*
X67682291Y-56199500D01*
X67614170Y-56179498D01*
X67567677Y-56125842D01*
X67557573Y-56055568D01*
X67587067Y-55990988D01*
X67646793Y-55952604D01*
X67664211Y-55948804D01*
X67764013Y-55934333D01*
X67764014Y-55934333D01*
X67769730Y-55933504D01*
X67854322Y-55904789D01*
X67964483Y-55867395D01*
X67964488Y-55867393D01*
X67969955Y-55865537D01*
X67976014Y-55862144D01*
X68149395Y-55765046D01*
X68149399Y-55765043D01*
X68154442Y-55762219D01*
X68317012Y-55627012D01*
X68452219Y-55464442D01*
X68455043Y-55459399D01*
X68455046Y-55459395D01*
X68552713Y-55284998D01*
X68552714Y-55284996D01*
X68555537Y-55279955D01*
X68557393Y-55274488D01*
X68557395Y-55274483D01*
X68621647Y-55085200D01*
X68623504Y-55079730D01*
X68624689Y-55071562D01*
X68653314Y-54874140D01*
X68653314Y-54874138D01*
X68653846Y-54870470D01*
X68655429Y-54810000D01*
X68636081Y-54599440D01*
X68578686Y-54395931D01*
X68567553Y-54373354D01*
X68487719Y-54211469D01*
X68485165Y-54206290D01*
X68399650Y-54091771D01*
X68362104Y-54041491D01*
X68362103Y-54041490D01*
X68358651Y-54036867D01*
X68258286Y-53944090D01*
X68207622Y-53897257D01*
X68207620Y-53897255D01*
X68203381Y-53893337D01*
X68051386Y-53797435D01*
X68029434Y-53783584D01*
X68029433Y-53783584D01*
X68024554Y-53780505D01*
X67828160Y-53702152D01*
X67822503Y-53701027D01*
X67822497Y-53701025D01*
X67625234Y-53661788D01*
X67562324Y-53628881D01*
X67527192Y-53567186D01*
X67530992Y-53496291D01*
X67572517Y-53438705D01*
X67631734Y-53413513D01*
X67764015Y-53394333D01*
X67764019Y-53394332D01*
X67769730Y-53393504D01*
X67848987Y-53366600D01*
X67964483Y-53327395D01*
X67964488Y-53327393D01*
X67969955Y-53325537D01*
X67974998Y-53322713D01*
X68149395Y-53225046D01*
X68149399Y-53225043D01*
X68154442Y-53222219D01*
X68317012Y-53087012D01*
X68452219Y-52924442D01*
X68455043Y-52919399D01*
X68455046Y-52919395D01*
X68552713Y-52744998D01*
X68552714Y-52744996D01*
X68555537Y-52739955D01*
X68557393Y-52734488D01*
X68557395Y-52734483D01*
X68621647Y-52545200D01*
X68623504Y-52539730D01*
X68636722Y-52448574D01*
X68653314Y-52334140D01*
X68653314Y-52334138D01*
X68653846Y-52330470D01*
X68655429Y-52270000D01*
X68636081Y-52059440D01*
X68631169Y-52042021D01*
X68588923Y-51892229D01*
X68578686Y-51855931D01*
X68573257Y-51844921D01*
X68487719Y-51671469D01*
X68485165Y-51666290D01*
X68385300Y-51532554D01*
X68362104Y-51501491D01*
X68362103Y-51501490D01*
X68358651Y-51496867D01*
X68225905Y-51374158D01*
X68207622Y-51357257D01*
X68207620Y-51357255D01*
X68203381Y-51353337D01*
X68180734Y-51339048D01*
X68029434Y-51243584D01*
X68029433Y-51243584D01*
X68024554Y-51240505D01*
X67828160Y-51162152D01*
X67822503Y-51161027D01*
X67822497Y-51161025D01*
X67626442Y-51122028D01*
X67626440Y-51122028D01*
X67620775Y-51120901D01*
X67615000Y-51120825D01*
X67614996Y-51120825D01*
X67508976Y-51119437D01*
X67409346Y-51118133D01*
X67403649Y-51119112D01*
X67403648Y-51119112D01*
X67206650Y-51152962D01*
X67206649Y-51152962D01*
X67200953Y-51153941D01*
X67002575Y-51227127D01*
X66997614Y-51230079D01*
X66997613Y-51230079D01*
X66840588Y-51323499D01*
X66820856Y-51335238D01*
X66661881Y-51474655D01*
X66530976Y-51640708D01*
X66528287Y-51645819D01*
X66528285Y-51645822D01*
X66497201Y-51704903D01*
X66432523Y-51827836D01*
X66390122Y-51964391D01*
X66372316Y-52021736D01*
X66369820Y-52029773D01*
X66344967Y-52239754D01*
X66358796Y-52450749D01*
X66360217Y-52456345D01*
X66360218Y-52456350D01*
X66401656Y-52619509D01*
X66410845Y-52655690D01*
X66413262Y-52660933D01*
X66467178Y-52777887D01*
X66499369Y-52847714D01*
X66621405Y-53020391D01*
X66772865Y-53167937D01*
X66777661Y-53171142D01*
X66777664Y-53171144D01*
X66904909Y-53256166D01*
X66948677Y-53285411D01*
X66953985Y-53287692D01*
X66953986Y-53287692D01*
X67137650Y-53366600D01*
X67137653Y-53366601D01*
X67142953Y-53368878D01*
X67148582Y-53370152D01*
X67148583Y-53370152D01*
X67343550Y-53414269D01*
X67343553Y-53414269D01*
X67349186Y-53415544D01*
X67354958Y-53415771D01*
X67360687Y-53416525D01*
X67360327Y-53419257D01*
X67416604Y-53438216D01*
X67460950Y-53493659D01*
X67468282Y-53564276D01*
X67436271Y-53627647D01*
X67375081Y-53663651D01*
X67365704Y-53665632D01*
X67206650Y-53692962D01*
X67206649Y-53692962D01*
X67200953Y-53693941D01*
X67002575Y-53767127D01*
X66997614Y-53770079D01*
X66997613Y-53770079D01*
X66895863Y-53830614D01*
X66820856Y-53875238D01*
X66661881Y-54014655D01*
X66530976Y-54180708D01*
X66528287Y-54185819D01*
X66528285Y-54185822D01*
X66514792Y-54211469D01*
X66432523Y-54367836D01*
X66369820Y-54569773D01*
X66344967Y-54779754D01*
X41925500Y-54779754D01*
X41925500Y-54774679D01*
X41945502Y-54706558D01*
X41951538Y-54697975D01*
X42019506Y-54609397D01*
X42019508Y-54609394D01*
X42024536Y-54602841D01*
X42085044Y-54456762D01*
X42105682Y-54300000D01*
X42104604Y-54291810D01*
X42097917Y-54241014D01*
X42108857Y-54170866D01*
X42155985Y-54117767D01*
X42222839Y-54098569D01*
X48528469Y-54098568D01*
X48560383Y-54098568D01*
X48569814Y-54095504D01*
X48569818Y-54095503D01*
X48581303Y-54091771D01*
X48600528Y-54087155D01*
X48612462Y-54085265D01*
X48612463Y-54085265D01*
X48622254Y-54083714D01*
X48631087Y-54079213D01*
X48631091Y-54079212D01*
X48641856Y-54073727D01*
X48660118Y-54066162D01*
X48681040Y-54059364D01*
X48698843Y-54046429D01*
X48715695Y-54036103D01*
X48726452Y-54030622D01*
X48735292Y-54026118D01*
X48757856Y-54003554D01*
X48757859Y-54003552D01*
X51424006Y-51337405D01*
X51486318Y-51303379D01*
X51513101Y-51300500D01*
X54072011Y-51300500D01*
X54140132Y-51320502D01*
X54186625Y-51374158D01*
X54196729Y-51444432D01*
X54181131Y-51489499D01*
X54180491Y-51490608D01*
X54175464Y-51497159D01*
X54114956Y-51643238D01*
X54094318Y-51800000D01*
X54114956Y-51956762D01*
X54175464Y-52102841D01*
X54217495Y-52157617D01*
X54250017Y-52200000D01*
X54271718Y-52228282D01*
X54397159Y-52324536D01*
X54543238Y-52385044D01*
X54700000Y-52405682D01*
X54708188Y-52404604D01*
X54721580Y-52402841D01*
X54856762Y-52385044D01*
X55002841Y-52324536D01*
X55128282Y-52228282D01*
X55149984Y-52200000D01*
X55182505Y-52157617D01*
X55224536Y-52102841D01*
X55285044Y-51956762D01*
X55296902Y-51866695D01*
X55304294Y-51810543D01*
X55333016Y-51745616D01*
X55392282Y-51706524D01*
X55429216Y-51700989D01*
X56626726Y-51700989D01*
X56694847Y-51720991D01*
X56741340Y-51774647D01*
X56751444Y-51844921D01*
X56743135Y-51875207D01*
X56734043Y-51897159D01*
X56714956Y-51943238D01*
X56694318Y-52100000D01*
X56714956Y-52256762D01*
X56775464Y-52402841D01*
X56871718Y-52528282D01*
X56997159Y-52624536D01*
X57143238Y-52685044D01*
X57300000Y-52705682D01*
X57308188Y-52704604D01*
X57321580Y-52702841D01*
X57456762Y-52685044D01*
X57602841Y-52624536D01*
X57728282Y-52528282D01*
X57824536Y-52402841D01*
X57885044Y-52256762D01*
X57905682Y-52100000D01*
X57885044Y-51943238D01*
X57865958Y-51897159D01*
X57856865Y-51875207D01*
X57849276Y-51804617D01*
X57881056Y-51741130D01*
X57942114Y-51704903D01*
X57973274Y-51700989D01*
X59382406Y-51700989D01*
X59450527Y-51720991D01*
X59471501Y-51737894D01*
X60518012Y-52784405D01*
X60552038Y-52846717D01*
X60546973Y-52917532D01*
X60504426Y-52974368D01*
X60437906Y-52999179D01*
X60428917Y-52999500D01*
X56306731Y-52999500D01*
X56238610Y-52979498D01*
X56228540Y-52971382D01*
X56228282Y-52971718D01*
X56166793Y-52924536D01*
X56102841Y-52875464D01*
X55956762Y-52814956D01*
X55800000Y-52794318D01*
X55643238Y-52814956D01*
X55497159Y-52875464D01*
X55371718Y-52971718D01*
X55275464Y-53097159D01*
X55214956Y-53243238D01*
X55194318Y-53400000D01*
X55214956Y-53556762D01*
X55275464Y-53702841D01*
X55371718Y-53828282D01*
X55497159Y-53924536D01*
X55643238Y-53985044D01*
X55800000Y-54005682D01*
X55808188Y-54004604D01*
X55816111Y-54003561D01*
X55956762Y-53985044D01*
X56102841Y-53924536D01*
X56228282Y-53828282D01*
X56230072Y-53830614D01*
X56279948Y-53803379D01*
X56306731Y-53800500D01*
X61963433Y-53800500D01*
X61972864Y-53797436D01*
X61972868Y-53797435D01*
X61984353Y-53793703D01*
X62003578Y-53789087D01*
X62015512Y-53787197D01*
X62015513Y-53787197D01*
X62025304Y-53785646D01*
X62034137Y-53781145D01*
X62034141Y-53781144D01*
X62044906Y-53775659D01*
X62063166Y-53768095D01*
X62084090Y-53761296D01*
X62101893Y-53748361D01*
X62118745Y-53738035D01*
X62129502Y-53732554D01*
X62138342Y-53728050D01*
X62160895Y-53705497D01*
X62160910Y-53705483D01*
X62587160Y-53279233D01*
X63024883Y-52841509D01*
X63087196Y-52807484D01*
X63100055Y-52806101D01*
X63100000Y-52805682D01*
X63186319Y-52794318D01*
X63248574Y-52786122D01*
X63256762Y-52785044D01*
X63274041Y-52777887D01*
X63291568Y-52770627D01*
X63402841Y-52724536D01*
X63528282Y-52628282D01*
X63624536Y-52502841D01*
X63685044Y-52356762D01*
X63705682Y-52200000D01*
X63685044Y-52043238D01*
X63624536Y-51897159D01*
X63552442Y-51803204D01*
X63526842Y-51736983D01*
X63541107Y-51667435D01*
X63590708Y-51616639D01*
X63652405Y-51600500D01*
X66063433Y-51600500D01*
X66072864Y-51597436D01*
X66072868Y-51597435D01*
X66084353Y-51593703D01*
X66103578Y-51589087D01*
X66115512Y-51587197D01*
X66115513Y-51587197D01*
X66125304Y-51585646D01*
X66134137Y-51581145D01*
X66134141Y-51581144D01*
X66144906Y-51575659D01*
X66163166Y-51568095D01*
X66184090Y-51561296D01*
X66201893Y-51548361D01*
X66218745Y-51538035D01*
X66229502Y-51532554D01*
X66238342Y-51528050D01*
X66260905Y-51505487D01*
X66260909Y-51505484D01*
X67228988Y-50537405D01*
X67291300Y-50503379D01*
X67318083Y-50500500D01*
X70981917Y-50500500D01*
X71050038Y-50520502D01*
X71071012Y-50537405D01*
X72058491Y-51524883D01*
X72092516Y-51587195D01*
X72093899Y-51600055D01*
X72094318Y-51600000D01*
X72114956Y-51756762D01*
X72175464Y-51902841D01*
X72271718Y-52028282D01*
X72278264Y-52033305D01*
X72289623Y-52042021D01*
X72397159Y-52124536D01*
X72543238Y-52185044D01*
X72700000Y-52205682D01*
X72708188Y-52204604D01*
X72848574Y-52186122D01*
X72856762Y-52185044D01*
X73002841Y-52124536D01*
X73062173Y-52079009D01*
X73111437Y-52041208D01*
X73177658Y-52015608D01*
X73247207Y-52029873D01*
X73298002Y-52079474D01*
X73313918Y-52148664D01*
X73313063Y-52157616D01*
X73294318Y-52300000D01*
X73314956Y-52456762D01*
X73375464Y-52602841D01*
X73380491Y-52609392D01*
X73382619Y-52613077D01*
X73399500Y-52676078D01*
X73399500Y-59173500D01*
X73379498Y-59241621D01*
X73325842Y-59288114D01*
X73273500Y-59299500D01*
X69936567Y-59299500D01*
X69927135Y-59302565D01*
X69927133Y-59302565D01*
X69915648Y-59306297D01*
X69896422Y-59310913D01*
X69874696Y-59314354D01*
X69865861Y-59318856D01*
X69865860Y-59318856D01*
X69855097Y-59324340D01*
X69836836Y-59331904D01*
X69815911Y-59338703D01*
X69807887Y-59344533D01*
X69798113Y-59351634D01*
X69781257Y-59361963D01*
X69770493Y-59367448D01*
X69770492Y-59367449D01*
X69761658Y-59371950D01*
X69739095Y-59394513D01*
X69739091Y-59394516D01*
X69064516Y-60069091D01*
X69064513Y-60069095D01*
X69041950Y-60091658D01*
X69037446Y-60100498D01*
X69031965Y-60111255D01*
X69021639Y-60128107D01*
X69008704Y-60145910D01*
X69002489Y-60165039D01*
X69001907Y-60166830D01*
X68994341Y-60185094D01*
X68984354Y-60204695D01*
X68981953Y-60203472D01*
X68950322Y-60249733D01*
X68928937Y-60263854D01*
X68786500Y-60338318D01*
X68624417Y-60468636D01*
X68620459Y-60473353D01*
X68620457Y-60473355D01*
X68560873Y-60544365D01*
X68490733Y-60627954D01*
X68487769Y-60633346D01*
X68487766Y-60633350D01*
X68393508Y-60804806D01*
X68390541Y-60810203D01*
X68327656Y-61008443D01*
X68326970Y-61014560D01*
X68326969Y-61014564D01*
X68310121Y-61164765D01*
X68304473Y-61215121D01*
X68305971Y-61232965D01*
X68321115Y-61413300D01*
X68321876Y-61422367D01*
X68379201Y-61622285D01*
X68382019Y-61627767D01*
X68382020Y-61627771D01*
X68471446Y-61801775D01*
X68471449Y-61801779D01*
X68474266Y-61807261D01*
X68603449Y-61970249D01*
X68608143Y-61974244D01*
X68655329Y-62014402D01*
X68761830Y-62105042D01*
X68767208Y-62108048D01*
X68767210Y-62108049D01*
X68920377Y-62193651D01*
X68943376Y-62206505D01*
X69141171Y-62270772D01*
X69347683Y-62295397D01*
X69353818Y-62294925D01*
X69353820Y-62294925D01*
X69452376Y-62287342D01*
X71217213Y-62287342D01*
X71226509Y-62299357D01*
X71269069Y-62329158D01*
X71278565Y-62334641D01*
X71469680Y-62423759D01*
X71479972Y-62427505D01*
X71683660Y-62482083D01*
X71694453Y-62483986D01*
X71904525Y-62502365D01*
X71915475Y-62502365D01*
X72125547Y-62483986D01*
X72136340Y-62482083D01*
X72340028Y-62427505D01*
X72350320Y-62423759D01*
X72541435Y-62334641D01*
X72550931Y-62329158D01*
X72594329Y-62298770D01*
X72602704Y-62288293D01*
X72595635Y-62274845D01*
X71922812Y-61602022D01*
X71908868Y-61594408D01*
X71907035Y-61594539D01*
X71900420Y-61598790D01*
X71223643Y-62275567D01*
X71217213Y-62287342D01*
X69452376Y-62287342D01*
X69548904Y-62279915D01*
X69548909Y-62279914D01*
X69555045Y-62279442D01*
X69560977Y-62277786D01*
X69560981Y-62277785D01*
X69749414Y-62225173D01*
X69749418Y-62225172D01*
X69755358Y-62223513D01*
X69760862Y-62220733D01*
X69760864Y-62220732D01*
X69935493Y-62132521D01*
X69935495Y-62132520D01*
X69940994Y-62129742D01*
X70104880Y-62001700D01*
X70122561Y-61981217D01*
X70141952Y-61958752D01*
X70240775Y-61844264D01*
X70243818Y-61838907D01*
X70243821Y-61838903D01*
X70292139Y-61753847D01*
X70343502Y-61663431D01*
X70357190Y-61622285D01*
X70387202Y-61532064D01*
X70409149Y-61466089D01*
X70409922Y-61459968D01*
X70411286Y-61453966D01*
X70413853Y-61454549D01*
X70437662Y-61399955D01*
X70496720Y-61360551D01*
X70567707Y-61359332D01*
X70628083Y-61396685D01*
X70654752Y-61451493D01*
X70656493Y-61451027D01*
X70712495Y-61660028D01*
X70716241Y-61670320D01*
X70805359Y-61861435D01*
X70810842Y-61870931D01*
X70841230Y-61914329D01*
X70851707Y-61922704D01*
X70865155Y-61915635D01*
X71537978Y-61242812D01*
X71544356Y-61231132D01*
X72274408Y-61231132D01*
X72274539Y-61232965D01*
X72278790Y-61239580D01*
X72955567Y-61916357D01*
X72967342Y-61922787D01*
X72979357Y-61913491D01*
X73009158Y-61870931D01*
X73014641Y-61861435D01*
X73103759Y-61670320D01*
X73107505Y-61660028D01*
X73162083Y-61456340D01*
X73163986Y-61445547D01*
X73182365Y-61235475D01*
X73182365Y-61224525D01*
X73163986Y-61014453D01*
X73162083Y-61003660D01*
X73107505Y-60799972D01*
X73103759Y-60789680D01*
X73014641Y-60598565D01*
X73009158Y-60589069D01*
X72978770Y-60545671D01*
X72968293Y-60537296D01*
X72954845Y-60544365D01*
X72282022Y-61217188D01*
X72274408Y-61231132D01*
X71544356Y-61231132D01*
X71545592Y-61228868D01*
X71545461Y-61227035D01*
X71541210Y-61220420D01*
X70864433Y-60543643D01*
X70852658Y-60537213D01*
X70840643Y-60546509D01*
X70810842Y-60589069D01*
X70805359Y-60598565D01*
X70716241Y-60789680D01*
X70712495Y-60799972D01*
X70656493Y-61008973D01*
X70655032Y-61008581D01*
X70626628Y-61065876D01*
X70565711Y-61102340D01*
X70494750Y-61100080D01*
X70436276Y-61059815D01*
X70413457Y-61016795D01*
X70355225Y-60823920D01*
X70351054Y-60816076D01*
X70260481Y-60645731D01*
X70260479Y-60645728D01*
X70257587Y-60640289D01*
X70253697Y-60635519D01*
X70253694Y-60635515D01*
X70130036Y-60483895D01*
X70130033Y-60483892D01*
X70126141Y-60479120D01*
X70119173Y-60473355D01*
X70065660Y-60429086D01*
X70047385Y-60413967D01*
X70007647Y-60355135D01*
X70006024Y-60284157D01*
X70038605Y-60227788D01*
X70128988Y-60137405D01*
X70191300Y-60103379D01*
X70218083Y-60100500D01*
X71103751Y-60100500D01*
X71171872Y-60120502D01*
X71215282Y-60167876D01*
X71224364Y-60185154D01*
X71897188Y-60857978D01*
X71911132Y-60865592D01*
X71912965Y-60865461D01*
X71919580Y-60861210D01*
X72596357Y-60184433D01*
X72606361Y-60166113D01*
X72656564Y-60115912D01*
X72716948Y-60100500D01*
X73107461Y-60100500D01*
X73175582Y-60120502D01*
X73223870Y-60178282D01*
X73275464Y-60302841D01*
X73342737Y-60390513D01*
X73364524Y-60418906D01*
X73371718Y-60428282D01*
X73497159Y-60524536D01*
X73643238Y-60585044D01*
X73800000Y-60605682D01*
X73808188Y-60604604D01*
X73948574Y-60586122D01*
X73956762Y-60585044D01*
X74102841Y-60524536D01*
X74228282Y-60428282D01*
X74235477Y-60418906D01*
X74257263Y-60390513D01*
X74324536Y-60302841D01*
X74385044Y-60156762D01*
X74405682Y-60000000D01*
X74385044Y-59843238D01*
X74324536Y-59697159D01*
X74228282Y-59571718D01*
X74230614Y-59569928D01*
X74203379Y-59520052D01*
X74200500Y-59493269D01*
X74200500Y-52888469D01*
X74220502Y-52820348D01*
X74249796Y-52788506D01*
X74256950Y-52783017D01*
X74328282Y-52728282D01*
X74424536Y-52602841D01*
X74485044Y-52456762D01*
X74505682Y-52300000D01*
X74485044Y-52143238D01*
X74424536Y-51997159D01*
X74328282Y-51871718D01*
X74311437Y-51858792D01*
X74248557Y-51810543D01*
X74202841Y-51775464D01*
X74056762Y-51714956D01*
X73900000Y-51694318D01*
X73743238Y-51714956D01*
X73597159Y-51775464D01*
X73559166Y-51804617D01*
X73488563Y-51858792D01*
X73422342Y-51884392D01*
X73352793Y-51870127D01*
X73301998Y-51820526D01*
X73286082Y-51751336D01*
X73286937Y-51742383D01*
X73304604Y-51608188D01*
X73305682Y-51600000D01*
X73290908Y-51487778D01*
X73286122Y-51451426D01*
X73285044Y-51443238D01*
X73224536Y-51297159D01*
X73128282Y-51171718D01*
X73105115Y-51153941D01*
X73074031Y-51130090D01*
X73002841Y-51075464D01*
X72856762Y-51014956D01*
X72700000Y-50994318D01*
X72700384Y-50991404D01*
X72645857Y-50975394D01*
X72624883Y-50958491D01*
X72061604Y-50395211D01*
X71460909Y-49794516D01*
X71460905Y-49794513D01*
X71438342Y-49771950D01*
X71418746Y-49761965D01*
X71401893Y-49751639D01*
X71384090Y-49738704D01*
X71363166Y-49731905D01*
X71344906Y-49724341D01*
X71334141Y-49718856D01*
X71334137Y-49718855D01*
X71325304Y-49714354D01*
X71315513Y-49712803D01*
X71315512Y-49712803D01*
X71303578Y-49710913D01*
X71284353Y-49706297D01*
X71272868Y-49702565D01*
X71272864Y-49702564D01*
X71263433Y-49699500D01*
X67036567Y-49699500D01*
X67027136Y-49702564D01*
X67027132Y-49702565D01*
X67015647Y-49706297D01*
X66996422Y-49710913D01*
X66984488Y-49712803D01*
X66984487Y-49712803D01*
X66974696Y-49714354D01*
X66965863Y-49718855D01*
X66965859Y-49718856D01*
X66955094Y-49724341D01*
X66936834Y-49731905D01*
X66915910Y-49738704D01*
X66898107Y-49751639D01*
X66881254Y-49761965D01*
X66861658Y-49771950D01*
X66839095Y-49794513D01*
X66839091Y-49794516D01*
X65871012Y-50762595D01*
X65808700Y-50796621D01*
X65781917Y-50799500D01*
X65471083Y-50799500D01*
X65402962Y-50779498D01*
X65356469Y-50725842D01*
X65346365Y-50655568D01*
X65375859Y-50590988D01*
X65381988Y-50584405D01*
X66424883Y-49541509D01*
X66487195Y-49507484D01*
X66500055Y-49506101D01*
X66500000Y-49505682D01*
X66656762Y-49485044D01*
X66802841Y-49424536D01*
X66928282Y-49328282D01*
X67024536Y-49202841D01*
X67085044Y-49056762D01*
X67090653Y-49014157D01*
X67119376Y-48949230D01*
X67178641Y-48910139D01*
X67200162Y-48906914D01*
X67200000Y-48905682D01*
X67245005Y-48899757D01*
X67348574Y-48886122D01*
X67356762Y-48885044D01*
X67502841Y-48824536D01*
X67628282Y-48728282D01*
X67649984Y-48700000D01*
X67683161Y-48656762D01*
X67724536Y-48602841D01*
X67785044Y-48456762D01*
X67805682Y-48300000D01*
X67785044Y-48143238D01*
X67767134Y-48100000D01*
X75694318Y-48100000D01*
X75714956Y-48256762D01*
X75775464Y-48402841D01*
X75816839Y-48456762D01*
X75850017Y-48500000D01*
X75871718Y-48528282D01*
X75997159Y-48624536D01*
X76143238Y-48685044D01*
X76300000Y-48705682D01*
X76308188Y-48704604D01*
X76448574Y-48686122D01*
X76456762Y-48685044D01*
X76602841Y-48624536D01*
X76728282Y-48528282D01*
X76749984Y-48500000D01*
X76783161Y-48456762D01*
X76824536Y-48402841D01*
X76885044Y-48256762D01*
X76905682Y-48100000D01*
X76885044Y-47943238D01*
X76824536Y-47797159D01*
X76752163Y-47702841D01*
X76733305Y-47678264D01*
X76728282Y-47671718D01*
X76602841Y-47575464D01*
X76456762Y-47514956D01*
X76415768Y-47509559D01*
X76308188Y-47495396D01*
X76300000Y-47494318D01*
X76291812Y-47495396D01*
X76184233Y-47509559D01*
X76143238Y-47514956D01*
X75997159Y-47575464D01*
X75871718Y-47671718D01*
X75866695Y-47678264D01*
X75847837Y-47702841D01*
X75775464Y-47797159D01*
X75714956Y-47943238D01*
X75694318Y-48100000D01*
X67767134Y-48100000D01*
X67724536Y-47997159D01*
X67628282Y-47871718D01*
X67502841Y-47775464D01*
X67356762Y-47714956D01*
X67290550Y-47706239D01*
X67241336Y-47699760D01*
X67200000Y-47694318D01*
X67158664Y-47699760D01*
X67109451Y-47706239D01*
X67043238Y-47714956D01*
X66897159Y-47775464D01*
X66771718Y-47871718D01*
X66675464Y-47997159D01*
X66614956Y-48143238D01*
X66613878Y-48151426D01*
X66609347Y-48185843D01*
X66580624Y-48250770D01*
X66521359Y-48289861D01*
X66499838Y-48293086D01*
X66500000Y-48294318D01*
X66343238Y-48314956D01*
X66197159Y-48375464D01*
X66071718Y-48471718D01*
X66066695Y-48478264D01*
X66047837Y-48502841D01*
X65975464Y-48597159D01*
X65932866Y-48700000D01*
X65930437Y-48705864D01*
X65885889Y-48761145D01*
X65818525Y-48783566D01*
X65749734Y-48766008D01*
X65701356Y-48714046D01*
X65689106Y-48674092D01*
X65686122Y-48651426D01*
X65685044Y-48643238D01*
X65624536Y-48497159D01*
X65528282Y-48371718D01*
X65402841Y-48275464D01*
X65256762Y-48214956D01*
X65100000Y-48194318D01*
X64943238Y-48214956D01*
X64797159Y-48275464D01*
X64671718Y-48371718D01*
X64575464Y-48497159D01*
X64514956Y-48643238D01*
X64494318Y-48800000D01*
X64491404Y-48799616D01*
X64475394Y-48854142D01*
X64458491Y-48875116D01*
X63671012Y-49662595D01*
X63608700Y-49696621D01*
X63581917Y-49699500D01*
X60571084Y-49699500D01*
X60502963Y-49679498D01*
X60456470Y-49625842D01*
X60446366Y-49555568D01*
X60475860Y-49490988D01*
X60481988Y-49484405D01*
X60705483Y-49260909D01*
X60728050Y-49238342D01*
X60733176Y-49228282D01*
X60738038Y-49218741D01*
X60748367Y-49201885D01*
X60757793Y-49188911D01*
X60783026Y-49163008D01*
X60821736Y-49133305D01*
X60828282Y-49128282D01*
X60924536Y-49002841D01*
X60985044Y-48856762D01*
X60993089Y-48795653D01*
X61021811Y-48730726D01*
X61081076Y-48691634D01*
X61134457Y-48687177D01*
X61266832Y-48704604D01*
X61275020Y-48705682D01*
X61283208Y-48704604D01*
X61423594Y-48686122D01*
X61431782Y-48685044D01*
X61577861Y-48624536D01*
X61703302Y-48528282D01*
X61725004Y-48500000D01*
X61758181Y-48456762D01*
X61799556Y-48402841D01*
X61847903Y-48286122D01*
X61856904Y-48264392D01*
X61856905Y-48264389D01*
X61859423Y-48258309D01*
X61859425Y-48258306D01*
X61860064Y-48256762D01*
X61860305Y-48256862D01*
X61894787Y-48200289D01*
X61958647Y-48169267D01*
X62029141Y-48177695D01*
X62083889Y-48222897D01*
X62104465Y-48277075D01*
X62108561Y-48308188D01*
X62114956Y-48356762D01*
X62175464Y-48502841D01*
X62215106Y-48554504D01*
X62250017Y-48600000D01*
X62271718Y-48628282D01*
X62397159Y-48724536D01*
X62543238Y-48785044D01*
X62700000Y-48805682D01*
X62708188Y-48804604D01*
X62721580Y-48802841D01*
X62856762Y-48785044D01*
X63002841Y-48724536D01*
X63128282Y-48628282D01*
X63149984Y-48600000D01*
X63184894Y-48554504D01*
X63224536Y-48502841D01*
X63285044Y-48356762D01*
X63305682Y-48200000D01*
X63285044Y-48043238D01*
X63224536Y-47897159D01*
X63128282Y-47771718D01*
X63002841Y-47675464D01*
X62924246Y-47642909D01*
X62868965Y-47598361D01*
X62846544Y-47530997D01*
X62864102Y-47462206D01*
X62916064Y-47413828D01*
X62972464Y-47400500D01*
X68163433Y-47400500D01*
X68172864Y-47397436D01*
X68172868Y-47397435D01*
X68184353Y-47393703D01*
X68203578Y-47389087D01*
X68215512Y-47387197D01*
X68215513Y-47387197D01*
X68225304Y-47385646D01*
X68234137Y-47381145D01*
X68234141Y-47381144D01*
X68244906Y-47375659D01*
X68263166Y-47368095D01*
X68284090Y-47361296D01*
X68301893Y-47348361D01*
X68318745Y-47338035D01*
X68329502Y-47332554D01*
X68338342Y-47328050D01*
X68360905Y-47305487D01*
X68360909Y-47305484D01*
X69124884Y-46541509D01*
X69187196Y-46507483D01*
X69200055Y-46506101D01*
X69200000Y-46505682D01*
X69356762Y-46485044D01*
X69502841Y-46424536D01*
X69628282Y-46328282D01*
X69649984Y-46300000D01*
X69693922Y-46242738D01*
X69724536Y-46202841D01*
X69785044Y-46056762D01*
X69805682Y-45900000D01*
X69785044Y-45743238D01*
X69724536Y-45597159D01*
X69628282Y-45471718D01*
X69502841Y-45375464D01*
X69356762Y-45314956D01*
X69200000Y-45294318D01*
X69043238Y-45314956D01*
X68897159Y-45375464D01*
X68771718Y-45471718D01*
X68675464Y-45597159D01*
X68614956Y-45743238D01*
X68594318Y-45900000D01*
X68591404Y-45899616D01*
X68575394Y-45954142D01*
X68558491Y-45975116D01*
X67971012Y-46562595D01*
X67908700Y-46596621D01*
X67881917Y-46599500D01*
X67209888Y-46599500D01*
X67141767Y-46579498D01*
X67095274Y-46525842D01*
X67085347Y-46456802D01*
X67085044Y-46456762D01*
X67085186Y-46455681D01*
X67105682Y-46300000D01*
X67085044Y-46143238D01*
X67024536Y-45997159D01*
X66956059Y-45907918D01*
X66933305Y-45878264D01*
X66928282Y-45871718D01*
X66802841Y-45775464D01*
X66656762Y-45714956D01*
X66648576Y-45713878D01*
X66648575Y-45713878D01*
X66642724Y-45713108D01*
X66640271Y-45712785D01*
X66575345Y-45684061D01*
X66536254Y-45624795D01*
X66535411Y-45553804D01*
X66567625Y-45498768D01*
X67124884Y-44941509D01*
X67187196Y-44907483D01*
X67200055Y-44906101D01*
X67200000Y-44905682D01*
X67234720Y-44901111D01*
X67348574Y-44886122D01*
X67356762Y-44885044D01*
X67502841Y-44824536D01*
X67628282Y-44728282D01*
X67724536Y-44602841D01*
X67785044Y-44456762D01*
X67805682Y-44300000D01*
X67785044Y-44143238D01*
X67724536Y-43997159D01*
X67654287Y-43905609D01*
X67633305Y-43878264D01*
X67628282Y-43871718D01*
X67502841Y-43775464D01*
X67356762Y-43714956D01*
X67200000Y-43694318D01*
X67043238Y-43714956D01*
X66897159Y-43775464D01*
X66771718Y-43871718D01*
X66766695Y-43878264D01*
X66745713Y-43905609D01*
X66675464Y-43997159D01*
X66672304Y-44004789D01*
X66666409Y-44019020D01*
X66621861Y-44074301D01*
X66554498Y-44096722D01*
X66485706Y-44079164D01*
X66437328Y-44027202D01*
X66433591Y-44019020D01*
X66427696Y-44004789D01*
X66424536Y-43997159D01*
X66328282Y-43871718D01*
X66330614Y-43869928D01*
X66303379Y-43820052D01*
X66300500Y-43793269D01*
X66300500Y-39668481D01*
X66300499Y-39668475D01*
X66300499Y-39636567D01*
X66297436Y-39627140D01*
X66297435Y-39627133D01*
X66293703Y-39615647D01*
X66289089Y-39596427D01*
X66287199Y-39584493D01*
X66287197Y-39584485D01*
X66285646Y-39574696D01*
X66281146Y-39565865D01*
X66281145Y-39565861D01*
X66275658Y-39555093D01*
X66268094Y-39536832D01*
X66261296Y-39515910D01*
X66248368Y-39498116D01*
X66238038Y-39481259D01*
X66232552Y-39470493D01*
X66232551Y-39470492D01*
X66228050Y-39461658D01*
X66138342Y-39371950D01*
X65760909Y-38994516D01*
X65760907Y-38994514D01*
X65160924Y-38394530D01*
X65160895Y-38394503D01*
X65138342Y-38371950D01*
X65118746Y-38361965D01*
X65101893Y-38351639D01*
X65084090Y-38338704D01*
X65078277Y-38336815D01*
X65028198Y-38289518D01*
X65011133Y-38220603D01*
X65034034Y-38153402D01*
X65089632Y-38109250D01*
X65137017Y-38100000D01*
X66481417Y-38100000D01*
X66549538Y-38120002D01*
X66570512Y-38136905D01*
X67562595Y-39128988D01*
X67596621Y-39191300D01*
X67599500Y-39218083D01*
X67599500Y-41463433D01*
X67602564Y-41472864D01*
X67602565Y-41472868D01*
X67606297Y-41484353D01*
X67610913Y-41503578D01*
X67614354Y-41525304D01*
X67618855Y-41534137D01*
X67618856Y-41534141D01*
X67624341Y-41544906D01*
X67631905Y-41563166D01*
X67638704Y-41584090D01*
X67651639Y-41601893D01*
X67661965Y-41618745D01*
X67671950Y-41638342D01*
X67694513Y-41660905D01*
X67694516Y-41660909D01*
X69658491Y-43624883D01*
X69692516Y-43687195D01*
X69693899Y-43700055D01*
X69694318Y-43700000D01*
X69714956Y-43856762D01*
X69775464Y-44002841D01*
X69816839Y-44056762D01*
X69853638Y-44104719D01*
X69871718Y-44128282D01*
X69997159Y-44224536D01*
X70143238Y-44285044D01*
X70151426Y-44286122D01*
X70189360Y-44291116D01*
X70300000Y-44305682D01*
X70308188Y-44304604D01*
X70310247Y-44304333D01*
X70410640Y-44291116D01*
X70448574Y-44286122D01*
X70456762Y-44285044D01*
X70602841Y-44224536D01*
X70728282Y-44128282D01*
X70746363Y-44104719D01*
X70783161Y-44056762D01*
X70824536Y-44002841D01*
X70885044Y-43856762D01*
X70905682Y-43700000D01*
X70885044Y-43543238D01*
X70824536Y-43397159D01*
X70745782Y-43294524D01*
X70733305Y-43278264D01*
X70728282Y-43271718D01*
X70709705Y-43257463D01*
X70659391Y-43218856D01*
X70602841Y-43175464D01*
X70456762Y-43114956D01*
X70300000Y-43094318D01*
X70300384Y-43091404D01*
X70245857Y-43075394D01*
X70224883Y-43058491D01*
X68437405Y-41271012D01*
X68403379Y-41208700D01*
X68400500Y-41181917D01*
X68400500Y-38936567D01*
X68397436Y-38927136D01*
X68397435Y-38927132D01*
X68393703Y-38915647D01*
X68389087Y-38896422D01*
X68387197Y-38884488D01*
X68387197Y-38884487D01*
X68385646Y-38874696D01*
X68381145Y-38865863D01*
X68381144Y-38865859D01*
X68375658Y-38855092D01*
X68368092Y-38836828D01*
X68364360Y-38825342D01*
X68361296Y-38815911D01*
X68348365Y-38798113D01*
X68338037Y-38781258D01*
X68332555Y-38770499D01*
X68332554Y-38770497D01*
X68328050Y-38761658D01*
X68305487Y-38739095D01*
X68305484Y-38739091D01*
X67005488Y-37439095D01*
X66971462Y-37376783D01*
X66976527Y-37305968D01*
X67005488Y-37260905D01*
X67224884Y-37041509D01*
X67287196Y-37007483D01*
X67300055Y-37006101D01*
X67300000Y-37005682D01*
X67456762Y-36985044D01*
X67602841Y-36924536D01*
X67728282Y-36828282D01*
X67824536Y-36702841D01*
X67885044Y-36556762D01*
X67891217Y-36509877D01*
X67904604Y-36408188D01*
X67905682Y-36400000D01*
X67885044Y-36243238D01*
X67824536Y-36097159D01*
X67728282Y-35971718D01*
X67602841Y-35875464D01*
X67456762Y-35814956D01*
X67300000Y-35794318D01*
X67143238Y-35814956D01*
X66997159Y-35875464D01*
X66871718Y-35971718D01*
X66775464Y-36097159D01*
X66714956Y-36243238D01*
X66694318Y-36400000D01*
X66691404Y-36399616D01*
X66675394Y-36454142D01*
X66658491Y-36475117D01*
X66471011Y-36662596D01*
X66408699Y-36696621D01*
X66381916Y-36699500D01*
X48977360Y-36699500D01*
X48909239Y-36679498D01*
X48862746Y-36625842D01*
X48852642Y-36555568D01*
X48860951Y-36525282D01*
X48863920Y-36518116D01*
X48910044Y-36406762D01*
X48930682Y-36250000D01*
X48910044Y-36093238D01*
X48849536Y-35947159D01*
X48753282Y-35821718D01*
X48627841Y-35725464D01*
X48481762Y-35664956D01*
X48325000Y-35644318D01*
X48168238Y-35664956D01*
X48022159Y-35725464D01*
X47896718Y-35821718D01*
X47800464Y-35947159D01*
X47739956Y-36093238D01*
X47719318Y-36250000D01*
X47739956Y-36406762D01*
X47786081Y-36518116D01*
X47789049Y-36525282D01*
X47796638Y-36595871D01*
X47764859Y-36659358D01*
X47703801Y-36695586D01*
X47672640Y-36699500D01*
X45815771Y-36699500D01*
X45747650Y-36679498D01*
X45701157Y-36625842D01*
X45691053Y-36555568D01*
X45715809Y-36496796D01*
X45744506Y-36459397D01*
X45744508Y-36459394D01*
X45749536Y-36452841D01*
X45810044Y-36306762D01*
X45830682Y-36150000D01*
X45810044Y-35993238D01*
X45749536Y-35847159D01*
X45653282Y-35721718D01*
X45527841Y-35625464D01*
X45381762Y-35564956D01*
X45225000Y-35544318D01*
X45068238Y-35564956D01*
X44922159Y-35625464D01*
X44796718Y-35721718D01*
X44794928Y-35719386D01*
X44745052Y-35746621D01*
X44718269Y-35749500D01*
X40893083Y-35749500D01*
X40824962Y-35729498D01*
X40803987Y-35712595D01*
X39966508Y-34875115D01*
X39932483Y-34812803D01*
X39931101Y-34799945D01*
X39930682Y-34800000D01*
X39911122Y-34651426D01*
X39910044Y-34643238D01*
X39849536Y-34497159D01*
X39753282Y-34371718D01*
X39749139Y-34368539D01*
X39715786Y-34307459D01*
X39720851Y-34236644D01*
X39728334Y-34225000D01*
X43394818Y-34225000D01*
X43395896Y-34233188D01*
X43408339Y-34327699D01*
X43415456Y-34381762D01*
X43475964Y-34527841D01*
X43572218Y-34653282D01*
X43578764Y-34658305D01*
X43601035Y-34675394D01*
X43697659Y-34749536D01*
X43843738Y-34810044D01*
X43851926Y-34811122D01*
X43922119Y-34820363D01*
X44000500Y-34830682D01*
X44008688Y-34829604D01*
X44149074Y-34811122D01*
X44157262Y-34810044D01*
X44303341Y-34749536D01*
X44428782Y-34653282D01*
X44430572Y-34655614D01*
X44480448Y-34628379D01*
X44507231Y-34625500D01*
X45468269Y-34625500D01*
X45536390Y-34645502D01*
X45546460Y-34653618D01*
X45546718Y-34653282D01*
X45672159Y-34749536D01*
X45818238Y-34810044D01*
X45826426Y-34811122D01*
X45896619Y-34820363D01*
X45975000Y-34830682D01*
X45983188Y-34829604D01*
X46123574Y-34811122D01*
X46131762Y-34810044D01*
X46277841Y-34749536D01*
X46374465Y-34675394D01*
X46396736Y-34658305D01*
X46403282Y-34653282D01*
X46499536Y-34527841D01*
X46560044Y-34381762D01*
X46567162Y-34327699D01*
X46579604Y-34233188D01*
X46580682Y-34225000D01*
X46560044Y-34068238D01*
X46499536Y-33922159D01*
X46403282Y-33796718D01*
X46277841Y-33700464D01*
X46131762Y-33639956D01*
X45975000Y-33619318D01*
X45818238Y-33639956D01*
X45672159Y-33700464D01*
X45546718Y-33796718D01*
X45544928Y-33794386D01*
X45495052Y-33821621D01*
X45468269Y-33824500D01*
X44507231Y-33824500D01*
X44439110Y-33804498D01*
X44429040Y-33796382D01*
X44428782Y-33796718D01*
X44315826Y-33710044D01*
X44303341Y-33700464D01*
X44157262Y-33639956D01*
X44000500Y-33619318D01*
X43843738Y-33639956D01*
X43697659Y-33700464D01*
X43572218Y-33796718D01*
X43475964Y-33922159D01*
X43415456Y-34068238D01*
X43394818Y-34225000D01*
X39728334Y-34225000D01*
X39749812Y-34191581D01*
X40174884Y-33766509D01*
X40237196Y-33732483D01*
X40250055Y-33731101D01*
X40250000Y-33730682D01*
X40406762Y-33710044D01*
X40552841Y-33649536D01*
X40678282Y-33553282D01*
X40774536Y-33427841D01*
X40835044Y-33281762D01*
X40855682Y-33125000D01*
X40845363Y-33046619D01*
X40836122Y-32976426D01*
X40835044Y-32968238D01*
X40774536Y-32822159D01*
X40678282Y-32696718D01*
X40552841Y-32600464D01*
X40406762Y-32539956D01*
X40250000Y-32519318D01*
X40093238Y-32539956D01*
X39947159Y-32600464D01*
X39821718Y-32696718D01*
X39725464Y-32822159D01*
X39664956Y-32968238D01*
X39663878Y-32976426D01*
X39652507Y-33062795D01*
X39644318Y-33125000D01*
X39641404Y-33124616D01*
X39625394Y-33179142D01*
X39608491Y-33200116D01*
X39021012Y-33787595D01*
X38958700Y-33821621D01*
X38931917Y-33824500D01*
X37906231Y-33824500D01*
X37838110Y-33804498D01*
X37828040Y-33796382D01*
X37827782Y-33796718D01*
X37714826Y-33710044D01*
X37702341Y-33700464D01*
X37556262Y-33639956D01*
X37399500Y-33619318D01*
X37242738Y-33639956D01*
X37096659Y-33700464D01*
X36971218Y-33796718D01*
X36874964Y-33922159D01*
X36814456Y-34068238D01*
X36793818Y-34225000D01*
X36794896Y-34233188D01*
X36807339Y-34327699D01*
X36814456Y-34381762D01*
X36874964Y-34527841D01*
X36971218Y-34653282D01*
X36977764Y-34658305D01*
X37000035Y-34675394D01*
X37096659Y-34749536D01*
X37242738Y-34810044D01*
X37250926Y-34811122D01*
X37321119Y-34820363D01*
X37399500Y-34830682D01*
X37407688Y-34829604D01*
X37548074Y-34811122D01*
X37556262Y-34810044D01*
X37702341Y-34749536D01*
X37827782Y-34653282D01*
X37829572Y-34655614D01*
X37879448Y-34628379D01*
X37906231Y-34625500D01*
X38598616Y-34625500D01*
X38666737Y-34645502D01*
X38713230Y-34699158D01*
X38723538Y-34767946D01*
X38719318Y-34800000D01*
X38739956Y-34956762D01*
X38800464Y-35102841D01*
X38896718Y-35228282D01*
X39022159Y-35324536D01*
X39168238Y-35385044D01*
X39176426Y-35386122D01*
X39325000Y-35405682D01*
X39324616Y-35408596D01*
X39379142Y-35424606D01*
X39400111Y-35441504D01*
X40254469Y-36295861D01*
X40288493Y-36358172D01*
X40283429Y-36428987D01*
X40240882Y-36485823D01*
X40181818Y-36509877D01*
X40143238Y-36514956D01*
X39997159Y-36575464D01*
X39871718Y-36671718D01*
X39775464Y-36797159D01*
X39714956Y-36943238D01*
X39694318Y-37100000D01*
X39695396Y-37108188D01*
X39695396Y-37108189D01*
X39701829Y-37157054D01*
X39690889Y-37227203D01*
X39643761Y-37280301D01*
X39576907Y-37299500D01*
X35718362Y-37299500D01*
X35650241Y-37279498D01*
X35632833Y-37266025D01*
X35547622Y-37187257D01*
X35547620Y-37187255D01*
X35543381Y-37183337D01*
X35364554Y-37070505D01*
X35168160Y-36992152D01*
X35162503Y-36991027D01*
X35162497Y-36991025D01*
X34966442Y-36952028D01*
X34966440Y-36952028D01*
X34960775Y-36950901D01*
X34955000Y-36950825D01*
X34954996Y-36950825D01*
X34848976Y-36949437D01*
X34749346Y-36948133D01*
X34743649Y-36949112D01*
X34743648Y-36949112D01*
X34546650Y-36982962D01*
X34546649Y-36982962D01*
X34540953Y-36983941D01*
X34342575Y-37057127D01*
X34337614Y-37060079D01*
X34337613Y-37060079D01*
X34284275Y-37091812D01*
X34160856Y-37165238D01*
X34001881Y-37304655D01*
X33870976Y-37470708D01*
X33868287Y-37475819D01*
X33868285Y-37475822D01*
X33853491Y-37503941D01*
X33772523Y-37657836D01*
X33709820Y-37859773D01*
X33709141Y-37865510D01*
X33695088Y-37984239D01*
X33667217Y-38049537D01*
X33608469Y-38089401D01*
X33537494Y-38091174D01*
X33476828Y-38054295D01*
X33445730Y-37990471D01*
X33444490Y-37980958D01*
X33436610Y-37895197D01*
X33436081Y-37889440D01*
X33428876Y-37863891D01*
X33384822Y-37707688D01*
X33378686Y-37685931D01*
X33367553Y-37663354D01*
X33287719Y-37501469D01*
X33285165Y-37496290D01*
X33158651Y-37326867D01*
X33003381Y-37183337D01*
X32824554Y-37070505D01*
X32628160Y-36992152D01*
X32622503Y-36991027D01*
X32622497Y-36991025D01*
X32426442Y-36952028D01*
X32426440Y-36952028D01*
X32420775Y-36950901D01*
X32415000Y-36950825D01*
X32414996Y-36950825D01*
X32308976Y-36949437D01*
X32209346Y-36948133D01*
X32203649Y-36949112D01*
X32203648Y-36949112D01*
X32006650Y-36982962D01*
X32006649Y-36982962D01*
X32000953Y-36983941D01*
X31802575Y-37057127D01*
X31797614Y-37060079D01*
X31797613Y-37060079D01*
X31744275Y-37091812D01*
X31620856Y-37165238D01*
X31461881Y-37304655D01*
X31330976Y-37470708D01*
X31328287Y-37475819D01*
X31328285Y-37475822D01*
X31313491Y-37503941D01*
X31232523Y-37657836D01*
X31169820Y-37859773D01*
X31144967Y-38069754D01*
X31158796Y-38280749D01*
X31160217Y-38286345D01*
X31160218Y-38286350D01*
X31198126Y-38435609D01*
X31210845Y-38485690D01*
X31213262Y-38490933D01*
X31267317Y-38608188D01*
X31299369Y-38677714D01*
X31421405Y-38850391D01*
X31452099Y-38880292D01*
X31565342Y-38990608D01*
X31572865Y-38997937D01*
X31577661Y-39001142D01*
X31577664Y-39001144D01*
X31717109Y-39094318D01*
X31748677Y-39115411D01*
X31753985Y-39117692D01*
X31753986Y-39117692D01*
X31937650Y-39196600D01*
X31937653Y-39196601D01*
X31942953Y-39198878D01*
X31948582Y-39200152D01*
X31948583Y-39200152D01*
X32143550Y-39244269D01*
X32143553Y-39244269D01*
X32149186Y-39245544D01*
X32154958Y-39245771D01*
X32160687Y-39246525D01*
X32160327Y-39249257D01*
X32216604Y-39268216D01*
X32260950Y-39323659D01*
X32268282Y-39394276D01*
X32236271Y-39457647D01*
X32175081Y-39493651D01*
X32165704Y-39495632D01*
X32006650Y-39522962D01*
X32006649Y-39522962D01*
X32000953Y-39523941D01*
X31802575Y-39597127D01*
X31797614Y-39600079D01*
X31797613Y-39600079D01*
X31771446Y-39615647D01*
X31620856Y-39705238D01*
X31563530Y-39755511D01*
X31503413Y-39808232D01*
X31439009Y-39838109D01*
X31420336Y-39839500D01*
X30569083Y-39839500D01*
X30567763Y-39839493D01*
X30566425Y-39839479D01*
X30478593Y-39838559D01*
X30436704Y-39847616D01*
X30424130Y-39849675D01*
X30409523Y-39851314D01*
X30388524Y-39853669D01*
X30388522Y-39853670D01*
X30381528Y-39854454D01*
X30350241Y-39865350D01*
X30335436Y-39869511D01*
X30309944Y-39875022D01*
X30309942Y-39875023D01*
X30303058Y-39876511D01*
X30296676Y-39879487D01*
X30296670Y-39879489D01*
X30264219Y-39894621D01*
X30252408Y-39899417D01*
X30218580Y-39911197D01*
X30218571Y-39911201D01*
X30211927Y-39913515D01*
X30183824Y-39931075D01*
X30170323Y-39938406D01*
X30140292Y-39952410D01*
X30114420Y-39972479D01*
X30106429Y-39978677D01*
X30095973Y-39985971D01*
X30081186Y-39995211D01*
X30059625Y-40008684D01*
X30054628Y-40013646D01*
X30054627Y-40013647D01*
X30031107Y-40037003D01*
X30030485Y-40037585D01*
X30029823Y-40038099D01*
X30003963Y-40063959D01*
X29932193Y-40135230D01*
X29931541Y-40136257D01*
X29930457Y-40137465D01*
X29240441Y-40827481D01*
X29239503Y-40828410D01*
X29175732Y-40890859D01*
X29171917Y-40896779D01*
X29171912Y-40896785D01*
X29152510Y-40926891D01*
X29145070Y-40937245D01*
X29118336Y-40970734D01*
X29115269Y-40977079D01*
X29103918Y-41000559D01*
X29096389Y-41013974D01*
X29078446Y-41041817D01*
X29076036Y-41048437D01*
X29076036Y-41048438D01*
X29063788Y-41082089D01*
X29058828Y-41093831D01*
X29040173Y-41132422D01*
X29038590Y-41139277D01*
X29038589Y-41139281D01*
X29032722Y-41164696D01*
X29028352Y-41179446D01*
X29019432Y-41203955D01*
X29019431Y-41203959D01*
X29017022Y-41210578D01*
X29011648Y-41253118D01*
X29009418Y-41265637D01*
X28999774Y-41307411D01*
X28999749Y-41314452D01*
X28999749Y-41314455D01*
X28999633Y-41347582D01*
X28999604Y-41348455D01*
X28999500Y-41349283D01*
X28999500Y-41385738D01*
X28999499Y-41386178D01*
X28999185Y-41476246D01*
X28999147Y-41487000D01*
X28999413Y-41488188D01*
X28999500Y-41489800D01*
X28999500Y-44090917D01*
X28999493Y-44092237D01*
X28998559Y-44181407D01*
X29006595Y-44218574D01*
X29007615Y-44223292D01*
X29009675Y-44235870D01*
X29009993Y-44238704D01*
X29013577Y-44270650D01*
X29014454Y-44278472D01*
X29025350Y-44309759D01*
X29029511Y-44324564D01*
X29031978Y-44335973D01*
X29036511Y-44356942D01*
X29054630Y-44395799D01*
X29059414Y-44407582D01*
X29073515Y-44448073D01*
X29080081Y-44458580D01*
X29091070Y-44476167D01*
X29098408Y-44489682D01*
X29112409Y-44519707D01*
X29116728Y-44525274D01*
X29116728Y-44525275D01*
X29138674Y-44553567D01*
X29145969Y-44564024D01*
X29162357Y-44590250D01*
X29168684Y-44600375D01*
X29173646Y-44605372D01*
X29173647Y-44605373D01*
X29197003Y-44628893D01*
X29197585Y-44629515D01*
X29198099Y-44630177D01*
X29223959Y-44656037D01*
X29295230Y-44727807D01*
X29296257Y-44728459D01*
X29297465Y-44729543D01*
X29662595Y-45094673D01*
X29696621Y-45156985D01*
X29699500Y-45183768D01*
X29699500Y-47072011D01*
X29679498Y-47140132D01*
X29625842Y-47186625D01*
X29555568Y-47196729D01*
X29510501Y-47181131D01*
X29509392Y-47180491D01*
X29502841Y-47175464D01*
X29356762Y-47114956D01*
X29341928Y-47113003D01*
X29278381Y-47104637D01*
X29200000Y-47094318D01*
X29121619Y-47104637D01*
X29058073Y-47113003D01*
X29043238Y-47114956D01*
X28897159Y-47175464D01*
X28771718Y-47271718D01*
X28675464Y-47397159D01*
X28614956Y-47543238D01*
X28594318Y-47700000D01*
X28614956Y-47856762D01*
X28675464Y-48002841D01*
X28724461Y-48066695D01*
X28750017Y-48100000D01*
X28771718Y-48128282D01*
X28897159Y-48224536D01*
X29043238Y-48285044D01*
X29200000Y-48305682D01*
X29208188Y-48304604D01*
X29348574Y-48286122D01*
X29356762Y-48285044D01*
X29502841Y-48224536D01*
X29509392Y-48219509D01*
X29510501Y-48218869D01*
X29579497Y-48202132D01*
X29646588Y-48225353D01*
X29690475Y-48281161D01*
X29699500Y-48327989D01*
X29699500Y-60390917D01*
X29699493Y-60392237D01*
X29698559Y-60481407D01*
X29706797Y-60519509D01*
X29707615Y-60523292D01*
X29709675Y-60535870D01*
X29714454Y-60578472D01*
X29725350Y-60609759D01*
X29729511Y-60624564D01*
X29732911Y-60640289D01*
X29736511Y-60656942D01*
X29754630Y-60695799D01*
X29759414Y-60707582D01*
X29773515Y-60748073D01*
X29788334Y-60771788D01*
X29791070Y-60776167D01*
X29798407Y-60789680D01*
X29812409Y-60819707D01*
X29816728Y-60825274D01*
X29816728Y-60825275D01*
X29838674Y-60853567D01*
X29845969Y-60864024D01*
X29864950Y-60894400D01*
X29868684Y-60900375D01*
X29873646Y-60905372D01*
X29873647Y-60905373D01*
X29897003Y-60928893D01*
X29897585Y-60929515D01*
X29898099Y-60930177D01*
X29923959Y-60956037D01*
X29995230Y-61027807D01*
X29996257Y-61028459D01*
X29997465Y-61029543D01*
X30778329Y-61810407D01*
X30812355Y-61872719D01*
X30807290Y-61943534D01*
X30764743Y-62000370D01*
X30698223Y-62025181D01*
X30666662Y-62022583D01*
X30666548Y-62023280D01*
X30413260Y-61982029D01*
X30403973Y-61981217D01*
X30152053Y-61977919D01*
X30142742Y-61978489D01*
X29893097Y-62012464D01*
X29883978Y-62014402D01*
X29642098Y-62084904D01*
X29633367Y-62088167D01*
X29404558Y-62193651D01*
X29396406Y-62198170D01*
X29217353Y-62315562D01*
X29208216Y-62326303D01*
X29212789Y-62336079D01*
X30525115Y-63648405D01*
X30559141Y-63710717D01*
X30554076Y-63781532D01*
X30525115Y-63826595D01*
X29217270Y-65134440D01*
X29210612Y-65146633D01*
X29219325Y-65158153D01*
X29317018Y-65229784D01*
X29324928Y-65234727D01*
X29547890Y-65352033D01*
X29556453Y-65355756D01*
X29794304Y-65438818D01*
X29803313Y-65441232D01*
X30050842Y-65488227D01*
X30060098Y-65489281D01*
X30311857Y-65499173D01*
X30321171Y-65498847D01*
X30571615Y-65471420D01*
X30580791Y-65469719D01*
X30585836Y-65468391D01*
X30656805Y-65470392D01*
X30715425Y-65510444D01*
X30743086Y-65575831D01*
X30731006Y-65645792D01*
X30718076Y-65666682D01*
X30671542Y-65727656D01*
X30538306Y-65965568D01*
X30439920Y-66219879D01*
X30438916Y-66224211D01*
X30438915Y-66224214D01*
X30413597Y-66333443D01*
X30378349Y-66485516D01*
X30354820Y-66757178D01*
X30369804Y-67029446D01*
X30423001Y-67296885D01*
X30513350Y-67554161D01*
X30639048Y-67796141D01*
X30641631Y-67799756D01*
X30641635Y-67799762D01*
X30794999Y-68014374D01*
X30797587Y-68017995D01*
X30985805Y-68215297D01*
X30989301Y-68218053D01*
X30989302Y-68218054D01*
X31168180Y-68359070D01*
X31199944Y-68384111D01*
X31260912Y-68419524D01*
X31431880Y-68518831D01*
X31431886Y-68518834D01*
X31435734Y-68521069D01*
X31533472Y-68560657D01*
X31684337Y-68621764D01*
X31684340Y-68621765D01*
X31688468Y-68623437D01*
X31816411Y-68655218D01*
X31948780Y-68688099D01*
X31948785Y-68688100D01*
X31953105Y-68689173D01*
X32185664Y-68713000D01*
X32354458Y-68713000D01*
X32556998Y-68698659D01*
X32561353Y-68697721D01*
X32561356Y-68697721D01*
X32819222Y-68642204D01*
X32819224Y-68642204D01*
X32823569Y-68641268D01*
X33079395Y-68546889D01*
X33319370Y-68417406D01*
X33538706Y-68255401D01*
X33733028Y-68064108D01*
X33898458Y-67847344D01*
X34031694Y-67609432D01*
X34054698Y-67549971D01*
X34128473Y-67359276D01*
X34128475Y-67359270D01*
X34130080Y-67355121D01*
X34191651Y-67089484D01*
X34215180Y-66817822D01*
X34200196Y-66545554D01*
X34146999Y-66278115D01*
X34056650Y-66020839D01*
X33930952Y-65778859D01*
X33928369Y-65775244D01*
X33928365Y-65775238D01*
X33775001Y-65560626D01*
X33774998Y-65560622D01*
X33772413Y-65557005D01*
X33584195Y-65359703D01*
X33537280Y-65322718D01*
X33373551Y-65193644D01*
X33373549Y-65193642D01*
X33370056Y-65190889D01*
X33258966Y-65126363D01*
X33138120Y-65056169D01*
X33138114Y-65056166D01*
X33134266Y-65053931D01*
X32920891Y-64967505D01*
X32885663Y-64953236D01*
X32885660Y-64953235D01*
X32881532Y-64951563D01*
X32693312Y-64904809D01*
X32621220Y-64886901D01*
X32621215Y-64886900D01*
X32616895Y-64885827D01*
X32384336Y-64862000D01*
X32215542Y-64862000D01*
X32013002Y-64876341D01*
X32008647Y-64877279D01*
X32008644Y-64877279D01*
X31845164Y-64912475D01*
X31774359Y-64907258D01*
X31717615Y-64864589D01*
X31692947Y-64798016D01*
X31708187Y-64728675D01*
X31712674Y-64721134D01*
X31801765Y-64582627D01*
X31806212Y-64574436D01*
X31909691Y-64344722D01*
X31912882Y-64335955D01*
X31981269Y-64093476D01*
X31983129Y-64084334D01*
X32015116Y-63832896D01*
X32015597Y-63826608D01*
X32017847Y-63740660D01*
X32017696Y-63734351D01*
X31998912Y-63481574D01*
X31997536Y-63472368D01*
X31964235Y-63325204D01*
X31968709Y-63254349D01*
X32010781Y-63197161D01*
X32077092Y-63171796D01*
X32146590Y-63186309D01*
X32176223Y-63208301D01*
X32862595Y-63894673D01*
X32896621Y-63956985D01*
X32899500Y-63983768D01*
X32899500Y-64145155D01*
X32914454Y-64278472D01*
X32973515Y-64448073D01*
X33068684Y-64600375D01*
X33116027Y-64648049D01*
X33190267Y-64722810D01*
X33190271Y-64722813D01*
X33195230Y-64727807D01*
X33201176Y-64731581D01*
X33201178Y-64731582D01*
X33247111Y-64760732D01*
X33346864Y-64824037D01*
X33366890Y-64831168D01*
X33509414Y-64881919D01*
X33509419Y-64881920D01*
X33516049Y-64884281D01*
X33523035Y-64885114D01*
X33523039Y-64885115D01*
X33642498Y-64899359D01*
X33694376Y-64905545D01*
X33701379Y-64904809D01*
X33701380Y-64904809D01*
X33865975Y-64887510D01*
X33865979Y-64887509D01*
X33872983Y-64886773D01*
X33924727Y-64869158D01*
X34036323Y-64831168D01*
X34036326Y-64831167D01*
X34042993Y-64828897D01*
X34057036Y-64820258D01*
X34189955Y-64738485D01*
X34195955Y-64734794D01*
X34200986Y-64729868D01*
X34200989Y-64729865D01*
X34287607Y-64645042D01*
X34324268Y-64609141D01*
X34329918Y-64600375D01*
X34417735Y-64464109D01*
X34421554Y-64458183D01*
X34438753Y-64410931D01*
X34480570Y-64296039D01*
X34480571Y-64296036D01*
X34482978Y-64289422D01*
X34500500Y-64150717D01*
X34500500Y-63609083D01*
X34500507Y-63607763D01*
X34500976Y-63563018D01*
X34501441Y-63518593D01*
X34492384Y-63476704D01*
X34490324Y-63464126D01*
X34486331Y-63428524D01*
X34486330Y-63428522D01*
X34485546Y-63421528D01*
X34474650Y-63390241D01*
X34470489Y-63375436D01*
X34464978Y-63349944D01*
X34464977Y-63349942D01*
X34463489Y-63343058D01*
X34460513Y-63336676D01*
X34460511Y-63336670D01*
X34445379Y-63304219D01*
X34440583Y-63292408D01*
X34428803Y-63258580D01*
X34428799Y-63258571D01*
X34426485Y-63251927D01*
X34408925Y-63223824D01*
X34401594Y-63210323D01*
X34387590Y-63180292D01*
X34361323Y-63146429D01*
X34354029Y-63135973D01*
X34335049Y-63105599D01*
X34331316Y-63099625D01*
X34326353Y-63094627D01*
X34302997Y-63071107D01*
X34302415Y-63070485D01*
X34301901Y-63069823D01*
X34276041Y-63043963D01*
X34204770Y-62972193D01*
X34203743Y-62971541D01*
X34202535Y-62970457D01*
X32924953Y-61692875D01*
X32890927Y-61630563D01*
X32895992Y-61559748D01*
X32938539Y-61502912D01*
X33005059Y-61478101D01*
X33017696Y-61478031D01*
X33017696Y-61478000D01*
X34102304Y-61478000D01*
X34192168Y-61467125D01*
X34332531Y-61411552D01*
X34452779Y-61320279D01*
X34544052Y-61200031D01*
X34599625Y-61059668D01*
X34610500Y-60969804D01*
X34610500Y-60412762D01*
X35044520Y-60412762D01*
X35045036Y-60418906D01*
X35060630Y-60604604D01*
X35061759Y-60618053D01*
X35063458Y-60623978D01*
X35115310Y-60804806D01*
X35118544Y-60816086D01*
X35121359Y-60821563D01*
X35121360Y-60821566D01*
X35208032Y-60990212D01*
X35212712Y-60999318D01*
X35340677Y-61160770D01*
X35345370Y-61164764D01*
X35345371Y-61164765D01*
X35452844Y-61256231D01*
X35497564Y-61294291D01*
X35677398Y-61394797D01*
X35738693Y-61414713D01*
X35867471Y-61456556D01*
X35867475Y-61456557D01*
X35873329Y-61458459D01*
X36077894Y-61482851D01*
X36084029Y-61482379D01*
X36084031Y-61482379D01*
X36146865Y-61477544D01*
X36283300Y-61467046D01*
X36289230Y-61465390D01*
X36289232Y-61465390D01*
X36443323Y-61422367D01*
X36481725Y-61411645D01*
X36487214Y-61408872D01*
X36487220Y-61408870D01*
X36660116Y-61321533D01*
X36665610Y-61318758D01*
X36827951Y-61191924D01*
X36855303Y-61160237D01*
X36958540Y-61040634D01*
X36958540Y-61040633D01*
X36962564Y-61035972D01*
X36966439Y-61029152D01*
X37023937Y-60927936D01*
X37064323Y-60856844D01*
X37129351Y-60661363D01*
X37155171Y-60456974D01*
X37155583Y-60427500D01*
X37154138Y-60412762D01*
X37584520Y-60412762D01*
X37585036Y-60418906D01*
X37600630Y-60604604D01*
X37601759Y-60618053D01*
X37603458Y-60623978D01*
X37655310Y-60804806D01*
X37658544Y-60816086D01*
X37661359Y-60821563D01*
X37661360Y-60821566D01*
X37748032Y-60990212D01*
X37752712Y-60999318D01*
X37880677Y-61160770D01*
X37885370Y-61164764D01*
X37885371Y-61164765D01*
X37992844Y-61256231D01*
X38037564Y-61294291D01*
X38217398Y-61394797D01*
X38278693Y-61414713D01*
X38407471Y-61456556D01*
X38407475Y-61456557D01*
X38413329Y-61458459D01*
X38617894Y-61482851D01*
X38624029Y-61482379D01*
X38624031Y-61482379D01*
X38686865Y-61477544D01*
X38823300Y-61467046D01*
X38829230Y-61465390D01*
X38829232Y-61465390D01*
X38983323Y-61422367D01*
X39021725Y-61411645D01*
X39027214Y-61408872D01*
X39027220Y-61408870D01*
X39200116Y-61321533D01*
X39205610Y-61318758D01*
X39367951Y-61191924D01*
X39395303Y-61160237D01*
X39498540Y-61040634D01*
X39498540Y-61040633D01*
X39502564Y-61035972D01*
X39506439Y-61029152D01*
X39563937Y-60927936D01*
X39604323Y-60856844D01*
X39669351Y-60661363D01*
X39695171Y-60456974D01*
X39695583Y-60427500D01*
X39694138Y-60412762D01*
X40124520Y-60412762D01*
X40125036Y-60418906D01*
X40140630Y-60604604D01*
X40141759Y-60618053D01*
X40143458Y-60623978D01*
X40195310Y-60804806D01*
X40198544Y-60816086D01*
X40201359Y-60821563D01*
X40201360Y-60821566D01*
X40288032Y-60990212D01*
X40292712Y-60999318D01*
X40420677Y-61160770D01*
X40425370Y-61164764D01*
X40425371Y-61164765D01*
X40532844Y-61256231D01*
X40577564Y-61294291D01*
X40757398Y-61394797D01*
X40818693Y-61414713D01*
X40947471Y-61456556D01*
X40947475Y-61456557D01*
X40953329Y-61458459D01*
X41157894Y-61482851D01*
X41164029Y-61482379D01*
X41164031Y-61482379D01*
X41226865Y-61477544D01*
X41363300Y-61467046D01*
X41369230Y-61465390D01*
X41369232Y-61465390D01*
X41523323Y-61422367D01*
X41561725Y-61411645D01*
X41567214Y-61408872D01*
X41567220Y-61408870D01*
X41740116Y-61321533D01*
X41745610Y-61318758D01*
X41907951Y-61191924D01*
X41935303Y-61160237D01*
X42038540Y-61040634D01*
X42038540Y-61040633D01*
X42042564Y-61035972D01*
X42046439Y-61029152D01*
X42103937Y-60927936D01*
X42144323Y-60856844D01*
X42209351Y-60661363D01*
X42235171Y-60456974D01*
X42235583Y-60427500D01*
X42215480Y-60222470D01*
X42155935Y-60025249D01*
X42059218Y-59843349D01*
X41939988Y-59697159D01*
X41932906Y-59688475D01*
X41932903Y-59688472D01*
X41929011Y-59683700D01*
X41911786Y-59669450D01*
X41775025Y-59556311D01*
X41775021Y-59556309D01*
X41770275Y-59552382D01*
X41589055Y-59454397D01*
X41392254Y-59393477D01*
X41386129Y-59392833D01*
X41386128Y-59392833D01*
X41193498Y-59372587D01*
X41193496Y-59372587D01*
X41187369Y-59371943D01*
X41110252Y-59378961D01*
X40988342Y-59390055D01*
X40988339Y-59390056D01*
X40982203Y-59390614D01*
X40784572Y-59448780D01*
X40602002Y-59544226D01*
X40597201Y-59548086D01*
X40597198Y-59548088D01*
X40446254Y-59669450D01*
X40441447Y-59673315D01*
X40309024Y-59831130D01*
X40306056Y-59836528D01*
X40306053Y-59836533D01*
X40228327Y-59977917D01*
X40209776Y-60011662D01*
X40207913Y-60017535D01*
X40155525Y-60182685D01*
X40147484Y-60208032D01*
X40146798Y-60214149D01*
X40146797Y-60214153D01*
X40131506Y-60350481D01*
X40124520Y-60412762D01*
X39694138Y-60412762D01*
X39675480Y-60222470D01*
X39615935Y-60025249D01*
X39519218Y-59843349D01*
X39399988Y-59697159D01*
X39392906Y-59688475D01*
X39392903Y-59688472D01*
X39389011Y-59683700D01*
X39371786Y-59669450D01*
X39235025Y-59556311D01*
X39235021Y-59556309D01*
X39230275Y-59552382D01*
X39049055Y-59454397D01*
X38852254Y-59393477D01*
X38846129Y-59392833D01*
X38846128Y-59392833D01*
X38653498Y-59372587D01*
X38653496Y-59372587D01*
X38647369Y-59371943D01*
X38570252Y-59378961D01*
X38448342Y-59390055D01*
X38448339Y-59390056D01*
X38442203Y-59390614D01*
X38244572Y-59448780D01*
X38062002Y-59544226D01*
X38057201Y-59548086D01*
X38057198Y-59548088D01*
X37906254Y-59669450D01*
X37901447Y-59673315D01*
X37769024Y-59831130D01*
X37766056Y-59836528D01*
X37766053Y-59836533D01*
X37688327Y-59977917D01*
X37669776Y-60011662D01*
X37667913Y-60017535D01*
X37615525Y-60182685D01*
X37607484Y-60208032D01*
X37606798Y-60214149D01*
X37606797Y-60214153D01*
X37591506Y-60350481D01*
X37584520Y-60412762D01*
X37154138Y-60412762D01*
X37135480Y-60222470D01*
X37075935Y-60025249D01*
X36979218Y-59843349D01*
X36859988Y-59697159D01*
X36852906Y-59688475D01*
X36852903Y-59688472D01*
X36849011Y-59683700D01*
X36831786Y-59669450D01*
X36695025Y-59556311D01*
X36695021Y-59556309D01*
X36690275Y-59552382D01*
X36509055Y-59454397D01*
X36312254Y-59393477D01*
X36306129Y-59392833D01*
X36306128Y-59392833D01*
X36113498Y-59372587D01*
X36113496Y-59372587D01*
X36107369Y-59371943D01*
X36030252Y-59378961D01*
X35908342Y-59390055D01*
X35908339Y-59390056D01*
X35902203Y-59390614D01*
X35704572Y-59448780D01*
X35522002Y-59544226D01*
X35517201Y-59548086D01*
X35517198Y-59548088D01*
X35366254Y-59669450D01*
X35361447Y-59673315D01*
X35229024Y-59831130D01*
X35226056Y-59836528D01*
X35226053Y-59836533D01*
X35148327Y-59977917D01*
X35129776Y-60011662D01*
X35127913Y-60017535D01*
X35075525Y-60182685D01*
X35067484Y-60208032D01*
X35066798Y-60214149D01*
X35066797Y-60214153D01*
X35051506Y-60350481D01*
X35044520Y-60412762D01*
X34610500Y-60412762D01*
X34610500Y-59885196D01*
X34599625Y-59795332D01*
X34544052Y-59654969D01*
X34452779Y-59534721D01*
X34332531Y-59443448D01*
X34192168Y-59387875D01*
X34102304Y-59377000D01*
X33017696Y-59377000D01*
X32927832Y-59387875D01*
X32787469Y-59443448D01*
X32667221Y-59534721D01*
X32575948Y-59654969D01*
X32520375Y-59795332D01*
X32509500Y-59885196D01*
X32509500Y-60969804D01*
X32508588Y-60969804D01*
X32493626Y-61035068D01*
X32442867Y-61084707D01*
X32373329Y-61099023D01*
X32307089Y-61073471D01*
X32294625Y-61062547D01*
X31337405Y-60105327D01*
X31303379Y-60043015D01*
X31300500Y-60016232D01*
X31300500Y-57872762D01*
X33764520Y-57872762D01*
X33765036Y-57878906D01*
X33778653Y-58041061D01*
X33781759Y-58078053D01*
X33783458Y-58083978D01*
X33834350Y-58261459D01*
X33838544Y-58276086D01*
X33841359Y-58281563D01*
X33841360Y-58281566D01*
X33882964Y-58362518D01*
X33932712Y-58459318D01*
X34060677Y-58620770D01*
X34217564Y-58754291D01*
X34397398Y-58854797D01*
X34492238Y-58885613D01*
X34587471Y-58916556D01*
X34587475Y-58916557D01*
X34593329Y-58918459D01*
X34797894Y-58942851D01*
X34804029Y-58942379D01*
X34804031Y-58942379D01*
X34860039Y-58938069D01*
X35003300Y-58927046D01*
X35009230Y-58925390D01*
X35009232Y-58925390D01*
X35195797Y-58873300D01*
X35195796Y-58873300D01*
X35201725Y-58871645D01*
X35207214Y-58868872D01*
X35207220Y-58868870D01*
X35380116Y-58781533D01*
X35385610Y-58778758D01*
X35547951Y-58651924D01*
X35667075Y-58513917D01*
X35678540Y-58500634D01*
X35678540Y-58500633D01*
X35682564Y-58495972D01*
X35703387Y-58459318D01*
X35747665Y-58381373D01*
X35784323Y-58316844D01*
X35849351Y-58121363D01*
X35875171Y-57916974D01*
X35875583Y-57887500D01*
X35874138Y-57872762D01*
X36304520Y-57872762D01*
X36305036Y-57878906D01*
X36318653Y-58041061D01*
X36321759Y-58078053D01*
X36323458Y-58083978D01*
X36374350Y-58261459D01*
X36378544Y-58276086D01*
X36381359Y-58281563D01*
X36381360Y-58281566D01*
X36422964Y-58362518D01*
X36472712Y-58459318D01*
X36600677Y-58620770D01*
X36757564Y-58754291D01*
X36937398Y-58854797D01*
X37032238Y-58885613D01*
X37127471Y-58916556D01*
X37127475Y-58916557D01*
X37133329Y-58918459D01*
X37337894Y-58942851D01*
X37344029Y-58942379D01*
X37344031Y-58942379D01*
X37400039Y-58938069D01*
X37543300Y-58927046D01*
X37549230Y-58925390D01*
X37549232Y-58925390D01*
X37735797Y-58873300D01*
X37735796Y-58873300D01*
X37741725Y-58871645D01*
X37747214Y-58868872D01*
X37747220Y-58868870D01*
X37920116Y-58781533D01*
X37925610Y-58778758D01*
X38087951Y-58651924D01*
X38207075Y-58513917D01*
X38218540Y-58500634D01*
X38218540Y-58500633D01*
X38222564Y-58495972D01*
X38243387Y-58459318D01*
X38287665Y-58381373D01*
X38324323Y-58316844D01*
X38389351Y-58121363D01*
X38415171Y-57916974D01*
X38415583Y-57887500D01*
X38395480Y-57682470D01*
X38364239Y-57578995D01*
X38363698Y-57508001D01*
X38395766Y-57453482D01*
X39030347Y-56818901D01*
X39092659Y-56784875D01*
X39143102Y-56786078D01*
X39143238Y-56785044D01*
X39238930Y-56797642D01*
X39303857Y-56826364D01*
X39342949Y-56885629D01*
X39343794Y-56956621D01*
X39301436Y-57020761D01*
X39189910Y-57110430D01*
X39161447Y-57133315D01*
X39029024Y-57291130D01*
X39026056Y-57296528D01*
X39026053Y-57296533D01*
X38935690Y-57460905D01*
X38929776Y-57471662D01*
X38867484Y-57668032D01*
X38866798Y-57674149D01*
X38866797Y-57674153D01*
X38860663Y-57728843D01*
X38844520Y-57872762D01*
X38845036Y-57878906D01*
X38858653Y-58041061D01*
X38861759Y-58078053D01*
X38863458Y-58083978D01*
X38914350Y-58261459D01*
X38918544Y-58276086D01*
X38921359Y-58281563D01*
X38921360Y-58281566D01*
X38962964Y-58362518D01*
X39012712Y-58459318D01*
X39140677Y-58620770D01*
X39297564Y-58754291D01*
X39477398Y-58854797D01*
X39572238Y-58885613D01*
X39667471Y-58916556D01*
X39667475Y-58916557D01*
X39673329Y-58918459D01*
X39877894Y-58942851D01*
X39884029Y-58942379D01*
X39884031Y-58942379D01*
X39940039Y-58938069D01*
X39945342Y-58937661D01*
X41754393Y-58937661D01*
X41763687Y-58949675D01*
X41804088Y-58977964D01*
X41813584Y-58983447D01*
X42003113Y-59071826D01*
X42013405Y-59075572D01*
X42215401Y-59129696D01*
X42226196Y-59131599D01*
X42434525Y-59149826D01*
X42445475Y-59149826D01*
X42653804Y-59131599D01*
X42664599Y-59129696D01*
X42866595Y-59075572D01*
X42876887Y-59071826D01*
X43066416Y-58983447D01*
X43075912Y-58977964D01*
X43117148Y-58949090D01*
X43125523Y-58938612D01*
X43118457Y-58925168D01*
X42452811Y-58259521D01*
X42438868Y-58251908D01*
X42437034Y-58252039D01*
X42430420Y-58256290D01*
X41760820Y-58925891D01*
X41754393Y-58937661D01*
X39945342Y-58937661D01*
X40083300Y-58927046D01*
X40089230Y-58925390D01*
X40089232Y-58925390D01*
X40275797Y-58873300D01*
X40275796Y-58873300D01*
X40281725Y-58871645D01*
X40287214Y-58868872D01*
X40287220Y-58868870D01*
X40460116Y-58781533D01*
X40465610Y-58778758D01*
X40627951Y-58651924D01*
X40747075Y-58513917D01*
X40758540Y-58500634D01*
X40758540Y-58500633D01*
X40762564Y-58495972D01*
X40783387Y-58459318D01*
X40827665Y-58381373D01*
X40864323Y-58316844D01*
X40929351Y-58121363D01*
X40940103Y-58036251D01*
X40968485Y-57971175D01*
X41027544Y-57931773D01*
X41098530Y-57930556D01*
X41158905Y-57967911D01*
X41189501Y-58031977D01*
X41190630Y-58041061D01*
X41195901Y-58101304D01*
X41197804Y-58112099D01*
X41251928Y-58314095D01*
X41255674Y-58324387D01*
X41344054Y-58513917D01*
X41349534Y-58523407D01*
X41378411Y-58564649D01*
X41388887Y-58573023D01*
X41402334Y-58565955D01*
X42067979Y-57900311D01*
X42075592Y-57886368D01*
X42075461Y-57884534D01*
X42071210Y-57877920D01*
X41401609Y-57208320D01*
X41389839Y-57201893D01*
X41377824Y-57211189D01*
X41349534Y-57251593D01*
X41344054Y-57261083D01*
X41255674Y-57450613D01*
X41251928Y-57460905D01*
X41197804Y-57662901D01*
X41195900Y-57673697D01*
X41191076Y-57728843D01*
X41165213Y-57794961D01*
X41107709Y-57836601D01*
X41036822Y-57840542D01*
X40975058Y-57805533D01*
X40942025Y-57742689D01*
X40940156Y-57730158D01*
X40936081Y-57688602D01*
X40935480Y-57682470D01*
X40875935Y-57485249D01*
X40779218Y-57303349D01*
X40654204Y-57150067D01*
X40652906Y-57148475D01*
X40652903Y-57148472D01*
X40649011Y-57143700D01*
X40631786Y-57129450D01*
X40495025Y-57016311D01*
X40495021Y-57016309D01*
X40490275Y-57012382D01*
X40309055Y-56914397D01*
X40112254Y-56853477D01*
X40106129Y-56852833D01*
X40106128Y-56852833D01*
X39913498Y-56832587D01*
X39913496Y-56832587D01*
X39907369Y-56831943D01*
X39847169Y-56837421D01*
X39831262Y-56838869D01*
X39761609Y-56825123D01*
X39710445Y-56775902D01*
X39694014Y-56706833D01*
X39717532Y-56639845D01*
X39725627Y-56630319D01*
X39728282Y-56628282D01*
X39824536Y-56502841D01*
X39885044Y-56356762D01*
X39905682Y-56200000D01*
X39885044Y-56043238D01*
X39824536Y-55897159D01*
X39728282Y-55771718D01*
X39602841Y-55675464D01*
X39456762Y-55614956D01*
X39300000Y-55594318D01*
X39143238Y-55614956D01*
X38997159Y-55675464D01*
X38958720Y-55704959D01*
X38888917Y-55758521D01*
X38871718Y-55771718D01*
X38838304Y-55815265D01*
X38809651Y-55839088D01*
X38811141Y-55841139D01*
X38803115Y-55846971D01*
X38794280Y-55851472D01*
X37794013Y-56851739D01*
X37731701Y-56885765D01*
X37667660Y-56883009D01*
X37578143Y-56855299D01*
X37578134Y-56855297D01*
X37572254Y-56853477D01*
X37566129Y-56852833D01*
X37566128Y-56852833D01*
X37373498Y-56832587D01*
X37373496Y-56832587D01*
X37367369Y-56831943D01*
X37291263Y-56838869D01*
X37168342Y-56850055D01*
X37168339Y-56850056D01*
X37162203Y-56850614D01*
X36964572Y-56908780D01*
X36782002Y-57004226D01*
X36777201Y-57008086D01*
X36777198Y-57008088D01*
X36649910Y-57110430D01*
X36621447Y-57133315D01*
X36489024Y-57291130D01*
X36486056Y-57296528D01*
X36486053Y-57296533D01*
X36395690Y-57460905D01*
X36389776Y-57471662D01*
X36327484Y-57668032D01*
X36326798Y-57674149D01*
X36326797Y-57674153D01*
X36320663Y-57728843D01*
X36304520Y-57872762D01*
X35874138Y-57872762D01*
X35855480Y-57682470D01*
X35795935Y-57485249D01*
X35699218Y-57303349D01*
X35574204Y-57150067D01*
X35572906Y-57148475D01*
X35572903Y-57148472D01*
X35569011Y-57143700D01*
X35551786Y-57129450D01*
X35415025Y-57016311D01*
X35415021Y-57016309D01*
X35410275Y-57012382D01*
X35404854Y-57009451D01*
X35404847Y-57009446D01*
X35381887Y-56997032D01*
X35331477Y-56947038D01*
X35316099Y-56877727D01*
X35340634Y-56811105D01*
X35393596Y-56769787D01*
X35420877Y-56758487D01*
X35502841Y-56724536D01*
X35628282Y-56628282D01*
X35724536Y-56502841D01*
X35785044Y-56356762D01*
X35805682Y-56200000D01*
X35785044Y-56043238D01*
X35724536Y-55897159D01*
X35628282Y-55771718D01*
X35502841Y-55675464D01*
X35356762Y-55614956D01*
X35200000Y-55594318D01*
X35043238Y-55614956D01*
X34897159Y-55675464D01*
X34771718Y-55771718D01*
X34675464Y-55897159D01*
X34614956Y-56043238D01*
X34594318Y-56200000D01*
X34614956Y-56356762D01*
X34675464Y-56502841D01*
X34771718Y-56628282D01*
X34775113Y-56630887D01*
X34808257Y-56691584D01*
X34803192Y-56762399D01*
X34760645Y-56819235D01*
X34696560Y-56843847D01*
X34622203Y-56850614D01*
X34424572Y-56908780D01*
X34242002Y-57004226D01*
X34237201Y-57008086D01*
X34237198Y-57008088D01*
X34109910Y-57110430D01*
X34081447Y-57133315D01*
X33949024Y-57291130D01*
X33946056Y-57296528D01*
X33946053Y-57296533D01*
X33855690Y-57460905D01*
X33849776Y-57471662D01*
X33787484Y-57668032D01*
X33786798Y-57674149D01*
X33786797Y-57674153D01*
X33780663Y-57728843D01*
X33764520Y-57872762D01*
X31300500Y-57872762D01*
X31300500Y-52846008D01*
X31320502Y-52777887D01*
X31374158Y-52731394D01*
X31444432Y-52721290D01*
X31509012Y-52750784D01*
X31526461Y-52769302D01*
X31571718Y-52828282D01*
X31697159Y-52924536D01*
X31843238Y-52985044D01*
X32000000Y-53005682D01*
X32008188Y-53004604D01*
X32148574Y-52986122D01*
X32156762Y-52985044D01*
X32302841Y-52924536D01*
X32428282Y-52828282D01*
X32436083Y-52818116D01*
X32463016Y-52783017D01*
X32520355Y-52741150D01*
X32591226Y-52736929D01*
X32652073Y-52770627D01*
X33068227Y-53186781D01*
X33077061Y-53191282D01*
X33077062Y-53191283D01*
X33087828Y-53196769D01*
X33104685Y-53207099D01*
X33114454Y-53214197D01*
X33114457Y-53214198D01*
X33122479Y-53220027D01*
X33143403Y-53226826D01*
X33161663Y-53234390D01*
X33172428Y-53239875D01*
X33172432Y-53239876D01*
X33181265Y-53244377D01*
X33191056Y-53245928D01*
X33191057Y-53245928D01*
X33202991Y-53247818D01*
X33222216Y-53252434D01*
X33233701Y-53256166D01*
X33233705Y-53256167D01*
X33243136Y-53259231D01*
X34645630Y-53259231D01*
X34713751Y-53279233D01*
X34734725Y-53296136D01*
X35442143Y-54003554D01*
X35442147Y-54003557D01*
X35464710Y-54026120D01*
X35473549Y-54030624D01*
X35473551Y-54030625D01*
X35484310Y-54036107D01*
X35501166Y-54046435D01*
X35518963Y-54059366D01*
X35539884Y-54066164D01*
X35558144Y-54073728D01*
X35568911Y-54079214D01*
X35568915Y-54079215D01*
X35577748Y-54083716D01*
X35587539Y-54085267D01*
X35587540Y-54085267D01*
X35599474Y-54087157D01*
X35618699Y-54091773D01*
X35630184Y-54095505D01*
X35630188Y-54095506D01*
X35639619Y-54098570D01*
X36231519Y-54098570D01*
X40777161Y-54098569D01*
X40845282Y-54118571D01*
X40891775Y-54172227D01*
X40902083Y-54241014D01*
X40895396Y-54291810D01*
X40894318Y-54300000D01*
X40914956Y-54456762D01*
X40975464Y-54602841D01*
X40980492Y-54609394D01*
X40980494Y-54609397D01*
X41048462Y-54697975D01*
X41074063Y-54764195D01*
X41074500Y-54774679D01*
X41074500Y-55367393D01*
X41081914Y-55390210D01*
X41086528Y-55409429D01*
X41090281Y-55433126D01*
X41094784Y-55441963D01*
X41094784Y-55441964D01*
X41101172Y-55454502D01*
X41108736Y-55472763D01*
X41113085Y-55486147D01*
X41113087Y-55486150D01*
X41116151Y-55495581D01*
X41121980Y-55503604D01*
X41130253Y-55514991D01*
X41140577Y-55531837D01*
X41151472Y-55553220D01*
X42046780Y-56448528D01*
X42065528Y-56458081D01*
X42117140Y-56506826D01*
X42134206Y-56575741D01*
X42111305Y-56642943D01*
X42055708Y-56687095D01*
X42040933Y-56692052D01*
X42013405Y-56699428D01*
X42003113Y-56703174D01*
X41813583Y-56791554D01*
X41804093Y-56797034D01*
X41762851Y-56825911D01*
X41754477Y-56836387D01*
X41761545Y-56849834D01*
X42440000Y-57528290D01*
X43437596Y-58525885D01*
X43471621Y-58588197D01*
X43474500Y-58614980D01*
X43474500Y-60671562D01*
X43454498Y-60739683D01*
X43437595Y-60760657D01*
X40851472Y-63346780D01*
X40840577Y-63368163D01*
X40830253Y-63385009D01*
X40816151Y-63404419D01*
X40813087Y-63413850D01*
X40813085Y-63413853D01*
X40808736Y-63427237D01*
X40801172Y-63445498D01*
X40790281Y-63466874D01*
X40787953Y-63481574D01*
X40786528Y-63490570D01*
X40781914Y-63509790D01*
X40774500Y-63532607D01*
X40774500Y-68767393D01*
X40781914Y-68790210D01*
X40786528Y-68809429D01*
X40790281Y-68833126D01*
X40794784Y-68841963D01*
X40794784Y-68841964D01*
X40801172Y-68854502D01*
X40808736Y-68872763D01*
X40813085Y-68886147D01*
X40813087Y-68886150D01*
X40816151Y-68895581D01*
X40821980Y-68903604D01*
X40830253Y-68914991D01*
X40840577Y-68931837D01*
X40851472Y-68953220D01*
X41946780Y-70048528D01*
X41968154Y-70059418D01*
X41985006Y-70069744D01*
X42004420Y-70083850D01*
X42013849Y-70086914D01*
X42013852Y-70086915D01*
X42027239Y-70091265D01*
X42045503Y-70098830D01*
X42066874Y-70109719D01*
X42076666Y-70111270D01*
X42076669Y-70111271D01*
X42090569Y-70113473D01*
X42109788Y-70118087D01*
X42123173Y-70122436D01*
X42123180Y-70122437D01*
X42132607Y-70125500D01*
X43471562Y-70125500D01*
X43539683Y-70145502D01*
X43560657Y-70162405D01*
X44033886Y-70635634D01*
X44067912Y-70697946D01*
X44062847Y-70768761D01*
X44023743Y-70822926D01*
X43891254Y-70929450D01*
X43886447Y-70933315D01*
X43754024Y-71091130D01*
X43751056Y-71096528D01*
X43751053Y-71096533D01*
X43666348Y-71250613D01*
X43654776Y-71271662D01*
X43592484Y-71468032D01*
X43591798Y-71474149D01*
X43591797Y-71474153D01*
X43578742Y-71590543D01*
X43569520Y-71672762D01*
X43570036Y-71678906D01*
X43584844Y-71855243D01*
X43586759Y-71878053D01*
X43588458Y-71883978D01*
X43634774Y-72045500D01*
X43643544Y-72076086D01*
X43646359Y-72081563D01*
X43646360Y-72081566D01*
X43667247Y-72122207D01*
X43737712Y-72259318D01*
X43865677Y-72420770D01*
X43870370Y-72424764D01*
X43870371Y-72424765D01*
X43932389Y-72477546D01*
X43971302Y-72536929D01*
X43971933Y-72607922D01*
X43934082Y-72667987D01*
X43869765Y-72698053D01*
X43850726Y-72699500D01*
X42861999Y-72699500D01*
X42793878Y-72679498D01*
X42747385Y-72625842D01*
X42737281Y-72555568D01*
X42766775Y-72490988D01*
X42784426Y-72474210D01*
X42808101Y-72455713D01*
X42812951Y-72451924D01*
X42947564Y-72295972D01*
X42968387Y-72259318D01*
X43046276Y-72122207D01*
X43049323Y-72116844D01*
X43114351Y-71921363D01*
X43140171Y-71716974D01*
X43140390Y-71701306D01*
X43140534Y-71691022D01*
X43140534Y-71691018D01*
X43140583Y-71687500D01*
X43120480Y-71482470D01*
X43060935Y-71285249D01*
X42964218Y-71103349D01*
X42881473Y-71001894D01*
X42837906Y-70948475D01*
X42837903Y-70948472D01*
X42834011Y-70943700D01*
X42816786Y-70929450D01*
X42680025Y-70816311D01*
X42680021Y-70816309D01*
X42675275Y-70812382D01*
X42538091Y-70738207D01*
X42499474Y-70717327D01*
X42494055Y-70714397D01*
X42297254Y-70653477D01*
X42291129Y-70652833D01*
X42291128Y-70652833D01*
X42098498Y-70632587D01*
X42098496Y-70632587D01*
X42092369Y-70631943D01*
X42005529Y-70639846D01*
X41893342Y-70650055D01*
X41893339Y-70650056D01*
X41887203Y-70650614D01*
X41689572Y-70708780D01*
X41507002Y-70804226D01*
X41502201Y-70808086D01*
X41502198Y-70808088D01*
X41351254Y-70929450D01*
X41346447Y-70933315D01*
X41214024Y-71091130D01*
X41211056Y-71096528D01*
X41211053Y-71096533D01*
X41126348Y-71250613D01*
X41114776Y-71271662D01*
X41052484Y-71468032D01*
X41051798Y-71474149D01*
X41051797Y-71474153D01*
X41038742Y-71590543D01*
X41029520Y-71672762D01*
X41030036Y-71678906D01*
X41044844Y-71855243D01*
X41046759Y-71878053D01*
X41048458Y-71883978D01*
X41094774Y-72045500D01*
X41103544Y-72076086D01*
X41106359Y-72081563D01*
X41106360Y-72081566D01*
X41127247Y-72122207D01*
X41197712Y-72259318D01*
X41325677Y-72420770D01*
X41330370Y-72424764D01*
X41330371Y-72424765D01*
X41392389Y-72477546D01*
X41431302Y-72536929D01*
X41431933Y-72607922D01*
X41394082Y-72667987D01*
X41329765Y-72698053D01*
X41310726Y-72699500D01*
X34691999Y-72699500D01*
X34623878Y-72679498D01*
X34577385Y-72625842D01*
X34567281Y-72555568D01*
X34596775Y-72490988D01*
X34614426Y-72474210D01*
X34638101Y-72455713D01*
X34642951Y-72451924D01*
X34777564Y-72295972D01*
X34798387Y-72259318D01*
X34876276Y-72122207D01*
X34879323Y-72116844D01*
X34944351Y-71921363D01*
X34970171Y-71716974D01*
X34970390Y-71701306D01*
X34970534Y-71691022D01*
X34970534Y-71691018D01*
X34970583Y-71687500D01*
X34950480Y-71482470D01*
X34890935Y-71285249D01*
X34794218Y-71103349D01*
X34711473Y-71001894D01*
X34667906Y-70948475D01*
X34667903Y-70948472D01*
X34664011Y-70943700D01*
X34646786Y-70929450D01*
X34510025Y-70816311D01*
X34510021Y-70816309D01*
X34505275Y-70812382D01*
X34368091Y-70738207D01*
X34329474Y-70717327D01*
X34324055Y-70714397D01*
X34127254Y-70653477D01*
X34121129Y-70652833D01*
X34121128Y-70652833D01*
X33928498Y-70632587D01*
X33928496Y-70632587D01*
X33922369Y-70631943D01*
X33835529Y-70639846D01*
X33723342Y-70650055D01*
X33723339Y-70650056D01*
X33717203Y-70650614D01*
X33519572Y-70708780D01*
X33337002Y-70804226D01*
X33332201Y-70808086D01*
X33332198Y-70808088D01*
X33181254Y-70929450D01*
X33176447Y-70933315D01*
X33044024Y-71091130D01*
X33041056Y-71096528D01*
X33041053Y-71096533D01*
X32956348Y-71250613D01*
X32944776Y-71271662D01*
X32882484Y-71468032D01*
X32881798Y-71474149D01*
X32881797Y-71474153D01*
X32874949Y-71535208D01*
X32847478Y-71600675D01*
X32788974Y-71640897D01*
X32718012Y-71643104D01*
X32657121Y-71606596D01*
X32625634Y-71542964D01*
X32624213Y-71532145D01*
X32619099Y-71473696D01*
X32617196Y-71462901D01*
X32563072Y-71260905D01*
X32559326Y-71250613D01*
X32470946Y-71061083D01*
X32465466Y-71051593D01*
X32436589Y-71010351D01*
X32426113Y-71001977D01*
X32412666Y-71009045D01*
X31734210Y-71687500D01*
X31464095Y-71957616D01*
X31401783Y-71991641D01*
X31330967Y-71986576D01*
X31285905Y-71957615D01*
X31015790Y-71687500D01*
X30336613Y-71008324D01*
X30324839Y-71001894D01*
X30312824Y-71011190D01*
X30284534Y-71051593D01*
X30279054Y-71061083D01*
X30190674Y-71250613D01*
X30186928Y-71260905D01*
X30132804Y-71462901D01*
X30130901Y-71473696D01*
X30112674Y-71682025D01*
X30112674Y-71692975D01*
X30130901Y-71901304D01*
X30132804Y-71912099D01*
X30186928Y-72114095D01*
X30190674Y-72124387D01*
X30279056Y-72313921D01*
X30284534Y-72323407D01*
X30407635Y-72499215D01*
X30406053Y-72500323D01*
X30431098Y-72557542D01*
X30419885Y-72627647D01*
X30372550Y-72680561D01*
X30306113Y-72699500D01*
X28426500Y-72699500D01*
X28358379Y-72679498D01*
X28311886Y-72625842D01*
X28300500Y-72573500D01*
X28300500Y-70636387D01*
X30689477Y-70636387D01*
X30696545Y-70649834D01*
X31362189Y-71315479D01*
X31376132Y-71323092D01*
X31377966Y-71322961D01*
X31384580Y-71318710D01*
X32054180Y-70649109D01*
X32060607Y-70637339D01*
X32051313Y-70625325D01*
X32010912Y-70597036D01*
X32001416Y-70591553D01*
X31811887Y-70503174D01*
X31801595Y-70499428D01*
X31599599Y-70445304D01*
X31588804Y-70443401D01*
X31380475Y-70425174D01*
X31369525Y-70425174D01*
X31161196Y-70443401D01*
X31150401Y-70445304D01*
X30948405Y-70499428D01*
X30938113Y-70503174D01*
X30748583Y-70591554D01*
X30739093Y-70597034D01*
X30697851Y-70625911D01*
X30689477Y-70636387D01*
X28300500Y-70636387D01*
X28300500Y-64202497D01*
X28320502Y-64134376D01*
X28374158Y-64087883D01*
X28444432Y-64077779D01*
X28509012Y-64107273D01*
X28547396Y-64166999D01*
X28550079Y-64177916D01*
X28555274Y-64204035D01*
X28557768Y-64213028D01*
X28642900Y-64450139D01*
X28646700Y-64458674D01*
X28765946Y-64680601D01*
X28770957Y-64688468D01*
X28834446Y-64773490D01*
X28845704Y-64781939D01*
X28858123Y-64775167D01*
X29882978Y-63750312D01*
X29890592Y-63736368D01*
X29890461Y-63734535D01*
X29886210Y-63727920D01*
X28856321Y-62698031D01*
X28843013Y-62690764D01*
X28832974Y-62697886D01*
X28822761Y-62710166D01*
X28817346Y-62717758D01*
X28686646Y-62933146D01*
X28682408Y-62941463D01*
X28584981Y-63173799D01*
X28582020Y-63182649D01*
X28548623Y-63314151D01*
X28512468Y-63375252D01*
X28449019Y-63407107D01*
X28378420Y-63399602D01*
X28323087Y-63355120D01*
X28300500Y-63283136D01*
X28300500Y-33585768D01*
X28677425Y-33585768D01*
X28709138Y-33693521D01*
X28713731Y-33704889D01*
X28799607Y-33869154D01*
X28806321Y-33879415D01*
X28922468Y-34023873D01*
X28931046Y-34032632D01*
X29073039Y-34151778D01*
X29083159Y-34158708D01*
X29245585Y-34248002D01*
X29256858Y-34252834D01*
X29433538Y-34308880D01*
X29445532Y-34311430D01*
X29589761Y-34327607D01*
X29596785Y-34328000D01*
X29677885Y-34328000D01*
X29693124Y-34323525D01*
X29694329Y-34322135D01*
X29696000Y-34314452D01*
X29696000Y-34309885D01*
X30204000Y-34309885D01*
X30208475Y-34325124D01*
X30209865Y-34326329D01*
X30217548Y-34328000D01*
X30296657Y-34328000D01*
X30302805Y-34327699D01*
X30440603Y-34314188D01*
X30452638Y-34311805D01*
X30630076Y-34258233D01*
X30641416Y-34253559D01*
X30805077Y-34166540D01*
X30815294Y-34159751D01*
X30958933Y-34042603D01*
X30967637Y-34033959D01*
X31085784Y-33891144D01*
X31092644Y-33880973D01*
X31180804Y-33717924D01*
X31185556Y-33706619D01*
X31221250Y-33591308D01*
X31221331Y-33585768D01*
X32607425Y-33585768D01*
X32639138Y-33693521D01*
X32643731Y-33704889D01*
X32729607Y-33869154D01*
X32736321Y-33879415D01*
X32852468Y-34023873D01*
X32861046Y-34032632D01*
X33003039Y-34151778D01*
X33013159Y-34158708D01*
X33175585Y-34248002D01*
X33186858Y-34252834D01*
X33363538Y-34308880D01*
X33375532Y-34311430D01*
X33519761Y-34327607D01*
X33526785Y-34328000D01*
X33857885Y-34328000D01*
X33873124Y-34323525D01*
X33874329Y-34322135D01*
X33876000Y-34314452D01*
X33876000Y-34309885D01*
X34384000Y-34309885D01*
X34388475Y-34325124D01*
X34389865Y-34326329D01*
X34397548Y-34328000D01*
X34726657Y-34328000D01*
X34732805Y-34327699D01*
X34870603Y-34314188D01*
X34882638Y-34311805D01*
X35060076Y-34258233D01*
X35071416Y-34253559D01*
X35235077Y-34166540D01*
X35245294Y-34159751D01*
X35388933Y-34042603D01*
X35397637Y-34033959D01*
X35515784Y-33891144D01*
X35522644Y-33880973D01*
X35610804Y-33717924D01*
X35615556Y-33706619D01*
X35651250Y-33591308D01*
X35651456Y-33577205D01*
X35644701Y-33574000D01*
X34402115Y-33574000D01*
X34386876Y-33578475D01*
X34385671Y-33579865D01*
X34384000Y-33587548D01*
X34384000Y-34309885D01*
X33876000Y-34309885D01*
X33876000Y-33592115D01*
X33871525Y-33576876D01*
X33870135Y-33575671D01*
X33862452Y-33574000D01*
X32622076Y-33574000D01*
X32608545Y-33577973D01*
X32607425Y-33585768D01*
X31221331Y-33585768D01*
X31221456Y-33577205D01*
X31214701Y-33574000D01*
X30222115Y-33574000D01*
X30206876Y-33578475D01*
X30205671Y-33579865D01*
X30204000Y-33587548D01*
X30204000Y-34309885D01*
X29696000Y-34309885D01*
X29696000Y-33592115D01*
X29691525Y-33576876D01*
X29690135Y-33575671D01*
X29682452Y-33574000D01*
X28692076Y-33574000D01*
X28678545Y-33577973D01*
X28677425Y-33585768D01*
X28300500Y-33585768D01*
X28300500Y-33062795D01*
X28678544Y-33062795D01*
X28685299Y-33066000D01*
X29677885Y-33066000D01*
X29693124Y-33061525D01*
X29694329Y-33060135D01*
X29696000Y-33052452D01*
X29696000Y-33047885D01*
X30204000Y-33047885D01*
X30208475Y-33063124D01*
X30209865Y-33064329D01*
X30217548Y-33066000D01*
X31207924Y-33066000D01*
X31218839Y-33062795D01*
X32608544Y-33062795D01*
X32615299Y-33066000D01*
X35637924Y-33066000D01*
X35651455Y-33062027D01*
X35652575Y-33054232D01*
X35620862Y-32946479D01*
X35616269Y-32935111D01*
X35530393Y-32770846D01*
X35523679Y-32760585D01*
X35407532Y-32616127D01*
X35398954Y-32607368D01*
X35256961Y-32488222D01*
X35246841Y-32481292D01*
X35084415Y-32391998D01*
X35073142Y-32387166D01*
X34896462Y-32331120D01*
X34884468Y-32328570D01*
X34740239Y-32312393D01*
X34733215Y-32312000D01*
X34291258Y-32312000D01*
X34223137Y-32291998D01*
X34176644Y-32238342D01*
X34166540Y-32168068D01*
X34177250Y-32132351D01*
X34199614Y-32084826D01*
X34203512Y-32064391D01*
X34227742Y-31937374D01*
X34227742Y-31937372D01*
X34229227Y-31929588D01*
X34219304Y-31771862D01*
X34207525Y-31735609D01*
X34172916Y-31629095D01*
X34172915Y-31629092D01*
X34170467Y-31621559D01*
X34093323Y-31500000D01*
X35794318Y-31500000D01*
X35814956Y-31656762D01*
X35875464Y-31802841D01*
X35918037Y-31858323D01*
X35950017Y-31900000D01*
X35971718Y-31928282D01*
X36097159Y-32024536D01*
X36243238Y-32085044D01*
X36400000Y-32105682D01*
X36408188Y-32104604D01*
X36548574Y-32086122D01*
X36556762Y-32085044D01*
X36702841Y-32024536D01*
X36828282Y-31928282D01*
X36849984Y-31900000D01*
X36881963Y-31858323D01*
X36924536Y-31802841D01*
X36985044Y-31656762D01*
X36992517Y-31600000D01*
X38819318Y-31600000D01*
X38839956Y-31756762D01*
X38900464Y-31902841D01*
X38996718Y-32028282D01*
X39122159Y-32124536D01*
X39268238Y-32185044D01*
X39425000Y-32205682D01*
X39433188Y-32204604D01*
X39446580Y-32202841D01*
X39581762Y-32185044D01*
X39727841Y-32124536D01*
X39853282Y-32028282D01*
X39949536Y-31902841D01*
X39950713Y-31900000D01*
X40694318Y-31900000D01*
X40714956Y-32056762D01*
X40775464Y-32202841D01*
X40871718Y-32328282D01*
X40997159Y-32424536D01*
X41143238Y-32485044D01*
X41300000Y-32505682D01*
X41308188Y-32504604D01*
X41448574Y-32486122D01*
X41456762Y-32485044D01*
X41602841Y-32424536D01*
X41728282Y-32328282D01*
X41730072Y-32330614D01*
X41779948Y-32303379D01*
X41806731Y-32300500D01*
X46853992Y-32300500D01*
X46922113Y-32320502D01*
X46968606Y-32374158D01*
X46978710Y-32444432D01*
X46949216Y-32509012D01*
X46930698Y-32526461D01*
X46871718Y-32571718D01*
X46775464Y-32697159D01*
X46714956Y-32843238D01*
X46694318Y-33000000D01*
X46695396Y-33008188D01*
X46709697Y-33116812D01*
X46714956Y-33156762D01*
X46775464Y-33302841D01*
X46871718Y-33428282D01*
X46997159Y-33524536D01*
X47143238Y-33585044D01*
X47300000Y-33605682D01*
X47308188Y-33604604D01*
X47448574Y-33586122D01*
X47456762Y-33585044D01*
X47602841Y-33524536D01*
X47728282Y-33428282D01*
X47824536Y-33302841D01*
X47885044Y-33156762D01*
X47890304Y-33116812D01*
X47904604Y-33008188D01*
X47905682Y-33000000D01*
X47885044Y-32843238D01*
X47824536Y-32697159D01*
X47728282Y-32571718D01*
X47669304Y-32526462D01*
X47627437Y-32469125D01*
X47623215Y-32398254D01*
X47657979Y-32336351D01*
X47720691Y-32303070D01*
X47746008Y-32300500D01*
X60881917Y-32300500D01*
X60950038Y-32320502D01*
X60971012Y-32337405D01*
X63958491Y-35324883D01*
X63992517Y-35387195D01*
X63993899Y-35400055D01*
X63994318Y-35400000D01*
X64014956Y-35556762D01*
X64075464Y-35702841D01*
X64171718Y-35828282D01*
X64297159Y-35924536D01*
X64443238Y-35985044D01*
X64600000Y-36005682D01*
X64608188Y-36004604D01*
X64748574Y-35986122D01*
X64756762Y-35985044D01*
X64902841Y-35924536D01*
X65028282Y-35828282D01*
X65124536Y-35702841D01*
X65185044Y-35556762D01*
X65189106Y-35525908D01*
X65217828Y-35460981D01*
X65277094Y-35421889D01*
X65348085Y-35421044D01*
X65408264Y-35458714D01*
X65430437Y-35494135D01*
X65475464Y-35602841D01*
X65571718Y-35728282D01*
X65697159Y-35824536D01*
X65843238Y-35885044D01*
X66000000Y-35905682D01*
X66008188Y-35904604D01*
X66148574Y-35886122D01*
X66156762Y-35885044D01*
X66302841Y-35824536D01*
X66428282Y-35728282D01*
X66524536Y-35602841D01*
X66585044Y-35456762D01*
X66605682Y-35300000D01*
X66585044Y-35143238D01*
X66524536Y-34997159D01*
X66428282Y-34871718D01*
X66302841Y-34775464D01*
X66156762Y-34714956D01*
X66000000Y-34694318D01*
X66000384Y-34691404D01*
X65945858Y-34675394D01*
X65924884Y-34658491D01*
X61760909Y-30494516D01*
X61760905Y-30494513D01*
X61738342Y-30471950D01*
X61718746Y-30461965D01*
X61701893Y-30451639D01*
X61684090Y-30438704D01*
X61663166Y-30431905D01*
X61644906Y-30424341D01*
X61634141Y-30418856D01*
X61634137Y-30418855D01*
X61625304Y-30414354D01*
X61615513Y-30412803D01*
X61615512Y-30412803D01*
X61603578Y-30410913D01*
X61584353Y-30406297D01*
X61572868Y-30402565D01*
X61572864Y-30402564D01*
X61563433Y-30399500D01*
X41806731Y-30399500D01*
X41738610Y-30379498D01*
X41728540Y-30371382D01*
X41728282Y-30371718D01*
X41609392Y-30280491D01*
X41602841Y-30275464D01*
X41456762Y-30214956D01*
X41300000Y-30194318D01*
X41143238Y-30214956D01*
X40997159Y-30275464D01*
X40871718Y-30371718D01*
X40775464Y-30497159D01*
X40714956Y-30643238D01*
X40694318Y-30800000D01*
X40714956Y-30956762D01*
X40775464Y-31102841D01*
X40871718Y-31228282D01*
X40878264Y-31233305D01*
X40878267Y-31233308D01*
X40900069Y-31250037D01*
X40941937Y-31307375D01*
X40946159Y-31378246D01*
X40911395Y-31440149D01*
X40900069Y-31449963D01*
X40878267Y-31466692D01*
X40878264Y-31466695D01*
X40871718Y-31471718D01*
X40866695Y-31478264D01*
X40848048Y-31502565D01*
X40775464Y-31597159D01*
X40714956Y-31743238D01*
X40694318Y-31900000D01*
X39950713Y-31900000D01*
X40010044Y-31756762D01*
X40030682Y-31600000D01*
X40010044Y-31443238D01*
X39949536Y-31297159D01*
X39853282Y-31171718D01*
X39727841Y-31075464D01*
X39581762Y-31014956D01*
X39425000Y-30994318D01*
X39268238Y-31014956D01*
X39122159Y-31075464D01*
X38996718Y-31171718D01*
X38900464Y-31297159D01*
X38839956Y-31443238D01*
X38819318Y-31600000D01*
X36992517Y-31600000D01*
X37005682Y-31500000D01*
X36985044Y-31343238D01*
X36924536Y-31197159D01*
X36828282Y-31071718D01*
X36702841Y-30975464D01*
X36556762Y-30914956D01*
X36400000Y-30894318D01*
X36243238Y-30914956D01*
X36097159Y-30975464D01*
X35971718Y-31071718D01*
X35875464Y-31197159D01*
X35814956Y-31343238D01*
X35794318Y-31500000D01*
X34093323Y-31500000D01*
X34085786Y-31488123D01*
X34076602Y-31479498D01*
X33976358Y-31385362D01*
X33970582Y-31379938D01*
X33832092Y-31303803D01*
X33679019Y-31264500D01*
X33560650Y-31264500D01*
X33556725Y-31264996D01*
X33556722Y-31264996D01*
X33451067Y-31278343D01*
X33451065Y-31278343D01*
X33443208Y-31279336D01*
X33398193Y-31297159D01*
X33303637Y-31334596D01*
X33303634Y-31334597D01*
X33296268Y-31337514D01*
X33289857Y-31342172D01*
X33289855Y-31342173D01*
X33244034Y-31375464D01*
X33168413Y-31430406D01*
X33163360Y-31436514D01*
X33072729Y-31546068D01*
X33072726Y-31546072D01*
X33067676Y-31552177D01*
X33000386Y-31695174D01*
X32998901Y-31702957D01*
X32998901Y-31702958D01*
X32979848Y-31802841D01*
X32970773Y-31850412D01*
X32980696Y-32008138D01*
X32983147Y-32015681D01*
X33021056Y-32132351D01*
X33029533Y-32158441D01*
X33073564Y-32227823D01*
X33104939Y-32277262D01*
X33124552Y-32345496D01*
X33104161Y-32413501D01*
X33057708Y-32456027D01*
X33024928Y-32473457D01*
X33014706Y-32480249D01*
X32871067Y-32597397D01*
X32862363Y-32606041D01*
X32744216Y-32748856D01*
X32737356Y-32759027D01*
X32649196Y-32922076D01*
X32644444Y-32933381D01*
X32608750Y-33048692D01*
X32608544Y-33062795D01*
X31218839Y-33062795D01*
X31221455Y-33062027D01*
X31222575Y-33054232D01*
X31190862Y-32946479D01*
X31186269Y-32935111D01*
X31100393Y-32770846D01*
X31093679Y-32760585D01*
X30977532Y-32616127D01*
X30968954Y-32607368D01*
X30826961Y-32488222D01*
X30816841Y-32481292D01*
X30654415Y-32391998D01*
X30643142Y-32387166D01*
X30466462Y-32331120D01*
X30454468Y-32328570D01*
X30310239Y-32312393D01*
X30303215Y-32312000D01*
X30222115Y-32312000D01*
X30206876Y-32316475D01*
X30205671Y-32317865D01*
X30204000Y-32325548D01*
X30204000Y-33047885D01*
X29696000Y-33047885D01*
X29696000Y-32330115D01*
X29691525Y-32314876D01*
X29690135Y-32313671D01*
X29682452Y-32312000D01*
X29603343Y-32312000D01*
X29597195Y-32312301D01*
X29459397Y-32325812D01*
X29447362Y-32328195D01*
X29269924Y-32381767D01*
X29258584Y-32386441D01*
X29094923Y-32473460D01*
X29084706Y-32480249D01*
X28941067Y-32597397D01*
X28932363Y-32606041D01*
X28814216Y-32748856D01*
X28807356Y-32759027D01*
X28719196Y-32922076D01*
X28714444Y-32933381D01*
X28678750Y-33048692D01*
X28678544Y-33062795D01*
X28300500Y-33062795D01*
X28300500Y-28800000D01*
X54194318Y-28800000D01*
X54214956Y-28956762D01*
X54275464Y-29102841D01*
X54371718Y-29228282D01*
X54497159Y-29324536D01*
X54643238Y-29385044D01*
X54800000Y-29405682D01*
X54808188Y-29404604D01*
X54948574Y-29386122D01*
X54956762Y-29385044D01*
X55102841Y-29324536D01*
X55228282Y-29228282D01*
X55324536Y-29102841D01*
X55385044Y-28956762D01*
X55386535Y-28945438D01*
X64792000Y-28945438D01*
X64792337Y-28951953D01*
X64801894Y-29044057D01*
X64804788Y-29057456D01*
X64854381Y-29206107D01*
X64860555Y-29219286D01*
X64942788Y-29352173D01*
X64951824Y-29363574D01*
X65062429Y-29473986D01*
X65073840Y-29482998D01*
X65206880Y-29565004D01*
X65220061Y-29571151D01*
X65368814Y-29620491D01*
X65382190Y-29623358D01*
X65473097Y-29632672D01*
X65479513Y-29633000D01*
X65502885Y-29633000D01*
X65518124Y-29628525D01*
X65519329Y-29627135D01*
X65521000Y-29619452D01*
X65521000Y-29614885D01*
X66029000Y-29614885D01*
X66033475Y-29630124D01*
X66034865Y-29631329D01*
X66042548Y-29633000D01*
X66070438Y-29633000D01*
X66076953Y-29632663D01*
X66169057Y-29623106D01*
X66182456Y-29620212D01*
X66331107Y-29570619D01*
X66344285Y-29564445D01*
X66471077Y-29485984D01*
X66539529Y-29467146D01*
X66603496Y-29485868D01*
X66731880Y-29565004D01*
X66745061Y-29571151D01*
X66893814Y-29620491D01*
X66907190Y-29623358D01*
X66998097Y-29632672D01*
X67004513Y-29633000D01*
X67027885Y-29633000D01*
X67043124Y-29628525D01*
X67044329Y-29627135D01*
X67046000Y-29619452D01*
X67046000Y-29614885D01*
X67554000Y-29614885D01*
X67558475Y-29630124D01*
X67559865Y-29631329D01*
X67567548Y-29633000D01*
X67595438Y-29633000D01*
X67601953Y-29632663D01*
X67694057Y-29623106D01*
X67707456Y-29620212D01*
X67856107Y-29570619D01*
X67869286Y-29564445D01*
X68002173Y-29482212D01*
X68013574Y-29473176D01*
X68123986Y-29362571D01*
X68132998Y-29351160D01*
X68215004Y-29218120D01*
X68221151Y-29204939D01*
X68270491Y-29056186D01*
X68273358Y-29042810D01*
X68282672Y-28951903D01*
X68282929Y-28946874D01*
X68278525Y-28931876D01*
X68277135Y-28930671D01*
X68269452Y-28929000D01*
X67572115Y-28929000D01*
X67556876Y-28933475D01*
X67555671Y-28934865D01*
X67554000Y-28942548D01*
X67554000Y-29614885D01*
X67046000Y-29614885D01*
X67046000Y-28947115D01*
X67041525Y-28931876D01*
X67040135Y-28930671D01*
X67032452Y-28929000D01*
X66047115Y-28929000D01*
X66031876Y-28933475D01*
X66030671Y-28934865D01*
X66029000Y-28942548D01*
X66029000Y-29614885D01*
X65521000Y-29614885D01*
X65521000Y-28947115D01*
X65516525Y-28931876D01*
X65515135Y-28930671D01*
X65507452Y-28929000D01*
X64810115Y-28929000D01*
X64794876Y-28933475D01*
X64793671Y-28934865D01*
X64792000Y-28942548D01*
X64792000Y-28945438D01*
X55386535Y-28945438D01*
X55405682Y-28800000D01*
X55408596Y-28800384D01*
X55424606Y-28745857D01*
X55441509Y-28724883D01*
X55828987Y-28337405D01*
X55891299Y-28303379D01*
X55918082Y-28300500D01*
X64667615Y-28300500D01*
X64735736Y-28320502D01*
X64782229Y-28374158D01*
X64788511Y-28391002D01*
X64796475Y-28418124D01*
X64797865Y-28419329D01*
X64805548Y-28421000D01*
X68264885Y-28421000D01*
X68280124Y-28416525D01*
X68281330Y-28415133D01*
X68284684Y-28399716D01*
X68318709Y-28337404D01*
X68381021Y-28303379D01*
X68407804Y-28300500D01*
X69181917Y-28300500D01*
X69250038Y-28320502D01*
X69271012Y-28337405D01*
X69858491Y-28924884D01*
X69892517Y-28987196D01*
X69893899Y-29000055D01*
X69894318Y-29000000D01*
X69914956Y-29156762D01*
X69975464Y-29302841D01*
X70071718Y-29428282D01*
X70197159Y-29524536D01*
X70343238Y-29585044D01*
X70500000Y-29605682D01*
X70508188Y-29604604D01*
X70648574Y-29586122D01*
X70656762Y-29585044D01*
X70802841Y-29524536D01*
X70928282Y-29428282D01*
X71024536Y-29302841D01*
X71085044Y-29156762D01*
X71105682Y-29000000D01*
X71085044Y-28843238D01*
X71024536Y-28697159D01*
X70928282Y-28571718D01*
X70802841Y-28475464D01*
X70675053Y-28422532D01*
X70664391Y-28418116D01*
X70656762Y-28414956D01*
X70500000Y-28394318D01*
X70500384Y-28391404D01*
X70445858Y-28375394D01*
X70424884Y-28358491D01*
X69660909Y-27594516D01*
X69660905Y-27594513D01*
X69638342Y-27571950D01*
X69618746Y-27561965D01*
X69601893Y-27551639D01*
X69584090Y-27538704D01*
X69563166Y-27531905D01*
X69544906Y-27524341D01*
X69534141Y-27518856D01*
X69534137Y-27518855D01*
X69525304Y-27514354D01*
X69515513Y-27512803D01*
X69515512Y-27512803D01*
X69503578Y-27510913D01*
X69484353Y-27506297D01*
X69472868Y-27502565D01*
X69472864Y-27502564D01*
X69463433Y-27499500D01*
X68506438Y-27499500D01*
X68438317Y-27479498D01*
X68391824Y-27425842D01*
X68381720Y-27355568D01*
X68411214Y-27290988D01*
X68417343Y-27284405D01*
X68565225Y-27136523D01*
X68627537Y-27102497D01*
X68637874Y-27100696D01*
X68709964Y-27091205D01*
X68756762Y-27085044D01*
X68902841Y-27024536D01*
X69028282Y-26928282D01*
X69124536Y-26802841D01*
X69185044Y-26656762D01*
X69205682Y-26500000D01*
X69185044Y-26343238D01*
X69124536Y-26197159D01*
X69028282Y-26071718D01*
X68902841Y-25975464D01*
X68756762Y-25914956D01*
X68600000Y-25894318D01*
X68443238Y-25914956D01*
X68297159Y-25975464D01*
X68171718Y-26071718D01*
X68075464Y-26197159D01*
X68014956Y-26343238D01*
X68013878Y-26351426D01*
X68013359Y-26355369D01*
X68011996Y-26358450D01*
X68011741Y-26359402D01*
X68011593Y-26359362D01*
X67984637Y-26420296D01*
X67925372Y-26459388D01*
X67854381Y-26460233D01*
X67825511Y-26445878D01*
X67824720Y-26447283D01*
X67817243Y-26443070D01*
X67810395Y-26437872D01*
X67676528Y-26384871D01*
X67590829Y-26374500D01*
X67300192Y-26374500D01*
X67009172Y-26374501D01*
X67005415Y-26374956D01*
X67005409Y-26374956D01*
X66935874Y-26383370D01*
X66923472Y-26384871D01*
X66915949Y-26387849D01*
X66915947Y-26387850D01*
X66845251Y-26415841D01*
X66789605Y-26437872D01*
X66674922Y-26524922D01*
X66669730Y-26531762D01*
X66637862Y-26573746D01*
X66580744Y-26615913D01*
X66509896Y-26620505D01*
X66447812Y-26586065D01*
X66437138Y-26573746D01*
X66405270Y-26531762D01*
X66400078Y-26524922D01*
X66285395Y-26437872D01*
X66151528Y-26384871D01*
X66065829Y-26374500D01*
X65775192Y-26374500D01*
X65484172Y-26374501D01*
X65480415Y-26374956D01*
X65480409Y-26374956D01*
X65410874Y-26383370D01*
X65398472Y-26384871D01*
X65390949Y-26387849D01*
X65390947Y-26387850D01*
X65320251Y-26415841D01*
X65264605Y-26437872D01*
X65149922Y-26524922D01*
X65062872Y-26639605D01*
X65009871Y-26773472D01*
X64999500Y-26859171D01*
X64999501Y-27124536D01*
X64999501Y-27373500D01*
X64979499Y-27441621D01*
X64925844Y-27488114D01*
X64873501Y-27499500D01*
X55668481Y-27499500D01*
X55668477Y-27499501D01*
X55636567Y-27499501D01*
X55627140Y-27502564D01*
X55627133Y-27502565D01*
X55615647Y-27506297D01*
X55596427Y-27510911D01*
X55584493Y-27512801D01*
X55584485Y-27512803D01*
X55574696Y-27514354D01*
X55565865Y-27518854D01*
X55565861Y-27518855D01*
X55555093Y-27524342D01*
X55536832Y-27531906D01*
X55515910Y-27538704D01*
X55500918Y-27549597D01*
X55498116Y-27551632D01*
X55481259Y-27561962D01*
X55470493Y-27567448D01*
X55470492Y-27567449D01*
X55461658Y-27571950D01*
X54875117Y-28158491D01*
X54812805Y-28192517D01*
X54799945Y-28193899D01*
X54800000Y-28194318D01*
X54643238Y-28214956D01*
X54497159Y-28275464D01*
X54371718Y-28371718D01*
X54275464Y-28497159D01*
X54214956Y-28643238D01*
X54194318Y-28800000D01*
X28300500Y-28800000D01*
X28300500Y-24945768D01*
X28677425Y-24945768D01*
X28709138Y-25053521D01*
X28713731Y-25064889D01*
X28799607Y-25229154D01*
X28806321Y-25239415D01*
X28922468Y-25383873D01*
X28931046Y-25392632D01*
X29073039Y-25511778D01*
X29083159Y-25518708D01*
X29245585Y-25608002D01*
X29256858Y-25612834D01*
X29433538Y-25668880D01*
X29445532Y-25671430D01*
X29589761Y-25687607D01*
X29596785Y-25688000D01*
X29677885Y-25688000D01*
X29693124Y-25683525D01*
X29694329Y-25682135D01*
X29696000Y-25674452D01*
X29696000Y-25669885D01*
X30204000Y-25669885D01*
X30208475Y-25685124D01*
X30209865Y-25686329D01*
X30217548Y-25688000D01*
X30296657Y-25688000D01*
X30302805Y-25687699D01*
X30440603Y-25674188D01*
X30452638Y-25671805D01*
X30630076Y-25618233D01*
X30641416Y-25613559D01*
X30805077Y-25526540D01*
X30815294Y-25519751D01*
X30958933Y-25402603D01*
X30967637Y-25393959D01*
X31085784Y-25251144D01*
X31092644Y-25240973D01*
X31180804Y-25077924D01*
X31185556Y-25066619D01*
X31221250Y-24951308D01*
X31221331Y-24945768D01*
X32607425Y-24945768D01*
X32639138Y-25053521D01*
X32643731Y-25064889D01*
X32729607Y-25229154D01*
X32736321Y-25239415D01*
X32852468Y-25383873D01*
X32861046Y-25392632D01*
X33003039Y-25511778D01*
X33013156Y-25518705D01*
X33061302Y-25545174D01*
X33111360Y-25595519D01*
X33126253Y-25664937D01*
X33097685Y-25735903D01*
X33067676Y-25772177D01*
X33000386Y-25915174D01*
X32998901Y-25922957D01*
X32998901Y-25922958D01*
X32985289Y-25994318D01*
X32970773Y-26070412D01*
X32980696Y-26228138D01*
X32983147Y-26235681D01*
X33023347Y-26359402D01*
X33029533Y-26378441D01*
X33114214Y-26511877D01*
X33229418Y-26620062D01*
X33367908Y-26696197D01*
X33520981Y-26735500D01*
X33639350Y-26735500D01*
X33643275Y-26735004D01*
X33643278Y-26735004D01*
X33748933Y-26721657D01*
X33748935Y-26721657D01*
X33756792Y-26720664D01*
X33828234Y-26692378D01*
X33896363Y-26665404D01*
X33896366Y-26665403D01*
X33903732Y-26662486D01*
X33911611Y-26656762D01*
X33989737Y-26600000D01*
X35794318Y-26600000D01*
X35795396Y-26608188D01*
X35812092Y-26735004D01*
X35814956Y-26756762D01*
X35875464Y-26902841D01*
X35971718Y-27028282D01*
X36097159Y-27124536D01*
X36243238Y-27185044D01*
X36400000Y-27205682D01*
X36408188Y-27204604D01*
X36548574Y-27186122D01*
X36556762Y-27185044D01*
X36702841Y-27124536D01*
X36828282Y-27028282D01*
X36924536Y-26902841D01*
X36985044Y-26756762D01*
X36987909Y-26735004D01*
X37004604Y-26608188D01*
X37005682Y-26600000D01*
X36985044Y-26443238D01*
X36924536Y-26297159D01*
X36828282Y-26171718D01*
X36809589Y-26157374D01*
X36709392Y-26080491D01*
X36702841Y-26075464D01*
X36556762Y-26014956D01*
X36400000Y-25994318D01*
X36243238Y-26014956D01*
X36097159Y-26075464D01*
X36090608Y-26080491D01*
X35990412Y-26157374D01*
X35971718Y-26171718D01*
X35875464Y-26297159D01*
X35814956Y-26443238D01*
X35794318Y-26600000D01*
X33989737Y-26600000D01*
X34025173Y-26574254D01*
X34031587Y-26569594D01*
X34074844Y-26517305D01*
X34127271Y-26453932D01*
X34127274Y-26453928D01*
X34132324Y-26447823D01*
X34199614Y-26304826D01*
X34218697Y-26204789D01*
X34227742Y-26157374D01*
X34227742Y-26157372D01*
X34229227Y-26149588D01*
X34219304Y-25991862D01*
X34174164Y-25852937D01*
X34172136Y-25781969D01*
X34208799Y-25721171D01*
X34272511Y-25689845D01*
X34293997Y-25688000D01*
X34726657Y-25688000D01*
X34732805Y-25687699D01*
X34870603Y-25674188D01*
X34882638Y-25671805D01*
X35060076Y-25618233D01*
X35071416Y-25613559D01*
X35235077Y-25526540D01*
X35245294Y-25519751D01*
X35388933Y-25402603D01*
X35397637Y-25393959D01*
X35515784Y-25251144D01*
X35522644Y-25240973D01*
X35610804Y-25077924D01*
X35615556Y-25066619D01*
X35651250Y-24951308D01*
X35651456Y-24937205D01*
X35644701Y-24934000D01*
X32622076Y-24934000D01*
X32608545Y-24937973D01*
X32607425Y-24945768D01*
X31221331Y-24945768D01*
X31221456Y-24937205D01*
X31214701Y-24934000D01*
X30222115Y-24934000D01*
X30206876Y-24938475D01*
X30205671Y-24939865D01*
X30204000Y-24947548D01*
X30204000Y-25669885D01*
X29696000Y-25669885D01*
X29696000Y-24952115D01*
X29691525Y-24936876D01*
X29690135Y-24935671D01*
X29682452Y-24934000D01*
X28692076Y-24934000D01*
X28678545Y-24937973D01*
X28677425Y-24945768D01*
X28300500Y-24945768D01*
X28300500Y-24900000D01*
X43994318Y-24900000D01*
X44014956Y-25056762D01*
X44075464Y-25202841D01*
X44171718Y-25328282D01*
X44297159Y-25424536D01*
X44443238Y-25485044D01*
X44600000Y-25505682D01*
X44608188Y-25504604D01*
X44748574Y-25486122D01*
X44756762Y-25485044D01*
X44902841Y-25424536D01*
X45028282Y-25328282D01*
X45124536Y-25202841D01*
X45185044Y-25056762D01*
X45205682Y-24900000D01*
X45185044Y-24743238D01*
X45124536Y-24597159D01*
X45028282Y-24471718D01*
X44902841Y-24375464D01*
X44756762Y-24314956D01*
X44692373Y-24306479D01*
X44608188Y-24295396D01*
X44600000Y-24294318D01*
X44591812Y-24295396D01*
X44507628Y-24306479D01*
X44443238Y-24314956D01*
X44297159Y-24375464D01*
X44171718Y-24471718D01*
X44075464Y-24597159D01*
X44014956Y-24743238D01*
X43994318Y-24900000D01*
X28300500Y-24900000D01*
X28300500Y-24422795D01*
X28678544Y-24422795D01*
X28685299Y-24426000D01*
X29677885Y-24426000D01*
X29693124Y-24421525D01*
X29694329Y-24420135D01*
X29696000Y-24412452D01*
X29696000Y-24407885D01*
X30204000Y-24407885D01*
X30208475Y-24423124D01*
X30209865Y-24424329D01*
X30217548Y-24426000D01*
X31207924Y-24426000D01*
X31218839Y-24422795D01*
X32608544Y-24422795D01*
X32615299Y-24426000D01*
X33857885Y-24426000D01*
X33873124Y-24421525D01*
X33874329Y-24420135D01*
X33876000Y-24412452D01*
X33876000Y-24407885D01*
X34384000Y-24407885D01*
X34388475Y-24423124D01*
X34389865Y-24424329D01*
X34397548Y-24426000D01*
X35637924Y-24426000D01*
X35651455Y-24422027D01*
X35652575Y-24414232D01*
X35620862Y-24306479D01*
X35616269Y-24295111D01*
X35530393Y-24130846D01*
X35523679Y-24120585D01*
X35407532Y-23976127D01*
X35398954Y-23967368D01*
X35256961Y-23848222D01*
X35246841Y-23841292D01*
X35084415Y-23751998D01*
X35073142Y-23747166D01*
X34896462Y-23691120D01*
X34884468Y-23688570D01*
X34740239Y-23672393D01*
X34733215Y-23672000D01*
X34402115Y-23672000D01*
X34386876Y-23676475D01*
X34385671Y-23677865D01*
X34384000Y-23685548D01*
X34384000Y-24407885D01*
X33876000Y-24407885D01*
X33876000Y-23690115D01*
X33871525Y-23674876D01*
X33870135Y-23673671D01*
X33862452Y-23672000D01*
X33533343Y-23672000D01*
X33527195Y-23672301D01*
X33389397Y-23685812D01*
X33377362Y-23688195D01*
X33199924Y-23741767D01*
X33188584Y-23746441D01*
X33024923Y-23833460D01*
X33014706Y-23840249D01*
X32871067Y-23957397D01*
X32862363Y-23966041D01*
X32744216Y-24108856D01*
X32737356Y-24119027D01*
X32649196Y-24282076D01*
X32644444Y-24293381D01*
X32608750Y-24408692D01*
X32608544Y-24422795D01*
X31218839Y-24422795D01*
X31221455Y-24422027D01*
X31222575Y-24414232D01*
X31190862Y-24306479D01*
X31186269Y-24295111D01*
X31100393Y-24130846D01*
X31093679Y-24120585D01*
X30977532Y-23976127D01*
X30968954Y-23967368D01*
X30826961Y-23848222D01*
X30816841Y-23841292D01*
X30654415Y-23751998D01*
X30643142Y-23747166D01*
X30466462Y-23691120D01*
X30454468Y-23688570D01*
X30310239Y-23672393D01*
X30303215Y-23672000D01*
X30222115Y-23672000D01*
X30206876Y-23676475D01*
X30205671Y-23677865D01*
X30204000Y-23685548D01*
X30204000Y-24407885D01*
X29696000Y-24407885D01*
X29696000Y-23690115D01*
X29691525Y-23674876D01*
X29690135Y-23673671D01*
X29682452Y-23672000D01*
X29603343Y-23672000D01*
X29597195Y-23672301D01*
X29459397Y-23685812D01*
X29447362Y-23688195D01*
X29269924Y-23741767D01*
X29258584Y-23746441D01*
X29094923Y-23833460D01*
X29084706Y-23840249D01*
X28941067Y-23957397D01*
X28932363Y-23966041D01*
X28814216Y-24108856D01*
X28807356Y-24119027D01*
X28719196Y-24282076D01*
X28714444Y-24293381D01*
X28678750Y-24408692D01*
X28678544Y-24422795D01*
X28300500Y-24422795D01*
X28300500Y-23426500D01*
X28320502Y-23358379D01*
X28374158Y-23311886D01*
X28426500Y-23300500D01*
X71474000Y-23300500D01*
X71542121Y-23320502D01*
G37*
G04 #@! TD.AperFunction*
G04 #@! TA.AperFunction,Conductor*
G36*
X41950037Y-51420502D02*
G01*
X41971011Y-51437404D01*
X42066162Y-51532554D01*
X42158491Y-51624883D01*
X42192516Y-51687195D01*
X42193899Y-51700055D01*
X42194318Y-51700000D01*
X42197082Y-51720991D01*
X42214956Y-51856762D01*
X42218115Y-51864389D01*
X42218116Y-51864392D01*
X42243135Y-51924793D01*
X42250724Y-51995383D01*
X42218944Y-52058870D01*
X42157886Y-52095097D01*
X42126726Y-52099011D01*
X38973274Y-52099011D01*
X38905153Y-52079009D01*
X38858660Y-52025353D01*
X38848556Y-51955079D01*
X38856865Y-51924793D01*
X38881884Y-51864392D01*
X38881885Y-51864389D01*
X38885044Y-51856762D01*
X38902436Y-51724655D01*
X38904752Y-51707065D01*
X38933474Y-51642138D01*
X38992740Y-51603046D01*
X39046119Y-51598589D01*
X39091810Y-51604604D01*
X39091812Y-51604604D01*
X39100000Y-51605682D01*
X39108188Y-51604604D01*
X39120023Y-51603046D01*
X39240408Y-51587197D01*
X39248574Y-51586122D01*
X39256762Y-51585044D01*
X39402841Y-51524536D01*
X39528282Y-51428282D01*
X39530072Y-51430614D01*
X39579948Y-51403379D01*
X39606731Y-51400500D01*
X41881916Y-51400500D01*
X41950037Y-51420502D01*
G37*
G04 #@! TD.AperFunction*
G04 #@! TA.AperFunction,Conductor*
G36*
X38348254Y-48920502D02*
G01*
X38394747Y-48974158D01*
X38405055Y-49042946D01*
X38394318Y-49124500D01*
X38395396Y-49132688D01*
X38410229Y-49245353D01*
X38414956Y-49281262D01*
X38475464Y-49427341D01*
X38497123Y-49455568D01*
X38520126Y-49485546D01*
X38545726Y-49551767D01*
X38531461Y-49621315D01*
X38520126Y-49638954D01*
X38475464Y-49697159D01*
X38414956Y-49843238D01*
X38394318Y-50000000D01*
X38414956Y-50156762D01*
X38475464Y-50302841D01*
X38571718Y-50428282D01*
X38578264Y-50433305D01*
X38578268Y-50433309D01*
X38603970Y-50453031D01*
X38645837Y-50510369D01*
X38650059Y-50581240D01*
X38627229Y-50629697D01*
X38575464Y-50697159D01*
X38514956Y-50843238D01*
X38513878Y-50851426D01*
X38495248Y-50992935D01*
X38466526Y-51057862D01*
X38407260Y-51096954D01*
X38353881Y-51101411D01*
X38308190Y-51095396D01*
X38308188Y-51095396D01*
X38300000Y-51094318D01*
X38143238Y-51114956D01*
X38135609Y-51118116D01*
X38126165Y-51122028D01*
X37997159Y-51175464D01*
X37871718Y-51271718D01*
X37775464Y-51397159D01*
X37714956Y-51543238D01*
X37694318Y-51700000D01*
X37714956Y-51856762D01*
X37718115Y-51864389D01*
X37718116Y-51864392D01*
X37743135Y-51924793D01*
X37750724Y-51995383D01*
X37718944Y-52058870D01*
X37657886Y-52095097D01*
X37626726Y-52099011D01*
X36417593Y-52099011D01*
X36349472Y-52079009D01*
X36328498Y-52062106D01*
X33741509Y-49475116D01*
X33707483Y-49412804D01*
X33706101Y-49399945D01*
X33705682Y-49400000D01*
X33686122Y-49251426D01*
X33685044Y-49243238D01*
X33624536Y-49097159D01*
X33619509Y-49090608D01*
X33618869Y-49089499D01*
X33602132Y-49020503D01*
X33625353Y-48953412D01*
X33681161Y-48909525D01*
X33727989Y-48900500D01*
X38280133Y-48900500D01*
X38348254Y-48920502D01*
G37*
G04 #@! TD.AperFunction*
G04 #@! TA.AperFunction,Conductor*
G36*
X48549078Y-47820502D02*
G01*
X48570052Y-47837405D01*
X50244032Y-49511385D01*
X50278058Y-49573697D01*
X50272993Y-49644512D01*
X50244032Y-49689575D01*
X49245929Y-50687678D01*
X49183617Y-50721704D01*
X49112802Y-50716639D01*
X49055966Y-50674092D01*
X49031155Y-50607572D01*
X49035127Y-50565972D01*
X49063974Y-50458312D01*
X49065877Y-50447519D01*
X49084866Y-50230475D01*
X49084866Y-50219525D01*
X49065877Y-50002481D01*
X49063974Y-49991688D01*
X49007585Y-49781239D01*
X49003839Y-49770947D01*
X48911763Y-49573489D01*
X48906280Y-49563994D01*
X48869840Y-49511952D01*
X48859361Y-49503576D01*
X48845915Y-49510644D01*
X47057272Y-51299287D01*
X47050842Y-51311062D01*
X47060138Y-51323077D01*
X47111343Y-51358931D01*
X47120838Y-51364414D01*
X47318296Y-51456490D01*
X47328588Y-51460236D01*
X47539037Y-51516625D01*
X47549830Y-51518528D01*
X47766874Y-51537517D01*
X47777824Y-51537517D01*
X47994868Y-51518528D01*
X48005661Y-51516625D01*
X48113321Y-51487778D01*
X48184297Y-51489468D01*
X48243093Y-51529262D01*
X48271041Y-51594526D01*
X48259268Y-51664540D01*
X48235027Y-51698580D01*
X47871501Y-52062106D01*
X47809189Y-52096132D01*
X47782406Y-52099011D01*
X43473274Y-52099011D01*
X43405153Y-52079009D01*
X43358660Y-52025353D01*
X43348556Y-51955079D01*
X43356865Y-51924793D01*
X43381884Y-51864392D01*
X43381885Y-51864389D01*
X43385044Y-51856762D01*
X43405682Y-51700000D01*
X43385044Y-51543238D01*
X43381884Y-51535609D01*
X43381883Y-51535605D01*
X43367018Y-51499719D01*
X43359428Y-51429129D01*
X43391207Y-51365642D01*
X43452264Y-51329414D01*
X43483426Y-51325500D01*
X45116995Y-51325500D01*
X45120699Y-51325059D01*
X45120702Y-51325059D01*
X45128095Y-51324179D01*
X45143195Y-51322382D01*
X45195190Y-51299287D01*
X45234867Y-51281663D01*
X45245502Y-51276939D01*
X45324590Y-51197713D01*
X45333189Y-51178264D01*
X45359772Y-51118133D01*
X45369855Y-51095327D01*
X45372849Y-51069646D01*
X45372849Y-50230475D01*
X46459832Y-50230475D01*
X46478821Y-50447519D01*
X46480724Y-50458312D01*
X46537113Y-50668761D01*
X46540859Y-50679053D01*
X46632935Y-50876511D01*
X46638418Y-50886006D01*
X46674858Y-50938048D01*
X46685337Y-50946424D01*
X46698783Y-50939356D01*
X47400327Y-50237812D01*
X47407941Y-50223868D01*
X47407810Y-50222035D01*
X47403559Y-50215420D01*
X46698062Y-49509923D01*
X46686287Y-49503493D01*
X46674272Y-49512789D01*
X46638418Y-49563994D01*
X46632935Y-49573489D01*
X46540859Y-49770947D01*
X46537113Y-49781239D01*
X46480724Y-49991688D01*
X46478821Y-50002481D01*
X46459832Y-50219525D01*
X46459832Y-50230475D01*
X45372849Y-50230475D01*
X45372849Y-49380354D01*
X45369731Y-49354154D01*
X45355332Y-49321736D01*
X45329012Y-49262482D01*
X45324288Y-49251847D01*
X45310760Y-49238342D01*
X45261242Y-49188911D01*
X45245062Y-49172759D01*
X45234425Y-49168056D01*
X45234423Y-49168055D01*
X45168561Y-49138938D01*
X45166412Y-49137988D01*
X47050925Y-49137988D01*
X47057993Y-49151434D01*
X47759537Y-49852978D01*
X47773481Y-49860592D01*
X47775314Y-49860461D01*
X47781929Y-49856210D01*
X48487426Y-49150713D01*
X48493856Y-49138938D01*
X48484560Y-49126923D01*
X48433355Y-49091069D01*
X48423860Y-49085586D01*
X48226402Y-48993510D01*
X48216110Y-48989764D01*
X48005661Y-48933375D01*
X47994868Y-48931472D01*
X47777824Y-48912483D01*
X47766874Y-48912483D01*
X47549830Y-48931472D01*
X47539037Y-48933375D01*
X47328588Y-48989764D01*
X47318296Y-48993510D01*
X47120838Y-49085586D01*
X47111343Y-49091069D01*
X47059301Y-49127509D01*
X47050925Y-49137988D01*
X45166412Y-49137988D01*
X45142676Y-49127494D01*
X45116995Y-49124500D01*
X43427703Y-49124500D01*
X43423999Y-49124941D01*
X43423996Y-49124941D01*
X43416603Y-49125821D01*
X43401503Y-49127618D01*
X43392863Y-49131456D01*
X43392862Y-49131456D01*
X43310466Y-49168055D01*
X43299196Y-49173061D01*
X43290977Y-49181294D01*
X43290976Y-49181295D01*
X43270422Y-49201885D01*
X43220108Y-49252287D01*
X43215405Y-49262924D01*
X43215404Y-49262926D01*
X43210918Y-49273074D01*
X43174843Y-49354673D01*
X43171849Y-49380354D01*
X43171849Y-51015476D01*
X43151847Y-51083597D01*
X43098191Y-51130090D01*
X43027917Y-51140194D01*
X42997630Y-51131884D01*
X42964395Y-51118117D01*
X42964390Y-51118116D01*
X42956762Y-51114956D01*
X42800000Y-51094318D01*
X42800384Y-51091404D01*
X42745858Y-51075394D01*
X42724883Y-51058491D01*
X42561372Y-50894979D01*
X42360909Y-50694516D01*
X42360895Y-50694503D01*
X42338342Y-50671950D01*
X42318746Y-50661965D01*
X42301893Y-50651639D01*
X42284090Y-50638704D01*
X42263166Y-50631905D01*
X42244906Y-50624341D01*
X42234141Y-50618856D01*
X42234137Y-50618855D01*
X42225304Y-50614354D01*
X42215513Y-50612803D01*
X42215512Y-50612803D01*
X42203578Y-50610913D01*
X42184353Y-50606297D01*
X42172868Y-50602565D01*
X42172864Y-50602564D01*
X42163433Y-50599500D01*
X41927989Y-50599500D01*
X41859868Y-50579498D01*
X41813375Y-50525842D01*
X41803271Y-50455568D01*
X41818869Y-50410501D01*
X41819509Y-50409392D01*
X41824536Y-50402841D01*
X41885044Y-50256762D01*
X41905682Y-50100000D01*
X41885044Y-49943238D01*
X41824536Y-49797159D01*
X41728282Y-49671718D01*
X41602841Y-49575464D01*
X41456762Y-49514956D01*
X41429638Y-49511385D01*
X41308188Y-49495396D01*
X41300000Y-49494318D01*
X41291812Y-49495396D01*
X41170363Y-49511385D01*
X41143238Y-49514956D01*
X40997159Y-49575464D01*
X40990604Y-49580494D01*
X40986923Y-49582619D01*
X40923922Y-49599500D01*
X40235609Y-49599500D01*
X40167488Y-49579498D01*
X40120995Y-49525842D01*
X40110891Y-49455568D01*
X40140385Y-49390988D01*
X40146514Y-49384405D01*
X40894474Y-48636445D01*
X40956786Y-48602419D01*
X40983569Y-48599540D01*
X41731520Y-48599540D01*
X42762494Y-48599538D01*
X42794407Y-48599538D01*
X42815323Y-48592742D01*
X42834542Y-48588126D01*
X42856279Y-48584684D01*
X42865112Y-48580183D01*
X42865119Y-48580181D01*
X42875883Y-48574696D01*
X42894143Y-48567132D01*
X42915064Y-48560334D01*
X42932858Y-48547406D01*
X42949714Y-48537077D01*
X42960478Y-48531592D01*
X42960479Y-48531591D01*
X42969317Y-48527088D01*
X42991875Y-48504529D01*
X42991883Y-48504522D01*
X43324687Y-48171718D01*
X43658999Y-47837405D01*
X43721312Y-47803380D01*
X43748095Y-47800500D01*
X48480957Y-47800500D01*
X48549078Y-47820502D01*
G37*
G04 #@! TD.AperFunction*
G04 #@! TA.AperFunction,Conductor*
G36*
X31489736Y-41460502D02*
G01*
X31509536Y-41476246D01*
X31568725Y-41533905D01*
X31568731Y-41533910D01*
X31572865Y-41537937D01*
X31577661Y-41541142D01*
X31577664Y-41541144D01*
X31709901Y-41629502D01*
X31748677Y-41655411D01*
X31753985Y-41657692D01*
X31753986Y-41657692D01*
X31937650Y-41736600D01*
X31937653Y-41736601D01*
X31942953Y-41738878D01*
X31948582Y-41740152D01*
X31948583Y-41740152D01*
X32143550Y-41784269D01*
X32143553Y-41784269D01*
X32149186Y-41785544D01*
X32154958Y-41785771D01*
X32160687Y-41786525D01*
X32160327Y-41789257D01*
X32216604Y-41808216D01*
X32260950Y-41863659D01*
X32268282Y-41934276D01*
X32236271Y-41997647D01*
X32175081Y-42033651D01*
X32165705Y-42035632D01*
X32125076Y-42042613D01*
X32006650Y-42062962D01*
X32006649Y-42062962D01*
X32000953Y-42063941D01*
X31802575Y-42137127D01*
X31797614Y-42140079D01*
X31797613Y-42140079D01*
X31723350Y-42184261D01*
X31620856Y-42245238D01*
X31461881Y-42384655D01*
X31330976Y-42550708D01*
X31328287Y-42555819D01*
X31328285Y-42555822D01*
X31297173Y-42614956D01*
X31232523Y-42737836D01*
X31169820Y-42939773D01*
X31144967Y-43149754D01*
X31158796Y-43360749D01*
X31160217Y-43366345D01*
X31160218Y-43366350D01*
X31182784Y-43455200D01*
X31210845Y-43565690D01*
X31299369Y-43757714D01*
X31421405Y-43930391D01*
X31425539Y-43934418D01*
X31550019Y-44055681D01*
X31572865Y-44077937D01*
X31577661Y-44081142D01*
X31577664Y-44081144D01*
X31673410Y-44145119D01*
X31748677Y-44195411D01*
X31753985Y-44197692D01*
X31753986Y-44197692D01*
X31937650Y-44276600D01*
X31937653Y-44276601D01*
X31942953Y-44278878D01*
X31948582Y-44280152D01*
X31948583Y-44280152D01*
X32143550Y-44324269D01*
X32143553Y-44324269D01*
X32149186Y-44325544D01*
X32154957Y-44325771D01*
X32154959Y-44325771D01*
X32216989Y-44328208D01*
X32360470Y-44333846D01*
X32366179Y-44333018D01*
X32366183Y-44333018D01*
X32564015Y-44304333D01*
X32564019Y-44304332D01*
X32569730Y-44303504D01*
X32665169Y-44271107D01*
X32764483Y-44237395D01*
X32764488Y-44237393D01*
X32769955Y-44235537D01*
X32813103Y-44211373D01*
X32949395Y-44135046D01*
X32949399Y-44135043D01*
X32954442Y-44132219D01*
X33117012Y-43997012D01*
X33252219Y-43834442D01*
X33255043Y-43829399D01*
X33255046Y-43829395D01*
X33352713Y-43654998D01*
X33352714Y-43654996D01*
X33355537Y-43649955D01*
X33357393Y-43644488D01*
X33357395Y-43644483D01*
X33421647Y-43455200D01*
X33423504Y-43449730D01*
X33429353Y-43409392D01*
X33438804Y-43344211D01*
X33468374Y-43279665D01*
X33528146Y-43241353D01*
X33599143Y-43241437D01*
X33658823Y-43279892D01*
X33688239Y-43344508D01*
X33689500Y-43362291D01*
X33689500Y-44074646D01*
X33692618Y-44100846D01*
X33696456Y-44109486D01*
X33696456Y-44109487D01*
X33727554Y-44179498D01*
X33738061Y-44203153D01*
X33746294Y-44211372D01*
X33746295Y-44211373D01*
X33770839Y-44235874D01*
X33817287Y-44282241D01*
X33827924Y-44286944D01*
X33827926Y-44286945D01*
X33875977Y-44308188D01*
X33919673Y-44327506D01*
X33945354Y-44330500D01*
X35498917Y-44330500D01*
X35567038Y-44350502D01*
X35613531Y-44404158D01*
X35623635Y-44474432D01*
X35594141Y-44539012D01*
X35588012Y-44545595D01*
X34275116Y-45858491D01*
X34212804Y-45892517D01*
X34199945Y-45893899D01*
X34200000Y-45894318D01*
X34043238Y-45914956D01*
X33897159Y-45975464D01*
X33771718Y-46071718D01*
X33675464Y-46197159D01*
X33614956Y-46343238D01*
X33594318Y-46500000D01*
X33595396Y-46508188D01*
X33607302Y-46598620D01*
X33613935Y-46649007D01*
X33613935Y-46649008D01*
X33614956Y-46656762D01*
X33613747Y-46656921D01*
X33612252Y-46719781D01*
X33572458Y-46778578D01*
X33508681Y-46806340D01*
X33451426Y-46813878D01*
X33443238Y-46814956D01*
X33297159Y-46875464D01*
X33171718Y-46971718D01*
X33166695Y-46978264D01*
X33146033Y-47005191D01*
X33075464Y-47097159D01*
X33014956Y-47243238D01*
X32994318Y-47400000D01*
X33014956Y-47556762D01*
X33075464Y-47702841D01*
X33080491Y-47709393D01*
X33084621Y-47716546D01*
X33082617Y-47717703D01*
X33103904Y-47772756D01*
X33089644Y-47842305D01*
X33040046Y-47893104D01*
X32994789Y-47908169D01*
X32951426Y-47913878D01*
X32943238Y-47914956D01*
X32797159Y-47975464D01*
X32671718Y-48071718D01*
X32666695Y-48078264D01*
X32643941Y-48107918D01*
X32575464Y-48197159D01*
X32514956Y-48343238D01*
X32494318Y-48500000D01*
X32514956Y-48656762D01*
X32575464Y-48802841D01*
X32580491Y-48809392D01*
X32629526Y-48873296D01*
X32655126Y-48939516D01*
X32640861Y-49009065D01*
X32629527Y-49026703D01*
X32575464Y-49097159D01*
X32514956Y-49243238D01*
X32513878Y-49251426D01*
X32508189Y-49294639D01*
X32479467Y-49359566D01*
X32420202Y-49398658D01*
X32366821Y-49403115D01*
X32308188Y-49395396D01*
X32300000Y-49394318D01*
X32143238Y-49414956D01*
X31997159Y-49475464D01*
X31871718Y-49571718D01*
X31775464Y-49697159D01*
X31714956Y-49843238D01*
X31694318Y-50000000D01*
X31714956Y-50156762D01*
X31775464Y-50302841D01*
X31871402Y-50427870D01*
X31871403Y-50427872D01*
X31871718Y-50428282D01*
X31871654Y-50428331D01*
X31903712Y-50487039D01*
X31898647Y-50557854D01*
X31884506Y-50583388D01*
X31884621Y-50583454D01*
X31880896Y-50589906D01*
X31880551Y-50590529D01*
X31875464Y-50597159D01*
X31814956Y-50743238D01*
X31794318Y-50900000D01*
X31795396Y-50908188D01*
X31806352Y-50991404D01*
X31814956Y-51056762D01*
X31875464Y-51202841D01*
X31952609Y-51303379D01*
X31971718Y-51328282D01*
X31969386Y-51330072D01*
X31996621Y-51379948D01*
X31999500Y-51406731D01*
X31999500Y-51683885D01*
X31979498Y-51752006D01*
X31925842Y-51798499D01*
X31889947Y-51808807D01*
X31843238Y-51814956D01*
X31697159Y-51875464D01*
X31571718Y-51971718D01*
X31527095Y-52029873D01*
X31526463Y-52030696D01*
X31469125Y-52072563D01*
X31398254Y-52076785D01*
X31336351Y-52042021D01*
X31303070Y-51979309D01*
X31300500Y-51953992D01*
X31300500Y-44809083D01*
X31300507Y-44807763D01*
X31301335Y-44728674D01*
X31301441Y-44718593D01*
X31292384Y-44676704D01*
X31290324Y-44664126D01*
X31286331Y-44628524D01*
X31286330Y-44628522D01*
X31285546Y-44621528D01*
X31274650Y-44590241D01*
X31270489Y-44575436D01*
X31264978Y-44549944D01*
X31264977Y-44549942D01*
X31263489Y-44543058D01*
X31260513Y-44536676D01*
X31260511Y-44536670D01*
X31245379Y-44504219D01*
X31240583Y-44492408D01*
X31228803Y-44458580D01*
X31228799Y-44458571D01*
X31226485Y-44451927D01*
X31208925Y-44423824D01*
X31201594Y-44410323D01*
X31187590Y-44380292D01*
X31161323Y-44346429D01*
X31154029Y-44335973D01*
X31135049Y-44305599D01*
X31131316Y-44299625D01*
X31126240Y-44294513D01*
X31102997Y-44271107D01*
X31102415Y-44270485D01*
X31101901Y-44269823D01*
X31076041Y-44243963D01*
X31004770Y-44172193D01*
X31003743Y-44171541D01*
X31002535Y-44170457D01*
X30637405Y-43805327D01*
X30603379Y-43743015D01*
X30600500Y-43716232D01*
X30600500Y-41783768D01*
X30620502Y-41715647D01*
X30637405Y-41694673D01*
X30854673Y-41477405D01*
X30916985Y-41443379D01*
X30943768Y-41440500D01*
X31421615Y-41440500D01*
X31489736Y-41460502D01*
G37*
G04 #@! TD.AperFunction*
G04 #@! TA.AperFunction,Conductor*
G36*
X60897133Y-47420502D02*
G01*
X60943626Y-47474158D01*
X60953730Y-47544432D01*
X60924236Y-47609012D01*
X60905718Y-47626461D01*
X60846738Y-47671718D01*
X60841715Y-47678264D01*
X60822857Y-47702841D01*
X60750484Y-47797159D01*
X60689976Y-47943238D01*
X60688898Y-47951426D01*
X60681931Y-48004347D01*
X60653209Y-48069274D01*
X60593944Y-48108366D01*
X60540563Y-48112823D01*
X60408188Y-48095396D01*
X60400000Y-48094318D01*
X60243238Y-48114956D01*
X60097159Y-48175464D01*
X59971718Y-48271718D01*
X59966695Y-48278264D01*
X59946484Y-48304604D01*
X59875464Y-48397159D01*
X59814956Y-48543238D01*
X59794318Y-48700000D01*
X59814956Y-48856762D01*
X59818116Y-48864390D01*
X59818117Y-48864395D01*
X59830154Y-48893455D01*
X59837743Y-48964045D01*
X59802840Y-49030767D01*
X59571012Y-49262595D01*
X59508700Y-49296621D01*
X59481917Y-49299500D01*
X58326500Y-49299500D01*
X58258379Y-49279498D01*
X58211886Y-49225842D01*
X58200500Y-49173500D01*
X58200500Y-49106731D01*
X58220502Y-49038610D01*
X58228618Y-49028540D01*
X58228282Y-49028282D01*
X58243028Y-49009065D01*
X58324536Y-48902841D01*
X58385044Y-48756762D01*
X58405682Y-48600000D01*
X58385044Y-48443238D01*
X58324536Y-48297159D01*
X58250205Y-48200289D01*
X58233305Y-48178264D01*
X58228282Y-48171718D01*
X58102841Y-48075464D01*
X57956762Y-48014956D01*
X57800000Y-47994318D01*
X57791812Y-47995396D01*
X57791811Y-47995396D01*
X57677514Y-48010443D01*
X57607365Y-47999503D01*
X57554267Y-47952375D01*
X57539361Y-47918132D01*
X57482585Y-47706239D01*
X57478839Y-47695947D01*
X57424655Y-47579750D01*
X57413994Y-47509559D01*
X57442974Y-47444746D01*
X57502393Y-47405889D01*
X57538850Y-47400500D01*
X60829012Y-47400500D01*
X60897133Y-47420502D01*
G37*
G04 #@! TD.AperFunction*
G04 #@! TA.AperFunction,Conductor*
G36*
X42397509Y-46620031D02*
G01*
X42444002Y-46673687D01*
X42454106Y-46743961D01*
X42424612Y-46808541D01*
X42418483Y-46815124D01*
X42271012Y-46962595D01*
X42208700Y-46996621D01*
X42181917Y-46999500D01*
X40618083Y-46999500D01*
X40549962Y-46979498D01*
X40528987Y-46962595D01*
X40381517Y-46815124D01*
X40347492Y-46752812D01*
X40352557Y-46681996D01*
X40395104Y-46625161D01*
X40461625Y-46600350D01*
X40470613Y-46600029D01*
X42329388Y-46600029D01*
X42397509Y-46620031D01*
G37*
G04 #@! TD.AperFunction*
G04 #@! TA.AperFunction,Conductor*
G36*
X48278274Y-37502051D02*
G01*
X48300000Y-37505492D01*
X48321726Y-37502051D01*
X48341436Y-37500500D01*
X50076341Y-37500500D01*
X50144462Y-37520502D01*
X50190955Y-37574158D01*
X50201263Y-37642945D01*
X50195604Y-37685931D01*
X50193818Y-37699500D01*
X50214456Y-37856262D01*
X50274964Y-38002341D01*
X50279991Y-38008892D01*
X50362394Y-38116283D01*
X50387994Y-38182504D01*
X50373729Y-38252053D01*
X50351526Y-38282082D01*
X49975117Y-38658491D01*
X49912805Y-38692517D01*
X49899945Y-38693899D01*
X49900000Y-38694318D01*
X49743238Y-38714956D01*
X49597159Y-38775464D01*
X49471718Y-38871718D01*
X49375464Y-38997159D01*
X49314956Y-39143238D01*
X49294318Y-39300000D01*
X49314956Y-39456762D01*
X49375464Y-39602841D01*
X49394104Y-39627133D01*
X49450017Y-39700000D01*
X49471718Y-39728282D01*
X49597159Y-39824536D01*
X49743238Y-39885044D01*
X49900000Y-39905682D01*
X49908188Y-39904604D01*
X50048574Y-39886122D01*
X50056762Y-39885044D01*
X50202841Y-39824536D01*
X50328282Y-39728282D01*
X50349984Y-39700000D01*
X50405896Y-39627133D01*
X50424536Y-39602841D01*
X50485044Y-39456762D01*
X50505682Y-39300000D01*
X50508596Y-39300384D01*
X50524606Y-39245857D01*
X50541509Y-39224883D01*
X51127550Y-38638842D01*
X51132052Y-38630007D01*
X51137538Y-38619241D01*
X51147868Y-38602384D01*
X51154966Y-38592615D01*
X51154967Y-38592612D01*
X51160796Y-38584590D01*
X51167595Y-38563666D01*
X51175159Y-38545406D01*
X51180644Y-38534641D01*
X51180645Y-38534637D01*
X51185146Y-38525804D01*
X51188587Y-38504078D01*
X51193203Y-38484853D01*
X51196935Y-38473368D01*
X51196936Y-38473364D01*
X51200000Y-38463933D01*
X51200000Y-38206231D01*
X51220002Y-38138110D01*
X51228118Y-38128040D01*
X51227782Y-38127782D01*
X51242002Y-38109250D01*
X51324036Y-38002341D01*
X51384544Y-37856262D01*
X51405182Y-37699500D01*
X51403396Y-37685931D01*
X51397737Y-37642945D01*
X51408677Y-37572797D01*
X51455805Y-37519698D01*
X51522659Y-37500500D01*
X53776841Y-37500500D01*
X53844962Y-37520502D01*
X53891455Y-37574158D01*
X53901763Y-37642945D01*
X53896104Y-37685931D01*
X53894318Y-37699500D01*
X53914956Y-37856262D01*
X53975464Y-38002341D01*
X53980491Y-38008892D01*
X54062895Y-38116283D01*
X54071718Y-38127782D01*
X54197159Y-38224036D01*
X54343238Y-38284544D01*
X54500000Y-38305182D01*
X54508188Y-38304104D01*
X54648574Y-38285622D01*
X54656762Y-38284544D01*
X54802841Y-38224036D01*
X54809394Y-38219008D01*
X54809397Y-38219006D01*
X54873821Y-38169572D01*
X54940041Y-38143971D01*
X55009590Y-38158236D01*
X55060386Y-38207837D01*
X55076302Y-38277026D01*
X55066934Y-38317752D01*
X55034043Y-38397159D01*
X55014956Y-38443238D01*
X54994318Y-38600000D01*
X55014956Y-38756762D01*
X55075464Y-38902841D01*
X55171718Y-39028282D01*
X55178264Y-39033305D01*
X55198094Y-39048521D01*
X55297159Y-39124536D01*
X55373650Y-39156220D01*
X55428930Y-39200767D01*
X55451351Y-39268130D01*
X55433793Y-39336922D01*
X55396137Y-39374133D01*
X55397159Y-39375464D01*
X55288448Y-39458881D01*
X55271718Y-39471718D01*
X55266695Y-39478264D01*
X55254888Y-39493651D01*
X55175464Y-39597159D01*
X55114956Y-39743238D01*
X55094318Y-39900000D01*
X55091404Y-39899616D01*
X55075394Y-39954142D01*
X55058491Y-39975116D01*
X52218989Y-42814618D01*
X52178112Y-42841932D01*
X52150876Y-42853214D01*
X52097159Y-42875464D01*
X51971718Y-42971718D01*
X51875464Y-43097159D01*
X51814956Y-43243238D01*
X51794318Y-43400000D01*
X51814956Y-43556762D01*
X51875464Y-43702841D01*
X51971718Y-43828282D01*
X52097159Y-43924536D01*
X52104788Y-43927696D01*
X52104793Y-43927699D01*
X52143497Y-43943731D01*
X52198778Y-43988279D01*
X52221198Y-44055643D01*
X52203639Y-44124434D01*
X52184373Y-44149234D01*
X52171012Y-44162595D01*
X52108700Y-44196621D01*
X52081917Y-44199500D01*
X36116500Y-44199500D01*
X36048379Y-44179498D01*
X36001886Y-44125842D01*
X35990500Y-44073500D01*
X35990500Y-42285354D01*
X35987382Y-42259154D01*
X35941939Y-42156847D01*
X35933444Y-42148366D01*
X35870945Y-42085977D01*
X35862713Y-42077759D01*
X35852076Y-42073056D01*
X35852074Y-42073055D01*
X35784629Y-42043238D01*
X35760327Y-42032494D01*
X35750916Y-42031397D01*
X35741776Y-42028905D01*
X35742191Y-42027384D01*
X35686568Y-42003761D01*
X35646598Y-41945085D01*
X35640500Y-41906361D01*
X35640500Y-41720438D01*
X36792000Y-41720438D01*
X36792337Y-41726953D01*
X36801894Y-41819057D01*
X36804788Y-41832456D01*
X36854381Y-41981107D01*
X36860555Y-41994286D01*
X36942788Y-42127173D01*
X36951824Y-42138574D01*
X37062429Y-42248986D01*
X37073840Y-42257998D01*
X37206880Y-42340004D01*
X37220061Y-42346151D01*
X37368814Y-42395491D01*
X37385827Y-42399138D01*
X37448242Y-42432975D01*
X37482454Y-42495185D01*
X37477603Y-42566015D01*
X37436118Y-42622302D01*
X37378267Y-42666692D01*
X37378264Y-42666695D01*
X37371718Y-42671718D01*
X37275464Y-42797159D01*
X37214956Y-42943238D01*
X37194318Y-43100000D01*
X37195396Y-43108188D01*
X37212579Y-43238703D01*
X37214956Y-43256762D01*
X37275464Y-43402841D01*
X37371718Y-43528282D01*
X37497159Y-43624536D01*
X37643238Y-43685044D01*
X37651426Y-43686122D01*
X37694646Y-43691812D01*
X37800000Y-43705682D01*
X37808188Y-43704604D01*
X37821580Y-43702841D01*
X37905354Y-43691812D01*
X37948574Y-43686122D01*
X37956762Y-43685044D01*
X38102841Y-43624536D01*
X38228282Y-43528282D01*
X38324536Y-43402841D01*
X38385044Y-43256762D01*
X38387422Y-43238703D01*
X38404604Y-43108188D01*
X38405682Y-43100000D01*
X38385044Y-42943238D01*
X38324536Y-42797159D01*
X38228282Y-42671718D01*
X38221736Y-42666695D01*
X38221732Y-42666691D01*
X38136293Y-42601131D01*
X38094426Y-42543793D01*
X38090204Y-42472922D01*
X38124968Y-42411019D01*
X38173122Y-42381645D01*
X38281105Y-42345620D01*
X38294286Y-42339445D01*
X38427173Y-42257212D01*
X38438574Y-42248176D01*
X38548986Y-42137571D01*
X38557998Y-42126160D01*
X38562333Y-42119127D01*
X38615105Y-42071634D01*
X38685176Y-42060210D01*
X38745773Y-42084881D01*
X38807760Y-42131933D01*
X38807764Y-42131935D01*
X38812247Y-42135338D01*
X38814605Y-42137128D01*
X38814335Y-42137483D01*
X38859883Y-42184261D01*
X38874500Y-42243167D01*
X38874500Y-42725321D01*
X38854498Y-42793442D01*
X38848462Y-42802025D01*
X38780494Y-42890603D01*
X38780492Y-42890606D01*
X38775464Y-42897159D01*
X38714956Y-43043238D01*
X38694318Y-43200000D01*
X38714956Y-43356762D01*
X38775464Y-43502841D01*
X38871718Y-43628282D01*
X38997159Y-43724536D01*
X39143238Y-43785044D01*
X39300000Y-43805682D01*
X39308188Y-43804604D01*
X39448574Y-43786122D01*
X39456762Y-43785044D01*
X39602841Y-43724536D01*
X39728282Y-43628282D01*
X39824536Y-43502841D01*
X39885044Y-43356762D01*
X39905682Y-43200000D01*
X40194318Y-43200000D01*
X40214956Y-43356762D01*
X40275464Y-43502841D01*
X40371718Y-43628282D01*
X40497159Y-43724536D01*
X40643238Y-43785044D01*
X40800000Y-43805682D01*
X40808188Y-43804604D01*
X40948574Y-43786122D01*
X40956762Y-43785044D01*
X41102841Y-43724536D01*
X41228282Y-43628282D01*
X41324536Y-43502841D01*
X41385044Y-43356762D01*
X41405682Y-43200000D01*
X41385044Y-43043238D01*
X41324536Y-42897159D01*
X41228282Y-42771718D01*
X41102841Y-42675464D01*
X40956762Y-42614956D01*
X40800000Y-42594318D01*
X40643238Y-42614956D01*
X40497159Y-42675464D01*
X40371718Y-42771718D01*
X40275464Y-42897159D01*
X40214956Y-43043238D01*
X40194318Y-43200000D01*
X39905682Y-43200000D01*
X39885044Y-43043238D01*
X39824536Y-42897159D01*
X39819508Y-42890606D01*
X39819506Y-42890603D01*
X39751538Y-42802025D01*
X39725937Y-42735805D01*
X39725500Y-42725321D01*
X39725500Y-42243167D01*
X39745502Y-42175046D01*
X39785518Y-42137289D01*
X39785395Y-42137128D01*
X39785396Y-42137127D01*
X39900078Y-42050078D01*
X39987128Y-41935395D01*
X40040129Y-41801528D01*
X40050500Y-41715829D01*
X40050499Y-41295438D01*
X42667000Y-41295438D01*
X42667337Y-41301953D01*
X42676894Y-41394057D01*
X42679788Y-41407456D01*
X42729381Y-41556107D01*
X42735555Y-41569286D01*
X42817788Y-41702173D01*
X42826824Y-41713574D01*
X42937429Y-41823986D01*
X42948840Y-41832998D01*
X43081880Y-41915004D01*
X43095061Y-41921151D01*
X43243814Y-41970491D01*
X43257190Y-41973358D01*
X43348097Y-41982672D01*
X43353126Y-41982929D01*
X43368124Y-41978525D01*
X43369329Y-41977135D01*
X43371000Y-41969452D01*
X43371000Y-41272115D01*
X43366525Y-41256876D01*
X43365135Y-41255671D01*
X43357452Y-41254000D01*
X42685115Y-41254000D01*
X42669876Y-41258475D01*
X42668671Y-41259865D01*
X42667000Y-41267548D01*
X42667000Y-41295438D01*
X40050499Y-41295438D01*
X40050499Y-41134172D01*
X40049936Y-41129514D01*
X40041101Y-41056505D01*
X40040129Y-41048472D01*
X39987128Y-40914605D01*
X39900078Y-40799922D01*
X39805174Y-40727885D01*
X42667000Y-40727885D01*
X42671475Y-40743124D01*
X42672865Y-40744329D01*
X42680548Y-40746000D01*
X43352885Y-40746000D01*
X43368124Y-40741525D01*
X43369329Y-40740135D01*
X43371000Y-40732452D01*
X43371000Y-40035115D01*
X43366525Y-40019876D01*
X43365135Y-40018671D01*
X43357452Y-40017000D01*
X43354562Y-40017000D01*
X43348047Y-40017337D01*
X43255943Y-40026894D01*
X43242544Y-40029788D01*
X43093893Y-40079381D01*
X43080714Y-40085555D01*
X42947827Y-40167788D01*
X42936426Y-40176824D01*
X42826014Y-40287429D01*
X42817002Y-40298840D01*
X42734996Y-40431880D01*
X42728849Y-40445061D01*
X42679509Y-40593814D01*
X42676642Y-40607190D01*
X42667328Y-40698097D01*
X42667000Y-40704514D01*
X42667000Y-40727885D01*
X39805174Y-40727885D01*
X39785395Y-40712872D01*
X39651528Y-40659871D01*
X39565829Y-40649500D01*
X39300176Y-40649500D01*
X39034172Y-40649501D01*
X39030415Y-40649956D01*
X39030409Y-40649956D01*
X38963215Y-40658087D01*
X38948472Y-40659871D01*
X38940949Y-40662849D01*
X38940947Y-40662850D01*
X38870251Y-40690841D01*
X38814605Y-40712872D01*
X38745675Y-40765194D01*
X38679322Y-40790446D01*
X38609849Y-40775818D01*
X38562352Y-40731133D01*
X38557212Y-40722827D01*
X38548176Y-40711426D01*
X38437571Y-40601014D01*
X38426160Y-40592002D01*
X38293120Y-40509996D01*
X38279939Y-40503849D01*
X38131186Y-40454509D01*
X38117810Y-40451642D01*
X38026903Y-40442328D01*
X38021874Y-40442071D01*
X38006876Y-40446475D01*
X38005671Y-40447865D01*
X38004000Y-40455548D01*
X38004000Y-41553000D01*
X37983998Y-41621121D01*
X37930342Y-41667614D01*
X37878000Y-41679000D01*
X36810115Y-41679000D01*
X36794876Y-41683475D01*
X36793671Y-41684865D01*
X36792000Y-41692548D01*
X36792000Y-41720438D01*
X35640500Y-41720438D01*
X35640500Y-41522414D01*
X35660502Y-41454293D01*
X35669626Y-41441845D01*
X35709070Y-41394418D01*
X35792219Y-41294442D01*
X35795043Y-41289399D01*
X35795046Y-41289395D01*
X35871495Y-41152885D01*
X36792000Y-41152885D01*
X36796475Y-41168124D01*
X36797865Y-41169329D01*
X36805548Y-41171000D01*
X37477885Y-41171000D01*
X37493124Y-41166525D01*
X37494329Y-41165135D01*
X37496000Y-41157452D01*
X37496000Y-40460115D01*
X37491525Y-40444876D01*
X37490135Y-40443671D01*
X37482452Y-40442000D01*
X37479562Y-40442000D01*
X37473047Y-40442337D01*
X37380943Y-40451894D01*
X37367544Y-40454788D01*
X37218893Y-40504381D01*
X37205714Y-40510555D01*
X37072827Y-40592788D01*
X37061426Y-40601824D01*
X36951014Y-40712429D01*
X36942002Y-40723840D01*
X36859996Y-40856880D01*
X36853849Y-40870061D01*
X36804509Y-41018814D01*
X36801642Y-41032190D01*
X36792328Y-41123097D01*
X36792000Y-41129514D01*
X36792000Y-41152885D01*
X35871495Y-41152885D01*
X35892713Y-41114998D01*
X35892714Y-41114996D01*
X35895537Y-41109955D01*
X35897393Y-41104488D01*
X35897395Y-41104483D01*
X35955859Y-40932251D01*
X35963504Y-40909730D01*
X35966241Y-40890859D01*
X35993314Y-40704140D01*
X35993314Y-40704138D01*
X35993846Y-40700470D01*
X35995429Y-40640000D01*
X35976081Y-40429440D01*
X35918686Y-40225931D01*
X35913615Y-40215647D01*
X35827719Y-40041469D01*
X35825165Y-40036290D01*
X35729507Y-39908188D01*
X35702104Y-39871491D01*
X35702103Y-39871490D01*
X35698651Y-39866867D01*
X35694414Y-39862950D01*
X35694410Y-39862946D01*
X35680972Y-39850524D01*
X35644526Y-39789596D01*
X35640500Y-39757999D01*
X35640500Y-39026500D01*
X35660502Y-38958379D01*
X35714158Y-38911886D01*
X35766500Y-38900500D01*
X43316232Y-38900500D01*
X43384353Y-38920502D01*
X43405327Y-38937405D01*
X44365890Y-39897968D01*
X44368650Y-39900172D01*
X44368652Y-39900173D01*
X44442829Y-39959387D01*
X44452009Y-39972479D01*
X44459852Y-39974178D01*
X44465529Y-39977508D01*
X44470734Y-39981663D01*
X44477071Y-39984726D01*
X44477075Y-39984729D01*
X44581303Y-40035115D01*
X44632422Y-40059827D01*
X44639283Y-40061411D01*
X44645235Y-40062785D01*
X44707110Y-40097598D01*
X44740342Y-40160337D01*
X44734380Y-40231082D01*
X44691225Y-40287230D01*
X44689605Y-40287872D01*
X44620675Y-40340194D01*
X44554322Y-40365446D01*
X44484849Y-40350818D01*
X44437352Y-40306133D01*
X44432212Y-40297827D01*
X44423176Y-40286426D01*
X44310545Y-40173991D01*
X44308613Y-40170460D01*
X44298105Y-40165119D01*
X44168120Y-40084996D01*
X44154939Y-40078849D01*
X44006186Y-40029509D01*
X43992810Y-40026642D01*
X43901903Y-40017328D01*
X43896874Y-40017071D01*
X43881876Y-40021475D01*
X43880671Y-40022865D01*
X43879000Y-40030548D01*
X43879000Y-41964885D01*
X43883475Y-41980124D01*
X43884865Y-41981329D01*
X43892548Y-41983000D01*
X43895438Y-41983000D01*
X43901953Y-41982663D01*
X43994057Y-41973106D01*
X44007456Y-41970212D01*
X44156107Y-41920619D01*
X44169286Y-41914445D01*
X44302173Y-41832212D01*
X44313574Y-41823176D01*
X44423986Y-41712571D01*
X44432998Y-41701160D01*
X44437333Y-41694127D01*
X44490105Y-41646634D01*
X44560176Y-41635210D01*
X44620773Y-41659881D01*
X44689605Y-41712128D01*
X44823472Y-41765129D01*
X44909171Y-41775500D01*
X45174824Y-41775500D01*
X45440828Y-41775499D01*
X45444585Y-41775044D01*
X45444591Y-41775044D01*
X45518495Y-41766101D01*
X45526528Y-41765129D01*
X45534051Y-41762151D01*
X45534053Y-41762150D01*
X45639406Y-41720438D01*
X45660395Y-41712128D01*
X45756340Y-41639301D01*
X45768238Y-41630270D01*
X45775078Y-41625078D01*
X45862128Y-41510395D01*
X45915129Y-41376528D01*
X45925500Y-41290829D01*
X45925499Y-40709172D01*
X45924936Y-40704514D01*
X45916101Y-40631505D01*
X45915129Y-40623472D01*
X45906238Y-40601014D01*
X45873403Y-40518083D01*
X45862128Y-40489605D01*
X45775078Y-40374922D01*
X45660395Y-40287872D01*
X45660665Y-40287517D01*
X45615117Y-40240739D01*
X45600500Y-40181833D01*
X45600500Y-39718931D01*
X45613445Y-39663302D01*
X45641532Y-39606220D01*
X45657940Y-39572875D01*
X45684436Y-39461658D01*
X45697928Y-39405026D01*
X45697928Y-39405023D01*
X45699560Y-39398174D01*
X45700341Y-39323659D01*
X45700816Y-39278264D01*
X45701441Y-39218593D01*
X45663489Y-39043058D01*
X45587590Y-38880292D01*
X45583250Y-38874696D01*
X45510176Y-38780491D01*
X45501901Y-38769823D01*
X44447673Y-37715595D01*
X44413647Y-37653283D01*
X44418712Y-37582468D01*
X44461259Y-37525632D01*
X44527779Y-37500821D01*
X44536768Y-37500500D01*
X48258564Y-37500500D01*
X48278274Y-37502051D01*
G37*
G04 #@! TD.AperFunction*
G04 #@! TD*
M02*
