G04 #@! TF.GenerationSoftware,KiCad,Pcbnew,6.0.6+dfsg-1~bpo11+1*
G04 #@! TF.CreationDate,2022-07-19T19:35:54+02:00*
G04 #@! TF.ProjectId,EnergyMeter,456e6572-6779-44d6-9574-65722e6b6963,rev?*
G04 #@! TF.SameCoordinates,Original*
G04 #@! TF.FileFunction,Legend,Top*
G04 #@! TF.FilePolarity,Positive*
%FSLAX46Y46*%
G04 Gerber Fmt 4.6, Leading zero omitted, Abs format (unit mm)*
G04 Created by KiCad (PCBNEW 6.0.6+dfsg-1~bpo11+1) date 2022-07-19 19:35:54*
%MOMM*%
%LPD*%
G01*
G04 APERTURE LIST*
%ADD10C,0.150000*%
%ADD11C,0.120000*%
%ADD12C,0.100000*%
G04 APERTURE END LIST*
D10*
G04 #@! TO.C,U2*
X47713095Y-37402380D02*
X47713095Y-38211904D01*
X47760714Y-38307142D01*
X47808333Y-38354761D01*
X47903571Y-38402380D01*
X48094047Y-38402380D01*
X48189285Y-38354761D01*
X48236904Y-38307142D01*
X48284523Y-38211904D01*
X48284523Y-37402380D01*
X48713095Y-37497619D02*
X48760714Y-37450000D01*
X48855952Y-37402380D01*
X49094047Y-37402380D01*
X49189285Y-37450000D01*
X49236904Y-37497619D01*
X49284523Y-37592857D01*
X49284523Y-37688095D01*
X49236904Y-37830952D01*
X48665476Y-38402380D01*
X49284523Y-38402380D01*
G04 #@! TO.C,C11*
X31187142Y-50442857D02*
X31234761Y-50490476D01*
X31282380Y-50633333D01*
X31282380Y-50728571D01*
X31234761Y-50871428D01*
X31139523Y-50966666D01*
X31044285Y-51014285D01*
X30853809Y-51061904D01*
X30710952Y-51061904D01*
X30520476Y-51014285D01*
X30425238Y-50966666D01*
X30330000Y-50871428D01*
X30282380Y-50728571D01*
X30282380Y-50633333D01*
X30330000Y-50490476D01*
X30377619Y-50442857D01*
X31282380Y-49490476D02*
X31282380Y-50061904D01*
X31282380Y-49776190D02*
X30282380Y-49776190D01*
X30425238Y-49871428D01*
X30520476Y-49966666D01*
X30568095Y-50061904D01*
X31282380Y-48538095D02*
X31282380Y-49109523D01*
X31282380Y-48823809D02*
X30282380Y-48823809D01*
X30425238Y-48919047D01*
X30520476Y-49014285D01*
X30568095Y-49109523D01*
G04 #@! TO.C,U1*
X49852380Y-25061904D02*
X50661904Y-25061904D01*
X50757142Y-25014285D01*
X50804761Y-24966666D01*
X50852380Y-24871428D01*
X50852380Y-24680952D01*
X50804761Y-24585714D01*
X50757142Y-24538095D01*
X50661904Y-24490476D01*
X49852380Y-24490476D01*
X50852380Y-23490476D02*
X50852380Y-24061904D01*
X50852380Y-23776190D02*
X49852380Y-23776190D01*
X49995238Y-23871428D01*
X50090476Y-23966666D01*
X50138095Y-24061904D01*
G04 #@! TO.C,R3*
X47533333Y-46657380D02*
X47200000Y-46181190D01*
X46961904Y-46657380D02*
X46961904Y-45657380D01*
X47342857Y-45657380D01*
X47438095Y-45705000D01*
X47485714Y-45752619D01*
X47533333Y-45847857D01*
X47533333Y-45990714D01*
X47485714Y-46085952D01*
X47438095Y-46133571D01*
X47342857Y-46181190D01*
X46961904Y-46181190D01*
X47866666Y-45657380D02*
X48485714Y-45657380D01*
X48152380Y-46038333D01*
X48295238Y-46038333D01*
X48390476Y-46085952D01*
X48438095Y-46133571D01*
X48485714Y-46228809D01*
X48485714Y-46466904D01*
X48438095Y-46562142D01*
X48390476Y-46609761D01*
X48295238Y-46657380D01*
X48009523Y-46657380D01*
X47914285Y-46609761D01*
X47866666Y-46562142D01*
G04 #@! TO.C,R18*
X49422380Y-58142857D02*
X48946190Y-58476190D01*
X49422380Y-58714285D02*
X48422380Y-58714285D01*
X48422380Y-58333333D01*
X48470000Y-58238095D01*
X48517619Y-58190476D01*
X48612857Y-58142857D01*
X48755714Y-58142857D01*
X48850952Y-58190476D01*
X48898571Y-58238095D01*
X48946190Y-58333333D01*
X48946190Y-58714285D01*
X49422380Y-57190476D02*
X49422380Y-57761904D01*
X49422380Y-57476190D02*
X48422380Y-57476190D01*
X48565238Y-57571428D01*
X48660476Y-57666666D01*
X48708095Y-57761904D01*
X48850952Y-56619047D02*
X48803333Y-56714285D01*
X48755714Y-56761904D01*
X48660476Y-56809523D01*
X48612857Y-56809523D01*
X48517619Y-56761904D01*
X48470000Y-56714285D01*
X48422380Y-56619047D01*
X48422380Y-56428571D01*
X48470000Y-56333333D01*
X48517619Y-56285714D01*
X48612857Y-56238095D01*
X48660476Y-56238095D01*
X48755714Y-56285714D01*
X48803333Y-56333333D01*
X48850952Y-56428571D01*
X48850952Y-56619047D01*
X48898571Y-56714285D01*
X48946190Y-56761904D01*
X49041428Y-56809523D01*
X49231904Y-56809523D01*
X49327142Y-56761904D01*
X49374761Y-56714285D01*
X49422380Y-56619047D01*
X49422380Y-56428571D01*
X49374761Y-56333333D01*
X49327142Y-56285714D01*
X49231904Y-56238095D01*
X49041428Y-56238095D01*
X48946190Y-56285714D01*
X48898571Y-56333333D01*
X48850952Y-56428571D01*
G04 #@! TO.C,R9*
X36483333Y-37202380D02*
X36150000Y-36726190D01*
X35911904Y-37202380D02*
X35911904Y-36202380D01*
X36292857Y-36202380D01*
X36388095Y-36250000D01*
X36435714Y-36297619D01*
X36483333Y-36392857D01*
X36483333Y-36535714D01*
X36435714Y-36630952D01*
X36388095Y-36678571D01*
X36292857Y-36726190D01*
X35911904Y-36726190D01*
X36959523Y-37202380D02*
X37150000Y-37202380D01*
X37245238Y-37154761D01*
X37292857Y-37107142D01*
X37388095Y-36964285D01*
X37435714Y-36773809D01*
X37435714Y-36392857D01*
X37388095Y-36297619D01*
X37340476Y-36250000D01*
X37245238Y-36202380D01*
X37054761Y-36202380D01*
X36959523Y-36250000D01*
X36911904Y-36297619D01*
X36864285Y-36392857D01*
X36864285Y-36630952D01*
X36911904Y-36726190D01*
X36959523Y-36773809D01*
X37054761Y-36821428D01*
X37245238Y-36821428D01*
X37340476Y-36773809D01*
X37388095Y-36726190D01*
X37435714Y-36630952D01*
G04 #@! TO.C,C1*
X45855682Y-45332142D02*
X45808063Y-45379761D01*
X45665206Y-45427380D01*
X45569968Y-45427380D01*
X45427110Y-45379761D01*
X45331872Y-45284523D01*
X45284253Y-45189285D01*
X45236634Y-44998809D01*
X45236634Y-44855952D01*
X45284253Y-44665476D01*
X45331872Y-44570238D01*
X45427110Y-44475000D01*
X45569968Y-44427380D01*
X45665206Y-44427380D01*
X45808063Y-44475000D01*
X45855682Y-44522619D01*
X46808063Y-45427380D02*
X46236634Y-45427380D01*
X46522349Y-45427380D02*
X46522349Y-44427380D01*
X46427110Y-44570238D01*
X46331872Y-44665476D01*
X46236634Y-44713095D01*
G04 #@! TO.C,U5*
X72738095Y-48952380D02*
X72738095Y-49761904D01*
X72785714Y-49857142D01*
X72833333Y-49904761D01*
X72928571Y-49952380D01*
X73119047Y-49952380D01*
X73214285Y-49904761D01*
X73261904Y-49857142D01*
X73309523Y-49761904D01*
X73309523Y-48952380D01*
X74261904Y-48952380D02*
X73785714Y-48952380D01*
X73738095Y-49428571D01*
X73785714Y-49380952D01*
X73880952Y-49333333D01*
X74119047Y-49333333D01*
X74214285Y-49380952D01*
X74261904Y-49428571D01*
X74309523Y-49523809D01*
X74309523Y-49761904D01*
X74261904Y-49857142D01*
X74214285Y-49904761D01*
X74119047Y-49952380D01*
X73880952Y-49952380D01*
X73785714Y-49904761D01*
X73738095Y-49857142D01*
G04 #@! TO.C,R28*
X41372380Y-46142857D02*
X40896190Y-46476190D01*
X41372380Y-46714285D02*
X40372380Y-46714285D01*
X40372380Y-46333333D01*
X40420000Y-46238095D01*
X40467619Y-46190476D01*
X40562857Y-46142857D01*
X40705714Y-46142857D01*
X40800952Y-46190476D01*
X40848571Y-46238095D01*
X40896190Y-46333333D01*
X40896190Y-46714285D01*
X40467619Y-45761904D02*
X40420000Y-45714285D01*
X40372380Y-45619047D01*
X40372380Y-45380952D01*
X40420000Y-45285714D01*
X40467619Y-45238095D01*
X40562857Y-45190476D01*
X40658095Y-45190476D01*
X40800952Y-45238095D01*
X41372380Y-45809523D01*
X41372380Y-45190476D01*
X40800952Y-44619047D02*
X40753333Y-44714285D01*
X40705714Y-44761904D01*
X40610476Y-44809523D01*
X40562857Y-44809523D01*
X40467619Y-44761904D01*
X40420000Y-44714285D01*
X40372380Y-44619047D01*
X40372380Y-44428571D01*
X40420000Y-44333333D01*
X40467619Y-44285714D01*
X40562857Y-44238095D01*
X40610476Y-44238095D01*
X40705714Y-44285714D01*
X40753333Y-44333333D01*
X40800952Y-44428571D01*
X40800952Y-44619047D01*
X40848571Y-44714285D01*
X40896190Y-44761904D01*
X40991428Y-44809523D01*
X41181904Y-44809523D01*
X41277142Y-44761904D01*
X41324761Y-44714285D01*
X41372380Y-44619047D01*
X41372380Y-44428571D01*
X41324761Y-44333333D01*
X41277142Y-44285714D01*
X41181904Y-44238095D01*
X40991428Y-44238095D01*
X40896190Y-44285714D01*
X40848571Y-44333333D01*
X40800952Y-44428571D01*
G04 #@! TO.C,C12*
X29457142Y-53927142D02*
X29409523Y-53974761D01*
X29266666Y-54022380D01*
X29171428Y-54022380D01*
X29028571Y-53974761D01*
X28933333Y-53879523D01*
X28885714Y-53784285D01*
X28838095Y-53593809D01*
X28838095Y-53450952D01*
X28885714Y-53260476D01*
X28933333Y-53165238D01*
X29028571Y-53070000D01*
X29171428Y-53022380D01*
X29266666Y-53022380D01*
X29409523Y-53070000D01*
X29457142Y-53117619D01*
X30409523Y-54022380D02*
X29838095Y-54022380D01*
X30123809Y-54022380D02*
X30123809Y-53022380D01*
X30028571Y-53165238D01*
X29933333Y-53260476D01*
X29838095Y-53308095D01*
X30790476Y-53117619D02*
X30838095Y-53070000D01*
X30933333Y-53022380D01*
X31171428Y-53022380D01*
X31266666Y-53070000D01*
X31314285Y-53117619D01*
X31361904Y-53212857D01*
X31361904Y-53308095D01*
X31314285Y-53450952D01*
X30742857Y-54022380D01*
X31361904Y-54022380D01*
G04 #@! TO.C,R7*
X29233333Y-38052380D02*
X28900000Y-37576190D01*
X28661904Y-38052380D02*
X28661904Y-37052380D01*
X29042857Y-37052380D01*
X29138095Y-37100000D01*
X29185714Y-37147619D01*
X29233333Y-37242857D01*
X29233333Y-37385714D01*
X29185714Y-37480952D01*
X29138095Y-37528571D01*
X29042857Y-37576190D01*
X28661904Y-37576190D01*
X29566666Y-37052380D02*
X30233333Y-37052380D01*
X29804761Y-38052380D01*
G04 #@! TO.C,J4*
X64826666Y-58522380D02*
X64826666Y-59236666D01*
X64779047Y-59379523D01*
X64683809Y-59474761D01*
X64540952Y-59522380D01*
X64445714Y-59522380D01*
X65731428Y-58855714D02*
X65731428Y-59522380D01*
X65493333Y-58474761D02*
X65255238Y-59189047D01*
X65874285Y-59189047D01*
G04 #@! TO.C,C14*
X41887142Y-48367857D02*
X41934761Y-48415476D01*
X41982380Y-48558333D01*
X41982380Y-48653571D01*
X41934761Y-48796428D01*
X41839523Y-48891666D01*
X41744285Y-48939285D01*
X41553809Y-48986904D01*
X41410952Y-48986904D01*
X41220476Y-48939285D01*
X41125238Y-48891666D01*
X41030000Y-48796428D01*
X40982380Y-48653571D01*
X40982380Y-48558333D01*
X41030000Y-48415476D01*
X41077619Y-48367857D01*
X41982380Y-47415476D02*
X41982380Y-47986904D01*
X41982380Y-47701190D02*
X40982380Y-47701190D01*
X41125238Y-47796428D01*
X41220476Y-47891666D01*
X41268095Y-47986904D01*
X41315714Y-46558333D02*
X41982380Y-46558333D01*
X40934761Y-46796428D02*
X41649047Y-47034523D01*
X41649047Y-46415476D01*
G04 #@! TO.C,L1*
X36927380Y-41466666D02*
X36927380Y-41942857D01*
X35927380Y-41942857D01*
X36927380Y-40609523D02*
X36927380Y-41180952D01*
X36927380Y-40895238D02*
X35927380Y-40895238D01*
X36070238Y-40990476D01*
X36165476Y-41085714D01*
X36213095Y-41180952D01*
G04 #@! TO.C,C18*
X46127142Y-58142857D02*
X46174761Y-58190476D01*
X46222380Y-58333333D01*
X46222380Y-58428571D01*
X46174761Y-58571428D01*
X46079523Y-58666666D01*
X45984285Y-58714285D01*
X45793809Y-58761904D01*
X45650952Y-58761904D01*
X45460476Y-58714285D01*
X45365238Y-58666666D01*
X45270000Y-58571428D01*
X45222380Y-58428571D01*
X45222380Y-58333333D01*
X45270000Y-58190476D01*
X45317619Y-58142857D01*
X46222380Y-57190476D02*
X46222380Y-57761904D01*
X46222380Y-57476190D02*
X45222380Y-57476190D01*
X45365238Y-57571428D01*
X45460476Y-57666666D01*
X45508095Y-57761904D01*
X45650952Y-56619047D02*
X45603333Y-56714285D01*
X45555714Y-56761904D01*
X45460476Y-56809523D01*
X45412857Y-56809523D01*
X45317619Y-56761904D01*
X45270000Y-56714285D01*
X45222380Y-56619047D01*
X45222380Y-56428571D01*
X45270000Y-56333333D01*
X45317619Y-56285714D01*
X45412857Y-56238095D01*
X45460476Y-56238095D01*
X45555714Y-56285714D01*
X45603333Y-56333333D01*
X45650952Y-56428571D01*
X45650952Y-56619047D01*
X45698571Y-56714285D01*
X45746190Y-56761904D01*
X45841428Y-56809523D01*
X46031904Y-56809523D01*
X46127142Y-56761904D01*
X46174761Y-56714285D01*
X46222380Y-56619047D01*
X46222380Y-56428571D01*
X46174761Y-56333333D01*
X46127142Y-56285714D01*
X46031904Y-56238095D01*
X45841428Y-56238095D01*
X45746190Y-56285714D01*
X45698571Y-56333333D01*
X45650952Y-56428571D01*
G04 #@! TO.C,R13*
X63322380Y-46942857D02*
X62846190Y-47276190D01*
X63322380Y-47514285D02*
X62322380Y-47514285D01*
X62322380Y-47133333D01*
X62370000Y-47038095D01*
X62417619Y-46990476D01*
X62512857Y-46942857D01*
X62655714Y-46942857D01*
X62750952Y-46990476D01*
X62798571Y-47038095D01*
X62846190Y-47133333D01*
X62846190Y-47514285D01*
X63322380Y-45990476D02*
X63322380Y-46561904D01*
X63322380Y-46276190D02*
X62322380Y-46276190D01*
X62465238Y-46371428D01*
X62560476Y-46466666D01*
X62608095Y-46561904D01*
X62322380Y-45657142D02*
X62322380Y-45038095D01*
X62703333Y-45371428D01*
X62703333Y-45228571D01*
X62750952Y-45133333D01*
X62798571Y-45085714D01*
X62893809Y-45038095D01*
X63131904Y-45038095D01*
X63227142Y-45085714D01*
X63274761Y-45133333D01*
X63322380Y-45228571D01*
X63322380Y-45514285D01*
X63274761Y-45609523D01*
X63227142Y-45657142D01*
G04 #@! TO.C,R24*
X38022380Y-54842857D02*
X37546190Y-55176190D01*
X38022380Y-55414285D02*
X37022380Y-55414285D01*
X37022380Y-55033333D01*
X37070000Y-54938095D01*
X37117619Y-54890476D01*
X37212857Y-54842857D01*
X37355714Y-54842857D01*
X37450952Y-54890476D01*
X37498571Y-54938095D01*
X37546190Y-55033333D01*
X37546190Y-55414285D01*
X37117619Y-54461904D02*
X37070000Y-54414285D01*
X37022380Y-54319047D01*
X37022380Y-54080952D01*
X37070000Y-53985714D01*
X37117619Y-53938095D01*
X37212857Y-53890476D01*
X37308095Y-53890476D01*
X37450952Y-53938095D01*
X38022380Y-54509523D01*
X38022380Y-53890476D01*
X37355714Y-53033333D02*
X38022380Y-53033333D01*
X36974761Y-53271428D02*
X37689047Y-53509523D01*
X37689047Y-52890476D01*
G04 #@! TO.C,R19*
X42357142Y-54122380D02*
X42023809Y-53646190D01*
X41785714Y-54122380D02*
X41785714Y-53122380D01*
X42166666Y-53122380D01*
X42261904Y-53170000D01*
X42309523Y-53217619D01*
X42357142Y-53312857D01*
X42357142Y-53455714D01*
X42309523Y-53550952D01*
X42261904Y-53598571D01*
X42166666Y-53646190D01*
X41785714Y-53646190D01*
X43309523Y-54122380D02*
X42738095Y-54122380D01*
X43023809Y-54122380D02*
X43023809Y-53122380D01*
X42928571Y-53265238D01*
X42833333Y-53360476D01*
X42738095Y-53408095D01*
X43785714Y-54122380D02*
X43976190Y-54122380D01*
X44071428Y-54074761D01*
X44119047Y-54027142D01*
X44214285Y-53884285D01*
X44261904Y-53693809D01*
X44261904Y-53312857D01*
X44214285Y-53217619D01*
X44166666Y-53170000D01*
X44071428Y-53122380D01*
X43880952Y-53122380D01*
X43785714Y-53170000D01*
X43738095Y-53217619D01*
X43690476Y-53312857D01*
X43690476Y-53550952D01*
X43738095Y-53646190D01*
X43785714Y-53693809D01*
X43880952Y-53741428D01*
X44071428Y-53741428D01*
X44166666Y-53693809D01*
X44214285Y-53646190D01*
X44261904Y-53550952D01*
G04 #@! TO.C,R25*
X70857142Y-60182380D02*
X70523809Y-59706190D01*
X70285714Y-60182380D02*
X70285714Y-59182380D01*
X70666666Y-59182380D01*
X70761904Y-59230000D01*
X70809523Y-59277619D01*
X70857142Y-59372857D01*
X70857142Y-59515714D01*
X70809523Y-59610952D01*
X70761904Y-59658571D01*
X70666666Y-59706190D01*
X70285714Y-59706190D01*
X71238095Y-59277619D02*
X71285714Y-59230000D01*
X71380952Y-59182380D01*
X71619047Y-59182380D01*
X71714285Y-59230000D01*
X71761904Y-59277619D01*
X71809523Y-59372857D01*
X71809523Y-59468095D01*
X71761904Y-59610952D01*
X71190476Y-60182380D01*
X71809523Y-60182380D01*
X72714285Y-59182380D02*
X72238095Y-59182380D01*
X72190476Y-59658571D01*
X72238095Y-59610952D01*
X72333333Y-59563333D01*
X72571428Y-59563333D01*
X72666666Y-59610952D01*
X72714285Y-59658571D01*
X72761904Y-59753809D01*
X72761904Y-59991904D01*
X72714285Y-60087142D01*
X72666666Y-60134761D01*
X72571428Y-60182380D01*
X72333333Y-60182380D01*
X72238095Y-60134761D01*
X72190476Y-60087142D01*
G04 #@! TO.C,J5*
X30452380Y-29383333D02*
X31166666Y-29383333D01*
X31309523Y-29430952D01*
X31404761Y-29526190D01*
X31452380Y-29669047D01*
X31452380Y-29764285D01*
X30452380Y-28430952D02*
X30452380Y-28907142D01*
X30928571Y-28954761D01*
X30880952Y-28907142D01*
X30833333Y-28811904D01*
X30833333Y-28573809D01*
X30880952Y-28478571D01*
X30928571Y-28430952D01*
X31023809Y-28383333D01*
X31261904Y-28383333D01*
X31357142Y-28430952D01*
X31404761Y-28478571D01*
X31452380Y-28573809D01*
X31452380Y-28811904D01*
X31404761Y-28907142D01*
X31357142Y-28954761D01*
G04 #@! TO.C,R30*
X50982380Y-36867857D02*
X50506190Y-37201190D01*
X50982380Y-37439285D02*
X49982380Y-37439285D01*
X49982380Y-37058333D01*
X50030000Y-36963095D01*
X50077619Y-36915476D01*
X50172857Y-36867857D01*
X50315714Y-36867857D01*
X50410952Y-36915476D01*
X50458571Y-36963095D01*
X50506190Y-37058333D01*
X50506190Y-37439285D01*
X49982380Y-36534523D02*
X49982380Y-35915476D01*
X50363333Y-36248809D01*
X50363333Y-36105952D01*
X50410952Y-36010714D01*
X50458571Y-35963095D01*
X50553809Y-35915476D01*
X50791904Y-35915476D01*
X50887142Y-35963095D01*
X50934761Y-36010714D01*
X50982380Y-36105952D01*
X50982380Y-36391666D01*
X50934761Y-36486904D01*
X50887142Y-36534523D01*
X49982380Y-35296428D02*
X49982380Y-35201190D01*
X50030000Y-35105952D01*
X50077619Y-35058333D01*
X50172857Y-35010714D01*
X50363333Y-34963095D01*
X50601428Y-34963095D01*
X50791904Y-35010714D01*
X50887142Y-35058333D01*
X50934761Y-35105952D01*
X50982380Y-35201190D01*
X50982380Y-35296428D01*
X50934761Y-35391666D01*
X50887142Y-35439285D01*
X50791904Y-35486904D01*
X50601428Y-35534523D01*
X50363333Y-35534523D01*
X50172857Y-35486904D01*
X50077619Y-35439285D01*
X50030000Y-35391666D01*
X49982380Y-35296428D01*
G04 #@! TO.C,R10*
X48177380Y-36592857D02*
X47701190Y-36926190D01*
X48177380Y-37164285D02*
X47177380Y-37164285D01*
X47177380Y-36783333D01*
X47225000Y-36688095D01*
X47272619Y-36640476D01*
X47367857Y-36592857D01*
X47510714Y-36592857D01*
X47605952Y-36640476D01*
X47653571Y-36688095D01*
X47701190Y-36783333D01*
X47701190Y-37164285D01*
X48177380Y-35640476D02*
X48177380Y-36211904D01*
X48177380Y-35926190D02*
X47177380Y-35926190D01*
X47320238Y-36021428D01*
X47415476Y-36116666D01*
X47463095Y-36211904D01*
X47177380Y-35021428D02*
X47177380Y-34926190D01*
X47225000Y-34830952D01*
X47272619Y-34783333D01*
X47367857Y-34735714D01*
X47558333Y-34688095D01*
X47796428Y-34688095D01*
X47986904Y-34735714D01*
X48082142Y-34783333D01*
X48129761Y-34830952D01*
X48177380Y-34926190D01*
X48177380Y-35021428D01*
X48129761Y-35116666D01*
X48082142Y-35164285D01*
X47986904Y-35211904D01*
X47796428Y-35259523D01*
X47558333Y-35259523D01*
X47367857Y-35211904D01*
X47272619Y-35164285D01*
X47225000Y-35116666D01*
X47177380Y-35021428D01*
G04 #@! TO.C,R16*
X64922380Y-46942857D02*
X64446190Y-47276190D01*
X64922380Y-47514285D02*
X63922380Y-47514285D01*
X63922380Y-47133333D01*
X63970000Y-47038095D01*
X64017619Y-46990476D01*
X64112857Y-46942857D01*
X64255714Y-46942857D01*
X64350952Y-46990476D01*
X64398571Y-47038095D01*
X64446190Y-47133333D01*
X64446190Y-47514285D01*
X64922380Y-45990476D02*
X64922380Y-46561904D01*
X64922380Y-46276190D02*
X63922380Y-46276190D01*
X64065238Y-46371428D01*
X64160476Y-46466666D01*
X64208095Y-46561904D01*
X63922380Y-45133333D02*
X63922380Y-45323809D01*
X63970000Y-45419047D01*
X64017619Y-45466666D01*
X64160476Y-45561904D01*
X64350952Y-45609523D01*
X64731904Y-45609523D01*
X64827142Y-45561904D01*
X64874761Y-45514285D01*
X64922380Y-45419047D01*
X64922380Y-45228571D01*
X64874761Y-45133333D01*
X64827142Y-45085714D01*
X64731904Y-45038095D01*
X64493809Y-45038095D01*
X64398571Y-45085714D01*
X64350952Y-45133333D01*
X64303333Y-45228571D01*
X64303333Y-45419047D01*
X64350952Y-45514285D01*
X64398571Y-45561904D01*
X64493809Y-45609523D01*
G04 #@! TO.C,J6*
X37676666Y-54919880D02*
X37676666Y-55634166D01*
X37629047Y-55777023D01*
X37533809Y-55872261D01*
X37390952Y-55919880D01*
X37295714Y-55919880D01*
X38581428Y-54919880D02*
X38390952Y-54919880D01*
X38295714Y-54967500D01*
X38248095Y-55015119D01*
X38152857Y-55157976D01*
X38105238Y-55348452D01*
X38105238Y-55729404D01*
X38152857Y-55824642D01*
X38200476Y-55872261D01*
X38295714Y-55919880D01*
X38486190Y-55919880D01*
X38581428Y-55872261D01*
X38629047Y-55824642D01*
X38676666Y-55729404D01*
X38676666Y-55491309D01*
X38629047Y-55396071D01*
X38581428Y-55348452D01*
X38486190Y-55300833D01*
X38295714Y-55300833D01*
X38200476Y-55348452D01*
X38152857Y-55396071D01*
X38105238Y-55491309D01*
G04 #@! TO.C,R21*
X39382380Y-55092857D02*
X38906190Y-55426190D01*
X39382380Y-55664285D02*
X38382380Y-55664285D01*
X38382380Y-55283333D01*
X38430000Y-55188095D01*
X38477619Y-55140476D01*
X38572857Y-55092857D01*
X38715714Y-55092857D01*
X38810952Y-55140476D01*
X38858571Y-55188095D01*
X38906190Y-55283333D01*
X38906190Y-55664285D01*
X38477619Y-54711904D02*
X38430000Y-54664285D01*
X38382380Y-54569047D01*
X38382380Y-54330952D01*
X38430000Y-54235714D01*
X38477619Y-54188095D01*
X38572857Y-54140476D01*
X38668095Y-54140476D01*
X38810952Y-54188095D01*
X39382380Y-54759523D01*
X39382380Y-54140476D01*
X39382380Y-53188095D02*
X39382380Y-53759523D01*
X39382380Y-53473809D02*
X38382380Y-53473809D01*
X38525238Y-53569047D01*
X38620476Y-53664285D01*
X38668095Y-53759523D01*
G04 #@! TO.C,C2*
X44483333Y-43677142D02*
X44435714Y-43724761D01*
X44292857Y-43772380D01*
X44197619Y-43772380D01*
X44054761Y-43724761D01*
X43959523Y-43629523D01*
X43911904Y-43534285D01*
X43864285Y-43343809D01*
X43864285Y-43200952D01*
X43911904Y-43010476D01*
X43959523Y-42915238D01*
X44054761Y-42820000D01*
X44197619Y-42772380D01*
X44292857Y-42772380D01*
X44435714Y-42820000D01*
X44483333Y-42867619D01*
X44864285Y-42867619D02*
X44911904Y-42820000D01*
X45007142Y-42772380D01*
X45245238Y-42772380D01*
X45340476Y-42820000D01*
X45388095Y-42867619D01*
X45435714Y-42962857D01*
X45435714Y-43058095D01*
X45388095Y-43200952D01*
X44816666Y-43772380D01*
X45435714Y-43772380D01*
G04 #@! TO.C,D1*
X45052380Y-29038095D02*
X44052380Y-29038095D01*
X44052380Y-28800000D01*
X44100000Y-28657142D01*
X44195238Y-28561904D01*
X44290476Y-28514285D01*
X44480952Y-28466666D01*
X44623809Y-28466666D01*
X44814285Y-28514285D01*
X44909523Y-28561904D01*
X45004761Y-28657142D01*
X45052380Y-28800000D01*
X45052380Y-29038095D01*
X45052380Y-27514285D02*
X45052380Y-28085714D01*
X45052380Y-27800000D02*
X44052380Y-27800000D01*
X44195238Y-27895238D01*
X44290476Y-27990476D01*
X44338095Y-28085714D01*
G04 #@! TO.C,R4*
X49072380Y-44191666D02*
X48596190Y-44525000D01*
X49072380Y-44763095D02*
X48072380Y-44763095D01*
X48072380Y-44382142D01*
X48120000Y-44286904D01*
X48167619Y-44239285D01*
X48262857Y-44191666D01*
X48405714Y-44191666D01*
X48500952Y-44239285D01*
X48548571Y-44286904D01*
X48596190Y-44382142D01*
X48596190Y-44763095D01*
X48405714Y-43334523D02*
X49072380Y-43334523D01*
X48024761Y-43572619D02*
X48739047Y-43810714D01*
X48739047Y-43191666D01*
G04 #@! TO.C,C4*
X66187142Y-55366666D02*
X66234761Y-55414285D01*
X66282380Y-55557142D01*
X66282380Y-55652380D01*
X66234761Y-55795238D01*
X66139523Y-55890476D01*
X66044285Y-55938095D01*
X65853809Y-55985714D01*
X65710952Y-55985714D01*
X65520476Y-55938095D01*
X65425238Y-55890476D01*
X65330000Y-55795238D01*
X65282380Y-55652380D01*
X65282380Y-55557142D01*
X65330000Y-55414285D01*
X65377619Y-55366666D01*
X65615714Y-54509523D02*
X66282380Y-54509523D01*
X65234761Y-54747619D02*
X65949047Y-54985714D01*
X65949047Y-54366666D01*
G04 #@! TO.C,FB1*
X29166666Y-50578571D02*
X28833333Y-50578571D01*
X28833333Y-51102380D02*
X28833333Y-50102380D01*
X29309523Y-50102380D01*
X30023809Y-50578571D02*
X30166666Y-50626190D01*
X30214285Y-50673809D01*
X30261904Y-50769047D01*
X30261904Y-50911904D01*
X30214285Y-51007142D01*
X30166666Y-51054761D01*
X30071428Y-51102380D01*
X29690476Y-51102380D01*
X29690476Y-50102380D01*
X30023809Y-50102380D01*
X30119047Y-50150000D01*
X30166666Y-50197619D01*
X30214285Y-50292857D01*
X30214285Y-50388095D01*
X30166666Y-50483333D01*
X30119047Y-50530952D01*
X30023809Y-50578571D01*
X29690476Y-50578571D01*
X31214285Y-51102380D02*
X30642857Y-51102380D01*
X30928571Y-51102380D02*
X30928571Y-50102380D01*
X30833333Y-50245238D01*
X30738095Y-50340476D01*
X30642857Y-50388095D01*
G04 #@! TO.C,D2*
X50502380Y-29538095D02*
X49502380Y-29538095D01*
X49502380Y-29300000D01*
X49550000Y-29157142D01*
X49645238Y-29061904D01*
X49740476Y-29014285D01*
X49930952Y-28966666D01*
X50073809Y-28966666D01*
X50264285Y-29014285D01*
X50359523Y-29061904D01*
X50454761Y-29157142D01*
X50502380Y-29300000D01*
X50502380Y-29538095D01*
X49597619Y-28585714D02*
X49550000Y-28538095D01*
X49502380Y-28442857D01*
X49502380Y-28204761D01*
X49550000Y-28109523D01*
X49597619Y-28061904D01*
X49692857Y-28014285D01*
X49788095Y-28014285D01*
X49930952Y-28061904D01*
X50502380Y-28633333D01*
X50502380Y-28014285D01*
G04 #@! TO.C,R11*
X66422380Y-46942857D02*
X65946190Y-47276190D01*
X66422380Y-47514285D02*
X65422380Y-47514285D01*
X65422380Y-47133333D01*
X65470000Y-47038095D01*
X65517619Y-46990476D01*
X65612857Y-46942857D01*
X65755714Y-46942857D01*
X65850952Y-46990476D01*
X65898571Y-47038095D01*
X65946190Y-47133333D01*
X65946190Y-47514285D01*
X66422380Y-45990476D02*
X66422380Y-46561904D01*
X66422380Y-46276190D02*
X65422380Y-46276190D01*
X65565238Y-46371428D01*
X65660476Y-46466666D01*
X65708095Y-46561904D01*
X66422380Y-45038095D02*
X66422380Y-45609523D01*
X66422380Y-45323809D02*
X65422380Y-45323809D01*
X65565238Y-45419047D01*
X65660476Y-45514285D01*
X65708095Y-45609523D01*
G04 #@! TO.C,U7*
X35238095Y-52102380D02*
X35238095Y-52911904D01*
X35285714Y-53007142D01*
X35333333Y-53054761D01*
X35428571Y-53102380D01*
X35619047Y-53102380D01*
X35714285Y-53054761D01*
X35761904Y-53007142D01*
X35809523Y-52911904D01*
X35809523Y-52102380D01*
X36190476Y-52102380D02*
X36857142Y-52102380D01*
X36428571Y-53102380D01*
G04 #@! TO.C,R12*
X60122380Y-46942857D02*
X59646190Y-47276190D01*
X60122380Y-47514285D02*
X59122380Y-47514285D01*
X59122380Y-47133333D01*
X59170000Y-47038095D01*
X59217619Y-46990476D01*
X59312857Y-46942857D01*
X59455714Y-46942857D01*
X59550952Y-46990476D01*
X59598571Y-47038095D01*
X59646190Y-47133333D01*
X59646190Y-47514285D01*
X60122380Y-45990476D02*
X60122380Y-46561904D01*
X60122380Y-46276190D02*
X59122380Y-46276190D01*
X59265238Y-46371428D01*
X59360476Y-46466666D01*
X59408095Y-46561904D01*
X59217619Y-45609523D02*
X59170000Y-45561904D01*
X59122380Y-45466666D01*
X59122380Y-45228571D01*
X59170000Y-45133333D01*
X59217619Y-45085714D01*
X59312857Y-45038095D01*
X59408095Y-45038095D01*
X59550952Y-45085714D01*
X60122380Y-45657142D01*
X60122380Y-45038095D01*
G04 #@! TO.C,C15*
X39477142Y-54842857D02*
X39524761Y-54890476D01*
X39572380Y-55033333D01*
X39572380Y-55128571D01*
X39524761Y-55271428D01*
X39429523Y-55366666D01*
X39334285Y-55414285D01*
X39143809Y-55461904D01*
X39000952Y-55461904D01*
X38810476Y-55414285D01*
X38715238Y-55366666D01*
X38620000Y-55271428D01*
X38572380Y-55128571D01*
X38572380Y-55033333D01*
X38620000Y-54890476D01*
X38667619Y-54842857D01*
X39572380Y-53890476D02*
X39572380Y-54461904D01*
X39572380Y-54176190D02*
X38572380Y-54176190D01*
X38715238Y-54271428D01*
X38810476Y-54366666D01*
X38858095Y-54461904D01*
X38572380Y-52985714D02*
X38572380Y-53461904D01*
X39048571Y-53509523D01*
X39000952Y-53461904D01*
X38953333Y-53366666D01*
X38953333Y-53128571D01*
X39000952Y-53033333D01*
X39048571Y-52985714D01*
X39143809Y-52938095D01*
X39381904Y-52938095D01*
X39477142Y-52985714D01*
X39524761Y-53033333D01*
X39572380Y-53128571D01*
X39572380Y-53366666D01*
X39524761Y-53461904D01*
X39477142Y-53509523D01*
G04 #@! TO.C,C16*
X39027142Y-51442857D02*
X39074761Y-51490476D01*
X39122380Y-51633333D01*
X39122380Y-51728571D01*
X39074761Y-51871428D01*
X38979523Y-51966666D01*
X38884285Y-52014285D01*
X38693809Y-52061904D01*
X38550952Y-52061904D01*
X38360476Y-52014285D01*
X38265238Y-51966666D01*
X38170000Y-51871428D01*
X38122380Y-51728571D01*
X38122380Y-51633333D01*
X38170000Y-51490476D01*
X38217619Y-51442857D01*
X39122380Y-50490476D02*
X39122380Y-51061904D01*
X39122380Y-50776190D02*
X38122380Y-50776190D01*
X38265238Y-50871428D01*
X38360476Y-50966666D01*
X38408095Y-51061904D01*
X38122380Y-49633333D02*
X38122380Y-49823809D01*
X38170000Y-49919047D01*
X38217619Y-49966666D01*
X38360476Y-50061904D01*
X38550952Y-50109523D01*
X38931904Y-50109523D01*
X39027142Y-50061904D01*
X39074761Y-50014285D01*
X39122380Y-49919047D01*
X39122380Y-49728571D01*
X39074761Y-49633333D01*
X39027142Y-49585714D01*
X38931904Y-49538095D01*
X38693809Y-49538095D01*
X38598571Y-49585714D01*
X38550952Y-49633333D01*
X38503333Y-49728571D01*
X38503333Y-49919047D01*
X38550952Y-50014285D01*
X38598571Y-50061904D01*
X38693809Y-50109523D01*
G04 #@! TO.C,C5*
X59033333Y-53587142D02*
X58985714Y-53634761D01*
X58842857Y-53682380D01*
X58747619Y-53682380D01*
X58604761Y-53634761D01*
X58509523Y-53539523D01*
X58461904Y-53444285D01*
X58414285Y-53253809D01*
X58414285Y-53110952D01*
X58461904Y-52920476D01*
X58509523Y-52825238D01*
X58604761Y-52730000D01*
X58747619Y-52682380D01*
X58842857Y-52682380D01*
X58985714Y-52730000D01*
X59033333Y-52777619D01*
X59938095Y-52682380D02*
X59461904Y-52682380D01*
X59414285Y-53158571D01*
X59461904Y-53110952D01*
X59557142Y-53063333D01*
X59795238Y-53063333D01*
X59890476Y-53110952D01*
X59938095Y-53158571D01*
X59985714Y-53253809D01*
X59985714Y-53491904D01*
X59938095Y-53587142D01*
X59890476Y-53634761D01*
X59795238Y-53682380D01*
X59557142Y-53682380D01*
X59461904Y-53634761D01*
X59414285Y-53587142D01*
G04 #@! TO.C,Q2*
X41429761Y-38447619D02*
X41334523Y-38400000D01*
X41239285Y-38304761D01*
X41096428Y-38161904D01*
X41001190Y-38114285D01*
X40905952Y-38114285D01*
X40953571Y-38352380D02*
X40858333Y-38304761D01*
X40763095Y-38209523D01*
X40715476Y-38019047D01*
X40715476Y-37685714D01*
X40763095Y-37495238D01*
X40858333Y-37400000D01*
X40953571Y-37352380D01*
X41144047Y-37352380D01*
X41239285Y-37400000D01*
X41334523Y-37495238D01*
X41382142Y-37685714D01*
X41382142Y-38019047D01*
X41334523Y-38209523D01*
X41239285Y-38304761D01*
X41144047Y-38352380D01*
X40953571Y-38352380D01*
X41763095Y-37447619D02*
X41810714Y-37400000D01*
X41905952Y-37352380D01*
X42144047Y-37352380D01*
X42239285Y-37400000D01*
X42286904Y-37447619D01*
X42334523Y-37542857D01*
X42334523Y-37638095D01*
X42286904Y-37780952D01*
X41715476Y-38352380D01*
X42334523Y-38352380D01*
G04 #@! TO.C,J1*
X31637380Y-52743333D02*
X32351666Y-52743333D01*
X32494523Y-52790952D01*
X32589761Y-52886190D01*
X32637380Y-53029047D01*
X32637380Y-53124285D01*
X32637380Y-51743333D02*
X32637380Y-52314761D01*
X32637380Y-52029047D02*
X31637380Y-52029047D01*
X31780238Y-52124285D01*
X31875476Y-52219523D01*
X31923095Y-52314761D01*
G04 #@! TO.C,R2*
X50552380Y-32166666D02*
X50076190Y-32500000D01*
X50552380Y-32738095D02*
X49552380Y-32738095D01*
X49552380Y-32357142D01*
X49600000Y-32261904D01*
X49647619Y-32214285D01*
X49742857Y-32166666D01*
X49885714Y-32166666D01*
X49980952Y-32214285D01*
X50028571Y-32261904D01*
X50076190Y-32357142D01*
X50076190Y-32738095D01*
X49647619Y-31785714D02*
X49600000Y-31738095D01*
X49552380Y-31642857D01*
X49552380Y-31404761D01*
X49600000Y-31309523D01*
X49647619Y-31261904D01*
X49742857Y-31214285D01*
X49838095Y-31214285D01*
X49980952Y-31261904D01*
X50552380Y-31833333D01*
X50552380Y-31214285D01*
G04 #@! TO.C,R14*
X61382380Y-46942857D02*
X60906190Y-47276190D01*
X61382380Y-47514285D02*
X60382380Y-47514285D01*
X60382380Y-47133333D01*
X60430000Y-47038095D01*
X60477619Y-46990476D01*
X60572857Y-46942857D01*
X60715714Y-46942857D01*
X60810952Y-46990476D01*
X60858571Y-47038095D01*
X60906190Y-47133333D01*
X60906190Y-47514285D01*
X61382380Y-45990476D02*
X61382380Y-46561904D01*
X61382380Y-46276190D02*
X60382380Y-46276190D01*
X60525238Y-46371428D01*
X60620476Y-46466666D01*
X60668095Y-46561904D01*
X60715714Y-45133333D02*
X61382380Y-45133333D01*
X60334761Y-45371428D02*
X61049047Y-45609523D01*
X61049047Y-44990476D01*
G04 #@! TO.C,R27*
X74057142Y-60182380D02*
X73723809Y-59706190D01*
X73485714Y-60182380D02*
X73485714Y-59182380D01*
X73866666Y-59182380D01*
X73961904Y-59230000D01*
X74009523Y-59277619D01*
X74057142Y-59372857D01*
X74057142Y-59515714D01*
X74009523Y-59610952D01*
X73961904Y-59658571D01*
X73866666Y-59706190D01*
X73485714Y-59706190D01*
X74438095Y-59277619D02*
X74485714Y-59230000D01*
X74580952Y-59182380D01*
X74819047Y-59182380D01*
X74914285Y-59230000D01*
X74961904Y-59277619D01*
X75009523Y-59372857D01*
X75009523Y-59468095D01*
X74961904Y-59610952D01*
X74390476Y-60182380D01*
X75009523Y-60182380D01*
X75342857Y-59182380D02*
X76009523Y-59182380D01*
X75580952Y-60182380D01*
G04 #@! TO.C,C6*
X75533333Y-51087142D02*
X75485714Y-51134761D01*
X75342857Y-51182380D01*
X75247619Y-51182380D01*
X75104761Y-51134761D01*
X75009523Y-51039523D01*
X74961904Y-50944285D01*
X74914285Y-50753809D01*
X74914285Y-50610952D01*
X74961904Y-50420476D01*
X75009523Y-50325238D01*
X75104761Y-50230000D01*
X75247619Y-50182380D01*
X75342857Y-50182380D01*
X75485714Y-50230000D01*
X75533333Y-50277619D01*
X76390476Y-50182380D02*
X76200000Y-50182380D01*
X76104761Y-50230000D01*
X76057142Y-50277619D01*
X75961904Y-50420476D01*
X75914285Y-50610952D01*
X75914285Y-50991904D01*
X75961904Y-51087142D01*
X76009523Y-51134761D01*
X76104761Y-51182380D01*
X76295238Y-51182380D01*
X76390476Y-51134761D01*
X76438095Y-51087142D01*
X76485714Y-50991904D01*
X76485714Y-50753809D01*
X76438095Y-50658571D01*
X76390476Y-50610952D01*
X76295238Y-50563333D01*
X76104761Y-50563333D01*
X76009523Y-50610952D01*
X75961904Y-50658571D01*
X75914285Y-50753809D01*
G04 #@! TO.C,R20*
X37682380Y-54842857D02*
X37206190Y-55176190D01*
X37682380Y-55414285D02*
X36682380Y-55414285D01*
X36682380Y-55033333D01*
X36730000Y-54938095D01*
X36777619Y-54890476D01*
X36872857Y-54842857D01*
X37015714Y-54842857D01*
X37110952Y-54890476D01*
X37158571Y-54938095D01*
X37206190Y-55033333D01*
X37206190Y-55414285D01*
X36777619Y-54461904D02*
X36730000Y-54414285D01*
X36682380Y-54319047D01*
X36682380Y-54080952D01*
X36730000Y-53985714D01*
X36777619Y-53938095D01*
X36872857Y-53890476D01*
X36968095Y-53890476D01*
X37110952Y-53938095D01*
X37682380Y-54509523D01*
X37682380Y-53890476D01*
X36682380Y-53271428D02*
X36682380Y-53176190D01*
X36730000Y-53080952D01*
X36777619Y-53033333D01*
X36872857Y-52985714D01*
X37063333Y-52938095D01*
X37301428Y-52938095D01*
X37491904Y-52985714D01*
X37587142Y-53033333D01*
X37634761Y-53080952D01*
X37682380Y-53176190D01*
X37682380Y-53271428D01*
X37634761Y-53366666D01*
X37587142Y-53414285D01*
X37491904Y-53461904D01*
X37301428Y-53509523D01*
X37063333Y-53509523D01*
X36872857Y-53461904D01*
X36777619Y-53414285D01*
X36730000Y-53366666D01*
X36682380Y-53271428D01*
G04 #@! TO.C,U6*
X44388095Y-33652380D02*
X44388095Y-34461904D01*
X44435714Y-34557142D01*
X44483333Y-34604761D01*
X44578571Y-34652380D01*
X44769047Y-34652380D01*
X44864285Y-34604761D01*
X44911904Y-34557142D01*
X44959523Y-34461904D01*
X44959523Y-33652380D01*
X45864285Y-33652380D02*
X45673809Y-33652380D01*
X45578571Y-33700000D01*
X45530952Y-33747619D01*
X45435714Y-33890476D01*
X45388095Y-34080952D01*
X45388095Y-34461904D01*
X45435714Y-34557142D01*
X45483333Y-34604761D01*
X45578571Y-34652380D01*
X45769047Y-34652380D01*
X45864285Y-34604761D01*
X45911904Y-34557142D01*
X45959523Y-34461904D01*
X45959523Y-34223809D01*
X45911904Y-34128571D01*
X45864285Y-34080952D01*
X45769047Y-34033333D01*
X45578571Y-34033333D01*
X45483333Y-34080952D01*
X45435714Y-34128571D01*
X45388095Y-34223809D01*
G04 #@! TO.C,J2*
X49826666Y-58522380D02*
X49826666Y-59236666D01*
X49779047Y-59379523D01*
X49683809Y-59474761D01*
X49540952Y-59522380D01*
X49445714Y-59522380D01*
X50255238Y-58617619D02*
X50302857Y-58570000D01*
X50398095Y-58522380D01*
X50636190Y-58522380D01*
X50731428Y-58570000D01*
X50779047Y-58617619D01*
X50826666Y-58712857D01*
X50826666Y-58808095D01*
X50779047Y-58950952D01*
X50207619Y-59522380D01*
X50826666Y-59522380D01*
G04 #@! TO.C,R23*
X36182380Y-54842857D02*
X35706190Y-55176190D01*
X36182380Y-55414285D02*
X35182380Y-55414285D01*
X35182380Y-55033333D01*
X35230000Y-54938095D01*
X35277619Y-54890476D01*
X35372857Y-54842857D01*
X35515714Y-54842857D01*
X35610952Y-54890476D01*
X35658571Y-54938095D01*
X35706190Y-55033333D01*
X35706190Y-55414285D01*
X35277619Y-54461904D02*
X35230000Y-54414285D01*
X35182380Y-54319047D01*
X35182380Y-54080952D01*
X35230000Y-53985714D01*
X35277619Y-53938095D01*
X35372857Y-53890476D01*
X35468095Y-53890476D01*
X35610952Y-53938095D01*
X36182380Y-54509523D01*
X36182380Y-53890476D01*
X35182380Y-53557142D02*
X35182380Y-52938095D01*
X35563333Y-53271428D01*
X35563333Y-53128571D01*
X35610952Y-53033333D01*
X35658571Y-52985714D01*
X35753809Y-52938095D01*
X35991904Y-52938095D01*
X36087142Y-52985714D01*
X36134761Y-53033333D01*
X36182380Y-53128571D01*
X36182380Y-53414285D01*
X36134761Y-53509523D01*
X36087142Y-53557142D01*
G04 #@! TO.C,D3*
X36661904Y-40002380D02*
X36661904Y-39002380D01*
X36900000Y-39002380D01*
X37042857Y-39050000D01*
X37138095Y-39145238D01*
X37185714Y-39240476D01*
X37233333Y-39430952D01*
X37233333Y-39573809D01*
X37185714Y-39764285D01*
X37138095Y-39859523D01*
X37042857Y-39954761D01*
X36900000Y-40002380D01*
X36661904Y-40002380D01*
X37566666Y-39002380D02*
X38185714Y-39002380D01*
X37852380Y-39383333D01*
X37995238Y-39383333D01*
X38090476Y-39430952D01*
X38138095Y-39478571D01*
X38185714Y-39573809D01*
X38185714Y-39811904D01*
X38138095Y-39907142D01*
X38090476Y-39954761D01*
X37995238Y-40002380D01*
X37709523Y-40002380D01*
X37614285Y-39954761D01*
X37566666Y-39907142D01*
G04 #@! TO.C,C13*
X30757142Y-46377142D02*
X30709523Y-46424761D01*
X30566666Y-46472380D01*
X30471428Y-46472380D01*
X30328571Y-46424761D01*
X30233333Y-46329523D01*
X30185714Y-46234285D01*
X30138095Y-46043809D01*
X30138095Y-45900952D01*
X30185714Y-45710476D01*
X30233333Y-45615238D01*
X30328571Y-45520000D01*
X30471428Y-45472380D01*
X30566666Y-45472380D01*
X30709523Y-45520000D01*
X30757142Y-45567619D01*
X31709523Y-46472380D02*
X31138095Y-46472380D01*
X31423809Y-46472380D02*
X31423809Y-45472380D01*
X31328571Y-45615238D01*
X31233333Y-45710476D01*
X31138095Y-45758095D01*
X32042857Y-45472380D02*
X32661904Y-45472380D01*
X32328571Y-45853333D01*
X32471428Y-45853333D01*
X32566666Y-45900952D01*
X32614285Y-45948571D01*
X32661904Y-46043809D01*
X32661904Y-46281904D01*
X32614285Y-46377142D01*
X32566666Y-46424761D01*
X32471428Y-46472380D01*
X32185714Y-46472380D01*
X32090476Y-46424761D01*
X32042857Y-46377142D01*
G04 #@! TO.C,R1*
X45152380Y-32166666D02*
X44676190Y-32500000D01*
X45152380Y-32738095D02*
X44152380Y-32738095D01*
X44152380Y-32357142D01*
X44200000Y-32261904D01*
X44247619Y-32214285D01*
X44342857Y-32166666D01*
X44485714Y-32166666D01*
X44580952Y-32214285D01*
X44628571Y-32261904D01*
X44676190Y-32357142D01*
X44676190Y-32738095D01*
X45152380Y-31214285D02*
X45152380Y-31785714D01*
X45152380Y-31500000D02*
X44152380Y-31500000D01*
X44295238Y-31595238D01*
X44390476Y-31690476D01*
X44438095Y-31785714D01*
G04 #@! TO.C,R5*
X60483333Y-57392380D02*
X60150000Y-56916190D01*
X59911904Y-57392380D02*
X59911904Y-56392380D01*
X60292857Y-56392380D01*
X60388095Y-56440000D01*
X60435714Y-56487619D01*
X60483333Y-56582857D01*
X60483333Y-56725714D01*
X60435714Y-56820952D01*
X60388095Y-56868571D01*
X60292857Y-56916190D01*
X59911904Y-56916190D01*
X61388095Y-56392380D02*
X60911904Y-56392380D01*
X60864285Y-56868571D01*
X60911904Y-56820952D01*
X61007142Y-56773333D01*
X61245238Y-56773333D01*
X61340476Y-56820952D01*
X61388095Y-56868571D01*
X61435714Y-56963809D01*
X61435714Y-57201904D01*
X61388095Y-57297142D01*
X61340476Y-57344761D01*
X61245238Y-57392380D01*
X61007142Y-57392380D01*
X60911904Y-57344761D01*
X60864285Y-57297142D01*
G04 #@! TO.C,Q1*
X38647619Y-37770238D02*
X38600000Y-37865476D01*
X38504761Y-37960714D01*
X38361904Y-38103571D01*
X38314285Y-38198809D01*
X38314285Y-38294047D01*
X38552380Y-38246428D02*
X38504761Y-38341666D01*
X38409523Y-38436904D01*
X38219047Y-38484523D01*
X37885714Y-38484523D01*
X37695238Y-38436904D01*
X37600000Y-38341666D01*
X37552380Y-38246428D01*
X37552380Y-38055952D01*
X37600000Y-37960714D01*
X37695238Y-37865476D01*
X37885714Y-37817857D01*
X38219047Y-37817857D01*
X38409523Y-37865476D01*
X38504761Y-37960714D01*
X38552380Y-38055952D01*
X38552380Y-38246428D01*
X38552380Y-36865476D02*
X38552380Y-37436904D01*
X38552380Y-37151190D02*
X37552380Y-37151190D01*
X37695238Y-37246428D01*
X37790476Y-37341666D01*
X37838095Y-37436904D01*
G04 #@! TO.C,C17*
X32787142Y-50442857D02*
X32834761Y-50490476D01*
X32882380Y-50633333D01*
X32882380Y-50728571D01*
X32834761Y-50871428D01*
X32739523Y-50966666D01*
X32644285Y-51014285D01*
X32453809Y-51061904D01*
X32310952Y-51061904D01*
X32120476Y-51014285D01*
X32025238Y-50966666D01*
X31930000Y-50871428D01*
X31882380Y-50728571D01*
X31882380Y-50633333D01*
X31930000Y-50490476D01*
X31977619Y-50442857D01*
X32882380Y-49490476D02*
X32882380Y-50061904D01*
X32882380Y-49776190D02*
X31882380Y-49776190D01*
X32025238Y-49871428D01*
X32120476Y-49966666D01*
X32168095Y-50061904D01*
X31882380Y-49157142D02*
X31882380Y-48490476D01*
X32882380Y-48919047D01*
G04 #@! TO.C,R26*
X72457142Y-58482380D02*
X72123809Y-58006190D01*
X71885714Y-58482380D02*
X71885714Y-57482380D01*
X72266666Y-57482380D01*
X72361904Y-57530000D01*
X72409523Y-57577619D01*
X72457142Y-57672857D01*
X72457142Y-57815714D01*
X72409523Y-57910952D01*
X72361904Y-57958571D01*
X72266666Y-58006190D01*
X71885714Y-58006190D01*
X72838095Y-57577619D02*
X72885714Y-57530000D01*
X72980952Y-57482380D01*
X73219047Y-57482380D01*
X73314285Y-57530000D01*
X73361904Y-57577619D01*
X73409523Y-57672857D01*
X73409523Y-57768095D01*
X73361904Y-57910952D01*
X72790476Y-58482380D01*
X73409523Y-58482380D01*
X74266666Y-57482380D02*
X74076190Y-57482380D01*
X73980952Y-57530000D01*
X73933333Y-57577619D01*
X73838095Y-57720476D01*
X73790476Y-57910952D01*
X73790476Y-58291904D01*
X73838095Y-58387142D01*
X73885714Y-58434761D01*
X73980952Y-58482380D01*
X74171428Y-58482380D01*
X74266666Y-58434761D01*
X74314285Y-58387142D01*
X74361904Y-58291904D01*
X74361904Y-58053809D01*
X74314285Y-57958571D01*
X74266666Y-57910952D01*
X74171428Y-57863333D01*
X73980952Y-57863333D01*
X73885714Y-57910952D01*
X73838095Y-57958571D01*
X73790476Y-58053809D01*
G04 #@! TO.C,C9*
X49387142Y-25466666D02*
X49434761Y-25514285D01*
X49482380Y-25657142D01*
X49482380Y-25752380D01*
X49434761Y-25895238D01*
X49339523Y-25990476D01*
X49244285Y-26038095D01*
X49053809Y-26085714D01*
X48910952Y-26085714D01*
X48720476Y-26038095D01*
X48625238Y-25990476D01*
X48530000Y-25895238D01*
X48482380Y-25752380D01*
X48482380Y-25657142D01*
X48530000Y-25514285D01*
X48577619Y-25466666D01*
X49482380Y-24990476D02*
X49482380Y-24800000D01*
X49434761Y-24704761D01*
X49387142Y-24657142D01*
X49244285Y-24561904D01*
X49053809Y-24514285D01*
X48672857Y-24514285D01*
X48577619Y-24561904D01*
X48530000Y-24609523D01*
X48482380Y-24704761D01*
X48482380Y-24895238D01*
X48530000Y-24990476D01*
X48577619Y-25038095D01*
X48672857Y-25085714D01*
X48910952Y-25085714D01*
X49006190Y-25038095D01*
X49053809Y-24990476D01*
X49101428Y-24895238D01*
X49101428Y-24704761D01*
X49053809Y-24609523D01*
X49006190Y-24561904D01*
X48910952Y-24514285D01*
G04 #@! TO.C,J3*
X64666666Y-60657380D02*
X64666666Y-61371666D01*
X64619047Y-61514523D01*
X64523809Y-61609761D01*
X64380952Y-61657380D01*
X64285714Y-61657380D01*
X65047619Y-60657380D02*
X65666666Y-60657380D01*
X65333333Y-61038333D01*
X65476190Y-61038333D01*
X65571428Y-61085952D01*
X65619047Y-61133571D01*
X65666666Y-61228809D01*
X65666666Y-61466904D01*
X65619047Y-61562142D01*
X65571428Y-61609761D01*
X65476190Y-61657380D01*
X65190476Y-61657380D01*
X65095238Y-61609761D01*
X65047619Y-61562142D01*
G04 #@! TO.C,U4*
X55652380Y-55461904D02*
X56461904Y-55461904D01*
X56557142Y-55414285D01*
X56604761Y-55366666D01*
X56652380Y-55271428D01*
X56652380Y-55080952D01*
X56604761Y-54985714D01*
X56557142Y-54938095D01*
X56461904Y-54890476D01*
X55652380Y-54890476D01*
X55985714Y-53985714D02*
X56652380Y-53985714D01*
X55604761Y-54223809D02*
X56319047Y-54461904D01*
X56319047Y-53842857D01*
G04 #@! TO.C,R29*
X49432380Y-36867857D02*
X48956190Y-37201190D01*
X49432380Y-37439285D02*
X48432380Y-37439285D01*
X48432380Y-37058333D01*
X48480000Y-36963095D01*
X48527619Y-36915476D01*
X48622857Y-36867857D01*
X48765714Y-36867857D01*
X48860952Y-36915476D01*
X48908571Y-36963095D01*
X48956190Y-37058333D01*
X48956190Y-37439285D01*
X48527619Y-36486904D02*
X48480000Y-36439285D01*
X48432380Y-36344047D01*
X48432380Y-36105952D01*
X48480000Y-36010714D01*
X48527619Y-35963095D01*
X48622857Y-35915476D01*
X48718095Y-35915476D01*
X48860952Y-35963095D01*
X49432380Y-36534523D01*
X49432380Y-35915476D01*
X49432380Y-35439285D02*
X49432380Y-35248809D01*
X49384761Y-35153571D01*
X49337142Y-35105952D01*
X49194285Y-35010714D01*
X49003809Y-34963095D01*
X48622857Y-34963095D01*
X48527619Y-35010714D01*
X48480000Y-35058333D01*
X48432380Y-35153571D01*
X48432380Y-35344047D01*
X48480000Y-35439285D01*
X48527619Y-35486904D01*
X48622857Y-35534523D01*
X48860952Y-35534523D01*
X48956190Y-35486904D01*
X49003809Y-35439285D01*
X49051428Y-35344047D01*
X49051428Y-35153571D01*
X49003809Y-35058333D01*
X48956190Y-35010714D01*
X48860952Y-34963095D01*
G04 #@! TO.C,R17*
X47822380Y-58142857D02*
X47346190Y-58476190D01*
X47822380Y-58714285D02*
X46822380Y-58714285D01*
X46822380Y-58333333D01*
X46870000Y-58238095D01*
X46917619Y-58190476D01*
X47012857Y-58142857D01*
X47155714Y-58142857D01*
X47250952Y-58190476D01*
X47298571Y-58238095D01*
X47346190Y-58333333D01*
X47346190Y-58714285D01*
X47822380Y-57190476D02*
X47822380Y-57761904D01*
X47822380Y-57476190D02*
X46822380Y-57476190D01*
X46965238Y-57571428D01*
X47060476Y-57666666D01*
X47108095Y-57761904D01*
X46822380Y-56857142D02*
X46822380Y-56190476D01*
X47822380Y-56619047D01*
G04 #@! TO.C,R8*
X33433333Y-37152380D02*
X33100000Y-36676190D01*
X32861904Y-37152380D02*
X32861904Y-36152380D01*
X33242857Y-36152380D01*
X33338095Y-36200000D01*
X33385714Y-36247619D01*
X33433333Y-36342857D01*
X33433333Y-36485714D01*
X33385714Y-36580952D01*
X33338095Y-36628571D01*
X33242857Y-36676190D01*
X32861904Y-36676190D01*
X34004761Y-36580952D02*
X33909523Y-36533333D01*
X33861904Y-36485714D01*
X33814285Y-36390476D01*
X33814285Y-36342857D01*
X33861904Y-36247619D01*
X33909523Y-36200000D01*
X34004761Y-36152380D01*
X34195238Y-36152380D01*
X34290476Y-36200000D01*
X34338095Y-36247619D01*
X34385714Y-36342857D01*
X34385714Y-36390476D01*
X34338095Y-36485714D01*
X34290476Y-36533333D01*
X34195238Y-36580952D01*
X34004761Y-36580952D01*
X33909523Y-36628571D01*
X33861904Y-36676190D01*
X33814285Y-36771428D01*
X33814285Y-36961904D01*
X33861904Y-37057142D01*
X33909523Y-37104761D01*
X34004761Y-37152380D01*
X34195238Y-37152380D01*
X34290476Y-37104761D01*
X34338095Y-37057142D01*
X34385714Y-36961904D01*
X34385714Y-36771428D01*
X34338095Y-36676190D01*
X34290476Y-36628571D01*
X34195238Y-36580952D01*
G04 #@! TO.C,C3*
X54330682Y-43257142D02*
X54283063Y-43304761D01*
X54140206Y-43352380D01*
X54044968Y-43352380D01*
X53902110Y-43304761D01*
X53806872Y-43209523D01*
X53759253Y-43114285D01*
X53711634Y-42923809D01*
X53711634Y-42780952D01*
X53759253Y-42590476D01*
X53806872Y-42495238D01*
X53902110Y-42400000D01*
X54044968Y-42352380D01*
X54140206Y-42352380D01*
X54283063Y-42400000D01*
X54330682Y-42447619D01*
X54664015Y-42352380D02*
X55283063Y-42352380D01*
X54949729Y-42733333D01*
X55092587Y-42733333D01*
X55187825Y-42780952D01*
X55235444Y-42828571D01*
X55283063Y-42923809D01*
X55283063Y-43161904D01*
X55235444Y-43257142D01*
X55187825Y-43304761D01*
X55092587Y-43352380D01*
X54806872Y-43352380D01*
X54711634Y-43304761D01*
X54664015Y-43257142D01*
G04 #@! TO.C,U3*
X59152380Y-55469404D02*
X59961904Y-55469404D01*
X60057142Y-55421785D01*
X60104761Y-55374166D01*
X60152380Y-55278928D01*
X60152380Y-55088452D01*
X60104761Y-54993214D01*
X60057142Y-54945595D01*
X59961904Y-54897976D01*
X59152380Y-54897976D01*
X59152380Y-54517023D02*
X59152380Y-53897976D01*
X59533333Y-54231309D01*
X59533333Y-54088452D01*
X59580952Y-53993214D01*
X59628571Y-53945595D01*
X59723809Y-53897976D01*
X59961904Y-53897976D01*
X60057142Y-53945595D01*
X60104761Y-53993214D01*
X60152380Y-54088452D01*
X60152380Y-54374166D01*
X60104761Y-54469404D01*
X60057142Y-54517023D01*
G04 #@! TO.C,C10*
X44827142Y-25942857D02*
X44874761Y-25990476D01*
X44922380Y-26133333D01*
X44922380Y-26228571D01*
X44874761Y-26371428D01*
X44779523Y-26466666D01*
X44684285Y-26514285D01*
X44493809Y-26561904D01*
X44350952Y-26561904D01*
X44160476Y-26514285D01*
X44065238Y-26466666D01*
X43970000Y-26371428D01*
X43922380Y-26228571D01*
X43922380Y-26133333D01*
X43970000Y-25990476D01*
X44017619Y-25942857D01*
X44922380Y-24990476D02*
X44922380Y-25561904D01*
X44922380Y-25276190D02*
X43922380Y-25276190D01*
X44065238Y-25371428D01*
X44160476Y-25466666D01*
X44208095Y-25561904D01*
X43922380Y-24371428D02*
X43922380Y-24276190D01*
X43970000Y-24180952D01*
X44017619Y-24133333D01*
X44112857Y-24085714D01*
X44303333Y-24038095D01*
X44541428Y-24038095D01*
X44731904Y-24085714D01*
X44827142Y-24133333D01*
X44874761Y-24180952D01*
X44922380Y-24276190D01*
X44922380Y-24371428D01*
X44874761Y-24466666D01*
X44827142Y-24514285D01*
X44731904Y-24561904D01*
X44541428Y-24609523D01*
X44303333Y-24609523D01*
X44112857Y-24561904D01*
X44017619Y-24514285D01*
X43970000Y-24466666D01*
X43922380Y-24371428D01*
G04 #@! TO.C,R22*
X34382380Y-54842857D02*
X33906190Y-55176190D01*
X34382380Y-55414285D02*
X33382380Y-55414285D01*
X33382380Y-55033333D01*
X33430000Y-54938095D01*
X33477619Y-54890476D01*
X33572857Y-54842857D01*
X33715714Y-54842857D01*
X33810952Y-54890476D01*
X33858571Y-54938095D01*
X33906190Y-55033333D01*
X33906190Y-55414285D01*
X33477619Y-54461904D02*
X33430000Y-54414285D01*
X33382380Y-54319047D01*
X33382380Y-54080952D01*
X33430000Y-53985714D01*
X33477619Y-53938095D01*
X33572857Y-53890476D01*
X33668095Y-53890476D01*
X33810952Y-53938095D01*
X34382380Y-54509523D01*
X34382380Y-53890476D01*
X33477619Y-53509523D02*
X33430000Y-53461904D01*
X33382380Y-53366666D01*
X33382380Y-53128571D01*
X33430000Y-53033333D01*
X33477619Y-52985714D01*
X33572857Y-52938095D01*
X33668095Y-52938095D01*
X33810952Y-52985714D01*
X34382380Y-53557142D01*
X34382380Y-52938095D01*
G04 #@! TO.C,R15*
X61722380Y-46942857D02*
X61246190Y-47276190D01*
X61722380Y-47514285D02*
X60722380Y-47514285D01*
X60722380Y-47133333D01*
X60770000Y-47038095D01*
X60817619Y-46990476D01*
X60912857Y-46942857D01*
X61055714Y-46942857D01*
X61150952Y-46990476D01*
X61198571Y-47038095D01*
X61246190Y-47133333D01*
X61246190Y-47514285D01*
X61722380Y-45990476D02*
X61722380Y-46561904D01*
X61722380Y-46276190D02*
X60722380Y-46276190D01*
X60865238Y-46371428D01*
X60960476Y-46466666D01*
X61008095Y-46561904D01*
X60722380Y-45085714D02*
X60722380Y-45561904D01*
X61198571Y-45609523D01*
X61150952Y-45561904D01*
X61103333Y-45466666D01*
X61103333Y-45228571D01*
X61150952Y-45133333D01*
X61198571Y-45085714D01*
X61293809Y-45038095D01*
X61531904Y-45038095D01*
X61627142Y-45085714D01*
X61674761Y-45133333D01*
X61722380Y-45228571D01*
X61722380Y-45466666D01*
X61674761Y-45561904D01*
X61627142Y-45609523D01*
G04 #@! TO.C,R6*
X63883333Y-57392380D02*
X63550000Y-56916190D01*
X63311904Y-57392380D02*
X63311904Y-56392380D01*
X63692857Y-56392380D01*
X63788095Y-56440000D01*
X63835714Y-56487619D01*
X63883333Y-56582857D01*
X63883333Y-56725714D01*
X63835714Y-56820952D01*
X63788095Y-56868571D01*
X63692857Y-56916190D01*
X63311904Y-56916190D01*
X64740476Y-56392380D02*
X64550000Y-56392380D01*
X64454761Y-56440000D01*
X64407142Y-56487619D01*
X64311904Y-56630476D01*
X64264285Y-56820952D01*
X64264285Y-57201904D01*
X64311904Y-57297142D01*
X64359523Y-57344761D01*
X64454761Y-57392380D01*
X64645238Y-57392380D01*
X64740476Y-57344761D01*
X64788095Y-57297142D01*
X64835714Y-57201904D01*
X64835714Y-56963809D01*
X64788095Y-56868571D01*
X64740476Y-56820952D01*
X64645238Y-56773333D01*
X64454761Y-56773333D01*
X64359523Y-56820952D01*
X64311904Y-56868571D01*
X64264285Y-56963809D01*
D11*
G04 #@! TO.C,U2*
X45550000Y-43810000D02*
X43600000Y-43810000D01*
X45550000Y-43810000D02*
X47500000Y-43810000D01*
X45550000Y-38690000D02*
X47500000Y-38690000D01*
X45550000Y-38690000D02*
X42100000Y-38690000D01*
G04 #@! TO.C,C11*
X29910000Y-49659420D02*
X29910000Y-49940580D01*
X28890000Y-49659420D02*
X28890000Y-49940580D01*
G04 #@! TO.C,U1*
X51720000Y-24080000D02*
X51720000Y-25080000D01*
X77465000Y-42320000D02*
X71045000Y-42320000D01*
X51720000Y-42320000D02*
X51720000Y-41320000D01*
X52500000Y-24080000D02*
X51720000Y-24080000D01*
X71045000Y-24080000D02*
X71045000Y-23700000D01*
X77465000Y-24080000D02*
X71045000Y-24080000D01*
X77465000Y-24080000D02*
X77465000Y-42320000D01*
X52500000Y-42320000D02*
X51720000Y-42320000D01*
G04 #@! TO.C,R3*
X47937258Y-45297500D02*
X47462742Y-45297500D01*
X47937258Y-44252500D02*
X47462742Y-44252500D01*
G04 #@! TO.C,R18*
X49877500Y-57737258D02*
X49877500Y-57262742D01*
X50922500Y-57737258D02*
X50922500Y-57262742D01*
G04 #@! TO.C,R9*
X35762742Y-34777500D02*
X36237258Y-34777500D01*
X35762742Y-35822500D02*
X36237258Y-35822500D01*
G04 #@! TO.C,C1*
X47543349Y-51265000D02*
X47543349Y-54015000D01*
X47103349Y-51265000D02*
X47103349Y-54161000D01*
X49903349Y-48879000D02*
X49903349Y-51571000D01*
X46702349Y-46201000D02*
X46702349Y-54249000D01*
X49703349Y-48412000D02*
X49703349Y-52038000D01*
X46863349Y-51265000D02*
X46863349Y-54219000D01*
X49383349Y-47880000D02*
X49383349Y-52570000D01*
X48783349Y-51265000D02*
X48783349Y-53244000D01*
X47783349Y-46539000D02*
X47783349Y-49185000D01*
X46622349Y-46188000D02*
X46622349Y-54262000D01*
X48143349Y-51265000D02*
X48143349Y-53718000D01*
X47103349Y-46289000D02*
X47103349Y-49185000D01*
X47983349Y-46641000D02*
X47983349Y-49185000D01*
X49423349Y-47938000D02*
X49423349Y-52512000D01*
X50103349Y-49692000D02*
X50103349Y-50758000D01*
X47463349Y-51265000D02*
X47463349Y-54046000D01*
X49103349Y-47528000D02*
X49103349Y-52922000D01*
X47143349Y-46300000D02*
X47143349Y-49185000D01*
X47023349Y-46268000D02*
X47023349Y-49185000D01*
X46863349Y-46231000D02*
X46863349Y-49185000D01*
X47023349Y-51265000D02*
X47023349Y-54182000D01*
X47943349Y-46619000D02*
X47943349Y-49185000D01*
X47423349Y-51265000D02*
X47423349Y-54060000D01*
X47383349Y-46375000D02*
X47383349Y-49185000D01*
X49263349Y-47720000D02*
X49263349Y-52730000D01*
X49583349Y-48191000D02*
X49583349Y-52259000D01*
X48423349Y-46916000D02*
X48423349Y-49185000D01*
X48823349Y-47242000D02*
X48823349Y-53208000D01*
X47383349Y-51265000D02*
X47383349Y-54075000D01*
X49743349Y-48494000D02*
X49743349Y-51956000D01*
X49063349Y-47484000D02*
X49063349Y-52966000D01*
X49223349Y-47669000D02*
X49223349Y-52781000D01*
X47343349Y-46362000D02*
X47343349Y-49185000D01*
X46903349Y-46240000D02*
X46903349Y-49185000D01*
X47303349Y-51265000D02*
X47303349Y-54102000D01*
X49823349Y-48673000D02*
X49823349Y-51777000D01*
X47863349Y-46578000D02*
X47863349Y-49185000D01*
X47623349Y-46468000D02*
X47623349Y-49185000D01*
X48143349Y-46732000D02*
X48143349Y-49185000D01*
X47503349Y-46420000D02*
X47503349Y-49185000D01*
X48423349Y-51265000D02*
X48423349Y-53534000D01*
X47703349Y-46503000D02*
X47703349Y-49185000D01*
X49543349Y-48123000D02*
X49543349Y-52327000D01*
X47303349Y-46348000D02*
X47303349Y-49185000D01*
X49783349Y-48580000D02*
X49783349Y-51870000D01*
X48383349Y-46887000D02*
X48383349Y-49185000D01*
X46823349Y-51265000D02*
X46823349Y-54227000D01*
X46983349Y-46258000D02*
X46983349Y-49185000D01*
X46542349Y-46177000D02*
X46542349Y-54273000D01*
X47823349Y-51265000D02*
X47823349Y-53891000D01*
X47623349Y-51265000D02*
X47623349Y-53982000D01*
X47543349Y-46435000D02*
X47543349Y-49185000D01*
X47903349Y-46598000D02*
X47903349Y-49185000D01*
X48943349Y-47358000D02*
X48943349Y-53092000D01*
X46783349Y-51265000D02*
X46783349Y-54235000D01*
X48663349Y-47101000D02*
X48663349Y-49185000D01*
X48023349Y-51265000D02*
X48023349Y-53787000D01*
X48223349Y-51265000D02*
X48223349Y-53669000D01*
X47183349Y-51265000D02*
X47183349Y-54139000D01*
X48703349Y-47135000D02*
X48703349Y-49185000D01*
X46502349Y-46173000D02*
X46502349Y-54277000D01*
X47063349Y-46278000D02*
X47063349Y-49185000D01*
X46903349Y-51265000D02*
X46903349Y-54210000D01*
X48543349Y-51265000D02*
X48543349Y-53445000D01*
X48303349Y-51265000D02*
X48303349Y-53617000D01*
X47983349Y-51265000D02*
X47983349Y-53809000D01*
X47503349Y-51265000D02*
X47503349Y-54030000D01*
X47423349Y-46390000D02*
X47423349Y-49185000D01*
X49303349Y-47771000D02*
X49303349Y-52679000D01*
X48063349Y-51265000D02*
X48063349Y-53765000D01*
X47143349Y-51265000D02*
X47143349Y-54150000D01*
X47583349Y-51265000D02*
X47583349Y-53999000D01*
X46182349Y-46148000D02*
X46182349Y-54302000D01*
X49343349Y-47825000D02*
X49343349Y-52625000D01*
X49143349Y-47574000D02*
X49143349Y-52876000D01*
X50023349Y-49277000D02*
X50023349Y-51173000D01*
X47823349Y-46559000D02*
X47823349Y-49185000D01*
X48183349Y-51265000D02*
X48183349Y-53694000D01*
X47343349Y-51265000D02*
X47343349Y-54088000D01*
X48623349Y-47069000D02*
X48623349Y-49185000D01*
X49463349Y-47997000D02*
X49463349Y-52453000D01*
X46062349Y-46145000D02*
X46062349Y-54305000D01*
X47743349Y-46521000D02*
X47743349Y-49185000D01*
X48343349Y-46860000D02*
X48343349Y-49185000D01*
X46662349Y-46195000D02*
X46662349Y-54255000D01*
X46983349Y-51265000D02*
X46983349Y-54192000D01*
X47183349Y-46311000D02*
X47183349Y-49185000D01*
X46142349Y-46146000D02*
X46142349Y-54304000D01*
X47223349Y-51265000D02*
X47223349Y-54127000D01*
X49863349Y-48772000D02*
X49863349Y-51678000D01*
X46943349Y-51265000D02*
X46943349Y-54201000D01*
X48183349Y-46756000D02*
X48183349Y-49185000D01*
X48583349Y-47036000D02*
X48583349Y-49185000D01*
X47783349Y-51265000D02*
X47783349Y-53911000D01*
X46462349Y-46168000D02*
X46462349Y-54282000D01*
X48503349Y-46975000D02*
X48503349Y-49185000D01*
X49183349Y-47621000D02*
X49183349Y-52829000D01*
X47463349Y-46404000D02*
X47463349Y-49185000D01*
X48303349Y-46833000D02*
X48303349Y-49185000D01*
X47903349Y-51265000D02*
X47903349Y-53852000D01*
X48463349Y-51265000D02*
X48463349Y-53505000D01*
X47263349Y-51265000D02*
X47263349Y-54114000D01*
X48103349Y-51265000D02*
X48103349Y-53742000D01*
X46943349Y-46249000D02*
X46943349Y-49185000D01*
X48023349Y-46663000D02*
X48023349Y-49185000D01*
X46302349Y-46154000D02*
X46302349Y-54296000D01*
X46262349Y-46151000D02*
X46262349Y-54299000D01*
X48343349Y-51265000D02*
X48343349Y-53590000D01*
X46422349Y-46164000D02*
X46422349Y-54286000D01*
X46022349Y-46145000D02*
X46022349Y-54305000D01*
X49943349Y-48996000D02*
X49943349Y-51454000D01*
X46382349Y-46160000D02*
X46382349Y-54290000D01*
X49623349Y-48261000D02*
X49623349Y-52189000D01*
X47663349Y-51265000D02*
X47663349Y-53965000D01*
X47703349Y-51265000D02*
X47703349Y-53947000D01*
X46222349Y-46149000D02*
X46222349Y-54301000D01*
X47743349Y-51265000D02*
X47743349Y-53929000D01*
X48663349Y-51265000D02*
X48663349Y-53349000D01*
X47263349Y-46336000D02*
X47263349Y-49185000D01*
X46823349Y-46223000D02*
X46823349Y-49185000D01*
X41612651Y-47910000D02*
X42412651Y-47910000D01*
X49983349Y-49127000D02*
X49983349Y-51323000D01*
X49503349Y-48059000D02*
X49503349Y-52391000D01*
X46743349Y-46208000D02*
X46743349Y-49185000D01*
X48903349Y-47318000D02*
X48903349Y-53132000D01*
X48263349Y-46807000D02*
X48263349Y-49185000D01*
X48703349Y-51265000D02*
X48703349Y-53315000D01*
X47943349Y-51265000D02*
X47943349Y-53831000D01*
X48103349Y-46708000D02*
X48103349Y-49185000D01*
X49663349Y-48335000D02*
X49663349Y-52115000D01*
X48503349Y-51265000D02*
X48503349Y-53475000D01*
X47063349Y-51265000D02*
X47063349Y-54172000D01*
X47223349Y-46323000D02*
X47223349Y-49185000D01*
X48263349Y-51265000D02*
X48263349Y-53643000D01*
X48223349Y-46781000D02*
X48223349Y-49185000D01*
X48983349Y-47399000D02*
X48983349Y-53051000D01*
X47663349Y-46485000D02*
X47663349Y-49185000D01*
X48543349Y-47005000D02*
X48543349Y-49185000D01*
X49023349Y-47441000D02*
X49023349Y-53009000D01*
X48863349Y-47280000D02*
X48863349Y-53170000D01*
X50063349Y-49457000D02*
X50063349Y-50993000D01*
X46342349Y-46157000D02*
X46342349Y-54293000D01*
X46783349Y-46215000D02*
X46783349Y-49185000D01*
X47583349Y-46451000D02*
X47583349Y-49185000D01*
X42012651Y-47510000D02*
X42012651Y-48310000D01*
X48463349Y-46945000D02*
X48463349Y-49185000D01*
X48783349Y-47206000D02*
X48783349Y-49185000D01*
X48383349Y-51265000D02*
X48383349Y-53563000D01*
X46582349Y-46183000D02*
X46582349Y-54267000D01*
X48743349Y-51265000D02*
X48743349Y-53280000D01*
X48743349Y-47170000D02*
X48743349Y-49185000D01*
X47863349Y-51265000D02*
X47863349Y-53872000D01*
X48063349Y-46685000D02*
X48063349Y-49185000D01*
X46102349Y-46145000D02*
X46102349Y-54305000D01*
X48623349Y-51265000D02*
X48623349Y-53381000D01*
X46743349Y-51265000D02*
X46743349Y-54242000D01*
X48583349Y-51265000D02*
X48583349Y-53414000D01*
X50142349Y-50225000D02*
G75*
G03*
X50142349Y-50225000I-4120000J0D01*
G01*
G04 #@! TO.C,U5*
X73500000Y-55460000D02*
X71550000Y-55460000D01*
X73500000Y-50340000D02*
X70050000Y-50340000D01*
X73500000Y-55460000D02*
X75450000Y-55460000D01*
X73500000Y-50340000D02*
X75450000Y-50340000D01*
G04 #@! TO.C,R28*
X42872500Y-45737258D02*
X42872500Y-45262742D01*
X41827500Y-45737258D02*
X41827500Y-45262742D01*
G04 #@! TO.C,C12*
X29959420Y-55510000D02*
X30240580Y-55510000D01*
X29959420Y-54490000D02*
X30240580Y-54490000D01*
G04 #@! TO.C,R7*
X29762742Y-35822500D02*
X30237258Y-35822500D01*
X29762742Y-34777500D02*
X30237258Y-34777500D01*
G04 #@! TO.C,J4*
X62930000Y-62000000D02*
X62930000Y-60470000D01*
D12*
X76600000Y-77990000D02*
X76600000Y-78000000D01*
X63400000Y-68950000D02*
X63400000Y-69020000D01*
D11*
X63400000Y-78000000D02*
X63400000Y-71220000D01*
X63400000Y-69020000D02*
X63400000Y-60000000D01*
X63400000Y-60000000D02*
X76600000Y-60000000D01*
X76600000Y-78000000D02*
X63400000Y-78000000D01*
D12*
X76600000Y-77880000D02*
X76600000Y-78000000D01*
D11*
X76600000Y-60000000D02*
X76600000Y-69020000D01*
X76600000Y-78000000D02*
X76600000Y-71220000D01*
G04 #@! TO.C,C14*
X39590000Y-47584420D02*
X39590000Y-47865580D01*
X40610000Y-47584420D02*
X40610000Y-47865580D01*
G04 #@! TO.C,L1*
X37200000Y-44900000D02*
X37200000Y-40900000D01*
X41400000Y-44900000D02*
X41400000Y-40900000D01*
G04 #@! TO.C,C18*
X46690000Y-57640580D02*
X46690000Y-57359420D01*
X47710000Y-57640580D02*
X47710000Y-57359420D01*
G04 #@! TO.C,R13*
X64822500Y-46537258D02*
X64822500Y-46062742D01*
X63777500Y-46537258D02*
X63777500Y-46062742D01*
G04 #@! TO.C,R24*
X39522500Y-54437258D02*
X39522500Y-53962742D01*
X38477500Y-54437258D02*
X38477500Y-53962742D01*
G04 #@! TO.C,R19*
X42762742Y-55622500D02*
X43237258Y-55622500D01*
X42762742Y-54577500D02*
X43237258Y-54577500D01*
G04 #@! TO.C,R25*
X71737258Y-58822500D02*
X71262742Y-58822500D01*
X71737258Y-57777500D02*
X71262742Y-57777500D01*
G04 #@! TO.C,J5*
X27100000Y-24300000D02*
X27100000Y-33700000D01*
X29000000Y-24300000D02*
X27100000Y-24300000D01*
X32900000Y-33700000D02*
X30900000Y-33700000D01*
X29000000Y-33700000D02*
X27100000Y-33700000D01*
X32900000Y-24300000D02*
X30900000Y-24300000D01*
G04 #@! TO.C,R30*
X49622500Y-35987742D02*
X49622500Y-36462258D01*
X48577500Y-35987742D02*
X48577500Y-36462258D01*
G04 #@! TO.C,R10*
X45477500Y-36462258D02*
X45477500Y-35987742D01*
X46522500Y-36462258D02*
X46522500Y-35987742D01*
G04 #@! TO.C,R16*
X65377500Y-46537258D02*
X65377500Y-46062742D01*
X66422500Y-46537258D02*
X66422500Y-46062742D01*
G04 #@! TO.C,J6*
X46120000Y-77807500D02*
X29880000Y-77807500D01*
X30000000Y-77537500D02*
X29750000Y-77537500D01*
X29880000Y-65357500D02*
X29880000Y-77807500D01*
X30100000Y-77687500D02*
X30100000Y-77937500D01*
X29880000Y-56167500D02*
X29880000Y-62077500D01*
X46120000Y-65357500D02*
X46120000Y-77807500D01*
X29880000Y-56167500D02*
X46120000Y-56167500D01*
X46120000Y-56167500D02*
X46120000Y-62077500D01*
G04 #@! TO.C,R21*
X36977500Y-53962742D02*
X36977500Y-54437258D01*
X38022500Y-53962742D02*
X38022500Y-54437258D01*
G04 #@! TO.C,C2*
X44509420Y-44240000D02*
X44790580Y-44240000D01*
X44509420Y-45260000D02*
X44790580Y-45260000D01*
G04 #@! TO.C,D1*
X47160000Y-29800000D02*
X47160000Y-27115000D01*
X45240000Y-27115000D02*
X45240000Y-29800000D01*
X47160000Y-27115000D02*
X45240000Y-27115000D01*
G04 #@! TO.C,R4*
X49527500Y-44262258D02*
X49527500Y-43787742D01*
X50572500Y-44262258D02*
X50572500Y-43787742D01*
G04 #@! TO.C,C4*
X64910000Y-55059420D02*
X64910000Y-55340580D01*
X63890000Y-55059420D02*
X63890000Y-55340580D01*
G04 #@! TO.C,FB1*
X29772936Y-53035000D02*
X30227064Y-53035000D01*
X29772936Y-51565000D02*
X30227064Y-51565000D01*
G04 #@! TO.C,D2*
X49360000Y-27115000D02*
X47440000Y-27115000D01*
X49360000Y-29800000D02*
X49360000Y-27115000D01*
X47440000Y-27115000D02*
X47440000Y-29800000D01*
G04 #@! TO.C,R11*
X66877500Y-46537258D02*
X66877500Y-46062742D01*
X67922500Y-46537258D02*
X67922500Y-46062742D01*
G04 #@! TO.C,U7*
X33940000Y-47640000D02*
X33940000Y-48115000D01*
X33940000Y-51860000D02*
X33940000Y-51385000D01*
X34415000Y-47640000D02*
X33940000Y-47640000D01*
X37685000Y-51860000D02*
X38160000Y-51860000D01*
X38160000Y-47640000D02*
X38160000Y-48115000D01*
X37685000Y-47640000D02*
X38160000Y-47640000D01*
X34415000Y-51860000D02*
X33940000Y-51860000D01*
G04 #@! TO.C,R12*
X60577500Y-46537258D02*
X60577500Y-46062742D01*
X61622500Y-46537258D02*
X61622500Y-46062742D01*
G04 #@! TO.C,C15*
X40040000Y-54340580D02*
X40040000Y-54059420D01*
X41060000Y-54340580D02*
X41060000Y-54059420D01*
G04 #@! TO.C,C16*
X40610000Y-50940580D02*
X40610000Y-50659420D01*
X39590000Y-50940580D02*
X39590000Y-50659420D01*
G04 #@! TO.C,C5*
X59340580Y-51290000D02*
X59059420Y-51290000D01*
X59340580Y-52310000D02*
X59059420Y-52310000D01*
G04 #@! TO.C,Q2*
X41440000Y-36400000D02*
X41440000Y-35750000D01*
X44560000Y-36400000D02*
X44560000Y-34725000D01*
X41440000Y-36400000D02*
X41440000Y-37050000D01*
X44560000Y-36400000D02*
X44560000Y-37050000D01*
G04 #@! TO.C,J1*
X31257071Y-42800000D02*
X30860000Y-42800000D01*
X33797071Y-38480000D02*
X33342929Y-38480000D01*
X31257071Y-43560000D02*
X30860000Y-43560000D01*
X28200000Y-44510000D02*
X30860000Y-44510000D01*
X33797071Y-40260000D02*
X33342929Y-40260000D01*
X28200000Y-43500000D02*
X22200000Y-43500000D01*
X30860000Y-41910000D02*
X28200000Y-41910000D01*
X22200000Y-38480000D02*
X22200000Y-37720000D01*
X28200000Y-43260000D02*
X22200000Y-43260000D01*
X31257071Y-41020000D02*
X30860000Y-41020000D01*
X22200000Y-37720000D02*
X28200000Y-37720000D01*
X33730000Y-43560000D02*
X33342929Y-43560000D01*
X30860000Y-36770000D02*
X28200000Y-36770000D01*
X28200000Y-43560000D02*
X22200000Y-43560000D01*
X28200000Y-43380000D02*
X22200000Y-43380000D01*
X28200000Y-43140000D02*
X22200000Y-43140000D01*
X33730000Y-42800000D02*
X33342929Y-42800000D01*
X28200000Y-41020000D02*
X22200000Y-41020000D01*
X28200000Y-38480000D02*
X22200000Y-38480000D01*
X36110000Y-43180000D02*
X36110000Y-44450000D01*
X28200000Y-42900000D02*
X22200000Y-42900000D01*
X22200000Y-43560000D02*
X22200000Y-42800000D01*
X22200000Y-41020000D02*
X22200000Y-40260000D01*
X31257071Y-40260000D02*
X30860000Y-40260000D01*
X30860000Y-44510000D02*
X30860000Y-36770000D01*
X33797071Y-41020000D02*
X33342929Y-41020000D01*
X30860000Y-39370000D02*
X28200000Y-39370000D01*
X28200000Y-43020000D02*
X22200000Y-43020000D01*
X33797071Y-37720000D02*
X33342929Y-37720000D01*
X22200000Y-40260000D02*
X28200000Y-40260000D01*
X28200000Y-36770000D02*
X28200000Y-44510000D01*
X36110000Y-44450000D02*
X34840000Y-44450000D01*
X31257071Y-38480000D02*
X30860000Y-38480000D01*
X22200000Y-42800000D02*
X28200000Y-42800000D01*
X31257071Y-37720000D02*
X30860000Y-37720000D01*
G04 #@! TO.C,R2*
X48077500Y-32337258D02*
X48077500Y-31862742D01*
X49122500Y-32337258D02*
X49122500Y-31862742D01*
G04 #@! TO.C,R14*
X60022500Y-46062742D02*
X60022500Y-46537258D01*
X58977500Y-46062742D02*
X58977500Y-46537258D01*
G04 #@! TO.C,R27*
X74937258Y-57777500D02*
X74462742Y-57777500D01*
X74937258Y-58822500D02*
X74462742Y-58822500D01*
G04 #@! TO.C,C6*
X75840580Y-48790000D02*
X75559420Y-48790000D01*
X75840580Y-49810000D02*
X75559420Y-49810000D01*
G04 #@! TO.C,R20*
X35277500Y-53962742D02*
X35277500Y-54437258D01*
X36322500Y-53962742D02*
X36322500Y-54437258D01*
G04 #@! TO.C,U6*
X40400000Y-33960000D02*
X38450000Y-33960000D01*
X40400000Y-33960000D02*
X43850000Y-33960000D01*
X40400000Y-23840000D02*
X38450000Y-23840000D01*
X40400000Y-23840000D02*
X42350000Y-23840000D01*
G04 #@! TO.C,J2*
X61600000Y-60000000D02*
X61600000Y-69020000D01*
D12*
X61600000Y-77880000D02*
X61600000Y-78000000D01*
D11*
X61600000Y-78000000D02*
X61600000Y-71220000D01*
D12*
X61600000Y-77990000D02*
X61600000Y-78000000D01*
D11*
X48400000Y-78000000D02*
X48400000Y-71220000D01*
X48400000Y-60000000D02*
X61600000Y-60000000D01*
D12*
X48400000Y-68950000D02*
X48400000Y-69020000D01*
D11*
X48400000Y-69020000D02*
X48400000Y-60000000D01*
X61600000Y-78000000D02*
X48400000Y-78000000D01*
X47930000Y-62000000D02*
X47930000Y-60470000D01*
G04 #@! TO.C,R23*
X34822500Y-53962742D02*
X34822500Y-54437258D01*
X33777500Y-53962742D02*
X33777500Y-54437258D01*
G04 #@! TO.C,D3*
X41500000Y-40350000D02*
X38950000Y-40350000D01*
X41500000Y-38650000D02*
X38950000Y-38650000D01*
X41500000Y-40350000D02*
X41500000Y-38650000D01*
G04 #@! TO.C,C13*
X31259420Y-46940000D02*
X31540580Y-46940000D01*
X31259420Y-47960000D02*
X31540580Y-47960000D01*
G04 #@! TO.C,R1*
X46522500Y-32337258D02*
X46522500Y-31862742D01*
X45477500Y-32337258D02*
X45477500Y-31862742D01*
G04 #@! TO.C,R5*
X60412742Y-58892500D02*
X60887258Y-58892500D01*
X60412742Y-57847500D02*
X60887258Y-57847500D01*
G04 #@! TO.C,Q1*
X40860000Y-36200000D02*
X40860000Y-34525000D01*
X37740000Y-36200000D02*
X37740000Y-36850000D01*
X37740000Y-36200000D02*
X37740000Y-35550000D01*
X40860000Y-36200000D02*
X40860000Y-36850000D01*
G04 #@! TO.C,C17*
X30490000Y-49659420D02*
X30490000Y-49940580D01*
X31510000Y-49659420D02*
X31510000Y-49940580D01*
G04 #@! TO.C,R26*
X73337258Y-56077500D02*
X72862742Y-56077500D01*
X73337258Y-57122500D02*
X72862742Y-57122500D01*
G04 #@! TO.C,C9*
X48110000Y-25159420D02*
X48110000Y-25440580D01*
X47090000Y-25159420D02*
X47090000Y-25440580D01*
G04 #@! TO.C,J3*
X68830000Y-56080000D02*
X66170000Y-56080000D01*
X68830000Y-50940000D02*
X66170000Y-50940000D01*
X68830000Y-56080000D02*
X68830000Y-50940000D01*
X68830000Y-57350000D02*
X68830000Y-58680000D01*
X66170000Y-56080000D02*
X66170000Y-50940000D01*
X68830000Y-58680000D02*
X67500000Y-58680000D01*
G04 #@! TO.C,U4*
X59360000Y-55400000D02*
X59360000Y-54000000D01*
X57040000Y-54000000D02*
X57040000Y-55900000D01*
G04 #@! TO.C,R29*
X47027500Y-35987742D02*
X47027500Y-36462258D01*
X48072500Y-35987742D02*
X48072500Y-36462258D01*
G04 #@! TO.C,R17*
X49322500Y-57737258D02*
X49322500Y-57262742D01*
X48277500Y-57737258D02*
X48277500Y-57262742D01*
G04 #@! TO.C,R8*
X33237258Y-35822500D02*
X32762742Y-35822500D01*
X33237258Y-34777500D02*
X32762742Y-34777500D01*
G04 #@! TO.C,C3*
X55578349Y-44214000D02*
X55578349Y-47110000D01*
X57098349Y-49190000D02*
X57098349Y-51306000D01*
X58138349Y-46260000D02*
X58138349Y-50040000D01*
X56858349Y-49190000D02*
X56858349Y-51488000D01*
X55218349Y-49190000D02*
X55218349Y-52167000D01*
X57538349Y-45409000D02*
X57538349Y-50891000D01*
X56618349Y-44657000D02*
X56618349Y-47110000D01*
X56498349Y-44588000D02*
X56498349Y-47110000D01*
X56178349Y-49190000D02*
X56178349Y-51872000D01*
X56138349Y-44410000D02*
X56138349Y-47110000D01*
X55218349Y-44133000D02*
X55218349Y-47110000D01*
X58218349Y-46419000D02*
X58218349Y-49881000D01*
X57858349Y-45805000D02*
X57858349Y-50495000D01*
X54737349Y-44076000D02*
X54737349Y-52224000D01*
X55458349Y-44183000D02*
X55458349Y-47110000D01*
X55378349Y-44165000D02*
X55378349Y-47110000D01*
X55618349Y-49190000D02*
X55618349Y-52075000D01*
X54857349Y-44085000D02*
X54857349Y-52215000D01*
X56298349Y-44484000D02*
X56298349Y-47110000D01*
X56378349Y-44523000D02*
X56378349Y-47110000D01*
X56818349Y-44785000D02*
X56818349Y-47110000D01*
X56778349Y-44758000D02*
X56778349Y-47110000D01*
X56098349Y-44393000D02*
X56098349Y-47110000D01*
X50087651Y-45835000D02*
X50887651Y-45835000D01*
X57618349Y-45499000D02*
X57618349Y-50801000D01*
X57738349Y-45645000D02*
X57738349Y-50655000D01*
X58098349Y-46186000D02*
X58098349Y-50114000D01*
X50487651Y-45435000D02*
X50487651Y-46235000D01*
X56058349Y-44376000D02*
X56058349Y-47110000D01*
X57418349Y-45283000D02*
X57418349Y-51017000D01*
X58058349Y-46116000D02*
X58058349Y-50184000D01*
X56698349Y-49190000D02*
X56698349Y-51594000D01*
X57298349Y-45167000D02*
X57298349Y-51133000D01*
X58178349Y-46337000D02*
X58178349Y-49963000D01*
X56338349Y-44503000D02*
X56338349Y-47110000D01*
X56858349Y-44812000D02*
X56858349Y-47110000D01*
X54657349Y-44073000D02*
X54657349Y-52227000D01*
X57218349Y-45095000D02*
X57218349Y-47110000D01*
X57058349Y-44961000D02*
X57058349Y-47110000D01*
X55818349Y-49190000D02*
X55818349Y-52013000D01*
X55698349Y-44248000D02*
X55698349Y-47110000D01*
X58298349Y-46598000D02*
X58298349Y-49702000D01*
X55818349Y-44287000D02*
X55818349Y-47110000D01*
X55898349Y-44315000D02*
X55898349Y-47110000D01*
X57578349Y-45453000D02*
X57578349Y-50847000D01*
X54817349Y-44082000D02*
X54817349Y-52218000D01*
X56898349Y-49190000D02*
X56898349Y-51459000D01*
X55858349Y-44300000D02*
X55858349Y-47110000D01*
X57258349Y-49190000D02*
X57258349Y-51169000D01*
X56978349Y-44900000D02*
X56978349Y-47110000D01*
X58538349Y-47382000D02*
X58538349Y-48918000D01*
X57098349Y-44994000D02*
X57098349Y-47110000D01*
X56578349Y-49190000D02*
X56578349Y-51667000D01*
X57498349Y-45366000D02*
X57498349Y-50934000D01*
X54777349Y-44079000D02*
X54777349Y-52221000D01*
X56978349Y-49190000D02*
X56978349Y-51400000D01*
X56738349Y-49190000D02*
X56738349Y-51568000D01*
X56578349Y-44633000D02*
X56578349Y-47110000D01*
X56418349Y-44544000D02*
X56418349Y-47110000D01*
X56138349Y-49190000D02*
X56138349Y-51890000D01*
X56178349Y-44428000D02*
X56178349Y-47110000D01*
X56618349Y-49190000D02*
X56618349Y-51643000D01*
X56778349Y-49190000D02*
X56778349Y-51542000D01*
X57338349Y-45205000D02*
X57338349Y-51095000D01*
X55418349Y-44174000D02*
X55418349Y-47110000D01*
X57698349Y-45594000D02*
X57698349Y-50706000D01*
X55338349Y-49190000D02*
X55338349Y-52144000D01*
X56378349Y-49190000D02*
X56378349Y-51777000D01*
X55057349Y-44108000D02*
X55057349Y-52192000D01*
X54977349Y-44098000D02*
X54977349Y-52202000D01*
X56938349Y-49190000D02*
X56938349Y-51430000D01*
X58418349Y-46921000D02*
X58418349Y-49379000D01*
X58258349Y-46505000D02*
X58258349Y-49795000D01*
X55698349Y-49190000D02*
X55698349Y-52052000D01*
X56418349Y-49190000D02*
X56418349Y-51756000D01*
X56698349Y-44706000D02*
X56698349Y-47110000D01*
X55097349Y-44113000D02*
X55097349Y-52187000D01*
X56258349Y-49190000D02*
X56258349Y-51836000D01*
X55858349Y-49190000D02*
X55858349Y-52000000D01*
X57178349Y-45060000D02*
X57178349Y-47110000D01*
X56458349Y-44566000D02*
X56458349Y-47110000D01*
X54497349Y-44070000D02*
X54497349Y-52230000D01*
X57978349Y-45984000D02*
X57978349Y-50316000D01*
X55778349Y-44273000D02*
X55778349Y-47110000D01*
X56818349Y-49190000D02*
X56818349Y-51515000D01*
X57258349Y-45131000D02*
X57258349Y-47110000D01*
X58498349Y-47202000D02*
X58498349Y-49098000D01*
X56218349Y-44446000D02*
X56218349Y-47110000D01*
X57658349Y-45546000D02*
X57658349Y-50754000D01*
X57938349Y-45922000D02*
X57938349Y-50378000D01*
X56938349Y-44870000D02*
X56938349Y-47110000D01*
X56098349Y-49190000D02*
X56098349Y-51907000D01*
X57138349Y-45026000D02*
X57138349Y-47110000D01*
X56018349Y-44360000D02*
X56018349Y-47110000D01*
X55658349Y-44236000D02*
X55658349Y-47110000D01*
X54577349Y-44070000D02*
X54577349Y-52230000D01*
X54937349Y-44093000D02*
X54937349Y-52207000D01*
X54697349Y-44074000D02*
X54697349Y-52226000D01*
X54617349Y-44071000D02*
X54617349Y-52229000D01*
X55418349Y-49190000D02*
X55418349Y-52126000D01*
X55658349Y-49190000D02*
X55658349Y-52064000D01*
X55458349Y-49190000D02*
X55458349Y-52117000D01*
X57378349Y-45243000D02*
X57378349Y-51057000D01*
X55578349Y-49190000D02*
X55578349Y-52086000D01*
X55338349Y-44156000D02*
X55338349Y-47110000D01*
X55137349Y-44120000D02*
X55137349Y-52180000D01*
X57818349Y-45750000D02*
X57818349Y-50550000D01*
X55538349Y-49190000D02*
X55538349Y-52097000D01*
X56498349Y-49190000D02*
X56498349Y-51712000D01*
X56538349Y-49190000D02*
X56538349Y-51690000D01*
X55298349Y-49190000D02*
X55298349Y-52152000D01*
X54537349Y-44070000D02*
X54537349Y-52230000D01*
X57138349Y-49190000D02*
X57138349Y-51274000D01*
X55378349Y-49190000D02*
X55378349Y-52135000D01*
X55978349Y-49190000D02*
X55978349Y-51955000D01*
X58018349Y-46048000D02*
X58018349Y-50252000D01*
X55498349Y-44193000D02*
X55498349Y-47110000D01*
X55017349Y-44102000D02*
X55017349Y-52198000D01*
X58578349Y-47617000D02*
X58578349Y-48683000D01*
X55258349Y-44140000D02*
X55258349Y-47110000D01*
X58338349Y-46697000D02*
X58338349Y-49603000D01*
X56298349Y-49190000D02*
X56298349Y-51816000D01*
X57778349Y-45696000D02*
X57778349Y-50604000D01*
X56258349Y-44464000D02*
X56258349Y-47110000D01*
X57458349Y-45324000D02*
X57458349Y-50976000D01*
X56898349Y-44841000D02*
X56898349Y-47110000D01*
X55618349Y-44225000D02*
X55618349Y-47110000D01*
X57898349Y-45863000D02*
X57898349Y-50437000D01*
X57178349Y-49190000D02*
X57178349Y-51240000D01*
X57018349Y-49190000D02*
X57018349Y-51370000D01*
X57218349Y-49190000D02*
X57218349Y-51205000D01*
X56458349Y-49190000D02*
X56458349Y-51734000D01*
X58458349Y-47052000D02*
X58458349Y-49248000D01*
X55177349Y-44126000D02*
X55177349Y-52174000D01*
X55738349Y-49190000D02*
X55738349Y-52039000D01*
X57018349Y-44930000D02*
X57018349Y-47110000D01*
X55538349Y-44203000D02*
X55538349Y-47110000D01*
X56058349Y-49190000D02*
X56058349Y-51924000D01*
X57058349Y-49190000D02*
X57058349Y-51339000D01*
X55938349Y-44329000D02*
X55938349Y-47110000D01*
X55298349Y-44148000D02*
X55298349Y-47110000D01*
X55938349Y-49190000D02*
X55938349Y-51971000D01*
X56658349Y-49190000D02*
X56658349Y-51619000D01*
X55738349Y-44261000D02*
X55738349Y-47110000D01*
X56538349Y-44610000D02*
X56538349Y-47110000D01*
X55498349Y-49190000D02*
X55498349Y-52107000D01*
X58378349Y-46804000D02*
X58378349Y-49496000D01*
X56738349Y-44732000D02*
X56738349Y-47110000D01*
X56018349Y-49190000D02*
X56018349Y-51940000D01*
X55898349Y-49190000D02*
X55898349Y-51985000D01*
X56218349Y-49190000D02*
X56218349Y-51854000D01*
X55778349Y-49190000D02*
X55778349Y-52027000D01*
X56658349Y-44681000D02*
X56658349Y-47110000D01*
X56338349Y-49190000D02*
X56338349Y-51797000D01*
X55258349Y-49190000D02*
X55258349Y-52160000D01*
X55978349Y-44345000D02*
X55978349Y-47110000D01*
X54897349Y-44089000D02*
X54897349Y-52211000D01*
X58617349Y-48150000D02*
G75*
G03*
X58617349Y-48150000I-4120000J0D01*
G01*
G04 #@! TO.C,U3*
X60540000Y-54007500D02*
X60540000Y-55907500D01*
X62860000Y-55407500D02*
X62860000Y-54007500D01*
G04 #@! TO.C,C10*
X45390000Y-25440580D02*
X45390000Y-25159420D01*
X46410000Y-25440580D02*
X46410000Y-25159420D01*
G04 #@! TO.C,R22*
X33022500Y-53962742D02*
X33022500Y-54437258D01*
X31977500Y-53962742D02*
X31977500Y-54437258D01*
G04 #@! TO.C,R15*
X63222500Y-46537258D02*
X63222500Y-46062742D01*
X62177500Y-46537258D02*
X62177500Y-46062742D01*
G04 #@! TO.C,R6*
X63812742Y-57847500D02*
X64287258Y-57847500D01*
X63812742Y-58892500D02*
X64287258Y-58892500D01*
G04 #@! TD*
M02*
