G04 #@! TF.GenerationSoftware,KiCad,Pcbnew,6.0.6+dfsg-1~bpo11+1*
G04 #@! TF.CreationDate,2022-07-19T19:35:54+02:00*
G04 #@! TF.ProjectId,EnergyMeter,456e6572-6779-44d6-9574-65722e6b6963,rev?*
G04 #@! TF.SameCoordinates,Original*
G04 #@! TF.FileFunction,Copper,L3,Inr*
G04 #@! TF.FilePolarity,Positive*
%FSLAX46Y46*%
G04 Gerber Fmt 4.6, Leading zero omitted, Abs format (unit mm)*
G04 Created by KiCad (PCBNEW 6.0.6+dfsg-1~bpo11+1) date 2022-07-19 19:35:54*
%MOMM*%
%LPD*%
G01*
G04 APERTURE LIST*
G04 Aperture macros list*
%AMRoundRect*
0 Rectangle with rounded corners*
0 $1 Rounding radius*
0 $2 $3 $4 $5 $6 $7 $8 $9 X,Y pos of 4 corners*
0 Add a 4 corners polygon primitive as box body*
4,1,4,$2,$3,$4,$5,$6,$7,$8,$9,$2,$3,0*
0 Add four circle primitives for the rounded corners*
1,1,$1+$1,$2,$3*
1,1,$1+$1,$4,$5*
1,1,$1+$1,$6,$7*
1,1,$1+$1,$8,$9*
0 Add four rect primitives between the rounded corners*
20,1,$1+$1,$2,$3,$4,$5,0*
20,1,$1+$1,$4,$5,$6,$7,0*
20,1,$1+$1,$6,$7,$8,$9,0*
20,1,$1+$1,$8,$9,$2,$3,0*%
G04 Aperture macros list end*
G04 #@! TA.AperFunction,ComponentPad*
%ADD10R,1.600000X1.600000*%
G04 #@! TD*
G04 #@! TA.AperFunction,ComponentPad*
%ADD11C,1.600000*%
G04 #@! TD*
G04 #@! TA.AperFunction,ComponentPad*
%ADD12R,1.520000X1.520000*%
G04 #@! TD*
G04 #@! TA.AperFunction,ComponentPad*
%ADD13C,1.520000*%
G04 #@! TD*
G04 #@! TA.AperFunction,ComponentPad*
%ADD14O,2.100000X1.000000*%
G04 #@! TD*
G04 #@! TA.AperFunction,ComponentPad*
%ADD15O,1.600000X1.000000*%
G04 #@! TD*
G04 #@! TA.AperFunction,ComponentPad*
%ADD16RoundRect,0.250500X-0.499500X-0.499500X0.499500X-0.499500X0.499500X0.499500X-0.499500X0.499500X0*%
G04 #@! TD*
G04 #@! TA.AperFunction,ComponentPad*
%ADD17C,1.500000*%
G04 #@! TD*
G04 #@! TA.AperFunction,ComponentPad*
%ADD18C,2.500000*%
G04 #@! TD*
G04 #@! TA.AperFunction,ComponentPad*
%ADD19R,1.700000X1.700000*%
G04 #@! TD*
G04 #@! TA.AperFunction,ComponentPad*
%ADD20O,1.700000X1.700000*%
G04 #@! TD*
G04 #@! TA.AperFunction,ViaPad*
%ADD21C,0.600000*%
G04 #@! TD*
G04 #@! TA.AperFunction,Conductor*
%ADD22C,1.000000*%
G04 #@! TD*
G04 #@! TA.AperFunction,Conductor*
%ADD23C,0.400000*%
G04 #@! TD*
G04 #@! TA.AperFunction,Conductor*
%ADD24C,0.600000*%
G04 #@! TD*
G04 APERTURE END LIST*
D10*
G04 #@! TO.N,+3V3*
G04 #@! TO.C,C1*
X44272349Y-50225000D03*
D11*
G04 #@! TO.N,GND*
X47772349Y-50225000D03*
G04 #@! TD*
D12*
G04 #@! TO.N,unconnected-(J4-Pad1)*
G04 #@! TO.C,J4*
X66830000Y-61230000D03*
D13*
G04 #@! TO.N,5V_INVERTER*
X68100000Y-63770000D03*
G04 #@! TO.N,Net-(J4-Pad3)*
X69370000Y-61230000D03*
G04 #@! TO.N,Net-(J4-Pad4)*
X70640000Y-63770000D03*
G04 #@! TO.N,GND*
X71910000Y-61230000D03*
G04 #@! TO.N,unconnected-(J4-Pad6)*
X73180000Y-63770000D03*
G04 #@! TD*
D14*
G04 #@! TO.N,GND*
G04 #@! TO.C,J5*
X34130000Y-33320000D03*
D15*
X29950000Y-33320000D03*
D14*
X34130000Y-24680000D03*
D15*
X29950000Y-24680000D03*
G04 #@! TD*
D16*
G04 #@! TO.N,/ethernet/TX_P*
G04 #@! TO.C,J6*
X33560000Y-60427500D03*
D17*
G04 #@! TO.N,/ethernet/TX_N*
X34820000Y-57887500D03*
G04 #@! TO.N,/ethernet/RX_P*
X36100000Y-60427500D03*
G04 #@! TO.N,Net-(C18-Pad1)*
X37360000Y-57887500D03*
X38640000Y-60427500D03*
G04 #@! TO.N,/ethernet/RX_N*
X39900000Y-57887500D03*
G04 #@! TO.N,N/C*
X41180000Y-60427500D03*
G04 #@! TO.N,GND*
X42440000Y-57887500D03*
X31375000Y-71687500D03*
G04 #@! TO.N,Net-(J6-Pad10)*
X33915000Y-71687500D03*
G04 #@! TO.N,Net-(J6-Pad11)*
X42085000Y-71687500D03*
G04 #@! TO.N,VDDA*
X44625000Y-71687500D03*
D18*
G04 #@! TO.N,GND*
X30255000Y-63737500D03*
X45745000Y-63737500D03*
G04 #@! TD*
D19*
G04 #@! TO.N,+5V*
G04 #@! TO.C,J1*
X34840000Y-43180000D03*
D20*
G04 #@! TO.N,5V_DSM*
X32300000Y-43180000D03*
G04 #@! TO.N,+5V*
X34840000Y-40640000D03*
G04 #@! TO.N,5V_INVERTER*
X32300000Y-40640000D03*
G04 #@! TO.N,+5V*
X34840000Y-38100000D03*
G04 #@! TO.N,5V_USB*
X32300000Y-38100000D03*
G04 #@! TD*
D12*
G04 #@! TO.N,5V_DSM*
G04 #@! TO.C,J2*
X51830000Y-61230000D03*
D13*
G04 #@! TO.N,Net-(J2-Pad2)*
X53100000Y-63770000D03*
G04 #@! TO.N,GND*
X54370000Y-61230000D03*
G04 #@! TO.N,unconnected-(J2-Pad4)*
X55640000Y-63770000D03*
G04 #@! TO.N,Net-(J2-Pad5)*
X56910000Y-61230000D03*
G04 #@! TO.N,GND*
X58180000Y-63770000D03*
G04 #@! TD*
D19*
G04 #@! TO.N,+3V3*
G04 #@! TO.C,J3*
X67500000Y-57350000D03*
D20*
G04 #@! TO.N,Net-(C4-Pad1)*
X67500000Y-54810000D03*
G04 #@! TO.N,+5V*
X67500000Y-52270000D03*
G04 #@! TD*
D10*
G04 #@! TO.N,+5V*
G04 #@! TO.C,C3*
X52747349Y-48150000D03*
D11*
G04 #@! TO.N,GND*
X56247349Y-48150000D03*
G04 #@! TD*
D21*
G04 #@! TO.N,GND*
X46700000Y-41900000D03*
X44600000Y-43200000D03*
X45200000Y-57200000D03*
X58200000Y-57200000D03*
X49000000Y-25600000D03*
X62400000Y-28900000D03*
X70300000Y-26600000D03*
X32300000Y-49100000D03*
X41225000Y-46800500D03*
X74900000Y-48000000D03*
X55800000Y-51900000D03*
X75800000Y-56500000D03*
X44100000Y-56600000D03*
X41600000Y-51900000D03*
X46700000Y-40600000D03*
X40500000Y-56100000D03*
X61800000Y-57200000D03*
X36100000Y-49800000D03*
X37400000Y-39500000D03*
X59400000Y-48100000D03*
X29400000Y-53800000D03*
X46700000Y-39400000D03*
X54200000Y-27500000D03*
X46700000Y-43100000D03*
X41200000Y-33100000D03*
X69900000Y-39700000D03*
X65100000Y-59500000D03*
G04 #@! TO.N,+3V3*
X67200000Y-48300000D03*
X68600000Y-26500000D03*
X33600000Y-47400000D03*
X76300000Y-48100000D03*
X39300000Y-43200000D03*
X61275020Y-48100000D03*
X47300000Y-33000000D03*
X61400000Y-51800000D03*
X29200000Y-47700000D03*
X40800000Y-43200000D03*
X44600000Y-24900000D03*
X57300000Y-52100000D03*
X39425000Y-31600000D03*
X37200000Y-46000000D03*
X37800000Y-43100000D03*
X62700000Y-48200000D03*
G04 #@! TO.N,5V_USB*
X36400000Y-31500000D03*
X36400000Y-26600000D03*
G04 #@! TO.N,VDDA*
X38300000Y-51700000D03*
X32000000Y-52400000D03*
X41500000Y-54300000D03*
X34100000Y-51859700D03*
X35200000Y-56200000D03*
G04 #@! TO.N,Net-(C18-Pad1)*
X39300000Y-56200000D03*
G04 #@! TO.N,5V_INVERTER*
X33700000Y-64100000D03*
G04 #@! TO.N,+5V*
X44900000Y-39300000D03*
G04 #@! TO.N,Net-(J4-Pad3)*
X73800000Y-60000000D03*
X73900000Y-52300000D03*
G04 #@! TO.N,/USB/EN*
X48325000Y-36250000D03*
X40300000Y-37100000D03*
X67300000Y-36400000D03*
G04 #@! TO.N,Net-(Q1-Pad2)*
X45225000Y-36150000D03*
X39325000Y-34800000D03*
G04 #@! TO.N,Net-(Q2-Pad1)*
X45975000Y-34225000D03*
X44000500Y-34225000D03*
G04 #@! TO.N,Net-(Q2-Pad2)*
X37399500Y-34225000D03*
X40250000Y-33125000D03*
G04 #@! TO.N,/ethernet/RXER*
X36000000Y-46300000D03*
X67200000Y-44300000D03*
G04 #@! TO.N,/ethernet/MDIO*
X59695000Y-44070000D03*
X34200000Y-46500000D03*
G04 #@! TO.N,/ethernet/CRS_DV*
X55700000Y-39900000D03*
X53700000Y-44800000D03*
X64200000Y-44300000D03*
X35100000Y-46500000D03*
X52400000Y-43400000D03*
G04 #@! TO.N,/ethernet/RST*
X33100000Y-49400000D03*
X60400000Y-48700000D03*
G04 #@! TO.N,/ethernet/RXD1*
X62100000Y-43900000D03*
X63499905Y-46399500D03*
X62100000Y-39700000D03*
X38741398Y-47031774D03*
G04 #@! TO.N,/ethernet/RXD0*
X63800000Y-38700000D03*
X66500000Y-46300000D03*
X38000000Y-46399509D03*
X65900000Y-44300000D03*
G04 #@! TO.N,Net-(R17-Pad2)*
X39000000Y-50000000D03*
X41300000Y-50100000D03*
G04 #@! TO.N,Net-(R18-Pad2)*
X42800000Y-51700000D03*
X39100000Y-51000000D03*
G04 #@! TO.N,/P1_UART/DATA_IN*
X55600000Y-38600000D03*
X57800000Y-43900000D03*
G04 #@! TO.N,/RS485/DI*
X70300000Y-43700000D03*
X54500000Y-37699500D03*
G04 #@! TO.N,/RS485/DO*
X54800000Y-28800000D03*
X70500000Y-29000000D03*
G04 #@! TO.N,/P1_UART/DATA_OUT*
X49900000Y-39300000D03*
X55800000Y-53400000D03*
X63100000Y-52200000D03*
X50799500Y-37699500D03*
G04 #@! TO.N,/RS485/TXEN*
X72700000Y-51600000D03*
X54700000Y-51800000D03*
G04 #@! TO.N,/ethernet/REFCLK*
X39000000Y-49124500D03*
X57800000Y-48600000D03*
G04 #@! TO.N,/ethernet/TXD0*
X62200000Y-51300000D03*
X32400000Y-50900000D03*
G04 #@! TO.N,/ethernet/TXEN*
X32300000Y-50000000D03*
X65100000Y-48800000D03*
G04 #@! TO.N,/USB/TX*
X64600000Y-35400000D03*
X41300000Y-31900000D03*
G04 #@! TO.N,/USB/RX*
X66000000Y-35300000D03*
X41300000Y-30800000D03*
G04 #@! TO.N,/ethernet/TXD1*
X33000000Y-51500000D03*
X66500000Y-48900000D03*
G04 #@! TO.N,/ethernet/MDC*
X33100000Y-48500000D03*
X69200000Y-45900000D03*
G04 #@! TD*
D22*
G04 #@! TO.N,5V_USB*
X32800000Y-35700000D02*
X32300000Y-36200000D01*
X36400000Y-31500000D02*
X36400000Y-34300000D01*
X35000000Y-35700000D02*
X32800000Y-35700000D01*
X32300000Y-36200000D02*
X32300000Y-38100000D01*
X36400000Y-26600000D02*
X36400000Y-31500000D01*
X36400000Y-34300000D02*
X35000000Y-35700000D01*
G04 #@! TO.N,5V_INVERTER*
X62630000Y-63770000D02*
X60900000Y-65500000D01*
X68100000Y-63770000D02*
X62630000Y-63770000D01*
X35100000Y-64900000D02*
X34300000Y-64100000D01*
X49600000Y-66000000D02*
X49200000Y-66000000D01*
X46200000Y-69000000D02*
X45600000Y-69600000D01*
X60400000Y-66000000D02*
X49600000Y-66000000D01*
X60900000Y-65500000D02*
X60400000Y-66000000D01*
X45600000Y-69600000D02*
X36300000Y-69600000D01*
X34300000Y-64100000D02*
X33700000Y-64100000D01*
X35100000Y-68400000D02*
X35100000Y-64900000D01*
X36300000Y-69600000D02*
X35100000Y-68400000D01*
X49200000Y-66000000D02*
X46200000Y-69000000D01*
D23*
G04 #@! TO.N,+5V*
X54897349Y-50300000D02*
X65530000Y-50300000D01*
D24*
X47650000Y-48150000D02*
X52747349Y-48150000D01*
X45700000Y-40100000D02*
X45700000Y-46200000D01*
D23*
X52747349Y-48150000D02*
X54897349Y-50300000D01*
X65530000Y-50300000D02*
X67500000Y-52270000D01*
D24*
X45700000Y-46200000D02*
X47650000Y-48150000D01*
X44900000Y-39300000D02*
X45700000Y-40100000D01*
D22*
G04 #@! TO.N,5V_DSM*
X51830000Y-61230000D02*
X44070000Y-61230000D01*
X30500000Y-60400000D02*
X30500000Y-44980000D01*
X44070000Y-61230000D02*
X42600000Y-62700000D01*
X30500000Y-44980000D02*
X32300000Y-43180000D01*
X42600000Y-62700000D02*
X32800000Y-62700000D01*
X32800000Y-62700000D02*
X30500000Y-60400000D01*
G04 #@! TD*
G04 #@! TA.AperFunction,Conductor*
G04 #@! TO.N,VDDA*
G36*
X34315931Y-50120002D02*
G01*
X34336905Y-50136905D01*
X35500000Y-51300000D01*
X38265425Y-51300000D01*
X38333546Y-51320002D01*
X38373201Y-51360729D01*
X38455380Y-51496424D01*
X38460269Y-51501487D01*
X38460270Y-51501488D01*
X38537121Y-51581068D01*
X38581382Y-51626902D01*
X38587278Y-51630760D01*
X38722508Y-51719252D01*
X38733159Y-51726222D01*
X38739763Y-51728678D01*
X38739765Y-51728679D01*
X38896558Y-51786990D01*
X38896560Y-51786990D01*
X38903168Y-51789448D01*
X38986995Y-51800633D01*
X39075980Y-51812507D01*
X39075984Y-51812507D01*
X39082961Y-51813438D01*
X39089972Y-51812800D01*
X39089976Y-51812800D01*
X39232459Y-51799832D01*
X39263600Y-51796998D01*
X39270302Y-51794820D01*
X39270304Y-51794820D01*
X39429409Y-51743124D01*
X39429412Y-51743123D01*
X39436108Y-51740947D01*
X39472502Y-51719252D01*
X39480192Y-51714668D01*
X39548947Y-51696969D01*
X39616356Y-51719252D01*
X39633803Y-51733803D01*
X41600000Y-53700000D01*
X42774000Y-53700000D01*
X42842121Y-53720002D01*
X42888614Y-53773658D01*
X42900000Y-53826000D01*
X42900000Y-56543655D01*
X42879998Y-56611776D01*
X42826342Y-56658269D01*
X42756068Y-56668373D01*
X42741388Y-56665361D01*
X42664691Y-56644810D01*
X42664685Y-56644809D01*
X42659371Y-56643385D01*
X42440000Y-56624193D01*
X42220629Y-56643385D01*
X42165082Y-56658269D01*
X42025363Y-56695707D01*
X41992751Y-56700000D01*
X41307084Y-56700000D01*
X41238963Y-56679998D01*
X41192470Y-56626342D01*
X41182366Y-56556068D01*
X41202136Y-56504273D01*
X41219742Y-56477773D01*
X41223643Y-56471902D01*
X41288055Y-56302338D01*
X41313299Y-56122717D01*
X41313616Y-56100000D01*
X41293397Y-55919745D01*
X41267320Y-55844861D01*
X41236064Y-55755106D01*
X41236062Y-55755103D01*
X41233745Y-55748448D01*
X41137626Y-55594624D01*
X41109120Y-55565918D01*
X41014778Y-55470915D01*
X41014774Y-55470912D01*
X41009815Y-55465918D01*
X41002928Y-55461547D01*
X40913237Y-55404628D01*
X40856666Y-55368727D01*
X40827463Y-55358328D01*
X40692425Y-55310243D01*
X40692420Y-55310242D01*
X40685790Y-55307881D01*
X40678802Y-55307048D01*
X40678799Y-55307047D01*
X40555698Y-55292368D01*
X40505680Y-55286404D01*
X40498677Y-55287140D01*
X40498676Y-55287140D01*
X40332288Y-55304628D01*
X40332286Y-55304629D01*
X40325288Y-55305364D01*
X40153579Y-55363818D01*
X40147575Y-55367512D01*
X40005095Y-55455166D01*
X40005092Y-55455168D01*
X39999088Y-55458862D01*
X39961184Y-55495981D01*
X39929678Y-55526833D01*
X39867013Y-55560203D01*
X39796254Y-55554397D01*
X39774010Y-55543195D01*
X39656666Y-55468727D01*
X39618582Y-55455166D01*
X39492425Y-55410243D01*
X39492420Y-55410242D01*
X39485790Y-55407881D01*
X39478802Y-55407048D01*
X39478799Y-55407047D01*
X39355698Y-55392368D01*
X39305680Y-55386404D01*
X39298677Y-55387140D01*
X39298676Y-55387140D01*
X39132288Y-55404628D01*
X39132286Y-55404629D01*
X39125288Y-55405364D01*
X38953579Y-55463818D01*
X38947575Y-55467512D01*
X38805095Y-55555166D01*
X38805092Y-55555168D01*
X38799088Y-55558862D01*
X38794053Y-55563793D01*
X38794050Y-55563795D01*
X38674525Y-55680843D01*
X38669493Y-55685771D01*
X38571235Y-55838238D01*
X38568826Y-55844858D01*
X38568824Y-55844861D01*
X38539021Y-55926744D01*
X38509197Y-56008685D01*
X38486463Y-56188640D01*
X38504163Y-56369160D01*
X38506387Y-56375845D01*
X38559074Y-56534228D01*
X38561597Y-56605180D01*
X38525360Y-56666232D01*
X38461868Y-56698002D01*
X38439516Y-56700000D01*
X37807249Y-56700000D01*
X37774637Y-56695707D01*
X37634918Y-56658269D01*
X37579371Y-56643385D01*
X37360000Y-56624193D01*
X37140629Y-56643385D01*
X37085082Y-56658269D01*
X36945363Y-56695707D01*
X36912751Y-56700000D01*
X35267249Y-56700000D01*
X35234637Y-56695707D01*
X35094918Y-56658269D01*
X35039371Y-56643385D01*
X34820000Y-56624193D01*
X34600629Y-56643385D01*
X34545082Y-56658269D01*
X34405363Y-56695707D01*
X34372751Y-56700000D01*
X31634500Y-56700000D01*
X31566379Y-56679998D01*
X31519886Y-56626342D01*
X31508500Y-56574000D01*
X31508500Y-51440058D01*
X31528502Y-51371937D01*
X31582158Y-51325444D01*
X31652432Y-51315340D01*
X31717012Y-51344834D01*
X31742275Y-51374785D01*
X31755380Y-51396424D01*
X31881382Y-51526902D01*
X32033159Y-51626222D01*
X32039763Y-51628678D01*
X32039765Y-51628679D01*
X32155423Y-51671692D01*
X32212299Y-51714184D01*
X32231061Y-51750017D01*
X32261418Y-51841273D01*
X32265065Y-51847295D01*
X32265066Y-51847297D01*
X32275978Y-51865314D01*
X32355380Y-51996424D01*
X32481382Y-52126902D01*
X32633159Y-52226222D01*
X32639763Y-52228678D01*
X32639765Y-52228679D01*
X32796558Y-52286990D01*
X32796560Y-52286990D01*
X32803168Y-52289448D01*
X32886995Y-52300633D01*
X32975980Y-52312507D01*
X32975984Y-52312507D01*
X32982961Y-52313438D01*
X32989972Y-52312800D01*
X32989976Y-52312800D01*
X33132459Y-52299832D01*
X33163600Y-52296998D01*
X33170302Y-52294820D01*
X33170304Y-52294820D01*
X33329409Y-52243124D01*
X33329412Y-52243123D01*
X33336108Y-52240947D01*
X33491912Y-52148069D01*
X33623266Y-52022982D01*
X33723643Y-51871902D01*
X33773389Y-51740947D01*
X33785555Y-51708920D01*
X33785556Y-51708918D01*
X33788055Y-51702338D01*
X33798657Y-51626902D01*
X33812748Y-51526639D01*
X33812748Y-51526636D01*
X33813299Y-51522717D01*
X33813616Y-51500000D01*
X33793397Y-51319745D01*
X33786521Y-51300000D01*
X33736064Y-51155106D01*
X33736062Y-51155103D01*
X33733745Y-51148448D01*
X33637626Y-50994624D01*
X33611909Y-50968727D01*
X33514778Y-50870915D01*
X33514774Y-50870912D01*
X33509815Y-50865918D01*
X33356666Y-50768727D01*
X33246629Y-50729545D01*
X33189165Y-50687851D01*
X33169905Y-50652283D01*
X33136064Y-50555104D01*
X33136060Y-50555095D01*
X33133745Y-50548448D01*
X33056705Y-50425158D01*
X33037570Y-50356790D01*
X33045773Y-50313645D01*
X33055912Y-50286955D01*
X33098801Y-50230377D01*
X33162279Y-50206219D01*
X33263600Y-50196998D01*
X33270302Y-50194820D01*
X33270304Y-50194820D01*
X33429409Y-50143124D01*
X33429412Y-50143123D01*
X33436108Y-50140947D01*
X33474986Y-50117771D01*
X33539504Y-50100000D01*
X34247810Y-50100000D01*
X34315931Y-50120002D01*
G37*
G04 #@! TD.AperFunction*
G04 #@! TD*
G04 #@! TA.AperFunction,Conductor*
G04 #@! TO.N,+3V3*
G36*
X71542121Y-23320502D02*
G01*
X71588614Y-23374158D01*
X71600000Y-23426500D01*
X71600000Y-47200000D01*
X74628743Y-47200000D01*
X74696864Y-47220002D01*
X74743357Y-47273658D01*
X74753461Y-47343932D01*
X74723967Y-47408512D01*
X74676961Y-47442409D01*
X74597159Y-47475464D01*
X74471718Y-47571718D01*
X74375464Y-47697159D01*
X74314956Y-47843238D01*
X74294318Y-48000000D01*
X74314956Y-48156762D01*
X74375464Y-48302841D01*
X74471718Y-48428282D01*
X74597159Y-48524536D01*
X74743238Y-48585044D01*
X74900000Y-48605682D01*
X74908188Y-48604604D01*
X74924550Y-48602450D01*
X75056762Y-48585044D01*
X75202841Y-48524536D01*
X75328282Y-48428282D01*
X75424536Y-48302841D01*
X75485044Y-48156762D01*
X75505682Y-48000000D01*
X75485044Y-47843238D01*
X75424536Y-47697159D01*
X75328282Y-47571718D01*
X75202841Y-47475464D01*
X75123039Y-47442409D01*
X75067758Y-47397861D01*
X75045337Y-47330497D01*
X75062895Y-47261706D01*
X75114857Y-47213328D01*
X75171257Y-47200000D01*
X77573500Y-47200000D01*
X77641621Y-47220002D01*
X77688114Y-47273658D01*
X77699500Y-47326000D01*
X77699500Y-72573500D01*
X77679498Y-72641621D01*
X77625842Y-72688114D01*
X77573500Y-72699500D01*
X45401999Y-72699500D01*
X45333878Y-72679498D01*
X45287385Y-72625842D01*
X45277281Y-72555568D01*
X45306775Y-72490988D01*
X45324426Y-72474210D01*
X45348101Y-72455713D01*
X45352951Y-72451924D01*
X45487564Y-72295972D01*
X45508387Y-72259318D01*
X45586276Y-72122207D01*
X45589323Y-72116844D01*
X45654351Y-71921363D01*
X45680171Y-71716974D01*
X45680583Y-71687500D01*
X45660480Y-71482470D01*
X45600935Y-71285249D01*
X45504218Y-71103349D01*
X45430859Y-71013402D01*
X45377906Y-70948475D01*
X45377903Y-70948472D01*
X45374011Y-70943700D01*
X45356786Y-70929450D01*
X45220025Y-70816311D01*
X45220021Y-70816309D01*
X45215275Y-70812382D01*
X45034055Y-70714397D01*
X44837254Y-70653477D01*
X44831131Y-70652834D01*
X44831129Y-70652833D01*
X44821393Y-70651810D01*
X44755736Y-70624797D01*
X44715106Y-70566576D01*
X44712403Y-70495630D01*
X44748485Y-70434486D01*
X44811896Y-70402556D01*
X44834563Y-70400500D01*
X45590917Y-70400500D01*
X45592238Y-70400507D01*
X45681407Y-70401441D01*
X45723296Y-70392384D01*
X45735870Y-70390325D01*
X45753492Y-70388348D01*
X45771476Y-70386331D01*
X45771478Y-70386330D01*
X45778472Y-70385546D01*
X45809759Y-70374650D01*
X45824564Y-70370489D01*
X45850061Y-70364977D01*
X45850064Y-70364976D01*
X45856942Y-70363489D01*
X45895799Y-70345370D01*
X45907582Y-70340586D01*
X45948073Y-70326485D01*
X45976167Y-70308930D01*
X45989682Y-70301592D01*
X46019707Y-70287591D01*
X46053567Y-70261326D01*
X46064024Y-70254031D01*
X46094400Y-70235050D01*
X46094403Y-70235048D01*
X46100375Y-70231316D01*
X46105373Y-70226353D01*
X46128893Y-70202997D01*
X46129515Y-70202415D01*
X46130177Y-70201901D01*
X46156037Y-70176041D01*
X46227807Y-70104770D01*
X46228459Y-70103743D01*
X46229543Y-70102535D01*
X46242400Y-70089678D01*
X47989820Y-70089678D01*
X47990064Y-70094113D01*
X47990064Y-70094117D01*
X48004519Y-70356763D01*
X48004804Y-70361946D01*
X48058001Y-70629385D01*
X48148350Y-70886661D01*
X48274048Y-71128641D01*
X48276631Y-71132256D01*
X48276635Y-71132262D01*
X48429999Y-71346874D01*
X48432587Y-71350495D01*
X48620805Y-71547797D01*
X48624301Y-71550553D01*
X48624302Y-71550554D01*
X48802485Y-71691022D01*
X48834944Y-71716611D01*
X48895912Y-71752024D01*
X49066880Y-71851331D01*
X49066886Y-71851334D01*
X49070734Y-71853569D01*
X49223002Y-71915244D01*
X49319337Y-71954264D01*
X49319340Y-71954265D01*
X49323468Y-71955937D01*
X49490575Y-71997446D01*
X49583780Y-72020599D01*
X49583785Y-72020600D01*
X49588105Y-72021673D01*
X49820664Y-72045500D01*
X49989458Y-72045500D01*
X50191998Y-72031159D01*
X50196353Y-72030221D01*
X50196356Y-72030221D01*
X50454222Y-71974704D01*
X50454224Y-71974704D01*
X50458569Y-71973768D01*
X50714395Y-71879389D01*
X50954370Y-71749906D01*
X51038861Y-71687500D01*
X51170129Y-71590543D01*
X51173706Y-71587901D01*
X51368028Y-71396608D01*
X51405984Y-71346874D01*
X51530756Y-71183385D01*
X51530759Y-71183381D01*
X51533458Y-71179844D01*
X51666694Y-70941932D01*
X51689698Y-70882471D01*
X51763473Y-70691776D01*
X51763475Y-70691770D01*
X51765080Y-70687621D01*
X51773144Y-70652833D01*
X51825645Y-70426323D01*
X51826651Y-70421984D01*
X51850180Y-70150322D01*
X51849936Y-70145883D01*
X51846843Y-70089678D01*
X58149820Y-70089678D01*
X58150064Y-70094113D01*
X58150064Y-70094117D01*
X58164519Y-70356763D01*
X58164804Y-70361946D01*
X58218001Y-70629385D01*
X58308350Y-70886661D01*
X58434048Y-71128641D01*
X58436631Y-71132256D01*
X58436635Y-71132262D01*
X58589999Y-71346874D01*
X58592587Y-71350495D01*
X58780805Y-71547797D01*
X58784301Y-71550553D01*
X58784302Y-71550554D01*
X58962485Y-71691022D01*
X58994944Y-71716611D01*
X59055912Y-71752024D01*
X59226880Y-71851331D01*
X59226886Y-71851334D01*
X59230734Y-71853569D01*
X59383002Y-71915244D01*
X59479337Y-71954264D01*
X59479340Y-71954265D01*
X59483468Y-71955937D01*
X59650575Y-71997446D01*
X59743780Y-72020599D01*
X59743785Y-72020600D01*
X59748105Y-72021673D01*
X59980664Y-72045500D01*
X60149458Y-72045500D01*
X60351998Y-72031159D01*
X60356353Y-72030221D01*
X60356356Y-72030221D01*
X60614222Y-71974704D01*
X60614224Y-71974704D01*
X60618569Y-71973768D01*
X60874395Y-71879389D01*
X61114370Y-71749906D01*
X61198861Y-71687500D01*
X61330129Y-71590543D01*
X61333706Y-71587901D01*
X61528028Y-71396608D01*
X61565984Y-71346874D01*
X61690756Y-71183385D01*
X61690759Y-71183381D01*
X61693458Y-71179844D01*
X61826694Y-70941932D01*
X61849698Y-70882471D01*
X61923473Y-70691776D01*
X61923475Y-70691770D01*
X61925080Y-70687621D01*
X61933144Y-70652833D01*
X61985645Y-70426323D01*
X61986651Y-70421984D01*
X62010180Y-70150322D01*
X62009936Y-70145883D01*
X62006843Y-70089678D01*
X62989820Y-70089678D01*
X62990064Y-70094113D01*
X62990064Y-70094117D01*
X63004519Y-70356763D01*
X63004804Y-70361946D01*
X63058001Y-70629385D01*
X63148350Y-70886661D01*
X63274048Y-71128641D01*
X63276631Y-71132256D01*
X63276635Y-71132262D01*
X63429999Y-71346874D01*
X63432587Y-71350495D01*
X63620805Y-71547797D01*
X63624301Y-71550553D01*
X63624302Y-71550554D01*
X63802485Y-71691022D01*
X63834944Y-71716611D01*
X63895912Y-71752024D01*
X64066880Y-71851331D01*
X64066886Y-71851334D01*
X64070734Y-71853569D01*
X64223002Y-71915244D01*
X64319337Y-71954264D01*
X64319340Y-71954265D01*
X64323468Y-71955937D01*
X64490575Y-71997446D01*
X64583780Y-72020599D01*
X64583785Y-72020600D01*
X64588105Y-72021673D01*
X64820664Y-72045500D01*
X64989458Y-72045500D01*
X65191998Y-72031159D01*
X65196353Y-72030221D01*
X65196356Y-72030221D01*
X65454222Y-71974704D01*
X65454224Y-71974704D01*
X65458569Y-71973768D01*
X65714395Y-71879389D01*
X65954370Y-71749906D01*
X66038861Y-71687500D01*
X66170129Y-71590543D01*
X66173706Y-71587901D01*
X66368028Y-71396608D01*
X66405984Y-71346874D01*
X66530756Y-71183385D01*
X66530759Y-71183381D01*
X66533458Y-71179844D01*
X66666694Y-70941932D01*
X66689698Y-70882471D01*
X66763473Y-70691776D01*
X66763475Y-70691770D01*
X66765080Y-70687621D01*
X66773144Y-70652833D01*
X66825645Y-70426323D01*
X66826651Y-70421984D01*
X66850180Y-70150322D01*
X66849936Y-70145883D01*
X66846843Y-70089678D01*
X73149820Y-70089678D01*
X73150064Y-70094113D01*
X73150064Y-70094117D01*
X73164519Y-70356763D01*
X73164804Y-70361946D01*
X73218001Y-70629385D01*
X73308350Y-70886661D01*
X73434048Y-71128641D01*
X73436631Y-71132256D01*
X73436635Y-71132262D01*
X73589999Y-71346874D01*
X73592587Y-71350495D01*
X73780805Y-71547797D01*
X73784301Y-71550553D01*
X73784302Y-71550554D01*
X73962485Y-71691022D01*
X73994944Y-71716611D01*
X74055912Y-71752024D01*
X74226880Y-71851331D01*
X74226886Y-71851334D01*
X74230734Y-71853569D01*
X74383002Y-71915244D01*
X74479337Y-71954264D01*
X74479340Y-71954265D01*
X74483468Y-71955937D01*
X74650575Y-71997446D01*
X74743780Y-72020599D01*
X74743785Y-72020600D01*
X74748105Y-72021673D01*
X74980664Y-72045500D01*
X75149458Y-72045500D01*
X75351998Y-72031159D01*
X75356353Y-72030221D01*
X75356356Y-72030221D01*
X75614222Y-71974704D01*
X75614224Y-71974704D01*
X75618569Y-71973768D01*
X75874395Y-71879389D01*
X76114370Y-71749906D01*
X76198861Y-71687500D01*
X76330129Y-71590543D01*
X76333706Y-71587901D01*
X76528028Y-71396608D01*
X76565984Y-71346874D01*
X76690756Y-71183385D01*
X76690759Y-71183381D01*
X76693458Y-71179844D01*
X76826694Y-70941932D01*
X76849698Y-70882471D01*
X76923473Y-70691776D01*
X76923475Y-70691770D01*
X76925080Y-70687621D01*
X76933144Y-70652833D01*
X76985645Y-70426323D01*
X76986651Y-70421984D01*
X77010180Y-70150322D01*
X77009936Y-70145883D01*
X76995441Y-69882497D01*
X76995440Y-69882490D01*
X76995196Y-69878054D01*
X76941999Y-69610615D01*
X76851650Y-69353339D01*
X76725952Y-69111359D01*
X76723369Y-69107744D01*
X76723365Y-69107738D01*
X76570001Y-68893126D01*
X76569998Y-68893122D01*
X76567413Y-68889505D01*
X76379195Y-68692203D01*
X76375698Y-68689446D01*
X76168551Y-68526144D01*
X76168549Y-68526142D01*
X76165056Y-68523389D01*
X75986240Y-68419524D01*
X75933120Y-68388669D01*
X75933114Y-68388666D01*
X75929266Y-68386431D01*
X75763992Y-68319488D01*
X75680663Y-68285736D01*
X75680660Y-68285735D01*
X75676532Y-68284063D01*
X75509425Y-68242554D01*
X75416220Y-68219401D01*
X75416215Y-68219400D01*
X75411895Y-68218327D01*
X75179336Y-68194500D01*
X75010542Y-68194500D01*
X74808002Y-68208841D01*
X74803647Y-68209779D01*
X74803644Y-68209779D01*
X74545778Y-68265296D01*
X74545776Y-68265296D01*
X74541431Y-68266232D01*
X74285605Y-68360611D01*
X74045630Y-68490094D01*
X74042043Y-68492743D01*
X74042042Y-68492744D01*
X73935448Y-68571476D01*
X73826294Y-68652099D01*
X73631972Y-68843392D01*
X73629273Y-68846929D01*
X73629270Y-68846932D01*
X73546004Y-68956037D01*
X73466542Y-69060156D01*
X73333306Y-69298068D01*
X73234920Y-69552379D01*
X73173349Y-69818016D01*
X73149820Y-70089678D01*
X66846843Y-70089678D01*
X66835441Y-69882497D01*
X66835440Y-69882490D01*
X66835196Y-69878054D01*
X66781999Y-69610615D01*
X66691650Y-69353339D01*
X66565952Y-69111359D01*
X66563369Y-69107744D01*
X66563365Y-69107738D01*
X66410001Y-68893126D01*
X66409998Y-68893122D01*
X66407413Y-68889505D01*
X66219195Y-68692203D01*
X66215698Y-68689446D01*
X66008551Y-68526144D01*
X66008549Y-68526142D01*
X66005056Y-68523389D01*
X65826240Y-68419524D01*
X65773120Y-68388669D01*
X65773114Y-68388666D01*
X65769266Y-68386431D01*
X65603992Y-68319488D01*
X65520663Y-68285736D01*
X65520660Y-68285735D01*
X65516532Y-68284063D01*
X65349425Y-68242554D01*
X65256220Y-68219401D01*
X65256215Y-68219400D01*
X65251895Y-68218327D01*
X65019336Y-68194500D01*
X64850542Y-68194500D01*
X64648002Y-68208841D01*
X64643647Y-68209779D01*
X64643644Y-68209779D01*
X64385778Y-68265296D01*
X64385776Y-68265296D01*
X64381431Y-68266232D01*
X64125605Y-68360611D01*
X63885630Y-68490094D01*
X63882043Y-68492743D01*
X63882042Y-68492744D01*
X63775448Y-68571476D01*
X63666294Y-68652099D01*
X63471972Y-68843392D01*
X63469273Y-68846929D01*
X63469270Y-68846932D01*
X63386004Y-68956037D01*
X63306542Y-69060156D01*
X63173306Y-69298068D01*
X63074920Y-69552379D01*
X63013349Y-69818016D01*
X62989820Y-70089678D01*
X62006843Y-70089678D01*
X61995441Y-69882497D01*
X61995440Y-69882490D01*
X61995196Y-69878054D01*
X61941999Y-69610615D01*
X61851650Y-69353339D01*
X61725952Y-69111359D01*
X61723369Y-69107744D01*
X61723365Y-69107738D01*
X61570001Y-68893126D01*
X61569998Y-68893122D01*
X61567413Y-68889505D01*
X61379195Y-68692203D01*
X61375698Y-68689446D01*
X61168551Y-68526144D01*
X61168549Y-68526142D01*
X61165056Y-68523389D01*
X60986240Y-68419524D01*
X60933120Y-68388669D01*
X60933114Y-68388666D01*
X60929266Y-68386431D01*
X60763992Y-68319488D01*
X60680663Y-68285736D01*
X60680660Y-68285735D01*
X60676532Y-68284063D01*
X60509425Y-68242554D01*
X60416220Y-68219401D01*
X60416215Y-68219400D01*
X60411895Y-68218327D01*
X60179336Y-68194500D01*
X60010542Y-68194500D01*
X59808002Y-68208841D01*
X59803647Y-68209779D01*
X59803644Y-68209779D01*
X59545778Y-68265296D01*
X59545776Y-68265296D01*
X59541431Y-68266232D01*
X59285605Y-68360611D01*
X59045630Y-68490094D01*
X59042043Y-68492743D01*
X59042042Y-68492744D01*
X58935448Y-68571476D01*
X58826294Y-68652099D01*
X58631972Y-68843392D01*
X58629273Y-68846929D01*
X58629270Y-68846932D01*
X58546004Y-68956037D01*
X58466542Y-69060156D01*
X58333306Y-69298068D01*
X58234920Y-69552379D01*
X58173349Y-69818016D01*
X58149820Y-70089678D01*
X51846843Y-70089678D01*
X51835441Y-69882497D01*
X51835440Y-69882490D01*
X51835196Y-69878054D01*
X51781999Y-69610615D01*
X51691650Y-69353339D01*
X51565952Y-69111359D01*
X51563369Y-69107744D01*
X51563365Y-69107738D01*
X51410001Y-68893126D01*
X51409998Y-68893122D01*
X51407413Y-68889505D01*
X51219195Y-68692203D01*
X51215698Y-68689446D01*
X51008551Y-68526144D01*
X51008549Y-68526142D01*
X51005056Y-68523389D01*
X50826240Y-68419524D01*
X50773120Y-68388669D01*
X50773114Y-68388666D01*
X50769266Y-68386431D01*
X50603992Y-68319488D01*
X50520663Y-68285736D01*
X50520660Y-68285735D01*
X50516532Y-68284063D01*
X50349425Y-68242554D01*
X50256220Y-68219401D01*
X50256215Y-68219400D01*
X50251895Y-68218327D01*
X50019336Y-68194500D01*
X49850542Y-68194500D01*
X49648002Y-68208841D01*
X49643647Y-68209779D01*
X49643644Y-68209779D01*
X49385778Y-68265296D01*
X49385776Y-68265296D01*
X49381431Y-68266232D01*
X49125605Y-68360611D01*
X48885630Y-68490094D01*
X48882043Y-68492743D01*
X48882042Y-68492744D01*
X48775448Y-68571476D01*
X48666294Y-68652099D01*
X48471972Y-68843392D01*
X48469273Y-68846929D01*
X48469270Y-68846932D01*
X48386004Y-68956037D01*
X48306542Y-69060156D01*
X48173306Y-69298068D01*
X48074920Y-69552379D01*
X48013349Y-69818016D01*
X47989820Y-70089678D01*
X46242400Y-70089678D01*
X49494673Y-66837405D01*
X49556985Y-66803379D01*
X49583768Y-66800500D01*
X60390917Y-66800500D01*
X60392238Y-66800507D01*
X60481407Y-66801441D01*
X60523296Y-66792384D01*
X60535870Y-66790325D01*
X60550477Y-66788686D01*
X60571476Y-66786331D01*
X60571478Y-66786330D01*
X60578472Y-66785546D01*
X60609759Y-66774650D01*
X60624564Y-66770489D01*
X60650061Y-66764977D01*
X60650064Y-66764976D01*
X60656942Y-66763489D01*
X60695799Y-66745370D01*
X60707582Y-66740586D01*
X60748073Y-66726485D01*
X60776167Y-66708930D01*
X60789682Y-66701592D01*
X60819707Y-66687591D01*
X60853567Y-66661326D01*
X60864024Y-66654031D01*
X60894400Y-66635050D01*
X60894403Y-66635048D01*
X60900375Y-66631316D01*
X60928893Y-66602997D01*
X60929515Y-66602415D01*
X60930177Y-66601901D01*
X60956037Y-66576041D01*
X61027807Y-66504770D01*
X61028459Y-66503743D01*
X61029543Y-66502535D01*
X62924673Y-64607405D01*
X62986985Y-64573379D01*
X63013768Y-64570500D01*
X67357885Y-64570500D01*
X67426006Y-64590502D01*
X67439548Y-64600546D01*
X67491830Y-64645042D01*
X67497208Y-64648048D01*
X67497210Y-64648049D01*
X67641203Y-64728524D01*
X67673376Y-64746505D01*
X67871171Y-64810772D01*
X68077683Y-64835397D01*
X68083818Y-64834925D01*
X68083820Y-64834925D01*
X68278904Y-64819915D01*
X68278909Y-64819914D01*
X68285045Y-64819442D01*
X68290977Y-64817786D01*
X68290981Y-64817785D01*
X68479414Y-64765173D01*
X68479418Y-64765172D01*
X68485358Y-64763513D01*
X68490862Y-64760733D01*
X68490864Y-64760732D01*
X68665493Y-64672521D01*
X68665495Y-64672520D01*
X68670994Y-64669742D01*
X68834880Y-64541700D01*
X68970775Y-64384264D01*
X68973818Y-64378907D01*
X68973821Y-64378903D01*
X69037972Y-64265975D01*
X69073502Y-64203431D01*
X69087190Y-64162285D01*
X69137202Y-64011941D01*
X69139149Y-64006089D01*
X69165216Y-63799754D01*
X69165631Y-63770000D01*
X69164172Y-63755121D01*
X69574473Y-63755121D01*
X69574989Y-63761265D01*
X69588574Y-63923039D01*
X69591876Y-63962367D01*
X69649201Y-64162285D01*
X69652019Y-64167767D01*
X69652020Y-64167771D01*
X69741446Y-64341775D01*
X69741449Y-64341779D01*
X69744266Y-64347261D01*
X69873449Y-64510249D01*
X69878143Y-64514244D01*
X69979549Y-64600547D01*
X70031830Y-64645042D01*
X70037208Y-64648048D01*
X70037210Y-64648049D01*
X70181203Y-64728524D01*
X70213376Y-64746505D01*
X70411171Y-64810772D01*
X70617683Y-64835397D01*
X70623818Y-64834925D01*
X70623820Y-64834925D01*
X70818904Y-64819915D01*
X70818909Y-64819914D01*
X70825045Y-64819442D01*
X70830977Y-64817786D01*
X70830981Y-64817785D01*
X71019414Y-64765173D01*
X71019418Y-64765172D01*
X71025358Y-64763513D01*
X71030862Y-64760733D01*
X71030864Y-64760732D01*
X71205493Y-64672521D01*
X71205495Y-64672520D01*
X71210994Y-64669742D01*
X71374880Y-64541700D01*
X71510775Y-64384264D01*
X71513818Y-64378907D01*
X71513821Y-64378903D01*
X71577972Y-64265975D01*
X71613502Y-64203431D01*
X71627190Y-64162285D01*
X71677202Y-64011941D01*
X71679149Y-64006089D01*
X71705216Y-63799754D01*
X71705631Y-63770000D01*
X71704172Y-63755121D01*
X72114473Y-63755121D01*
X72114989Y-63761265D01*
X72128574Y-63923039D01*
X72131876Y-63962367D01*
X72189201Y-64162285D01*
X72192019Y-64167767D01*
X72192020Y-64167771D01*
X72281446Y-64341775D01*
X72281449Y-64341779D01*
X72284266Y-64347261D01*
X72413449Y-64510249D01*
X72418143Y-64514244D01*
X72519549Y-64600547D01*
X72571830Y-64645042D01*
X72577208Y-64648048D01*
X72577210Y-64648049D01*
X72721203Y-64728524D01*
X72753376Y-64746505D01*
X72951171Y-64810772D01*
X73157683Y-64835397D01*
X73163818Y-64834925D01*
X73163820Y-64834925D01*
X73358904Y-64819915D01*
X73358909Y-64819914D01*
X73365045Y-64819442D01*
X73370977Y-64817786D01*
X73370981Y-64817785D01*
X73559414Y-64765173D01*
X73559418Y-64765172D01*
X73565358Y-64763513D01*
X73570862Y-64760733D01*
X73570864Y-64760732D01*
X73745493Y-64672521D01*
X73745495Y-64672520D01*
X73750994Y-64669742D01*
X73914880Y-64541700D01*
X74050775Y-64384264D01*
X74053818Y-64378907D01*
X74053821Y-64378903D01*
X74117972Y-64265975D01*
X74153502Y-64203431D01*
X74167190Y-64162285D01*
X74217202Y-64011941D01*
X74219149Y-64006089D01*
X74245216Y-63799754D01*
X74245631Y-63770000D01*
X74225336Y-63563018D01*
X74219163Y-63542570D01*
X74167006Y-63369819D01*
X74165225Y-63363920D01*
X74132832Y-63302997D01*
X74070481Y-63185731D01*
X74070479Y-63185728D01*
X74067587Y-63180289D01*
X74063697Y-63175519D01*
X74063694Y-63175515D01*
X73940036Y-63023895D01*
X73940033Y-63023892D01*
X73936141Y-63019120D01*
X73931392Y-63015191D01*
X73780643Y-62890481D01*
X73780640Y-62890479D01*
X73775893Y-62886552D01*
X73592949Y-62787634D01*
X73394275Y-62726134D01*
X73388150Y-62725490D01*
X73388149Y-62725490D01*
X73193568Y-62705039D01*
X73193566Y-62705039D01*
X73187439Y-62704395D01*
X73100414Y-62712315D01*
X72986460Y-62722685D01*
X72986457Y-62722686D01*
X72980321Y-62723244D01*
X72974415Y-62724982D01*
X72974411Y-62724983D01*
X72828313Y-62767982D01*
X72780808Y-62781964D01*
X72596500Y-62878318D01*
X72434417Y-63008636D01*
X72430459Y-63013353D01*
X72430457Y-63013355D01*
X72415306Y-63031411D01*
X72300733Y-63167954D01*
X72297769Y-63173346D01*
X72297766Y-63173350D01*
X72248605Y-63262774D01*
X72200541Y-63350203D01*
X72198678Y-63356076D01*
X72152907Y-63500367D01*
X72137656Y-63548443D01*
X72136970Y-63554560D01*
X72136969Y-63554564D01*
X72115399Y-63746864D01*
X72114473Y-63755121D01*
X71704172Y-63755121D01*
X71685336Y-63563018D01*
X71679163Y-63542570D01*
X71627006Y-63369819D01*
X71625225Y-63363920D01*
X71592832Y-63302997D01*
X71530481Y-63185731D01*
X71530479Y-63185728D01*
X71527587Y-63180289D01*
X71523697Y-63175519D01*
X71523694Y-63175515D01*
X71400036Y-63023895D01*
X71400033Y-63023892D01*
X71396141Y-63019120D01*
X71391392Y-63015191D01*
X71240643Y-62890481D01*
X71240640Y-62890479D01*
X71235893Y-62886552D01*
X71052949Y-62787634D01*
X70854275Y-62726134D01*
X70848150Y-62725490D01*
X70848149Y-62725490D01*
X70653568Y-62705039D01*
X70653566Y-62705039D01*
X70647439Y-62704395D01*
X70560414Y-62712315D01*
X70446460Y-62722685D01*
X70446457Y-62722686D01*
X70440321Y-62723244D01*
X70434415Y-62724982D01*
X70434411Y-62724983D01*
X70288313Y-62767982D01*
X70240808Y-62781964D01*
X70056500Y-62878318D01*
X69894417Y-63008636D01*
X69890459Y-63013353D01*
X69890457Y-63013355D01*
X69875306Y-63031411D01*
X69760733Y-63167954D01*
X69757769Y-63173346D01*
X69757766Y-63173350D01*
X69708605Y-63262774D01*
X69660541Y-63350203D01*
X69658678Y-63356076D01*
X69612907Y-63500367D01*
X69597656Y-63548443D01*
X69596970Y-63554560D01*
X69596969Y-63554564D01*
X69575399Y-63746864D01*
X69574473Y-63755121D01*
X69164172Y-63755121D01*
X69145336Y-63563018D01*
X69139163Y-63542570D01*
X69087006Y-63369819D01*
X69085225Y-63363920D01*
X69052832Y-63302997D01*
X68990481Y-63185731D01*
X68990479Y-63185728D01*
X68987587Y-63180289D01*
X68983697Y-63175519D01*
X68983694Y-63175515D01*
X68860036Y-63023895D01*
X68860033Y-63023892D01*
X68856141Y-63019120D01*
X68851392Y-63015191D01*
X68700643Y-62890481D01*
X68700640Y-62890479D01*
X68695893Y-62886552D01*
X68512949Y-62787634D01*
X68314275Y-62726134D01*
X68308150Y-62725490D01*
X68308149Y-62725490D01*
X68113568Y-62705039D01*
X68113566Y-62705039D01*
X68107439Y-62704395D01*
X68020414Y-62712315D01*
X67906460Y-62722685D01*
X67906457Y-62722686D01*
X67900321Y-62723244D01*
X67894415Y-62724982D01*
X67894411Y-62724983D01*
X67748313Y-62767982D01*
X67700808Y-62781964D01*
X67516500Y-62878318D01*
X67511700Y-62882178D01*
X67511699Y-62882178D01*
X67437672Y-62941697D01*
X67372049Y-62968793D01*
X67358720Y-62969500D01*
X62639083Y-62969500D01*
X62637763Y-62969493D01*
X62636425Y-62969479D01*
X62548593Y-62968559D01*
X62506704Y-62977616D01*
X62494130Y-62979675D01*
X62479523Y-62981314D01*
X62458524Y-62983669D01*
X62458522Y-62983670D01*
X62451528Y-62984454D01*
X62420241Y-62995350D01*
X62405436Y-62999511D01*
X62379944Y-63005022D01*
X62379942Y-63005023D01*
X62373058Y-63006511D01*
X62366676Y-63009487D01*
X62366670Y-63009489D01*
X62334219Y-63024621D01*
X62322408Y-63029417D01*
X62288580Y-63041197D01*
X62288571Y-63041201D01*
X62281927Y-63043515D01*
X62253824Y-63061075D01*
X62240323Y-63068406D01*
X62210292Y-63082410D01*
X62183264Y-63103376D01*
X62176429Y-63108677D01*
X62165973Y-63115971D01*
X62135599Y-63134951D01*
X62129625Y-63138684D01*
X62124628Y-63143646D01*
X62124627Y-63143647D01*
X62101107Y-63167003D01*
X62100485Y-63167585D01*
X62099823Y-63168099D01*
X62073992Y-63193930D01*
X62002193Y-63265230D01*
X62001542Y-63266256D01*
X62000457Y-63267465D01*
X60105326Y-65162596D01*
X60043014Y-65196621D01*
X60016231Y-65199500D01*
X49209129Y-65199500D01*
X49207810Y-65199493D01*
X49118593Y-65198559D01*
X49111712Y-65200047D01*
X49111709Y-65200047D01*
X49076698Y-65207616D01*
X49064120Y-65209676D01*
X49028522Y-65213669D01*
X49028518Y-65213670D01*
X49021528Y-65214454D01*
X49014879Y-65216769D01*
X49014876Y-65216770D01*
X48990247Y-65225346D01*
X48975440Y-65229508D01*
X48943058Y-65236510D01*
X48904206Y-65254627D01*
X48892406Y-65259419D01*
X48851927Y-65273515D01*
X48835519Y-65283768D01*
X48823838Y-65291067D01*
X48810318Y-65298408D01*
X48780293Y-65312409D01*
X48746424Y-65338681D01*
X48735981Y-65345966D01*
X48699625Y-65368684D01*
X48694628Y-65373646D01*
X48694627Y-65373647D01*
X48671108Y-65397002D01*
X48670486Y-65397584D01*
X48669824Y-65398098D01*
X48643963Y-65423959D01*
X48572193Y-65495230D01*
X48571541Y-65496257D01*
X48570457Y-65497465D01*
X45305327Y-68762595D01*
X45243015Y-68796621D01*
X45216232Y-68799500D01*
X44530239Y-68799500D01*
X44462118Y-68779498D01*
X44415625Y-68725842D01*
X44405521Y-68655568D01*
X44435015Y-68590988D01*
X44486629Y-68555288D01*
X44505214Y-68548432D01*
X44505221Y-68548429D01*
X44509395Y-68546889D01*
X44749370Y-68417406D01*
X44968706Y-68255401D01*
X45163028Y-68064108D01*
X45328458Y-67847344D01*
X45461694Y-67609432D01*
X45463305Y-67605269D01*
X45558473Y-67359276D01*
X45558475Y-67359270D01*
X45560080Y-67355121D01*
X45621651Y-67089484D01*
X45645180Y-66817822D01*
X45644385Y-66803379D01*
X45630441Y-66549997D01*
X45630440Y-66549990D01*
X45630196Y-66545554D01*
X45576999Y-66278115D01*
X45486650Y-66020839D01*
X45360952Y-65778859D01*
X45358369Y-65775244D01*
X45358365Y-65775238D01*
X45205001Y-65560626D01*
X45204998Y-65560622D01*
X45202413Y-65557005D01*
X45036990Y-65383598D01*
X45004443Y-65320501D01*
X45011174Y-65249825D01*
X45055048Y-65194007D01*
X45122134Y-65170770D01*
X45176377Y-65180217D01*
X45229283Y-65202131D01*
X45245782Y-65208965D01*
X45264388Y-65216672D01*
X45269188Y-65217824D01*
X45269193Y-65217826D01*
X45359409Y-65239485D01*
X45501698Y-65273646D01*
X45745000Y-65292794D01*
X45988302Y-65273646D01*
X46130591Y-65239485D01*
X46220807Y-65217826D01*
X46220812Y-65217824D01*
X46225612Y-65216672D01*
X46230175Y-65214782D01*
X46230181Y-65214780D01*
X46446515Y-65125172D01*
X46446519Y-65125170D01*
X46451089Y-65123277D01*
X46659179Y-64995759D01*
X46844759Y-64837259D01*
X47003259Y-64651679D01*
X47130777Y-64443589D01*
X47133787Y-64436323D01*
X47222280Y-64222681D01*
X47222282Y-64222675D01*
X47224172Y-64218112D01*
X47281146Y-63980802D01*
X47298907Y-63755121D01*
X52034473Y-63755121D01*
X52034989Y-63761265D01*
X52048574Y-63923039D01*
X52051876Y-63962367D01*
X52109201Y-64162285D01*
X52112019Y-64167767D01*
X52112020Y-64167771D01*
X52201446Y-64341775D01*
X52201449Y-64341779D01*
X52204266Y-64347261D01*
X52333449Y-64510249D01*
X52338143Y-64514244D01*
X52439549Y-64600547D01*
X52491830Y-64645042D01*
X52497208Y-64648048D01*
X52497210Y-64648049D01*
X52641203Y-64728524D01*
X52673376Y-64746505D01*
X52871171Y-64810772D01*
X53077683Y-64835397D01*
X53083818Y-64834925D01*
X53083820Y-64834925D01*
X53278904Y-64819915D01*
X53278909Y-64819914D01*
X53285045Y-64819442D01*
X53290977Y-64817786D01*
X53290981Y-64817785D01*
X53479414Y-64765173D01*
X53479418Y-64765172D01*
X53485358Y-64763513D01*
X53490862Y-64760733D01*
X53490864Y-64760732D01*
X53665493Y-64672521D01*
X53665495Y-64672520D01*
X53670994Y-64669742D01*
X53834880Y-64541700D01*
X53970775Y-64384264D01*
X53973818Y-64378907D01*
X53973821Y-64378903D01*
X54037972Y-64265975D01*
X54073502Y-64203431D01*
X54087190Y-64162285D01*
X54137202Y-64011941D01*
X54139149Y-64006089D01*
X54165216Y-63799754D01*
X54165631Y-63770000D01*
X54164172Y-63755121D01*
X54574473Y-63755121D01*
X54574989Y-63761265D01*
X54588574Y-63923039D01*
X54591876Y-63962367D01*
X54649201Y-64162285D01*
X54652019Y-64167767D01*
X54652020Y-64167771D01*
X54741446Y-64341775D01*
X54741449Y-64341779D01*
X54744266Y-64347261D01*
X54873449Y-64510249D01*
X54878143Y-64514244D01*
X54979549Y-64600547D01*
X55031830Y-64645042D01*
X55037208Y-64648048D01*
X55037210Y-64648049D01*
X55181203Y-64728524D01*
X55213376Y-64746505D01*
X55411171Y-64810772D01*
X55617683Y-64835397D01*
X55623818Y-64834925D01*
X55623820Y-64834925D01*
X55818904Y-64819915D01*
X55818909Y-64819914D01*
X55825045Y-64819442D01*
X55830977Y-64817786D01*
X55830981Y-64817785D01*
X56019414Y-64765173D01*
X56019418Y-64765172D01*
X56025358Y-64763513D01*
X56030862Y-64760733D01*
X56030864Y-64760732D01*
X56205493Y-64672521D01*
X56205495Y-64672520D01*
X56210994Y-64669742D01*
X56374880Y-64541700D01*
X56510775Y-64384264D01*
X56513818Y-64378907D01*
X56513821Y-64378903D01*
X56577972Y-64265975D01*
X56613502Y-64203431D01*
X56627190Y-64162285D01*
X56677202Y-64011941D01*
X56679149Y-64006089D01*
X56705216Y-63799754D01*
X56705631Y-63770000D01*
X56704172Y-63755121D01*
X57114473Y-63755121D01*
X57114989Y-63761265D01*
X57128574Y-63923039D01*
X57131876Y-63962367D01*
X57189201Y-64162285D01*
X57192019Y-64167767D01*
X57192020Y-64167771D01*
X57281446Y-64341775D01*
X57281449Y-64341779D01*
X57284266Y-64347261D01*
X57413449Y-64510249D01*
X57418143Y-64514244D01*
X57519549Y-64600547D01*
X57571830Y-64645042D01*
X57577208Y-64648048D01*
X57577210Y-64648049D01*
X57721203Y-64728524D01*
X57753376Y-64746505D01*
X57951171Y-64810772D01*
X58157683Y-64835397D01*
X58163818Y-64834925D01*
X58163820Y-64834925D01*
X58358904Y-64819915D01*
X58358909Y-64819914D01*
X58365045Y-64819442D01*
X58370977Y-64817786D01*
X58370981Y-64817785D01*
X58559414Y-64765173D01*
X58559418Y-64765172D01*
X58565358Y-64763513D01*
X58570862Y-64760733D01*
X58570864Y-64760732D01*
X58745493Y-64672521D01*
X58745495Y-64672520D01*
X58750994Y-64669742D01*
X58914880Y-64541700D01*
X59050775Y-64384264D01*
X59053818Y-64378907D01*
X59053821Y-64378903D01*
X59117972Y-64265975D01*
X59153502Y-64203431D01*
X59167190Y-64162285D01*
X59217202Y-64011941D01*
X59219149Y-64006089D01*
X59245216Y-63799754D01*
X59245631Y-63770000D01*
X59225336Y-63563018D01*
X59219163Y-63542570D01*
X59167006Y-63369819D01*
X59165225Y-63363920D01*
X59132832Y-63302997D01*
X59070481Y-63185731D01*
X59070479Y-63185728D01*
X59067587Y-63180289D01*
X59063697Y-63175519D01*
X59063694Y-63175515D01*
X58940036Y-63023895D01*
X58940033Y-63023892D01*
X58936141Y-63019120D01*
X58931392Y-63015191D01*
X58780643Y-62890481D01*
X58780640Y-62890479D01*
X58775893Y-62886552D01*
X58592949Y-62787634D01*
X58394275Y-62726134D01*
X58388150Y-62725490D01*
X58388149Y-62725490D01*
X58193568Y-62705039D01*
X58193566Y-62705039D01*
X58187439Y-62704395D01*
X58100414Y-62712315D01*
X57986460Y-62722685D01*
X57986457Y-62722686D01*
X57980321Y-62723244D01*
X57974415Y-62724982D01*
X57974411Y-62724983D01*
X57828313Y-62767982D01*
X57780808Y-62781964D01*
X57596500Y-62878318D01*
X57434417Y-63008636D01*
X57430459Y-63013353D01*
X57430457Y-63013355D01*
X57415306Y-63031411D01*
X57300733Y-63167954D01*
X57297769Y-63173346D01*
X57297766Y-63173350D01*
X57248605Y-63262774D01*
X57200541Y-63350203D01*
X57198678Y-63356076D01*
X57152907Y-63500367D01*
X57137656Y-63548443D01*
X57136970Y-63554560D01*
X57136969Y-63554564D01*
X57115399Y-63746864D01*
X57114473Y-63755121D01*
X56704172Y-63755121D01*
X56685336Y-63563018D01*
X56679163Y-63542570D01*
X56627006Y-63369819D01*
X56625225Y-63363920D01*
X56592832Y-63302997D01*
X56530481Y-63185731D01*
X56530479Y-63185728D01*
X56527587Y-63180289D01*
X56523697Y-63175519D01*
X56523694Y-63175515D01*
X56400036Y-63023895D01*
X56400033Y-63023892D01*
X56396141Y-63019120D01*
X56391392Y-63015191D01*
X56240643Y-62890481D01*
X56240640Y-62890479D01*
X56235893Y-62886552D01*
X56052949Y-62787634D01*
X55854275Y-62726134D01*
X55848150Y-62725490D01*
X55848149Y-62725490D01*
X55653568Y-62705039D01*
X55653566Y-62705039D01*
X55647439Y-62704395D01*
X55560414Y-62712315D01*
X55446460Y-62722685D01*
X55446457Y-62722686D01*
X55440321Y-62723244D01*
X55434415Y-62724982D01*
X55434411Y-62724983D01*
X55288313Y-62767982D01*
X55240808Y-62781964D01*
X55056500Y-62878318D01*
X54894417Y-63008636D01*
X54890459Y-63013353D01*
X54890457Y-63013355D01*
X54875306Y-63031411D01*
X54760733Y-63167954D01*
X54757769Y-63173346D01*
X54757766Y-63173350D01*
X54708605Y-63262774D01*
X54660541Y-63350203D01*
X54658678Y-63356076D01*
X54612907Y-63500367D01*
X54597656Y-63548443D01*
X54596970Y-63554560D01*
X54596969Y-63554564D01*
X54575399Y-63746864D01*
X54574473Y-63755121D01*
X54164172Y-63755121D01*
X54145336Y-63563018D01*
X54139163Y-63542570D01*
X54087006Y-63369819D01*
X54085225Y-63363920D01*
X54052832Y-63302997D01*
X53990481Y-63185731D01*
X53990479Y-63185728D01*
X53987587Y-63180289D01*
X53983697Y-63175519D01*
X53983694Y-63175515D01*
X53860036Y-63023895D01*
X53860033Y-63023892D01*
X53856141Y-63019120D01*
X53851392Y-63015191D01*
X53700643Y-62890481D01*
X53700640Y-62890479D01*
X53695893Y-62886552D01*
X53512949Y-62787634D01*
X53314275Y-62726134D01*
X53308150Y-62725490D01*
X53308149Y-62725490D01*
X53113568Y-62705039D01*
X53113566Y-62705039D01*
X53107439Y-62704395D01*
X53020414Y-62712315D01*
X52906460Y-62722685D01*
X52906457Y-62722686D01*
X52900321Y-62723244D01*
X52894415Y-62724982D01*
X52894411Y-62724983D01*
X52748313Y-62767982D01*
X52700808Y-62781964D01*
X52516500Y-62878318D01*
X52354417Y-63008636D01*
X52350459Y-63013353D01*
X52350457Y-63013355D01*
X52335306Y-63031411D01*
X52220733Y-63167954D01*
X52217769Y-63173346D01*
X52217766Y-63173350D01*
X52168605Y-63262774D01*
X52120541Y-63350203D01*
X52118678Y-63356076D01*
X52072907Y-63500367D01*
X52057656Y-63548443D01*
X52056970Y-63554560D01*
X52056969Y-63554564D01*
X52035399Y-63746864D01*
X52034473Y-63755121D01*
X47298907Y-63755121D01*
X47300294Y-63737500D01*
X47281146Y-63494198D01*
X47241266Y-63328088D01*
X47225326Y-63261693D01*
X47225324Y-63261688D01*
X47224172Y-63256888D01*
X47222282Y-63252325D01*
X47222280Y-63252319D01*
X47132672Y-63035985D01*
X47132670Y-63035981D01*
X47130777Y-63031411D01*
X47003259Y-62823321D01*
X46844759Y-62637741D01*
X46659179Y-62479241D01*
X46451089Y-62351723D01*
X46446519Y-62349830D01*
X46446515Y-62349828D01*
X46260814Y-62272909D01*
X46205533Y-62228361D01*
X46183112Y-62160998D01*
X46200670Y-62092206D01*
X46252632Y-62043828D01*
X46309032Y-62030500D01*
X50677236Y-62030500D01*
X50745357Y-62050502D01*
X50792386Y-62105349D01*
X50818061Y-62163153D01*
X50826294Y-62171372D01*
X50826295Y-62171373D01*
X50837147Y-62182206D01*
X50897287Y-62242241D01*
X50907924Y-62246944D01*
X50907926Y-62246945D01*
X50937954Y-62260220D01*
X50999673Y-62287506D01*
X51025354Y-62290500D01*
X52634646Y-62290500D01*
X52638350Y-62290059D01*
X52638353Y-62290059D01*
X52645746Y-62289179D01*
X52660846Y-62287382D01*
X52693430Y-62272909D01*
X52752518Y-62246663D01*
X52763153Y-62241939D01*
X52776708Y-62228361D01*
X52804055Y-62200966D01*
X52842241Y-62162713D01*
X52867738Y-62105042D01*
X52883675Y-62068992D01*
X52887506Y-62060327D01*
X52890500Y-62034646D01*
X52890500Y-61215121D01*
X53304473Y-61215121D01*
X53304989Y-61221265D01*
X53321115Y-61413300D01*
X53321876Y-61422367D01*
X53379201Y-61622285D01*
X53382019Y-61627767D01*
X53382020Y-61627771D01*
X53471446Y-61801775D01*
X53471449Y-61801779D01*
X53474266Y-61807261D01*
X53603449Y-61970249D01*
X53608143Y-61974244D01*
X53674244Y-62030500D01*
X53761830Y-62105042D01*
X53767208Y-62108048D01*
X53767210Y-62108049D01*
X53871669Y-62166429D01*
X53943376Y-62206505D01*
X54141171Y-62270772D01*
X54347683Y-62295397D01*
X54353818Y-62294925D01*
X54353820Y-62294925D01*
X54548904Y-62279915D01*
X54548909Y-62279914D01*
X54555045Y-62279442D01*
X54560977Y-62277786D01*
X54560981Y-62277785D01*
X54749414Y-62225173D01*
X54749418Y-62225172D01*
X54755358Y-62223513D01*
X54760862Y-62220733D01*
X54760864Y-62220732D01*
X54935493Y-62132521D01*
X54935495Y-62132520D01*
X54940994Y-62129742D01*
X55104880Y-62001700D01*
X55240775Y-61844264D01*
X55243818Y-61838907D01*
X55243821Y-61838903D01*
X55292139Y-61753847D01*
X55343502Y-61663431D01*
X55357190Y-61622285D01*
X55377993Y-61559748D01*
X55409149Y-61466089D01*
X55430853Y-61294291D01*
X55434774Y-61263256D01*
X55434775Y-61263249D01*
X55435216Y-61259754D01*
X55435631Y-61230000D01*
X55434172Y-61215121D01*
X55844473Y-61215121D01*
X55844989Y-61221265D01*
X55861115Y-61413300D01*
X55861876Y-61422367D01*
X55919201Y-61622285D01*
X55922019Y-61627767D01*
X55922020Y-61627771D01*
X56011446Y-61801775D01*
X56011449Y-61801779D01*
X56014266Y-61807261D01*
X56143449Y-61970249D01*
X56148143Y-61974244D01*
X56214244Y-62030500D01*
X56301830Y-62105042D01*
X56307208Y-62108048D01*
X56307210Y-62108049D01*
X56411669Y-62166429D01*
X56483376Y-62206505D01*
X56681171Y-62270772D01*
X56887683Y-62295397D01*
X56893818Y-62294925D01*
X56893820Y-62294925D01*
X57088904Y-62279915D01*
X57088909Y-62279914D01*
X57095045Y-62279442D01*
X57100977Y-62277786D01*
X57100981Y-62277785D01*
X57289414Y-62225173D01*
X57289418Y-62225172D01*
X57295358Y-62223513D01*
X57300862Y-62220733D01*
X57300864Y-62220732D01*
X57475493Y-62132521D01*
X57475495Y-62132520D01*
X57480994Y-62129742D01*
X57602711Y-62034646D01*
X65769500Y-62034646D01*
X65772618Y-62060846D01*
X65776456Y-62069486D01*
X65776456Y-62069487D01*
X65790475Y-62101049D01*
X65818061Y-62163153D01*
X65826294Y-62171372D01*
X65826295Y-62171373D01*
X65837147Y-62182206D01*
X65897287Y-62242241D01*
X65907924Y-62246944D01*
X65907926Y-62246945D01*
X65937954Y-62260220D01*
X65999673Y-62287506D01*
X66025354Y-62290500D01*
X67634646Y-62290500D01*
X67638350Y-62290059D01*
X67638353Y-62290059D01*
X67645746Y-62289179D01*
X67660846Y-62287382D01*
X67693430Y-62272909D01*
X67752518Y-62246663D01*
X67763153Y-62241939D01*
X67776708Y-62228361D01*
X67804055Y-62200966D01*
X67842241Y-62162713D01*
X67867738Y-62105042D01*
X67883675Y-62068992D01*
X67887506Y-62060327D01*
X67890500Y-62034646D01*
X67890500Y-61215121D01*
X68304473Y-61215121D01*
X68304989Y-61221265D01*
X68321115Y-61413300D01*
X68321876Y-61422367D01*
X68379201Y-61622285D01*
X68382019Y-61627767D01*
X68382020Y-61627771D01*
X68471446Y-61801775D01*
X68471449Y-61801779D01*
X68474266Y-61807261D01*
X68603449Y-61970249D01*
X68608143Y-61974244D01*
X68674244Y-62030500D01*
X68761830Y-62105042D01*
X68767208Y-62108048D01*
X68767210Y-62108049D01*
X68871669Y-62166429D01*
X68943376Y-62206505D01*
X69141171Y-62270772D01*
X69347683Y-62295397D01*
X69353818Y-62294925D01*
X69353820Y-62294925D01*
X69548904Y-62279915D01*
X69548909Y-62279914D01*
X69555045Y-62279442D01*
X69560977Y-62277786D01*
X69560981Y-62277785D01*
X69749414Y-62225173D01*
X69749418Y-62225172D01*
X69755358Y-62223513D01*
X69760862Y-62220733D01*
X69760864Y-62220732D01*
X69935493Y-62132521D01*
X69935495Y-62132520D01*
X69940994Y-62129742D01*
X70104880Y-62001700D01*
X70240775Y-61844264D01*
X70243818Y-61838907D01*
X70243821Y-61838903D01*
X70292139Y-61753847D01*
X70343502Y-61663431D01*
X70357190Y-61622285D01*
X70377993Y-61559748D01*
X70409149Y-61466089D01*
X70430853Y-61294291D01*
X70434774Y-61263256D01*
X70434775Y-61263249D01*
X70435216Y-61259754D01*
X70435631Y-61230000D01*
X70434172Y-61215121D01*
X70844473Y-61215121D01*
X70844989Y-61221265D01*
X70861115Y-61413300D01*
X70861876Y-61422367D01*
X70919201Y-61622285D01*
X70922019Y-61627767D01*
X70922020Y-61627771D01*
X71011446Y-61801775D01*
X71011449Y-61801779D01*
X71014266Y-61807261D01*
X71143449Y-61970249D01*
X71148143Y-61974244D01*
X71214244Y-62030500D01*
X71301830Y-62105042D01*
X71307208Y-62108048D01*
X71307210Y-62108049D01*
X71411669Y-62166429D01*
X71483376Y-62206505D01*
X71681171Y-62270772D01*
X71887683Y-62295397D01*
X71893818Y-62294925D01*
X71893820Y-62294925D01*
X72088904Y-62279915D01*
X72088909Y-62279914D01*
X72095045Y-62279442D01*
X72100977Y-62277786D01*
X72100981Y-62277785D01*
X72289414Y-62225173D01*
X72289418Y-62225172D01*
X72295358Y-62223513D01*
X72300862Y-62220733D01*
X72300864Y-62220732D01*
X72475493Y-62132521D01*
X72475495Y-62132520D01*
X72480994Y-62129742D01*
X72644880Y-62001700D01*
X72780775Y-61844264D01*
X72783818Y-61838907D01*
X72783821Y-61838903D01*
X72832139Y-61753847D01*
X72883502Y-61663431D01*
X72897190Y-61622285D01*
X72917993Y-61559748D01*
X72949149Y-61466089D01*
X72970853Y-61294291D01*
X72974774Y-61263256D01*
X72974775Y-61263249D01*
X72975216Y-61259754D01*
X72975631Y-61230000D01*
X72955336Y-61023018D01*
X72949163Y-61002570D01*
X72897006Y-60829819D01*
X72895225Y-60823920D01*
X72891054Y-60816076D01*
X72800481Y-60645731D01*
X72800479Y-60645728D01*
X72797587Y-60640289D01*
X72793697Y-60635519D01*
X72793694Y-60635515D01*
X72670036Y-60483895D01*
X72670033Y-60483892D01*
X72666141Y-60479120D01*
X72660387Y-60474360D01*
X72510643Y-60350481D01*
X72510640Y-60350479D01*
X72505893Y-60346552D01*
X72322949Y-60247634D01*
X72124275Y-60186134D01*
X72118150Y-60185490D01*
X72118149Y-60185490D01*
X71923568Y-60165039D01*
X71923566Y-60165039D01*
X71917439Y-60164395D01*
X71830414Y-60172315D01*
X71716460Y-60182685D01*
X71716457Y-60182686D01*
X71710321Y-60183244D01*
X71704415Y-60184982D01*
X71704411Y-60184983D01*
X71609032Y-60213055D01*
X71510808Y-60241964D01*
X71326500Y-60338318D01*
X71164417Y-60468636D01*
X71160459Y-60473353D01*
X71160457Y-60473355D01*
X71118555Y-60523292D01*
X71030733Y-60627954D01*
X71027769Y-60633346D01*
X71027766Y-60633350D01*
X70978605Y-60722775D01*
X70930541Y-60810203D01*
X70867656Y-61008443D01*
X70866970Y-61014560D01*
X70866969Y-61014564D01*
X70850121Y-61164765D01*
X70844473Y-61215121D01*
X70434172Y-61215121D01*
X70415336Y-61023018D01*
X70409163Y-61002570D01*
X70357006Y-60829819D01*
X70355225Y-60823920D01*
X70351054Y-60816076D01*
X70260481Y-60645731D01*
X70260479Y-60645728D01*
X70257587Y-60640289D01*
X70253697Y-60635519D01*
X70253694Y-60635515D01*
X70130036Y-60483895D01*
X70130033Y-60483892D01*
X70126141Y-60479120D01*
X70120387Y-60474360D01*
X69970643Y-60350481D01*
X69970640Y-60350479D01*
X69965893Y-60346552D01*
X69782949Y-60247634D01*
X69584275Y-60186134D01*
X69578150Y-60185490D01*
X69578149Y-60185490D01*
X69383568Y-60165039D01*
X69383566Y-60165039D01*
X69377439Y-60164395D01*
X69290414Y-60172315D01*
X69176460Y-60182685D01*
X69176457Y-60182686D01*
X69170321Y-60183244D01*
X69164415Y-60184982D01*
X69164411Y-60184983D01*
X69069032Y-60213055D01*
X68970808Y-60241964D01*
X68786500Y-60338318D01*
X68624417Y-60468636D01*
X68620459Y-60473353D01*
X68620457Y-60473355D01*
X68578555Y-60523292D01*
X68490733Y-60627954D01*
X68487769Y-60633346D01*
X68487766Y-60633350D01*
X68438605Y-60722775D01*
X68390541Y-60810203D01*
X68327656Y-61008443D01*
X68326970Y-61014560D01*
X68326969Y-61014564D01*
X68310121Y-61164765D01*
X68304473Y-61215121D01*
X67890500Y-61215121D01*
X67890500Y-60425354D01*
X67887382Y-60399154D01*
X67867525Y-60354448D01*
X67846663Y-60307482D01*
X67841939Y-60296847D01*
X67762713Y-60217759D01*
X67752076Y-60213056D01*
X67752074Y-60213055D01*
X67683378Y-60182685D01*
X67660327Y-60172494D01*
X67634646Y-60169500D01*
X66025354Y-60169500D01*
X66021650Y-60169941D01*
X66021647Y-60169941D01*
X66014254Y-60170821D01*
X65999154Y-60172618D01*
X65990514Y-60176456D01*
X65990513Y-60176456D01*
X65908117Y-60213055D01*
X65896847Y-60218061D01*
X65888628Y-60226294D01*
X65888627Y-60226295D01*
X65864401Y-60250564D01*
X65817759Y-60297287D01*
X65813056Y-60307924D01*
X65813055Y-60307926D01*
X65795979Y-60346552D01*
X65772494Y-60399673D01*
X65769500Y-60425354D01*
X65769500Y-62034646D01*
X57602711Y-62034646D01*
X57644880Y-62001700D01*
X57780775Y-61844264D01*
X57783818Y-61838907D01*
X57783821Y-61838903D01*
X57832139Y-61753847D01*
X57883502Y-61663431D01*
X57897190Y-61622285D01*
X57917993Y-61559748D01*
X57949149Y-61466089D01*
X57970853Y-61294291D01*
X57974774Y-61263256D01*
X57974775Y-61263249D01*
X57975216Y-61259754D01*
X57975631Y-61230000D01*
X57955336Y-61023018D01*
X57949163Y-61002570D01*
X57897006Y-60829819D01*
X57895225Y-60823920D01*
X57891054Y-60816076D01*
X57800481Y-60645731D01*
X57800479Y-60645728D01*
X57797587Y-60640289D01*
X57793697Y-60635519D01*
X57793694Y-60635515D01*
X57670036Y-60483895D01*
X57670033Y-60483892D01*
X57666141Y-60479120D01*
X57660387Y-60474360D01*
X57510643Y-60350481D01*
X57510640Y-60350479D01*
X57505893Y-60346552D01*
X57322949Y-60247634D01*
X57124275Y-60186134D01*
X57118150Y-60185490D01*
X57118149Y-60185490D01*
X56923568Y-60165039D01*
X56923566Y-60165039D01*
X56917439Y-60164395D01*
X56830414Y-60172315D01*
X56716460Y-60182685D01*
X56716457Y-60182686D01*
X56710321Y-60183244D01*
X56704415Y-60184982D01*
X56704411Y-60184983D01*
X56609032Y-60213055D01*
X56510808Y-60241964D01*
X56326500Y-60338318D01*
X56164417Y-60468636D01*
X56160459Y-60473353D01*
X56160457Y-60473355D01*
X56118555Y-60523292D01*
X56030733Y-60627954D01*
X56027769Y-60633346D01*
X56027766Y-60633350D01*
X55978605Y-60722775D01*
X55930541Y-60810203D01*
X55867656Y-61008443D01*
X55866970Y-61014560D01*
X55866969Y-61014564D01*
X55850121Y-61164765D01*
X55844473Y-61215121D01*
X55434172Y-61215121D01*
X55415336Y-61023018D01*
X55409163Y-61002570D01*
X55357006Y-60829819D01*
X55355225Y-60823920D01*
X55351054Y-60816076D01*
X55260481Y-60645731D01*
X55260479Y-60645728D01*
X55257587Y-60640289D01*
X55253697Y-60635519D01*
X55253694Y-60635515D01*
X55130036Y-60483895D01*
X55130033Y-60483892D01*
X55126141Y-60479120D01*
X55120387Y-60474360D01*
X54970643Y-60350481D01*
X54970640Y-60350479D01*
X54965893Y-60346552D01*
X54782949Y-60247634D01*
X54584275Y-60186134D01*
X54578150Y-60185490D01*
X54578149Y-60185490D01*
X54383568Y-60165039D01*
X54383566Y-60165039D01*
X54377439Y-60164395D01*
X54290414Y-60172315D01*
X54176460Y-60182685D01*
X54176457Y-60182686D01*
X54170321Y-60183244D01*
X54164415Y-60184982D01*
X54164411Y-60184983D01*
X54069032Y-60213055D01*
X53970808Y-60241964D01*
X53786500Y-60338318D01*
X53624417Y-60468636D01*
X53620459Y-60473353D01*
X53620457Y-60473355D01*
X53578555Y-60523292D01*
X53490733Y-60627954D01*
X53487769Y-60633346D01*
X53487766Y-60633350D01*
X53438605Y-60722775D01*
X53390541Y-60810203D01*
X53327656Y-61008443D01*
X53326970Y-61014560D01*
X53326969Y-61014564D01*
X53310121Y-61164765D01*
X53304473Y-61215121D01*
X52890500Y-61215121D01*
X52890500Y-60425354D01*
X52887382Y-60399154D01*
X52867525Y-60354448D01*
X52846663Y-60307482D01*
X52841939Y-60296847D01*
X52762713Y-60217759D01*
X52752076Y-60213056D01*
X52752074Y-60213055D01*
X52683378Y-60182685D01*
X52660327Y-60172494D01*
X52634646Y-60169500D01*
X51025354Y-60169500D01*
X51021650Y-60169941D01*
X51021647Y-60169941D01*
X51014254Y-60170821D01*
X50999154Y-60172618D01*
X50990514Y-60176456D01*
X50990513Y-60176456D01*
X50908117Y-60213055D01*
X50896847Y-60218061D01*
X50888628Y-60226294D01*
X50888627Y-60226295D01*
X50864401Y-60250564D01*
X50817759Y-60297287D01*
X50813056Y-60307924D01*
X50813055Y-60307926D01*
X50792488Y-60354448D01*
X50746650Y-60408664D01*
X50677248Y-60429500D01*
X44079083Y-60429500D01*
X44077763Y-60429493D01*
X44076425Y-60429479D01*
X43988593Y-60428559D01*
X43946704Y-60437616D01*
X43934130Y-60439675D01*
X43919523Y-60441314D01*
X43898524Y-60443669D01*
X43898522Y-60443670D01*
X43891528Y-60444454D01*
X43860241Y-60455350D01*
X43845436Y-60459511D01*
X43819939Y-60465023D01*
X43819936Y-60465024D01*
X43813058Y-60466511D01*
X43774201Y-60484630D01*
X43762418Y-60489414D01*
X43721927Y-60503515D01*
X43698212Y-60518334D01*
X43693833Y-60521070D01*
X43680318Y-60528408D01*
X43650293Y-60542409D01*
X43644726Y-60546728D01*
X43644725Y-60546728D01*
X43616433Y-60568674D01*
X43605976Y-60575969D01*
X43575600Y-60594950D01*
X43575597Y-60594952D01*
X43569625Y-60598684D01*
X43564628Y-60603646D01*
X43564627Y-60603647D01*
X43541107Y-60627003D01*
X43540485Y-60627585D01*
X43539823Y-60628099D01*
X43513963Y-60653959D01*
X43442193Y-60725230D01*
X43441541Y-60726257D01*
X43440457Y-60727465D01*
X42305327Y-61862595D01*
X42243015Y-61896621D01*
X42216232Y-61899500D01*
X33183768Y-61899500D01*
X33115647Y-61879498D01*
X33094673Y-61862595D01*
X32924953Y-61692875D01*
X32890927Y-61630563D01*
X32895992Y-61559748D01*
X32938539Y-61502912D01*
X33005059Y-61478101D01*
X33017696Y-61478031D01*
X33017696Y-61478000D01*
X34102304Y-61478000D01*
X34192168Y-61467125D01*
X34332531Y-61411552D01*
X34452779Y-61320279D01*
X34544052Y-61200031D01*
X34599625Y-61059668D01*
X34610500Y-60969804D01*
X34610500Y-60412762D01*
X35044520Y-60412762D01*
X35045036Y-60418906D01*
X35060630Y-60604604D01*
X35061759Y-60618053D01*
X35063458Y-60623978D01*
X35115310Y-60804806D01*
X35118544Y-60816086D01*
X35121359Y-60821563D01*
X35121360Y-60821566D01*
X35197544Y-60969804D01*
X35212712Y-60999318D01*
X35340677Y-61160770D01*
X35345370Y-61164764D01*
X35345371Y-61164765D01*
X35452844Y-61256231D01*
X35497564Y-61294291D01*
X35677398Y-61394797D01*
X35738693Y-61414713D01*
X35867471Y-61456556D01*
X35867475Y-61456557D01*
X35873329Y-61458459D01*
X36077894Y-61482851D01*
X36084029Y-61482379D01*
X36084031Y-61482379D01*
X36146865Y-61477544D01*
X36283300Y-61467046D01*
X36289230Y-61465390D01*
X36289232Y-61465390D01*
X36443323Y-61422367D01*
X36481725Y-61411645D01*
X36487214Y-61408872D01*
X36487220Y-61408870D01*
X36660116Y-61321533D01*
X36665610Y-61318758D01*
X36827951Y-61191924D01*
X36908141Y-61099023D01*
X36958540Y-61040634D01*
X36958540Y-61040633D01*
X36962564Y-61035972D01*
X36966439Y-61029152D01*
X37023393Y-60928893D01*
X37064323Y-60856844D01*
X37129351Y-60661363D01*
X37155171Y-60456974D01*
X37155583Y-60427500D01*
X37154138Y-60412762D01*
X37584520Y-60412762D01*
X37585036Y-60418906D01*
X37600630Y-60604604D01*
X37601759Y-60618053D01*
X37603458Y-60623978D01*
X37655310Y-60804806D01*
X37658544Y-60816086D01*
X37661359Y-60821563D01*
X37661360Y-60821566D01*
X37737544Y-60969804D01*
X37752712Y-60999318D01*
X37880677Y-61160770D01*
X37885370Y-61164764D01*
X37885371Y-61164765D01*
X37992844Y-61256231D01*
X38037564Y-61294291D01*
X38217398Y-61394797D01*
X38278693Y-61414713D01*
X38407471Y-61456556D01*
X38407475Y-61456557D01*
X38413329Y-61458459D01*
X38617894Y-61482851D01*
X38624029Y-61482379D01*
X38624031Y-61482379D01*
X38686865Y-61477544D01*
X38823300Y-61467046D01*
X38829230Y-61465390D01*
X38829232Y-61465390D01*
X38983323Y-61422367D01*
X39021725Y-61411645D01*
X39027214Y-61408872D01*
X39027220Y-61408870D01*
X39200116Y-61321533D01*
X39205610Y-61318758D01*
X39367951Y-61191924D01*
X39448141Y-61099023D01*
X39498540Y-61040634D01*
X39498540Y-61040633D01*
X39502564Y-61035972D01*
X39506439Y-61029152D01*
X39563393Y-60928893D01*
X39604323Y-60856844D01*
X39669351Y-60661363D01*
X39695171Y-60456974D01*
X39695583Y-60427500D01*
X39694138Y-60412762D01*
X40124520Y-60412762D01*
X40125036Y-60418906D01*
X40140630Y-60604604D01*
X40141759Y-60618053D01*
X40143458Y-60623978D01*
X40195310Y-60804806D01*
X40198544Y-60816086D01*
X40201359Y-60821563D01*
X40201360Y-60821566D01*
X40277544Y-60969804D01*
X40292712Y-60999318D01*
X40420677Y-61160770D01*
X40425370Y-61164764D01*
X40425371Y-61164765D01*
X40532844Y-61256231D01*
X40577564Y-61294291D01*
X40757398Y-61394797D01*
X40818693Y-61414713D01*
X40947471Y-61456556D01*
X40947475Y-61456557D01*
X40953329Y-61458459D01*
X41157894Y-61482851D01*
X41164029Y-61482379D01*
X41164031Y-61482379D01*
X41226865Y-61477544D01*
X41363300Y-61467046D01*
X41369230Y-61465390D01*
X41369232Y-61465390D01*
X41523323Y-61422367D01*
X41561725Y-61411645D01*
X41567214Y-61408872D01*
X41567220Y-61408870D01*
X41740116Y-61321533D01*
X41745610Y-61318758D01*
X41907951Y-61191924D01*
X41988141Y-61099023D01*
X42038540Y-61040634D01*
X42038540Y-61040633D01*
X42042564Y-61035972D01*
X42046439Y-61029152D01*
X42103393Y-60928893D01*
X42144323Y-60856844D01*
X42209351Y-60661363D01*
X42235171Y-60456974D01*
X42235583Y-60427500D01*
X42215480Y-60222470D01*
X42155935Y-60025249D01*
X42059218Y-59843349D01*
X41939988Y-59697159D01*
X41932906Y-59688475D01*
X41932903Y-59688472D01*
X41929011Y-59683700D01*
X41911786Y-59669450D01*
X41775025Y-59556311D01*
X41775021Y-59556309D01*
X41770275Y-59552382D01*
X41673396Y-59500000D01*
X64494318Y-59500000D01*
X64514956Y-59656762D01*
X64575464Y-59802841D01*
X64671718Y-59928282D01*
X64797159Y-60024536D01*
X64943238Y-60085044D01*
X65100000Y-60105682D01*
X65108188Y-60104604D01*
X65248574Y-60086122D01*
X65256762Y-60085044D01*
X65402841Y-60024536D01*
X65434817Y-60000000D01*
X73194318Y-60000000D01*
X73214956Y-60156762D01*
X73275464Y-60302841D01*
X73305648Y-60342178D01*
X73364524Y-60418906D01*
X73371718Y-60428282D01*
X73497159Y-60524536D01*
X73643238Y-60585044D01*
X73800000Y-60605682D01*
X73808188Y-60604604D01*
X73948574Y-60586122D01*
X73956762Y-60585044D01*
X74102841Y-60524536D01*
X74228282Y-60428282D01*
X74235477Y-60418906D01*
X74294352Y-60342178D01*
X74324536Y-60302841D01*
X74385044Y-60156762D01*
X74405682Y-60000000D01*
X74385044Y-59843238D01*
X74324536Y-59697159D01*
X74228282Y-59571718D01*
X74102841Y-59475464D01*
X73956762Y-59414956D01*
X73800000Y-59394318D01*
X73643238Y-59414956D01*
X73497159Y-59475464D01*
X73371718Y-59571718D01*
X73275464Y-59697159D01*
X73214956Y-59843238D01*
X73194318Y-60000000D01*
X65434817Y-60000000D01*
X65528282Y-59928282D01*
X65624536Y-59802841D01*
X65685044Y-59656762D01*
X65705682Y-59500000D01*
X65685044Y-59343238D01*
X65624536Y-59197159D01*
X65528282Y-59071718D01*
X65402841Y-58975464D01*
X65256762Y-58914956D01*
X65100000Y-58894318D01*
X64943238Y-58914956D01*
X64797159Y-58975464D01*
X64671718Y-59071718D01*
X64575464Y-59197159D01*
X64514956Y-59343238D01*
X64494318Y-59500000D01*
X41673396Y-59500000D01*
X41589055Y-59454397D01*
X41392254Y-59393477D01*
X41386129Y-59392833D01*
X41386128Y-59392833D01*
X41193498Y-59372587D01*
X41193496Y-59372587D01*
X41187369Y-59371943D01*
X41100529Y-59379846D01*
X40988342Y-59390055D01*
X40988339Y-59390056D01*
X40982203Y-59390614D01*
X40784572Y-59448780D01*
X40602002Y-59544226D01*
X40597201Y-59548086D01*
X40597198Y-59548088D01*
X40452546Y-59664391D01*
X40441447Y-59673315D01*
X40309024Y-59831130D01*
X40306056Y-59836528D01*
X40306053Y-59836533D01*
X40279301Y-59885196D01*
X40209776Y-60011662D01*
X40207913Y-60017535D01*
X40155525Y-60182685D01*
X40147484Y-60208032D01*
X40146798Y-60214149D01*
X40146797Y-60214153D01*
X40131506Y-60350481D01*
X40124520Y-60412762D01*
X39694138Y-60412762D01*
X39675480Y-60222470D01*
X39615935Y-60025249D01*
X39519218Y-59843349D01*
X39399988Y-59697159D01*
X39392906Y-59688475D01*
X39392903Y-59688472D01*
X39389011Y-59683700D01*
X39371786Y-59669450D01*
X39235025Y-59556311D01*
X39235021Y-59556309D01*
X39230275Y-59552382D01*
X39049055Y-59454397D01*
X38852254Y-59393477D01*
X38846129Y-59392833D01*
X38846128Y-59392833D01*
X38653498Y-59372587D01*
X38653496Y-59372587D01*
X38647369Y-59371943D01*
X38560529Y-59379846D01*
X38448342Y-59390055D01*
X38448339Y-59390056D01*
X38442203Y-59390614D01*
X38244572Y-59448780D01*
X38062002Y-59544226D01*
X38057201Y-59548086D01*
X38057198Y-59548088D01*
X37912546Y-59664391D01*
X37901447Y-59673315D01*
X37769024Y-59831130D01*
X37766056Y-59836528D01*
X37766053Y-59836533D01*
X37739301Y-59885196D01*
X37669776Y-60011662D01*
X37667913Y-60017535D01*
X37615525Y-60182685D01*
X37607484Y-60208032D01*
X37606798Y-60214149D01*
X37606797Y-60214153D01*
X37591506Y-60350481D01*
X37584520Y-60412762D01*
X37154138Y-60412762D01*
X37135480Y-60222470D01*
X37075935Y-60025249D01*
X36979218Y-59843349D01*
X36859988Y-59697159D01*
X36852906Y-59688475D01*
X36852903Y-59688472D01*
X36849011Y-59683700D01*
X36831786Y-59669450D01*
X36695025Y-59556311D01*
X36695021Y-59556309D01*
X36690275Y-59552382D01*
X36509055Y-59454397D01*
X36312254Y-59393477D01*
X36306129Y-59392833D01*
X36306128Y-59392833D01*
X36113498Y-59372587D01*
X36113496Y-59372587D01*
X36107369Y-59371943D01*
X36020529Y-59379846D01*
X35908342Y-59390055D01*
X35908339Y-59390056D01*
X35902203Y-59390614D01*
X35704572Y-59448780D01*
X35522002Y-59544226D01*
X35517201Y-59548086D01*
X35517198Y-59548088D01*
X35372546Y-59664391D01*
X35361447Y-59673315D01*
X35229024Y-59831130D01*
X35226056Y-59836528D01*
X35226053Y-59836533D01*
X35199301Y-59885196D01*
X35129776Y-60011662D01*
X35127913Y-60017535D01*
X35075525Y-60182685D01*
X35067484Y-60208032D01*
X35066798Y-60214149D01*
X35066797Y-60214153D01*
X35051506Y-60350481D01*
X35044520Y-60412762D01*
X34610500Y-60412762D01*
X34610500Y-59885196D01*
X34599625Y-59795332D01*
X34544052Y-59654969D01*
X34452779Y-59534721D01*
X34332531Y-59443448D01*
X34192168Y-59387875D01*
X34102304Y-59377000D01*
X33017696Y-59377000D01*
X32927832Y-59387875D01*
X32787469Y-59443448D01*
X32667221Y-59534721D01*
X32575948Y-59654969D01*
X32520375Y-59795332D01*
X32509500Y-59885196D01*
X32509500Y-60969804D01*
X32508588Y-60969804D01*
X32493626Y-61035068D01*
X32442867Y-61084707D01*
X32373329Y-61099023D01*
X32307089Y-61073471D01*
X32294625Y-61062547D01*
X31337405Y-60105327D01*
X31303379Y-60043015D01*
X31300500Y-60016232D01*
X31300500Y-57305424D01*
X31320502Y-57237303D01*
X31374158Y-57190810D01*
X31444432Y-57180706D01*
X31461997Y-57184527D01*
X31489831Y-57192700D01*
X31494280Y-57193340D01*
X31494286Y-57193341D01*
X31630053Y-57212861D01*
X31630058Y-57212861D01*
X31634500Y-57213500D01*
X33778647Y-57213500D01*
X33846768Y-57233502D01*
X33893261Y-57287158D01*
X33903365Y-57357432D01*
X33889062Y-57400201D01*
X33849776Y-57471662D01*
X33787484Y-57668032D01*
X33786798Y-57674149D01*
X33786797Y-57674153D01*
X33774359Y-57785044D01*
X33764520Y-57872762D01*
X33781759Y-58078053D01*
X33838544Y-58276086D01*
X33841359Y-58281563D01*
X33841360Y-58281566D01*
X33929897Y-58453841D01*
X33932712Y-58459318D01*
X34060677Y-58620770D01*
X34065370Y-58624764D01*
X34065371Y-58624765D01*
X34162739Y-58707631D01*
X34217564Y-58754291D01*
X34397398Y-58854797D01*
X34492238Y-58885613D01*
X34587471Y-58916556D01*
X34587475Y-58916557D01*
X34593329Y-58918459D01*
X34797894Y-58942851D01*
X34804029Y-58942379D01*
X34804031Y-58942379D01*
X34860039Y-58938069D01*
X35003300Y-58927046D01*
X35009230Y-58925390D01*
X35009232Y-58925390D01*
X35195797Y-58873300D01*
X35195796Y-58873300D01*
X35201725Y-58871645D01*
X35207214Y-58868872D01*
X35207220Y-58868870D01*
X35380116Y-58781533D01*
X35385610Y-58778758D01*
X35547951Y-58651924D01*
X35554113Y-58644786D01*
X35678540Y-58500634D01*
X35678540Y-58500633D01*
X35682564Y-58495972D01*
X35703387Y-58459318D01*
X35781276Y-58322207D01*
X35784323Y-58316844D01*
X35849351Y-58121363D01*
X35875171Y-57916974D01*
X35875583Y-57887500D01*
X35855480Y-57682470D01*
X35795935Y-57485249D01*
X35791834Y-57477535D01*
X35749892Y-57398653D01*
X35735573Y-57329115D01*
X35761121Y-57262875D01*
X35818426Y-57220962D01*
X35861144Y-57213500D01*
X36318647Y-57213500D01*
X36386768Y-57233502D01*
X36433261Y-57287158D01*
X36443365Y-57357432D01*
X36429062Y-57400201D01*
X36389776Y-57471662D01*
X36327484Y-57668032D01*
X36326798Y-57674149D01*
X36326797Y-57674153D01*
X36314359Y-57785044D01*
X36304520Y-57872762D01*
X36321759Y-58078053D01*
X36378544Y-58276086D01*
X36381359Y-58281563D01*
X36381360Y-58281566D01*
X36469897Y-58453841D01*
X36472712Y-58459318D01*
X36600677Y-58620770D01*
X36605370Y-58624764D01*
X36605371Y-58624765D01*
X36702739Y-58707631D01*
X36757564Y-58754291D01*
X36937398Y-58854797D01*
X37032238Y-58885613D01*
X37127471Y-58916556D01*
X37127475Y-58916557D01*
X37133329Y-58918459D01*
X37337894Y-58942851D01*
X37344029Y-58942379D01*
X37344031Y-58942379D01*
X37400039Y-58938069D01*
X37543300Y-58927046D01*
X37549230Y-58925390D01*
X37549232Y-58925390D01*
X37735797Y-58873300D01*
X37735796Y-58873300D01*
X37741725Y-58871645D01*
X37747214Y-58868872D01*
X37747220Y-58868870D01*
X37920116Y-58781533D01*
X37925610Y-58778758D01*
X38087951Y-58651924D01*
X38094113Y-58644786D01*
X38218540Y-58500634D01*
X38218540Y-58500633D01*
X38222564Y-58495972D01*
X38243387Y-58459318D01*
X38321276Y-58322207D01*
X38324323Y-58316844D01*
X38389351Y-58121363D01*
X38415171Y-57916974D01*
X38415583Y-57887500D01*
X38395480Y-57682470D01*
X38335935Y-57485249D01*
X38331834Y-57477535D01*
X38289892Y-57398653D01*
X38275573Y-57329115D01*
X38301121Y-57262875D01*
X38358426Y-57220962D01*
X38401144Y-57213500D01*
X38439516Y-57213500D01*
X38453878Y-57212859D01*
X38483832Y-57211524D01*
X38483853Y-57211523D01*
X38485234Y-57211461D01*
X38507586Y-57209463D01*
X38552966Y-57203357D01*
X38660867Y-57167462D01*
X38687386Y-57158640D01*
X38687388Y-57158639D01*
X38691651Y-57157221D01*
X38755143Y-57125451D01*
X38766825Y-57117343D01*
X38867803Y-57047256D01*
X38867804Y-57047255D01*
X38875208Y-57042116D01*
X38966935Y-56928326D01*
X39003172Y-56867274D01*
X39005963Y-56860539D01*
X39006551Y-56859809D01*
X39006909Y-56859095D01*
X39007064Y-56859173D01*
X39050522Y-56805266D01*
X39117890Y-56782858D01*
X39143148Y-56785729D01*
X39143238Y-56785044D01*
X39220465Y-56795211D01*
X39238930Y-56797642D01*
X39303857Y-56826364D01*
X39342949Y-56885629D01*
X39343794Y-56956621D01*
X39301436Y-57020761D01*
X39172366Y-57124536D01*
X39161447Y-57133315D01*
X39029024Y-57291130D01*
X39026056Y-57296528D01*
X39026053Y-57296533D01*
X38969913Y-57398653D01*
X38929776Y-57471662D01*
X38867484Y-57668032D01*
X38866798Y-57674149D01*
X38866797Y-57674153D01*
X38854359Y-57785044D01*
X38844520Y-57872762D01*
X38861759Y-58078053D01*
X38918544Y-58276086D01*
X38921359Y-58281563D01*
X38921360Y-58281566D01*
X39009897Y-58453841D01*
X39012712Y-58459318D01*
X39140677Y-58620770D01*
X39145370Y-58624764D01*
X39145371Y-58624765D01*
X39242739Y-58707631D01*
X39297564Y-58754291D01*
X39477398Y-58854797D01*
X39572238Y-58885613D01*
X39667471Y-58916556D01*
X39667475Y-58916557D01*
X39673329Y-58918459D01*
X39877894Y-58942851D01*
X39884029Y-58942379D01*
X39884031Y-58942379D01*
X39940039Y-58938069D01*
X40083300Y-58927046D01*
X40089230Y-58925390D01*
X40089232Y-58925390D01*
X40275797Y-58873300D01*
X40275796Y-58873300D01*
X40281725Y-58871645D01*
X40287214Y-58868872D01*
X40287220Y-58868870D01*
X40460116Y-58781533D01*
X40465610Y-58778758D01*
X40627951Y-58651924D01*
X40634113Y-58644786D01*
X40758540Y-58500634D01*
X40758540Y-58500633D01*
X40762564Y-58495972D01*
X40783387Y-58459318D01*
X40861276Y-58322207D01*
X40864323Y-58316844D01*
X40929351Y-58121363D01*
X40955171Y-57916974D01*
X40955583Y-57887500D01*
X40935480Y-57682470D01*
X40875935Y-57485249D01*
X40779218Y-57303349D01*
X40769253Y-57291130D01*
X40728567Y-57241245D01*
X40701013Y-57175813D01*
X40709233Y-57128672D01*
X40667142Y-57134724D01*
X40604759Y-57107091D01*
X40495025Y-57016311D01*
X40495021Y-57016309D01*
X40490275Y-57012382D01*
X40484855Y-57009452D01*
X40484850Y-57009448D01*
X40338294Y-56930206D01*
X40287885Y-56880211D01*
X40272507Y-56810900D01*
X40297043Y-56744278D01*
X40353703Y-56701497D01*
X40414668Y-56694448D01*
X40491812Y-56704604D01*
X40500000Y-56705682D01*
X40508188Y-56704604D01*
X40572161Y-56696182D01*
X40642310Y-56707121D01*
X40695408Y-56754250D01*
X40709503Y-56785606D01*
X40721471Y-56826364D01*
X40725374Y-56839657D01*
X40773407Y-56914397D01*
X40791072Y-56941885D01*
X40811074Y-57010006D01*
X40801342Y-57043151D01*
X40829968Y-57035665D01*
X40897462Y-57057690D01*
X40908722Y-57066384D01*
X40954534Y-57106081D01*
X40954537Y-57106083D01*
X40961345Y-57111982D01*
X41094294Y-57172698D01*
X41104903Y-57175813D01*
X41158092Y-57191431D01*
X41158096Y-57191432D01*
X41162415Y-57192700D01*
X41166864Y-57193340D01*
X41166870Y-57193341D01*
X41302637Y-57212861D01*
X41302642Y-57212861D01*
X41307084Y-57213500D01*
X41398647Y-57213500D01*
X41466768Y-57233502D01*
X41513261Y-57287158D01*
X41523365Y-57357432D01*
X41509062Y-57400201D01*
X41469776Y-57471662D01*
X41407484Y-57668032D01*
X41406798Y-57674149D01*
X41406797Y-57674153D01*
X41394359Y-57785044D01*
X41384520Y-57872762D01*
X41401759Y-58078053D01*
X41458544Y-58276086D01*
X41461359Y-58281563D01*
X41461360Y-58281566D01*
X41549897Y-58453841D01*
X41552712Y-58459318D01*
X41680677Y-58620770D01*
X41685370Y-58624764D01*
X41685371Y-58624765D01*
X41782739Y-58707631D01*
X41837564Y-58754291D01*
X42017398Y-58854797D01*
X42112238Y-58885613D01*
X42207471Y-58916556D01*
X42207475Y-58916557D01*
X42213329Y-58918459D01*
X42417894Y-58942851D01*
X42424029Y-58942379D01*
X42424031Y-58942379D01*
X42480039Y-58938069D01*
X42623300Y-58927046D01*
X42629230Y-58925390D01*
X42629232Y-58925390D01*
X42815797Y-58873300D01*
X42815796Y-58873300D01*
X42821725Y-58871645D01*
X42827214Y-58868872D01*
X42827220Y-58868870D01*
X43000116Y-58781533D01*
X43005610Y-58778758D01*
X43167951Y-58651924D01*
X43174113Y-58644786D01*
X43298540Y-58500634D01*
X43298540Y-58500633D01*
X43302564Y-58495972D01*
X43323387Y-58459318D01*
X43401276Y-58322207D01*
X43404323Y-58316844D01*
X43428332Y-58244669D01*
X66142001Y-58244669D01*
X66142371Y-58251490D01*
X66147895Y-58302352D01*
X66151521Y-58317604D01*
X66196676Y-58438054D01*
X66205214Y-58453649D01*
X66281715Y-58555724D01*
X66294276Y-58568285D01*
X66396351Y-58644786D01*
X66411946Y-58653324D01*
X66532394Y-58698478D01*
X66547649Y-58702105D01*
X66598514Y-58707631D01*
X66605328Y-58708000D01*
X67227885Y-58708000D01*
X67243124Y-58703525D01*
X67244329Y-58702135D01*
X67246000Y-58694452D01*
X67246000Y-58689884D01*
X67754000Y-58689884D01*
X67758475Y-58705123D01*
X67759865Y-58706328D01*
X67767548Y-58707999D01*
X68394669Y-58707999D01*
X68401490Y-58707629D01*
X68452352Y-58702105D01*
X68467604Y-58698479D01*
X68588054Y-58653324D01*
X68603649Y-58644786D01*
X68705724Y-58568285D01*
X68718285Y-58555724D01*
X68794786Y-58453649D01*
X68803324Y-58438054D01*
X68848478Y-58317606D01*
X68852105Y-58302351D01*
X68857631Y-58251486D01*
X68858000Y-58244672D01*
X68858000Y-57622115D01*
X68853525Y-57606876D01*
X68852135Y-57605671D01*
X68844452Y-57604000D01*
X67772115Y-57604000D01*
X67756876Y-57608475D01*
X67755671Y-57609865D01*
X67754000Y-57617548D01*
X67754000Y-58689884D01*
X67246000Y-58689884D01*
X67246000Y-57622115D01*
X67241525Y-57606876D01*
X67240135Y-57605671D01*
X67232452Y-57604000D01*
X66160116Y-57604000D01*
X66144877Y-57608475D01*
X66143672Y-57609865D01*
X66142001Y-57617548D01*
X66142001Y-58244669D01*
X43428332Y-58244669D01*
X43469351Y-58121363D01*
X43495171Y-57916974D01*
X43495583Y-57887500D01*
X43475480Y-57682470D01*
X43415935Y-57485249D01*
X43319218Y-57303349D01*
X43309253Y-57291130D01*
X43262252Y-57233502D01*
X43208389Y-57167460D01*
X43180836Y-57102031D01*
X43193031Y-57032089D01*
X43215912Y-57000162D01*
X43216268Y-56999854D01*
X43224297Y-56990588D01*
X43306081Y-56896205D01*
X43306083Y-56896202D01*
X43311982Y-56889394D01*
X43315726Y-56881197D01*
X43315728Y-56881193D01*
X43326979Y-56856557D01*
X43373472Y-56802902D01*
X43441593Y-56782900D01*
X43509714Y-56802903D01*
X43558000Y-56860680D01*
X43575464Y-56902841D01*
X43616731Y-56956621D01*
X43659518Y-57012382D01*
X43671718Y-57028282D01*
X43797159Y-57124536D01*
X43943238Y-57185044D01*
X44100000Y-57205682D01*
X44108188Y-57204604D01*
X44111675Y-57204145D01*
X44256762Y-57185044D01*
X44356575Y-57143700D01*
X44395215Y-57127695D01*
X44395216Y-57127694D01*
X44402841Y-57124536D01*
X44408566Y-57120143D01*
X44477096Y-57103519D01*
X44544187Y-57126741D01*
X44588073Y-57182549D01*
X44596020Y-57212930D01*
X44606315Y-57291130D01*
X44614956Y-57356762D01*
X44675464Y-57502841D01*
X44680491Y-57509392D01*
X44763482Y-57617548D01*
X44771718Y-57628282D01*
X44897159Y-57724536D01*
X45043238Y-57785044D01*
X45200000Y-57805682D01*
X45208188Y-57804604D01*
X45348574Y-57786122D01*
X45356762Y-57785044D01*
X45502841Y-57724536D01*
X45628282Y-57628282D01*
X45636519Y-57617548D01*
X45719509Y-57509392D01*
X45724536Y-57502841D01*
X45785044Y-57356762D01*
X45805682Y-57200000D01*
X57594318Y-57200000D01*
X57614956Y-57356762D01*
X57675464Y-57502841D01*
X57680491Y-57509392D01*
X57763482Y-57617548D01*
X57771718Y-57628282D01*
X57897159Y-57724536D01*
X58043238Y-57785044D01*
X58200000Y-57805682D01*
X58208188Y-57804604D01*
X58348574Y-57786122D01*
X58356762Y-57785044D01*
X58502841Y-57724536D01*
X58628282Y-57628282D01*
X58636519Y-57617548D01*
X58719509Y-57509392D01*
X58724536Y-57502841D01*
X58785044Y-57356762D01*
X58805682Y-57200000D01*
X61194318Y-57200000D01*
X61214956Y-57356762D01*
X61275464Y-57502841D01*
X61280491Y-57509392D01*
X61363482Y-57617548D01*
X61371718Y-57628282D01*
X61497159Y-57724536D01*
X61643238Y-57785044D01*
X61800000Y-57805682D01*
X61808188Y-57804604D01*
X61948574Y-57786122D01*
X61956762Y-57785044D01*
X62102841Y-57724536D01*
X62228282Y-57628282D01*
X62236519Y-57617548D01*
X62319509Y-57509392D01*
X62324536Y-57502841D01*
X62385044Y-57356762D01*
X62405682Y-57200000D01*
X62385044Y-57043238D01*
X62324536Y-56897159D01*
X62228282Y-56771718D01*
X62102841Y-56675464D01*
X61956762Y-56614956D01*
X61800000Y-56594318D01*
X61643238Y-56614956D01*
X61497159Y-56675464D01*
X61371718Y-56771718D01*
X61275464Y-56897159D01*
X61214956Y-57043238D01*
X61194318Y-57200000D01*
X58805682Y-57200000D01*
X58785044Y-57043238D01*
X58724536Y-56897159D01*
X58628282Y-56771718D01*
X58502841Y-56675464D01*
X58356762Y-56614956D01*
X58200000Y-56594318D01*
X58043238Y-56614956D01*
X57897159Y-56675464D01*
X57771718Y-56771718D01*
X57675464Y-56897159D01*
X57614956Y-57043238D01*
X57594318Y-57200000D01*
X45805682Y-57200000D01*
X45785044Y-57043238D01*
X45724536Y-56897159D01*
X45628282Y-56771718D01*
X45502841Y-56675464D01*
X45356762Y-56614956D01*
X45200000Y-56594318D01*
X45043238Y-56614956D01*
X45035609Y-56618116D01*
X44904788Y-56672304D01*
X44897159Y-56675464D01*
X44891434Y-56679857D01*
X44822904Y-56696481D01*
X44755813Y-56673259D01*
X44711927Y-56617451D01*
X44703980Y-56587070D01*
X44686122Y-56451427D01*
X44685044Y-56443238D01*
X44624536Y-56297159D01*
X44553658Y-56204789D01*
X44533305Y-56178264D01*
X44528282Y-56171718D01*
X44402841Y-56075464D01*
X44256762Y-56014956D01*
X44100000Y-55994318D01*
X43943238Y-56014956D01*
X43797159Y-56075464D01*
X43671718Y-56171718D01*
X43666695Y-56178264D01*
X43666692Y-56178267D01*
X43639463Y-56213753D01*
X43582125Y-56255621D01*
X43511254Y-56259843D01*
X43449351Y-56225079D01*
X43416070Y-56162367D01*
X43413500Y-56137050D01*
X43413500Y-53826000D01*
X43408379Y-53778366D01*
X43402128Y-53720215D01*
X43402127Y-53720208D01*
X43401766Y-53716851D01*
X43401048Y-53713550D01*
X43391094Y-53667790D01*
X43391093Y-53667785D01*
X43390380Y-53664509D01*
X43355710Y-53560343D01*
X43276692Y-53437388D01*
X43260982Y-53419257D01*
X43244295Y-53400000D01*
X55194318Y-53400000D01*
X55214956Y-53556762D01*
X55275464Y-53702841D01*
X55286214Y-53716851D01*
X55350017Y-53800000D01*
X55371718Y-53828282D01*
X55497159Y-53924536D01*
X55643238Y-53985044D01*
X55800000Y-54005682D01*
X55808188Y-54004604D01*
X55948574Y-53986122D01*
X55956762Y-53985044D01*
X56102841Y-53924536D01*
X56228282Y-53828282D01*
X56249984Y-53800000D01*
X56313786Y-53716851D01*
X56324536Y-53702841D01*
X56385044Y-53556762D01*
X56405682Y-53400000D01*
X56385044Y-53243238D01*
X56324536Y-53097159D01*
X56228282Y-52971718D01*
X56102841Y-52875464D01*
X55956762Y-52814956D01*
X55800000Y-52794318D01*
X55643238Y-52814956D01*
X55497159Y-52875464D01*
X55371718Y-52971718D01*
X55275464Y-53097159D01*
X55214956Y-53243238D01*
X55194318Y-53400000D01*
X43244295Y-53400000D01*
X43233139Y-53387125D01*
X43230199Y-53383732D01*
X43165183Y-53327395D01*
X43126550Y-53293919D01*
X43126547Y-53293917D01*
X43119739Y-53288018D01*
X42986790Y-53227302D01*
X42963036Y-53220327D01*
X42922992Y-53208569D01*
X42922988Y-53208568D01*
X42918669Y-53207300D01*
X42914220Y-53206660D01*
X42914214Y-53206659D01*
X42778447Y-53187139D01*
X42778442Y-53187139D01*
X42774000Y-53186500D01*
X41864888Y-53186500D01*
X41796767Y-53166498D01*
X41775793Y-53149595D01*
X41320707Y-52694509D01*
X41286681Y-52632197D01*
X41291746Y-52561382D01*
X41334293Y-52504546D01*
X41400813Y-52479735D01*
X41439291Y-52483409D01*
X41443238Y-52485044D01*
X41600000Y-52505682D01*
X41608188Y-52504604D01*
X41621580Y-52502841D01*
X41756762Y-52485044D01*
X41902841Y-52424536D01*
X42028282Y-52328282D01*
X42049984Y-52300000D01*
X42111746Y-52219509D01*
X42124536Y-52202841D01*
X42147731Y-52146843D01*
X42192280Y-52091563D01*
X42259643Y-52069142D01*
X42328434Y-52086700D01*
X42364102Y-52118358D01*
X42366691Y-52121732D01*
X42366695Y-52121736D01*
X42371718Y-52128282D01*
X42497159Y-52224536D01*
X42643238Y-52285044D01*
X42800000Y-52305682D01*
X42808188Y-52304604D01*
X42948574Y-52286122D01*
X42956762Y-52285044D01*
X43102841Y-52224536D01*
X43228282Y-52128282D01*
X43324536Y-52002841D01*
X43385044Y-51856762D01*
X43392517Y-51800000D01*
X54094318Y-51800000D01*
X54114956Y-51956762D01*
X54175464Y-52102841D01*
X54217495Y-52157617D01*
X54250017Y-52200000D01*
X54271718Y-52228282D01*
X54397159Y-52324536D01*
X54543238Y-52385044D01*
X54700000Y-52405682D01*
X54708188Y-52404604D01*
X54848574Y-52386122D01*
X54856762Y-52385044D01*
X55002841Y-52324536D01*
X55128282Y-52228282D01*
X55129405Y-52229746D01*
X55182664Y-52200663D01*
X55253479Y-52205728D01*
X55309409Y-52247079D01*
X55371718Y-52328282D01*
X55497159Y-52424536D01*
X55643238Y-52485044D01*
X55800000Y-52505682D01*
X55808188Y-52504604D01*
X55821580Y-52502841D01*
X55956762Y-52485044D01*
X56102841Y-52424536D01*
X56228282Y-52328282D01*
X56249984Y-52300000D01*
X56311746Y-52219509D01*
X56324536Y-52202841D01*
X56385044Y-52056762D01*
X56405682Y-51900000D01*
X56385044Y-51743238D01*
X56324536Y-51597159D01*
X56228282Y-51471718D01*
X56102841Y-51375464D01*
X55956762Y-51314956D01*
X55800000Y-51294318D01*
X55643238Y-51314956D01*
X55497159Y-51375464D01*
X55371718Y-51471718D01*
X55370595Y-51470254D01*
X55317336Y-51499337D01*
X55246521Y-51494272D01*
X55190590Y-51452920D01*
X55187256Y-51448574D01*
X55128282Y-51371718D01*
X55002841Y-51275464D01*
X54856762Y-51214956D01*
X54700000Y-51194318D01*
X54543238Y-51214956D01*
X54397159Y-51275464D01*
X54271718Y-51371718D01*
X54175464Y-51497159D01*
X54114956Y-51643238D01*
X54094318Y-51800000D01*
X43392517Y-51800000D01*
X43405682Y-51700000D01*
X43402449Y-51675446D01*
X43413387Y-51605299D01*
X43460515Y-51552200D01*
X43527371Y-51533000D01*
X44000234Y-51533000D01*
X44015473Y-51528525D01*
X44016678Y-51527135D01*
X44018349Y-51519452D01*
X44018349Y-51514884D01*
X44526349Y-51514884D01*
X44530824Y-51530123D01*
X44532214Y-51531328D01*
X44539897Y-51532999D01*
X45117018Y-51532999D01*
X45123839Y-51532629D01*
X45174701Y-51527105D01*
X45189953Y-51523479D01*
X45310403Y-51478324D01*
X45325998Y-51469786D01*
X45428073Y-51393285D01*
X45440634Y-51380724D01*
X45517135Y-51278649D01*
X45525673Y-51263054D01*
X45570827Y-51142606D01*
X45574454Y-51127351D01*
X45579980Y-51076486D01*
X45580349Y-51069672D01*
X45580349Y-50497115D01*
X45575874Y-50481876D01*
X45574484Y-50480671D01*
X45566801Y-50479000D01*
X44544464Y-50479000D01*
X44529225Y-50483475D01*
X44528020Y-50484865D01*
X44526349Y-50492548D01*
X44526349Y-51514884D01*
X44018349Y-51514884D01*
X44018349Y-50497115D01*
X44013874Y-50481876D01*
X44012484Y-50480671D01*
X44004801Y-50479000D01*
X42982465Y-50479000D01*
X42967226Y-50483475D01*
X42966021Y-50484865D01*
X42964350Y-50492548D01*
X42964350Y-50972280D01*
X42944348Y-51040401D01*
X42890692Y-51086894D01*
X42821904Y-51097202D01*
X42800000Y-51094318D01*
X42643238Y-51114956D01*
X42635609Y-51118116D01*
X42626165Y-51122028D01*
X42497159Y-51175464D01*
X42371718Y-51271718D01*
X42366695Y-51278264D01*
X42349679Y-51300440D01*
X42275464Y-51397159D01*
X42252986Y-51451426D01*
X42252269Y-51453157D01*
X42207720Y-51508437D01*
X42140357Y-51530858D01*
X42071566Y-51513300D01*
X42035898Y-51481642D01*
X42033309Y-51478268D01*
X42033305Y-51478264D01*
X42028282Y-51471718D01*
X41902841Y-51375464D01*
X41756762Y-51314956D01*
X41600000Y-51294318D01*
X41443238Y-51314956D01*
X41297159Y-51375464D01*
X41171718Y-51471718D01*
X41075464Y-51597159D01*
X41014956Y-51743238D01*
X40994318Y-51900000D01*
X41014956Y-52056762D01*
X41016239Y-52059859D01*
X41014602Y-52128566D01*
X40974807Y-52187361D01*
X40909541Y-52215307D01*
X40839528Y-52203532D01*
X40805491Y-52179293D01*
X39996902Y-51370704D01*
X39962696Y-51339453D01*
X39945249Y-51324902D01*
X39939801Y-51320760D01*
X39913070Y-51300440D01*
X39908354Y-51296855D01*
X39903057Y-51294217D01*
X39903052Y-51294214D01*
X39781542Y-51233701D01*
X39781536Y-51233699D01*
X39777523Y-51231700D01*
X39773256Y-51230290D01*
X39769993Y-51228946D01*
X39714619Y-51184514D01*
X39692057Y-51117198D01*
X39693045Y-51095991D01*
X39704604Y-51008189D01*
X39704604Y-51008188D01*
X39705682Y-51000000D01*
X39685044Y-50843238D01*
X39624536Y-50697159D01*
X39537237Y-50583388D01*
X39533305Y-50578264D01*
X39528282Y-50571718D01*
X39521736Y-50566695D01*
X39521732Y-50566691D01*
X39496030Y-50546969D01*
X39454163Y-50489631D01*
X39449941Y-50418760D01*
X39472771Y-50370303D01*
X39519509Y-50309392D01*
X39524536Y-50302841D01*
X39585044Y-50156762D01*
X39592517Y-50100000D01*
X40694318Y-50100000D01*
X40714956Y-50256762D01*
X40775464Y-50402841D01*
X40871718Y-50528282D01*
X40878264Y-50533305D01*
X40896071Y-50546969D01*
X40997159Y-50624536D01*
X41143238Y-50685044D01*
X41300000Y-50705682D01*
X41308188Y-50704604D01*
X41448574Y-50686122D01*
X41456762Y-50685044D01*
X41602841Y-50624536D01*
X41703929Y-50546969D01*
X41721736Y-50533305D01*
X41728282Y-50528282D01*
X41824536Y-50402841D01*
X41885044Y-50256762D01*
X41893034Y-50196069D01*
X46667513Y-50196069D01*
X46680741Y-50397894D01*
X46700441Y-50475464D01*
X46727305Y-50581240D01*
X46730527Y-50593928D01*
X46815205Y-50777607D01*
X46818538Y-50782323D01*
X46856197Y-50835609D01*
X46931937Y-50942780D01*
X47076815Y-51083913D01*
X47081619Y-51087123D01*
X47128142Y-51118209D01*
X47244986Y-51196282D01*
X47250289Y-51198560D01*
X47250292Y-51198562D01*
X47400402Y-51263054D01*
X47430819Y-51276122D01*
X47628089Y-51320760D01*
X47633858Y-51320987D01*
X47633861Y-51320987D01*
X47710032Y-51323979D01*
X47830191Y-51328700D01*
X47916481Y-51316189D01*
X48024635Y-51300508D01*
X48024640Y-51300507D01*
X48030356Y-51299678D01*
X48035828Y-51297820D01*
X48035830Y-51297820D01*
X48216416Y-51236519D01*
X48216418Y-51236518D01*
X48221880Y-51234664D01*
X48370514Y-51151426D01*
X48393313Y-51138658D01*
X48393314Y-51138657D01*
X48398350Y-51135837D01*
X48416309Y-51120901D01*
X48549422Y-51010191D01*
X48553854Y-51006505D01*
X48683186Y-50851001D01*
X48687534Y-50843238D01*
X48732030Y-50763783D01*
X48782013Y-50674531D01*
X48784196Y-50668102D01*
X48845169Y-50488481D01*
X48845169Y-50488479D01*
X48847027Y-50483007D01*
X48847856Y-50477291D01*
X48847857Y-50477286D01*
X48865158Y-50357956D01*
X48876049Y-50282842D01*
X48877564Y-50225000D01*
X48859057Y-50023591D01*
X48850095Y-49991812D01*
X48819496Y-49883318D01*
X48804156Y-49828926D01*
X48714700Y-49647527D01*
X48705801Y-49635609D01*
X48597137Y-49490091D01*
X48597136Y-49490090D01*
X48593684Y-49485467D01*
X48589448Y-49481551D01*
X48449402Y-49352094D01*
X48449400Y-49352092D01*
X48445161Y-49348174D01*
X48413634Y-49328282D01*
X48278986Y-49243325D01*
X48274106Y-49240246D01*
X48086247Y-49165298D01*
X47887875Y-49125839D01*
X47882101Y-49125763D01*
X47882097Y-49125763D01*
X47779606Y-49124422D01*
X47685635Y-49123192D01*
X47679938Y-49124171D01*
X47679937Y-49124171D01*
X47491995Y-49156465D01*
X47491994Y-49156465D01*
X47486298Y-49157444D01*
X47296542Y-49227449D01*
X47291581Y-49230401D01*
X47291580Y-49230401D01*
X47128042Y-49327696D01*
X47122720Y-49330862D01*
X46970654Y-49464220D01*
X46845438Y-49623057D01*
X46751263Y-49802053D01*
X46691286Y-49995213D01*
X46667513Y-50196069D01*
X41893034Y-50196069D01*
X41905682Y-50100000D01*
X41890723Y-49986376D01*
X41886314Y-49952885D01*
X42964349Y-49952885D01*
X42968824Y-49968124D01*
X42970214Y-49969329D01*
X42977897Y-49971000D01*
X44000234Y-49971000D01*
X44015473Y-49966525D01*
X44016678Y-49965135D01*
X44018349Y-49957452D01*
X44018349Y-49952885D01*
X44526349Y-49952885D01*
X44530824Y-49968124D01*
X44532214Y-49969329D01*
X44539897Y-49971000D01*
X45562233Y-49971000D01*
X45577472Y-49966525D01*
X45578677Y-49965135D01*
X45580348Y-49957452D01*
X45580348Y-49380331D01*
X45579978Y-49373510D01*
X45574454Y-49322648D01*
X45570828Y-49307396D01*
X45525673Y-49186946D01*
X45517135Y-49171351D01*
X45440634Y-49069276D01*
X45428073Y-49056715D01*
X45325998Y-48980214D01*
X45310403Y-48971676D01*
X45189955Y-48926522D01*
X45174700Y-48922895D01*
X45123835Y-48917369D01*
X45117021Y-48917000D01*
X44544464Y-48917000D01*
X44529225Y-48921475D01*
X44528020Y-48922865D01*
X44526349Y-48930548D01*
X44526349Y-49952885D01*
X44018349Y-49952885D01*
X44018349Y-48935116D01*
X44013874Y-48919877D01*
X44012484Y-48918672D01*
X44004801Y-48917001D01*
X43427680Y-48917001D01*
X43420859Y-48917371D01*
X43369997Y-48922895D01*
X43354745Y-48926521D01*
X43234295Y-48971676D01*
X43218700Y-48980214D01*
X43116625Y-49056715D01*
X43104064Y-49069276D01*
X43027563Y-49171351D01*
X43019025Y-49186946D01*
X42973871Y-49307394D01*
X42970244Y-49322649D01*
X42964718Y-49373514D01*
X42964349Y-49380328D01*
X42964349Y-49952885D01*
X41886314Y-49952885D01*
X41886122Y-49951426D01*
X41885044Y-49943238D01*
X41824536Y-49797159D01*
X41728282Y-49671718D01*
X41602841Y-49575464D01*
X41456762Y-49514956D01*
X41440705Y-49512842D01*
X41367352Y-49503185D01*
X41300000Y-49494318D01*
X41232648Y-49503185D01*
X41159296Y-49512842D01*
X41143238Y-49514956D01*
X40997159Y-49575464D01*
X40871718Y-49671718D01*
X40775464Y-49797159D01*
X40714956Y-49943238D01*
X40713878Y-49951426D01*
X40709277Y-49986376D01*
X40694318Y-50100000D01*
X39592517Y-50100000D01*
X39605682Y-50000000D01*
X39585044Y-49843238D01*
X39524536Y-49697159D01*
X39479874Y-49638954D01*
X39454274Y-49572733D01*
X39468539Y-49503185D01*
X39479874Y-49485546D01*
X39519509Y-49433892D01*
X39524536Y-49427341D01*
X39585044Y-49281262D01*
X39605682Y-49124500D01*
X39588661Y-48995211D01*
X39586122Y-48975926D01*
X39585044Y-48967738D01*
X39524536Y-48821659D01*
X39428282Y-48696218D01*
X39302841Y-48599964D01*
X39156762Y-48539456D01*
X39132813Y-48536303D01*
X39040691Y-48524175D01*
X39000000Y-48518818D01*
X38959309Y-48524175D01*
X38867188Y-48536303D01*
X38843238Y-48539456D01*
X38697159Y-48599964D01*
X38571718Y-48696218D01*
X38475464Y-48821659D01*
X38414956Y-48967738D01*
X38413878Y-48975926D01*
X38411339Y-48995211D01*
X38394318Y-49124500D01*
X38414956Y-49281262D01*
X38475464Y-49427341D01*
X38480491Y-49433892D01*
X38520126Y-49485546D01*
X38545726Y-49551767D01*
X38531461Y-49621315D01*
X38520126Y-49638954D01*
X38475464Y-49697159D01*
X38414956Y-49843238D01*
X38394318Y-50000000D01*
X38414956Y-50156762D01*
X38475464Y-50302841D01*
X38480491Y-50309392D01*
X38564412Y-50418760D01*
X38571718Y-50428282D01*
X38578264Y-50433305D01*
X38578268Y-50433309D01*
X38603970Y-50453031D01*
X38645837Y-50510369D01*
X38650059Y-50581240D01*
X38627229Y-50629697D01*
X38575464Y-50697159D01*
X38562676Y-50728032D01*
X38560116Y-50734213D01*
X38515567Y-50789493D01*
X38448204Y-50811914D01*
X38416919Y-50809114D01*
X38414421Y-50808571D01*
X38410094Y-50807300D01*
X38365205Y-50800846D01*
X38269872Y-50787139D01*
X38269867Y-50787139D01*
X38265425Y-50786500D01*
X35764888Y-50786500D01*
X35696767Y-50766498D01*
X35675793Y-50749595D01*
X34726198Y-49800000D01*
X35494318Y-49800000D01*
X35495396Y-49808188D01*
X35508559Y-49908168D01*
X35514956Y-49956762D01*
X35575464Y-50102841D01*
X35671718Y-50228282D01*
X35797159Y-50324536D01*
X35943238Y-50385044D01*
X36100000Y-50405682D01*
X36108188Y-50404604D01*
X36121580Y-50402841D01*
X36256762Y-50385044D01*
X36402841Y-50324536D01*
X36528282Y-50228282D01*
X36624536Y-50102841D01*
X36685044Y-49956762D01*
X36691442Y-49908168D01*
X36704604Y-49808188D01*
X36705682Y-49800000D01*
X36685044Y-49643238D01*
X36624536Y-49497159D01*
X36552163Y-49402841D01*
X36533305Y-49378264D01*
X36528282Y-49371718D01*
X36402841Y-49275464D01*
X36256762Y-49214956D01*
X36100000Y-49194318D01*
X35943238Y-49214956D01*
X35797159Y-49275464D01*
X35671718Y-49371718D01*
X35666695Y-49378264D01*
X35647837Y-49402841D01*
X35575464Y-49497159D01*
X35514956Y-49643238D01*
X35494318Y-49800000D01*
X34726198Y-49800000D01*
X34700004Y-49773806D01*
X34659123Y-49737083D01*
X34638149Y-49720180D01*
X34616806Y-49704789D01*
X34598570Y-49691638D01*
X34598565Y-49691635D01*
X34593549Y-49688018D01*
X34460600Y-49627302D01*
X34436846Y-49620327D01*
X34396802Y-49608569D01*
X34396798Y-49608568D01*
X34392479Y-49607300D01*
X34388030Y-49606660D01*
X34388024Y-49606659D01*
X34252257Y-49587139D01*
X34252252Y-49587139D01*
X34247810Y-49586500D01*
X33824804Y-49586500D01*
X33756683Y-49566498D01*
X33710190Y-49512842D01*
X33699882Y-49444053D01*
X33702083Y-49427341D01*
X33705682Y-49400000D01*
X33685044Y-49243238D01*
X33624536Y-49097159D01*
X33570474Y-49026704D01*
X33544874Y-48960484D01*
X33559139Y-48890935D01*
X33570474Y-48873296D01*
X33624536Y-48802841D01*
X33685044Y-48656762D01*
X33705682Y-48500000D01*
X33685044Y-48343238D01*
X33624536Y-48197159D01*
X33556059Y-48107918D01*
X33533305Y-48078264D01*
X33528282Y-48071718D01*
X33402841Y-47975464D01*
X33256762Y-47914956D01*
X33100000Y-47894318D01*
X32943238Y-47914956D01*
X32797159Y-47975464D01*
X32671718Y-48071718D01*
X32666695Y-48078264D01*
X32643941Y-48107918D01*
X32575464Y-48197159D01*
X32514956Y-48343238D01*
X32513878Y-48351426D01*
X32508189Y-48394639D01*
X32479467Y-48459566D01*
X32420202Y-48498658D01*
X32366821Y-48503115D01*
X32308188Y-48495396D01*
X32300000Y-48494318D01*
X32143238Y-48514956D01*
X31997159Y-48575464D01*
X31871718Y-48671718D01*
X31866695Y-48678264D01*
X31848016Y-48702607D01*
X31775464Y-48797159D01*
X31714956Y-48943238D01*
X31694318Y-49100000D01*
X31695966Y-49112518D01*
X31708398Y-49206945D01*
X31714956Y-49256762D01*
X31775464Y-49402841D01*
X31794536Y-49427696D01*
X31829526Y-49473296D01*
X31855126Y-49539516D01*
X31840861Y-49609065D01*
X31829527Y-49626703D01*
X31775464Y-49697159D01*
X31714956Y-49843238D01*
X31694318Y-50000000D01*
X31714956Y-50156762D01*
X31775464Y-50302841D01*
X31780491Y-50309392D01*
X31864412Y-50418760D01*
X31871402Y-50427870D01*
X31871403Y-50427872D01*
X31871718Y-50428282D01*
X31871654Y-50428331D01*
X31903712Y-50487039D01*
X31898647Y-50557854D01*
X31884506Y-50583388D01*
X31884621Y-50583454D01*
X31880896Y-50589906D01*
X31880551Y-50590529D01*
X31875464Y-50597159D01*
X31821058Y-50728508D01*
X31820736Y-50729285D01*
X31776188Y-50784566D01*
X31704327Y-50807067D01*
X31579352Y-50807067D01*
X31545641Y-50811914D01*
X31513534Y-50816530D01*
X31513530Y-50816531D01*
X31509078Y-50817171D01*
X31504766Y-50818437D01*
X31504762Y-50818438D01*
X31481881Y-50825157D01*
X31461998Y-50830995D01*
X31391003Y-50830995D01*
X31331276Y-50792612D01*
X31301783Y-50728032D01*
X31300500Y-50710099D01*
X31300500Y-46500000D01*
X33594318Y-46500000D01*
X33614956Y-46656762D01*
X33675464Y-46802841D01*
X33694536Y-46827696D01*
X33764610Y-46919018D01*
X33771718Y-46928282D01*
X33897159Y-47024536D01*
X34024947Y-47077468D01*
X34034598Y-47081465D01*
X34043238Y-47085044D01*
X34200000Y-47105682D01*
X34208188Y-47104604D01*
X34257888Y-47098061D01*
X34356762Y-47085044D01*
X34365403Y-47081465D01*
X34375053Y-47077468D01*
X34502841Y-47024536D01*
X34573296Y-46970474D01*
X34639516Y-46944874D01*
X34709065Y-46959139D01*
X34726703Y-46970473D01*
X34797159Y-47024536D01*
X34924947Y-47077468D01*
X34934598Y-47081465D01*
X34943238Y-47085044D01*
X35100000Y-47105682D01*
X35108188Y-47104604D01*
X35157888Y-47098061D01*
X35256762Y-47085044D01*
X35265403Y-47081465D01*
X35275053Y-47077468D01*
X35402841Y-47024536D01*
X35528282Y-46928282D01*
X35533305Y-46921736D01*
X35533308Y-46921733D01*
X35570562Y-46873182D01*
X35627900Y-46831314D01*
X35698771Y-46827092D01*
X35718739Y-46833475D01*
X35843238Y-46885044D01*
X36000000Y-46905682D01*
X36008188Y-46904604D01*
X36148574Y-46886122D01*
X36156762Y-46885044D01*
X36302841Y-46824536D01*
X36428282Y-46728282D01*
X36524536Y-46602841D01*
X36585044Y-46456762D01*
X36591504Y-46407697D01*
X36592582Y-46399509D01*
X37394318Y-46399509D01*
X37414956Y-46556271D01*
X37475464Y-46702350D01*
X37571718Y-46827791D01*
X37697159Y-46924045D01*
X37843238Y-46984553D01*
X38000000Y-47005191D01*
X38008188Y-47004113D01*
X38016446Y-47004113D01*
X38016446Y-47006307D01*
X38075186Y-47015464D01*
X38128286Y-47062590D01*
X38146410Y-47113003D01*
X38156354Y-47188536D01*
X38216862Y-47334615D01*
X38313116Y-47460056D01*
X38438557Y-47556310D01*
X38584636Y-47616818D01*
X38741398Y-47637456D01*
X38749586Y-47636378D01*
X38889972Y-47617896D01*
X38898160Y-47616818D01*
X39044239Y-47556310D01*
X39169680Y-47460056D01*
X39265934Y-47334615D01*
X39326442Y-47188536D01*
X39347080Y-47031774D01*
X39326442Y-46875012D01*
X39295578Y-46800500D01*
X40619318Y-46800500D01*
X40639956Y-46957262D01*
X40700464Y-47103341D01*
X40796718Y-47228782D01*
X40922159Y-47325036D01*
X41068238Y-47385544D01*
X41225000Y-47406182D01*
X41233188Y-47405104D01*
X41373574Y-47386622D01*
X41381762Y-47385544D01*
X41527841Y-47325036D01*
X41653282Y-47228782D01*
X41749536Y-47103341D01*
X41810044Y-46957262D01*
X41830682Y-46800500D01*
X41810044Y-46643738D01*
X41749536Y-46497659D01*
X41653282Y-46372218D01*
X41527841Y-46275964D01*
X41381762Y-46215456D01*
X41225000Y-46194818D01*
X41068238Y-46215456D01*
X40922159Y-46275964D01*
X40796718Y-46372218D01*
X40700464Y-46497659D01*
X40639956Y-46643738D01*
X40619318Y-46800500D01*
X39295578Y-46800500D01*
X39265934Y-46728933D01*
X39169680Y-46603492D01*
X39044239Y-46507238D01*
X38898160Y-46446730D01*
X38741398Y-46426092D01*
X38733210Y-46427170D01*
X38724952Y-46427170D01*
X38724952Y-46424976D01*
X38666212Y-46415819D01*
X38613112Y-46368693D01*
X38594988Y-46318280D01*
X38586122Y-46250935D01*
X38585044Y-46242747D01*
X38524536Y-46096668D01*
X38441283Y-45988170D01*
X38433305Y-45977773D01*
X38428282Y-45971227D01*
X38302841Y-45874973D01*
X38156762Y-45814465D01*
X38148506Y-45813378D01*
X38008188Y-45794905D01*
X38000000Y-45793827D01*
X37991812Y-45794905D01*
X37851495Y-45813378D01*
X37843238Y-45814465D01*
X37697159Y-45874973D01*
X37571718Y-45971227D01*
X37566695Y-45977773D01*
X37558717Y-45988170D01*
X37475464Y-46096668D01*
X37414956Y-46242747D01*
X37413878Y-46250935D01*
X37407419Y-46300000D01*
X37394318Y-46399509D01*
X36592582Y-46399509D01*
X36604604Y-46308188D01*
X36605682Y-46300000D01*
X36585044Y-46143238D01*
X36524536Y-45997159D01*
X36456059Y-45907918D01*
X36433305Y-45878264D01*
X36428282Y-45871718D01*
X36302841Y-45775464D01*
X36156762Y-45714956D01*
X36000000Y-45694318D01*
X35843238Y-45714956D01*
X35697159Y-45775464D01*
X35571718Y-45871718D01*
X35566695Y-45878264D01*
X35566692Y-45878267D01*
X35529438Y-45926818D01*
X35472100Y-45968686D01*
X35401229Y-45972908D01*
X35381261Y-45966525D01*
X35256762Y-45914956D01*
X35100000Y-45894318D01*
X34943238Y-45914956D01*
X34797159Y-45975464D01*
X34758942Y-46004789D01*
X34726704Y-46029526D01*
X34660484Y-46055126D01*
X34590935Y-46040861D01*
X34573296Y-46029526D01*
X34541058Y-46004789D01*
X34502841Y-45975464D01*
X34356762Y-45914956D01*
X34200000Y-45894318D01*
X34043238Y-45914956D01*
X33897159Y-45975464D01*
X33771718Y-46071718D01*
X33675464Y-46197159D01*
X33614956Y-46343238D01*
X33594318Y-46500000D01*
X31300500Y-46500000D01*
X31300500Y-45363768D01*
X31320502Y-45295647D01*
X31337405Y-45274673D01*
X32242369Y-44369709D01*
X32304681Y-44335683D01*
X32336409Y-44332901D01*
X32346501Y-44333297D01*
X32360470Y-44333846D01*
X32366179Y-44333018D01*
X32366183Y-44333018D01*
X32564015Y-44304333D01*
X32564019Y-44304332D01*
X32569730Y-44303504D01*
X32637524Y-44280491D01*
X32764483Y-44237395D01*
X32764488Y-44237393D01*
X32769955Y-44235537D01*
X32800245Y-44218574D01*
X32949395Y-44135046D01*
X32949399Y-44135043D01*
X32954442Y-44132219D01*
X33117012Y-43997012D01*
X33252219Y-43834442D01*
X33255043Y-43829399D01*
X33255046Y-43829395D01*
X33352713Y-43654998D01*
X33352714Y-43654996D01*
X33355537Y-43649955D01*
X33357393Y-43644488D01*
X33357395Y-43644483D01*
X33421647Y-43455200D01*
X33423504Y-43449730D01*
X33429353Y-43409392D01*
X33438804Y-43344211D01*
X33468374Y-43279665D01*
X33528146Y-43241353D01*
X33599143Y-43241437D01*
X33658823Y-43279892D01*
X33688239Y-43344508D01*
X33689500Y-43362291D01*
X33689500Y-44074646D01*
X33692618Y-44100846D01*
X33696456Y-44109486D01*
X33696456Y-44109487D01*
X33704911Y-44128521D01*
X33738061Y-44203153D01*
X33746294Y-44211372D01*
X33746295Y-44211373D01*
X33772363Y-44237395D01*
X33817287Y-44282241D01*
X33827924Y-44286944D01*
X33827926Y-44286945D01*
X33875977Y-44308188D01*
X33919673Y-44327506D01*
X33945354Y-44330500D01*
X35734646Y-44330500D01*
X35738350Y-44330059D01*
X35738353Y-44330059D01*
X35745746Y-44329179D01*
X35760846Y-44327382D01*
X35863153Y-44281939D01*
X35872772Y-44272304D01*
X35912293Y-44232713D01*
X35942241Y-44202713D01*
X35987506Y-44100327D01*
X35990500Y-44074646D01*
X35990500Y-43200000D01*
X43994318Y-43200000D01*
X44014956Y-43356762D01*
X44075464Y-43502841D01*
X44171718Y-43628282D01*
X44297159Y-43724536D01*
X44443238Y-43785044D01*
X44600000Y-43805682D01*
X44608188Y-43804604D01*
X44748574Y-43786122D01*
X44756762Y-43785044D01*
X44902841Y-43724536D01*
X44909392Y-43719509D01*
X44910501Y-43718869D01*
X44979497Y-43702132D01*
X45046588Y-43725353D01*
X45090475Y-43781161D01*
X45099500Y-43827989D01*
X45099500Y-46152381D01*
X45098422Y-46168827D01*
X45094318Y-46200000D01*
X45099500Y-46239361D01*
X45114956Y-46356762D01*
X45175464Y-46502841D01*
X45271718Y-46628282D01*
X45278264Y-46633305D01*
X45296671Y-46647429D01*
X45309062Y-46658297D01*
X47191710Y-48540946D01*
X47202577Y-48553337D01*
X47221718Y-48578282D01*
X47253213Y-48602449D01*
X47253214Y-48602450D01*
X47347159Y-48674536D01*
X47493238Y-48735044D01*
X47650000Y-48755682D01*
X47658188Y-48754604D01*
X47681173Y-48751578D01*
X47697619Y-48750500D01*
X51520849Y-48750500D01*
X51588970Y-48770502D01*
X51635463Y-48824158D01*
X51646849Y-48876500D01*
X51646849Y-48994646D01*
X51649967Y-49020846D01*
X51653805Y-49029486D01*
X51653805Y-49029487D01*
X51690686Y-49112518D01*
X51695410Y-49123153D01*
X51703643Y-49131372D01*
X51703644Y-49131373D01*
X51728780Y-49156465D01*
X51774636Y-49202241D01*
X51785273Y-49206944D01*
X51785275Y-49206945D01*
X51832213Y-49227696D01*
X51877022Y-49247506D01*
X51902703Y-49250500D01*
X53087845Y-49250500D01*
X53155966Y-49270502D01*
X53176940Y-49287405D01*
X54493815Y-50604280D01*
X54501281Y-50613624D01*
X54501671Y-50613292D01*
X54507489Y-50620128D01*
X54512279Y-50627720D01*
X54519007Y-50633662D01*
X54519008Y-50633663D01*
X54551949Y-50662755D01*
X54557637Y-50668102D01*
X54568855Y-50679320D01*
X54572443Y-50682009D01*
X54572444Y-50682010D01*
X54577033Y-50685450D01*
X54584872Y-50691832D01*
X54600555Y-50705682D01*
X54619737Y-50722623D01*
X54627860Y-50726437D01*
X54631013Y-50728508D01*
X54644025Y-50736327D01*
X54647343Y-50738143D01*
X54654525Y-50743526D01*
X54698090Y-50759858D01*
X54707399Y-50763780D01*
X54749512Y-50783553D01*
X54758385Y-50784935D01*
X54762007Y-50786042D01*
X54776677Y-50789891D01*
X54780366Y-50790702D01*
X54788768Y-50793852D01*
X54797713Y-50794517D01*
X54797723Y-50794519D01*
X54835177Y-50797302D01*
X54845204Y-50798452D01*
X54858358Y-50800500D01*
X54873552Y-50800500D01*
X54882890Y-50800846D01*
X54931740Y-50804476D01*
X54940516Y-50802603D01*
X54949473Y-50801992D01*
X54949473Y-50801998D01*
X54963666Y-50800500D01*
X61572011Y-50800500D01*
X61640132Y-50820502D01*
X61686625Y-50874158D01*
X61696729Y-50944432D01*
X61681131Y-50989499D01*
X61680491Y-50990608D01*
X61675464Y-50997159D01*
X61614956Y-51143238D01*
X61594318Y-51300000D01*
X61614956Y-51456762D01*
X61675464Y-51602841D01*
X61720599Y-51661662D01*
X61750017Y-51700000D01*
X61771718Y-51728282D01*
X61897159Y-51824536D01*
X62043238Y-51885044D01*
X62200000Y-51905682D01*
X62208188Y-51904604D01*
X62348576Y-51886122D01*
X62348578Y-51886121D01*
X62356762Y-51885044D01*
X62363852Y-51882107D01*
X62434560Y-51883792D01*
X62493355Y-51923587D01*
X62521301Y-51988852D01*
X62517924Y-52036074D01*
X62514956Y-52043238D01*
X62513879Y-52051422D01*
X62513878Y-52051424D01*
X62502795Y-52135609D01*
X62494318Y-52200000D01*
X62514956Y-52356762D01*
X62575464Y-52502841D01*
X62671718Y-52628282D01*
X62797159Y-52724536D01*
X62943238Y-52785044D01*
X63100000Y-52805682D01*
X63108188Y-52804604D01*
X63248574Y-52786122D01*
X63256762Y-52785044D01*
X63402841Y-52724536D01*
X63528282Y-52628282D01*
X63624536Y-52502841D01*
X63685044Y-52356762D01*
X63705682Y-52200000D01*
X63685044Y-52043238D01*
X63624536Y-51897159D01*
X63556059Y-51807918D01*
X63533305Y-51778264D01*
X63528282Y-51771718D01*
X63402841Y-51675464D01*
X63256762Y-51614956D01*
X63208742Y-51608634D01*
X63143159Y-51600000D01*
X63100000Y-51594318D01*
X63091812Y-51595396D01*
X62951424Y-51613878D01*
X62951422Y-51613879D01*
X62943238Y-51614956D01*
X62936148Y-51617893D01*
X62865440Y-51616208D01*
X62806645Y-51576413D01*
X62778699Y-51511148D01*
X62782076Y-51463926D01*
X62785044Y-51456762D01*
X62786825Y-51443238D01*
X62804604Y-51308188D01*
X62805682Y-51300000D01*
X62785044Y-51143238D01*
X62724536Y-50997159D01*
X62719509Y-50990608D01*
X62718869Y-50989499D01*
X62702132Y-50920503D01*
X62725353Y-50853412D01*
X62781161Y-50809525D01*
X62827989Y-50800500D01*
X65270496Y-50800500D01*
X65338617Y-50820502D01*
X65359591Y-50837405D01*
X66359176Y-51836990D01*
X66393202Y-51899302D01*
X66390414Y-51963448D01*
X66377578Y-52004789D01*
X66372316Y-52021736D01*
X66369820Y-52029773D01*
X66344967Y-52239754D01*
X66358796Y-52450749D01*
X66360217Y-52456345D01*
X66360218Y-52456350D01*
X66395485Y-52595211D01*
X66410845Y-52655690D01*
X66413262Y-52660933D01*
X66442583Y-52724536D01*
X66499369Y-52847714D01*
X66621405Y-53020391D01*
X66625539Y-53024418D01*
X66762904Y-53158233D01*
X66772865Y-53167937D01*
X66777661Y-53171142D01*
X66777664Y-53171144D01*
X66859813Y-53226034D01*
X66948677Y-53285411D01*
X66953985Y-53287692D01*
X66953986Y-53287692D01*
X67137650Y-53366600D01*
X67137653Y-53366601D01*
X67142953Y-53368878D01*
X67148582Y-53370152D01*
X67148583Y-53370152D01*
X67343550Y-53414269D01*
X67343553Y-53414269D01*
X67349186Y-53415544D01*
X67354958Y-53415771D01*
X67360687Y-53416525D01*
X67360327Y-53419257D01*
X67416604Y-53438216D01*
X67460950Y-53493659D01*
X67468282Y-53564276D01*
X67436271Y-53627647D01*
X67375081Y-53663651D01*
X67365704Y-53665632D01*
X67206650Y-53692962D01*
X67206649Y-53692962D01*
X67200953Y-53693941D01*
X67002575Y-53767127D01*
X66997614Y-53770079D01*
X66997613Y-53770079D01*
X66909251Y-53822649D01*
X66820856Y-53875238D01*
X66661881Y-54014655D01*
X66530976Y-54180708D01*
X66528287Y-54185819D01*
X66528285Y-54185822D01*
X66514792Y-54211469D01*
X66432523Y-54367836D01*
X66369820Y-54569773D01*
X66344967Y-54779754D01*
X66358796Y-54990749D01*
X66360217Y-54996345D01*
X66360218Y-54996350D01*
X66382784Y-55085200D01*
X66410845Y-55195690D01*
X66499369Y-55387714D01*
X66621405Y-55560391D01*
X66772865Y-55707937D01*
X66777665Y-55711144D01*
X66852632Y-55761236D01*
X66898160Y-55815713D01*
X66907008Y-55886156D01*
X66876366Y-55950200D01*
X66815964Y-55987512D01*
X66782630Y-55992001D01*
X66605331Y-55992001D01*
X66598510Y-55992371D01*
X66547648Y-55997895D01*
X66532396Y-56001521D01*
X66411946Y-56046676D01*
X66396351Y-56055214D01*
X66294276Y-56131715D01*
X66281715Y-56144276D01*
X66205214Y-56246351D01*
X66196676Y-56261946D01*
X66151522Y-56382394D01*
X66147895Y-56397649D01*
X66142369Y-56448514D01*
X66142000Y-56455328D01*
X66142000Y-57077885D01*
X66146475Y-57093124D01*
X66147865Y-57094329D01*
X66155548Y-57096000D01*
X68839884Y-57096000D01*
X68855123Y-57091525D01*
X68856328Y-57090135D01*
X68857999Y-57082452D01*
X68857999Y-56500000D01*
X75194318Y-56500000D01*
X75214956Y-56656762D01*
X75275464Y-56802841D01*
X75371718Y-56928282D01*
X75497159Y-57024536D01*
X75643238Y-57085044D01*
X75800000Y-57105682D01*
X75808188Y-57104604D01*
X75816430Y-57103519D01*
X75956762Y-57085044D01*
X76102841Y-57024536D01*
X76228282Y-56928282D01*
X76324536Y-56802841D01*
X76385044Y-56656762D01*
X76405682Y-56500000D01*
X76385044Y-56343238D01*
X76324536Y-56197159D01*
X76256059Y-56107918D01*
X76233305Y-56078264D01*
X76228282Y-56071718D01*
X76102841Y-55975464D01*
X75956762Y-55914956D01*
X75800000Y-55894318D01*
X75643238Y-55914956D01*
X75497159Y-55975464D01*
X75371718Y-56071718D01*
X75366695Y-56078264D01*
X75343941Y-56107918D01*
X75275464Y-56197159D01*
X75214956Y-56343238D01*
X75194318Y-56500000D01*
X68857999Y-56500000D01*
X68857999Y-56455331D01*
X68857629Y-56448510D01*
X68852105Y-56397648D01*
X68848479Y-56382396D01*
X68803324Y-56261946D01*
X68794786Y-56246351D01*
X68718285Y-56144276D01*
X68705724Y-56131715D01*
X68603649Y-56055214D01*
X68588054Y-56046676D01*
X68467606Y-56001522D01*
X68452351Y-55997895D01*
X68401486Y-55992369D01*
X68394672Y-55992000D01*
X68224961Y-55992000D01*
X68156840Y-55971998D01*
X68110347Y-55918342D01*
X68100243Y-55848068D01*
X68129737Y-55783488D01*
X68151995Y-55763589D01*
X68154442Y-55762219D01*
X68317012Y-55627012D01*
X68452219Y-55464442D01*
X68455043Y-55459399D01*
X68455046Y-55459395D01*
X68552713Y-55284998D01*
X68552714Y-55284996D01*
X68555537Y-55279955D01*
X68557393Y-55274488D01*
X68557395Y-55274483D01*
X68621647Y-55085200D01*
X68623504Y-55079730D01*
X68653846Y-54870470D01*
X68655429Y-54810000D01*
X68636081Y-54599440D01*
X68578686Y-54395931D01*
X68575713Y-54389901D01*
X68487719Y-54211469D01*
X68485165Y-54206290D01*
X68407916Y-54102841D01*
X68362104Y-54041491D01*
X68362103Y-54041490D01*
X68358651Y-54036867D01*
X68258286Y-53944090D01*
X68207622Y-53897257D01*
X68207620Y-53897255D01*
X68203381Y-53893337D01*
X68055452Y-53800000D01*
X68029434Y-53783584D01*
X68029433Y-53783584D01*
X68024554Y-53780505D01*
X67828160Y-53702152D01*
X67822503Y-53701027D01*
X67822497Y-53701025D01*
X67625234Y-53661788D01*
X67562324Y-53628881D01*
X67527192Y-53567186D01*
X67530992Y-53496291D01*
X67572517Y-53438705D01*
X67631734Y-53413513D01*
X67764015Y-53394333D01*
X67764019Y-53394332D01*
X67769730Y-53393504D01*
X67848987Y-53366600D01*
X67964483Y-53327395D01*
X67964488Y-53327393D01*
X67969955Y-53325537D01*
X68036950Y-53288018D01*
X68149395Y-53225046D01*
X68149399Y-53225043D01*
X68154442Y-53222219D01*
X68317012Y-53087012D01*
X68452219Y-52924442D01*
X68455043Y-52919399D01*
X68455046Y-52919395D01*
X68552713Y-52744998D01*
X68552714Y-52744996D01*
X68555537Y-52739955D01*
X68557393Y-52734488D01*
X68557395Y-52734483D01*
X68621647Y-52545200D01*
X68623504Y-52539730D01*
X68631434Y-52485044D01*
X68653314Y-52334140D01*
X68653314Y-52334138D01*
X68653846Y-52330470D01*
X68655429Y-52270000D01*
X68636081Y-52059440D01*
X68633017Y-52048574D01*
X68591916Y-51902841D01*
X68578686Y-51855931D01*
X68569346Y-51836990D01*
X68487719Y-51671469D01*
X68485165Y-51666290D01*
X68435664Y-51600000D01*
X72094318Y-51600000D01*
X72114956Y-51756762D01*
X72175464Y-51902841D01*
X72271718Y-52028282D01*
X72278264Y-52033305D01*
X72291209Y-52043238D01*
X72397159Y-52124536D01*
X72543238Y-52185044D01*
X72700000Y-52205682D01*
X72708188Y-52204604D01*
X72721580Y-52202841D01*
X72856762Y-52185044D01*
X73002841Y-52124536D01*
X73075032Y-52069142D01*
X73111437Y-52041208D01*
X73177658Y-52015608D01*
X73247207Y-52029873D01*
X73298002Y-52079474D01*
X73313918Y-52148664D01*
X73313063Y-52157616D01*
X73294318Y-52300000D01*
X73314956Y-52456762D01*
X73375464Y-52602841D01*
X73471718Y-52728282D01*
X73597159Y-52824536D01*
X73743238Y-52885044D01*
X73900000Y-52905682D01*
X73908188Y-52904604D01*
X74048574Y-52886122D01*
X74056762Y-52885044D01*
X74202841Y-52824536D01*
X74328282Y-52728282D01*
X74424536Y-52602841D01*
X74485044Y-52456762D01*
X74505682Y-52300000D01*
X74485044Y-52143238D01*
X74424536Y-51997159D01*
X74352163Y-51902841D01*
X74333305Y-51878264D01*
X74328282Y-51871718D01*
X74311437Y-51858792D01*
X74209392Y-51780491D01*
X74202841Y-51775464D01*
X74056762Y-51714956D01*
X73900000Y-51694318D01*
X73743238Y-51714956D01*
X73597159Y-51775464D01*
X73590608Y-51780491D01*
X73488563Y-51858792D01*
X73422342Y-51884392D01*
X73352793Y-51870127D01*
X73301998Y-51820526D01*
X73286082Y-51751336D01*
X73286937Y-51742383D01*
X73303855Y-51613878D01*
X73305682Y-51600000D01*
X73285044Y-51443238D01*
X73224536Y-51297159D01*
X73145624Y-51194318D01*
X73133305Y-51178264D01*
X73128282Y-51171718D01*
X73105115Y-51153941D01*
X73070462Y-51127351D01*
X73002841Y-51075464D01*
X72856762Y-51014956D01*
X72700000Y-50994318D01*
X72543238Y-51014956D01*
X72397159Y-51075464D01*
X72329538Y-51127351D01*
X72294886Y-51153941D01*
X72271718Y-51171718D01*
X72266695Y-51178264D01*
X72254376Y-51194318D01*
X72175464Y-51297159D01*
X72114956Y-51443238D01*
X72094318Y-51600000D01*
X68435664Y-51600000D01*
X68358651Y-51496867D01*
X68227318Y-51375464D01*
X68207622Y-51357257D01*
X68207620Y-51357255D01*
X68203381Y-51353337D01*
X68159733Y-51325797D01*
X68029434Y-51243584D01*
X68029433Y-51243584D01*
X68024554Y-51240505D01*
X67828160Y-51162152D01*
X67822503Y-51161027D01*
X67822497Y-51161025D01*
X67626442Y-51122028D01*
X67626440Y-51122028D01*
X67620775Y-51120901D01*
X67615000Y-51120825D01*
X67614996Y-51120825D01*
X67508976Y-51119437D01*
X67409346Y-51118133D01*
X67403649Y-51119112D01*
X67403648Y-51119112D01*
X67355700Y-51127351D01*
X67200953Y-51153941D01*
X67195534Y-51155940D01*
X67189951Y-51157436D01*
X67189553Y-51155951D01*
X67126009Y-51160261D01*
X67064149Y-51126335D01*
X65933534Y-49995720D01*
X65926068Y-49986376D01*
X65925678Y-49986708D01*
X65919860Y-49979872D01*
X65915070Y-49972280D01*
X65906138Y-49964391D01*
X65875400Y-49937245D01*
X65869712Y-49931898D01*
X65858494Y-49920680D01*
X65854905Y-49917990D01*
X65850316Y-49914550D01*
X65842477Y-49908168D01*
X65814339Y-49883318D01*
X65807612Y-49877377D01*
X65799489Y-49873563D01*
X65796336Y-49871492D01*
X65783324Y-49863673D01*
X65780005Y-49861856D01*
X65772824Y-49856474D01*
X65729261Y-49840143D01*
X65719947Y-49836217D01*
X65685966Y-49820263D01*
X65685963Y-49820262D01*
X65677837Y-49816447D01*
X65668963Y-49815065D01*
X65665350Y-49813961D01*
X65650693Y-49810115D01*
X65646990Y-49809301D01*
X65638580Y-49806148D01*
X65592157Y-49802698D01*
X65582144Y-49801548D01*
X65568991Y-49799500D01*
X65553796Y-49799500D01*
X65544459Y-49799154D01*
X65529036Y-49798008D01*
X65495608Y-49795524D01*
X65486832Y-49797397D01*
X65477875Y-49798008D01*
X65477875Y-49798002D01*
X65463682Y-49799500D01*
X55156853Y-49799500D01*
X55088732Y-49779498D01*
X55067758Y-49762595D01*
X53884754Y-48579591D01*
X53850728Y-48517279D01*
X53847849Y-48490496D01*
X53847849Y-48121069D01*
X55142513Y-48121069D01*
X55155741Y-48322894D01*
X55169092Y-48375464D01*
X55199551Y-48495396D01*
X55205527Y-48518928D01*
X55290205Y-48702607D01*
X55293538Y-48707323D01*
X55393364Y-48848574D01*
X55406937Y-48867780D01*
X55551815Y-49008913D01*
X55719986Y-49121282D01*
X55725289Y-49123560D01*
X55725292Y-49123562D01*
X55889982Y-49194318D01*
X55905819Y-49201122D01*
X56025848Y-49228282D01*
X56093875Y-49243675D01*
X56103089Y-49245760D01*
X56108858Y-49245987D01*
X56108861Y-49245987D01*
X56185032Y-49248979D01*
X56305191Y-49253700D01*
X56391481Y-49241189D01*
X56499635Y-49225508D01*
X56499640Y-49225507D01*
X56505356Y-49224678D01*
X56510828Y-49222820D01*
X56510830Y-49222820D01*
X56691416Y-49161519D01*
X56691418Y-49161518D01*
X56696880Y-49159664D01*
X56873350Y-49060837D01*
X56906454Y-49033305D01*
X57020017Y-48938855D01*
X57028854Y-48931505D01*
X57032540Y-48927073D01*
X57032547Y-48927066D01*
X57069320Y-48882852D01*
X57128257Y-48843268D01*
X57199240Y-48841833D01*
X57259730Y-48879001D01*
X57273338Y-48897709D01*
X57275464Y-48902841D01*
X57371718Y-49028282D01*
X57497159Y-49124536D01*
X57643238Y-49185044D01*
X57800000Y-49205682D01*
X57808188Y-49204604D01*
X57821580Y-49202841D01*
X57956762Y-49185044D01*
X58102841Y-49124536D01*
X58228282Y-49028282D01*
X58324536Y-48902841D01*
X58385044Y-48756762D01*
X58405682Y-48600000D01*
X58385044Y-48443238D01*
X58324536Y-48297159D01*
X58228282Y-48171718D01*
X58199979Y-48150000D01*
X58134817Y-48100000D01*
X58794318Y-48100000D01*
X58814956Y-48256762D01*
X58875464Y-48402841D01*
X58918991Y-48459566D01*
X58950017Y-48500000D01*
X58971718Y-48528282D01*
X59097159Y-48624536D01*
X59243238Y-48685044D01*
X59400000Y-48705682D01*
X59408188Y-48704604D01*
X59422165Y-48702764D01*
X59556762Y-48685044D01*
X59564389Y-48681885D01*
X59564392Y-48681884D01*
X59628460Y-48655346D01*
X59699050Y-48647757D01*
X59762537Y-48679537D01*
X59798764Y-48740595D01*
X59801599Y-48755301D01*
X59814956Y-48856762D01*
X59875464Y-49002841D01*
X59889280Y-49020846D01*
X59950017Y-49100000D01*
X59971718Y-49128282D01*
X60097159Y-49224536D01*
X60243238Y-49285044D01*
X60251426Y-49286122D01*
X60272459Y-49288891D01*
X60400000Y-49305682D01*
X60408188Y-49304604D01*
X60548574Y-49286122D01*
X60556762Y-49285044D01*
X60702841Y-49224536D01*
X60828282Y-49128282D01*
X60849984Y-49100000D01*
X60910720Y-49020846D01*
X60924536Y-49002841D01*
X60985044Y-48856762D01*
X60992517Y-48800000D01*
X64494318Y-48800000D01*
X64496307Y-48815108D01*
X64512599Y-48938855D01*
X64514956Y-48956762D01*
X64575464Y-49102841D01*
X64671718Y-49228282D01*
X64797159Y-49324536D01*
X64943238Y-49385044D01*
X65100000Y-49405682D01*
X65108188Y-49404604D01*
X65121580Y-49402841D01*
X65256762Y-49385044D01*
X65402841Y-49324536D01*
X65528282Y-49228282D01*
X65624536Y-49102841D01*
X65669563Y-48994136D01*
X65714111Y-48938855D01*
X65781475Y-48916434D01*
X65850266Y-48933992D01*
X65898644Y-48985954D01*
X65910894Y-49025908D01*
X65914956Y-49056762D01*
X65975464Y-49202841D01*
X66071718Y-49328282D01*
X66197159Y-49424536D01*
X66343238Y-49485044D01*
X66500000Y-49505682D01*
X66508188Y-49504604D01*
X66518967Y-49503185D01*
X66656762Y-49485044D01*
X66802841Y-49424536D01*
X66928282Y-49328282D01*
X67024536Y-49202841D01*
X67085044Y-49056762D01*
X67105682Y-48900000D01*
X67087829Y-48764391D01*
X67086122Y-48751426D01*
X67085044Y-48743238D01*
X67024536Y-48597159D01*
X66952374Y-48503115D01*
X66933305Y-48478264D01*
X66928282Y-48471718D01*
X66802841Y-48375464D01*
X66656762Y-48314956D01*
X66500000Y-48294318D01*
X66343238Y-48314956D01*
X66197159Y-48375464D01*
X66071718Y-48471718D01*
X66066695Y-48478264D01*
X66047626Y-48503115D01*
X65975464Y-48597159D01*
X65933958Y-48697364D01*
X65930437Y-48705864D01*
X65885889Y-48761145D01*
X65818525Y-48783566D01*
X65749734Y-48766008D01*
X65701356Y-48714046D01*
X65689106Y-48674092D01*
X65686122Y-48651426D01*
X65685044Y-48643238D01*
X65624536Y-48497159D01*
X65528282Y-48371718D01*
X65402841Y-48275464D01*
X65256762Y-48214956D01*
X65100000Y-48194318D01*
X64943238Y-48214956D01*
X64797159Y-48275464D01*
X64671718Y-48371718D01*
X64575464Y-48497159D01*
X64514956Y-48643238D01*
X64494318Y-48800000D01*
X60992517Y-48800000D01*
X61005682Y-48700000D01*
X60985044Y-48543238D01*
X60924536Y-48397159D01*
X60828282Y-48271718D01*
X60702841Y-48175464D01*
X60556762Y-48114956D01*
X60400000Y-48094318D01*
X60243238Y-48114956D01*
X60235611Y-48118115D01*
X60235608Y-48118116D01*
X60171540Y-48144654D01*
X60100950Y-48152243D01*
X60037463Y-48120463D01*
X60001236Y-48059405D01*
X59998400Y-48044691D01*
X59994902Y-48018116D01*
X59985044Y-47943238D01*
X59924536Y-47797159D01*
X59828282Y-47671718D01*
X59702841Y-47575464D01*
X59556762Y-47514956D01*
X59538829Y-47512595D01*
X59408188Y-47495396D01*
X59400000Y-47494318D01*
X59391812Y-47495396D01*
X59261172Y-47512595D01*
X59243238Y-47514956D01*
X59097159Y-47575464D01*
X58971718Y-47671718D01*
X58875464Y-47797159D01*
X58814956Y-47943238D01*
X58794318Y-48100000D01*
X58134817Y-48100000D01*
X58109392Y-48080491D01*
X58102841Y-48075464D01*
X57956762Y-48014956D01*
X57800000Y-47994318D01*
X57643238Y-48014956D01*
X57635609Y-48018116D01*
X57509305Y-48070433D01*
X57438715Y-48078022D01*
X57375228Y-48046243D01*
X57339001Y-47985185D01*
X57335616Y-47965556D01*
X57334586Y-47954346D01*
X57334586Y-47954344D01*
X57334057Y-47948591D01*
X57318751Y-47894318D01*
X57280725Y-47759490D01*
X57279156Y-47753926D01*
X57189700Y-47572527D01*
X57171428Y-47548057D01*
X57072137Y-47415091D01*
X57072136Y-47415090D01*
X57068684Y-47410467D01*
X57064049Y-47406182D01*
X56924402Y-47277094D01*
X56924400Y-47277092D01*
X56920161Y-47273174D01*
X56892723Y-47255862D01*
X56753986Y-47168325D01*
X56749106Y-47165246D01*
X56561247Y-47090298D01*
X56362875Y-47050839D01*
X56357101Y-47050763D01*
X56357097Y-47050763D01*
X56254606Y-47049422D01*
X56160635Y-47048192D01*
X56154938Y-47049171D01*
X56154937Y-47049171D01*
X55966995Y-47081465D01*
X55966994Y-47081465D01*
X55961298Y-47082444D01*
X55771542Y-47152449D01*
X55766581Y-47155401D01*
X55766580Y-47155401D01*
X55634795Y-47233805D01*
X55597720Y-47255862D01*
X55445654Y-47389220D01*
X55320438Y-47548057D01*
X55226263Y-47727053D01*
X55166286Y-47920213D01*
X55142513Y-48121069D01*
X53847849Y-48121069D01*
X53847849Y-47305354D01*
X53844731Y-47279154D01*
X53836078Y-47259672D01*
X53804012Y-47187482D01*
X53799288Y-47176847D01*
X53774848Y-47152449D01*
X53759514Y-47137142D01*
X53720062Y-47097759D01*
X53709425Y-47093056D01*
X53709423Y-47093055D01*
X53640512Y-47062590D01*
X53617676Y-47052494D01*
X53591995Y-47049500D01*
X51902703Y-47049500D01*
X51898999Y-47049941D01*
X51898996Y-47049941D01*
X51892090Y-47050763D01*
X51876503Y-47052618D01*
X51867863Y-47056456D01*
X51867862Y-47056456D01*
X51785466Y-47093055D01*
X51774196Y-47098061D01*
X51765977Y-47106294D01*
X51765976Y-47106295D01*
X51759280Y-47113003D01*
X51695108Y-47177287D01*
X51690405Y-47187924D01*
X51690404Y-47187926D01*
X51675236Y-47222236D01*
X51649843Y-47279673D01*
X51646849Y-47305354D01*
X51646849Y-47423500D01*
X51626847Y-47491621D01*
X51573191Y-47538114D01*
X51520849Y-47549500D01*
X47950926Y-47549500D01*
X47882805Y-47529498D01*
X47861831Y-47512595D01*
X46748735Y-46399500D01*
X62894223Y-46399500D01*
X62914861Y-46556262D01*
X62975369Y-46702341D01*
X63071623Y-46827782D01*
X63078169Y-46832805D01*
X63107823Y-46855559D01*
X63197064Y-46924036D01*
X63343143Y-46984544D01*
X63351331Y-46985622D01*
X63358304Y-46986540D01*
X63499905Y-47005182D01*
X63508093Y-47004104D01*
X63648479Y-46985622D01*
X63656667Y-46984544D01*
X63802746Y-46924036D01*
X63891987Y-46855559D01*
X63921641Y-46832805D01*
X63928187Y-46827782D01*
X64024441Y-46702341D01*
X64084949Y-46556262D01*
X64105587Y-46399500D01*
X64092488Y-46300000D01*
X65894318Y-46300000D01*
X65895396Y-46308188D01*
X65908497Y-46407697D01*
X65914956Y-46456762D01*
X65975464Y-46602841D01*
X66071718Y-46728282D01*
X66197159Y-46824536D01*
X66343238Y-46885044D01*
X66500000Y-46905682D01*
X66508188Y-46904604D01*
X66648574Y-46886122D01*
X66656762Y-46885044D01*
X66802841Y-46824536D01*
X66928282Y-46728282D01*
X67024536Y-46602841D01*
X67085044Y-46456762D01*
X67091504Y-46407697D01*
X67104604Y-46308188D01*
X67105682Y-46300000D01*
X67085044Y-46143238D01*
X67024536Y-45997159D01*
X66956059Y-45907918D01*
X66949983Y-45900000D01*
X68594318Y-45900000D01*
X68614956Y-46056762D01*
X68675464Y-46202841D01*
X68680491Y-46209392D01*
X68750017Y-46300000D01*
X68771718Y-46328282D01*
X68897159Y-46424536D01*
X69043238Y-46485044D01*
X69200000Y-46505682D01*
X69208188Y-46504604D01*
X69212184Y-46504078D01*
X69356762Y-46485044D01*
X69502841Y-46424536D01*
X69628282Y-46328282D01*
X69649984Y-46300000D01*
X69719509Y-46209392D01*
X69724536Y-46202841D01*
X69785044Y-46056762D01*
X69805682Y-45900000D01*
X69785044Y-45743238D01*
X69724536Y-45597159D01*
X69628282Y-45471718D01*
X69502841Y-45375464D01*
X69356762Y-45314956D01*
X69331104Y-45311578D01*
X69208188Y-45295396D01*
X69200000Y-45294318D01*
X69191812Y-45295396D01*
X69068897Y-45311578D01*
X69043238Y-45314956D01*
X68897159Y-45375464D01*
X68771718Y-45471718D01*
X68675464Y-45597159D01*
X68614956Y-45743238D01*
X68594318Y-45900000D01*
X66949983Y-45900000D01*
X66933305Y-45878264D01*
X66928282Y-45871718D01*
X66802841Y-45775464D01*
X66656762Y-45714956D01*
X66500000Y-45694318D01*
X66343238Y-45714956D01*
X66197159Y-45775464D01*
X66071718Y-45871718D01*
X66066695Y-45878264D01*
X66043941Y-45907918D01*
X65975464Y-45997159D01*
X65914956Y-46143238D01*
X65894318Y-46300000D01*
X64092488Y-46300000D01*
X64084949Y-46242738D01*
X64024441Y-46096659D01*
X63928187Y-45971218D01*
X63802746Y-45874964D01*
X63656667Y-45814456D01*
X63499905Y-45793818D01*
X63343143Y-45814456D01*
X63197064Y-45874964D01*
X63071623Y-45971218D01*
X62975369Y-46096659D01*
X62914861Y-46242738D01*
X62894223Y-46399500D01*
X46748735Y-46399500D01*
X46337405Y-45988170D01*
X46303380Y-45925858D01*
X46300500Y-45899075D01*
X46300500Y-44800000D01*
X53094318Y-44800000D01*
X53114956Y-44956762D01*
X53175464Y-45102841D01*
X53271718Y-45228282D01*
X53397159Y-45324536D01*
X53543238Y-45385044D01*
X53700000Y-45405682D01*
X53708188Y-45404604D01*
X53848574Y-45386122D01*
X53856762Y-45385044D01*
X54002841Y-45324536D01*
X54128282Y-45228282D01*
X54224536Y-45102841D01*
X54285044Y-44956762D01*
X54305682Y-44800000D01*
X54285044Y-44643238D01*
X54224536Y-44497159D01*
X54155724Y-44407481D01*
X54133305Y-44378264D01*
X54128282Y-44371718D01*
X54002841Y-44275464D01*
X53856762Y-44214956D01*
X53700000Y-44194318D01*
X53543238Y-44214956D01*
X53397159Y-44275464D01*
X53271718Y-44371718D01*
X53266695Y-44378264D01*
X53244276Y-44407481D01*
X53175464Y-44497159D01*
X53114956Y-44643238D01*
X53094318Y-44800000D01*
X46300500Y-44800000D01*
X46300500Y-43773071D01*
X46320502Y-43704950D01*
X46374158Y-43658457D01*
X46444432Y-43648353D01*
X46474718Y-43656662D01*
X46543238Y-43685044D01*
X46700000Y-43705682D01*
X46708188Y-43704604D01*
X46721580Y-43702841D01*
X46856762Y-43685044D01*
X47002841Y-43624536D01*
X47128282Y-43528282D01*
X47224536Y-43402841D01*
X47225713Y-43400000D01*
X51794318Y-43400000D01*
X51814956Y-43556762D01*
X51875464Y-43702841D01*
X51971718Y-43828282D01*
X52097159Y-43924536D01*
X52243238Y-43985044D01*
X52400000Y-44005682D01*
X52408188Y-44004604D01*
X52421580Y-44002841D01*
X52556762Y-43985044D01*
X52702841Y-43924536D01*
X52734817Y-43900000D01*
X57194318Y-43900000D01*
X57214956Y-44056762D01*
X57275464Y-44202841D01*
X57301978Y-44237395D01*
X57350017Y-44300000D01*
X57371718Y-44328282D01*
X57497159Y-44424536D01*
X57643238Y-44485044D01*
X57800000Y-44505682D01*
X57808188Y-44504604D01*
X57948574Y-44486122D01*
X57956762Y-44485044D01*
X58102841Y-44424536D01*
X58228282Y-44328282D01*
X58249984Y-44300000D01*
X58298022Y-44237395D01*
X58324536Y-44202841D01*
X58379561Y-44070000D01*
X59089318Y-44070000D01*
X59109956Y-44226762D01*
X59170464Y-44372841D01*
X59175491Y-44379392D01*
X59260830Y-44490608D01*
X59266718Y-44498282D01*
X59392159Y-44594536D01*
X59538238Y-44655044D01*
X59695000Y-44675682D01*
X59703188Y-44674604D01*
X59843574Y-44656122D01*
X59851762Y-44655044D01*
X59997841Y-44594536D01*
X60123282Y-44498282D01*
X60129171Y-44490608D01*
X60214509Y-44379392D01*
X60219536Y-44372841D01*
X60280044Y-44226762D01*
X60300682Y-44070000D01*
X60280044Y-43913238D01*
X60274561Y-43900000D01*
X61494318Y-43900000D01*
X61514956Y-44056762D01*
X61575464Y-44202841D01*
X61601978Y-44237395D01*
X61650017Y-44300000D01*
X61671718Y-44328282D01*
X61797159Y-44424536D01*
X61943238Y-44485044D01*
X62100000Y-44505682D01*
X62108188Y-44504604D01*
X62248574Y-44486122D01*
X62256762Y-44485044D01*
X62402841Y-44424536D01*
X62528282Y-44328282D01*
X62549984Y-44300000D01*
X63594318Y-44300000D01*
X63614956Y-44456762D01*
X63618116Y-44464391D01*
X63620795Y-44470859D01*
X63675464Y-44602841D01*
X63771718Y-44728282D01*
X63897159Y-44824536D01*
X64043238Y-44885044D01*
X64200000Y-44905682D01*
X64208188Y-44904604D01*
X64348574Y-44886122D01*
X64356762Y-44885044D01*
X64502841Y-44824536D01*
X64628282Y-44728282D01*
X64724536Y-44602841D01*
X64779205Y-44470859D01*
X64781884Y-44464391D01*
X64785044Y-44456762D01*
X64805682Y-44300000D01*
X65294318Y-44300000D01*
X65314956Y-44456762D01*
X65318116Y-44464391D01*
X65320795Y-44470859D01*
X65375464Y-44602841D01*
X65471718Y-44728282D01*
X65597159Y-44824536D01*
X65743238Y-44885044D01*
X65900000Y-44905682D01*
X65908188Y-44904604D01*
X66048574Y-44886122D01*
X66056762Y-44885044D01*
X66202841Y-44824536D01*
X66328282Y-44728282D01*
X66424536Y-44602841D01*
X66433591Y-44580980D01*
X66478139Y-44525699D01*
X66545502Y-44503278D01*
X66614294Y-44520836D01*
X66662672Y-44572798D01*
X66666408Y-44580977D01*
X66675464Y-44602841D01*
X66771718Y-44728282D01*
X66897159Y-44824536D01*
X67043238Y-44885044D01*
X67200000Y-44905682D01*
X67208188Y-44904604D01*
X67348574Y-44886122D01*
X67356762Y-44885044D01*
X67502841Y-44824536D01*
X67628282Y-44728282D01*
X67724536Y-44602841D01*
X67779205Y-44470859D01*
X67781884Y-44464391D01*
X67785044Y-44456762D01*
X67805682Y-44300000D01*
X67785044Y-44143238D01*
X67724536Y-43997159D01*
X67654287Y-43905609D01*
X67633305Y-43878264D01*
X67628282Y-43871718D01*
X67502841Y-43775464D01*
X67356762Y-43714956D01*
X67243159Y-43700000D01*
X69694318Y-43700000D01*
X69714956Y-43856762D01*
X69775464Y-44002841D01*
X69871718Y-44128282D01*
X69997159Y-44224536D01*
X70143238Y-44285044D01*
X70151426Y-44286122D01*
X70194646Y-44291812D01*
X70300000Y-44305682D01*
X70308188Y-44304604D01*
X70310247Y-44304333D01*
X70405354Y-44291812D01*
X70448574Y-44286122D01*
X70456762Y-44285044D01*
X70602841Y-44224536D01*
X70728282Y-44128282D01*
X70824536Y-44002841D01*
X70885044Y-43856762D01*
X70905682Y-43700000D01*
X70885044Y-43543238D01*
X70824536Y-43397159D01*
X70728282Y-43271718D01*
X70602841Y-43175464D01*
X70456762Y-43114956D01*
X70300000Y-43094318D01*
X70143238Y-43114956D01*
X69997159Y-43175464D01*
X69871718Y-43271718D01*
X69775464Y-43397159D01*
X69714956Y-43543238D01*
X69694318Y-43700000D01*
X67243159Y-43700000D01*
X67200000Y-43694318D01*
X67043238Y-43714956D01*
X66897159Y-43775464D01*
X66771718Y-43871718D01*
X66766695Y-43878264D01*
X66745713Y-43905609D01*
X66675464Y-43997159D01*
X66672304Y-44004789D01*
X66666409Y-44019020D01*
X66621861Y-44074301D01*
X66554498Y-44096722D01*
X66485706Y-44079164D01*
X66437328Y-44027202D01*
X66433591Y-44019020D01*
X66427696Y-44004789D01*
X66424536Y-43997159D01*
X66354287Y-43905609D01*
X66333305Y-43878264D01*
X66328282Y-43871718D01*
X66202841Y-43775464D01*
X66056762Y-43714956D01*
X65900000Y-43694318D01*
X65743238Y-43714956D01*
X65597159Y-43775464D01*
X65471718Y-43871718D01*
X65466695Y-43878264D01*
X65445713Y-43905609D01*
X65375464Y-43997159D01*
X65314956Y-44143238D01*
X65294318Y-44300000D01*
X64805682Y-44300000D01*
X64785044Y-44143238D01*
X64724536Y-43997159D01*
X64654287Y-43905609D01*
X64633305Y-43878264D01*
X64628282Y-43871718D01*
X64502841Y-43775464D01*
X64356762Y-43714956D01*
X64200000Y-43694318D01*
X64043238Y-43714956D01*
X63897159Y-43775464D01*
X63771718Y-43871718D01*
X63766695Y-43878264D01*
X63745713Y-43905609D01*
X63675464Y-43997159D01*
X63614956Y-44143238D01*
X63594318Y-44300000D01*
X62549984Y-44300000D01*
X62598022Y-44237395D01*
X62624536Y-44202841D01*
X62685044Y-44056762D01*
X62705682Y-43900000D01*
X62685044Y-43743238D01*
X62624536Y-43597159D01*
X62528282Y-43471718D01*
X62402841Y-43375464D01*
X62256762Y-43314956D01*
X62100000Y-43294318D01*
X61943238Y-43314956D01*
X61797159Y-43375464D01*
X61671718Y-43471718D01*
X61575464Y-43597159D01*
X61514956Y-43743238D01*
X61494318Y-43900000D01*
X60274561Y-43900000D01*
X60219536Y-43767159D01*
X60133472Y-43654998D01*
X60128305Y-43648264D01*
X60123282Y-43641718D01*
X59997841Y-43545464D01*
X59851762Y-43484956D01*
X59695000Y-43464318D01*
X59538238Y-43484956D01*
X59392159Y-43545464D01*
X59266718Y-43641718D01*
X59261695Y-43648264D01*
X59256528Y-43654998D01*
X59170464Y-43767159D01*
X59109956Y-43913238D01*
X59089318Y-44070000D01*
X58379561Y-44070000D01*
X58385044Y-44056762D01*
X58405682Y-43900000D01*
X58385044Y-43743238D01*
X58324536Y-43597159D01*
X58228282Y-43471718D01*
X58102841Y-43375464D01*
X57956762Y-43314956D01*
X57800000Y-43294318D01*
X57643238Y-43314956D01*
X57497159Y-43375464D01*
X57371718Y-43471718D01*
X57275464Y-43597159D01*
X57214956Y-43743238D01*
X57194318Y-43900000D01*
X52734817Y-43900000D01*
X52828282Y-43828282D01*
X52924536Y-43702841D01*
X52985044Y-43556762D01*
X53005682Y-43400000D01*
X52985044Y-43243238D01*
X52924536Y-43097159D01*
X52828282Y-42971718D01*
X52702841Y-42875464D01*
X52556762Y-42814956D01*
X52400000Y-42794318D01*
X52243238Y-42814956D01*
X52097159Y-42875464D01*
X51971718Y-42971718D01*
X51875464Y-43097159D01*
X51814956Y-43243238D01*
X51794318Y-43400000D01*
X47225713Y-43400000D01*
X47285044Y-43256762D01*
X47305682Y-43100000D01*
X47285044Y-42943238D01*
X47224536Y-42797159D01*
X47128282Y-42671718D01*
X47034769Y-42599963D01*
X46992902Y-42542625D01*
X46988680Y-42471754D01*
X47023444Y-42409851D01*
X47034769Y-42400037D01*
X47121736Y-42333305D01*
X47128282Y-42328282D01*
X47224536Y-42202841D01*
X47285044Y-42056762D01*
X47305682Y-41900000D01*
X47291707Y-41793846D01*
X47286122Y-41751426D01*
X47285044Y-41743238D01*
X47224536Y-41597159D01*
X47128282Y-41471718D01*
X47002841Y-41375464D01*
X46980980Y-41366409D01*
X46925699Y-41321861D01*
X46903278Y-41254498D01*
X46920836Y-41185706D01*
X46972798Y-41137328D01*
X46980980Y-41133591D01*
X47002841Y-41124536D01*
X47128282Y-41028282D01*
X47224536Y-40902841D01*
X47285044Y-40756762D01*
X47305682Y-40600000D01*
X47285044Y-40443238D01*
X47224536Y-40297159D01*
X47128282Y-40171718D01*
X47099500Y-40149633D01*
X47034769Y-40099963D01*
X46992902Y-40042625D01*
X46988680Y-39971754D01*
X47023444Y-39909851D01*
X47034769Y-39900037D01*
X47121736Y-39833305D01*
X47128282Y-39828282D01*
X47224536Y-39702841D01*
X47285044Y-39556762D01*
X47305682Y-39400000D01*
X47292517Y-39300000D01*
X49294318Y-39300000D01*
X49314956Y-39456762D01*
X49375464Y-39602841D01*
X49409769Y-39647548D01*
X49450017Y-39700000D01*
X49471718Y-39728282D01*
X49597159Y-39824536D01*
X49743238Y-39885044D01*
X49900000Y-39905682D01*
X49908188Y-39904604D01*
X50048574Y-39886122D01*
X50056762Y-39885044D01*
X50202841Y-39824536D01*
X50328282Y-39728282D01*
X50349984Y-39700000D01*
X50390231Y-39647548D01*
X50424536Y-39602841D01*
X50485044Y-39456762D01*
X50505682Y-39300000D01*
X50485044Y-39143238D01*
X50424536Y-38997159D01*
X50328282Y-38871718D01*
X50202841Y-38775464D01*
X50056762Y-38714956D01*
X49900000Y-38694318D01*
X49743238Y-38714956D01*
X49597159Y-38775464D01*
X49471718Y-38871718D01*
X49375464Y-38997159D01*
X49314956Y-39143238D01*
X49294318Y-39300000D01*
X47292517Y-39300000D01*
X47285044Y-39243238D01*
X47224536Y-39097159D01*
X47150861Y-39001144D01*
X47133305Y-38978264D01*
X47128282Y-38971718D01*
X47002841Y-38875464D01*
X46856762Y-38814956D01*
X46700000Y-38794318D01*
X46543238Y-38814956D01*
X46397159Y-38875464D01*
X46271718Y-38971718D01*
X46266695Y-38978264D01*
X46249139Y-39001144D01*
X46175464Y-39097159D01*
X46114956Y-39243238D01*
X46101720Y-39343781D01*
X46099156Y-39363255D01*
X46070434Y-39428182D01*
X46011169Y-39467274D01*
X45940177Y-39468119D01*
X45885139Y-39435904D01*
X45358297Y-38909062D01*
X45347429Y-38896671D01*
X45333305Y-38878264D01*
X45328282Y-38871718D01*
X45202841Y-38775464D01*
X45056762Y-38714956D01*
X44900000Y-38694318D01*
X44743238Y-38714956D01*
X44597159Y-38775464D01*
X44471718Y-38871718D01*
X44375464Y-38997159D01*
X44314956Y-39143238D01*
X44294318Y-39300000D01*
X44314956Y-39456762D01*
X44375464Y-39602841D01*
X44409769Y-39647548D01*
X44450017Y-39700000D01*
X44471718Y-39728282D01*
X44478264Y-39733305D01*
X44496671Y-39747429D01*
X44509062Y-39758297D01*
X45062595Y-40311830D01*
X45096621Y-40374142D01*
X45099500Y-40400925D01*
X45099500Y-42572011D01*
X45079498Y-42640132D01*
X45025842Y-42686625D01*
X44955568Y-42696729D01*
X44910501Y-42681131D01*
X44909392Y-42680491D01*
X44902841Y-42675464D01*
X44756762Y-42614956D01*
X44600000Y-42594318D01*
X44443238Y-42614956D01*
X44297159Y-42675464D01*
X44171718Y-42771718D01*
X44075464Y-42897159D01*
X44014956Y-43043238D01*
X43994318Y-43200000D01*
X35990500Y-43200000D01*
X35990500Y-42285354D01*
X35987382Y-42259154D01*
X35941939Y-42156847D01*
X35933444Y-42148366D01*
X35870945Y-42085977D01*
X35862713Y-42077759D01*
X35852076Y-42073056D01*
X35852074Y-42073055D01*
X35792538Y-42046735D01*
X35760327Y-42032494D01*
X35734646Y-42029500D01*
X35022291Y-42029500D01*
X34954170Y-42009498D01*
X34907677Y-41955842D01*
X34897573Y-41885568D01*
X34927067Y-41820988D01*
X34986793Y-41782604D01*
X35004211Y-41778804D01*
X35104013Y-41764333D01*
X35104014Y-41764333D01*
X35109730Y-41763504D01*
X35188987Y-41736600D01*
X35304483Y-41697395D01*
X35304488Y-41697393D01*
X35309955Y-41695537D01*
X35314998Y-41692713D01*
X35489395Y-41595046D01*
X35489399Y-41595043D01*
X35494442Y-41592219D01*
X35657012Y-41457012D01*
X35792219Y-41294442D01*
X35795043Y-41289399D01*
X35795046Y-41289395D01*
X35892713Y-41114998D01*
X35892714Y-41114996D01*
X35895537Y-41109955D01*
X35897393Y-41104488D01*
X35897395Y-41104483D01*
X35961647Y-40915200D01*
X35963504Y-40909730D01*
X35965610Y-40895211D01*
X35993314Y-40704140D01*
X35993314Y-40704138D01*
X35993846Y-40700470D01*
X35995429Y-40640000D01*
X35976081Y-40429440D01*
X35960486Y-40374142D01*
X35947552Y-40328282D01*
X35918686Y-40225931D01*
X35907553Y-40203354D01*
X35827719Y-40041469D01*
X35825165Y-40036290D01*
X35729507Y-39908188D01*
X35702104Y-39871491D01*
X35702103Y-39871490D01*
X35698651Y-39866867D01*
X35576934Y-39754353D01*
X35547622Y-39727257D01*
X35547620Y-39727255D01*
X35543381Y-39723337D01*
X35437867Y-39656762D01*
X35369434Y-39613584D01*
X35369433Y-39613584D01*
X35364554Y-39610505D01*
X35168160Y-39532152D01*
X35162503Y-39531027D01*
X35162497Y-39531025D01*
X35006520Y-39500000D01*
X36794318Y-39500000D01*
X36814956Y-39656762D01*
X36875464Y-39802841D01*
X36880491Y-39809392D01*
X36950017Y-39900000D01*
X36971718Y-39928282D01*
X37097159Y-40024536D01*
X37243238Y-40085044D01*
X37400000Y-40105682D01*
X37408188Y-40104604D01*
X37548574Y-40086122D01*
X37556762Y-40085044D01*
X37702841Y-40024536D01*
X37828282Y-39928282D01*
X37849984Y-39900000D01*
X37919509Y-39809392D01*
X37924536Y-39802841D01*
X37985044Y-39656762D01*
X38005682Y-39500000D01*
X37985044Y-39343238D01*
X37924536Y-39197159D01*
X37828282Y-39071718D01*
X37702841Y-38975464D01*
X37575053Y-38922532D01*
X37564391Y-38918116D01*
X37556762Y-38914956D01*
X37511993Y-38909062D01*
X37408188Y-38895396D01*
X37400000Y-38894318D01*
X37391812Y-38895396D01*
X37288008Y-38909062D01*
X37243238Y-38914956D01*
X37235609Y-38918116D01*
X37224947Y-38922532D01*
X37097159Y-38975464D01*
X36971718Y-39071718D01*
X36875464Y-39197159D01*
X36814956Y-39343238D01*
X36794318Y-39500000D01*
X35006520Y-39500000D01*
X34965234Y-39491788D01*
X34902324Y-39458881D01*
X34867192Y-39397186D01*
X34870992Y-39326291D01*
X34912517Y-39268705D01*
X34971734Y-39243513D01*
X35104015Y-39224333D01*
X35104019Y-39224332D01*
X35109730Y-39223504D01*
X35206639Y-39190608D01*
X35304483Y-39157395D01*
X35304488Y-39157393D01*
X35309955Y-39155537D01*
X35317296Y-39151426D01*
X35489395Y-39055046D01*
X35489399Y-39055043D01*
X35494442Y-39052219D01*
X35657012Y-38917012D01*
X35792219Y-38754442D01*
X35795043Y-38749399D01*
X35795046Y-38749395D01*
X35892713Y-38574998D01*
X35892714Y-38574996D01*
X35895537Y-38569955D01*
X35897393Y-38564488D01*
X35897395Y-38564483D01*
X35961647Y-38375200D01*
X35963504Y-38369730D01*
X35972864Y-38305182D01*
X35993314Y-38164140D01*
X35993314Y-38164138D01*
X35993846Y-38160470D01*
X35995429Y-38100000D01*
X35976081Y-37889440D01*
X35968876Y-37863891D01*
X35923952Y-37704604D01*
X35918686Y-37685931D01*
X35907553Y-37663354D01*
X35827719Y-37501469D01*
X35825165Y-37496290D01*
X35698651Y-37326867D01*
X35543381Y-37183337D01*
X35411301Y-37100000D01*
X39694318Y-37100000D01*
X39714956Y-37256762D01*
X39775464Y-37402841D01*
X39871718Y-37528282D01*
X39997159Y-37624536D01*
X40143238Y-37685044D01*
X40300000Y-37705682D01*
X40308188Y-37704604D01*
X40346957Y-37699500D01*
X50193818Y-37699500D01*
X50214456Y-37856262D01*
X50274964Y-38002341D01*
X50371218Y-38127782D01*
X50496659Y-38224036D01*
X50642738Y-38284544D01*
X50799500Y-38305182D01*
X50807688Y-38304104D01*
X50948074Y-38285622D01*
X50956262Y-38284544D01*
X51102341Y-38224036D01*
X51227782Y-38127782D01*
X51324036Y-38002341D01*
X51384544Y-37856262D01*
X51405182Y-37699500D01*
X53894318Y-37699500D01*
X53914956Y-37856262D01*
X53975464Y-38002341D01*
X54071718Y-38127782D01*
X54197159Y-38224036D01*
X54343238Y-38284544D01*
X54500000Y-38305182D01*
X54508188Y-38304104D01*
X54648574Y-38285622D01*
X54656762Y-38284544D01*
X54802841Y-38224036D01*
X54809394Y-38219008D01*
X54809397Y-38219006D01*
X54873821Y-38169572D01*
X54940041Y-38143971D01*
X55009590Y-38158236D01*
X55060386Y-38207837D01*
X55076302Y-38277026D01*
X55066934Y-38317752D01*
X55014956Y-38443238D01*
X54994318Y-38600000D01*
X55014956Y-38756762D01*
X55075464Y-38902841D01*
X55171718Y-39028282D01*
X55297159Y-39124536D01*
X55373650Y-39156220D01*
X55428930Y-39200767D01*
X55451351Y-39268130D01*
X55433793Y-39336922D01*
X55396137Y-39374133D01*
X55397159Y-39375464D01*
X55288448Y-39458881D01*
X55271718Y-39471718D01*
X55266695Y-39478264D01*
X55243941Y-39507918D01*
X55175464Y-39597159D01*
X55114956Y-39743238D01*
X55094318Y-39900000D01*
X55114956Y-40056762D01*
X55175464Y-40202841D01*
X55271718Y-40328282D01*
X55397159Y-40424536D01*
X55543238Y-40485044D01*
X55700000Y-40505682D01*
X55708188Y-40504604D01*
X55848574Y-40486122D01*
X55856762Y-40485044D01*
X56002841Y-40424536D01*
X56128282Y-40328282D01*
X56224536Y-40202841D01*
X56285044Y-40056762D01*
X56305682Y-39900000D01*
X56285044Y-39743238D01*
X56267134Y-39700000D01*
X61494318Y-39700000D01*
X61514956Y-39856762D01*
X61575464Y-40002841D01*
X61580491Y-40009392D01*
X61650017Y-40100000D01*
X61671718Y-40128282D01*
X61797159Y-40224536D01*
X61943238Y-40285044D01*
X62100000Y-40305682D01*
X62108188Y-40304604D01*
X62248574Y-40286122D01*
X62256762Y-40285044D01*
X62402841Y-40224536D01*
X62528282Y-40128282D01*
X62549984Y-40100000D01*
X62619509Y-40009392D01*
X62624536Y-40002841D01*
X62685044Y-39856762D01*
X62705682Y-39700000D01*
X69294318Y-39700000D01*
X69314956Y-39856762D01*
X69375464Y-40002841D01*
X69380491Y-40009392D01*
X69450017Y-40100000D01*
X69471718Y-40128282D01*
X69597159Y-40224536D01*
X69743238Y-40285044D01*
X69900000Y-40305682D01*
X69908188Y-40304604D01*
X70048574Y-40286122D01*
X70056762Y-40285044D01*
X70202841Y-40224536D01*
X70328282Y-40128282D01*
X70349984Y-40100000D01*
X70419509Y-40009392D01*
X70424536Y-40002841D01*
X70485044Y-39856762D01*
X70505682Y-39700000D01*
X70485044Y-39543238D01*
X70424536Y-39397159D01*
X70353516Y-39304604D01*
X70333305Y-39278264D01*
X70328282Y-39271718D01*
X70202841Y-39175464D01*
X70056762Y-39114956D01*
X69900000Y-39094318D01*
X69743238Y-39114956D01*
X69597159Y-39175464D01*
X69471718Y-39271718D01*
X69466695Y-39278264D01*
X69446484Y-39304604D01*
X69375464Y-39397159D01*
X69314956Y-39543238D01*
X69294318Y-39700000D01*
X62705682Y-39700000D01*
X62685044Y-39543238D01*
X62624536Y-39397159D01*
X62553516Y-39304604D01*
X62533305Y-39278264D01*
X62528282Y-39271718D01*
X62402841Y-39175464D01*
X62256762Y-39114956D01*
X62100000Y-39094318D01*
X61943238Y-39114956D01*
X61797159Y-39175464D01*
X61671718Y-39271718D01*
X61666695Y-39278264D01*
X61646484Y-39304604D01*
X61575464Y-39397159D01*
X61514956Y-39543238D01*
X61494318Y-39700000D01*
X56267134Y-39700000D01*
X56224536Y-39597159D01*
X56156059Y-39507918D01*
X56133305Y-39478264D01*
X56128282Y-39471718D01*
X56111553Y-39458881D01*
X56034817Y-39400000D01*
X56002841Y-39375464D01*
X55926350Y-39343780D01*
X55871070Y-39299233D01*
X55848649Y-39231870D01*
X55866207Y-39163078D01*
X55903863Y-39125867D01*
X55902841Y-39124536D01*
X56021736Y-39033305D01*
X56028282Y-39028282D01*
X56124536Y-38902841D01*
X56185044Y-38756762D01*
X56192517Y-38700000D01*
X63194318Y-38700000D01*
X63195396Y-38708188D01*
X63213497Y-38845676D01*
X63214956Y-38856762D01*
X63275464Y-39002841D01*
X63371718Y-39128282D01*
X63497159Y-39224536D01*
X63643238Y-39285044D01*
X63800000Y-39305682D01*
X63808188Y-39304604D01*
X63948574Y-39286122D01*
X63956762Y-39285044D01*
X64102841Y-39224536D01*
X64228282Y-39128282D01*
X64324536Y-39002841D01*
X64385044Y-38856762D01*
X64386504Y-38845676D01*
X64404604Y-38708188D01*
X64405682Y-38700000D01*
X64385044Y-38543238D01*
X64324536Y-38397159D01*
X64242777Y-38290608D01*
X64233305Y-38278264D01*
X64228282Y-38271718D01*
X64102841Y-38175464D01*
X63956762Y-38114956D01*
X63800000Y-38094318D01*
X63643238Y-38114956D01*
X63497159Y-38175464D01*
X63371718Y-38271718D01*
X63366695Y-38278264D01*
X63357223Y-38290608D01*
X63275464Y-38397159D01*
X63214956Y-38543238D01*
X63194318Y-38700000D01*
X56192517Y-38700000D01*
X56205682Y-38600000D01*
X56185044Y-38443238D01*
X56124536Y-38297159D01*
X56028282Y-38171718D01*
X55902841Y-38075464D01*
X55756762Y-38014956D01*
X55600000Y-37994318D01*
X55443238Y-38014956D01*
X55297159Y-38075464D01*
X55290608Y-38080491D01*
X55290603Y-38080494D01*
X55226179Y-38129928D01*
X55159959Y-38155529D01*
X55090410Y-38141264D01*
X55039614Y-38091663D01*
X55023698Y-38022474D01*
X55033066Y-37981748D01*
X55081884Y-37863891D01*
X55085044Y-37856262D01*
X55105682Y-37699500D01*
X55085044Y-37542738D01*
X55024536Y-37396659D01*
X54928282Y-37271218D01*
X54802841Y-37174964D01*
X54656762Y-37114456D01*
X54500000Y-37093818D01*
X54343238Y-37114456D01*
X54197159Y-37174964D01*
X54071718Y-37271218D01*
X53975464Y-37396659D01*
X53914956Y-37542738D01*
X53894318Y-37699500D01*
X51405182Y-37699500D01*
X51384544Y-37542738D01*
X51324036Y-37396659D01*
X51227782Y-37271218D01*
X51102341Y-37174964D01*
X50956262Y-37114456D01*
X50799500Y-37093818D01*
X50642738Y-37114456D01*
X50496659Y-37174964D01*
X50371218Y-37271218D01*
X50274964Y-37396659D01*
X50214456Y-37542738D01*
X50193818Y-37699500D01*
X40346957Y-37699500D01*
X40448574Y-37686122D01*
X40456762Y-37685044D01*
X40602841Y-37624536D01*
X40728282Y-37528282D01*
X40824536Y-37402841D01*
X40885044Y-37256762D01*
X40905682Y-37100000D01*
X40885044Y-36943238D01*
X40824536Y-36797159D01*
X40728282Y-36671718D01*
X40602841Y-36575464D01*
X40456762Y-36514956D01*
X40300000Y-36494318D01*
X40143238Y-36514956D01*
X39997159Y-36575464D01*
X39871718Y-36671718D01*
X39775464Y-36797159D01*
X39714956Y-36943238D01*
X39694318Y-37100000D01*
X35411301Y-37100000D01*
X35364554Y-37070505D01*
X35168160Y-36992152D01*
X35162503Y-36991027D01*
X35162497Y-36991025D01*
X34966442Y-36952028D01*
X34966440Y-36952028D01*
X34960775Y-36950901D01*
X34955000Y-36950825D01*
X34954996Y-36950825D01*
X34848976Y-36949437D01*
X34749346Y-36948133D01*
X34743649Y-36949112D01*
X34743648Y-36949112D01*
X34546650Y-36982962D01*
X34546649Y-36982962D01*
X34540953Y-36983941D01*
X34342575Y-37057127D01*
X34337614Y-37060079D01*
X34337613Y-37060079D01*
X34284275Y-37091812D01*
X34160856Y-37165238D01*
X34001881Y-37304655D01*
X33870976Y-37470708D01*
X33868287Y-37475819D01*
X33868285Y-37475822D01*
X33854792Y-37501469D01*
X33772523Y-37657836D01*
X33709820Y-37859773D01*
X33709141Y-37865510D01*
X33695088Y-37984239D01*
X33667217Y-38049537D01*
X33608469Y-38089401D01*
X33537494Y-38091174D01*
X33476828Y-38054295D01*
X33445730Y-37990471D01*
X33444490Y-37980958D01*
X33436610Y-37895197D01*
X33436081Y-37889440D01*
X33428876Y-37863891D01*
X33383952Y-37704604D01*
X33378686Y-37685931D01*
X33367553Y-37663354D01*
X33287719Y-37501469D01*
X33285165Y-37496290D01*
X33158651Y-37326867D01*
X33154414Y-37322950D01*
X33154410Y-37322946D01*
X33140972Y-37310524D01*
X33104526Y-37249596D01*
X33100500Y-37217999D01*
X33100500Y-36626500D01*
X33120502Y-36558379D01*
X33174158Y-36511886D01*
X33226500Y-36500500D01*
X34990917Y-36500500D01*
X34992238Y-36500507D01*
X35081407Y-36501441D01*
X35123296Y-36492384D01*
X35135870Y-36490325D01*
X35150477Y-36488686D01*
X35171476Y-36486331D01*
X35171478Y-36486330D01*
X35178472Y-36485546D01*
X35209759Y-36474650D01*
X35224564Y-36470489D01*
X35250061Y-36464977D01*
X35250064Y-36464976D01*
X35256942Y-36463489D01*
X35295799Y-36445370D01*
X35307582Y-36440586D01*
X35348073Y-36426485D01*
X35376167Y-36408930D01*
X35389682Y-36401592D01*
X35419707Y-36387591D01*
X35453567Y-36361326D01*
X35464024Y-36354031D01*
X35494400Y-36335050D01*
X35494403Y-36335048D01*
X35500375Y-36331316D01*
X35517419Y-36314391D01*
X35528893Y-36302997D01*
X35529515Y-36302415D01*
X35530177Y-36301901D01*
X35556037Y-36276041D01*
X35627807Y-36204770D01*
X35628459Y-36203743D01*
X35629543Y-36202535D01*
X35682078Y-36150000D01*
X44619318Y-36150000D01*
X44639956Y-36306762D01*
X44700464Y-36452841D01*
X44796718Y-36578282D01*
X44922159Y-36674536D01*
X45068238Y-36735044D01*
X45225000Y-36755682D01*
X45233188Y-36754604D01*
X45373574Y-36736122D01*
X45381762Y-36735044D01*
X45527841Y-36674536D01*
X45653282Y-36578282D01*
X45749536Y-36452841D01*
X45810044Y-36306762D01*
X45817517Y-36250000D01*
X47719318Y-36250000D01*
X47739956Y-36406762D01*
X47800464Y-36552841D01*
X47896718Y-36678282D01*
X48022159Y-36774536D01*
X48168238Y-36835044D01*
X48325000Y-36855682D01*
X48333188Y-36854604D01*
X48473574Y-36836122D01*
X48481762Y-36835044D01*
X48627841Y-36774536D01*
X48753282Y-36678282D01*
X48849536Y-36552841D01*
X48910044Y-36406762D01*
X48910934Y-36400000D01*
X66694318Y-36400000D01*
X66714956Y-36556762D01*
X66775464Y-36702841D01*
X66871718Y-36828282D01*
X66997159Y-36924536D01*
X67143238Y-36985044D01*
X67300000Y-37005682D01*
X67308188Y-37004604D01*
X67448574Y-36986122D01*
X67456762Y-36985044D01*
X67602841Y-36924536D01*
X67728282Y-36828282D01*
X67824536Y-36702841D01*
X67885044Y-36556762D01*
X67905682Y-36400000D01*
X67890805Y-36287000D01*
X67886122Y-36251426D01*
X67885044Y-36243238D01*
X67824536Y-36097159D01*
X67728282Y-35971718D01*
X67602841Y-35875464D01*
X67456762Y-35814956D01*
X67300000Y-35794318D01*
X67143238Y-35814956D01*
X66997159Y-35875464D01*
X66871718Y-35971718D01*
X66775464Y-36097159D01*
X66714956Y-36243238D01*
X66713878Y-36251426D01*
X66709195Y-36287000D01*
X66694318Y-36400000D01*
X48910934Y-36400000D01*
X48930682Y-36250000D01*
X48910044Y-36093238D01*
X48849536Y-35947159D01*
X48772804Y-35847159D01*
X48758305Y-35828264D01*
X48753282Y-35821718D01*
X48627841Y-35725464D01*
X48481762Y-35664956D01*
X48325000Y-35644318D01*
X48168238Y-35664956D01*
X48022159Y-35725464D01*
X47896718Y-35821718D01*
X47891695Y-35828264D01*
X47877196Y-35847159D01*
X47800464Y-35947159D01*
X47739956Y-36093238D01*
X47719318Y-36250000D01*
X45817517Y-36250000D01*
X45830682Y-36150000D01*
X45810044Y-35993238D01*
X45749536Y-35847159D01*
X45653282Y-35721718D01*
X45527841Y-35625464D01*
X45381762Y-35564956D01*
X45225000Y-35544318D01*
X45068238Y-35564956D01*
X44922159Y-35625464D01*
X44796718Y-35721718D01*
X44700464Y-35847159D01*
X44639956Y-35993238D01*
X44619318Y-36150000D01*
X35682078Y-36150000D01*
X36959559Y-34872519D01*
X36960497Y-34871590D01*
X37024268Y-34809141D01*
X37025247Y-34810141D01*
X37077431Y-34774361D01*
X37148396Y-34772243D01*
X37164730Y-34777732D01*
X37242738Y-34810044D01*
X37250926Y-34811122D01*
X37304051Y-34818116D01*
X37399500Y-34830682D01*
X37407688Y-34829604D01*
X37548074Y-34811122D01*
X37556262Y-34810044D01*
X37580510Y-34800000D01*
X38719318Y-34800000D01*
X38739956Y-34956762D01*
X38800464Y-35102841D01*
X38896718Y-35228282D01*
X39022159Y-35324536D01*
X39168238Y-35385044D01*
X39325000Y-35405682D01*
X39333188Y-35404604D01*
X39368159Y-35400000D01*
X63994318Y-35400000D01*
X64014956Y-35556762D01*
X64075464Y-35702841D01*
X64171718Y-35828282D01*
X64297159Y-35924536D01*
X64443238Y-35985044D01*
X64600000Y-36005682D01*
X64608188Y-36004604D01*
X64748574Y-35986122D01*
X64756762Y-35985044D01*
X64902841Y-35924536D01*
X65028282Y-35828282D01*
X65124536Y-35702841D01*
X65185044Y-35556762D01*
X65189106Y-35525908D01*
X65217828Y-35460981D01*
X65277094Y-35421889D01*
X65348085Y-35421044D01*
X65408264Y-35458714D01*
X65430437Y-35494135D01*
X65475464Y-35602841D01*
X65571718Y-35728282D01*
X65697159Y-35824536D01*
X65843238Y-35885044D01*
X66000000Y-35905682D01*
X66008188Y-35904604D01*
X66148574Y-35886122D01*
X66156762Y-35885044D01*
X66302841Y-35824536D01*
X66428282Y-35728282D01*
X66524536Y-35602841D01*
X66585044Y-35456762D01*
X66605682Y-35300000D01*
X66585044Y-35143238D01*
X66524536Y-34997159D01*
X66428282Y-34871718D01*
X66302841Y-34775464D01*
X66156762Y-34714956D01*
X66000000Y-34694318D01*
X65843238Y-34714956D01*
X65697159Y-34775464D01*
X65571718Y-34871718D01*
X65475464Y-34997159D01*
X65414956Y-35143238D01*
X65413878Y-35151426D01*
X65410894Y-35174092D01*
X65382172Y-35239019D01*
X65322906Y-35278111D01*
X65251915Y-35278956D01*
X65191736Y-35241286D01*
X65169563Y-35205864D01*
X65164138Y-35192767D01*
X65124536Y-35097159D01*
X65047804Y-34997159D01*
X65033305Y-34978264D01*
X65028282Y-34971718D01*
X64902841Y-34875464D01*
X64756762Y-34814956D01*
X64719452Y-34810044D01*
X64608188Y-34795396D01*
X64600000Y-34794318D01*
X64591812Y-34795396D01*
X64480549Y-34810044D01*
X64443238Y-34814956D01*
X64297159Y-34875464D01*
X64171718Y-34971718D01*
X64166695Y-34978264D01*
X64152196Y-34997159D01*
X64075464Y-35097159D01*
X64014956Y-35243238D01*
X63994318Y-35400000D01*
X39368159Y-35400000D01*
X39473574Y-35386122D01*
X39481762Y-35385044D01*
X39627841Y-35324536D01*
X39753282Y-35228282D01*
X39849536Y-35102841D01*
X39910044Y-34956762D01*
X39930682Y-34800000D01*
X39910044Y-34643238D01*
X39849536Y-34497159D01*
X39753282Y-34371718D01*
X39627841Y-34275464D01*
X39506010Y-34225000D01*
X43394818Y-34225000D01*
X43415456Y-34381762D01*
X43475964Y-34527841D01*
X43572218Y-34653282D01*
X43697659Y-34749536D01*
X43843738Y-34810044D01*
X43851926Y-34811122D01*
X43905051Y-34818116D01*
X44000500Y-34830682D01*
X44008688Y-34829604D01*
X44149074Y-34811122D01*
X44157262Y-34810044D01*
X44303341Y-34749536D01*
X44428782Y-34653282D01*
X44525036Y-34527841D01*
X44585544Y-34381762D01*
X44606182Y-34225000D01*
X45369318Y-34225000D01*
X45389956Y-34381762D01*
X45450464Y-34527841D01*
X45546718Y-34653282D01*
X45672159Y-34749536D01*
X45818238Y-34810044D01*
X45826426Y-34811122D01*
X45879551Y-34818116D01*
X45975000Y-34830682D01*
X45983188Y-34829604D01*
X46123574Y-34811122D01*
X46131762Y-34810044D01*
X46277841Y-34749536D01*
X46403282Y-34653282D01*
X46499536Y-34527841D01*
X46560044Y-34381762D01*
X46580682Y-34225000D01*
X46560044Y-34068238D01*
X46499536Y-33922159D01*
X46403282Y-33796718D01*
X46277841Y-33700464D01*
X46131762Y-33639956D01*
X45975000Y-33619318D01*
X45818238Y-33639956D01*
X45672159Y-33700464D01*
X45546718Y-33796718D01*
X45450464Y-33922159D01*
X45389956Y-34068238D01*
X45369318Y-34225000D01*
X44606182Y-34225000D01*
X44585544Y-34068238D01*
X44525036Y-33922159D01*
X44428782Y-33796718D01*
X44303341Y-33700464D01*
X44157262Y-33639956D01*
X44000500Y-33619318D01*
X43843738Y-33639956D01*
X43697659Y-33700464D01*
X43572218Y-33796718D01*
X43475964Y-33922159D01*
X43415456Y-34068238D01*
X43394818Y-34225000D01*
X39506010Y-34225000D01*
X39481762Y-34214956D01*
X39325000Y-34194318D01*
X39168238Y-34214956D01*
X39022159Y-34275464D01*
X38896718Y-34371718D01*
X38800464Y-34497159D01*
X38739956Y-34643238D01*
X38719318Y-34800000D01*
X37580510Y-34800000D01*
X37702341Y-34749536D01*
X37827782Y-34653282D01*
X37924036Y-34527841D01*
X37984544Y-34381762D01*
X38005182Y-34225000D01*
X37984544Y-34068238D01*
X37924036Y-33922159D01*
X37827782Y-33796718D01*
X37702341Y-33700464D01*
X37556262Y-33639956D01*
X37399500Y-33619318D01*
X37391312Y-33620396D01*
X37391310Y-33620396D01*
X37342945Y-33626763D01*
X37272797Y-33615823D01*
X37219698Y-33568695D01*
X37200500Y-33501841D01*
X37200500Y-33125000D01*
X39644318Y-33125000D01*
X39664956Y-33281762D01*
X39725464Y-33427841D01*
X39821718Y-33553282D01*
X39947159Y-33649536D01*
X40093238Y-33710044D01*
X40250000Y-33730682D01*
X40258188Y-33729604D01*
X40398574Y-33711122D01*
X40406762Y-33710044D01*
X40552841Y-33649536D01*
X40664587Y-33563791D01*
X40730806Y-33538191D01*
X40800355Y-33552456D01*
X40817994Y-33563791D01*
X40897159Y-33624536D01*
X41043238Y-33685044D01*
X41200000Y-33705682D01*
X41208188Y-33704604D01*
X41348574Y-33686122D01*
X41356762Y-33685044D01*
X41502841Y-33624536D01*
X41628282Y-33528282D01*
X41724536Y-33402841D01*
X41785044Y-33256762D01*
X41805682Y-33100000D01*
X41785044Y-32943238D01*
X41724536Y-32797159D01*
X41628282Y-32671718D01*
X41621736Y-32666695D01*
X41621733Y-32666692D01*
X41582216Y-32636370D01*
X41540348Y-32579032D01*
X41536126Y-32508161D01*
X41570890Y-32446258D01*
X41595585Y-32427541D01*
X41602841Y-32424536D01*
X41728282Y-32328282D01*
X41824536Y-32202841D01*
X41885044Y-32056762D01*
X41905682Y-31900000D01*
X41885044Y-31743238D01*
X41824536Y-31597159D01*
X41728282Y-31471718D01*
X41721736Y-31466695D01*
X41721733Y-31466692D01*
X41699931Y-31449963D01*
X41658063Y-31392625D01*
X41653841Y-31321754D01*
X41688605Y-31259851D01*
X41699931Y-31250037D01*
X41721733Y-31233308D01*
X41721736Y-31233305D01*
X41728282Y-31228282D01*
X41824536Y-31102841D01*
X41885044Y-30956762D01*
X41905682Y-30800000D01*
X41885044Y-30643238D01*
X41824536Y-30497159D01*
X41728282Y-30371718D01*
X41602841Y-30275464D01*
X41456762Y-30214956D01*
X41300000Y-30194318D01*
X41143238Y-30214956D01*
X40997159Y-30275464D01*
X40871718Y-30371718D01*
X40775464Y-30497159D01*
X40714956Y-30643238D01*
X40694318Y-30800000D01*
X40714956Y-30956762D01*
X40775464Y-31102841D01*
X40871718Y-31228282D01*
X40878264Y-31233305D01*
X40878267Y-31233308D01*
X40900069Y-31250037D01*
X40941937Y-31307375D01*
X40946159Y-31378246D01*
X40911395Y-31440149D01*
X40900069Y-31449963D01*
X40878267Y-31466692D01*
X40878264Y-31466695D01*
X40871718Y-31471718D01*
X40775464Y-31597159D01*
X40714956Y-31743238D01*
X40694318Y-31900000D01*
X40714956Y-32056762D01*
X40775464Y-32202841D01*
X40871718Y-32328282D01*
X40878264Y-32333305D01*
X40878267Y-32333308D01*
X40917784Y-32363630D01*
X40959652Y-32420968D01*
X40963874Y-32491839D01*
X40929110Y-32553742D01*
X40904415Y-32572459D01*
X40897159Y-32575464D01*
X40817785Y-32636370D01*
X40785414Y-32661209D01*
X40719194Y-32686809D01*
X40649645Y-32672544D01*
X40632006Y-32661209D01*
X40559392Y-32605491D01*
X40552841Y-32600464D01*
X40406762Y-32539956D01*
X40382570Y-32536771D01*
X40328381Y-32529637D01*
X40250000Y-32519318D01*
X40171619Y-32529637D01*
X40117431Y-32536771D01*
X40093238Y-32539956D01*
X39947159Y-32600464D01*
X39821718Y-32696718D01*
X39725464Y-32822159D01*
X39664956Y-32968238D01*
X39644318Y-33125000D01*
X37200500Y-33125000D01*
X37200500Y-27500000D01*
X53594318Y-27500000D01*
X53614956Y-27656762D01*
X53675464Y-27802841D01*
X53771718Y-27928282D01*
X53897159Y-28024536D01*
X54043238Y-28085044D01*
X54051426Y-28086122D01*
X54073188Y-28088987D01*
X54200000Y-28105682D01*
X54208188Y-28104604D01*
X54356762Y-28085044D01*
X54357100Y-28087608D01*
X54415149Y-28088987D01*
X54473947Y-28128778D01*
X54501898Y-28194041D01*
X54490128Y-28264055D01*
X54453494Y-28308968D01*
X54378268Y-28366691D01*
X54378264Y-28366695D01*
X54371718Y-28371718D01*
X54275464Y-28497159D01*
X54214956Y-28643238D01*
X54194318Y-28800000D01*
X54214956Y-28956762D01*
X54275464Y-29102841D01*
X54371718Y-29228282D01*
X54497159Y-29324536D01*
X54643238Y-29385044D01*
X54800000Y-29405682D01*
X54808188Y-29404604D01*
X54948574Y-29386122D01*
X54956762Y-29385044D01*
X55102841Y-29324536D01*
X55228282Y-29228282D01*
X55324536Y-29102841D01*
X55385044Y-28956762D01*
X55392517Y-28900000D01*
X61794318Y-28900000D01*
X61814956Y-29056762D01*
X61875464Y-29202841D01*
X61971718Y-29328282D01*
X62097159Y-29424536D01*
X62243238Y-29485044D01*
X62400000Y-29505682D01*
X62408188Y-29504604D01*
X62548574Y-29486122D01*
X62556762Y-29485044D01*
X62702841Y-29424536D01*
X62828282Y-29328282D01*
X62924536Y-29202841D01*
X62985044Y-29056762D01*
X62992517Y-29000000D01*
X69894318Y-29000000D01*
X69914956Y-29156762D01*
X69975464Y-29302841D01*
X70071718Y-29428282D01*
X70197159Y-29524536D01*
X70343238Y-29585044D01*
X70500000Y-29605682D01*
X70508188Y-29604604D01*
X70648574Y-29586122D01*
X70656762Y-29585044D01*
X70802841Y-29524536D01*
X70928282Y-29428282D01*
X71024536Y-29302841D01*
X71085044Y-29156762D01*
X71105682Y-29000000D01*
X71085044Y-28843238D01*
X71024536Y-28697159D01*
X70928282Y-28571718D01*
X70802841Y-28475464D01*
X70656762Y-28414956D01*
X70500000Y-28394318D01*
X70343238Y-28414956D01*
X70197159Y-28475464D01*
X70071718Y-28571718D01*
X69975464Y-28697159D01*
X69914956Y-28843238D01*
X69894318Y-29000000D01*
X62992517Y-29000000D01*
X63005682Y-28900000D01*
X62985044Y-28743238D01*
X62924536Y-28597159D01*
X62828282Y-28471718D01*
X62702841Y-28375464D01*
X62556762Y-28314956D01*
X62511279Y-28308968D01*
X62408188Y-28295396D01*
X62400000Y-28294318D01*
X62391812Y-28295396D01*
X62288722Y-28308968D01*
X62243238Y-28314956D01*
X62097159Y-28375464D01*
X61971718Y-28471718D01*
X61875464Y-28597159D01*
X61814956Y-28743238D01*
X61794318Y-28900000D01*
X55392517Y-28900000D01*
X55405682Y-28800000D01*
X55385044Y-28643238D01*
X55324536Y-28497159D01*
X55228282Y-28371718D01*
X55102841Y-28275464D01*
X54956762Y-28214956D01*
X54937287Y-28212392D01*
X54808188Y-28195396D01*
X54800000Y-28194318D01*
X54643238Y-28214956D01*
X54642900Y-28212392D01*
X54584851Y-28211013D01*
X54526053Y-28171222D01*
X54498102Y-28105959D01*
X54509872Y-28035945D01*
X54546506Y-27991032D01*
X54621732Y-27933309D01*
X54621736Y-27933305D01*
X54628282Y-27928282D01*
X54724536Y-27802841D01*
X54785044Y-27656762D01*
X54805682Y-27500000D01*
X54785044Y-27343238D01*
X54724536Y-27197159D01*
X54628282Y-27071718D01*
X54502841Y-26975464D01*
X54356762Y-26914956D01*
X54200000Y-26894318D01*
X54043238Y-26914956D01*
X53897159Y-26975464D01*
X53771718Y-27071718D01*
X53675464Y-27197159D01*
X53614956Y-27343238D01*
X53594318Y-27500000D01*
X37200500Y-27500000D01*
X37200500Y-26600000D01*
X69694318Y-26600000D01*
X69695396Y-26608188D01*
X69712092Y-26735004D01*
X69714956Y-26756762D01*
X69775464Y-26902841D01*
X69871718Y-27028282D01*
X69997159Y-27124536D01*
X70143238Y-27185044D01*
X70300000Y-27205682D01*
X70308188Y-27204604D01*
X70448574Y-27186122D01*
X70456762Y-27185044D01*
X70602841Y-27124536D01*
X70728282Y-27028282D01*
X70824536Y-26902841D01*
X70885044Y-26756762D01*
X70887909Y-26735004D01*
X70904604Y-26608188D01*
X70905682Y-26600000D01*
X70885044Y-26443238D01*
X70878951Y-26428527D01*
X70858204Y-26378441D01*
X70824536Y-26297159D01*
X70728282Y-26171718D01*
X70709589Y-26157374D01*
X70622904Y-26090859D01*
X70602841Y-26075464D01*
X70456762Y-26014956D01*
X70300000Y-25994318D01*
X70143238Y-26014956D01*
X69997159Y-26075464D01*
X69977096Y-26090859D01*
X69890412Y-26157374D01*
X69871718Y-26171718D01*
X69775464Y-26297159D01*
X69741796Y-26378441D01*
X69721050Y-26428527D01*
X69714956Y-26443238D01*
X69694318Y-26600000D01*
X37200500Y-26600000D01*
X37200500Y-26554845D01*
X37185546Y-26421528D01*
X37126485Y-26251927D01*
X37116334Y-26235681D01*
X37035049Y-26105599D01*
X37031316Y-26099625D01*
X36946165Y-26013878D01*
X36909733Y-25977190D01*
X36909729Y-25977187D01*
X36904770Y-25972193D01*
X36893761Y-25965206D01*
X36827188Y-25922958D01*
X36753136Y-25875963D01*
X36677682Y-25849095D01*
X36590586Y-25818081D01*
X36590581Y-25818080D01*
X36583951Y-25815719D01*
X36576965Y-25814886D01*
X36576961Y-25814885D01*
X36449177Y-25799648D01*
X36405624Y-25794455D01*
X36398621Y-25795191D01*
X36398620Y-25795191D01*
X36234025Y-25812490D01*
X36234021Y-25812491D01*
X36227017Y-25813227D01*
X36220346Y-25815498D01*
X36063677Y-25868832D01*
X36063674Y-25868833D01*
X36057007Y-25871103D01*
X36051009Y-25874793D01*
X36051007Y-25874794D01*
X36017820Y-25895211D01*
X35904045Y-25965206D01*
X35899014Y-25970132D01*
X35899011Y-25970135D01*
X35853242Y-26014956D01*
X35775732Y-26090859D01*
X35771913Y-26096784D01*
X35771912Y-26096786D01*
X35682400Y-26235681D01*
X35678446Y-26241817D01*
X35676037Y-26248437D01*
X35676035Y-26248440D01*
X35628719Y-26378441D01*
X35617022Y-26410578D01*
X35599500Y-26549283D01*
X35599500Y-32841553D01*
X35579498Y-32909674D01*
X35525842Y-32956167D01*
X35455568Y-32966271D01*
X35390988Y-32936777D01*
X35366182Y-32907575D01*
X35318485Y-32830045D01*
X35314794Y-32824045D01*
X35309868Y-32819014D01*
X35309865Y-32819011D01*
X35249024Y-32756883D01*
X35189141Y-32695732D01*
X35175296Y-32686809D01*
X35044109Y-32602265D01*
X35038183Y-32598446D01*
X35031563Y-32596037D01*
X35031560Y-32596035D01*
X34876039Y-32539430D01*
X34876036Y-32539429D01*
X34869422Y-32537022D01*
X34812692Y-32529856D01*
X34734645Y-32519996D01*
X34734642Y-32519996D01*
X34730717Y-32519500D01*
X34158792Y-32519500D01*
X34090671Y-32499498D01*
X34044178Y-32445842D01*
X34034074Y-32375568D01*
X34061707Y-32313185D01*
X34127270Y-32233932D01*
X34132324Y-32227823D01*
X34199614Y-32084826D01*
X34203512Y-32064391D01*
X34227742Y-31937374D01*
X34227742Y-31937372D01*
X34229227Y-31929588D01*
X34219304Y-31771862D01*
X34207525Y-31735609D01*
X34172916Y-31629095D01*
X34172915Y-31629092D01*
X34170467Y-31621559D01*
X34085786Y-31488123D01*
X34075288Y-31478264D01*
X33976358Y-31385362D01*
X33970582Y-31379938D01*
X33832092Y-31303803D01*
X33679019Y-31264500D01*
X33560650Y-31264500D01*
X33556725Y-31264996D01*
X33556722Y-31264996D01*
X33451067Y-31278343D01*
X33451065Y-31278343D01*
X33443208Y-31279336D01*
X33435840Y-31282253D01*
X33435841Y-31282253D01*
X33303637Y-31334596D01*
X33303634Y-31334597D01*
X33296268Y-31337514D01*
X33168413Y-31430406D01*
X33163360Y-31436514D01*
X33072729Y-31546068D01*
X33072726Y-31546072D01*
X33067676Y-31552177D01*
X33000386Y-31695174D01*
X32970773Y-31850412D01*
X32980696Y-32008138D01*
X32983147Y-32015681D01*
X33003085Y-32077042D01*
X33029533Y-32158441D01*
X33114214Y-32291877D01*
X33119993Y-32297304D01*
X33119994Y-32297305D01*
X33229418Y-32400062D01*
X33228511Y-32401028D01*
X33266864Y-32450765D01*
X33272938Y-32521501D01*
X33239805Y-32584292D01*
X33216218Y-32603331D01*
X33106776Y-32671718D01*
X33079625Y-32688684D01*
X33022812Y-32745102D01*
X32957190Y-32810267D01*
X32957187Y-32810271D01*
X32952193Y-32815230D01*
X32948419Y-32821176D01*
X32948418Y-32821178D01*
X32942791Y-32830045D01*
X32855963Y-32966864D01*
X32853598Y-32973506D01*
X32798081Y-33129414D01*
X32798080Y-33129419D01*
X32795719Y-33136049D01*
X32794886Y-33143035D01*
X32794885Y-33143039D01*
X32782301Y-33248574D01*
X32774455Y-33314376D01*
X32775191Y-33321379D01*
X32775191Y-33321380D01*
X32791852Y-33479898D01*
X32793227Y-33492983D01*
X32795498Y-33499654D01*
X32847598Y-33652696D01*
X32851103Y-33662993D01*
X32854793Y-33668991D01*
X32854794Y-33668993D01*
X32864669Y-33685044D01*
X32945206Y-33815955D01*
X32950132Y-33820986D01*
X32950135Y-33820989D01*
X32953838Y-33824770D01*
X33070859Y-33944268D01*
X33076784Y-33948087D01*
X33076786Y-33948088D01*
X33165604Y-34005327D01*
X33221817Y-34041554D01*
X33228437Y-34043963D01*
X33228440Y-34043965D01*
X33383961Y-34100570D01*
X33383964Y-34100571D01*
X33390578Y-34102978D01*
X33417121Y-34106331D01*
X33525355Y-34120004D01*
X33525358Y-34120004D01*
X33529283Y-34120500D01*
X34725155Y-34120500D01*
X34858472Y-34105546D01*
X34865847Y-34102978D01*
X34942094Y-34076426D01*
X35028073Y-34046485D01*
X35035965Y-34041554D01*
X35174401Y-33955049D01*
X35180375Y-33951316D01*
X35244365Y-33887771D01*
X35302810Y-33829733D01*
X35302813Y-33829729D01*
X35307807Y-33824770D01*
X35325610Y-33796718D01*
X35367115Y-33731316D01*
X35420504Y-33684517D01*
X35490719Y-33674012D01*
X35555467Y-33703136D01*
X35594191Y-33762642D01*
X35599500Y-33798830D01*
X35599500Y-33916232D01*
X35579498Y-33984353D01*
X35562595Y-34005327D01*
X34705327Y-34862595D01*
X34643015Y-34896621D01*
X34616232Y-34899500D01*
X32809083Y-34899500D01*
X32807763Y-34899493D01*
X32806758Y-34899482D01*
X32718593Y-34898559D01*
X32711711Y-34900047D01*
X32711710Y-34900047D01*
X32676698Y-34907616D01*
X32664120Y-34909676D01*
X32628522Y-34913669D01*
X32628518Y-34913670D01*
X32621528Y-34914454D01*
X32614879Y-34916769D01*
X32614876Y-34916770D01*
X32590247Y-34925346D01*
X32575440Y-34929508D01*
X32543058Y-34936510D01*
X32504206Y-34954627D01*
X32492406Y-34959419D01*
X32451927Y-34973515D01*
X32431159Y-34986493D01*
X32423838Y-34991067D01*
X32410318Y-34998408D01*
X32380293Y-35012409D01*
X32374728Y-35016726D01*
X32374726Y-35016727D01*
X32346432Y-35038675D01*
X32335986Y-35045963D01*
X32299625Y-35068684D01*
X32271087Y-35097024D01*
X32270488Y-35097584D01*
X32269824Y-35098099D01*
X32244101Y-35123822D01*
X32172193Y-35195230D01*
X32171540Y-35196259D01*
X32170458Y-35197465D01*
X31740396Y-35627526D01*
X31739546Y-35628368D01*
X31675732Y-35690859D01*
X31671917Y-35696779D01*
X31671912Y-35696785D01*
X31652510Y-35726891D01*
X31645070Y-35737245D01*
X31618336Y-35770734D01*
X31615269Y-35777079D01*
X31603918Y-35800559D01*
X31596389Y-35813974D01*
X31578446Y-35841817D01*
X31563863Y-35881884D01*
X31563788Y-35882089D01*
X31558828Y-35893831D01*
X31540173Y-35932422D01*
X31538590Y-35939277D01*
X31538589Y-35939281D01*
X31532722Y-35964696D01*
X31528352Y-35979446D01*
X31519432Y-36003955D01*
X31519431Y-36003959D01*
X31517022Y-36010578D01*
X31511648Y-36053118D01*
X31509418Y-36065637D01*
X31499774Y-36107411D01*
X31499749Y-36114452D01*
X31499749Y-36114455D01*
X31499633Y-36147582D01*
X31499604Y-36148455D01*
X31499500Y-36149283D01*
X31499500Y-36185738D01*
X31499499Y-36186178D01*
X31499248Y-36258188D01*
X31499147Y-36287000D01*
X31499413Y-36288188D01*
X31499500Y-36289800D01*
X31499500Y-37215511D01*
X31479498Y-37283632D01*
X31465484Y-37301495D01*
X31461881Y-37304655D01*
X31458314Y-37309180D01*
X31458310Y-37309184D01*
X31390493Y-37395211D01*
X31330976Y-37470708D01*
X31328287Y-37475819D01*
X31328285Y-37475822D01*
X31314792Y-37501469D01*
X31232523Y-37657836D01*
X31169820Y-37859773D01*
X31144967Y-38069754D01*
X31158796Y-38280749D01*
X31160217Y-38286345D01*
X31160218Y-38286350D01*
X31198126Y-38435609D01*
X31210845Y-38485690D01*
X31299369Y-38677714D01*
X31421405Y-38850391D01*
X31466497Y-38894318D01*
X31565342Y-38990608D01*
X31572865Y-38997937D01*
X31577661Y-39001142D01*
X31577664Y-39001144D01*
X31675768Y-39066695D01*
X31748677Y-39115411D01*
X31753985Y-39117692D01*
X31753986Y-39117692D01*
X31937650Y-39196600D01*
X31937653Y-39196601D01*
X31942953Y-39198878D01*
X31948582Y-39200152D01*
X31948583Y-39200152D01*
X32143550Y-39244269D01*
X32143553Y-39244269D01*
X32149186Y-39245544D01*
X32154958Y-39245771D01*
X32160687Y-39246525D01*
X32160327Y-39249257D01*
X32216604Y-39268216D01*
X32260950Y-39323659D01*
X32268282Y-39394276D01*
X32236271Y-39457647D01*
X32175081Y-39493651D01*
X32165704Y-39495632D01*
X32006650Y-39522962D01*
X32006649Y-39522962D01*
X32000953Y-39523941D01*
X31802575Y-39597127D01*
X31797614Y-39600079D01*
X31797613Y-39600079D01*
X31717825Y-39647548D01*
X31620856Y-39705238D01*
X31461881Y-39844655D01*
X31330976Y-40010708D01*
X31328287Y-40015819D01*
X31328285Y-40015822D01*
X31306746Y-40056762D01*
X31232523Y-40197836D01*
X31169820Y-40399773D01*
X31144967Y-40609754D01*
X31158796Y-40820749D01*
X31160217Y-40826345D01*
X31160218Y-40826350D01*
X31182784Y-40915200D01*
X31210845Y-41025690D01*
X31299369Y-41217714D01*
X31421405Y-41390391D01*
X31572865Y-41537937D01*
X31577661Y-41541142D01*
X31577664Y-41541144D01*
X31661497Y-41597159D01*
X31748677Y-41655411D01*
X31753985Y-41657692D01*
X31753986Y-41657692D01*
X31937650Y-41736600D01*
X31937653Y-41736601D01*
X31942953Y-41738878D01*
X31948582Y-41740152D01*
X31948583Y-41740152D01*
X32143550Y-41784269D01*
X32143553Y-41784269D01*
X32149186Y-41785544D01*
X32154958Y-41785771D01*
X32160687Y-41786525D01*
X32160327Y-41789257D01*
X32216604Y-41808216D01*
X32260950Y-41863659D01*
X32268282Y-41934276D01*
X32236271Y-41997647D01*
X32175081Y-42033651D01*
X32165705Y-42035632D01*
X32125076Y-42042613D01*
X32006650Y-42062962D01*
X32006649Y-42062962D01*
X32000953Y-42063941D01*
X31802575Y-42137127D01*
X31797614Y-42140079D01*
X31797613Y-42140079D01*
X31751553Y-42167482D01*
X31620856Y-42245238D01*
X31461881Y-42384655D01*
X31330976Y-42550708D01*
X31328287Y-42555819D01*
X31328285Y-42555822D01*
X31297173Y-42614956D01*
X31232523Y-42737836D01*
X31169820Y-42939773D01*
X31144967Y-43149754D01*
X31145248Y-43154048D01*
X31123616Y-43221166D01*
X31108533Y-43239389D01*
X29940441Y-44407481D01*
X29939503Y-44408410D01*
X29875732Y-44470859D01*
X29871917Y-44476779D01*
X29871912Y-44476785D01*
X29852510Y-44506891D01*
X29845070Y-44517245D01*
X29838321Y-44525699D01*
X29818336Y-44550734D01*
X29815269Y-44557079D01*
X29803918Y-44580559D01*
X29796389Y-44593974D01*
X29778446Y-44621817D01*
X29776036Y-44628437D01*
X29776036Y-44628438D01*
X29763788Y-44662089D01*
X29758828Y-44673831D01*
X29757933Y-44675682D01*
X29740173Y-44712422D01*
X29738590Y-44719277D01*
X29738589Y-44719281D01*
X29732722Y-44744696D01*
X29728352Y-44759446D01*
X29719432Y-44783955D01*
X29719431Y-44783959D01*
X29717022Y-44790578D01*
X29711648Y-44833118D01*
X29709418Y-44845637D01*
X29699774Y-44887411D01*
X29699749Y-44894452D01*
X29699749Y-44894455D01*
X29699633Y-44927582D01*
X29699604Y-44928455D01*
X29699500Y-44929283D01*
X29699500Y-44965892D01*
X29699147Y-45067000D01*
X29699413Y-45068188D01*
X29699500Y-45069800D01*
X29699500Y-53090112D01*
X29679498Y-53158233D01*
X29625842Y-53204726D01*
X29556802Y-53214653D01*
X29556762Y-53214956D01*
X29400000Y-53194318D01*
X29243238Y-53214956D01*
X29097159Y-53275464D01*
X28971718Y-53371718D01*
X28966695Y-53378264D01*
X28943941Y-53407918D01*
X28875464Y-53497159D01*
X28814956Y-53643238D01*
X28794318Y-53800000D01*
X28814956Y-53956762D01*
X28875464Y-54102841D01*
X28971718Y-54228282D01*
X29097159Y-54324536D01*
X29243238Y-54385044D01*
X29400000Y-54405682D01*
X29408188Y-54404604D01*
X29474067Y-54395931D01*
X29556762Y-54385044D01*
X29557224Y-54388555D01*
X29611958Y-54389901D01*
X29670723Y-54429740D01*
X29698620Y-54495026D01*
X29699500Y-54509888D01*
X29699500Y-60390917D01*
X29699493Y-60392237D01*
X29698559Y-60481407D01*
X29707615Y-60523292D01*
X29709675Y-60535870D01*
X29714454Y-60578472D01*
X29725350Y-60609759D01*
X29729511Y-60624564D01*
X29732911Y-60640289D01*
X29736511Y-60656942D01*
X29754630Y-60695799D01*
X29759414Y-60707582D01*
X29773515Y-60748073D01*
X29777249Y-60754048D01*
X29791070Y-60776167D01*
X29798408Y-60789682D01*
X29812409Y-60819707D01*
X29816728Y-60825274D01*
X29816728Y-60825275D01*
X29838674Y-60853567D01*
X29845969Y-60864024D01*
X29864950Y-60894400D01*
X29868684Y-60900375D01*
X29873646Y-60905372D01*
X29873647Y-60905373D01*
X29897003Y-60928893D01*
X29897585Y-60929515D01*
X29898099Y-60930177D01*
X29923959Y-60956037D01*
X29995230Y-61027807D01*
X29996257Y-61028459D01*
X29997465Y-61029543D01*
X31134351Y-62166429D01*
X31168377Y-62228741D01*
X31163312Y-62299556D01*
X31120765Y-62356392D01*
X31054245Y-62381203D01*
X30979421Y-62362956D01*
X30965319Y-62354314D01*
X30965308Y-62354308D01*
X30961089Y-62351723D01*
X30956519Y-62349830D01*
X30956515Y-62349828D01*
X30740181Y-62260220D01*
X30740175Y-62260218D01*
X30735612Y-62258328D01*
X30730812Y-62257176D01*
X30730807Y-62257174D01*
X30610792Y-62228361D01*
X30498302Y-62201354D01*
X30255000Y-62182206D01*
X30011698Y-62201354D01*
X29899208Y-62228361D01*
X29779193Y-62257174D01*
X29779188Y-62257176D01*
X29774388Y-62258328D01*
X29769825Y-62260218D01*
X29769819Y-62260220D01*
X29553485Y-62349828D01*
X29553481Y-62349830D01*
X29548911Y-62351723D01*
X29340821Y-62479241D01*
X29155241Y-62637741D01*
X28996741Y-62823321D01*
X28869223Y-63031411D01*
X28867330Y-63035981D01*
X28867328Y-63035985D01*
X28777720Y-63252319D01*
X28777718Y-63252325D01*
X28775828Y-63256888D01*
X28774676Y-63261688D01*
X28774674Y-63261693D01*
X28758734Y-63328088D01*
X28718854Y-63494198D01*
X28699706Y-63737500D01*
X28718854Y-63980802D01*
X28775828Y-64218112D01*
X28777718Y-64222675D01*
X28777720Y-64222681D01*
X28866213Y-64436323D01*
X28869223Y-64443589D01*
X28996741Y-64651679D01*
X29155241Y-64837259D01*
X29340821Y-64995759D01*
X29548911Y-65123277D01*
X29553481Y-65125170D01*
X29553485Y-65125172D01*
X29769819Y-65214780D01*
X29769825Y-65214782D01*
X29774388Y-65216672D01*
X29779188Y-65217824D01*
X29779193Y-65217826D01*
X29869409Y-65239485D01*
X30011698Y-65273646D01*
X30255000Y-65292794D01*
X30498302Y-65273646D01*
X30640591Y-65239485D01*
X30730807Y-65217826D01*
X30730812Y-65217824D01*
X30735612Y-65216672D01*
X30754219Y-65208965D01*
X30788725Y-65194672D01*
X30829118Y-65177941D01*
X30899707Y-65170352D01*
X30963194Y-65202131D01*
X30999421Y-65263189D01*
X30996887Y-65334141D01*
X30965728Y-65384143D01*
X30836972Y-65510892D01*
X30671542Y-65727656D01*
X30538306Y-65965568D01*
X30536698Y-65969726D01*
X30536695Y-65969731D01*
X30498053Y-66069616D01*
X30439920Y-66219879D01*
X30378349Y-66485516D01*
X30354820Y-66757178D01*
X30355064Y-66761613D01*
X30355064Y-66761617D01*
X30357363Y-66803379D01*
X30369804Y-67029446D01*
X30423001Y-67296885D01*
X30513350Y-67554161D01*
X30639048Y-67796141D01*
X30641631Y-67799756D01*
X30641635Y-67799762D01*
X30794999Y-68014374D01*
X30797587Y-68017995D01*
X30985805Y-68215297D01*
X30989301Y-68218053D01*
X30989302Y-68218054D01*
X31168180Y-68359070D01*
X31199944Y-68384111D01*
X31260912Y-68419524D01*
X31431880Y-68518831D01*
X31431886Y-68518834D01*
X31435734Y-68521069D01*
X31560183Y-68571476D01*
X31684337Y-68621764D01*
X31684340Y-68621765D01*
X31688468Y-68623437D01*
X31816411Y-68655218D01*
X31948780Y-68688099D01*
X31948785Y-68688100D01*
X31953105Y-68689173D01*
X32185664Y-68713000D01*
X32354458Y-68713000D01*
X32556998Y-68698659D01*
X32561353Y-68697721D01*
X32561356Y-68697721D01*
X32819222Y-68642204D01*
X32819224Y-68642204D01*
X32823569Y-68641268D01*
X33052758Y-68556716D01*
X33075218Y-68548430D01*
X33079395Y-68546889D01*
X33319370Y-68417406D01*
X33538706Y-68255401D01*
X33733028Y-68064108D01*
X33898458Y-67847344D01*
X34031694Y-67609432D01*
X34055988Y-67546636D01*
X34099221Y-67490321D01*
X34166037Y-67466319D01*
X34235223Y-67482252D01*
X34284812Y-67533059D01*
X34299500Y-67592098D01*
X34299500Y-68390917D01*
X34299493Y-68392237D01*
X34298559Y-68481407D01*
X34307134Y-68521069D01*
X34307615Y-68523292D01*
X34309675Y-68535870D01*
X34314454Y-68578472D01*
X34325350Y-68609759D01*
X34329511Y-68624564D01*
X34334893Y-68649457D01*
X34336511Y-68656942D01*
X34354630Y-68695799D01*
X34359414Y-68707582D01*
X34373515Y-68748073D01*
X34388334Y-68771788D01*
X34391070Y-68776167D01*
X34398408Y-68789682D01*
X34412409Y-68819707D01*
X34416728Y-68825274D01*
X34416728Y-68825275D01*
X34438674Y-68853567D01*
X34445969Y-68864024D01*
X34464154Y-68893126D01*
X34468684Y-68900375D01*
X34473646Y-68905372D01*
X34473647Y-68905373D01*
X34497003Y-68928893D01*
X34497585Y-68929515D01*
X34498099Y-68930177D01*
X34523959Y-68956037D01*
X34595230Y-69027807D01*
X34596257Y-69028459D01*
X34597465Y-69029543D01*
X35727481Y-70159559D01*
X35728410Y-70160497D01*
X35790859Y-70224268D01*
X35826904Y-70247498D01*
X35837229Y-70254917D01*
X35870734Y-70281663D01*
X35877074Y-70284728D01*
X35900553Y-70296079D01*
X35913964Y-70303605D01*
X35935893Y-70317737D01*
X35935898Y-70317739D01*
X35941817Y-70321554D01*
X35948437Y-70323964D01*
X35948438Y-70323964D01*
X35959406Y-70327956D01*
X35982099Y-70336216D01*
X35993829Y-70341170D01*
X36032422Y-70359827D01*
X36064698Y-70367279D01*
X36079446Y-70371648D01*
X36103955Y-70380568D01*
X36103959Y-70380569D01*
X36110578Y-70382978D01*
X36153118Y-70388352D01*
X36165637Y-70390582D01*
X36207411Y-70400226D01*
X36214452Y-70400251D01*
X36214455Y-70400251D01*
X36247582Y-70400367D01*
X36248455Y-70400396D01*
X36249283Y-70400500D01*
X36285738Y-70400500D01*
X36286178Y-70400501D01*
X36383507Y-70400841D01*
X36383510Y-70400841D01*
X36387000Y-70400853D01*
X36388188Y-70400587D01*
X36389800Y-70400500D01*
X41868616Y-70400500D01*
X41936737Y-70420502D01*
X41983230Y-70474158D01*
X41993334Y-70544432D01*
X41963840Y-70609012D01*
X41904114Y-70647396D01*
X41892964Y-70650090D01*
X41887203Y-70650614D01*
X41881297Y-70652352D01*
X41881293Y-70652353D01*
X41695484Y-70707040D01*
X41689572Y-70708780D01*
X41507002Y-70804226D01*
X41502201Y-70808086D01*
X41502198Y-70808088D01*
X41351254Y-70929450D01*
X41346447Y-70933315D01*
X41214024Y-71091130D01*
X41211056Y-71096528D01*
X41211053Y-71096533D01*
X41117743Y-71266265D01*
X41114776Y-71271662D01*
X41052484Y-71468032D01*
X41051798Y-71474149D01*
X41051797Y-71474153D01*
X41038742Y-71590543D01*
X41029520Y-71672762D01*
X41030036Y-71678906D01*
X41044844Y-71855243D01*
X41046759Y-71878053D01*
X41048458Y-71883978D01*
X41094774Y-72045500D01*
X41103544Y-72076086D01*
X41106359Y-72081563D01*
X41106360Y-72081566D01*
X41127247Y-72122207D01*
X41197712Y-72259318D01*
X41325677Y-72420770D01*
X41330370Y-72424764D01*
X41330371Y-72424765D01*
X41392389Y-72477546D01*
X41431302Y-72536929D01*
X41431933Y-72607922D01*
X41394082Y-72667987D01*
X41329765Y-72698053D01*
X41310726Y-72699500D01*
X34691999Y-72699500D01*
X34623878Y-72679498D01*
X34577385Y-72625842D01*
X34567281Y-72555568D01*
X34596775Y-72490988D01*
X34614426Y-72474210D01*
X34638101Y-72455713D01*
X34642951Y-72451924D01*
X34777564Y-72295972D01*
X34798387Y-72259318D01*
X34876276Y-72122207D01*
X34879323Y-72116844D01*
X34944351Y-71921363D01*
X34970171Y-71716974D01*
X34970583Y-71687500D01*
X34950480Y-71482470D01*
X34890935Y-71285249D01*
X34794218Y-71103349D01*
X34720859Y-71013402D01*
X34667906Y-70948475D01*
X34667903Y-70948472D01*
X34664011Y-70943700D01*
X34646786Y-70929450D01*
X34510025Y-70816311D01*
X34510021Y-70816309D01*
X34505275Y-70812382D01*
X34324055Y-70714397D01*
X34127254Y-70653477D01*
X34121129Y-70652833D01*
X34121128Y-70652833D01*
X33928498Y-70632587D01*
X33928496Y-70632587D01*
X33922369Y-70631943D01*
X33835529Y-70639846D01*
X33723342Y-70650055D01*
X33723339Y-70650056D01*
X33717203Y-70650614D01*
X33519572Y-70708780D01*
X33337002Y-70804226D01*
X33332201Y-70808086D01*
X33332198Y-70808088D01*
X33181254Y-70929450D01*
X33176447Y-70933315D01*
X33044024Y-71091130D01*
X33041056Y-71096528D01*
X33041053Y-71096533D01*
X32947743Y-71266265D01*
X32944776Y-71271662D01*
X32882484Y-71468032D01*
X32881798Y-71474149D01*
X32881797Y-71474153D01*
X32868742Y-71590543D01*
X32859520Y-71672762D01*
X32860036Y-71678906D01*
X32874844Y-71855243D01*
X32876759Y-71878053D01*
X32878458Y-71883978D01*
X32924774Y-72045500D01*
X32933544Y-72076086D01*
X32936359Y-72081563D01*
X32936360Y-72081566D01*
X32957247Y-72122207D01*
X33027712Y-72259318D01*
X33155677Y-72420770D01*
X33160370Y-72424764D01*
X33160371Y-72424765D01*
X33222389Y-72477546D01*
X33261302Y-72536929D01*
X33261933Y-72607922D01*
X33224082Y-72667987D01*
X33159765Y-72698053D01*
X33140726Y-72699500D01*
X32151999Y-72699500D01*
X32083878Y-72679498D01*
X32037385Y-72625842D01*
X32027281Y-72555568D01*
X32056775Y-72490988D01*
X32074426Y-72474210D01*
X32098101Y-72455713D01*
X32102951Y-72451924D01*
X32237564Y-72295972D01*
X32258387Y-72259318D01*
X32336276Y-72122207D01*
X32339323Y-72116844D01*
X32404351Y-71921363D01*
X32430171Y-71716974D01*
X32430583Y-71687500D01*
X32410480Y-71482470D01*
X32350935Y-71285249D01*
X32254218Y-71103349D01*
X32180859Y-71013402D01*
X32127906Y-70948475D01*
X32127903Y-70948472D01*
X32124011Y-70943700D01*
X32106786Y-70929450D01*
X31970025Y-70816311D01*
X31970021Y-70816309D01*
X31965275Y-70812382D01*
X31784055Y-70714397D01*
X31587254Y-70653477D01*
X31581129Y-70652833D01*
X31581128Y-70652833D01*
X31388498Y-70632587D01*
X31388496Y-70632587D01*
X31382369Y-70631943D01*
X31295529Y-70639846D01*
X31183342Y-70650055D01*
X31183339Y-70650056D01*
X31177203Y-70650614D01*
X30979572Y-70708780D01*
X30797002Y-70804226D01*
X30792201Y-70808086D01*
X30792198Y-70808088D01*
X30641254Y-70929450D01*
X30636447Y-70933315D01*
X30504024Y-71091130D01*
X30501056Y-71096528D01*
X30501053Y-71096533D01*
X30407743Y-71266265D01*
X30404776Y-71271662D01*
X30342484Y-71468032D01*
X30341798Y-71474149D01*
X30341797Y-71474153D01*
X30328742Y-71590543D01*
X30319520Y-71672762D01*
X30320036Y-71678906D01*
X30334844Y-71855243D01*
X30336759Y-71878053D01*
X30338458Y-71883978D01*
X30384774Y-72045500D01*
X30393544Y-72076086D01*
X30396359Y-72081563D01*
X30396360Y-72081566D01*
X30417247Y-72122207D01*
X30487712Y-72259318D01*
X30615677Y-72420770D01*
X30620370Y-72424764D01*
X30620371Y-72424765D01*
X30682389Y-72477546D01*
X30721302Y-72536929D01*
X30721933Y-72607922D01*
X30684082Y-72667987D01*
X30619765Y-72698053D01*
X30600726Y-72699500D01*
X28426500Y-72699500D01*
X28358379Y-72679498D01*
X28311886Y-72625842D01*
X28300500Y-72573500D01*
X28300500Y-33314376D01*
X28844455Y-33314376D01*
X28845191Y-33321379D01*
X28845191Y-33321380D01*
X28861852Y-33479898D01*
X28863227Y-33492983D01*
X28865498Y-33499654D01*
X28917598Y-33652696D01*
X28921103Y-33662993D01*
X28924793Y-33668991D01*
X28924794Y-33668993D01*
X28934669Y-33685044D01*
X29015206Y-33815955D01*
X29020132Y-33820986D01*
X29020135Y-33820989D01*
X29023838Y-33824770D01*
X29140859Y-33944268D01*
X29146784Y-33948087D01*
X29146786Y-33948088D01*
X29235604Y-34005327D01*
X29291817Y-34041554D01*
X29298437Y-34043963D01*
X29298440Y-34043965D01*
X29453961Y-34100570D01*
X29453964Y-34100571D01*
X29460578Y-34102978D01*
X29487121Y-34106331D01*
X29595355Y-34120004D01*
X29595358Y-34120004D01*
X29599283Y-34120500D01*
X30295155Y-34120500D01*
X30428472Y-34105546D01*
X30435847Y-34102978D01*
X30512094Y-34076426D01*
X30598073Y-34046485D01*
X30605965Y-34041554D01*
X30744401Y-33955049D01*
X30750375Y-33951316D01*
X30814365Y-33887771D01*
X30872810Y-33829733D01*
X30872813Y-33829729D01*
X30877807Y-33824770D01*
X30895610Y-33796718D01*
X30952620Y-33706884D01*
X30974037Y-33673136D01*
X30986236Y-33638878D01*
X31031919Y-33510586D01*
X31031920Y-33510581D01*
X31034281Y-33503951D01*
X31035114Y-33496965D01*
X31035115Y-33496961D01*
X31054711Y-33332617D01*
X31055545Y-33325624D01*
X31050935Y-33281762D01*
X31037510Y-33154025D01*
X31037509Y-33154021D01*
X31036773Y-33147017D01*
X30978897Y-32977007D01*
X30963160Y-32951426D01*
X30888485Y-32830045D01*
X30884794Y-32824045D01*
X30879868Y-32819014D01*
X30879865Y-32819011D01*
X30819024Y-32756883D01*
X30759141Y-32695732D01*
X30745296Y-32686809D01*
X30614109Y-32602265D01*
X30608183Y-32598446D01*
X30601563Y-32596037D01*
X30601560Y-32596035D01*
X30446039Y-32539430D01*
X30446036Y-32539429D01*
X30439422Y-32537022D01*
X30382692Y-32529856D01*
X30304645Y-32519996D01*
X30304642Y-32519996D01*
X30300717Y-32519500D01*
X29604845Y-32519500D01*
X29471528Y-32534454D01*
X29464875Y-32536771D01*
X29464874Y-32536771D01*
X29455728Y-32539956D01*
X29301927Y-32593515D01*
X29295953Y-32597248D01*
X29295951Y-32597249D01*
X29176776Y-32671718D01*
X29149625Y-32688684D01*
X29092812Y-32745102D01*
X29027190Y-32810267D01*
X29027187Y-32810271D01*
X29022193Y-32815230D01*
X29018419Y-32821176D01*
X29018418Y-32821178D01*
X29012791Y-32830045D01*
X28925963Y-32966864D01*
X28923598Y-32973506D01*
X28868081Y-33129414D01*
X28868080Y-33129419D01*
X28865719Y-33136049D01*
X28864886Y-33143035D01*
X28864885Y-33143039D01*
X28852301Y-33248574D01*
X28844455Y-33314376D01*
X28300500Y-33314376D01*
X28300500Y-24674376D01*
X28844455Y-24674376D01*
X28863227Y-24852983D01*
X28921103Y-25022993D01*
X29015206Y-25175955D01*
X29020132Y-25180986D01*
X29020135Y-25180989D01*
X29023838Y-25184770D01*
X29140859Y-25304268D01*
X29146782Y-25308085D01*
X29146786Y-25308088D01*
X29285891Y-25397735D01*
X29291817Y-25401554D01*
X29298437Y-25403963D01*
X29298440Y-25403965D01*
X29453961Y-25460570D01*
X29453964Y-25460571D01*
X29460578Y-25462978D01*
X29487121Y-25466331D01*
X29595355Y-25480004D01*
X29595358Y-25480004D01*
X29599283Y-25480500D01*
X30295155Y-25480500D01*
X30428472Y-25465546D01*
X30435847Y-25462978D01*
X30514440Y-25435609D01*
X30598073Y-25406485D01*
X30605965Y-25401554D01*
X30744401Y-25315049D01*
X30750375Y-25311316D01*
X30814365Y-25247771D01*
X30872810Y-25189733D01*
X30872813Y-25189729D01*
X30877807Y-25184770D01*
X30974037Y-25033136D01*
X30987859Y-24994318D01*
X31031919Y-24870586D01*
X31031920Y-24870581D01*
X31034281Y-24863951D01*
X31035114Y-24856965D01*
X31035115Y-24856961D01*
X31054711Y-24692617D01*
X31055545Y-24685624D01*
X31054363Y-24674376D01*
X32774455Y-24674376D01*
X32793227Y-24852983D01*
X32851103Y-25022993D01*
X32945206Y-25175955D01*
X32950132Y-25180986D01*
X32950135Y-25180989D01*
X32953838Y-25184770D01*
X33070859Y-25304268D01*
X33087588Y-25315049D01*
X33220349Y-25400608D01*
X33266773Y-25454323D01*
X33276788Y-25524610D01*
X33247212Y-25589153D01*
X33226155Y-25608454D01*
X33168413Y-25650406D01*
X33163360Y-25656514D01*
X33072729Y-25766068D01*
X33072726Y-25766072D01*
X33067676Y-25772177D01*
X33000386Y-25915174D01*
X32998901Y-25922957D01*
X32998901Y-25922958D01*
X32978810Y-26028282D01*
X32970773Y-26070412D01*
X32980696Y-26228138D01*
X32983147Y-26235681D01*
X33003123Y-26297159D01*
X33029533Y-26378441D01*
X33114214Y-26511877D01*
X33229418Y-26620062D01*
X33367908Y-26696197D01*
X33520981Y-26735500D01*
X33639350Y-26735500D01*
X33643275Y-26735004D01*
X33643278Y-26735004D01*
X33748933Y-26721657D01*
X33748935Y-26721657D01*
X33756792Y-26720664D01*
X33828234Y-26692378D01*
X33896363Y-26665404D01*
X33896366Y-26665403D01*
X33903732Y-26662486D01*
X34031587Y-26569594D01*
X34074844Y-26517305D01*
X34127271Y-26453932D01*
X34127274Y-26453928D01*
X34132324Y-26447823D01*
X34199614Y-26304826D01*
X34222258Y-26186122D01*
X34227742Y-26157374D01*
X34227742Y-26157372D01*
X34229227Y-26149588D01*
X34219304Y-25991862D01*
X34207546Y-25955675D01*
X34172916Y-25849095D01*
X34172915Y-25849092D01*
X34170467Y-25841559D01*
X34085786Y-25708123D01*
X34075378Y-25698349D01*
X34039413Y-25637136D01*
X34040899Y-25600000D01*
X48394318Y-25600000D01*
X48414956Y-25756762D01*
X48475464Y-25902841D01*
X48571718Y-26028282D01*
X48697159Y-26124536D01*
X48843238Y-26185044D01*
X49000000Y-26205682D01*
X49008188Y-26204604D01*
X49148574Y-26186122D01*
X49156762Y-26185044D01*
X49302841Y-26124536D01*
X49428282Y-26028282D01*
X49524536Y-25902841D01*
X49585044Y-25756762D01*
X49605682Y-25600000D01*
X49585044Y-25443238D01*
X49524536Y-25297159D01*
X49428282Y-25171718D01*
X49302841Y-25075464D01*
X49156762Y-25014956D01*
X49000000Y-24994318D01*
X48843238Y-25014956D01*
X48697159Y-25075464D01*
X48571718Y-25171718D01*
X48475464Y-25297159D01*
X48414956Y-25443238D01*
X48394318Y-25600000D01*
X34040899Y-25600000D01*
X34042252Y-25566196D01*
X34082993Y-25508053D01*
X34148701Y-25481165D01*
X34161632Y-25480500D01*
X34725155Y-25480500D01*
X34858472Y-25465546D01*
X34865847Y-25462978D01*
X34944440Y-25435609D01*
X35028073Y-25406485D01*
X35035965Y-25401554D01*
X35174401Y-25315049D01*
X35180375Y-25311316D01*
X35244365Y-25247771D01*
X35302810Y-25189733D01*
X35302813Y-25189729D01*
X35307807Y-25184770D01*
X35404037Y-25033136D01*
X35417859Y-24994318D01*
X35461919Y-24870586D01*
X35461920Y-24870581D01*
X35464281Y-24863951D01*
X35465114Y-24856965D01*
X35465115Y-24856961D01*
X35484711Y-24692617D01*
X35485545Y-24685624D01*
X35466773Y-24507017D01*
X35408897Y-24337007D01*
X35314794Y-24184045D01*
X35309868Y-24179014D01*
X35309865Y-24179011D01*
X35249024Y-24116883D01*
X35189141Y-24055732D01*
X35172413Y-24044951D01*
X35044109Y-23962265D01*
X35038183Y-23958446D01*
X35031563Y-23956037D01*
X35031560Y-23956035D01*
X34876039Y-23899430D01*
X34876036Y-23899429D01*
X34869422Y-23897022D01*
X34812692Y-23889856D01*
X34734645Y-23879996D01*
X34734642Y-23879996D01*
X34730717Y-23879500D01*
X33534845Y-23879500D01*
X33401528Y-23894454D01*
X33394875Y-23896771D01*
X33394874Y-23896771D01*
X33326549Y-23920564D01*
X33231927Y-23953515D01*
X33225953Y-23957248D01*
X33225951Y-23957249D01*
X33217924Y-23962265D01*
X33079625Y-24048684D01*
X33015635Y-24112229D01*
X32957190Y-24170267D01*
X32957187Y-24170271D01*
X32952193Y-24175230D01*
X32855963Y-24326864D01*
X32853598Y-24333506D01*
X32798081Y-24489414D01*
X32798080Y-24489419D01*
X32795719Y-24496049D01*
X32794886Y-24503035D01*
X32794885Y-24503039D01*
X32779648Y-24630823D01*
X32774455Y-24674376D01*
X31054363Y-24674376D01*
X31036773Y-24507017D01*
X30978897Y-24337007D01*
X30884794Y-24184045D01*
X30879868Y-24179014D01*
X30879865Y-24179011D01*
X30819024Y-24116883D01*
X30759141Y-24055732D01*
X30742413Y-24044951D01*
X30614109Y-23962265D01*
X30608183Y-23958446D01*
X30601563Y-23956037D01*
X30601560Y-23956035D01*
X30446039Y-23899430D01*
X30446036Y-23899429D01*
X30439422Y-23897022D01*
X30382692Y-23889856D01*
X30304645Y-23879996D01*
X30304642Y-23879996D01*
X30300717Y-23879500D01*
X29604845Y-23879500D01*
X29471528Y-23894454D01*
X29464875Y-23896771D01*
X29464874Y-23896771D01*
X29396549Y-23920564D01*
X29301927Y-23953515D01*
X29295953Y-23957248D01*
X29295951Y-23957249D01*
X29287924Y-23962265D01*
X29149625Y-24048684D01*
X29085635Y-24112229D01*
X29027190Y-24170267D01*
X29027187Y-24170271D01*
X29022193Y-24175230D01*
X28925963Y-24326864D01*
X28923598Y-24333506D01*
X28868081Y-24489414D01*
X28868080Y-24489419D01*
X28865719Y-24496049D01*
X28864886Y-24503035D01*
X28864885Y-24503039D01*
X28849648Y-24630823D01*
X28844455Y-24674376D01*
X28300500Y-24674376D01*
X28300500Y-23426500D01*
X28320502Y-23358379D01*
X28374158Y-23311886D01*
X28426500Y-23300500D01*
X71474000Y-23300500D01*
X71542121Y-23320502D01*
G37*
G04 #@! TD.AperFunction*
G04 #@! TD*
M02*
