G04 #@! TF.GenerationSoftware,KiCad,Pcbnew,6.0.6+dfsg-1~bpo11+1*
G04 #@! TF.CreationDate,2022-07-19T19:35:54+02:00*
G04 #@! TF.ProjectId,EnergyMeter,456e6572-6779-44d6-9574-65722e6b6963,rev?*
G04 #@! TF.SameCoordinates,Original*
G04 #@! TF.FileFunction,Copper,L2,Inr*
G04 #@! TF.FilePolarity,Positive*
%FSLAX46Y46*%
G04 Gerber Fmt 4.6, Leading zero omitted, Abs format (unit mm)*
G04 Created by KiCad (PCBNEW 6.0.6+dfsg-1~bpo11+1) date 2022-07-19 19:35:54*
%MOMM*%
%LPD*%
G01*
G04 APERTURE LIST*
G04 Aperture macros list*
%AMRoundRect*
0 Rectangle with rounded corners*
0 $1 Rounding radius*
0 $2 $3 $4 $5 $6 $7 $8 $9 X,Y pos of 4 corners*
0 Add a 4 corners polygon primitive as box body*
4,1,4,$2,$3,$4,$5,$6,$7,$8,$9,$2,$3,0*
0 Add four circle primitives for the rounded corners*
1,1,$1+$1,$2,$3*
1,1,$1+$1,$4,$5*
1,1,$1+$1,$6,$7*
1,1,$1+$1,$8,$9*
0 Add four rect primitives between the rounded corners*
20,1,$1+$1,$2,$3,$4,$5,0*
20,1,$1+$1,$4,$5,$6,$7,0*
20,1,$1+$1,$6,$7,$8,$9,0*
20,1,$1+$1,$8,$9,$2,$3,0*%
G04 Aperture macros list end*
G04 #@! TA.AperFunction,ComponentPad*
%ADD10R,1.600000X1.600000*%
G04 #@! TD*
G04 #@! TA.AperFunction,ComponentPad*
%ADD11C,1.600000*%
G04 #@! TD*
G04 #@! TA.AperFunction,ComponentPad*
%ADD12R,1.520000X1.520000*%
G04 #@! TD*
G04 #@! TA.AperFunction,ComponentPad*
%ADD13C,1.520000*%
G04 #@! TD*
G04 #@! TA.AperFunction,ComponentPad*
%ADD14O,2.100000X1.000000*%
G04 #@! TD*
G04 #@! TA.AperFunction,ComponentPad*
%ADD15O,1.600000X1.000000*%
G04 #@! TD*
G04 #@! TA.AperFunction,ComponentPad*
%ADD16RoundRect,0.250500X-0.499500X-0.499500X0.499500X-0.499500X0.499500X0.499500X-0.499500X0.499500X0*%
G04 #@! TD*
G04 #@! TA.AperFunction,ComponentPad*
%ADD17C,1.500000*%
G04 #@! TD*
G04 #@! TA.AperFunction,ComponentPad*
%ADD18C,2.500000*%
G04 #@! TD*
G04 #@! TA.AperFunction,ComponentPad*
%ADD19R,1.700000X1.700000*%
G04 #@! TD*
G04 #@! TA.AperFunction,ComponentPad*
%ADD20O,1.700000X1.700000*%
G04 #@! TD*
G04 #@! TA.AperFunction,ViaPad*
%ADD21C,0.600000*%
G04 #@! TD*
G04 APERTURE END LIST*
D10*
G04 #@! TO.N,+3V3*
G04 #@! TO.C,C1*
X44272349Y-50225000D03*
D11*
G04 #@! TO.N,GND*
X47772349Y-50225000D03*
G04 #@! TD*
D12*
G04 #@! TO.N,unconnected-(J4-Pad1)*
G04 #@! TO.C,J4*
X66830000Y-61230000D03*
D13*
G04 #@! TO.N,5V_INVERTER*
X68100000Y-63770000D03*
G04 #@! TO.N,Net-(J4-Pad3)*
X69370000Y-61230000D03*
G04 #@! TO.N,Net-(J4-Pad4)*
X70640000Y-63770000D03*
G04 #@! TO.N,GND*
X71910000Y-61230000D03*
G04 #@! TO.N,unconnected-(J4-Pad6)*
X73180000Y-63770000D03*
G04 #@! TD*
D14*
G04 #@! TO.N,GND*
G04 #@! TO.C,J5*
X34130000Y-33320000D03*
D15*
X29950000Y-33320000D03*
D14*
X34130000Y-24680000D03*
D15*
X29950000Y-24680000D03*
G04 #@! TD*
D16*
G04 #@! TO.N,/ethernet/TX_P*
G04 #@! TO.C,J6*
X33560000Y-60427500D03*
D17*
G04 #@! TO.N,/ethernet/TX_N*
X34820000Y-57887500D03*
G04 #@! TO.N,/ethernet/RX_P*
X36100000Y-60427500D03*
G04 #@! TO.N,Net-(C18-Pad1)*
X37360000Y-57887500D03*
X38640000Y-60427500D03*
G04 #@! TO.N,/ethernet/RX_N*
X39900000Y-57887500D03*
G04 #@! TO.N,N/C*
X41180000Y-60427500D03*
G04 #@! TO.N,GND*
X42440000Y-57887500D03*
X31375000Y-71687500D03*
G04 #@! TO.N,Net-(J6-Pad10)*
X33915000Y-71687500D03*
G04 #@! TO.N,Net-(J6-Pad11)*
X42085000Y-71687500D03*
G04 #@! TO.N,VDDA*
X44625000Y-71687500D03*
D18*
G04 #@! TO.N,GND*
X30255000Y-63737500D03*
X45745000Y-63737500D03*
G04 #@! TD*
D19*
G04 #@! TO.N,+5V*
G04 #@! TO.C,J1*
X34840000Y-43180000D03*
D20*
G04 #@! TO.N,5V_DSM*
X32300000Y-43180000D03*
G04 #@! TO.N,+5V*
X34840000Y-40640000D03*
G04 #@! TO.N,5V_INVERTER*
X32300000Y-40640000D03*
G04 #@! TO.N,+5V*
X34840000Y-38100000D03*
G04 #@! TO.N,5V_USB*
X32300000Y-38100000D03*
G04 #@! TD*
D12*
G04 #@! TO.N,5V_DSM*
G04 #@! TO.C,J2*
X51830000Y-61230000D03*
D13*
G04 #@! TO.N,Net-(J2-Pad2)*
X53100000Y-63770000D03*
G04 #@! TO.N,GND*
X54370000Y-61230000D03*
G04 #@! TO.N,unconnected-(J2-Pad4)*
X55640000Y-63770000D03*
G04 #@! TO.N,Net-(J2-Pad5)*
X56910000Y-61230000D03*
G04 #@! TO.N,GND*
X58180000Y-63770000D03*
G04 #@! TD*
D19*
G04 #@! TO.N,+3V3*
G04 #@! TO.C,J3*
X67500000Y-57350000D03*
D20*
G04 #@! TO.N,Net-(C4-Pad1)*
X67500000Y-54810000D03*
G04 #@! TO.N,+5V*
X67500000Y-52270000D03*
G04 #@! TD*
D10*
G04 #@! TO.N,+5V*
G04 #@! TO.C,C3*
X52747349Y-48150000D03*
D11*
G04 #@! TO.N,GND*
X56247349Y-48150000D03*
G04 #@! TD*
D21*
G04 #@! TO.N,GND*
X46700000Y-41900000D03*
X44600000Y-43200000D03*
X45200000Y-57200000D03*
X58200000Y-57200000D03*
X49000000Y-25600000D03*
X62400000Y-28900000D03*
X70300000Y-26600000D03*
X32300000Y-49100000D03*
X41225000Y-46800500D03*
X74900000Y-48000000D03*
X55800000Y-51900000D03*
X75800000Y-56500000D03*
X44100000Y-56600000D03*
X41600000Y-51900000D03*
X46700000Y-40600000D03*
X40500000Y-56100000D03*
X61800000Y-57200000D03*
X36100000Y-49800000D03*
X37400000Y-39500000D03*
X59400000Y-48100000D03*
X29400000Y-53800000D03*
X46700000Y-39400000D03*
X54200000Y-27500000D03*
X46700000Y-43100000D03*
X41200000Y-33100000D03*
X69900000Y-39700000D03*
X65100000Y-59500000D03*
G04 #@! TO.N,+3V3*
X67200000Y-48300000D03*
X68600000Y-26500000D03*
X33600000Y-47400000D03*
X76300000Y-48100000D03*
X39300000Y-43200000D03*
X61275020Y-48100000D03*
X47300000Y-33000000D03*
X61400000Y-51800000D03*
X29200000Y-47700000D03*
X40800000Y-43200000D03*
X44600000Y-24900000D03*
X57300000Y-52100000D03*
X39425000Y-31600000D03*
X37200000Y-46000000D03*
X37800000Y-43100000D03*
X62700000Y-48200000D03*
G04 #@! TO.N,5V_USB*
X36400000Y-31500000D03*
X36400000Y-26600000D03*
G04 #@! TO.N,VDDA*
X38300000Y-51700000D03*
X32000000Y-52400000D03*
X41500000Y-54300000D03*
X34100000Y-51859700D03*
X35200000Y-56200000D03*
G04 #@! TO.N,Net-(C18-Pad1)*
X39300000Y-56200000D03*
G04 #@! TO.N,5V_INVERTER*
X33700000Y-64100000D03*
G04 #@! TO.N,+5V*
X44900000Y-39300000D03*
G04 #@! TO.N,Net-(J4-Pad3)*
X73800000Y-60000000D03*
X73900000Y-52300000D03*
G04 #@! TO.N,/USB/EN*
X48325000Y-36250000D03*
X40300000Y-37100000D03*
X67300000Y-36400000D03*
G04 #@! TO.N,Net-(Q1-Pad2)*
X45225000Y-36150000D03*
X39325000Y-34800000D03*
G04 #@! TO.N,Net-(Q2-Pad1)*
X45975000Y-34225000D03*
X44000500Y-34225000D03*
G04 #@! TO.N,Net-(Q2-Pad2)*
X37399500Y-34225000D03*
X40250000Y-33125000D03*
G04 #@! TO.N,/ethernet/RXER*
X36000000Y-46300000D03*
X67200000Y-44300000D03*
G04 #@! TO.N,/ethernet/MDIO*
X59695000Y-44070000D03*
X34200000Y-46500000D03*
G04 #@! TO.N,/ethernet/CRS_DV*
X55700000Y-39900000D03*
X53700000Y-44800000D03*
X64200000Y-44300000D03*
X35100000Y-46500000D03*
X52400000Y-43400000D03*
G04 #@! TO.N,/ethernet/RST*
X33100000Y-49400000D03*
X60400000Y-48700000D03*
G04 #@! TO.N,/ethernet/RXD1*
X62100000Y-43900000D03*
X63499905Y-46399500D03*
X62100000Y-39700000D03*
X38741398Y-47031774D03*
G04 #@! TO.N,/ethernet/RXD0*
X63800000Y-38700000D03*
X66500000Y-46300000D03*
X38000000Y-46399509D03*
X65900000Y-44300000D03*
G04 #@! TO.N,Net-(R17-Pad2)*
X39000000Y-50000000D03*
X41300000Y-50100000D03*
G04 #@! TO.N,Net-(R18-Pad2)*
X42800000Y-51700000D03*
X39100000Y-51000000D03*
G04 #@! TO.N,/P1_UART/DATA_IN*
X55600000Y-38600000D03*
X57800000Y-43900000D03*
G04 #@! TO.N,/RS485/DI*
X70300000Y-43700000D03*
X54500000Y-37699500D03*
G04 #@! TO.N,/RS485/DO*
X54800000Y-28800000D03*
X70500000Y-29000000D03*
G04 #@! TO.N,/P1_UART/DATA_OUT*
X49900000Y-39300000D03*
X55800000Y-53400000D03*
X63100000Y-52200000D03*
X50799500Y-37699500D03*
G04 #@! TO.N,/RS485/TXEN*
X72700000Y-51600000D03*
X54700000Y-51800000D03*
G04 #@! TO.N,/ethernet/REFCLK*
X39000000Y-49124500D03*
X57800000Y-48600000D03*
G04 #@! TO.N,/ethernet/TXD0*
X62200000Y-51300000D03*
X32400000Y-50900000D03*
G04 #@! TO.N,/ethernet/TXEN*
X32300000Y-50000000D03*
X65100000Y-48800000D03*
G04 #@! TO.N,/USB/TX*
X64600000Y-35400000D03*
X41300000Y-31900000D03*
G04 #@! TO.N,/USB/RX*
X66000000Y-35300000D03*
X41300000Y-30800000D03*
G04 #@! TO.N,/ethernet/TXD1*
X33000000Y-51500000D03*
X66500000Y-48900000D03*
G04 #@! TO.N,/ethernet/MDC*
X33100000Y-48500000D03*
X69200000Y-45900000D03*
G04 #@! TD*
G04 #@! TA.AperFunction,Conductor*
G04 #@! TO.N,GND*
G36*
X71542121Y-23320502D02*
G01*
X71588614Y-23374158D01*
X71600000Y-23426500D01*
X71600000Y-47200000D01*
X77573500Y-47200000D01*
X77641621Y-47220002D01*
X77688114Y-47273658D01*
X77699500Y-47326000D01*
X77699500Y-72573500D01*
X77679498Y-72641621D01*
X77625842Y-72688114D01*
X77573500Y-72699500D01*
X45401999Y-72699500D01*
X45333878Y-72679498D01*
X45287385Y-72625842D01*
X45277281Y-72555568D01*
X45306775Y-72490988D01*
X45324426Y-72474210D01*
X45348101Y-72455713D01*
X45352951Y-72451924D01*
X45487564Y-72295972D01*
X45508387Y-72259318D01*
X45586276Y-72122207D01*
X45589323Y-72116844D01*
X45654351Y-71921363D01*
X45680171Y-71716974D01*
X45680390Y-71701306D01*
X45680534Y-71691022D01*
X45680534Y-71691018D01*
X45680583Y-71687500D01*
X45660480Y-71482470D01*
X45600935Y-71285249D01*
X45504218Y-71103349D01*
X45421473Y-71001894D01*
X45377906Y-70948475D01*
X45377903Y-70948472D01*
X45374011Y-70943700D01*
X45356786Y-70929450D01*
X45220025Y-70816311D01*
X45220021Y-70816309D01*
X45215275Y-70812382D01*
X45034055Y-70714397D01*
X44837254Y-70653477D01*
X44831129Y-70652833D01*
X44831128Y-70652833D01*
X44638498Y-70632587D01*
X44638496Y-70632587D01*
X44632369Y-70631943D01*
X44545529Y-70639846D01*
X44433342Y-70650055D01*
X44433339Y-70650056D01*
X44427203Y-70650614D01*
X44229572Y-70708780D01*
X44047002Y-70804226D01*
X44042201Y-70808086D01*
X44042198Y-70808088D01*
X43891254Y-70929450D01*
X43886447Y-70933315D01*
X43754024Y-71091130D01*
X43751056Y-71096528D01*
X43751053Y-71096533D01*
X43666348Y-71250613D01*
X43654776Y-71271662D01*
X43592484Y-71468032D01*
X43591798Y-71474149D01*
X43591797Y-71474153D01*
X43578742Y-71590543D01*
X43569520Y-71672762D01*
X43570036Y-71678906D01*
X43584844Y-71855243D01*
X43586759Y-71878053D01*
X43588458Y-71883978D01*
X43634774Y-72045500D01*
X43643544Y-72076086D01*
X43646359Y-72081563D01*
X43646360Y-72081566D01*
X43667247Y-72122207D01*
X43737712Y-72259318D01*
X43865677Y-72420770D01*
X43870370Y-72424764D01*
X43870371Y-72424765D01*
X43932389Y-72477546D01*
X43971302Y-72536929D01*
X43971933Y-72607922D01*
X43934082Y-72667987D01*
X43869765Y-72698053D01*
X43850726Y-72699500D01*
X42861999Y-72699500D01*
X42793878Y-72679498D01*
X42747385Y-72625842D01*
X42737281Y-72555568D01*
X42766775Y-72490988D01*
X42784426Y-72474210D01*
X42808101Y-72455713D01*
X42812951Y-72451924D01*
X42947564Y-72295972D01*
X42968387Y-72259318D01*
X43046276Y-72122207D01*
X43049323Y-72116844D01*
X43114351Y-71921363D01*
X43140171Y-71716974D01*
X43140390Y-71701306D01*
X43140534Y-71691022D01*
X43140534Y-71691018D01*
X43140583Y-71687500D01*
X43120480Y-71482470D01*
X43060935Y-71285249D01*
X42964218Y-71103349D01*
X42881473Y-71001894D01*
X42837906Y-70948475D01*
X42837903Y-70948472D01*
X42834011Y-70943700D01*
X42816786Y-70929450D01*
X42680025Y-70816311D01*
X42680021Y-70816309D01*
X42675275Y-70812382D01*
X42494055Y-70714397D01*
X42297254Y-70653477D01*
X42291129Y-70652833D01*
X42291128Y-70652833D01*
X42098498Y-70632587D01*
X42098496Y-70632587D01*
X42092369Y-70631943D01*
X42005529Y-70639846D01*
X41893342Y-70650055D01*
X41893339Y-70650056D01*
X41887203Y-70650614D01*
X41689572Y-70708780D01*
X41507002Y-70804226D01*
X41502201Y-70808086D01*
X41502198Y-70808088D01*
X41351254Y-70929450D01*
X41346447Y-70933315D01*
X41214024Y-71091130D01*
X41211056Y-71096528D01*
X41211053Y-71096533D01*
X41126348Y-71250613D01*
X41114776Y-71271662D01*
X41052484Y-71468032D01*
X41051798Y-71474149D01*
X41051797Y-71474153D01*
X41038742Y-71590543D01*
X41029520Y-71672762D01*
X41030036Y-71678906D01*
X41044844Y-71855243D01*
X41046759Y-71878053D01*
X41048458Y-71883978D01*
X41094774Y-72045500D01*
X41103544Y-72076086D01*
X41106359Y-72081563D01*
X41106360Y-72081566D01*
X41127247Y-72122207D01*
X41197712Y-72259318D01*
X41325677Y-72420770D01*
X41330370Y-72424764D01*
X41330371Y-72424765D01*
X41392389Y-72477546D01*
X41431302Y-72536929D01*
X41431933Y-72607922D01*
X41394082Y-72667987D01*
X41329765Y-72698053D01*
X41310726Y-72699500D01*
X34691999Y-72699500D01*
X34623878Y-72679498D01*
X34577385Y-72625842D01*
X34567281Y-72555568D01*
X34596775Y-72490988D01*
X34614426Y-72474210D01*
X34638101Y-72455713D01*
X34642951Y-72451924D01*
X34777564Y-72295972D01*
X34798387Y-72259318D01*
X34876276Y-72122207D01*
X34879323Y-72116844D01*
X34944351Y-71921363D01*
X34970171Y-71716974D01*
X34970390Y-71701306D01*
X34970534Y-71691022D01*
X34970534Y-71691018D01*
X34970583Y-71687500D01*
X34950480Y-71482470D01*
X34890935Y-71285249D01*
X34794218Y-71103349D01*
X34711473Y-71001894D01*
X34667906Y-70948475D01*
X34667903Y-70948472D01*
X34664011Y-70943700D01*
X34646786Y-70929450D01*
X34510025Y-70816311D01*
X34510021Y-70816309D01*
X34505275Y-70812382D01*
X34324055Y-70714397D01*
X34127254Y-70653477D01*
X34121129Y-70652833D01*
X34121128Y-70652833D01*
X33928498Y-70632587D01*
X33928496Y-70632587D01*
X33922369Y-70631943D01*
X33835529Y-70639846D01*
X33723342Y-70650055D01*
X33723339Y-70650056D01*
X33717203Y-70650614D01*
X33519572Y-70708780D01*
X33337002Y-70804226D01*
X33332201Y-70808086D01*
X33332198Y-70808088D01*
X33181254Y-70929450D01*
X33176447Y-70933315D01*
X33044024Y-71091130D01*
X33041056Y-71096528D01*
X33041053Y-71096533D01*
X32956348Y-71250613D01*
X32944776Y-71271662D01*
X32882484Y-71468032D01*
X32881798Y-71474149D01*
X32881797Y-71474153D01*
X32874949Y-71535208D01*
X32847478Y-71600675D01*
X32788974Y-71640897D01*
X32718012Y-71643104D01*
X32657121Y-71606596D01*
X32625634Y-71542964D01*
X32624213Y-71532145D01*
X32619099Y-71473696D01*
X32617196Y-71462901D01*
X32563072Y-71260905D01*
X32559326Y-71250613D01*
X32470946Y-71061083D01*
X32465466Y-71051593D01*
X32436589Y-71010351D01*
X32426113Y-71001977D01*
X32412666Y-71009045D01*
X31734210Y-71687500D01*
X31464095Y-71957616D01*
X31401783Y-71991641D01*
X31330967Y-71986576D01*
X31285905Y-71957615D01*
X31015790Y-71687500D01*
X30336613Y-71008324D01*
X30324839Y-71001894D01*
X30312824Y-71011190D01*
X30284534Y-71051593D01*
X30279054Y-71061083D01*
X30190674Y-71250613D01*
X30186928Y-71260905D01*
X30132804Y-71462901D01*
X30130901Y-71473696D01*
X30112674Y-71682025D01*
X30112674Y-71692975D01*
X30130901Y-71901304D01*
X30132804Y-71912099D01*
X30186928Y-72114095D01*
X30190674Y-72124387D01*
X30279056Y-72313921D01*
X30284534Y-72323407D01*
X30407635Y-72499215D01*
X30406053Y-72500323D01*
X30431098Y-72557542D01*
X30419885Y-72627647D01*
X30372550Y-72680561D01*
X30306113Y-72699500D01*
X28426500Y-72699500D01*
X28358379Y-72679498D01*
X28311886Y-72625842D01*
X28300500Y-72573500D01*
X28300500Y-70636387D01*
X30689477Y-70636387D01*
X30696545Y-70649834D01*
X31362189Y-71315479D01*
X31376132Y-71323092D01*
X31377966Y-71322961D01*
X31384580Y-71318710D01*
X32054180Y-70649109D01*
X32060607Y-70637339D01*
X32051313Y-70625325D01*
X32010912Y-70597036D01*
X32001416Y-70591553D01*
X31811887Y-70503174D01*
X31801595Y-70499428D01*
X31599599Y-70445304D01*
X31588804Y-70443401D01*
X31380475Y-70425174D01*
X31369525Y-70425174D01*
X31161196Y-70443401D01*
X31150401Y-70445304D01*
X30948405Y-70499428D01*
X30938113Y-70503174D01*
X30748583Y-70591554D01*
X30739093Y-70597034D01*
X30697851Y-70625911D01*
X30689477Y-70636387D01*
X28300500Y-70636387D01*
X28300500Y-70089678D01*
X47989820Y-70089678D01*
X48004804Y-70361946D01*
X48058001Y-70629385D01*
X48148350Y-70886661D01*
X48274048Y-71128641D01*
X48276631Y-71132256D01*
X48276635Y-71132262D01*
X48429999Y-71346874D01*
X48432587Y-71350495D01*
X48620805Y-71547797D01*
X48624301Y-71550553D01*
X48624302Y-71550554D01*
X48802485Y-71691022D01*
X48834944Y-71716611D01*
X48895912Y-71752024D01*
X49066880Y-71851331D01*
X49066886Y-71851334D01*
X49070734Y-71853569D01*
X49223002Y-71915244D01*
X49319337Y-71954264D01*
X49319340Y-71954265D01*
X49323468Y-71955937D01*
X49467204Y-71991641D01*
X49583780Y-72020599D01*
X49583785Y-72020600D01*
X49588105Y-72021673D01*
X49820664Y-72045500D01*
X49989458Y-72045500D01*
X50191998Y-72031159D01*
X50196353Y-72030221D01*
X50196356Y-72030221D01*
X50454222Y-71974704D01*
X50454224Y-71974704D01*
X50458569Y-71973768D01*
X50714395Y-71879389D01*
X50954370Y-71749906D01*
X51038861Y-71687500D01*
X51170129Y-71590543D01*
X51173706Y-71587901D01*
X51368028Y-71396608D01*
X51424234Y-71322961D01*
X51530756Y-71183385D01*
X51530759Y-71183381D01*
X51533458Y-71179844D01*
X51599967Y-71061083D01*
X51664516Y-70945822D01*
X51664519Y-70945817D01*
X51666694Y-70941932D01*
X51689698Y-70882471D01*
X51763473Y-70691776D01*
X51763475Y-70691770D01*
X51765080Y-70687621D01*
X51773144Y-70652833D01*
X51807832Y-70503174D01*
X51826651Y-70421984D01*
X51850180Y-70150322D01*
X51846843Y-70089678D01*
X58149820Y-70089678D01*
X58164804Y-70361946D01*
X58218001Y-70629385D01*
X58308350Y-70886661D01*
X58434048Y-71128641D01*
X58436631Y-71132256D01*
X58436635Y-71132262D01*
X58589999Y-71346874D01*
X58592587Y-71350495D01*
X58780805Y-71547797D01*
X58784301Y-71550553D01*
X58784302Y-71550554D01*
X58962485Y-71691022D01*
X58994944Y-71716611D01*
X59055912Y-71752024D01*
X59226880Y-71851331D01*
X59226886Y-71851334D01*
X59230734Y-71853569D01*
X59383002Y-71915244D01*
X59479337Y-71954264D01*
X59479340Y-71954265D01*
X59483468Y-71955937D01*
X59627204Y-71991641D01*
X59743780Y-72020599D01*
X59743785Y-72020600D01*
X59748105Y-72021673D01*
X59980664Y-72045500D01*
X60149458Y-72045500D01*
X60351998Y-72031159D01*
X60356353Y-72030221D01*
X60356356Y-72030221D01*
X60614222Y-71974704D01*
X60614224Y-71974704D01*
X60618569Y-71973768D01*
X60874395Y-71879389D01*
X61114370Y-71749906D01*
X61198861Y-71687500D01*
X61330129Y-71590543D01*
X61333706Y-71587901D01*
X61528028Y-71396608D01*
X61584234Y-71322961D01*
X61690756Y-71183385D01*
X61690759Y-71183381D01*
X61693458Y-71179844D01*
X61759967Y-71061083D01*
X61824516Y-70945822D01*
X61824519Y-70945817D01*
X61826694Y-70941932D01*
X61849698Y-70882471D01*
X61923473Y-70691776D01*
X61923475Y-70691770D01*
X61925080Y-70687621D01*
X61933144Y-70652833D01*
X61967832Y-70503174D01*
X61986651Y-70421984D01*
X62010180Y-70150322D01*
X62006843Y-70089678D01*
X62989820Y-70089678D01*
X63004804Y-70361946D01*
X63058001Y-70629385D01*
X63148350Y-70886661D01*
X63274048Y-71128641D01*
X63276631Y-71132256D01*
X63276635Y-71132262D01*
X63429999Y-71346874D01*
X63432587Y-71350495D01*
X63620805Y-71547797D01*
X63624301Y-71550553D01*
X63624302Y-71550554D01*
X63802485Y-71691022D01*
X63834944Y-71716611D01*
X63895912Y-71752024D01*
X64066880Y-71851331D01*
X64066886Y-71851334D01*
X64070734Y-71853569D01*
X64223002Y-71915244D01*
X64319337Y-71954264D01*
X64319340Y-71954265D01*
X64323468Y-71955937D01*
X64467204Y-71991641D01*
X64583780Y-72020599D01*
X64583785Y-72020600D01*
X64588105Y-72021673D01*
X64820664Y-72045500D01*
X64989458Y-72045500D01*
X65191998Y-72031159D01*
X65196353Y-72030221D01*
X65196356Y-72030221D01*
X65454222Y-71974704D01*
X65454224Y-71974704D01*
X65458569Y-71973768D01*
X65714395Y-71879389D01*
X65954370Y-71749906D01*
X66038861Y-71687500D01*
X66170129Y-71590543D01*
X66173706Y-71587901D01*
X66368028Y-71396608D01*
X66424234Y-71322961D01*
X66530756Y-71183385D01*
X66530759Y-71183381D01*
X66533458Y-71179844D01*
X66599967Y-71061083D01*
X66664516Y-70945822D01*
X66664519Y-70945817D01*
X66666694Y-70941932D01*
X66689698Y-70882471D01*
X66763473Y-70691776D01*
X66763475Y-70691770D01*
X66765080Y-70687621D01*
X66773144Y-70652833D01*
X66807832Y-70503174D01*
X66826651Y-70421984D01*
X66850180Y-70150322D01*
X66846843Y-70089678D01*
X73149820Y-70089678D01*
X73164804Y-70361946D01*
X73218001Y-70629385D01*
X73308350Y-70886661D01*
X73434048Y-71128641D01*
X73436631Y-71132256D01*
X73436635Y-71132262D01*
X73589999Y-71346874D01*
X73592587Y-71350495D01*
X73780805Y-71547797D01*
X73784301Y-71550553D01*
X73784302Y-71550554D01*
X73962485Y-71691022D01*
X73994944Y-71716611D01*
X74055912Y-71752024D01*
X74226880Y-71851331D01*
X74226886Y-71851334D01*
X74230734Y-71853569D01*
X74383002Y-71915244D01*
X74479337Y-71954264D01*
X74479340Y-71954265D01*
X74483468Y-71955937D01*
X74627204Y-71991641D01*
X74743780Y-72020599D01*
X74743785Y-72020600D01*
X74748105Y-72021673D01*
X74980664Y-72045500D01*
X75149458Y-72045500D01*
X75351998Y-72031159D01*
X75356353Y-72030221D01*
X75356356Y-72030221D01*
X75614222Y-71974704D01*
X75614224Y-71974704D01*
X75618569Y-71973768D01*
X75874395Y-71879389D01*
X76114370Y-71749906D01*
X76198861Y-71687500D01*
X76330129Y-71590543D01*
X76333706Y-71587901D01*
X76528028Y-71396608D01*
X76584234Y-71322961D01*
X76690756Y-71183385D01*
X76690759Y-71183381D01*
X76693458Y-71179844D01*
X76759967Y-71061083D01*
X76824516Y-70945822D01*
X76824519Y-70945817D01*
X76826694Y-70941932D01*
X76849698Y-70882471D01*
X76923473Y-70691776D01*
X76923475Y-70691770D01*
X76925080Y-70687621D01*
X76933144Y-70652833D01*
X76967832Y-70503174D01*
X76986651Y-70421984D01*
X77010180Y-70150322D01*
X76995196Y-69878054D01*
X76941999Y-69610615D01*
X76851650Y-69353339D01*
X76725952Y-69111359D01*
X76723369Y-69107744D01*
X76723365Y-69107738D01*
X76570001Y-68893126D01*
X76569998Y-68893122D01*
X76567413Y-68889505D01*
X76379195Y-68692203D01*
X76375698Y-68689446D01*
X76168551Y-68526144D01*
X76168549Y-68526142D01*
X76165056Y-68523389D01*
X75986240Y-68419524D01*
X75933120Y-68388669D01*
X75933114Y-68388666D01*
X75929266Y-68386431D01*
X75763992Y-68319488D01*
X75680663Y-68285736D01*
X75680660Y-68285735D01*
X75676532Y-68284063D01*
X75509425Y-68242554D01*
X75416220Y-68219401D01*
X75416215Y-68219400D01*
X75411895Y-68218327D01*
X75179336Y-68194500D01*
X75010542Y-68194500D01*
X74808002Y-68208841D01*
X74803647Y-68209779D01*
X74803644Y-68209779D01*
X74545778Y-68265296D01*
X74545776Y-68265296D01*
X74541431Y-68266232D01*
X74285605Y-68360611D01*
X74045630Y-68490094D01*
X73826294Y-68652099D01*
X73631972Y-68843392D01*
X73466542Y-69060156D01*
X73333306Y-69298068D01*
X73234920Y-69552379D01*
X73173349Y-69818016D01*
X73149820Y-70089678D01*
X66846843Y-70089678D01*
X66835196Y-69878054D01*
X66781999Y-69610615D01*
X66691650Y-69353339D01*
X66565952Y-69111359D01*
X66563369Y-69107744D01*
X66563365Y-69107738D01*
X66410001Y-68893126D01*
X66409998Y-68893122D01*
X66407413Y-68889505D01*
X66219195Y-68692203D01*
X66215698Y-68689446D01*
X66008551Y-68526144D01*
X66008549Y-68526142D01*
X66005056Y-68523389D01*
X65826240Y-68419524D01*
X65773120Y-68388669D01*
X65773114Y-68388666D01*
X65769266Y-68386431D01*
X65603992Y-68319488D01*
X65520663Y-68285736D01*
X65520660Y-68285735D01*
X65516532Y-68284063D01*
X65349425Y-68242554D01*
X65256220Y-68219401D01*
X65256215Y-68219400D01*
X65251895Y-68218327D01*
X65019336Y-68194500D01*
X64850542Y-68194500D01*
X64648002Y-68208841D01*
X64643647Y-68209779D01*
X64643644Y-68209779D01*
X64385778Y-68265296D01*
X64385776Y-68265296D01*
X64381431Y-68266232D01*
X64125605Y-68360611D01*
X63885630Y-68490094D01*
X63666294Y-68652099D01*
X63471972Y-68843392D01*
X63306542Y-69060156D01*
X63173306Y-69298068D01*
X63074920Y-69552379D01*
X63013349Y-69818016D01*
X62989820Y-70089678D01*
X62006843Y-70089678D01*
X61995196Y-69878054D01*
X61941999Y-69610615D01*
X61851650Y-69353339D01*
X61725952Y-69111359D01*
X61723369Y-69107744D01*
X61723365Y-69107738D01*
X61570001Y-68893126D01*
X61569998Y-68893122D01*
X61567413Y-68889505D01*
X61379195Y-68692203D01*
X61375698Y-68689446D01*
X61168551Y-68526144D01*
X61168549Y-68526142D01*
X61165056Y-68523389D01*
X60986240Y-68419524D01*
X60933120Y-68388669D01*
X60933114Y-68388666D01*
X60929266Y-68386431D01*
X60763992Y-68319488D01*
X60680663Y-68285736D01*
X60680660Y-68285735D01*
X60676532Y-68284063D01*
X60509425Y-68242554D01*
X60416220Y-68219401D01*
X60416215Y-68219400D01*
X60411895Y-68218327D01*
X60179336Y-68194500D01*
X60010542Y-68194500D01*
X59808002Y-68208841D01*
X59803647Y-68209779D01*
X59803644Y-68209779D01*
X59545778Y-68265296D01*
X59545776Y-68265296D01*
X59541431Y-68266232D01*
X59285605Y-68360611D01*
X59045630Y-68490094D01*
X58826294Y-68652099D01*
X58631972Y-68843392D01*
X58466542Y-69060156D01*
X58333306Y-69298068D01*
X58234920Y-69552379D01*
X58173349Y-69818016D01*
X58149820Y-70089678D01*
X51846843Y-70089678D01*
X51835196Y-69878054D01*
X51781999Y-69610615D01*
X51691650Y-69353339D01*
X51565952Y-69111359D01*
X51563369Y-69107744D01*
X51563365Y-69107738D01*
X51410001Y-68893126D01*
X51409998Y-68893122D01*
X51407413Y-68889505D01*
X51219195Y-68692203D01*
X51215698Y-68689446D01*
X51008551Y-68526144D01*
X51008549Y-68526142D01*
X51005056Y-68523389D01*
X50826240Y-68419524D01*
X50773120Y-68388669D01*
X50773114Y-68388666D01*
X50769266Y-68386431D01*
X50603992Y-68319488D01*
X50520663Y-68285736D01*
X50520660Y-68285735D01*
X50516532Y-68284063D01*
X50349425Y-68242554D01*
X50256220Y-68219401D01*
X50256215Y-68219400D01*
X50251895Y-68218327D01*
X50019336Y-68194500D01*
X49850542Y-68194500D01*
X49648002Y-68208841D01*
X49643647Y-68209779D01*
X49643644Y-68209779D01*
X49385778Y-68265296D01*
X49385776Y-68265296D01*
X49381431Y-68266232D01*
X49125605Y-68360611D01*
X48885630Y-68490094D01*
X48666294Y-68652099D01*
X48471972Y-68843392D01*
X48306542Y-69060156D01*
X48173306Y-69298068D01*
X48074920Y-69552379D01*
X48013349Y-69818016D01*
X47989820Y-70089678D01*
X28300500Y-70089678D01*
X28300500Y-65146633D01*
X29210612Y-65146633D01*
X29219325Y-65158153D01*
X29317018Y-65229784D01*
X29324928Y-65234727D01*
X29547890Y-65352033D01*
X29556453Y-65355756D01*
X29794304Y-65438818D01*
X29803313Y-65441232D01*
X30050842Y-65488227D01*
X30060098Y-65489281D01*
X30311857Y-65499173D01*
X30321171Y-65498847D01*
X30571615Y-65471420D01*
X30580791Y-65469719D01*
X30585836Y-65468391D01*
X30656805Y-65470392D01*
X30715425Y-65510444D01*
X30743086Y-65575831D01*
X30731006Y-65645792D01*
X30718076Y-65666682D01*
X30671542Y-65727656D01*
X30538306Y-65965568D01*
X30439920Y-66219879D01*
X30378349Y-66485516D01*
X30354820Y-66757178D01*
X30369804Y-67029446D01*
X30423001Y-67296885D01*
X30513350Y-67554161D01*
X30639048Y-67796141D01*
X30641631Y-67799756D01*
X30641635Y-67799762D01*
X30794999Y-68014374D01*
X30797587Y-68017995D01*
X30985805Y-68215297D01*
X30989301Y-68218053D01*
X30989302Y-68218054D01*
X31168180Y-68359070D01*
X31199944Y-68384111D01*
X31260912Y-68419524D01*
X31431880Y-68518831D01*
X31431886Y-68518834D01*
X31435734Y-68521069D01*
X31601008Y-68588012D01*
X31684337Y-68621764D01*
X31684340Y-68621765D01*
X31688468Y-68623437D01*
X31816411Y-68655218D01*
X31948780Y-68688099D01*
X31948785Y-68688100D01*
X31953105Y-68689173D01*
X32185664Y-68713000D01*
X32354458Y-68713000D01*
X32556998Y-68698659D01*
X32561353Y-68697721D01*
X32561356Y-68697721D01*
X32819222Y-68642204D01*
X32819224Y-68642204D01*
X32823569Y-68641268D01*
X33079395Y-68546889D01*
X33319370Y-68417406D01*
X33538706Y-68255401D01*
X33733028Y-68064108D01*
X33898458Y-67847344D01*
X34031694Y-67609432D01*
X34130080Y-67355121D01*
X34191651Y-67089484D01*
X34215180Y-66817822D01*
X34211843Y-66757178D01*
X41784820Y-66757178D01*
X41799804Y-67029446D01*
X41853001Y-67296885D01*
X41943350Y-67554161D01*
X42069048Y-67796141D01*
X42071631Y-67799756D01*
X42071635Y-67799762D01*
X42224999Y-68014374D01*
X42227587Y-68017995D01*
X42415805Y-68215297D01*
X42419301Y-68218053D01*
X42419302Y-68218054D01*
X42598180Y-68359070D01*
X42629944Y-68384111D01*
X42690912Y-68419524D01*
X42861880Y-68518831D01*
X42861886Y-68518834D01*
X42865734Y-68521069D01*
X43031008Y-68588012D01*
X43114337Y-68621764D01*
X43114340Y-68621765D01*
X43118468Y-68623437D01*
X43246411Y-68655218D01*
X43378780Y-68688099D01*
X43378785Y-68688100D01*
X43383105Y-68689173D01*
X43615664Y-68713000D01*
X43784458Y-68713000D01*
X43986998Y-68698659D01*
X43991353Y-68697721D01*
X43991356Y-68697721D01*
X44249222Y-68642204D01*
X44249224Y-68642204D01*
X44253569Y-68641268D01*
X44509395Y-68546889D01*
X44749370Y-68417406D01*
X44968706Y-68255401D01*
X45163028Y-68064108D01*
X45328458Y-67847344D01*
X45461694Y-67609432D01*
X45560080Y-67355121D01*
X45621651Y-67089484D01*
X45645180Y-66817822D01*
X45630196Y-66545554D01*
X45576999Y-66278115D01*
X45486650Y-66020839D01*
X45360952Y-65778859D01*
X45358369Y-65775244D01*
X45358365Y-65775238D01*
X45275121Y-65658750D01*
X45251789Y-65591697D01*
X45268412Y-65522674D01*
X45319713Y-65473595D01*
X45389404Y-65460043D01*
X45401138Y-65461703D01*
X45540842Y-65488227D01*
X45550098Y-65489281D01*
X45801857Y-65499173D01*
X45811171Y-65498847D01*
X46061615Y-65471420D01*
X46070792Y-65469719D01*
X46314431Y-65405574D01*
X46323251Y-65402537D01*
X46554736Y-65303083D01*
X46563008Y-65298776D01*
X46777249Y-65166200D01*
X46784188Y-65161158D01*
X46792518Y-65148519D01*
X46786456Y-65138166D01*
X45386922Y-63738632D01*
X46109408Y-63738632D01*
X46109539Y-63740465D01*
X46113790Y-63747080D01*
X47144913Y-64778203D01*
X47157293Y-64784963D01*
X47165634Y-64778719D01*
X47291765Y-64582627D01*
X47296212Y-64574436D01*
X47399691Y-64344722D01*
X47402882Y-64335955D01*
X47471269Y-64093476D01*
X47473129Y-64084334D01*
X47505116Y-63832896D01*
X47505597Y-63826608D01*
X47507468Y-63755121D01*
X52034473Y-63755121D01*
X52035971Y-63772965D01*
X52050270Y-63943238D01*
X52051876Y-63962367D01*
X52109201Y-64162285D01*
X52112019Y-64167767D01*
X52112020Y-64167771D01*
X52201446Y-64341775D01*
X52201449Y-64341779D01*
X52204266Y-64347261D01*
X52333449Y-64510249D01*
X52338143Y-64514244D01*
X52471449Y-64627696D01*
X52491830Y-64645042D01*
X52497208Y-64648048D01*
X52497210Y-64648049D01*
X52613981Y-64713310D01*
X52673376Y-64746505D01*
X52871171Y-64810772D01*
X53077683Y-64835397D01*
X53083818Y-64834925D01*
X53083820Y-64834925D01*
X53278904Y-64819915D01*
X53278909Y-64819914D01*
X53285045Y-64819442D01*
X53290977Y-64817786D01*
X53290981Y-64817785D01*
X53479414Y-64765173D01*
X53479418Y-64765172D01*
X53485358Y-64763513D01*
X53490862Y-64760733D01*
X53490864Y-64760732D01*
X53665493Y-64672521D01*
X53665495Y-64672520D01*
X53670994Y-64669742D01*
X53834880Y-64541700D01*
X53852113Y-64521736D01*
X53909169Y-64455635D01*
X53970775Y-64384264D01*
X53973818Y-64378907D01*
X53973821Y-64378903D01*
X54068050Y-64213028D01*
X54073502Y-64203431D01*
X54085622Y-64166999D01*
X54137202Y-64011941D01*
X54139149Y-64006089D01*
X54161029Y-63832896D01*
X54164774Y-63803256D01*
X54164775Y-63803249D01*
X54165216Y-63799754D01*
X54165631Y-63770000D01*
X54164172Y-63755121D01*
X54574473Y-63755121D01*
X54575971Y-63772965D01*
X54590270Y-63943238D01*
X54591876Y-63962367D01*
X54649201Y-64162285D01*
X54652019Y-64167767D01*
X54652020Y-64167771D01*
X54741446Y-64341775D01*
X54741449Y-64341779D01*
X54744266Y-64347261D01*
X54873449Y-64510249D01*
X54878143Y-64514244D01*
X55011449Y-64627696D01*
X55031830Y-64645042D01*
X55037208Y-64648048D01*
X55037210Y-64648049D01*
X55153981Y-64713310D01*
X55213376Y-64746505D01*
X55411171Y-64810772D01*
X55617683Y-64835397D01*
X55623818Y-64834925D01*
X55623820Y-64834925D01*
X55722376Y-64827342D01*
X57487213Y-64827342D01*
X57496509Y-64839357D01*
X57539069Y-64869158D01*
X57548565Y-64874641D01*
X57739680Y-64963759D01*
X57749972Y-64967505D01*
X57953660Y-65022083D01*
X57964453Y-65023986D01*
X58174525Y-65042365D01*
X58185475Y-65042365D01*
X58395547Y-65023986D01*
X58406340Y-65022083D01*
X58610028Y-64967505D01*
X58620320Y-64963759D01*
X58811435Y-64874641D01*
X58820931Y-64869158D01*
X58864329Y-64838770D01*
X58872704Y-64828293D01*
X58865635Y-64814845D01*
X58192812Y-64142022D01*
X58178868Y-64134408D01*
X58177035Y-64134539D01*
X58170420Y-64138790D01*
X57493643Y-64815567D01*
X57487213Y-64827342D01*
X55722376Y-64827342D01*
X55818904Y-64819915D01*
X55818909Y-64819914D01*
X55825045Y-64819442D01*
X55830977Y-64817786D01*
X55830981Y-64817785D01*
X56019414Y-64765173D01*
X56019418Y-64765172D01*
X56025358Y-64763513D01*
X56030862Y-64760733D01*
X56030864Y-64760732D01*
X56205493Y-64672521D01*
X56205495Y-64672520D01*
X56210994Y-64669742D01*
X56374880Y-64541700D01*
X56392113Y-64521736D01*
X56449169Y-64455635D01*
X56510775Y-64384264D01*
X56513818Y-64378907D01*
X56513821Y-64378903D01*
X56608050Y-64213028D01*
X56613502Y-64203431D01*
X56625622Y-64166999D01*
X56677202Y-64011941D01*
X56679149Y-64006089D01*
X56679922Y-63999968D01*
X56681286Y-63993966D01*
X56683853Y-63994549D01*
X56707662Y-63939955D01*
X56766720Y-63900551D01*
X56837707Y-63899332D01*
X56898083Y-63936685D01*
X56924752Y-63991493D01*
X56926493Y-63991027D01*
X56982495Y-64200028D01*
X56986241Y-64210320D01*
X57075359Y-64401435D01*
X57080842Y-64410931D01*
X57111230Y-64454329D01*
X57121707Y-64462704D01*
X57135155Y-64455635D01*
X57807978Y-63782812D01*
X57814356Y-63771132D01*
X58544408Y-63771132D01*
X58544539Y-63772965D01*
X58548790Y-63779580D01*
X59225567Y-64456357D01*
X59237342Y-64462787D01*
X59249357Y-64453491D01*
X59279158Y-64410931D01*
X59284641Y-64401435D01*
X59373759Y-64210320D01*
X59377505Y-64200028D01*
X59432083Y-63996340D01*
X59433986Y-63985547D01*
X59452365Y-63775475D01*
X59452365Y-63764525D01*
X59451542Y-63755121D01*
X67034473Y-63755121D01*
X67035971Y-63772965D01*
X67050270Y-63943238D01*
X67051876Y-63962367D01*
X67109201Y-64162285D01*
X67112019Y-64167767D01*
X67112020Y-64167771D01*
X67201446Y-64341775D01*
X67201449Y-64341779D01*
X67204266Y-64347261D01*
X67333449Y-64510249D01*
X67338143Y-64514244D01*
X67471449Y-64627696D01*
X67491830Y-64645042D01*
X67497208Y-64648048D01*
X67497210Y-64648049D01*
X67613981Y-64713310D01*
X67673376Y-64746505D01*
X67871171Y-64810772D01*
X68077683Y-64835397D01*
X68083818Y-64834925D01*
X68083820Y-64834925D01*
X68278904Y-64819915D01*
X68278909Y-64819914D01*
X68285045Y-64819442D01*
X68290977Y-64817786D01*
X68290981Y-64817785D01*
X68479414Y-64765173D01*
X68479418Y-64765172D01*
X68485358Y-64763513D01*
X68490862Y-64760733D01*
X68490864Y-64760732D01*
X68665493Y-64672521D01*
X68665495Y-64672520D01*
X68670994Y-64669742D01*
X68834880Y-64541700D01*
X68852113Y-64521736D01*
X68909169Y-64455635D01*
X68970775Y-64384264D01*
X68973818Y-64378907D01*
X68973821Y-64378903D01*
X69068050Y-64213028D01*
X69073502Y-64203431D01*
X69085622Y-64166999D01*
X69137202Y-64011941D01*
X69139149Y-64006089D01*
X69161029Y-63832896D01*
X69164774Y-63803256D01*
X69164775Y-63803249D01*
X69165216Y-63799754D01*
X69165631Y-63770000D01*
X69164172Y-63755121D01*
X69574473Y-63755121D01*
X69575971Y-63772965D01*
X69590270Y-63943238D01*
X69591876Y-63962367D01*
X69649201Y-64162285D01*
X69652019Y-64167767D01*
X69652020Y-64167771D01*
X69741446Y-64341775D01*
X69741449Y-64341779D01*
X69744266Y-64347261D01*
X69873449Y-64510249D01*
X69878143Y-64514244D01*
X70011449Y-64627696D01*
X70031830Y-64645042D01*
X70037208Y-64648048D01*
X70037210Y-64648049D01*
X70153981Y-64713310D01*
X70213376Y-64746505D01*
X70411171Y-64810772D01*
X70617683Y-64835397D01*
X70623818Y-64834925D01*
X70623820Y-64834925D01*
X70818904Y-64819915D01*
X70818909Y-64819914D01*
X70825045Y-64819442D01*
X70830977Y-64817786D01*
X70830981Y-64817785D01*
X71019414Y-64765173D01*
X71019418Y-64765172D01*
X71025358Y-64763513D01*
X71030862Y-64760733D01*
X71030864Y-64760732D01*
X71205493Y-64672521D01*
X71205495Y-64672520D01*
X71210994Y-64669742D01*
X71374880Y-64541700D01*
X71392113Y-64521736D01*
X71449169Y-64455635D01*
X71510775Y-64384264D01*
X71513818Y-64378907D01*
X71513821Y-64378903D01*
X71608050Y-64213028D01*
X71613502Y-64203431D01*
X71625622Y-64166999D01*
X71677202Y-64011941D01*
X71679149Y-64006089D01*
X71701029Y-63832896D01*
X71704774Y-63803256D01*
X71704775Y-63803249D01*
X71705216Y-63799754D01*
X71705631Y-63770000D01*
X71704172Y-63755121D01*
X72114473Y-63755121D01*
X72115971Y-63772965D01*
X72130270Y-63943238D01*
X72131876Y-63962367D01*
X72189201Y-64162285D01*
X72192019Y-64167767D01*
X72192020Y-64167771D01*
X72281446Y-64341775D01*
X72281449Y-64341779D01*
X72284266Y-64347261D01*
X72413449Y-64510249D01*
X72418143Y-64514244D01*
X72551449Y-64627696D01*
X72571830Y-64645042D01*
X72577208Y-64648048D01*
X72577210Y-64648049D01*
X72693981Y-64713310D01*
X72753376Y-64746505D01*
X72951171Y-64810772D01*
X73157683Y-64835397D01*
X73163818Y-64834925D01*
X73163820Y-64834925D01*
X73358904Y-64819915D01*
X73358909Y-64819914D01*
X73365045Y-64819442D01*
X73370977Y-64817786D01*
X73370981Y-64817785D01*
X73559414Y-64765173D01*
X73559418Y-64765172D01*
X73565358Y-64763513D01*
X73570862Y-64760733D01*
X73570864Y-64760732D01*
X73745493Y-64672521D01*
X73745495Y-64672520D01*
X73750994Y-64669742D01*
X73914880Y-64541700D01*
X73932113Y-64521736D01*
X73989169Y-64455635D01*
X74050775Y-64384264D01*
X74053818Y-64378907D01*
X74053821Y-64378903D01*
X74148050Y-64213028D01*
X74153502Y-64203431D01*
X74165622Y-64166999D01*
X74217202Y-64011941D01*
X74219149Y-64006089D01*
X74241029Y-63832896D01*
X74244774Y-63803256D01*
X74244775Y-63803249D01*
X74245216Y-63799754D01*
X74245631Y-63770000D01*
X74225336Y-63563018D01*
X74219492Y-63543660D01*
X74167006Y-63369819D01*
X74165225Y-63363920D01*
X74147019Y-63329680D01*
X74070481Y-63185731D01*
X74070479Y-63185728D01*
X74067587Y-63180289D01*
X74063697Y-63175519D01*
X74063694Y-63175515D01*
X73940036Y-63023895D01*
X73940033Y-63023892D01*
X73936141Y-63019120D01*
X73931392Y-63015191D01*
X73780643Y-62890481D01*
X73780640Y-62890479D01*
X73775893Y-62886552D01*
X73592949Y-62787634D01*
X73394275Y-62726134D01*
X73388150Y-62725490D01*
X73388149Y-62725490D01*
X73193568Y-62705039D01*
X73193566Y-62705039D01*
X73187439Y-62704395D01*
X73124026Y-62710166D01*
X72986460Y-62722685D01*
X72986457Y-62722686D01*
X72980321Y-62723244D01*
X72974415Y-62724982D01*
X72974411Y-62724983D01*
X72869909Y-62755740D01*
X72780808Y-62781964D01*
X72596500Y-62878318D01*
X72434417Y-63008636D01*
X72430459Y-63013353D01*
X72430457Y-63013355D01*
X72370873Y-63084365D01*
X72300733Y-63167954D01*
X72297769Y-63173346D01*
X72297766Y-63173350D01*
X72203508Y-63344806D01*
X72200541Y-63350203D01*
X72137656Y-63548443D01*
X72136970Y-63554560D01*
X72136969Y-63554564D01*
X72116323Y-63738632D01*
X72114473Y-63755121D01*
X71704172Y-63755121D01*
X71685336Y-63563018D01*
X71679492Y-63543660D01*
X71627006Y-63369819D01*
X71625225Y-63363920D01*
X71607019Y-63329680D01*
X71530481Y-63185731D01*
X71530479Y-63185728D01*
X71527587Y-63180289D01*
X71523697Y-63175519D01*
X71523694Y-63175515D01*
X71400036Y-63023895D01*
X71400033Y-63023892D01*
X71396141Y-63019120D01*
X71391392Y-63015191D01*
X71240643Y-62890481D01*
X71240640Y-62890479D01*
X71235893Y-62886552D01*
X71052949Y-62787634D01*
X70854275Y-62726134D01*
X70848150Y-62725490D01*
X70848149Y-62725490D01*
X70653568Y-62705039D01*
X70653566Y-62705039D01*
X70647439Y-62704395D01*
X70584026Y-62710166D01*
X70446460Y-62722685D01*
X70446457Y-62722686D01*
X70440321Y-62723244D01*
X70434415Y-62724982D01*
X70434411Y-62724983D01*
X70329909Y-62755740D01*
X70240808Y-62781964D01*
X70056500Y-62878318D01*
X69894417Y-63008636D01*
X69890459Y-63013353D01*
X69890457Y-63013355D01*
X69830873Y-63084365D01*
X69760733Y-63167954D01*
X69757769Y-63173346D01*
X69757766Y-63173350D01*
X69663508Y-63344806D01*
X69660541Y-63350203D01*
X69597656Y-63548443D01*
X69596970Y-63554560D01*
X69596969Y-63554564D01*
X69576323Y-63738632D01*
X69574473Y-63755121D01*
X69164172Y-63755121D01*
X69145336Y-63563018D01*
X69139492Y-63543660D01*
X69087006Y-63369819D01*
X69085225Y-63363920D01*
X69067019Y-63329680D01*
X68990481Y-63185731D01*
X68990479Y-63185728D01*
X68987587Y-63180289D01*
X68983697Y-63175519D01*
X68983694Y-63175515D01*
X68860036Y-63023895D01*
X68860033Y-63023892D01*
X68856141Y-63019120D01*
X68851392Y-63015191D01*
X68700643Y-62890481D01*
X68700640Y-62890479D01*
X68695893Y-62886552D01*
X68512949Y-62787634D01*
X68314275Y-62726134D01*
X68308150Y-62725490D01*
X68308149Y-62725490D01*
X68113568Y-62705039D01*
X68113566Y-62705039D01*
X68107439Y-62704395D01*
X68044026Y-62710166D01*
X67906460Y-62722685D01*
X67906457Y-62722686D01*
X67900321Y-62723244D01*
X67894415Y-62724982D01*
X67894411Y-62724983D01*
X67789909Y-62755740D01*
X67700808Y-62781964D01*
X67516500Y-62878318D01*
X67354417Y-63008636D01*
X67350459Y-63013353D01*
X67350457Y-63013355D01*
X67290873Y-63084365D01*
X67220733Y-63167954D01*
X67217769Y-63173346D01*
X67217766Y-63173350D01*
X67123508Y-63344806D01*
X67120541Y-63350203D01*
X67057656Y-63548443D01*
X67056970Y-63554560D01*
X67056969Y-63554564D01*
X67036323Y-63738632D01*
X67034473Y-63755121D01*
X59451542Y-63755121D01*
X59433986Y-63554453D01*
X59432083Y-63543660D01*
X59377505Y-63339972D01*
X59373759Y-63329680D01*
X59284641Y-63138565D01*
X59279158Y-63129069D01*
X59248770Y-63085671D01*
X59238293Y-63077296D01*
X59224845Y-63084365D01*
X58552022Y-63757188D01*
X58544408Y-63771132D01*
X57814356Y-63771132D01*
X57815592Y-63768868D01*
X57815461Y-63767035D01*
X57811210Y-63760420D01*
X57134433Y-63083643D01*
X57122658Y-63077213D01*
X57110643Y-63086509D01*
X57080842Y-63129069D01*
X57075359Y-63138565D01*
X56986241Y-63329680D01*
X56982495Y-63339972D01*
X56926493Y-63548973D01*
X56925032Y-63548581D01*
X56896628Y-63605876D01*
X56835711Y-63642340D01*
X56764750Y-63640080D01*
X56706276Y-63599815D01*
X56683457Y-63556795D01*
X56625225Y-63363920D01*
X56607019Y-63329680D01*
X56530481Y-63185731D01*
X56530479Y-63185728D01*
X56527587Y-63180289D01*
X56523697Y-63175519D01*
X56523694Y-63175515D01*
X56400036Y-63023895D01*
X56400033Y-63023892D01*
X56396141Y-63019120D01*
X56391392Y-63015191D01*
X56240643Y-62890481D01*
X56240640Y-62890479D01*
X56235893Y-62886552D01*
X56052949Y-62787634D01*
X55854275Y-62726134D01*
X55848150Y-62725490D01*
X55848149Y-62725490D01*
X55717011Y-62711707D01*
X57487296Y-62711707D01*
X57494365Y-62725155D01*
X58167188Y-63397978D01*
X58181132Y-63405592D01*
X58182965Y-63405461D01*
X58189580Y-63401210D01*
X58866357Y-62724433D01*
X58872787Y-62712658D01*
X58863491Y-62700643D01*
X58820931Y-62670842D01*
X58811435Y-62665359D01*
X58620320Y-62576241D01*
X58610028Y-62572495D01*
X58406340Y-62517917D01*
X58395547Y-62516014D01*
X58185475Y-62497635D01*
X58174525Y-62497635D01*
X57964453Y-62516014D01*
X57953660Y-62517917D01*
X57749972Y-62572495D01*
X57739680Y-62576241D01*
X57548565Y-62665359D01*
X57539069Y-62670842D01*
X57495671Y-62701230D01*
X57487296Y-62711707D01*
X55717011Y-62711707D01*
X55653568Y-62705039D01*
X55653566Y-62705039D01*
X55647439Y-62704395D01*
X55584026Y-62710166D01*
X55446460Y-62722685D01*
X55446457Y-62722686D01*
X55440321Y-62723244D01*
X55434415Y-62724982D01*
X55434411Y-62724983D01*
X55329909Y-62755740D01*
X55240808Y-62781964D01*
X55056500Y-62878318D01*
X54894417Y-63008636D01*
X54890459Y-63013353D01*
X54890457Y-63013355D01*
X54830873Y-63084365D01*
X54760733Y-63167954D01*
X54757769Y-63173346D01*
X54757766Y-63173350D01*
X54663508Y-63344806D01*
X54660541Y-63350203D01*
X54597656Y-63548443D01*
X54596970Y-63554560D01*
X54596969Y-63554564D01*
X54576323Y-63738632D01*
X54574473Y-63755121D01*
X54164172Y-63755121D01*
X54145336Y-63563018D01*
X54139492Y-63543660D01*
X54087006Y-63369819D01*
X54085225Y-63363920D01*
X54067019Y-63329680D01*
X53990481Y-63185731D01*
X53990479Y-63185728D01*
X53987587Y-63180289D01*
X53983697Y-63175519D01*
X53983694Y-63175515D01*
X53860036Y-63023895D01*
X53860033Y-63023892D01*
X53856141Y-63019120D01*
X53851392Y-63015191D01*
X53700643Y-62890481D01*
X53700640Y-62890479D01*
X53695893Y-62886552D01*
X53512949Y-62787634D01*
X53314275Y-62726134D01*
X53308150Y-62725490D01*
X53308149Y-62725490D01*
X53113568Y-62705039D01*
X53113566Y-62705039D01*
X53107439Y-62704395D01*
X53044026Y-62710166D01*
X52906460Y-62722685D01*
X52906457Y-62722686D01*
X52900321Y-62723244D01*
X52894415Y-62724982D01*
X52894411Y-62724983D01*
X52789909Y-62755740D01*
X52700808Y-62781964D01*
X52516500Y-62878318D01*
X52354417Y-63008636D01*
X52350459Y-63013353D01*
X52350457Y-63013355D01*
X52290873Y-63084365D01*
X52220733Y-63167954D01*
X52217769Y-63173346D01*
X52217766Y-63173350D01*
X52123508Y-63344806D01*
X52120541Y-63350203D01*
X52057656Y-63548443D01*
X52056970Y-63554560D01*
X52056969Y-63554564D01*
X52036323Y-63738632D01*
X52034473Y-63755121D01*
X47507468Y-63755121D01*
X47507847Y-63740660D01*
X47507696Y-63734351D01*
X47488912Y-63481574D01*
X47487536Y-63472368D01*
X47431929Y-63226626D01*
X47429205Y-63217715D01*
X47337888Y-62982892D01*
X47333877Y-62974483D01*
X47208854Y-62755740D01*
X47203643Y-62748014D01*
X47166391Y-62700761D01*
X47154466Y-62692290D01*
X47142934Y-62698776D01*
X46117022Y-63724688D01*
X46109408Y-63738632D01*
X45386922Y-63738632D01*
X44346321Y-62698031D01*
X44333013Y-62690764D01*
X44322974Y-62697886D01*
X44312761Y-62710166D01*
X44307346Y-62717758D01*
X44176646Y-62933146D01*
X44172408Y-62941463D01*
X44074981Y-63173799D01*
X44072020Y-63182649D01*
X44010006Y-63426831D01*
X44008384Y-63436028D01*
X43983143Y-63686698D01*
X43982898Y-63696023D01*
X43994987Y-63947675D01*
X43996124Y-63956935D01*
X44045274Y-64204035D01*
X44047768Y-64213028D01*
X44132900Y-64450139D01*
X44136700Y-64458674D01*
X44255946Y-64680601D01*
X44260954Y-64688462D01*
X44279509Y-64713310D01*
X44304241Y-64779859D01*
X44289069Y-64849216D01*
X44238808Y-64899359D01*
X44169416Y-64914369D01*
X44148177Y-64910985D01*
X44051220Y-64886901D01*
X44051215Y-64886900D01*
X44046895Y-64885827D01*
X43814336Y-64862000D01*
X43645542Y-64862000D01*
X43443002Y-64876341D01*
X43438647Y-64877279D01*
X43438644Y-64877279D01*
X43180778Y-64932796D01*
X43180776Y-64932796D01*
X43176431Y-64933732D01*
X42920605Y-65028111D01*
X42680630Y-65157594D01*
X42461294Y-65319599D01*
X42266972Y-65510892D01*
X42264273Y-65514429D01*
X42264270Y-65514432D01*
X42154130Y-65658750D01*
X42101542Y-65727656D01*
X41968306Y-65965568D01*
X41869920Y-66219879D01*
X41808349Y-66485516D01*
X41784820Y-66757178D01*
X34211843Y-66757178D01*
X34200196Y-66545554D01*
X34146999Y-66278115D01*
X34056650Y-66020839D01*
X33930952Y-65778859D01*
X33928369Y-65775244D01*
X33928365Y-65775238D01*
X33775001Y-65560626D01*
X33774998Y-65560622D01*
X33772413Y-65557005D01*
X33584195Y-65359703D01*
X33537280Y-65322718D01*
X33373551Y-65193644D01*
X33373549Y-65193642D01*
X33370056Y-65190889D01*
X33258966Y-65126363D01*
X33138120Y-65056169D01*
X33138114Y-65056166D01*
X33134266Y-65053931D01*
X32920891Y-64967505D01*
X32885663Y-64953236D01*
X32885660Y-64953235D01*
X32881532Y-64951563D01*
X32671372Y-64899359D01*
X32621220Y-64886901D01*
X32621215Y-64886900D01*
X32616895Y-64885827D01*
X32384336Y-64862000D01*
X32215542Y-64862000D01*
X32013002Y-64876341D01*
X32008647Y-64877279D01*
X32008644Y-64877279D01*
X31845164Y-64912475D01*
X31774359Y-64907258D01*
X31717615Y-64864589D01*
X31692947Y-64798016D01*
X31708187Y-64728675D01*
X31712674Y-64721134D01*
X31801765Y-64582627D01*
X31806212Y-64574436D01*
X31909691Y-64344722D01*
X31912882Y-64335955D01*
X31979429Y-64100000D01*
X33094318Y-64100000D01*
X33114956Y-64256762D01*
X33175464Y-64402841D01*
X33271718Y-64528282D01*
X33397159Y-64624536D01*
X33543238Y-64685044D01*
X33700000Y-64705682D01*
X33708188Y-64704604D01*
X33848574Y-64686122D01*
X33856762Y-64685044D01*
X34002841Y-64624536D01*
X34128282Y-64528282D01*
X34224536Y-64402841D01*
X34285044Y-64256762D01*
X34305682Y-64100000D01*
X34285044Y-63943238D01*
X34224536Y-63797159D01*
X34128282Y-63671718D01*
X34002841Y-63575464D01*
X33856762Y-63514956D01*
X33700000Y-63494318D01*
X33543238Y-63514956D01*
X33397159Y-63575464D01*
X33271718Y-63671718D01*
X33175464Y-63797159D01*
X33114956Y-63943238D01*
X33094318Y-64100000D01*
X31979429Y-64100000D01*
X31981269Y-64093476D01*
X31983129Y-64084334D01*
X32015116Y-63832896D01*
X32015597Y-63826608D01*
X32017847Y-63740660D01*
X32017696Y-63734351D01*
X31998912Y-63481574D01*
X31997536Y-63472368D01*
X31941929Y-63226626D01*
X31939205Y-63217715D01*
X31847888Y-62982892D01*
X31843877Y-62974483D01*
X31718854Y-62755740D01*
X31713643Y-62748014D01*
X31676391Y-62700761D01*
X31664466Y-62692290D01*
X31652934Y-62698776D01*
X29217270Y-65134440D01*
X29210612Y-65146633D01*
X28300500Y-65146633D01*
X28300500Y-64202497D01*
X28320502Y-64134376D01*
X28374158Y-64087883D01*
X28444432Y-64077779D01*
X28509012Y-64107273D01*
X28547396Y-64166999D01*
X28550079Y-64177916D01*
X28555274Y-64204035D01*
X28557768Y-64213028D01*
X28642900Y-64450139D01*
X28646700Y-64458674D01*
X28765946Y-64680601D01*
X28770957Y-64688468D01*
X28834446Y-64773490D01*
X28845704Y-64781939D01*
X28858123Y-64775167D01*
X29882978Y-63750312D01*
X29890592Y-63736368D01*
X29890461Y-63734535D01*
X29886210Y-63727920D01*
X28856321Y-62698031D01*
X28843013Y-62690764D01*
X28832974Y-62697886D01*
X28822761Y-62710166D01*
X28817346Y-62717758D01*
X28686646Y-62933146D01*
X28682408Y-62941463D01*
X28584981Y-63173799D01*
X28582020Y-63182649D01*
X28548623Y-63314151D01*
X28512468Y-63375252D01*
X28449019Y-63407107D01*
X28378420Y-63399602D01*
X28323087Y-63355120D01*
X28300500Y-63283136D01*
X28300500Y-62326303D01*
X29208216Y-62326303D01*
X29212789Y-62336079D01*
X30242188Y-63365478D01*
X30256132Y-63373092D01*
X30257965Y-63372961D01*
X30264580Y-63368710D01*
X31293419Y-62339871D01*
X31299803Y-62328181D01*
X31298344Y-62326303D01*
X44698216Y-62326303D01*
X44702789Y-62336079D01*
X45732188Y-63365478D01*
X45746132Y-63373092D01*
X45747965Y-63372961D01*
X45754580Y-63368710D01*
X46783419Y-62339871D01*
X46789803Y-62328181D01*
X46780391Y-62316070D01*
X46643593Y-62221170D01*
X46635565Y-62216442D01*
X46409593Y-62105005D01*
X46400960Y-62101517D01*
X46192054Y-62034646D01*
X50769500Y-62034646D01*
X50772618Y-62060846D01*
X50776456Y-62069486D01*
X50776456Y-62069487D01*
X50790475Y-62101049D01*
X50818061Y-62163153D01*
X50897287Y-62242241D01*
X50907924Y-62246944D01*
X50907926Y-62246945D01*
X50957515Y-62268868D01*
X50999673Y-62287506D01*
X51025354Y-62290500D01*
X52634646Y-62290500D01*
X52638350Y-62290059D01*
X52638353Y-62290059D01*
X52645746Y-62289179D01*
X52660846Y-62287382D01*
X52660936Y-62287342D01*
X53677213Y-62287342D01*
X53686509Y-62299357D01*
X53729069Y-62329158D01*
X53738565Y-62334641D01*
X53929680Y-62423759D01*
X53939972Y-62427505D01*
X54143660Y-62482083D01*
X54154453Y-62483986D01*
X54364525Y-62502365D01*
X54375475Y-62502365D01*
X54585547Y-62483986D01*
X54596340Y-62482083D01*
X54800028Y-62427505D01*
X54810320Y-62423759D01*
X55001435Y-62334641D01*
X55010931Y-62329158D01*
X55054329Y-62298770D01*
X55062704Y-62288293D01*
X55055635Y-62274845D01*
X54382812Y-61602022D01*
X54368868Y-61594408D01*
X54367035Y-61594539D01*
X54360420Y-61598790D01*
X53683643Y-62275567D01*
X53677213Y-62287342D01*
X52660936Y-62287342D01*
X52687446Y-62275567D01*
X52752518Y-62246663D01*
X52763153Y-62241939D01*
X52842241Y-62162713D01*
X52867738Y-62105042D01*
X52883675Y-62068992D01*
X52887506Y-62060327D01*
X52890500Y-62034646D01*
X52890500Y-61564675D01*
X52910502Y-61496554D01*
X52964158Y-61450061D01*
X53034432Y-61439957D01*
X53099012Y-61469451D01*
X53138207Y-61532064D01*
X53172495Y-61660028D01*
X53176241Y-61670320D01*
X53265359Y-61861435D01*
X53270842Y-61870931D01*
X53301230Y-61914329D01*
X53311707Y-61922704D01*
X53325155Y-61915635D01*
X53997978Y-61242812D01*
X54004356Y-61231132D01*
X54734408Y-61231132D01*
X54734539Y-61232965D01*
X54738790Y-61239580D01*
X55415567Y-61916357D01*
X55427342Y-61922787D01*
X55439357Y-61913491D01*
X55469158Y-61870931D01*
X55474641Y-61861435D01*
X55563759Y-61670320D01*
X55567505Y-61660028D01*
X55622085Y-61456333D01*
X55622330Y-61454945D01*
X55622607Y-61454387D01*
X55623507Y-61451027D01*
X55624182Y-61451208D01*
X55653859Y-61391333D01*
X55714774Y-61354866D01*
X55785735Y-61357120D01*
X55844212Y-61397381D01*
X55867533Y-61442097D01*
X55919201Y-61622285D01*
X55922019Y-61627767D01*
X55922020Y-61627771D01*
X56011446Y-61801775D01*
X56011449Y-61801779D01*
X56014266Y-61807261D01*
X56143449Y-61970249D01*
X56148143Y-61974244D01*
X56195329Y-62014402D01*
X56301830Y-62105042D01*
X56307208Y-62108048D01*
X56307210Y-62108049D01*
X56460377Y-62193651D01*
X56483376Y-62206505D01*
X56681171Y-62270772D01*
X56887683Y-62295397D01*
X56893818Y-62294925D01*
X56893820Y-62294925D01*
X57088904Y-62279915D01*
X57088909Y-62279914D01*
X57095045Y-62279442D01*
X57100977Y-62277786D01*
X57100981Y-62277785D01*
X57289414Y-62225173D01*
X57289418Y-62225172D01*
X57295358Y-62223513D01*
X57300862Y-62220733D01*
X57300864Y-62220732D01*
X57475493Y-62132521D01*
X57475495Y-62132520D01*
X57480994Y-62129742D01*
X57602711Y-62034646D01*
X65769500Y-62034646D01*
X65772618Y-62060846D01*
X65776456Y-62069486D01*
X65776456Y-62069487D01*
X65790475Y-62101049D01*
X65818061Y-62163153D01*
X65897287Y-62242241D01*
X65907924Y-62246944D01*
X65907926Y-62246945D01*
X65957515Y-62268868D01*
X65999673Y-62287506D01*
X66025354Y-62290500D01*
X67634646Y-62290500D01*
X67638350Y-62290059D01*
X67638353Y-62290059D01*
X67645746Y-62289179D01*
X67660846Y-62287382D01*
X67687446Y-62275567D01*
X67752518Y-62246663D01*
X67763153Y-62241939D01*
X67842241Y-62162713D01*
X67867738Y-62105042D01*
X67883675Y-62068992D01*
X67887506Y-62060327D01*
X67890500Y-62034646D01*
X67890500Y-61215121D01*
X68304473Y-61215121D01*
X68305971Y-61232965D01*
X68321115Y-61413300D01*
X68321876Y-61422367D01*
X68379201Y-61622285D01*
X68382019Y-61627767D01*
X68382020Y-61627771D01*
X68471446Y-61801775D01*
X68471449Y-61801779D01*
X68474266Y-61807261D01*
X68603449Y-61970249D01*
X68608143Y-61974244D01*
X68655329Y-62014402D01*
X68761830Y-62105042D01*
X68767208Y-62108048D01*
X68767210Y-62108049D01*
X68920377Y-62193651D01*
X68943376Y-62206505D01*
X69141171Y-62270772D01*
X69347683Y-62295397D01*
X69353818Y-62294925D01*
X69353820Y-62294925D01*
X69452376Y-62287342D01*
X71217213Y-62287342D01*
X71226509Y-62299357D01*
X71269069Y-62329158D01*
X71278565Y-62334641D01*
X71469680Y-62423759D01*
X71479972Y-62427505D01*
X71683660Y-62482083D01*
X71694453Y-62483986D01*
X71904525Y-62502365D01*
X71915475Y-62502365D01*
X72125547Y-62483986D01*
X72136340Y-62482083D01*
X72340028Y-62427505D01*
X72350320Y-62423759D01*
X72541435Y-62334641D01*
X72550931Y-62329158D01*
X72594329Y-62298770D01*
X72602704Y-62288293D01*
X72595635Y-62274845D01*
X71922812Y-61602022D01*
X71908868Y-61594408D01*
X71907035Y-61594539D01*
X71900420Y-61598790D01*
X71223643Y-62275567D01*
X71217213Y-62287342D01*
X69452376Y-62287342D01*
X69548904Y-62279915D01*
X69548909Y-62279914D01*
X69555045Y-62279442D01*
X69560977Y-62277786D01*
X69560981Y-62277785D01*
X69749414Y-62225173D01*
X69749418Y-62225172D01*
X69755358Y-62223513D01*
X69760862Y-62220733D01*
X69760864Y-62220732D01*
X69935493Y-62132521D01*
X69935495Y-62132520D01*
X69940994Y-62129742D01*
X70104880Y-62001700D01*
X70122561Y-61981217D01*
X70179169Y-61915635D01*
X70240775Y-61844264D01*
X70243818Y-61838907D01*
X70243821Y-61838903D01*
X70292139Y-61753847D01*
X70343502Y-61663431D01*
X70357190Y-61622285D01*
X70387202Y-61532064D01*
X70409149Y-61466089D01*
X70409922Y-61459968D01*
X70411286Y-61453966D01*
X70413853Y-61454549D01*
X70437662Y-61399955D01*
X70496720Y-61360551D01*
X70567707Y-61359332D01*
X70628083Y-61396685D01*
X70654752Y-61451493D01*
X70656493Y-61451027D01*
X70712495Y-61660028D01*
X70716241Y-61670320D01*
X70805359Y-61861435D01*
X70810842Y-61870931D01*
X70841230Y-61914329D01*
X70851707Y-61922704D01*
X70865155Y-61915635D01*
X71537978Y-61242812D01*
X71544356Y-61231132D01*
X72274408Y-61231132D01*
X72274539Y-61232965D01*
X72278790Y-61239580D01*
X72955567Y-61916357D01*
X72967342Y-61922787D01*
X72979357Y-61913491D01*
X73009158Y-61870931D01*
X73014641Y-61861435D01*
X73103759Y-61670320D01*
X73107505Y-61660028D01*
X73162083Y-61456340D01*
X73163986Y-61445547D01*
X73182365Y-61235475D01*
X73182365Y-61224525D01*
X73163986Y-61014453D01*
X73162083Y-61003660D01*
X73107505Y-60799972D01*
X73103759Y-60789680D01*
X73014641Y-60598565D01*
X73009158Y-60589069D01*
X72978770Y-60545671D01*
X72968293Y-60537296D01*
X72954845Y-60544365D01*
X72282022Y-61217188D01*
X72274408Y-61231132D01*
X71544356Y-61231132D01*
X71545592Y-61228868D01*
X71545461Y-61227035D01*
X71541210Y-61220420D01*
X70864433Y-60543643D01*
X70852658Y-60537213D01*
X70840643Y-60546509D01*
X70810842Y-60589069D01*
X70805359Y-60598565D01*
X70716241Y-60789680D01*
X70712495Y-60799972D01*
X70656493Y-61008973D01*
X70655032Y-61008581D01*
X70626628Y-61065876D01*
X70565711Y-61102340D01*
X70494750Y-61100080D01*
X70436276Y-61059815D01*
X70413457Y-61016795D01*
X70355225Y-60823920D01*
X70271904Y-60667215D01*
X70260481Y-60645731D01*
X70260479Y-60645728D01*
X70257587Y-60640289D01*
X70253697Y-60635519D01*
X70253694Y-60635515D01*
X70130036Y-60483895D01*
X70130033Y-60483892D01*
X70126141Y-60479120D01*
X70121392Y-60475191D01*
X69970643Y-60350481D01*
X69970640Y-60350479D01*
X69965893Y-60346552D01*
X69782949Y-60247634D01*
X69584275Y-60186134D01*
X69578150Y-60185490D01*
X69578149Y-60185490D01*
X69447011Y-60171707D01*
X71217296Y-60171707D01*
X71224365Y-60185155D01*
X71897188Y-60857978D01*
X71911132Y-60865592D01*
X71912965Y-60865461D01*
X71919580Y-60861210D01*
X72596357Y-60184433D01*
X72602787Y-60172658D01*
X72593491Y-60160643D01*
X72550931Y-60130842D01*
X72541435Y-60125359D01*
X72350320Y-60036241D01*
X72340028Y-60032495D01*
X72218755Y-60000000D01*
X73194318Y-60000000D01*
X73214956Y-60156762D01*
X73275464Y-60302841D01*
X73305648Y-60342178D01*
X73364524Y-60418906D01*
X73371718Y-60428282D01*
X73497159Y-60524536D01*
X73643238Y-60585044D01*
X73800000Y-60605682D01*
X73808188Y-60604604D01*
X73948574Y-60586122D01*
X73956762Y-60585044D01*
X74102841Y-60524536D01*
X74228282Y-60428282D01*
X74235477Y-60418906D01*
X74294352Y-60342178D01*
X74324536Y-60302841D01*
X74385044Y-60156762D01*
X74405682Y-60000000D01*
X74385044Y-59843238D01*
X74324536Y-59697159D01*
X74228282Y-59571718D01*
X74102841Y-59475464D01*
X73956762Y-59414956D01*
X73800000Y-59394318D01*
X73643238Y-59414956D01*
X73497159Y-59475464D01*
X73371718Y-59571718D01*
X73275464Y-59697159D01*
X73214956Y-59843238D01*
X73194318Y-60000000D01*
X72218755Y-60000000D01*
X72136340Y-59977917D01*
X72125547Y-59976014D01*
X71915475Y-59957635D01*
X71904525Y-59957635D01*
X71694453Y-59976014D01*
X71683660Y-59977917D01*
X71479972Y-60032495D01*
X71469680Y-60036241D01*
X71278565Y-60125359D01*
X71269069Y-60130842D01*
X71225671Y-60161230D01*
X71217296Y-60171707D01*
X69447011Y-60171707D01*
X69383568Y-60165039D01*
X69383566Y-60165039D01*
X69377439Y-60164395D01*
X69297093Y-60171707D01*
X69176460Y-60182685D01*
X69176457Y-60182686D01*
X69170321Y-60183244D01*
X69164415Y-60184982D01*
X69164411Y-60184983D01*
X69069032Y-60213055D01*
X68970808Y-60241964D01*
X68786500Y-60338318D01*
X68624417Y-60468636D01*
X68620459Y-60473353D01*
X68620457Y-60473355D01*
X68560873Y-60544365D01*
X68490733Y-60627954D01*
X68487769Y-60633346D01*
X68487766Y-60633350D01*
X68393508Y-60804806D01*
X68390541Y-60810203D01*
X68327656Y-61008443D01*
X68326970Y-61014560D01*
X68326969Y-61014564D01*
X68310121Y-61164765D01*
X68304473Y-61215121D01*
X67890500Y-61215121D01*
X67890500Y-60425354D01*
X67887382Y-60399154D01*
X67841939Y-60296847D01*
X67762713Y-60217759D01*
X67752076Y-60213056D01*
X67752074Y-60213055D01*
X67683378Y-60182685D01*
X67660327Y-60172494D01*
X67634646Y-60169500D01*
X66025354Y-60169500D01*
X66021650Y-60169941D01*
X66021647Y-60169941D01*
X66014254Y-60170821D01*
X65999154Y-60172618D01*
X65990514Y-60176456D01*
X65990513Y-60176456D01*
X65908117Y-60213055D01*
X65896847Y-60218061D01*
X65888628Y-60226294D01*
X65888627Y-60226295D01*
X65864401Y-60250564D01*
X65817759Y-60297287D01*
X65813056Y-60307924D01*
X65813055Y-60307926D01*
X65795979Y-60346552D01*
X65772494Y-60399673D01*
X65769500Y-60425354D01*
X65769500Y-62034646D01*
X57602711Y-62034646D01*
X57644880Y-62001700D01*
X57662561Y-61981217D01*
X57719169Y-61915635D01*
X57780775Y-61844264D01*
X57783818Y-61838907D01*
X57783821Y-61838903D01*
X57832139Y-61753847D01*
X57883502Y-61663431D01*
X57897190Y-61622285D01*
X57927202Y-61532064D01*
X57949149Y-61466089D01*
X57962636Y-61359332D01*
X57974774Y-61263256D01*
X57974775Y-61263249D01*
X57975216Y-61259754D01*
X57975631Y-61230000D01*
X57955336Y-61023018D01*
X57951754Y-61011152D01*
X57897006Y-60829819D01*
X57895225Y-60823920D01*
X57811904Y-60667215D01*
X57800481Y-60645731D01*
X57800479Y-60645728D01*
X57797587Y-60640289D01*
X57793697Y-60635519D01*
X57793694Y-60635515D01*
X57670036Y-60483895D01*
X57670033Y-60483892D01*
X57666141Y-60479120D01*
X57661392Y-60475191D01*
X57510643Y-60350481D01*
X57510640Y-60350479D01*
X57505893Y-60346552D01*
X57322949Y-60247634D01*
X57124275Y-60186134D01*
X57118150Y-60185490D01*
X57118149Y-60185490D01*
X56923568Y-60165039D01*
X56923566Y-60165039D01*
X56917439Y-60164395D01*
X56837093Y-60171707D01*
X56716460Y-60182685D01*
X56716457Y-60182686D01*
X56710321Y-60183244D01*
X56704415Y-60184982D01*
X56704411Y-60184983D01*
X56609032Y-60213055D01*
X56510808Y-60241964D01*
X56326500Y-60338318D01*
X56164417Y-60468636D01*
X56160459Y-60473353D01*
X56160457Y-60473355D01*
X56100873Y-60544365D01*
X56030733Y-60627954D01*
X56027769Y-60633346D01*
X56027766Y-60633350D01*
X55933508Y-60804806D01*
X55930541Y-60810203D01*
X55867656Y-61008443D01*
X55867299Y-61008330D01*
X55835212Y-61067762D01*
X55773061Y-61102082D01*
X55702222Y-61097353D01*
X55645186Y-61055076D01*
X55624931Y-61008592D01*
X55623507Y-61008973D01*
X55567505Y-60799972D01*
X55563759Y-60789680D01*
X55474641Y-60598565D01*
X55469158Y-60589069D01*
X55438770Y-60545671D01*
X55428293Y-60537296D01*
X55414845Y-60544365D01*
X54742022Y-61217188D01*
X54734408Y-61231132D01*
X54004356Y-61231132D01*
X54005592Y-61228868D01*
X54005461Y-61227035D01*
X54001210Y-61220420D01*
X53324433Y-60543643D01*
X53312658Y-60537213D01*
X53300643Y-60546509D01*
X53270842Y-60589069D01*
X53265359Y-60598565D01*
X53176241Y-60789680D01*
X53172495Y-60799972D01*
X53138207Y-60927936D01*
X53101255Y-60988559D01*
X53037394Y-61019580D01*
X52966900Y-61011152D01*
X52912153Y-60965949D01*
X52890500Y-60895325D01*
X52890500Y-60425354D01*
X52887382Y-60399154D01*
X52841939Y-60296847D01*
X52762713Y-60217759D01*
X52752076Y-60213056D01*
X52752074Y-60213055D01*
X52683378Y-60182685D01*
X52660327Y-60172494D01*
X52653577Y-60171707D01*
X53677296Y-60171707D01*
X53684365Y-60185155D01*
X54357188Y-60857978D01*
X54371132Y-60865592D01*
X54372965Y-60865461D01*
X54379580Y-60861210D01*
X55056357Y-60184433D01*
X55062787Y-60172658D01*
X55053491Y-60160643D01*
X55010931Y-60130842D01*
X55001435Y-60125359D01*
X54810320Y-60036241D01*
X54800028Y-60032495D01*
X54596340Y-59977917D01*
X54585547Y-59976014D01*
X54375475Y-59957635D01*
X54364525Y-59957635D01*
X54154453Y-59976014D01*
X54143660Y-59977917D01*
X53939972Y-60032495D01*
X53929680Y-60036241D01*
X53738565Y-60125359D01*
X53729069Y-60130842D01*
X53685671Y-60161230D01*
X53677296Y-60171707D01*
X52653577Y-60171707D01*
X52634646Y-60169500D01*
X51025354Y-60169500D01*
X51021650Y-60169941D01*
X51021647Y-60169941D01*
X51014254Y-60170821D01*
X50999154Y-60172618D01*
X50990514Y-60176456D01*
X50990513Y-60176456D01*
X50908117Y-60213055D01*
X50896847Y-60218061D01*
X50888628Y-60226294D01*
X50888627Y-60226295D01*
X50864401Y-60250564D01*
X50817759Y-60297287D01*
X50813056Y-60307924D01*
X50813055Y-60307926D01*
X50795979Y-60346552D01*
X50772494Y-60399673D01*
X50769500Y-60425354D01*
X50769500Y-62034646D01*
X46192054Y-62034646D01*
X46160998Y-62024705D01*
X46151938Y-62022529D01*
X45903260Y-61982029D01*
X45893973Y-61981217D01*
X45642053Y-61977919D01*
X45632742Y-61978489D01*
X45383097Y-62012464D01*
X45373978Y-62014402D01*
X45132098Y-62084904D01*
X45123367Y-62088167D01*
X44894558Y-62193651D01*
X44886406Y-62198170D01*
X44707353Y-62315562D01*
X44698216Y-62326303D01*
X31298344Y-62326303D01*
X31290391Y-62316070D01*
X31153593Y-62221170D01*
X31145565Y-62216442D01*
X30919593Y-62105005D01*
X30910960Y-62101517D01*
X30670998Y-62024705D01*
X30661938Y-62022529D01*
X30413260Y-61982029D01*
X30403973Y-61981217D01*
X30152053Y-61977919D01*
X30142742Y-61978489D01*
X29893097Y-62012464D01*
X29883978Y-62014402D01*
X29642098Y-62084904D01*
X29633367Y-62088167D01*
X29404558Y-62193651D01*
X29396406Y-62198170D01*
X29217353Y-62315562D01*
X29208216Y-62326303D01*
X28300500Y-62326303D01*
X28300500Y-60969804D01*
X32509500Y-60969804D01*
X32520375Y-61059668D01*
X32575948Y-61200031D01*
X32667221Y-61320279D01*
X32787469Y-61411552D01*
X32927832Y-61467125D01*
X33017696Y-61478000D01*
X34102304Y-61478000D01*
X34192168Y-61467125D01*
X34332531Y-61411552D01*
X34452779Y-61320279D01*
X34544052Y-61200031D01*
X34599625Y-61059668D01*
X34610500Y-60969804D01*
X34610500Y-60412762D01*
X35044520Y-60412762D01*
X35045036Y-60418906D01*
X35060630Y-60604604D01*
X35061759Y-60618053D01*
X35063458Y-60623978D01*
X35115310Y-60804806D01*
X35118544Y-60816086D01*
X35121359Y-60821563D01*
X35121360Y-60821566D01*
X35209897Y-60993841D01*
X35212712Y-60999318D01*
X35340677Y-61160770D01*
X35345370Y-61164764D01*
X35345371Y-61164765D01*
X35452844Y-61256231D01*
X35497564Y-61294291D01*
X35677398Y-61394797D01*
X35738693Y-61414713D01*
X35867471Y-61456556D01*
X35867475Y-61456557D01*
X35873329Y-61458459D01*
X36077894Y-61482851D01*
X36084029Y-61482379D01*
X36084031Y-61482379D01*
X36146865Y-61477544D01*
X36283300Y-61467046D01*
X36289230Y-61465390D01*
X36289232Y-61465390D01*
X36443323Y-61422367D01*
X36481725Y-61411645D01*
X36487214Y-61408872D01*
X36487220Y-61408870D01*
X36660116Y-61321533D01*
X36665610Y-61318758D01*
X36827951Y-61191924D01*
X36941984Y-61059815D01*
X36958540Y-61040634D01*
X36958540Y-61040633D01*
X36962564Y-61035972D01*
X36966439Y-61029152D01*
X37023937Y-60927936D01*
X37064323Y-60856844D01*
X37129351Y-60661363D01*
X37155171Y-60456974D01*
X37155583Y-60427500D01*
X37154138Y-60412762D01*
X37584520Y-60412762D01*
X37585036Y-60418906D01*
X37600630Y-60604604D01*
X37601759Y-60618053D01*
X37603458Y-60623978D01*
X37655310Y-60804806D01*
X37658544Y-60816086D01*
X37661359Y-60821563D01*
X37661360Y-60821566D01*
X37749897Y-60993841D01*
X37752712Y-60999318D01*
X37880677Y-61160770D01*
X37885370Y-61164764D01*
X37885371Y-61164765D01*
X37992844Y-61256231D01*
X38037564Y-61294291D01*
X38217398Y-61394797D01*
X38278693Y-61414713D01*
X38407471Y-61456556D01*
X38407475Y-61456557D01*
X38413329Y-61458459D01*
X38617894Y-61482851D01*
X38624029Y-61482379D01*
X38624031Y-61482379D01*
X38686865Y-61477544D01*
X38823300Y-61467046D01*
X38829230Y-61465390D01*
X38829232Y-61465390D01*
X38983323Y-61422367D01*
X39021725Y-61411645D01*
X39027214Y-61408872D01*
X39027220Y-61408870D01*
X39200116Y-61321533D01*
X39205610Y-61318758D01*
X39367951Y-61191924D01*
X39481984Y-61059815D01*
X39498540Y-61040634D01*
X39498540Y-61040633D01*
X39502564Y-61035972D01*
X39506439Y-61029152D01*
X39563937Y-60927936D01*
X39604323Y-60856844D01*
X39669351Y-60661363D01*
X39695171Y-60456974D01*
X39695583Y-60427500D01*
X39694138Y-60412762D01*
X40124520Y-60412762D01*
X40125036Y-60418906D01*
X40140630Y-60604604D01*
X40141759Y-60618053D01*
X40143458Y-60623978D01*
X40195310Y-60804806D01*
X40198544Y-60816086D01*
X40201359Y-60821563D01*
X40201360Y-60821566D01*
X40289897Y-60993841D01*
X40292712Y-60999318D01*
X40420677Y-61160770D01*
X40425370Y-61164764D01*
X40425371Y-61164765D01*
X40532844Y-61256231D01*
X40577564Y-61294291D01*
X40757398Y-61394797D01*
X40818693Y-61414713D01*
X40947471Y-61456556D01*
X40947475Y-61456557D01*
X40953329Y-61458459D01*
X41157894Y-61482851D01*
X41164029Y-61482379D01*
X41164031Y-61482379D01*
X41226865Y-61477544D01*
X41363300Y-61467046D01*
X41369230Y-61465390D01*
X41369232Y-61465390D01*
X41523323Y-61422367D01*
X41561725Y-61411645D01*
X41567214Y-61408872D01*
X41567220Y-61408870D01*
X41740116Y-61321533D01*
X41745610Y-61318758D01*
X41907951Y-61191924D01*
X42021984Y-61059815D01*
X42038540Y-61040634D01*
X42038540Y-61040633D01*
X42042564Y-61035972D01*
X42046439Y-61029152D01*
X42103937Y-60927936D01*
X42144323Y-60856844D01*
X42209351Y-60661363D01*
X42235171Y-60456974D01*
X42235583Y-60427500D01*
X42215480Y-60222470D01*
X42155935Y-60025249D01*
X42059218Y-59843349D01*
X41939988Y-59697159D01*
X41932906Y-59688475D01*
X41932903Y-59688472D01*
X41929011Y-59683700D01*
X41911786Y-59669450D01*
X41775025Y-59556311D01*
X41775021Y-59556309D01*
X41770275Y-59552382D01*
X41589055Y-59454397D01*
X41392254Y-59393477D01*
X41386129Y-59392833D01*
X41386128Y-59392833D01*
X41193498Y-59372587D01*
X41193496Y-59372587D01*
X41187369Y-59371943D01*
X41100529Y-59379846D01*
X40988342Y-59390055D01*
X40988339Y-59390056D01*
X40982203Y-59390614D01*
X40784572Y-59448780D01*
X40602002Y-59544226D01*
X40597201Y-59548086D01*
X40597198Y-59548088D01*
X40446254Y-59669450D01*
X40441447Y-59673315D01*
X40309024Y-59831130D01*
X40306056Y-59836528D01*
X40306053Y-59836533D01*
X40228327Y-59977917D01*
X40209776Y-60011662D01*
X40207913Y-60017535D01*
X40155525Y-60182685D01*
X40147484Y-60208032D01*
X40146798Y-60214149D01*
X40146797Y-60214153D01*
X40131506Y-60350481D01*
X40124520Y-60412762D01*
X39694138Y-60412762D01*
X39675480Y-60222470D01*
X39615935Y-60025249D01*
X39519218Y-59843349D01*
X39399988Y-59697159D01*
X39392906Y-59688475D01*
X39392903Y-59688472D01*
X39389011Y-59683700D01*
X39371786Y-59669450D01*
X39235025Y-59556311D01*
X39235021Y-59556309D01*
X39230275Y-59552382D01*
X39049055Y-59454397D01*
X38852254Y-59393477D01*
X38846129Y-59392833D01*
X38846128Y-59392833D01*
X38653498Y-59372587D01*
X38653496Y-59372587D01*
X38647369Y-59371943D01*
X38560529Y-59379846D01*
X38448342Y-59390055D01*
X38448339Y-59390056D01*
X38442203Y-59390614D01*
X38244572Y-59448780D01*
X38062002Y-59544226D01*
X38057201Y-59548086D01*
X38057198Y-59548088D01*
X37906254Y-59669450D01*
X37901447Y-59673315D01*
X37769024Y-59831130D01*
X37766056Y-59836528D01*
X37766053Y-59836533D01*
X37688327Y-59977917D01*
X37669776Y-60011662D01*
X37667913Y-60017535D01*
X37615525Y-60182685D01*
X37607484Y-60208032D01*
X37606798Y-60214149D01*
X37606797Y-60214153D01*
X37591506Y-60350481D01*
X37584520Y-60412762D01*
X37154138Y-60412762D01*
X37135480Y-60222470D01*
X37075935Y-60025249D01*
X36979218Y-59843349D01*
X36859988Y-59697159D01*
X36852906Y-59688475D01*
X36852903Y-59688472D01*
X36849011Y-59683700D01*
X36831786Y-59669450D01*
X36695025Y-59556311D01*
X36695021Y-59556309D01*
X36690275Y-59552382D01*
X36509055Y-59454397D01*
X36312254Y-59393477D01*
X36306129Y-59392833D01*
X36306128Y-59392833D01*
X36113498Y-59372587D01*
X36113496Y-59372587D01*
X36107369Y-59371943D01*
X36020529Y-59379846D01*
X35908342Y-59390055D01*
X35908339Y-59390056D01*
X35902203Y-59390614D01*
X35704572Y-59448780D01*
X35522002Y-59544226D01*
X35517201Y-59548086D01*
X35517198Y-59548088D01*
X35366254Y-59669450D01*
X35361447Y-59673315D01*
X35229024Y-59831130D01*
X35226056Y-59836528D01*
X35226053Y-59836533D01*
X35148327Y-59977917D01*
X35129776Y-60011662D01*
X35127913Y-60017535D01*
X35075525Y-60182685D01*
X35067484Y-60208032D01*
X35066798Y-60214149D01*
X35066797Y-60214153D01*
X35051506Y-60350481D01*
X35044520Y-60412762D01*
X34610500Y-60412762D01*
X34610500Y-59885196D01*
X34599625Y-59795332D01*
X34544052Y-59654969D01*
X34452779Y-59534721D01*
X34332531Y-59443448D01*
X34192168Y-59387875D01*
X34102304Y-59377000D01*
X33017696Y-59377000D01*
X32927832Y-59387875D01*
X32787469Y-59443448D01*
X32667221Y-59534721D01*
X32575948Y-59654969D01*
X32520375Y-59795332D01*
X32509500Y-59885196D01*
X32509500Y-60969804D01*
X28300500Y-60969804D01*
X28300500Y-57872762D01*
X33764520Y-57872762D01*
X33765036Y-57878906D01*
X33778653Y-58041061D01*
X33781759Y-58078053D01*
X33783458Y-58083978D01*
X33834350Y-58261459D01*
X33838544Y-58276086D01*
X33841359Y-58281563D01*
X33841360Y-58281566D01*
X33882964Y-58362518D01*
X33932712Y-58459318D01*
X34060677Y-58620770D01*
X34217564Y-58754291D01*
X34397398Y-58854797D01*
X34492238Y-58885613D01*
X34587471Y-58916556D01*
X34587475Y-58916557D01*
X34593329Y-58918459D01*
X34797894Y-58942851D01*
X34804029Y-58942379D01*
X34804031Y-58942379D01*
X34860039Y-58938069D01*
X35003300Y-58927046D01*
X35009230Y-58925390D01*
X35009232Y-58925390D01*
X35195797Y-58873300D01*
X35195796Y-58873300D01*
X35201725Y-58871645D01*
X35207214Y-58868872D01*
X35207220Y-58868870D01*
X35380116Y-58781533D01*
X35385610Y-58778758D01*
X35547951Y-58651924D01*
X35615984Y-58573107D01*
X35678540Y-58500634D01*
X35678540Y-58500633D01*
X35682564Y-58495972D01*
X35703387Y-58459318D01*
X35747665Y-58381373D01*
X35784323Y-58316844D01*
X35849351Y-58121363D01*
X35875171Y-57916974D01*
X35875449Y-57897080D01*
X35875534Y-57891022D01*
X35875534Y-57891018D01*
X35875583Y-57887500D01*
X35874138Y-57872762D01*
X36304520Y-57872762D01*
X36305036Y-57878906D01*
X36318653Y-58041061D01*
X36321759Y-58078053D01*
X36323458Y-58083978D01*
X36374350Y-58261459D01*
X36378544Y-58276086D01*
X36381359Y-58281563D01*
X36381360Y-58281566D01*
X36422964Y-58362518D01*
X36472712Y-58459318D01*
X36600677Y-58620770D01*
X36757564Y-58754291D01*
X36937398Y-58854797D01*
X37032238Y-58885613D01*
X37127471Y-58916556D01*
X37127475Y-58916557D01*
X37133329Y-58918459D01*
X37337894Y-58942851D01*
X37344029Y-58942379D01*
X37344031Y-58942379D01*
X37400039Y-58938069D01*
X37543300Y-58927046D01*
X37549230Y-58925390D01*
X37549232Y-58925390D01*
X37735797Y-58873300D01*
X37735796Y-58873300D01*
X37741725Y-58871645D01*
X37747214Y-58868872D01*
X37747220Y-58868870D01*
X37920116Y-58781533D01*
X37925610Y-58778758D01*
X38087951Y-58651924D01*
X38155984Y-58573107D01*
X38218540Y-58500634D01*
X38218540Y-58500633D01*
X38222564Y-58495972D01*
X38243387Y-58459318D01*
X38287665Y-58381373D01*
X38324323Y-58316844D01*
X38389351Y-58121363D01*
X38415171Y-57916974D01*
X38415449Y-57897080D01*
X38415534Y-57891022D01*
X38415534Y-57891018D01*
X38415583Y-57887500D01*
X38395480Y-57682470D01*
X38335935Y-57485249D01*
X38239218Y-57303349D01*
X38156472Y-57201893D01*
X38112906Y-57148475D01*
X38112903Y-57148472D01*
X38109011Y-57143700D01*
X38091786Y-57129450D01*
X37955025Y-57016311D01*
X37955021Y-57016309D01*
X37950275Y-57012382D01*
X37769055Y-56914397D01*
X37572254Y-56853477D01*
X37566129Y-56852833D01*
X37566128Y-56852833D01*
X37373498Y-56832587D01*
X37373496Y-56832587D01*
X37367369Y-56831943D01*
X37291263Y-56838869D01*
X37168342Y-56850055D01*
X37168339Y-56850056D01*
X37162203Y-56850614D01*
X36964572Y-56908780D01*
X36782002Y-57004226D01*
X36777201Y-57008086D01*
X36777198Y-57008088D01*
X36626254Y-57129450D01*
X36621447Y-57133315D01*
X36489024Y-57291130D01*
X36486056Y-57296528D01*
X36486053Y-57296533D01*
X36479315Y-57308790D01*
X36389776Y-57471662D01*
X36327484Y-57668032D01*
X36326798Y-57674149D01*
X36326797Y-57674153D01*
X36320663Y-57728843D01*
X36304520Y-57872762D01*
X35874138Y-57872762D01*
X35855480Y-57682470D01*
X35795935Y-57485249D01*
X35699218Y-57303349D01*
X35616472Y-57201893D01*
X35572906Y-57148475D01*
X35572903Y-57148472D01*
X35569011Y-57143700D01*
X35551786Y-57129450D01*
X35415025Y-57016311D01*
X35415021Y-57016309D01*
X35410275Y-57012382D01*
X35404854Y-57009451D01*
X35404847Y-57009446D01*
X35381887Y-56997032D01*
X35331477Y-56947038D01*
X35316099Y-56877727D01*
X35340634Y-56811105D01*
X35393596Y-56769787D01*
X35420877Y-56758487D01*
X35502841Y-56724536D01*
X35606098Y-56645304D01*
X35621736Y-56633305D01*
X35628282Y-56628282D01*
X35724536Y-56502841D01*
X35785044Y-56356762D01*
X35805682Y-56200000D01*
X38694318Y-56200000D01*
X38714956Y-56356762D01*
X38775464Y-56502841D01*
X38871718Y-56628282D01*
X38878264Y-56633305D01*
X38893902Y-56645304D01*
X38997159Y-56724536D01*
X39143238Y-56785044D01*
X39151426Y-56786122D01*
X39238930Y-56797642D01*
X39303857Y-56826364D01*
X39342949Y-56885629D01*
X39343794Y-56956621D01*
X39301436Y-57020761D01*
X39166254Y-57129450D01*
X39161447Y-57133315D01*
X39029024Y-57291130D01*
X39026056Y-57296528D01*
X39026053Y-57296533D01*
X39019315Y-57308790D01*
X38929776Y-57471662D01*
X38867484Y-57668032D01*
X38866798Y-57674149D01*
X38866797Y-57674153D01*
X38860663Y-57728843D01*
X38844520Y-57872762D01*
X38845036Y-57878906D01*
X38858653Y-58041061D01*
X38861759Y-58078053D01*
X38863458Y-58083978D01*
X38914350Y-58261459D01*
X38918544Y-58276086D01*
X38921359Y-58281563D01*
X38921360Y-58281566D01*
X38962964Y-58362518D01*
X39012712Y-58459318D01*
X39140677Y-58620770D01*
X39297564Y-58754291D01*
X39477398Y-58854797D01*
X39572238Y-58885613D01*
X39667471Y-58916556D01*
X39667475Y-58916557D01*
X39673329Y-58918459D01*
X39877894Y-58942851D01*
X39884029Y-58942379D01*
X39884031Y-58942379D01*
X39940039Y-58938069D01*
X39945342Y-58937661D01*
X41754393Y-58937661D01*
X41763687Y-58949675D01*
X41804088Y-58977964D01*
X41813584Y-58983447D01*
X42003113Y-59071826D01*
X42013405Y-59075572D01*
X42215401Y-59129696D01*
X42226196Y-59131599D01*
X42434525Y-59149826D01*
X42445475Y-59149826D01*
X42653804Y-59131599D01*
X42664599Y-59129696D01*
X42866595Y-59075572D01*
X42876887Y-59071826D01*
X43066416Y-58983447D01*
X43075912Y-58977964D01*
X43117148Y-58949090D01*
X43125523Y-58938612D01*
X43118457Y-58925168D01*
X42452811Y-58259521D01*
X42438868Y-58251908D01*
X42437034Y-58252039D01*
X42430420Y-58256290D01*
X41760820Y-58925891D01*
X41754393Y-58937661D01*
X39945342Y-58937661D01*
X40083300Y-58927046D01*
X40089230Y-58925390D01*
X40089232Y-58925390D01*
X40275797Y-58873300D01*
X40275796Y-58873300D01*
X40281725Y-58871645D01*
X40287214Y-58868872D01*
X40287220Y-58868870D01*
X40460116Y-58781533D01*
X40465610Y-58778758D01*
X40627951Y-58651924D01*
X40695984Y-58573107D01*
X40758540Y-58500634D01*
X40758540Y-58500633D01*
X40762564Y-58495972D01*
X40783387Y-58459318D01*
X40827665Y-58381373D01*
X40864323Y-58316844D01*
X40929351Y-58121363D01*
X40940103Y-58036251D01*
X40968485Y-57971175D01*
X41027544Y-57931773D01*
X41098530Y-57930556D01*
X41158905Y-57967911D01*
X41189501Y-58031977D01*
X41190630Y-58041061D01*
X41195901Y-58101304D01*
X41197804Y-58112099D01*
X41251928Y-58314095D01*
X41255674Y-58324387D01*
X41344054Y-58513917D01*
X41349534Y-58523407D01*
X41378411Y-58564649D01*
X41388887Y-58573023D01*
X41402334Y-58565955D01*
X42067979Y-57900311D01*
X42074356Y-57888632D01*
X42804408Y-57888632D01*
X42804539Y-57890466D01*
X42808790Y-57897080D01*
X43478391Y-58566680D01*
X43490161Y-58573107D01*
X43502176Y-58563811D01*
X43530466Y-58523407D01*
X43535946Y-58513917D01*
X43624326Y-58324387D01*
X43628072Y-58314095D01*
X43682196Y-58112099D01*
X43684099Y-58101304D01*
X43702326Y-57892975D01*
X43702326Y-57882025D01*
X43684099Y-57673696D01*
X43682196Y-57662901D01*
X43628072Y-57460905D01*
X43624326Y-57450613D01*
X43535946Y-57261083D01*
X43530466Y-57251593D01*
X43501589Y-57210351D01*
X43491113Y-57201977D01*
X43477666Y-57209045D01*
X42812021Y-57874689D01*
X42804408Y-57888632D01*
X42074356Y-57888632D01*
X42075592Y-57886368D01*
X42075461Y-57884534D01*
X42071210Y-57877920D01*
X41401609Y-57208320D01*
X41389839Y-57201893D01*
X41377824Y-57211189D01*
X41349534Y-57251593D01*
X41344054Y-57261083D01*
X41255674Y-57450613D01*
X41251928Y-57460905D01*
X41197804Y-57662901D01*
X41195900Y-57673697D01*
X41191076Y-57728843D01*
X41165213Y-57794961D01*
X41107709Y-57836601D01*
X41036822Y-57840542D01*
X40975058Y-57805533D01*
X40942025Y-57742689D01*
X40940156Y-57730158D01*
X40936081Y-57688602D01*
X40935480Y-57682470D01*
X40875935Y-57485249D01*
X40779218Y-57303349D01*
X40696472Y-57201893D01*
X40652906Y-57148475D01*
X40652903Y-57148472D01*
X40649011Y-57143700D01*
X40631786Y-57129450D01*
X40495025Y-57016311D01*
X40495021Y-57016309D01*
X40490275Y-57012382D01*
X40309055Y-56914397D01*
X40112254Y-56853477D01*
X40106129Y-56852833D01*
X40106128Y-56852833D01*
X39949653Y-56836387D01*
X41754477Y-56836387D01*
X41761545Y-56849834D01*
X42427189Y-57515479D01*
X42441132Y-57523092D01*
X42442966Y-57522961D01*
X42449580Y-57518710D01*
X43119180Y-56849109D01*
X43125607Y-56837339D01*
X43116313Y-56825325D01*
X43075912Y-56797036D01*
X43066416Y-56791553D01*
X42876887Y-56703174D01*
X42866595Y-56699428D01*
X42664599Y-56645304D01*
X42653804Y-56643401D01*
X42445475Y-56625174D01*
X42434525Y-56625174D01*
X42226196Y-56643401D01*
X42215401Y-56645304D01*
X42013405Y-56699428D01*
X42003113Y-56703174D01*
X41813583Y-56791554D01*
X41804093Y-56797034D01*
X41762851Y-56825911D01*
X41754477Y-56836387D01*
X39949653Y-56836387D01*
X39913498Y-56832587D01*
X39913496Y-56832587D01*
X39907369Y-56831943D01*
X39848075Y-56837339D01*
X39831262Y-56838869D01*
X39761609Y-56825123D01*
X39710445Y-56775902D01*
X39694014Y-56706833D01*
X39717532Y-56639845D01*
X39725627Y-56630319D01*
X39728282Y-56628282D01*
X39824536Y-56502841D01*
X39885044Y-56356762D01*
X39905682Y-56200000D01*
X39885044Y-56043238D01*
X39824536Y-55897159D01*
X39728282Y-55771718D01*
X39602841Y-55675464D01*
X39456762Y-55614956D01*
X39300000Y-55594318D01*
X39143238Y-55614956D01*
X38997159Y-55675464D01*
X38871718Y-55771718D01*
X38775464Y-55897159D01*
X38714956Y-56043238D01*
X38694318Y-56200000D01*
X35805682Y-56200000D01*
X35785044Y-56043238D01*
X35724536Y-55897159D01*
X35628282Y-55771718D01*
X35502841Y-55675464D01*
X35356762Y-55614956D01*
X35200000Y-55594318D01*
X35043238Y-55614956D01*
X34897159Y-55675464D01*
X34771718Y-55771718D01*
X34675464Y-55897159D01*
X34614956Y-56043238D01*
X34594318Y-56200000D01*
X34614956Y-56356762D01*
X34675464Y-56502841D01*
X34771718Y-56628282D01*
X34775113Y-56630887D01*
X34808257Y-56691584D01*
X34803192Y-56762399D01*
X34760645Y-56819235D01*
X34696560Y-56843847D01*
X34622203Y-56850614D01*
X34424572Y-56908780D01*
X34242002Y-57004226D01*
X34237201Y-57008086D01*
X34237198Y-57008088D01*
X34086254Y-57129450D01*
X34081447Y-57133315D01*
X33949024Y-57291130D01*
X33946056Y-57296528D01*
X33946053Y-57296533D01*
X33939315Y-57308790D01*
X33849776Y-57471662D01*
X33787484Y-57668032D01*
X33786798Y-57674149D01*
X33786797Y-57674153D01*
X33780663Y-57728843D01*
X33764520Y-57872762D01*
X28300500Y-57872762D01*
X28300500Y-54300000D01*
X40894318Y-54300000D01*
X40914956Y-54456762D01*
X40975464Y-54602841D01*
X41071718Y-54728282D01*
X41197159Y-54824536D01*
X41343238Y-54885044D01*
X41500000Y-54905682D01*
X41508188Y-54904604D01*
X41648574Y-54886122D01*
X41656762Y-54885044D01*
X41802841Y-54824536D01*
X41861202Y-54779754D01*
X66344967Y-54779754D01*
X66358796Y-54990749D01*
X66360217Y-54996345D01*
X66360218Y-54996350D01*
X66382784Y-55085200D01*
X66410845Y-55195690D01*
X66499369Y-55387714D01*
X66621405Y-55560391D01*
X66680661Y-55618116D01*
X66739531Y-55675464D01*
X66772865Y-55707937D01*
X66777661Y-55711142D01*
X66777664Y-55711144D01*
X66920936Y-55806875D01*
X66948677Y-55825411D01*
X66953985Y-55827692D01*
X66953986Y-55827692D01*
X67137650Y-55906600D01*
X67137653Y-55906601D01*
X67142953Y-55908878D01*
X67148582Y-55910152D01*
X67148583Y-55910152D01*
X67327368Y-55950607D01*
X67389395Y-55985150D01*
X67422899Y-56047743D01*
X67417245Y-56118514D01*
X67374226Y-56174994D01*
X67307501Y-56199249D01*
X67299560Y-56199500D01*
X66605354Y-56199500D01*
X66601650Y-56199941D01*
X66601647Y-56199941D01*
X66594254Y-56200821D01*
X66579154Y-56202618D01*
X66476847Y-56248061D01*
X66397759Y-56327287D01*
X66352494Y-56429673D01*
X66349500Y-56455354D01*
X66349500Y-58244646D01*
X66352618Y-58270846D01*
X66356456Y-58279486D01*
X66356456Y-58279487D01*
X66375432Y-58322207D01*
X66398061Y-58373153D01*
X66477287Y-58452241D01*
X66487924Y-58456944D01*
X66487926Y-58456945D01*
X66547462Y-58483265D01*
X66579673Y-58497506D01*
X66605354Y-58500500D01*
X68394646Y-58500500D01*
X68398350Y-58500059D01*
X68398353Y-58500059D01*
X68405746Y-58499179D01*
X68420846Y-58497382D01*
X68506541Y-58459318D01*
X68512518Y-58456663D01*
X68523153Y-58451939D01*
X68602241Y-58372713D01*
X68647506Y-58270327D01*
X68650500Y-58244646D01*
X68650500Y-56455354D01*
X68647382Y-56429154D01*
X68618616Y-56364391D01*
X68606663Y-56337482D01*
X68601939Y-56326847D01*
X68522713Y-56247759D01*
X68512076Y-56243056D01*
X68512074Y-56243055D01*
X68433206Y-56208188D01*
X68420327Y-56202494D01*
X68394646Y-56199500D01*
X67682291Y-56199500D01*
X67614170Y-56179498D01*
X67567677Y-56125842D01*
X67557573Y-56055568D01*
X67587067Y-55990988D01*
X67646793Y-55952604D01*
X67664211Y-55948804D01*
X67764013Y-55934333D01*
X67764014Y-55934333D01*
X67769730Y-55933504D01*
X67854322Y-55904789D01*
X67964483Y-55867395D01*
X67964488Y-55867393D01*
X67969955Y-55865537D01*
X67974998Y-55862713D01*
X68149395Y-55765046D01*
X68149399Y-55765043D01*
X68154442Y-55762219D01*
X68317012Y-55627012D01*
X68452219Y-55464442D01*
X68455043Y-55459399D01*
X68455046Y-55459395D01*
X68552713Y-55284998D01*
X68552714Y-55284996D01*
X68555537Y-55279955D01*
X68557393Y-55274488D01*
X68557395Y-55274483D01*
X68621647Y-55085200D01*
X68623504Y-55079730D01*
X68648741Y-54905682D01*
X68653314Y-54874140D01*
X68653314Y-54874138D01*
X68653846Y-54870470D01*
X68655429Y-54810000D01*
X68636081Y-54599440D01*
X68578686Y-54395931D01*
X68567553Y-54373354D01*
X68487719Y-54211469D01*
X68485165Y-54206290D01*
X68358651Y-54036867D01*
X68258286Y-53944090D01*
X68207622Y-53897257D01*
X68207620Y-53897255D01*
X68203381Y-53893337D01*
X68024554Y-53780505D01*
X67828160Y-53702152D01*
X67822503Y-53701027D01*
X67822497Y-53701025D01*
X67625234Y-53661788D01*
X67562324Y-53628881D01*
X67527192Y-53567186D01*
X67530992Y-53496291D01*
X67572517Y-53438705D01*
X67631734Y-53413513D01*
X67764015Y-53394333D01*
X67764019Y-53394332D01*
X67769730Y-53393504D01*
X67848987Y-53366600D01*
X67964483Y-53327395D01*
X67964488Y-53327393D01*
X67969955Y-53325537D01*
X67974998Y-53322713D01*
X68149395Y-53225046D01*
X68149399Y-53225043D01*
X68154442Y-53222219D01*
X68317012Y-53087012D01*
X68452219Y-52924442D01*
X68455043Y-52919399D01*
X68455046Y-52919395D01*
X68552713Y-52744998D01*
X68552714Y-52744996D01*
X68555537Y-52739955D01*
X68557393Y-52734488D01*
X68557395Y-52734483D01*
X68621647Y-52545200D01*
X68623504Y-52539730D01*
X68636722Y-52448574D01*
X68653314Y-52334140D01*
X68653314Y-52334138D01*
X68653846Y-52330470D01*
X68655429Y-52270000D01*
X68636081Y-52059440D01*
X68633642Y-52050790D01*
X68597767Y-51923587D01*
X68578686Y-51855931D01*
X68570141Y-51838602D01*
X68487719Y-51671469D01*
X68485165Y-51666290D01*
X68435664Y-51600000D01*
X72094318Y-51600000D01*
X72114956Y-51756762D01*
X72175464Y-51902841D01*
X72271718Y-52028282D01*
X72278264Y-52033305D01*
X72291209Y-52043238D01*
X72397159Y-52124536D01*
X72543238Y-52185044D01*
X72700000Y-52205682D01*
X72708188Y-52204604D01*
X72848574Y-52186122D01*
X72856762Y-52185044D01*
X73002841Y-52124536D01*
X73073726Y-52070144D01*
X73111437Y-52041208D01*
X73177658Y-52015608D01*
X73247207Y-52029873D01*
X73298002Y-52079474D01*
X73313918Y-52148664D01*
X73313063Y-52157616D01*
X73294318Y-52300000D01*
X73314956Y-52456762D01*
X73318116Y-52464391D01*
X73322532Y-52475053D01*
X73375464Y-52602841D01*
X73471718Y-52728282D01*
X73597159Y-52824536D01*
X73743238Y-52885044D01*
X73900000Y-52905682D01*
X73908188Y-52904604D01*
X74048574Y-52886122D01*
X74056762Y-52885044D01*
X74202841Y-52824536D01*
X74328282Y-52728282D01*
X74424536Y-52602841D01*
X74477468Y-52475053D01*
X74481884Y-52464391D01*
X74485044Y-52456762D01*
X74505682Y-52300000D01*
X74485044Y-52143238D01*
X74424536Y-51997159D01*
X74328282Y-51871718D01*
X74311437Y-51858792D01*
X74234817Y-51800000D01*
X74202841Y-51775464D01*
X74056762Y-51714956D01*
X73900000Y-51694318D01*
X73743238Y-51714956D01*
X73597159Y-51775464D01*
X73565183Y-51800000D01*
X73488563Y-51858792D01*
X73422342Y-51884392D01*
X73352793Y-51870127D01*
X73301998Y-51820526D01*
X73286082Y-51751336D01*
X73286937Y-51742383D01*
X73292517Y-51700000D01*
X73305682Y-51600000D01*
X73290132Y-51481884D01*
X73286122Y-51451426D01*
X73285044Y-51443238D01*
X73224536Y-51297159D01*
X73128282Y-51171718D01*
X73105115Y-51153941D01*
X73072857Y-51129189D01*
X73002841Y-51075464D01*
X72856762Y-51014956D01*
X72700000Y-50994318D01*
X72543238Y-51014956D01*
X72397159Y-51075464D01*
X72327143Y-51129189D01*
X72294886Y-51153941D01*
X72271718Y-51171718D01*
X72175464Y-51297159D01*
X72114956Y-51443238D01*
X72113878Y-51451426D01*
X72109868Y-51481884D01*
X72094318Y-51600000D01*
X68435664Y-51600000D01*
X68358651Y-51496867D01*
X68223560Y-51371990D01*
X68207622Y-51357257D01*
X68207620Y-51357255D01*
X68203381Y-51353337D01*
X68165466Y-51329414D01*
X68029434Y-51243584D01*
X68029433Y-51243584D01*
X68024554Y-51240505D01*
X67828160Y-51162152D01*
X67822503Y-51161027D01*
X67822497Y-51161025D01*
X67626442Y-51122028D01*
X67626440Y-51122028D01*
X67620775Y-51120901D01*
X67615000Y-51120825D01*
X67614996Y-51120825D01*
X67508976Y-51119437D01*
X67409346Y-51118133D01*
X67403649Y-51119112D01*
X67403648Y-51119112D01*
X67206650Y-51152962D01*
X67206649Y-51152962D01*
X67200953Y-51153941D01*
X67002575Y-51227127D01*
X66997614Y-51230079D01*
X66997613Y-51230079D01*
X66840588Y-51323499D01*
X66820856Y-51335238D01*
X66661881Y-51474655D01*
X66530976Y-51640708D01*
X66528287Y-51645819D01*
X66528285Y-51645822D01*
X66512690Y-51675464D01*
X66432523Y-51827836D01*
X66390122Y-51964391D01*
X66372316Y-52021736D01*
X66369820Y-52029773D01*
X66344967Y-52239754D01*
X66358796Y-52450749D01*
X66360217Y-52456345D01*
X66360218Y-52456350D01*
X66395485Y-52595211D01*
X66410845Y-52655690D01*
X66413262Y-52660933D01*
X66442583Y-52724536D01*
X66499369Y-52847714D01*
X66621405Y-53020391D01*
X66772865Y-53167937D01*
X66777661Y-53171142D01*
X66777664Y-53171144D01*
X66874143Y-53235609D01*
X66948677Y-53285411D01*
X66953985Y-53287692D01*
X66953986Y-53287692D01*
X67137650Y-53366600D01*
X67137653Y-53366601D01*
X67142953Y-53368878D01*
X67148582Y-53370152D01*
X67148583Y-53370152D01*
X67343550Y-53414269D01*
X67343553Y-53414269D01*
X67349186Y-53415544D01*
X67354958Y-53415771D01*
X67360687Y-53416525D01*
X67360327Y-53419257D01*
X67416604Y-53438216D01*
X67460950Y-53493659D01*
X67468282Y-53564276D01*
X67436271Y-53627647D01*
X67375081Y-53663651D01*
X67365704Y-53665632D01*
X67206650Y-53692962D01*
X67206649Y-53692962D01*
X67200953Y-53693941D01*
X67002575Y-53767127D01*
X66997614Y-53770079D01*
X66997613Y-53770079D01*
X66826773Y-53871718D01*
X66820856Y-53875238D01*
X66661881Y-54014655D01*
X66530976Y-54180708D01*
X66528287Y-54185819D01*
X66528285Y-54185822D01*
X66514792Y-54211469D01*
X66432523Y-54367836D01*
X66369820Y-54569773D01*
X66344967Y-54779754D01*
X41861202Y-54779754D01*
X41928282Y-54728282D01*
X42024536Y-54602841D01*
X42085044Y-54456762D01*
X42105682Y-54300000D01*
X42085044Y-54143238D01*
X42024536Y-53997159D01*
X41942507Y-53890256D01*
X41933305Y-53878264D01*
X41928282Y-53871718D01*
X41802841Y-53775464D01*
X41656762Y-53714956D01*
X41500000Y-53694318D01*
X41343238Y-53714956D01*
X41197159Y-53775464D01*
X41071718Y-53871718D01*
X41066695Y-53878264D01*
X41057493Y-53890256D01*
X40975464Y-53997159D01*
X40914956Y-54143238D01*
X40894318Y-54300000D01*
X28300500Y-54300000D01*
X28300500Y-53400000D01*
X55194318Y-53400000D01*
X55214956Y-53556762D01*
X55275464Y-53702841D01*
X55371718Y-53828282D01*
X55497159Y-53924536D01*
X55643238Y-53985044D01*
X55800000Y-54005682D01*
X55808188Y-54004604D01*
X55948574Y-53986122D01*
X55956762Y-53985044D01*
X56102841Y-53924536D01*
X56228282Y-53828282D01*
X56324536Y-53702841D01*
X56385044Y-53556762D01*
X56405682Y-53400000D01*
X56385044Y-53243238D01*
X56324536Y-53097159D01*
X56228282Y-52971718D01*
X56102841Y-52875464D01*
X55956762Y-52814956D01*
X55800000Y-52794318D01*
X55643238Y-52814956D01*
X55497159Y-52875464D01*
X55371718Y-52971718D01*
X55275464Y-53097159D01*
X55214956Y-53243238D01*
X55194318Y-53400000D01*
X28300500Y-53400000D01*
X28300500Y-52400000D01*
X31394318Y-52400000D01*
X31414956Y-52556762D01*
X31475464Y-52702841D01*
X31571718Y-52828282D01*
X31697159Y-52924536D01*
X31843238Y-52985044D01*
X32000000Y-53005682D01*
X32008188Y-53004604D01*
X32148574Y-52986122D01*
X32156762Y-52985044D01*
X32302841Y-52924536D01*
X32428282Y-52828282D01*
X32524536Y-52702841D01*
X32585044Y-52556762D01*
X32605682Y-52400000D01*
X32585044Y-52243238D01*
X32568882Y-52204219D01*
X32561293Y-52133631D01*
X32593072Y-52070144D01*
X32654130Y-52033916D01*
X32725081Y-52036450D01*
X32733509Y-52039593D01*
X32835608Y-52081884D01*
X32835611Y-52081885D01*
X32843238Y-52085044D01*
X33000000Y-52105682D01*
X33008188Y-52104604D01*
X33021580Y-52102841D01*
X33156762Y-52085044D01*
X33302841Y-52024536D01*
X33309392Y-52019509D01*
X33309396Y-52019507D01*
X33336063Y-51999045D01*
X33402283Y-51973445D01*
X33471832Y-51987710D01*
X33522628Y-52037312D01*
X33529175Y-52050790D01*
X33530453Y-52053876D01*
X33575464Y-52162541D01*
X33671718Y-52287982D01*
X33797159Y-52384236D01*
X33943238Y-52444744D01*
X34100000Y-52465382D01*
X34108188Y-52464304D01*
X34248574Y-52445822D01*
X34256762Y-52444744D01*
X34402841Y-52384236D01*
X34528282Y-52287982D01*
X34624536Y-52162541D01*
X34685044Y-52016462D01*
X34705682Y-51859700D01*
X34685044Y-51702938D01*
X34683827Y-51700000D01*
X37694318Y-51700000D01*
X37714956Y-51856762D01*
X37775464Y-52002841D01*
X37818894Y-52059440D01*
X37850017Y-52100000D01*
X37871718Y-52128282D01*
X37997159Y-52224536D01*
X38097998Y-52266305D01*
X38134528Y-52281436D01*
X38143238Y-52285044D01*
X38300000Y-52305682D01*
X38308188Y-52304604D01*
X38448574Y-52286122D01*
X38456762Y-52285044D01*
X38465473Y-52281436D01*
X38502002Y-52266305D01*
X38602841Y-52224536D01*
X38728282Y-52128282D01*
X38749984Y-52100000D01*
X38781106Y-52059440D01*
X38824536Y-52002841D01*
X38885044Y-51856762D01*
X38896240Y-51771718D01*
X38904752Y-51707065D01*
X38907877Y-51700000D01*
X42194318Y-51700000D01*
X42214956Y-51856762D01*
X42275464Y-52002841D01*
X42318894Y-52059440D01*
X42350017Y-52100000D01*
X42371718Y-52128282D01*
X42497159Y-52224536D01*
X42597998Y-52266305D01*
X42634528Y-52281436D01*
X42643238Y-52285044D01*
X42800000Y-52305682D01*
X42808188Y-52304604D01*
X42948574Y-52286122D01*
X42956762Y-52285044D01*
X42965473Y-52281436D01*
X43002002Y-52266305D01*
X43102841Y-52224536D01*
X43228282Y-52128282D01*
X43249984Y-52100000D01*
X43281106Y-52059440D01*
X43324536Y-52002841D01*
X43385044Y-51856762D01*
X43392517Y-51800000D01*
X54094318Y-51800000D01*
X54114956Y-51956762D01*
X54175464Y-52102841D01*
X54215419Y-52154911D01*
X54250017Y-52200000D01*
X54271718Y-52228282D01*
X54397159Y-52324536D01*
X54543238Y-52385044D01*
X54700000Y-52405682D01*
X54708188Y-52404604D01*
X54721580Y-52402841D01*
X54856762Y-52385044D01*
X55002841Y-52324536D01*
X55128282Y-52228282D01*
X55149984Y-52200000D01*
X55184581Y-52154911D01*
X55224536Y-52102841D01*
X55225713Y-52100000D01*
X56694318Y-52100000D01*
X56714956Y-52256762D01*
X56775464Y-52402841D01*
X56871718Y-52528282D01*
X56997159Y-52624536D01*
X57143238Y-52685044D01*
X57300000Y-52705682D01*
X57308188Y-52704604D01*
X57321580Y-52702841D01*
X57456762Y-52685044D01*
X57602841Y-52624536D01*
X57728282Y-52528282D01*
X57824536Y-52402841D01*
X57885044Y-52256762D01*
X57905682Y-52100000D01*
X57885044Y-51943238D01*
X57825713Y-51800000D01*
X60794318Y-51800000D01*
X60814956Y-51956762D01*
X60875464Y-52102841D01*
X60915419Y-52154911D01*
X60950017Y-52200000D01*
X60971718Y-52228282D01*
X61097159Y-52324536D01*
X61243238Y-52385044D01*
X61400000Y-52405682D01*
X61408188Y-52404604D01*
X61421580Y-52402841D01*
X61556762Y-52385044D01*
X61702841Y-52324536D01*
X61828282Y-52228282D01*
X61849984Y-52200000D01*
X61884581Y-52154911D01*
X61924536Y-52102841D01*
X61965151Y-52004789D01*
X61979225Y-51970811D01*
X62023774Y-51915530D01*
X62091137Y-51893109D01*
X62112078Y-51894107D01*
X62200000Y-51905682D01*
X62208188Y-51904604D01*
X62348576Y-51886122D01*
X62348578Y-51886121D01*
X62356762Y-51885044D01*
X62363852Y-51882107D01*
X62434560Y-51883792D01*
X62493355Y-51923587D01*
X62521301Y-51988852D01*
X62517924Y-52036074D01*
X62514956Y-52043238D01*
X62513879Y-52051422D01*
X62513878Y-52051424D01*
X62502795Y-52135609D01*
X62494318Y-52200000D01*
X62514956Y-52356762D01*
X62575464Y-52502841D01*
X62671718Y-52628282D01*
X62797159Y-52724536D01*
X62943238Y-52785044D01*
X63100000Y-52805682D01*
X63108188Y-52804604D01*
X63248574Y-52786122D01*
X63256762Y-52785044D01*
X63402841Y-52724536D01*
X63528282Y-52628282D01*
X63624536Y-52502841D01*
X63685044Y-52356762D01*
X63705682Y-52200000D01*
X63685044Y-52043238D01*
X63624536Y-51897159D01*
X63552163Y-51802841D01*
X63533305Y-51778264D01*
X63528282Y-51771718D01*
X63402841Y-51675464D01*
X63256762Y-51614956D01*
X63100000Y-51594318D01*
X63091812Y-51595396D01*
X62951424Y-51613878D01*
X62951422Y-51613879D01*
X62943238Y-51614956D01*
X62936148Y-51617893D01*
X62865440Y-51616208D01*
X62806645Y-51576413D01*
X62778699Y-51511148D01*
X62782076Y-51463926D01*
X62785044Y-51456762D01*
X62786825Y-51443238D01*
X62804226Y-51311062D01*
X62805682Y-51300000D01*
X62785044Y-51143238D01*
X62724536Y-50997159D01*
X62655814Y-50907599D01*
X62633305Y-50878264D01*
X62628282Y-50871718D01*
X62502841Y-50775464D01*
X62356762Y-50714956D01*
X62200000Y-50694318D01*
X62043238Y-50714956D01*
X61897159Y-50775464D01*
X61771718Y-50871718D01*
X61766695Y-50878264D01*
X61744186Y-50907599D01*
X61675464Y-50997159D01*
X61654167Y-51048574D01*
X61620775Y-51129189D01*
X61576226Y-51184470D01*
X61508863Y-51206891D01*
X61487922Y-51205893D01*
X61400000Y-51194318D01*
X61243238Y-51214956D01*
X61097159Y-51275464D01*
X60971718Y-51371718D01*
X60875464Y-51497159D01*
X60814956Y-51643238D01*
X60794318Y-51800000D01*
X57825713Y-51800000D01*
X57824536Y-51797159D01*
X57752238Y-51702938D01*
X57733305Y-51678264D01*
X57728282Y-51671718D01*
X57602841Y-51575464D01*
X57456762Y-51514956D01*
X57300000Y-51494318D01*
X57143238Y-51514956D01*
X56997159Y-51575464D01*
X56871718Y-51671718D01*
X56866695Y-51678264D01*
X56847762Y-51702938D01*
X56775464Y-51797159D01*
X56714956Y-51943238D01*
X56694318Y-52100000D01*
X55225713Y-52100000D01*
X55285044Y-51956762D01*
X55305682Y-51800000D01*
X55285044Y-51643238D01*
X55224536Y-51497159D01*
X55128282Y-51371718D01*
X55002841Y-51275464D01*
X54856762Y-51214956D01*
X54700000Y-51194318D01*
X54543238Y-51214956D01*
X54397159Y-51275464D01*
X54271718Y-51371718D01*
X54175464Y-51497159D01*
X54114956Y-51643238D01*
X54094318Y-51800000D01*
X43392517Y-51800000D01*
X43405682Y-51700000D01*
X43385044Y-51543238D01*
X43381884Y-51535609D01*
X43381883Y-51535605D01*
X43367018Y-51499719D01*
X43359428Y-51429129D01*
X43391207Y-51365642D01*
X43452264Y-51329414D01*
X43483426Y-51325500D01*
X45116995Y-51325500D01*
X45120699Y-51325059D01*
X45120702Y-51325059D01*
X45128095Y-51324179D01*
X45143195Y-51322382D01*
X45166542Y-51312012D01*
X45168681Y-51311062D01*
X47050842Y-51311062D01*
X47060138Y-51323077D01*
X47111343Y-51358931D01*
X47120838Y-51364414D01*
X47318296Y-51456490D01*
X47328588Y-51460236D01*
X47539037Y-51516625D01*
X47549830Y-51518528D01*
X47766874Y-51537517D01*
X47777824Y-51537517D01*
X47994868Y-51518528D01*
X48005661Y-51516625D01*
X48216110Y-51460236D01*
X48226402Y-51456490D01*
X48423860Y-51364414D01*
X48433355Y-51358931D01*
X48485397Y-51322491D01*
X48493773Y-51312012D01*
X48486705Y-51298566D01*
X47785161Y-50597022D01*
X47771217Y-50589408D01*
X47769384Y-50589539D01*
X47762769Y-50593790D01*
X47057272Y-51299287D01*
X47050842Y-51311062D01*
X45168681Y-51311062D01*
X45234867Y-51281663D01*
X45245502Y-51276939D01*
X45324590Y-51197713D01*
X45333189Y-51178264D01*
X45359772Y-51118133D01*
X45369855Y-51095327D01*
X45372849Y-51069646D01*
X45372849Y-50230475D01*
X46459832Y-50230475D01*
X46478821Y-50447519D01*
X46480724Y-50458312D01*
X46537113Y-50668761D01*
X46540859Y-50679053D01*
X46632935Y-50876511D01*
X46638418Y-50886006D01*
X46674858Y-50938048D01*
X46685337Y-50946424D01*
X46698783Y-50939356D01*
X47400327Y-50237812D01*
X47406705Y-50226132D01*
X48136757Y-50226132D01*
X48136888Y-50227965D01*
X48141139Y-50234580D01*
X48846636Y-50940077D01*
X48858411Y-50946507D01*
X48870426Y-50937211D01*
X48906280Y-50886006D01*
X48911763Y-50876511D01*
X49003839Y-50679053D01*
X49007585Y-50668761D01*
X49063974Y-50458312D01*
X49065877Y-50447519D01*
X49084866Y-50230475D01*
X49084866Y-50219525D01*
X49065877Y-50002481D01*
X49063974Y-49991688D01*
X49007585Y-49781239D01*
X49003839Y-49770947D01*
X48911763Y-49573489D01*
X48906280Y-49563994D01*
X48869840Y-49511952D01*
X48859361Y-49503576D01*
X48845915Y-49510644D01*
X48144371Y-50212188D01*
X48136757Y-50226132D01*
X47406705Y-50226132D01*
X47407941Y-50223868D01*
X47407810Y-50222035D01*
X47403559Y-50215420D01*
X46698062Y-49509923D01*
X46686287Y-49503493D01*
X46674272Y-49512789D01*
X46638418Y-49563994D01*
X46632935Y-49573489D01*
X46540859Y-49770947D01*
X46537113Y-49781239D01*
X46480724Y-49991688D01*
X46478821Y-50002481D01*
X46459832Y-50219525D01*
X46459832Y-50230475D01*
X45372849Y-50230475D01*
X45372849Y-49380354D01*
X45369731Y-49354154D01*
X45355332Y-49321736D01*
X45329012Y-49262482D01*
X45324288Y-49251847D01*
X45308476Y-49236062D01*
X45278042Y-49205682D01*
X45245062Y-49172759D01*
X45234425Y-49168056D01*
X45234423Y-49168055D01*
X45168561Y-49138938D01*
X45166412Y-49137988D01*
X47050925Y-49137988D01*
X47057993Y-49151434D01*
X47759537Y-49852978D01*
X47773481Y-49860592D01*
X47775314Y-49860461D01*
X47781929Y-49856210D01*
X48487426Y-49150713D01*
X48493856Y-49138938D01*
X48484560Y-49126923D01*
X48433355Y-49091069D01*
X48423860Y-49085586D01*
X48228838Y-48994646D01*
X51646849Y-48994646D01*
X51649967Y-49020846D01*
X51653805Y-49029486D01*
X51653805Y-49029487D01*
X51690489Y-49112074D01*
X51695410Y-49123153D01*
X51703643Y-49131372D01*
X51703644Y-49131373D01*
X51723018Y-49150713D01*
X51774636Y-49202241D01*
X51785273Y-49206944D01*
X51785275Y-49206945D01*
X51832213Y-49227696D01*
X51877022Y-49247506D01*
X51902703Y-49250500D01*
X53591995Y-49250500D01*
X53595699Y-49250059D01*
X53595702Y-49250059D01*
X53603095Y-49249179D01*
X53618195Y-49247382D01*
X53627525Y-49243238D01*
X53643680Y-49236062D01*
X55525842Y-49236062D01*
X55535138Y-49248077D01*
X55586343Y-49283931D01*
X55595838Y-49289414D01*
X55793296Y-49381490D01*
X55803588Y-49385236D01*
X56014037Y-49441625D01*
X56024830Y-49443528D01*
X56241874Y-49462517D01*
X56252824Y-49462517D01*
X56469868Y-49443528D01*
X56480661Y-49441625D01*
X56691110Y-49385236D01*
X56701402Y-49381490D01*
X56898860Y-49289414D01*
X56908355Y-49283931D01*
X56960397Y-49247491D01*
X56968773Y-49237012D01*
X56961705Y-49223566D01*
X56260161Y-48522022D01*
X56246217Y-48514408D01*
X56244384Y-48514539D01*
X56237769Y-48518790D01*
X55532272Y-49224287D01*
X55525842Y-49236062D01*
X53643680Y-49236062D01*
X53709867Y-49206663D01*
X53720502Y-49201939D01*
X53736292Y-49186122D01*
X53783393Y-49138938D01*
X53799590Y-49122713D01*
X53805480Y-49109392D01*
X53841024Y-49028992D01*
X53844855Y-49020327D01*
X53847849Y-48994646D01*
X53847849Y-48155475D01*
X54934832Y-48155475D01*
X54953821Y-48372519D01*
X54955724Y-48383312D01*
X55012113Y-48593761D01*
X55015859Y-48604053D01*
X55107935Y-48801511D01*
X55113418Y-48811006D01*
X55149858Y-48863048D01*
X55160337Y-48871424D01*
X55173783Y-48864356D01*
X55875327Y-48162812D01*
X55881705Y-48151132D01*
X56611757Y-48151132D01*
X56611888Y-48152965D01*
X56616139Y-48159580D01*
X57198389Y-48741830D01*
X57225702Y-48782706D01*
X57275464Y-48902841D01*
X57311650Y-48950000D01*
X57360880Y-49014157D01*
X57371718Y-49028282D01*
X57497159Y-49124536D01*
X57643238Y-49185044D01*
X57800000Y-49205682D01*
X57808188Y-49204604D01*
X57821580Y-49202841D01*
X57956762Y-49185044D01*
X58102841Y-49124536D01*
X58228282Y-49028282D01*
X58239121Y-49014157D01*
X58288350Y-48950000D01*
X58324536Y-48902841D01*
X58385044Y-48756762D01*
X58392517Y-48700000D01*
X59794318Y-48700000D01*
X59814956Y-48856762D01*
X59875464Y-49002841D01*
X59971718Y-49128282D01*
X60097159Y-49224536D01*
X60243238Y-49285044D01*
X60251426Y-49286122D01*
X60316120Y-49294639D01*
X60400000Y-49305682D01*
X60408188Y-49304604D01*
X60548574Y-49286122D01*
X60556762Y-49285044D01*
X60702841Y-49224536D01*
X60828282Y-49128282D01*
X60924536Y-49002841D01*
X60985044Y-48856762D01*
X60993089Y-48795653D01*
X61021811Y-48730726D01*
X61081076Y-48691634D01*
X61134457Y-48687177D01*
X61266832Y-48704604D01*
X61275020Y-48705682D01*
X61283208Y-48704604D01*
X61297185Y-48702764D01*
X61431782Y-48685044D01*
X61577861Y-48624536D01*
X61703302Y-48528282D01*
X61710586Y-48518790D01*
X61758181Y-48456762D01*
X61799556Y-48402841D01*
X61847903Y-48286122D01*
X61856904Y-48264392D01*
X61856905Y-48264389D01*
X61859423Y-48258309D01*
X61859425Y-48258306D01*
X61860064Y-48256762D01*
X61860305Y-48256862D01*
X61894787Y-48200289D01*
X61958647Y-48169267D01*
X62029141Y-48177695D01*
X62083889Y-48222897D01*
X62104465Y-48277075D01*
X62108561Y-48308188D01*
X62114956Y-48356762D01*
X62175464Y-48502841D01*
X62242810Y-48590608D01*
X62250017Y-48600000D01*
X62271718Y-48628282D01*
X62397159Y-48724536D01*
X62543238Y-48785044D01*
X62700000Y-48805682D01*
X62708188Y-48804604D01*
X62721580Y-48802841D01*
X62743160Y-48800000D01*
X64494318Y-48800000D01*
X64495767Y-48811006D01*
X64512599Y-48938855D01*
X64514956Y-48956762D01*
X64575464Y-49102841D01*
X64671718Y-49228282D01*
X64797159Y-49324536D01*
X64943238Y-49385044D01*
X65100000Y-49405682D01*
X65108188Y-49404604D01*
X65248574Y-49386122D01*
X65256762Y-49385044D01*
X65402841Y-49324536D01*
X65528282Y-49228282D01*
X65624536Y-49102841D01*
X65669563Y-48994136D01*
X65714111Y-48938855D01*
X65781475Y-48916434D01*
X65850266Y-48933992D01*
X65898644Y-48985954D01*
X65910894Y-49025908D01*
X65914956Y-49056762D01*
X65975464Y-49202841D01*
X66071718Y-49328282D01*
X66197159Y-49424536D01*
X66343238Y-49485044D01*
X66500000Y-49505682D01*
X66508188Y-49504604D01*
X66518967Y-49503185D01*
X66656762Y-49485044D01*
X66802841Y-49424536D01*
X66928282Y-49328282D01*
X67024536Y-49202841D01*
X67085044Y-49056762D01*
X67090653Y-49014157D01*
X67119376Y-48949230D01*
X67178641Y-48910139D01*
X67200162Y-48906914D01*
X67200000Y-48905682D01*
X67356762Y-48885044D01*
X67502841Y-48824536D01*
X67628282Y-48728282D01*
X67649984Y-48700000D01*
X67683161Y-48656762D01*
X67724536Y-48602841D01*
X67785044Y-48456762D01*
X67805682Y-48300000D01*
X67785044Y-48143238D01*
X67767134Y-48100000D01*
X75694318Y-48100000D01*
X75714956Y-48256762D01*
X75775464Y-48402841D01*
X75816839Y-48456762D01*
X75864435Y-48518790D01*
X75871718Y-48528282D01*
X75997159Y-48624536D01*
X76143238Y-48685044D01*
X76300000Y-48705682D01*
X76308188Y-48704604D01*
X76322165Y-48702764D01*
X76456762Y-48685044D01*
X76602841Y-48624536D01*
X76728282Y-48528282D01*
X76735566Y-48518790D01*
X76783161Y-48456762D01*
X76824536Y-48402841D01*
X76885044Y-48256762D01*
X76905682Y-48100000D01*
X76885044Y-47943238D01*
X76824536Y-47797159D01*
X76752163Y-47702841D01*
X76733305Y-47678264D01*
X76728282Y-47671718D01*
X76602841Y-47575464D01*
X76456762Y-47514956D01*
X76300000Y-47494318D01*
X76143238Y-47514956D01*
X75997159Y-47575464D01*
X75871718Y-47671718D01*
X75866695Y-47678264D01*
X75847837Y-47702841D01*
X75775464Y-47797159D01*
X75714956Y-47943238D01*
X75694318Y-48100000D01*
X67767134Y-48100000D01*
X67724536Y-47997159D01*
X67628282Y-47871718D01*
X67502841Y-47775464D01*
X67356762Y-47714956D01*
X67290550Y-47706239D01*
X67243159Y-47700000D01*
X67200000Y-47694318D01*
X67156841Y-47700000D01*
X67109451Y-47706239D01*
X67043238Y-47714956D01*
X66897159Y-47775464D01*
X66771718Y-47871718D01*
X66675464Y-47997159D01*
X66614956Y-48143238D01*
X66609662Y-48183454D01*
X66609347Y-48185843D01*
X66580624Y-48250770D01*
X66521359Y-48289861D01*
X66499838Y-48293086D01*
X66500000Y-48294318D01*
X66343238Y-48314956D01*
X66197159Y-48375464D01*
X66071718Y-48471718D01*
X66066695Y-48478264D01*
X66047837Y-48502841D01*
X65975464Y-48597159D01*
X65932866Y-48700000D01*
X65930437Y-48705864D01*
X65885889Y-48761145D01*
X65818525Y-48783566D01*
X65749734Y-48766008D01*
X65701356Y-48714046D01*
X65689106Y-48674092D01*
X65686122Y-48651426D01*
X65685044Y-48643238D01*
X65624536Y-48497159D01*
X65528282Y-48371718D01*
X65402841Y-48275464D01*
X65256762Y-48214956D01*
X65100000Y-48194318D01*
X64943238Y-48214956D01*
X64797159Y-48275464D01*
X64671718Y-48371718D01*
X64575464Y-48497159D01*
X64514956Y-48643238D01*
X64494318Y-48800000D01*
X62743160Y-48800000D01*
X62856762Y-48785044D01*
X63002841Y-48724536D01*
X63128282Y-48628282D01*
X63149984Y-48600000D01*
X63157190Y-48590608D01*
X63224536Y-48502841D01*
X63285044Y-48356762D01*
X63305682Y-48200000D01*
X63285044Y-48043238D01*
X63224536Y-47897159D01*
X63138827Y-47785461D01*
X63133305Y-47778264D01*
X63128282Y-47771718D01*
X63002841Y-47675464D01*
X62856762Y-47614956D01*
X62700000Y-47594318D01*
X62543238Y-47614956D01*
X62397159Y-47675464D01*
X62271718Y-47771718D01*
X62266695Y-47778264D01*
X62261173Y-47785461D01*
X62175464Y-47897159D01*
X62152986Y-47951426D01*
X62126671Y-48014956D01*
X62115597Y-48041691D01*
X62115595Y-48041694D01*
X62114956Y-48043238D01*
X62114715Y-48043138D01*
X62080233Y-48099711D01*
X62016373Y-48130733D01*
X61945879Y-48122305D01*
X61891131Y-48077103D01*
X61870555Y-48022925D01*
X61861142Y-47951426D01*
X61860064Y-47943238D01*
X61799556Y-47797159D01*
X61727183Y-47702841D01*
X61708325Y-47678264D01*
X61703302Y-47671718D01*
X61577861Y-47575464D01*
X61431782Y-47514956D01*
X61275020Y-47494318D01*
X61118258Y-47514956D01*
X60972179Y-47575464D01*
X60846738Y-47671718D01*
X60841715Y-47678264D01*
X60822857Y-47702841D01*
X60750484Y-47797159D01*
X60689976Y-47943238D01*
X60688898Y-47951426D01*
X60681931Y-48004347D01*
X60653209Y-48069274D01*
X60593944Y-48108366D01*
X60540563Y-48112823D01*
X60408188Y-48095396D01*
X60400000Y-48094318D01*
X60243238Y-48114956D01*
X60097159Y-48175464D01*
X59971718Y-48271718D01*
X59966695Y-48278264D01*
X59946484Y-48304604D01*
X59875464Y-48397159D01*
X59814956Y-48543238D01*
X59794318Y-48700000D01*
X58392517Y-48700000D01*
X58405682Y-48600000D01*
X58385044Y-48443238D01*
X58324536Y-48297159D01*
X58250205Y-48200289D01*
X58233305Y-48178264D01*
X58228282Y-48171718D01*
X58216676Y-48162812D01*
X58187494Y-48140420D01*
X58102841Y-48075464D01*
X57956762Y-48014956D01*
X57800000Y-47994318D01*
X57791812Y-47995396D01*
X57791811Y-47995396D01*
X57677514Y-48010443D01*
X57607365Y-47999503D01*
X57554267Y-47952375D01*
X57539361Y-47918132D01*
X57482585Y-47706239D01*
X57478839Y-47695947D01*
X57386763Y-47498489D01*
X57381280Y-47488994D01*
X57344840Y-47436952D01*
X57334361Y-47428576D01*
X57320915Y-47435644D01*
X56619371Y-48137188D01*
X56611757Y-48151132D01*
X55881705Y-48151132D01*
X55882941Y-48148868D01*
X55882810Y-48147035D01*
X55878559Y-48140420D01*
X55173062Y-47434923D01*
X55161287Y-47428493D01*
X55149272Y-47437789D01*
X55113418Y-47488994D01*
X55107935Y-47498489D01*
X55015859Y-47695947D01*
X55012113Y-47706239D01*
X54955724Y-47916688D01*
X54953821Y-47927481D01*
X54934832Y-48144525D01*
X54934832Y-48155475D01*
X53847849Y-48155475D01*
X53847849Y-47305354D01*
X53844731Y-47279154D01*
X53799288Y-47176847D01*
X53720062Y-47097759D01*
X53709425Y-47093056D01*
X53709423Y-47093055D01*
X53643561Y-47063938D01*
X53641412Y-47062988D01*
X55525925Y-47062988D01*
X55532993Y-47076434D01*
X56234537Y-47777978D01*
X56248481Y-47785592D01*
X56250314Y-47785461D01*
X56256929Y-47781210D01*
X56962426Y-47075713D01*
X56968856Y-47063938D01*
X56959560Y-47051923D01*
X56908355Y-47016069D01*
X56898860Y-47010586D01*
X56701402Y-46918510D01*
X56691110Y-46914764D01*
X56480661Y-46858375D01*
X56469868Y-46856472D01*
X56252824Y-46837483D01*
X56241874Y-46837483D01*
X56024830Y-46856472D01*
X56014037Y-46858375D01*
X55803588Y-46914764D01*
X55793296Y-46918510D01*
X55595838Y-47010586D01*
X55586343Y-47016069D01*
X55534301Y-47052509D01*
X55525925Y-47062988D01*
X53641412Y-47062988D01*
X53617676Y-47052494D01*
X53591995Y-47049500D01*
X51902703Y-47049500D01*
X51898999Y-47049941D01*
X51898996Y-47049941D01*
X51891603Y-47050821D01*
X51876503Y-47052618D01*
X51867863Y-47056456D01*
X51867862Y-47056456D01*
X51790975Y-47090608D01*
X51774196Y-47098061D01*
X51765977Y-47106294D01*
X51765976Y-47106295D01*
X51757330Y-47114956D01*
X51695108Y-47177287D01*
X51690405Y-47187924D01*
X51690404Y-47187926D01*
X51669324Y-47235609D01*
X51649843Y-47279673D01*
X51646849Y-47305354D01*
X51646849Y-48994646D01*
X48228838Y-48994646D01*
X48226402Y-48993510D01*
X48216110Y-48989764D01*
X48005661Y-48933375D01*
X47994868Y-48931472D01*
X47777824Y-48912483D01*
X47766874Y-48912483D01*
X47549830Y-48931472D01*
X47539037Y-48933375D01*
X47328588Y-48989764D01*
X47318296Y-48993510D01*
X47120838Y-49085586D01*
X47111343Y-49091069D01*
X47059301Y-49127509D01*
X47050925Y-49137988D01*
X45166412Y-49137988D01*
X45142676Y-49127494D01*
X45116995Y-49124500D01*
X43427703Y-49124500D01*
X43423999Y-49124941D01*
X43423996Y-49124941D01*
X43416603Y-49125821D01*
X43401503Y-49127618D01*
X43392863Y-49131456D01*
X43392862Y-49131456D01*
X43347885Y-49151434D01*
X43299196Y-49173061D01*
X43290977Y-49181294D01*
X43290976Y-49181295D01*
X43265371Y-49206945D01*
X43220108Y-49252287D01*
X43215405Y-49262924D01*
X43215404Y-49262926D01*
X43196502Y-49305682D01*
X43174843Y-49354673D01*
X43171849Y-49380354D01*
X43171849Y-51015476D01*
X43151847Y-51083597D01*
X43098191Y-51130090D01*
X43027917Y-51140194D01*
X42997630Y-51131884D01*
X42964395Y-51118117D01*
X42964390Y-51118116D01*
X42956762Y-51114956D01*
X42800000Y-51094318D01*
X42643238Y-51114956D01*
X42635609Y-51118116D01*
X42626165Y-51122028D01*
X42497159Y-51175464D01*
X42371718Y-51271718D01*
X42366695Y-51278264D01*
X42347837Y-51302841D01*
X42275464Y-51397159D01*
X42214956Y-51543238D01*
X42194318Y-51700000D01*
X38907877Y-51700000D01*
X38933474Y-51642138D01*
X38992740Y-51603046D01*
X39046119Y-51598589D01*
X39091810Y-51604604D01*
X39091812Y-51604604D01*
X39100000Y-51605682D01*
X39108188Y-51604604D01*
X39120023Y-51603046D01*
X39256762Y-51585044D01*
X39402841Y-51524536D01*
X39528282Y-51428282D01*
X39624536Y-51302841D01*
X39685044Y-51156762D01*
X39705682Y-51000000D01*
X39691439Y-50891812D01*
X39686122Y-50851426D01*
X39685044Y-50843238D01*
X39624536Y-50697159D01*
X39542238Y-50589906D01*
X39533305Y-50578264D01*
X39528282Y-50571718D01*
X39521736Y-50566695D01*
X39521732Y-50566691D01*
X39496030Y-50546969D01*
X39454163Y-50489631D01*
X39449941Y-50418760D01*
X39472771Y-50370303D01*
X39514020Y-50316546D01*
X39524536Y-50302841D01*
X39585044Y-50156762D01*
X39592517Y-50100000D01*
X40694318Y-50100000D01*
X40695396Y-50108188D01*
X40710924Y-50226132D01*
X40714956Y-50256762D01*
X40775464Y-50402841D01*
X40871718Y-50528282D01*
X40878264Y-50533305D01*
X40896071Y-50546969D01*
X40997159Y-50624536D01*
X41143238Y-50685044D01*
X41300000Y-50705682D01*
X41308188Y-50704604D01*
X41448574Y-50686122D01*
X41456762Y-50685044D01*
X41602841Y-50624536D01*
X41703929Y-50546969D01*
X41721736Y-50533305D01*
X41728282Y-50528282D01*
X41824536Y-50402841D01*
X41885044Y-50256762D01*
X41889077Y-50226132D01*
X41904604Y-50108188D01*
X41905682Y-50100000D01*
X41892843Y-50002481D01*
X41886122Y-49951426D01*
X41885044Y-49943238D01*
X41824536Y-49797159D01*
X41728282Y-49671718D01*
X41602841Y-49575464D01*
X41456762Y-49514956D01*
X41418533Y-49509923D01*
X41308188Y-49495396D01*
X41300000Y-49494318D01*
X41291812Y-49495396D01*
X41181468Y-49509923D01*
X41143238Y-49514956D01*
X40997159Y-49575464D01*
X40871718Y-49671718D01*
X40775464Y-49797159D01*
X40714956Y-49943238D01*
X40713878Y-49951426D01*
X40707157Y-50002481D01*
X40694318Y-50100000D01*
X39592517Y-50100000D01*
X39605682Y-50000000D01*
X39585044Y-49843238D01*
X39524536Y-49697159D01*
X39479874Y-49638954D01*
X39454274Y-49572733D01*
X39468539Y-49503185D01*
X39479874Y-49485546D01*
X39512115Y-49443528D01*
X39524536Y-49427341D01*
X39585044Y-49281262D01*
X39605682Y-49124500D01*
X39588661Y-48995211D01*
X39586122Y-48975926D01*
X39585044Y-48967738D01*
X39524536Y-48821659D01*
X39428282Y-48696218D01*
X39302841Y-48599964D01*
X39156762Y-48539456D01*
X39000000Y-48518818D01*
X38843238Y-48539456D01*
X38697159Y-48599964D01*
X38571718Y-48696218D01*
X38475464Y-48821659D01*
X38414956Y-48967738D01*
X38413878Y-48975926D01*
X38411339Y-48995211D01*
X38394318Y-49124500D01*
X38414956Y-49281262D01*
X38475464Y-49427341D01*
X38487885Y-49443528D01*
X38520126Y-49485546D01*
X38545726Y-49551767D01*
X38531461Y-49621315D01*
X38520126Y-49638954D01*
X38475464Y-49697159D01*
X38414956Y-49843238D01*
X38394318Y-50000000D01*
X38414956Y-50156762D01*
X38475464Y-50302841D01*
X38485980Y-50316546D01*
X38564412Y-50418760D01*
X38571718Y-50428282D01*
X38578264Y-50433305D01*
X38578268Y-50433309D01*
X38603970Y-50453031D01*
X38645837Y-50510369D01*
X38650059Y-50581240D01*
X38627229Y-50629697D01*
X38575464Y-50697159D01*
X38514956Y-50843238D01*
X38513878Y-50851426D01*
X38495248Y-50992935D01*
X38466526Y-51057862D01*
X38407260Y-51096954D01*
X38353881Y-51101411D01*
X38308190Y-51095396D01*
X38308188Y-51095396D01*
X38300000Y-51094318D01*
X38143238Y-51114956D01*
X38135609Y-51118116D01*
X38126165Y-51122028D01*
X37997159Y-51175464D01*
X37871718Y-51271718D01*
X37866695Y-51278264D01*
X37847837Y-51302841D01*
X37775464Y-51397159D01*
X37714956Y-51543238D01*
X37694318Y-51700000D01*
X34683827Y-51700000D01*
X34681474Y-51694318D01*
X34657155Y-51635609D01*
X34624536Y-51556859D01*
X34528282Y-51431418D01*
X34402841Y-51335164D01*
X34270849Y-51280491D01*
X34264391Y-51277816D01*
X34256762Y-51274656D01*
X34211560Y-51268705D01*
X34108188Y-51255096D01*
X34100000Y-51254018D01*
X34091812Y-51255096D01*
X33988441Y-51268705D01*
X33943238Y-51274656D01*
X33935609Y-51277816D01*
X33929151Y-51280491D01*
X33797159Y-51335164D01*
X33790608Y-51340191D01*
X33790604Y-51340193D01*
X33763937Y-51360655D01*
X33697717Y-51386255D01*
X33628168Y-51371990D01*
X33577372Y-51322388D01*
X33570825Y-51308910D01*
X33543766Y-51243584D01*
X33524536Y-51197159D01*
X33445624Y-51094318D01*
X33433305Y-51078264D01*
X33428282Y-51071718D01*
X33410225Y-51057862D01*
X33334817Y-51000000D01*
X33302841Y-50975464D01*
X33156762Y-50914956D01*
X33100877Y-50907599D01*
X33035950Y-50878877D01*
X32996858Y-50819612D01*
X32992401Y-50799122D01*
X32989287Y-50775464D01*
X32985044Y-50743238D01*
X32924536Y-50597159D01*
X32828282Y-50471718D01*
X32828346Y-50471669D01*
X32796288Y-50412961D01*
X32801353Y-50342146D01*
X32815494Y-50316612D01*
X32815379Y-50316546D01*
X32819104Y-50310094D01*
X32819449Y-50309471D01*
X32819508Y-50309394D01*
X32819509Y-50309392D01*
X32824536Y-50302841D01*
X32885044Y-50156762D01*
X32891811Y-50105361D01*
X32920533Y-50040434D01*
X32979798Y-50001342D01*
X33033179Y-49996885D01*
X33091812Y-50004604D01*
X33100000Y-50005682D01*
X33108188Y-50004604D01*
X33248574Y-49986122D01*
X33256762Y-49985044D01*
X33402841Y-49924536D01*
X33528282Y-49828282D01*
X33624536Y-49702841D01*
X33685044Y-49556762D01*
X33705682Y-49400000D01*
X33685044Y-49243238D01*
X33624536Y-49097159D01*
X33570474Y-49026704D01*
X33544874Y-48960484D01*
X33559139Y-48890935D01*
X33570474Y-48873296D01*
X33624536Y-48802841D01*
X33685044Y-48656762D01*
X33705682Y-48500000D01*
X33685044Y-48343238D01*
X33624536Y-48197159D01*
X33619509Y-48190607D01*
X33615379Y-48183454D01*
X33617383Y-48182297D01*
X33596096Y-48127244D01*
X33610356Y-48057695D01*
X33659954Y-48006896D01*
X33705211Y-47991831D01*
X33748574Y-47986122D01*
X33756762Y-47985044D01*
X33902841Y-47924536D01*
X34028282Y-47828282D01*
X34124536Y-47702841D01*
X34185044Y-47556762D01*
X34205682Y-47400000D01*
X34185044Y-47243238D01*
X34186253Y-47243079D01*
X34187748Y-47180219D01*
X34227542Y-47121422D01*
X34291319Y-47093660D01*
X34348574Y-47086122D01*
X34356762Y-47085044D01*
X34502841Y-47024536D01*
X34573296Y-46970474D01*
X34639516Y-46944874D01*
X34709065Y-46959139D01*
X34726703Y-46970473D01*
X34797159Y-47024536D01*
X34943238Y-47085044D01*
X35100000Y-47105682D01*
X35108188Y-47104604D01*
X35157888Y-47098061D01*
X35256762Y-47085044D01*
X35402841Y-47024536D01*
X35528282Y-46928282D01*
X35533305Y-46921736D01*
X35533308Y-46921733D01*
X35570562Y-46873182D01*
X35627900Y-46831314D01*
X35698771Y-46827092D01*
X35718739Y-46833475D01*
X35843238Y-46885044D01*
X36000000Y-46905682D01*
X36008188Y-46904604D01*
X36148574Y-46886122D01*
X36156762Y-46885044D01*
X36302841Y-46824536D01*
X36428282Y-46728282D01*
X36524536Y-46602841D01*
X36576344Y-46477766D01*
X36620893Y-46422485D01*
X36688256Y-46400064D01*
X36757047Y-46417622D01*
X36771364Y-46428744D01*
X36771718Y-46428282D01*
X36897159Y-46524536D01*
X37043238Y-46585044D01*
X37200000Y-46605682D01*
X37208188Y-46604604D01*
X37327392Y-46588911D01*
X37397541Y-46599851D01*
X37450639Y-46646979D01*
X37460246Y-46665614D01*
X37472300Y-46694715D01*
X37472305Y-46694724D01*
X37475464Y-46702350D01*
X37571718Y-46827791D01*
X37697159Y-46924045D01*
X37843238Y-46984553D01*
X38000000Y-47005191D01*
X38008188Y-47004113D01*
X38016446Y-47004113D01*
X38016446Y-47006307D01*
X38075186Y-47015464D01*
X38128286Y-47062590D01*
X38146410Y-47113003D01*
X38156354Y-47188536D01*
X38216862Y-47334615D01*
X38313116Y-47460056D01*
X38438557Y-47556310D01*
X38584636Y-47616818D01*
X38741398Y-47637456D01*
X38749586Y-47636378D01*
X38889972Y-47617896D01*
X38898160Y-47616818D01*
X39044239Y-47556310D01*
X39169680Y-47460056D01*
X39265934Y-47334615D01*
X39326442Y-47188536D01*
X39347080Y-47031774D01*
X39326442Y-46875012D01*
X39265934Y-46728933D01*
X39169680Y-46603492D01*
X39044239Y-46507238D01*
X38898160Y-46446730D01*
X38741398Y-46426092D01*
X38733210Y-46427170D01*
X38724952Y-46427170D01*
X38724952Y-46424976D01*
X38666212Y-46415819D01*
X38647824Y-46399500D01*
X62894223Y-46399500D01*
X62914861Y-46556262D01*
X62975369Y-46702341D01*
X63071623Y-46827782D01*
X63078169Y-46832805D01*
X63084266Y-46837483D01*
X63197064Y-46924036D01*
X63343143Y-46984544D01*
X63351331Y-46985622D01*
X63358304Y-46986540D01*
X63499905Y-47005182D01*
X63508093Y-47004104D01*
X63648479Y-46985622D01*
X63656667Y-46984544D01*
X63802746Y-46924036D01*
X63915544Y-46837483D01*
X63921641Y-46832805D01*
X63928187Y-46827782D01*
X64024441Y-46702341D01*
X64084949Y-46556262D01*
X64105587Y-46399500D01*
X64092488Y-46300000D01*
X65894318Y-46300000D01*
X65914956Y-46456762D01*
X65975464Y-46602841D01*
X66071718Y-46728282D01*
X66197159Y-46824536D01*
X66343238Y-46885044D01*
X66500000Y-46905682D01*
X66508188Y-46904604D01*
X66648574Y-46886122D01*
X66656762Y-46885044D01*
X66802841Y-46824536D01*
X66928282Y-46728282D01*
X67024536Y-46602841D01*
X67085044Y-46456762D01*
X67105682Y-46300000D01*
X67085044Y-46143238D01*
X67024536Y-45997159D01*
X66956059Y-45907918D01*
X66949983Y-45900000D01*
X68594318Y-45900000D01*
X68614956Y-46056762D01*
X68675464Y-46202841D01*
X68680491Y-46209392D01*
X68750017Y-46300000D01*
X68771718Y-46328282D01*
X68897159Y-46424536D01*
X69043238Y-46485044D01*
X69200000Y-46505682D01*
X69208188Y-46504604D01*
X69212184Y-46504078D01*
X69356762Y-46485044D01*
X69502841Y-46424536D01*
X69628282Y-46328282D01*
X69649984Y-46300000D01*
X69719509Y-46209392D01*
X69724536Y-46202841D01*
X69785044Y-46056762D01*
X69805682Y-45900000D01*
X69785044Y-45743238D01*
X69724536Y-45597159D01*
X69628282Y-45471718D01*
X69502841Y-45375464D01*
X69356762Y-45314956D01*
X69200000Y-45294318D01*
X69043238Y-45314956D01*
X68897159Y-45375464D01*
X68771718Y-45471718D01*
X68675464Y-45597159D01*
X68614956Y-45743238D01*
X68594318Y-45900000D01*
X66949983Y-45900000D01*
X66933305Y-45878264D01*
X66928282Y-45871718D01*
X66802841Y-45775464D01*
X66656762Y-45714956D01*
X66500000Y-45694318D01*
X66343238Y-45714956D01*
X66197159Y-45775464D01*
X66071718Y-45871718D01*
X66066695Y-45878264D01*
X66043941Y-45907918D01*
X65975464Y-45997159D01*
X65914956Y-46143238D01*
X65894318Y-46300000D01*
X64092488Y-46300000D01*
X64084949Y-46242738D01*
X64024441Y-46096659D01*
X63928187Y-45971218D01*
X63802746Y-45874964D01*
X63656667Y-45814456D01*
X63627363Y-45810598D01*
X63544264Y-45799658D01*
X63499905Y-45793818D01*
X63455546Y-45799658D01*
X63372448Y-45810598D01*
X63343143Y-45814456D01*
X63197064Y-45874964D01*
X63071623Y-45971218D01*
X62975369Y-46096659D01*
X62914861Y-46242738D01*
X62894223Y-46399500D01*
X38647824Y-46399500D01*
X38613112Y-46368693D01*
X38594988Y-46318280D01*
X38586122Y-46250935D01*
X38585044Y-46242747D01*
X38524536Y-46096668D01*
X38443154Y-45990608D01*
X38433305Y-45977773D01*
X38428282Y-45971227D01*
X38302841Y-45874973D01*
X38156762Y-45814465D01*
X38148506Y-45813378D01*
X38008188Y-45794905D01*
X38000000Y-45793827D01*
X37991812Y-45794905D01*
X37872608Y-45810598D01*
X37802459Y-45799658D01*
X37749361Y-45752530D01*
X37739754Y-45733895D01*
X37727700Y-45704794D01*
X37727695Y-45704785D01*
X37724536Y-45697159D01*
X37628282Y-45571718D01*
X37502841Y-45475464D01*
X37356762Y-45414956D01*
X37200000Y-45394318D01*
X37043238Y-45414956D01*
X36897159Y-45475464D01*
X36771718Y-45571718D01*
X36675464Y-45697159D01*
X36652986Y-45751426D01*
X36623656Y-45822234D01*
X36579107Y-45877515D01*
X36511744Y-45899936D01*
X36442953Y-45882378D01*
X36428636Y-45871256D01*
X36428282Y-45871718D01*
X36353668Y-45814465D01*
X36302841Y-45775464D01*
X36156762Y-45714956D01*
X36000000Y-45694318D01*
X35843238Y-45714956D01*
X35697159Y-45775464D01*
X35571718Y-45871718D01*
X35566695Y-45878264D01*
X35566692Y-45878267D01*
X35529438Y-45926818D01*
X35472100Y-45968686D01*
X35401229Y-45972908D01*
X35381261Y-45966525D01*
X35256762Y-45914956D01*
X35100000Y-45894318D01*
X34943238Y-45914956D01*
X34797159Y-45975464D01*
X34765183Y-46000000D01*
X34726704Y-46029526D01*
X34660484Y-46055126D01*
X34590935Y-46040861D01*
X34573296Y-46029526D01*
X34534817Y-46000000D01*
X34502841Y-45975464D01*
X34356762Y-45914956D01*
X34200000Y-45894318D01*
X34043238Y-45914956D01*
X33897159Y-45975464D01*
X33771718Y-46071718D01*
X33675464Y-46197159D01*
X33614956Y-46343238D01*
X33594318Y-46500000D01*
X33613935Y-46649007D01*
X33613935Y-46649008D01*
X33614956Y-46656762D01*
X33613747Y-46656921D01*
X33612252Y-46719781D01*
X33572458Y-46778578D01*
X33508681Y-46806340D01*
X33451426Y-46813878D01*
X33443238Y-46814956D01*
X33297159Y-46875464D01*
X33171718Y-46971718D01*
X33166695Y-46978264D01*
X33146040Y-47005182D01*
X33075464Y-47097159D01*
X33014956Y-47243238D01*
X32994318Y-47400000D01*
X33014956Y-47556762D01*
X33075464Y-47702841D01*
X33080491Y-47709392D01*
X33084621Y-47716546D01*
X33082617Y-47717703D01*
X33103904Y-47772756D01*
X33089644Y-47842305D01*
X33040046Y-47893104D01*
X32994789Y-47908169D01*
X32951426Y-47913878D01*
X32943238Y-47914956D01*
X32797159Y-47975464D01*
X32671718Y-48071718D01*
X32666695Y-48078264D01*
X32643941Y-48107918D01*
X32575464Y-48197159D01*
X32514956Y-48343238D01*
X32494318Y-48500000D01*
X32514956Y-48656762D01*
X32575464Y-48802841D01*
X32629526Y-48873296D01*
X32655126Y-48939516D01*
X32640861Y-49009065D01*
X32629527Y-49026703D01*
X32575464Y-49097159D01*
X32514956Y-49243238D01*
X32513878Y-49251426D01*
X32508189Y-49294639D01*
X32479467Y-49359566D01*
X32420202Y-49398658D01*
X32366821Y-49403115D01*
X32308188Y-49395396D01*
X32300000Y-49394318D01*
X32143238Y-49414956D01*
X31997159Y-49475464D01*
X31871718Y-49571718D01*
X31775464Y-49697159D01*
X31714956Y-49843238D01*
X31694318Y-50000000D01*
X31714956Y-50156762D01*
X31775464Y-50302841D01*
X31785980Y-50316546D01*
X31864412Y-50418760D01*
X31871402Y-50427870D01*
X31871403Y-50427872D01*
X31871718Y-50428282D01*
X31871654Y-50428331D01*
X31903712Y-50487039D01*
X31898647Y-50557854D01*
X31884506Y-50583388D01*
X31884621Y-50583454D01*
X31880896Y-50589906D01*
X31880551Y-50590529D01*
X31875464Y-50597159D01*
X31814956Y-50743238D01*
X31794318Y-50900000D01*
X31814956Y-51056762D01*
X31875464Y-51202841D01*
X31915561Y-51255096D01*
X31950017Y-51300000D01*
X31971718Y-51328282D01*
X31978264Y-51333305D01*
X31987238Y-51340191D01*
X32097159Y-51424536D01*
X32243238Y-51485044D01*
X32299123Y-51492401D01*
X32364050Y-51521123D01*
X32403142Y-51580388D01*
X32407598Y-51600875D01*
X32414956Y-51656762D01*
X32431118Y-51695781D01*
X32438707Y-51766369D01*
X32406928Y-51829856D01*
X32345870Y-51866084D01*
X32274919Y-51863550D01*
X32266491Y-51860407D01*
X32164392Y-51818116D01*
X32164389Y-51818115D01*
X32156762Y-51814956D01*
X32000000Y-51794318D01*
X31843238Y-51814956D01*
X31697159Y-51875464D01*
X31571718Y-51971718D01*
X31475464Y-52097159D01*
X31414956Y-52243238D01*
X31394318Y-52400000D01*
X28300500Y-52400000D01*
X28300500Y-47700000D01*
X28594318Y-47700000D01*
X28614956Y-47856762D01*
X28675464Y-48002841D01*
X28717555Y-48057695D01*
X28750017Y-48100000D01*
X28771718Y-48128282D01*
X28778264Y-48133305D01*
X28787537Y-48140420D01*
X28897159Y-48224536D01*
X29043238Y-48285044D01*
X29200000Y-48305682D01*
X29208188Y-48304604D01*
X29348574Y-48286122D01*
X29356762Y-48285044D01*
X29502841Y-48224536D01*
X29612463Y-48140420D01*
X29621736Y-48133305D01*
X29628282Y-48128282D01*
X29649984Y-48100000D01*
X29682445Y-48057695D01*
X29724536Y-48002841D01*
X29785044Y-47856762D01*
X29805682Y-47700000D01*
X29785044Y-47543238D01*
X29724536Y-47397159D01*
X29628282Y-47271718D01*
X29502841Y-47175464D01*
X29356762Y-47114956D01*
X29341928Y-47113003D01*
X29226137Y-47097759D01*
X29200000Y-47094318D01*
X29173863Y-47097759D01*
X29058073Y-47113003D01*
X29043238Y-47114956D01*
X28897159Y-47175464D01*
X28771718Y-47271718D01*
X28675464Y-47397159D01*
X28614956Y-47543238D01*
X28594318Y-47700000D01*
X28300500Y-47700000D01*
X28300500Y-44800000D01*
X53094318Y-44800000D01*
X53114956Y-44956762D01*
X53175464Y-45102841D01*
X53271718Y-45228282D01*
X53397159Y-45324536D01*
X53543238Y-45385044D01*
X53700000Y-45405682D01*
X53708188Y-45404604D01*
X53848574Y-45386122D01*
X53856762Y-45385044D01*
X54002841Y-45324536D01*
X54128282Y-45228282D01*
X54224536Y-45102841D01*
X54285044Y-44956762D01*
X54305682Y-44800000D01*
X54285044Y-44643238D01*
X54224536Y-44497159D01*
X54156059Y-44407918D01*
X54133305Y-44378264D01*
X54128282Y-44371718D01*
X54002841Y-44275464D01*
X53856762Y-44214956D01*
X53700000Y-44194318D01*
X53543238Y-44214956D01*
X53397159Y-44275464D01*
X53271718Y-44371718D01*
X53266695Y-44378264D01*
X53243941Y-44407918D01*
X53175464Y-44497159D01*
X53114956Y-44643238D01*
X53094318Y-44800000D01*
X28300500Y-44800000D01*
X28300500Y-43149754D01*
X31144967Y-43149754D01*
X31158796Y-43360749D01*
X31160217Y-43366345D01*
X31160218Y-43366350D01*
X31182784Y-43455200D01*
X31210845Y-43565690D01*
X31299369Y-43757714D01*
X31421405Y-43930391D01*
X31425539Y-43934418D01*
X31565727Y-44070983D01*
X31572865Y-44077937D01*
X31577661Y-44081142D01*
X31577664Y-44081144D01*
X31682849Y-44151426D01*
X31748677Y-44195411D01*
X31753985Y-44197692D01*
X31753986Y-44197692D01*
X31937650Y-44276600D01*
X31937653Y-44276601D01*
X31942953Y-44278878D01*
X31948582Y-44280152D01*
X31948583Y-44280152D01*
X32143550Y-44324269D01*
X32143553Y-44324269D01*
X32149186Y-44325544D01*
X32154957Y-44325771D01*
X32154959Y-44325771D01*
X32216989Y-44328208D01*
X32360470Y-44333846D01*
X32366179Y-44333018D01*
X32366183Y-44333018D01*
X32564015Y-44304333D01*
X32564019Y-44304332D01*
X32569730Y-44303504D01*
X32648987Y-44276600D01*
X32764483Y-44237395D01*
X32764488Y-44237393D01*
X32769955Y-44235537D01*
X32800245Y-44218574D01*
X32949395Y-44135046D01*
X32949399Y-44135043D01*
X32954442Y-44132219D01*
X33117012Y-43997012D01*
X33252219Y-43834442D01*
X33255043Y-43829399D01*
X33255046Y-43829395D01*
X33352713Y-43654998D01*
X33352714Y-43654996D01*
X33355537Y-43649955D01*
X33357393Y-43644488D01*
X33357395Y-43644483D01*
X33421647Y-43455200D01*
X33423504Y-43449730D01*
X33429353Y-43409392D01*
X33438804Y-43344211D01*
X33468374Y-43279665D01*
X33528146Y-43241353D01*
X33599143Y-43241437D01*
X33658823Y-43279892D01*
X33688239Y-43344508D01*
X33689500Y-43362291D01*
X33689500Y-44074646D01*
X33692618Y-44100846D01*
X33696456Y-44109486D01*
X33696456Y-44109487D01*
X33704911Y-44128521D01*
X33738061Y-44203153D01*
X33746294Y-44211372D01*
X33746295Y-44211373D01*
X33772363Y-44237395D01*
X33817287Y-44282241D01*
X33827924Y-44286944D01*
X33827926Y-44286945D01*
X33875977Y-44308188D01*
X33919673Y-44327506D01*
X33945354Y-44330500D01*
X35734646Y-44330500D01*
X35738350Y-44330059D01*
X35738353Y-44330059D01*
X35745746Y-44329179D01*
X35760846Y-44327382D01*
X35863153Y-44281939D01*
X35872772Y-44272304D01*
X35912293Y-44232713D01*
X35942241Y-44202713D01*
X35987506Y-44100327D01*
X35990500Y-44074646D01*
X35990500Y-43100000D01*
X37194318Y-43100000D01*
X37214956Y-43256762D01*
X37275464Y-43402841D01*
X37371718Y-43528282D01*
X37497159Y-43624536D01*
X37643238Y-43685044D01*
X37800000Y-43705682D01*
X37808188Y-43704604D01*
X37821580Y-43702841D01*
X37956762Y-43685044D01*
X38102841Y-43624536D01*
X38228282Y-43528282D01*
X38324536Y-43402841D01*
X38385044Y-43256762D01*
X38392517Y-43200000D01*
X38694318Y-43200000D01*
X38714956Y-43356762D01*
X38775464Y-43502841D01*
X38871718Y-43628282D01*
X38997159Y-43724536D01*
X39143238Y-43785044D01*
X39300000Y-43805682D01*
X39308188Y-43804604D01*
X39448574Y-43786122D01*
X39456762Y-43785044D01*
X39602841Y-43724536D01*
X39728282Y-43628282D01*
X39824536Y-43502841D01*
X39885044Y-43356762D01*
X39905682Y-43200000D01*
X40194318Y-43200000D01*
X40214956Y-43356762D01*
X40275464Y-43502841D01*
X40371718Y-43628282D01*
X40497159Y-43724536D01*
X40643238Y-43785044D01*
X40800000Y-43805682D01*
X40808188Y-43804604D01*
X40948574Y-43786122D01*
X40956762Y-43785044D01*
X41102841Y-43724536D01*
X41228282Y-43628282D01*
X41324536Y-43502841D01*
X41367134Y-43400000D01*
X51794318Y-43400000D01*
X51814956Y-43556762D01*
X51875464Y-43702841D01*
X51971718Y-43828282D01*
X52097159Y-43924536D01*
X52243238Y-43985044D01*
X52400000Y-44005682D01*
X52408188Y-44004604D01*
X52421580Y-44002841D01*
X52556762Y-43985044D01*
X52702841Y-43924536D01*
X52734817Y-43900000D01*
X57194318Y-43900000D01*
X57214956Y-44056762D01*
X57275464Y-44202841D01*
X57301978Y-44237395D01*
X57350017Y-44300000D01*
X57371718Y-44328282D01*
X57497159Y-44424536D01*
X57643238Y-44485044D01*
X57800000Y-44505682D01*
X57808188Y-44504604D01*
X57948574Y-44486122D01*
X57956762Y-44485044D01*
X58102841Y-44424536D01*
X58228282Y-44328282D01*
X58249984Y-44300000D01*
X58298022Y-44237395D01*
X58324536Y-44202841D01*
X58379561Y-44070000D01*
X59089318Y-44070000D01*
X59109956Y-44226762D01*
X59170464Y-44372841D01*
X59175491Y-44379392D01*
X59260830Y-44490608D01*
X59266718Y-44498282D01*
X59392159Y-44594536D01*
X59538238Y-44655044D01*
X59695000Y-44675682D01*
X59703188Y-44674604D01*
X59843574Y-44656122D01*
X59851762Y-44655044D01*
X59997841Y-44594536D01*
X60123282Y-44498282D01*
X60129171Y-44490608D01*
X60214509Y-44379392D01*
X60219536Y-44372841D01*
X60280044Y-44226762D01*
X60300682Y-44070000D01*
X60281947Y-43927696D01*
X60281122Y-43921426D01*
X60280044Y-43913238D01*
X60274561Y-43900000D01*
X61494318Y-43900000D01*
X61514956Y-44056762D01*
X61575464Y-44202841D01*
X61601978Y-44237395D01*
X61650017Y-44300000D01*
X61671718Y-44328282D01*
X61797159Y-44424536D01*
X61943238Y-44485044D01*
X62100000Y-44505682D01*
X62108188Y-44504604D01*
X62248574Y-44486122D01*
X62256762Y-44485044D01*
X62402841Y-44424536D01*
X62528282Y-44328282D01*
X62549984Y-44300000D01*
X63594318Y-44300000D01*
X63614956Y-44456762D01*
X63675464Y-44602841D01*
X63771718Y-44728282D01*
X63897159Y-44824536D01*
X64043238Y-44885044D01*
X64200000Y-44905682D01*
X64208188Y-44904604D01*
X64348574Y-44886122D01*
X64356762Y-44885044D01*
X64502841Y-44824536D01*
X64628282Y-44728282D01*
X64724536Y-44602841D01*
X64785044Y-44456762D01*
X64805682Y-44300000D01*
X65294318Y-44300000D01*
X65314956Y-44456762D01*
X65375464Y-44602841D01*
X65471718Y-44728282D01*
X65597159Y-44824536D01*
X65743238Y-44885044D01*
X65900000Y-44905682D01*
X65908188Y-44904604D01*
X66048574Y-44886122D01*
X66056762Y-44885044D01*
X66202841Y-44824536D01*
X66328282Y-44728282D01*
X66424536Y-44602841D01*
X66433591Y-44580980D01*
X66478139Y-44525699D01*
X66545502Y-44503278D01*
X66614294Y-44520836D01*
X66662672Y-44572798D01*
X66666408Y-44580977D01*
X66675464Y-44602841D01*
X66771718Y-44728282D01*
X66897159Y-44824536D01*
X67043238Y-44885044D01*
X67200000Y-44905682D01*
X67208188Y-44904604D01*
X67348574Y-44886122D01*
X67356762Y-44885044D01*
X67502841Y-44824536D01*
X67628282Y-44728282D01*
X67724536Y-44602841D01*
X67785044Y-44456762D01*
X67805682Y-44300000D01*
X67785044Y-44143238D01*
X67724536Y-43997159D01*
X67654287Y-43905609D01*
X67633305Y-43878264D01*
X67628282Y-43871718D01*
X67502841Y-43775464D01*
X67356762Y-43714956D01*
X67243159Y-43700000D01*
X69694318Y-43700000D01*
X69714956Y-43856762D01*
X69775464Y-44002841D01*
X69871718Y-44128282D01*
X69997159Y-44224536D01*
X70143238Y-44285044D01*
X70151426Y-44286122D01*
X70194646Y-44291812D01*
X70300000Y-44305682D01*
X70308188Y-44304604D01*
X70310247Y-44304333D01*
X70405354Y-44291812D01*
X70448574Y-44286122D01*
X70456762Y-44285044D01*
X70602841Y-44224536D01*
X70728282Y-44128282D01*
X70824536Y-44002841D01*
X70885044Y-43856762D01*
X70905682Y-43700000D01*
X70885044Y-43543238D01*
X70824536Y-43397159D01*
X70728282Y-43271718D01*
X70602841Y-43175464D01*
X70456762Y-43114956D01*
X70300000Y-43094318D01*
X70143238Y-43114956D01*
X69997159Y-43175464D01*
X69871718Y-43271718D01*
X69775464Y-43397159D01*
X69714956Y-43543238D01*
X69694318Y-43700000D01*
X67243159Y-43700000D01*
X67200000Y-43694318D01*
X67043238Y-43714956D01*
X66897159Y-43775464D01*
X66771718Y-43871718D01*
X66766695Y-43878264D01*
X66745713Y-43905609D01*
X66675464Y-43997159D01*
X66672304Y-44004789D01*
X66666409Y-44019020D01*
X66621861Y-44074301D01*
X66554498Y-44096722D01*
X66485706Y-44079164D01*
X66437328Y-44027202D01*
X66433591Y-44019020D01*
X66427696Y-44004789D01*
X66424536Y-43997159D01*
X66354287Y-43905609D01*
X66333305Y-43878264D01*
X66328282Y-43871718D01*
X66202841Y-43775464D01*
X66056762Y-43714956D01*
X65900000Y-43694318D01*
X65743238Y-43714956D01*
X65597159Y-43775464D01*
X65471718Y-43871718D01*
X65466695Y-43878264D01*
X65445713Y-43905609D01*
X65375464Y-43997159D01*
X65314956Y-44143238D01*
X65294318Y-44300000D01*
X64805682Y-44300000D01*
X64785044Y-44143238D01*
X64724536Y-43997159D01*
X64654287Y-43905609D01*
X64633305Y-43878264D01*
X64628282Y-43871718D01*
X64502841Y-43775464D01*
X64356762Y-43714956D01*
X64200000Y-43694318D01*
X64043238Y-43714956D01*
X63897159Y-43775464D01*
X63771718Y-43871718D01*
X63766695Y-43878264D01*
X63745713Y-43905609D01*
X63675464Y-43997159D01*
X63614956Y-44143238D01*
X63594318Y-44300000D01*
X62549984Y-44300000D01*
X62598022Y-44237395D01*
X62624536Y-44202841D01*
X62685044Y-44056762D01*
X62705682Y-43900000D01*
X62685044Y-43743238D01*
X62624536Y-43597159D01*
X62528282Y-43471718D01*
X62402841Y-43375464D01*
X62256762Y-43314956D01*
X62100000Y-43294318D01*
X61943238Y-43314956D01*
X61797159Y-43375464D01*
X61671718Y-43471718D01*
X61575464Y-43597159D01*
X61514956Y-43743238D01*
X61494318Y-43900000D01*
X60274561Y-43900000D01*
X60219536Y-43767159D01*
X60133472Y-43654998D01*
X60128305Y-43648264D01*
X60123282Y-43641718D01*
X59997841Y-43545464D01*
X59851762Y-43484956D01*
X59695000Y-43464318D01*
X59538238Y-43484956D01*
X59392159Y-43545464D01*
X59266718Y-43641718D01*
X59261695Y-43648264D01*
X59256528Y-43654998D01*
X59170464Y-43767159D01*
X59109956Y-43913238D01*
X59108878Y-43921426D01*
X59108053Y-43927696D01*
X59089318Y-44070000D01*
X58379561Y-44070000D01*
X58385044Y-44056762D01*
X58405682Y-43900000D01*
X58385044Y-43743238D01*
X58324536Y-43597159D01*
X58228282Y-43471718D01*
X58102841Y-43375464D01*
X57956762Y-43314956D01*
X57800000Y-43294318D01*
X57643238Y-43314956D01*
X57497159Y-43375464D01*
X57371718Y-43471718D01*
X57275464Y-43597159D01*
X57214956Y-43743238D01*
X57194318Y-43900000D01*
X52734817Y-43900000D01*
X52828282Y-43828282D01*
X52924536Y-43702841D01*
X52985044Y-43556762D01*
X53005682Y-43400000D01*
X52985044Y-43243238D01*
X52924536Y-43097159D01*
X52828282Y-42971718D01*
X52702841Y-42875464D01*
X52556762Y-42814956D01*
X52400000Y-42794318D01*
X52243238Y-42814956D01*
X52097159Y-42875464D01*
X51971718Y-42971718D01*
X51875464Y-43097159D01*
X51814956Y-43243238D01*
X51794318Y-43400000D01*
X41367134Y-43400000D01*
X41385044Y-43356762D01*
X41405682Y-43200000D01*
X41385044Y-43043238D01*
X41324536Y-42897159D01*
X41228282Y-42771718D01*
X41102841Y-42675464D01*
X40956762Y-42614956D01*
X40800000Y-42594318D01*
X40643238Y-42614956D01*
X40497159Y-42675464D01*
X40371718Y-42771718D01*
X40275464Y-42897159D01*
X40214956Y-43043238D01*
X40194318Y-43200000D01*
X39905682Y-43200000D01*
X39885044Y-43043238D01*
X39824536Y-42897159D01*
X39728282Y-42771718D01*
X39602841Y-42675464D01*
X39456762Y-42614956D01*
X39300000Y-42594318D01*
X39143238Y-42614956D01*
X38997159Y-42675464D01*
X38871718Y-42771718D01*
X38775464Y-42897159D01*
X38714956Y-43043238D01*
X38694318Y-43200000D01*
X38392517Y-43200000D01*
X38405682Y-43100000D01*
X38385044Y-42943238D01*
X38324536Y-42797159D01*
X38228282Y-42671718D01*
X38102841Y-42575464D01*
X37956762Y-42514956D01*
X37800000Y-42494318D01*
X37643238Y-42514956D01*
X37497159Y-42575464D01*
X37371718Y-42671718D01*
X37275464Y-42797159D01*
X37214956Y-42943238D01*
X37194318Y-43100000D01*
X35990500Y-43100000D01*
X35990500Y-42285354D01*
X35987382Y-42259154D01*
X35941939Y-42156847D01*
X35933444Y-42148366D01*
X35870945Y-42085977D01*
X35862713Y-42077759D01*
X35852076Y-42073056D01*
X35852074Y-42073055D01*
X35792538Y-42046735D01*
X35760327Y-42032494D01*
X35734646Y-42029500D01*
X35022291Y-42029500D01*
X34954170Y-42009498D01*
X34907677Y-41955842D01*
X34897573Y-41885568D01*
X34927067Y-41820988D01*
X34986793Y-41782604D01*
X35004211Y-41778804D01*
X35104013Y-41764333D01*
X35104014Y-41764333D01*
X35109730Y-41763504D01*
X35188987Y-41736600D01*
X35304483Y-41697395D01*
X35304488Y-41697393D01*
X35309955Y-41695537D01*
X35314998Y-41692713D01*
X35489395Y-41595046D01*
X35489399Y-41595043D01*
X35494442Y-41592219D01*
X35657012Y-41457012D01*
X35792219Y-41294442D01*
X35795043Y-41289399D01*
X35795046Y-41289395D01*
X35892713Y-41114998D01*
X35892714Y-41114996D01*
X35895537Y-41109955D01*
X35897393Y-41104488D01*
X35897395Y-41104483D01*
X35961647Y-40915200D01*
X35963504Y-40909730D01*
X35977243Y-40814981D01*
X35993314Y-40704140D01*
X35993314Y-40704138D01*
X35993846Y-40700470D01*
X35995429Y-40640000D01*
X35976081Y-40429440D01*
X35918686Y-40225931D01*
X35907553Y-40203354D01*
X35827719Y-40041469D01*
X35825165Y-40036290D01*
X35729507Y-39908188D01*
X35702104Y-39871491D01*
X35702103Y-39871490D01*
X35698651Y-39866867D01*
X35556657Y-39735609D01*
X35547622Y-39727257D01*
X35547620Y-39727255D01*
X35543381Y-39723337D01*
X35364554Y-39610505D01*
X35168160Y-39532152D01*
X35162503Y-39531027D01*
X35162497Y-39531025D01*
X34965234Y-39491788D01*
X34902324Y-39458881D01*
X34867192Y-39397186D01*
X34870992Y-39326291D01*
X34889950Y-39300000D01*
X44294318Y-39300000D01*
X44314956Y-39456762D01*
X44375464Y-39602841D01*
X44443734Y-39691812D01*
X44450017Y-39700000D01*
X44471718Y-39728282D01*
X44597159Y-39824536D01*
X44743238Y-39885044D01*
X44900000Y-39905682D01*
X44908188Y-39904604D01*
X45048574Y-39886122D01*
X45056762Y-39885044D01*
X45202841Y-39824536D01*
X45328282Y-39728282D01*
X45349984Y-39700000D01*
X45356266Y-39691812D01*
X45424536Y-39602841D01*
X45485044Y-39456762D01*
X45505682Y-39300000D01*
X49294318Y-39300000D01*
X49314956Y-39456762D01*
X49375464Y-39602841D01*
X49443734Y-39691812D01*
X49450017Y-39700000D01*
X49471718Y-39728282D01*
X49597159Y-39824536D01*
X49743238Y-39885044D01*
X49900000Y-39905682D01*
X49908188Y-39904604D01*
X50048574Y-39886122D01*
X50056762Y-39885044D01*
X50202841Y-39824536D01*
X50328282Y-39728282D01*
X50349984Y-39700000D01*
X50356266Y-39691812D01*
X50424536Y-39602841D01*
X50485044Y-39456762D01*
X50505682Y-39300000D01*
X50485044Y-39143238D01*
X50424536Y-38997159D01*
X50328282Y-38871718D01*
X50202841Y-38775464D01*
X50056762Y-38714956D01*
X49900000Y-38694318D01*
X49743238Y-38714956D01*
X49597159Y-38775464D01*
X49471718Y-38871718D01*
X49375464Y-38997159D01*
X49314956Y-39143238D01*
X49294318Y-39300000D01*
X45505682Y-39300000D01*
X45485044Y-39143238D01*
X45424536Y-38997159D01*
X45328282Y-38871718D01*
X45202841Y-38775464D01*
X45056762Y-38714956D01*
X44900000Y-38694318D01*
X44743238Y-38714956D01*
X44597159Y-38775464D01*
X44471718Y-38871718D01*
X44375464Y-38997159D01*
X44314956Y-39143238D01*
X44294318Y-39300000D01*
X34889950Y-39300000D01*
X34912517Y-39268705D01*
X34971734Y-39243513D01*
X35104015Y-39224333D01*
X35104019Y-39224332D01*
X35109730Y-39223504D01*
X35188987Y-39196600D01*
X35304483Y-39157395D01*
X35304488Y-39157393D01*
X35309955Y-39155537D01*
X35317296Y-39151426D01*
X35489395Y-39055046D01*
X35489399Y-39055043D01*
X35494442Y-39052219D01*
X35657012Y-38917012D01*
X35792219Y-38754442D01*
X35795043Y-38749399D01*
X35795046Y-38749395D01*
X35892713Y-38574998D01*
X35892714Y-38574996D01*
X35895537Y-38569955D01*
X35897393Y-38564488D01*
X35897395Y-38564483D01*
X35961647Y-38375200D01*
X35963504Y-38369730D01*
X35972864Y-38305182D01*
X35993314Y-38164140D01*
X35993314Y-38164138D01*
X35993846Y-38160470D01*
X35995429Y-38100000D01*
X35976081Y-37889440D01*
X35968876Y-37863891D01*
X35923952Y-37704604D01*
X35918686Y-37685931D01*
X35907553Y-37663354D01*
X35827719Y-37501469D01*
X35825165Y-37496290D01*
X35698651Y-37326867D01*
X35543381Y-37183337D01*
X35411301Y-37100000D01*
X39694318Y-37100000D01*
X39714956Y-37256762D01*
X39775464Y-37402841D01*
X39871718Y-37528282D01*
X39997159Y-37624536D01*
X40143238Y-37685044D01*
X40300000Y-37705682D01*
X40308188Y-37704604D01*
X40346957Y-37699500D01*
X50193818Y-37699500D01*
X50214456Y-37856262D01*
X50274964Y-38002341D01*
X50371218Y-38127782D01*
X50496659Y-38224036D01*
X50642738Y-38284544D01*
X50799500Y-38305182D01*
X50807688Y-38304104D01*
X50948074Y-38285622D01*
X50956262Y-38284544D01*
X51102341Y-38224036D01*
X51227782Y-38127782D01*
X51324036Y-38002341D01*
X51384544Y-37856262D01*
X51405182Y-37699500D01*
X53894318Y-37699500D01*
X53914956Y-37856262D01*
X53975464Y-38002341D01*
X54071718Y-38127782D01*
X54197159Y-38224036D01*
X54343238Y-38284544D01*
X54500000Y-38305182D01*
X54508188Y-38304104D01*
X54648574Y-38285622D01*
X54656762Y-38284544D01*
X54802841Y-38224036D01*
X54809394Y-38219008D01*
X54809397Y-38219006D01*
X54873821Y-38169572D01*
X54940041Y-38143971D01*
X55009590Y-38158236D01*
X55060386Y-38207837D01*
X55076302Y-38277026D01*
X55066934Y-38317752D01*
X55014956Y-38443238D01*
X54994318Y-38600000D01*
X55014956Y-38756762D01*
X55075464Y-38902841D01*
X55171718Y-39028282D01*
X55297159Y-39124536D01*
X55373650Y-39156220D01*
X55428930Y-39200767D01*
X55451351Y-39268130D01*
X55433793Y-39336922D01*
X55396137Y-39374133D01*
X55397159Y-39375464D01*
X55288448Y-39458881D01*
X55271718Y-39471718D01*
X55175464Y-39597159D01*
X55114956Y-39743238D01*
X55094318Y-39900000D01*
X55114956Y-40056762D01*
X55175464Y-40202841D01*
X55271718Y-40328282D01*
X55397159Y-40424536D01*
X55543238Y-40485044D01*
X55700000Y-40505682D01*
X55708188Y-40504604D01*
X55848574Y-40486122D01*
X55856762Y-40485044D01*
X56002841Y-40424536D01*
X56128282Y-40328282D01*
X56224536Y-40202841D01*
X56285044Y-40056762D01*
X56305682Y-39900000D01*
X56285044Y-39743238D01*
X56267134Y-39700000D01*
X61494318Y-39700000D01*
X61514956Y-39856762D01*
X61575464Y-40002841D01*
X61671718Y-40128282D01*
X61797159Y-40224536D01*
X61943238Y-40285044D01*
X62100000Y-40305682D01*
X62108188Y-40304604D01*
X62248574Y-40286122D01*
X62256762Y-40285044D01*
X62402841Y-40224536D01*
X62528282Y-40128282D01*
X62624536Y-40002841D01*
X62685044Y-39856762D01*
X62705682Y-39700000D01*
X62685044Y-39543238D01*
X62624536Y-39397159D01*
X62553516Y-39304604D01*
X62533305Y-39278264D01*
X62528282Y-39271718D01*
X62402841Y-39175464D01*
X62256762Y-39114956D01*
X62100000Y-39094318D01*
X61943238Y-39114956D01*
X61797159Y-39175464D01*
X61671718Y-39271718D01*
X61666695Y-39278264D01*
X61646484Y-39304604D01*
X61575464Y-39397159D01*
X61514956Y-39543238D01*
X61494318Y-39700000D01*
X56267134Y-39700000D01*
X56224536Y-39597159D01*
X56128282Y-39471718D01*
X56111553Y-39458881D01*
X56041058Y-39404789D01*
X56002841Y-39375464D01*
X55926350Y-39343780D01*
X55871070Y-39299233D01*
X55848649Y-39231870D01*
X55866207Y-39163078D01*
X55903863Y-39125867D01*
X55902841Y-39124536D01*
X56021736Y-39033305D01*
X56028282Y-39028282D01*
X56124536Y-38902841D01*
X56185044Y-38756762D01*
X56192517Y-38700000D01*
X63194318Y-38700000D01*
X63195396Y-38708188D01*
X63213497Y-38845676D01*
X63214956Y-38856762D01*
X63275464Y-39002841D01*
X63371718Y-39128282D01*
X63497159Y-39224536D01*
X63643238Y-39285044D01*
X63800000Y-39305682D01*
X63808188Y-39304604D01*
X63948574Y-39286122D01*
X63956762Y-39285044D01*
X64102841Y-39224536D01*
X64228282Y-39128282D01*
X64324536Y-39002841D01*
X64385044Y-38856762D01*
X64386504Y-38845676D01*
X64404604Y-38708188D01*
X64405682Y-38700000D01*
X64385044Y-38543238D01*
X64324536Y-38397159D01*
X64242777Y-38290608D01*
X64233305Y-38278264D01*
X64228282Y-38271718D01*
X64102841Y-38175464D01*
X63956762Y-38114956D01*
X63800000Y-38094318D01*
X63643238Y-38114956D01*
X63497159Y-38175464D01*
X63371718Y-38271718D01*
X63366695Y-38278264D01*
X63357223Y-38290608D01*
X63275464Y-38397159D01*
X63214956Y-38543238D01*
X63194318Y-38700000D01*
X56192517Y-38700000D01*
X56205682Y-38600000D01*
X56185044Y-38443238D01*
X56124536Y-38297159D01*
X56028282Y-38171718D01*
X55902841Y-38075464D01*
X55756762Y-38014956D01*
X55600000Y-37994318D01*
X55443238Y-38014956D01*
X55297159Y-38075464D01*
X55290608Y-38080491D01*
X55290603Y-38080494D01*
X55226179Y-38129928D01*
X55159959Y-38155529D01*
X55090410Y-38141264D01*
X55039614Y-38091663D01*
X55023698Y-38022474D01*
X55033066Y-37981748D01*
X55081884Y-37863891D01*
X55085044Y-37856262D01*
X55105682Y-37699500D01*
X55085044Y-37542738D01*
X55024536Y-37396659D01*
X54928282Y-37271218D01*
X54802841Y-37174964D01*
X54656762Y-37114456D01*
X54500000Y-37093818D01*
X54343238Y-37114456D01*
X54197159Y-37174964D01*
X54071718Y-37271218D01*
X53975464Y-37396659D01*
X53914956Y-37542738D01*
X53894318Y-37699500D01*
X51405182Y-37699500D01*
X51384544Y-37542738D01*
X51324036Y-37396659D01*
X51227782Y-37271218D01*
X51102341Y-37174964D01*
X50956262Y-37114456D01*
X50799500Y-37093818D01*
X50642738Y-37114456D01*
X50496659Y-37174964D01*
X50371218Y-37271218D01*
X50274964Y-37396659D01*
X50214456Y-37542738D01*
X50193818Y-37699500D01*
X40346957Y-37699500D01*
X40448574Y-37686122D01*
X40456762Y-37685044D01*
X40602841Y-37624536D01*
X40728282Y-37528282D01*
X40824536Y-37402841D01*
X40885044Y-37256762D01*
X40905682Y-37100000D01*
X40885044Y-36943238D01*
X40824536Y-36797159D01*
X40728282Y-36671718D01*
X40602841Y-36575464D01*
X40456762Y-36514956D01*
X40300000Y-36494318D01*
X40143238Y-36514956D01*
X39997159Y-36575464D01*
X39871718Y-36671718D01*
X39775464Y-36797159D01*
X39714956Y-36943238D01*
X39694318Y-37100000D01*
X35411301Y-37100000D01*
X35364554Y-37070505D01*
X35168160Y-36992152D01*
X35162503Y-36991027D01*
X35162497Y-36991025D01*
X34966442Y-36952028D01*
X34966440Y-36952028D01*
X34960775Y-36950901D01*
X34955000Y-36950825D01*
X34954996Y-36950825D01*
X34848976Y-36949437D01*
X34749346Y-36948133D01*
X34743649Y-36949112D01*
X34743648Y-36949112D01*
X34546650Y-36982962D01*
X34546649Y-36982962D01*
X34540953Y-36983941D01*
X34342575Y-37057127D01*
X34337614Y-37060079D01*
X34337613Y-37060079D01*
X34284275Y-37091812D01*
X34160856Y-37165238D01*
X34001881Y-37304655D01*
X33870976Y-37470708D01*
X33868287Y-37475819D01*
X33868285Y-37475822D01*
X33854792Y-37501469D01*
X33772523Y-37657836D01*
X33709820Y-37859773D01*
X33709141Y-37865510D01*
X33695088Y-37984239D01*
X33667217Y-38049537D01*
X33608469Y-38089401D01*
X33537494Y-38091174D01*
X33476828Y-38054295D01*
X33445730Y-37990471D01*
X33444490Y-37980958D01*
X33436610Y-37895197D01*
X33436081Y-37889440D01*
X33428876Y-37863891D01*
X33383952Y-37704604D01*
X33378686Y-37685931D01*
X33367553Y-37663354D01*
X33287719Y-37501469D01*
X33285165Y-37496290D01*
X33158651Y-37326867D01*
X33003381Y-37183337D01*
X32824554Y-37070505D01*
X32628160Y-36992152D01*
X32622503Y-36991027D01*
X32622497Y-36991025D01*
X32426442Y-36952028D01*
X32426440Y-36952028D01*
X32420775Y-36950901D01*
X32415000Y-36950825D01*
X32414996Y-36950825D01*
X32308976Y-36949437D01*
X32209346Y-36948133D01*
X32203649Y-36949112D01*
X32203648Y-36949112D01*
X32006650Y-36982962D01*
X32006649Y-36982962D01*
X32000953Y-36983941D01*
X31802575Y-37057127D01*
X31797614Y-37060079D01*
X31797613Y-37060079D01*
X31744275Y-37091812D01*
X31620856Y-37165238D01*
X31461881Y-37304655D01*
X31330976Y-37470708D01*
X31328287Y-37475819D01*
X31328285Y-37475822D01*
X31314792Y-37501469D01*
X31232523Y-37657836D01*
X31169820Y-37859773D01*
X31144967Y-38069754D01*
X31158796Y-38280749D01*
X31160217Y-38286345D01*
X31160218Y-38286350D01*
X31198126Y-38435609D01*
X31210845Y-38485690D01*
X31299369Y-38677714D01*
X31421405Y-38850391D01*
X31467414Y-38895211D01*
X31565342Y-38990608D01*
X31572865Y-38997937D01*
X31577661Y-39001142D01*
X31577664Y-39001144D01*
X31717109Y-39094318D01*
X31748677Y-39115411D01*
X31753985Y-39117692D01*
X31753986Y-39117692D01*
X31937650Y-39196600D01*
X31937653Y-39196601D01*
X31942953Y-39198878D01*
X31948582Y-39200152D01*
X31948583Y-39200152D01*
X32143550Y-39244269D01*
X32143553Y-39244269D01*
X32149186Y-39245544D01*
X32154958Y-39245771D01*
X32160687Y-39246525D01*
X32160327Y-39249257D01*
X32216604Y-39268216D01*
X32260950Y-39323659D01*
X32268282Y-39394276D01*
X32236271Y-39457647D01*
X32175081Y-39493651D01*
X32165704Y-39495632D01*
X32006650Y-39522962D01*
X32006649Y-39522962D01*
X32000953Y-39523941D01*
X31802575Y-39597127D01*
X31797614Y-39600079D01*
X31797613Y-39600079D01*
X31780089Y-39610505D01*
X31620856Y-39705238D01*
X31461881Y-39844655D01*
X31330976Y-40010708D01*
X31328287Y-40015819D01*
X31328285Y-40015822D01*
X31306746Y-40056762D01*
X31232523Y-40197836D01*
X31169820Y-40399773D01*
X31144967Y-40609754D01*
X31158796Y-40820749D01*
X31160217Y-40826345D01*
X31160218Y-40826350D01*
X31182784Y-40915200D01*
X31210845Y-41025690D01*
X31299369Y-41217714D01*
X31421405Y-41390391D01*
X31572865Y-41537937D01*
X31577661Y-41541142D01*
X31577664Y-41541144D01*
X31720936Y-41636875D01*
X31748677Y-41655411D01*
X31753985Y-41657692D01*
X31753986Y-41657692D01*
X31937650Y-41736600D01*
X31937653Y-41736601D01*
X31942953Y-41738878D01*
X31948582Y-41740152D01*
X31948583Y-41740152D01*
X32143550Y-41784269D01*
X32143553Y-41784269D01*
X32149186Y-41785544D01*
X32154958Y-41785771D01*
X32160687Y-41786525D01*
X32160327Y-41789257D01*
X32216604Y-41808216D01*
X32260950Y-41863659D01*
X32268282Y-41934276D01*
X32236271Y-41997647D01*
X32175081Y-42033651D01*
X32165705Y-42035632D01*
X32125076Y-42042613D01*
X32006650Y-42062962D01*
X32006649Y-42062962D01*
X32000953Y-42063941D01*
X31802575Y-42137127D01*
X31797614Y-42140079D01*
X31797613Y-42140079D01*
X31751553Y-42167482D01*
X31620856Y-42245238D01*
X31461881Y-42384655D01*
X31330976Y-42550708D01*
X31328287Y-42555819D01*
X31328285Y-42555822D01*
X31297173Y-42614956D01*
X31232523Y-42737836D01*
X31169820Y-42939773D01*
X31144967Y-43149754D01*
X28300500Y-43149754D01*
X28300500Y-36150000D01*
X44619318Y-36150000D01*
X44639956Y-36306762D01*
X44700464Y-36452841D01*
X44796718Y-36578282D01*
X44922159Y-36674536D01*
X45068238Y-36735044D01*
X45225000Y-36755682D01*
X45233188Y-36754604D01*
X45373574Y-36736122D01*
X45381762Y-36735044D01*
X45527841Y-36674536D01*
X45653282Y-36578282D01*
X45749536Y-36452841D01*
X45810044Y-36306762D01*
X45817517Y-36250000D01*
X47719318Y-36250000D01*
X47739956Y-36406762D01*
X47800464Y-36552841D01*
X47896718Y-36678282D01*
X48022159Y-36774536D01*
X48168238Y-36835044D01*
X48325000Y-36855682D01*
X48333188Y-36854604D01*
X48473574Y-36836122D01*
X48481762Y-36835044D01*
X48627841Y-36774536D01*
X48753282Y-36678282D01*
X48849536Y-36552841D01*
X48910044Y-36406762D01*
X48910934Y-36400000D01*
X66694318Y-36400000D01*
X66714956Y-36556762D01*
X66775464Y-36702841D01*
X66871718Y-36828282D01*
X66997159Y-36924536D01*
X67143238Y-36985044D01*
X67300000Y-37005682D01*
X67308188Y-37004604D01*
X67448574Y-36986122D01*
X67456762Y-36985044D01*
X67602841Y-36924536D01*
X67728282Y-36828282D01*
X67824536Y-36702841D01*
X67885044Y-36556762D01*
X67905682Y-36400000D01*
X67885044Y-36243238D01*
X67824536Y-36097159D01*
X67728282Y-35971718D01*
X67602841Y-35875464D01*
X67456762Y-35814956D01*
X67300000Y-35794318D01*
X67143238Y-35814956D01*
X66997159Y-35875464D01*
X66871718Y-35971718D01*
X66775464Y-36097159D01*
X66714956Y-36243238D01*
X66694318Y-36400000D01*
X48910934Y-36400000D01*
X48930682Y-36250000D01*
X48910044Y-36093238D01*
X48849536Y-35947159D01*
X48753282Y-35821718D01*
X48627841Y-35725464D01*
X48481762Y-35664956D01*
X48325000Y-35644318D01*
X48168238Y-35664956D01*
X48022159Y-35725464D01*
X47896718Y-35821718D01*
X47800464Y-35947159D01*
X47739956Y-36093238D01*
X47719318Y-36250000D01*
X45817517Y-36250000D01*
X45830682Y-36150000D01*
X45810044Y-35993238D01*
X45749536Y-35847159D01*
X45653282Y-35721718D01*
X45527841Y-35625464D01*
X45381762Y-35564956D01*
X45225000Y-35544318D01*
X45068238Y-35564956D01*
X44922159Y-35625464D01*
X44796718Y-35721718D01*
X44700464Y-35847159D01*
X44639956Y-35993238D01*
X44619318Y-36150000D01*
X28300500Y-36150000D01*
X28300500Y-33585768D01*
X28677425Y-33585768D01*
X28709138Y-33693521D01*
X28713731Y-33704889D01*
X28799607Y-33869154D01*
X28806321Y-33879415D01*
X28922468Y-34023873D01*
X28931046Y-34032632D01*
X29073039Y-34151778D01*
X29083159Y-34158708D01*
X29245585Y-34248002D01*
X29256858Y-34252834D01*
X29433538Y-34308880D01*
X29445532Y-34311430D01*
X29589761Y-34327607D01*
X29596785Y-34328000D01*
X29677885Y-34328000D01*
X29693124Y-34323525D01*
X29694329Y-34322135D01*
X29696000Y-34314452D01*
X29696000Y-34309885D01*
X30204000Y-34309885D01*
X30208475Y-34325124D01*
X30209865Y-34326329D01*
X30217548Y-34328000D01*
X30296657Y-34328000D01*
X30302805Y-34327699D01*
X30440603Y-34314188D01*
X30452638Y-34311805D01*
X30630076Y-34258233D01*
X30641416Y-34253559D01*
X30805077Y-34166540D01*
X30815294Y-34159751D01*
X30958933Y-34042603D01*
X30967637Y-34033959D01*
X31085784Y-33891144D01*
X31092644Y-33880973D01*
X31180804Y-33717924D01*
X31185556Y-33706619D01*
X31221250Y-33591308D01*
X31221331Y-33585768D01*
X32607425Y-33585768D01*
X32639138Y-33693521D01*
X32643731Y-33704889D01*
X32729607Y-33869154D01*
X32736321Y-33879415D01*
X32852468Y-34023873D01*
X32861046Y-34032632D01*
X33003039Y-34151778D01*
X33013159Y-34158708D01*
X33175585Y-34248002D01*
X33186858Y-34252834D01*
X33363538Y-34308880D01*
X33375532Y-34311430D01*
X33519761Y-34327607D01*
X33526785Y-34328000D01*
X33857885Y-34328000D01*
X33873124Y-34323525D01*
X33874329Y-34322135D01*
X33876000Y-34314452D01*
X33876000Y-34309885D01*
X34384000Y-34309885D01*
X34388475Y-34325124D01*
X34389865Y-34326329D01*
X34397548Y-34328000D01*
X34726657Y-34328000D01*
X34732805Y-34327699D01*
X34870603Y-34314188D01*
X34882638Y-34311805D01*
X35060076Y-34258233D01*
X35071416Y-34253559D01*
X35125128Y-34225000D01*
X36793818Y-34225000D01*
X36804137Y-34303381D01*
X36807339Y-34327699D01*
X36814456Y-34381762D01*
X36874964Y-34527841D01*
X36971218Y-34653282D01*
X37096659Y-34749536D01*
X37242738Y-34810044D01*
X37250926Y-34811122D01*
X37304051Y-34818116D01*
X37399500Y-34830682D01*
X37407688Y-34829604D01*
X37548074Y-34811122D01*
X37556262Y-34810044D01*
X37580510Y-34800000D01*
X38719318Y-34800000D01*
X38739956Y-34956762D01*
X38800464Y-35102841D01*
X38896718Y-35228282D01*
X39022159Y-35324536D01*
X39168238Y-35385044D01*
X39325000Y-35405682D01*
X39333188Y-35404604D01*
X39368159Y-35400000D01*
X63994318Y-35400000D01*
X64014956Y-35556762D01*
X64075464Y-35702841D01*
X64171718Y-35828282D01*
X64297159Y-35924536D01*
X64443238Y-35985044D01*
X64600000Y-36005682D01*
X64608188Y-36004604D01*
X64748574Y-35986122D01*
X64756762Y-35985044D01*
X64902841Y-35924536D01*
X65028282Y-35828282D01*
X65124536Y-35702841D01*
X65185044Y-35556762D01*
X65189106Y-35525908D01*
X65217828Y-35460981D01*
X65277094Y-35421889D01*
X65348085Y-35421044D01*
X65408264Y-35458714D01*
X65430437Y-35494135D01*
X65475464Y-35602841D01*
X65571718Y-35728282D01*
X65697159Y-35824536D01*
X65843238Y-35885044D01*
X66000000Y-35905682D01*
X66008188Y-35904604D01*
X66148574Y-35886122D01*
X66156762Y-35885044D01*
X66302841Y-35824536D01*
X66428282Y-35728282D01*
X66524536Y-35602841D01*
X66585044Y-35456762D01*
X66605682Y-35300000D01*
X66585044Y-35143238D01*
X66524536Y-34997159D01*
X66428282Y-34871718D01*
X66302841Y-34775464D01*
X66156762Y-34714956D01*
X66000000Y-34694318D01*
X65843238Y-34714956D01*
X65697159Y-34775464D01*
X65571718Y-34871718D01*
X65475464Y-34997159D01*
X65414956Y-35143238D01*
X65413878Y-35151426D01*
X65410894Y-35174092D01*
X65382172Y-35239019D01*
X65322906Y-35278111D01*
X65251915Y-35278956D01*
X65191736Y-35241286D01*
X65169563Y-35205864D01*
X65124536Y-35097159D01*
X65028282Y-34971718D01*
X64902841Y-34875464D01*
X64756762Y-34814956D01*
X64719452Y-34810044D01*
X64608188Y-34795396D01*
X64600000Y-34794318D01*
X64591812Y-34795396D01*
X64480549Y-34810044D01*
X64443238Y-34814956D01*
X64297159Y-34875464D01*
X64171718Y-34971718D01*
X64075464Y-35097159D01*
X64014956Y-35243238D01*
X63994318Y-35400000D01*
X39368159Y-35400000D01*
X39473574Y-35386122D01*
X39481762Y-35385044D01*
X39627841Y-35324536D01*
X39753282Y-35228282D01*
X39849536Y-35102841D01*
X39910044Y-34956762D01*
X39930682Y-34800000D01*
X39910044Y-34643238D01*
X39849536Y-34497159D01*
X39753282Y-34371718D01*
X39627841Y-34275464D01*
X39506010Y-34225000D01*
X43394818Y-34225000D01*
X43405137Y-34303381D01*
X43408339Y-34327699D01*
X43415456Y-34381762D01*
X43475964Y-34527841D01*
X43572218Y-34653282D01*
X43697659Y-34749536D01*
X43843738Y-34810044D01*
X43851926Y-34811122D01*
X43905051Y-34818116D01*
X44000500Y-34830682D01*
X44008688Y-34829604D01*
X44149074Y-34811122D01*
X44157262Y-34810044D01*
X44303341Y-34749536D01*
X44428782Y-34653282D01*
X44525036Y-34527841D01*
X44585544Y-34381762D01*
X44592662Y-34327699D01*
X44595863Y-34303381D01*
X44606182Y-34225000D01*
X45369318Y-34225000D01*
X45379637Y-34303381D01*
X45382839Y-34327699D01*
X45389956Y-34381762D01*
X45450464Y-34527841D01*
X45546718Y-34653282D01*
X45672159Y-34749536D01*
X45818238Y-34810044D01*
X45826426Y-34811122D01*
X45879551Y-34818116D01*
X45975000Y-34830682D01*
X45983188Y-34829604D01*
X46123574Y-34811122D01*
X46131762Y-34810044D01*
X46277841Y-34749536D01*
X46403282Y-34653282D01*
X46499536Y-34527841D01*
X46560044Y-34381762D01*
X46567162Y-34327699D01*
X46570363Y-34303381D01*
X46580682Y-34225000D01*
X46560044Y-34068238D01*
X46499536Y-33922159D01*
X46403282Y-33796718D01*
X46277841Y-33700464D01*
X46131762Y-33639956D01*
X45975000Y-33619318D01*
X45818238Y-33639956D01*
X45672159Y-33700464D01*
X45546718Y-33796718D01*
X45450464Y-33922159D01*
X45389956Y-34068238D01*
X45369318Y-34225000D01*
X44606182Y-34225000D01*
X44585544Y-34068238D01*
X44525036Y-33922159D01*
X44428782Y-33796718D01*
X44303341Y-33700464D01*
X44157262Y-33639956D01*
X44000500Y-33619318D01*
X43843738Y-33639956D01*
X43697659Y-33700464D01*
X43572218Y-33796718D01*
X43475964Y-33922159D01*
X43415456Y-34068238D01*
X43394818Y-34225000D01*
X39506010Y-34225000D01*
X39481762Y-34214956D01*
X39325000Y-34194318D01*
X39168238Y-34214956D01*
X39022159Y-34275464D01*
X38896718Y-34371718D01*
X38800464Y-34497159D01*
X38739956Y-34643238D01*
X38719318Y-34800000D01*
X37580510Y-34800000D01*
X37702341Y-34749536D01*
X37827782Y-34653282D01*
X37924036Y-34527841D01*
X37984544Y-34381762D01*
X37991662Y-34327699D01*
X37994863Y-34303381D01*
X38005182Y-34225000D01*
X37984544Y-34068238D01*
X37924036Y-33922159D01*
X37827782Y-33796718D01*
X37702341Y-33700464D01*
X37556262Y-33639956D01*
X37399500Y-33619318D01*
X37242738Y-33639956D01*
X37096659Y-33700464D01*
X36971218Y-33796718D01*
X36874964Y-33922159D01*
X36814456Y-34068238D01*
X36793818Y-34225000D01*
X35125128Y-34225000D01*
X35235077Y-34166540D01*
X35245294Y-34159751D01*
X35388933Y-34042603D01*
X35397637Y-34033959D01*
X35515784Y-33891144D01*
X35522644Y-33880973D01*
X35610804Y-33717924D01*
X35615556Y-33706619D01*
X35651250Y-33591308D01*
X35651456Y-33577205D01*
X35644701Y-33574000D01*
X34402115Y-33574000D01*
X34386876Y-33578475D01*
X34385671Y-33579865D01*
X34384000Y-33587548D01*
X34384000Y-34309885D01*
X33876000Y-34309885D01*
X33876000Y-33592115D01*
X33871525Y-33576876D01*
X33870135Y-33575671D01*
X33862452Y-33574000D01*
X32622076Y-33574000D01*
X32608545Y-33577973D01*
X32607425Y-33585768D01*
X31221331Y-33585768D01*
X31221456Y-33577205D01*
X31214701Y-33574000D01*
X30222115Y-33574000D01*
X30206876Y-33578475D01*
X30205671Y-33579865D01*
X30204000Y-33587548D01*
X30204000Y-34309885D01*
X29696000Y-34309885D01*
X29696000Y-33592115D01*
X29691525Y-33576876D01*
X29690135Y-33575671D01*
X29682452Y-33574000D01*
X28692076Y-33574000D01*
X28678545Y-33577973D01*
X28677425Y-33585768D01*
X28300500Y-33585768D01*
X28300500Y-33125000D01*
X39644318Y-33125000D01*
X39664956Y-33281762D01*
X39725464Y-33427841D01*
X39821718Y-33553282D01*
X39947159Y-33649536D01*
X40093238Y-33710044D01*
X40250000Y-33730682D01*
X40258188Y-33729604D01*
X40398574Y-33711122D01*
X40406762Y-33710044D01*
X40552841Y-33649536D01*
X40678282Y-33553282D01*
X40774536Y-33427841D01*
X40835044Y-33281762D01*
X40855682Y-33125000D01*
X40845363Y-33046619D01*
X40839226Y-33000000D01*
X46694318Y-33000000D01*
X46695396Y-33008188D01*
X46709697Y-33116812D01*
X46714956Y-33156762D01*
X46775464Y-33302841D01*
X46871718Y-33428282D01*
X46997159Y-33524536D01*
X47143238Y-33585044D01*
X47300000Y-33605682D01*
X47308188Y-33604604D01*
X47448574Y-33586122D01*
X47456762Y-33585044D01*
X47602841Y-33524536D01*
X47728282Y-33428282D01*
X47824536Y-33302841D01*
X47885044Y-33156762D01*
X47890304Y-33116812D01*
X47904604Y-33008188D01*
X47905682Y-33000000D01*
X47885044Y-32843238D01*
X47824536Y-32697159D01*
X47728282Y-32571718D01*
X47602841Y-32475464D01*
X47456762Y-32414956D01*
X47300000Y-32394318D01*
X47143238Y-32414956D01*
X46997159Y-32475464D01*
X46871718Y-32571718D01*
X46775464Y-32697159D01*
X46714956Y-32843238D01*
X46694318Y-33000000D01*
X40839226Y-33000000D01*
X40836122Y-32976426D01*
X40835044Y-32968238D01*
X40774536Y-32822159D01*
X40678282Y-32696718D01*
X40552841Y-32600464D01*
X40406762Y-32539956D01*
X40250000Y-32519318D01*
X40093238Y-32539956D01*
X39947159Y-32600464D01*
X39821718Y-32696718D01*
X39725464Y-32822159D01*
X39664956Y-32968238D01*
X39663878Y-32976426D01*
X39654637Y-33046619D01*
X39644318Y-33125000D01*
X28300500Y-33125000D01*
X28300500Y-33062795D01*
X28678544Y-33062795D01*
X28685299Y-33066000D01*
X29677885Y-33066000D01*
X29693124Y-33061525D01*
X29694329Y-33060135D01*
X29696000Y-33052452D01*
X29696000Y-33047885D01*
X30204000Y-33047885D01*
X30208475Y-33063124D01*
X30209865Y-33064329D01*
X30217548Y-33066000D01*
X31207924Y-33066000D01*
X31218839Y-33062795D01*
X32608544Y-33062795D01*
X32615299Y-33066000D01*
X35637924Y-33066000D01*
X35651455Y-33062027D01*
X35652575Y-33054232D01*
X35620862Y-32946479D01*
X35616269Y-32935111D01*
X35530393Y-32770846D01*
X35523679Y-32760585D01*
X35407532Y-32616127D01*
X35398954Y-32607368D01*
X35256961Y-32488222D01*
X35246841Y-32481292D01*
X35084415Y-32391998D01*
X35073142Y-32387166D01*
X34896462Y-32331120D01*
X34884468Y-32328570D01*
X34740239Y-32312393D01*
X34733215Y-32312000D01*
X34291258Y-32312000D01*
X34223137Y-32291998D01*
X34176644Y-32238342D01*
X34166540Y-32168068D01*
X34177250Y-32132351D01*
X34199614Y-32084826D01*
X34203512Y-32064391D01*
X34227742Y-31937374D01*
X34227742Y-31937372D01*
X34229227Y-31929588D01*
X34219304Y-31771862D01*
X34207525Y-31735609D01*
X34172916Y-31629095D01*
X34172915Y-31629092D01*
X34170467Y-31621559D01*
X34093323Y-31500000D01*
X35794318Y-31500000D01*
X35814956Y-31656762D01*
X35875464Y-31802841D01*
X35918037Y-31858323D01*
X35950017Y-31900000D01*
X35971718Y-31928282D01*
X36097159Y-32024536D01*
X36243238Y-32085044D01*
X36400000Y-32105682D01*
X36408188Y-32104604D01*
X36548574Y-32086122D01*
X36556762Y-32085044D01*
X36702841Y-32024536D01*
X36828282Y-31928282D01*
X36849984Y-31900000D01*
X36881963Y-31858323D01*
X36924536Y-31802841D01*
X36985044Y-31656762D01*
X36992517Y-31600000D01*
X38819318Y-31600000D01*
X38839956Y-31756762D01*
X38900464Y-31902841D01*
X38996718Y-32028282D01*
X39122159Y-32124536D01*
X39268238Y-32185044D01*
X39425000Y-32205682D01*
X39433188Y-32204604D01*
X39446580Y-32202841D01*
X39581762Y-32185044D01*
X39727841Y-32124536D01*
X39853282Y-32028282D01*
X39949536Y-31902841D01*
X39950713Y-31900000D01*
X40694318Y-31900000D01*
X40714956Y-32056762D01*
X40775464Y-32202841D01*
X40871718Y-32328282D01*
X40997159Y-32424536D01*
X41143238Y-32485044D01*
X41300000Y-32505682D01*
X41308188Y-32504604D01*
X41448574Y-32486122D01*
X41456762Y-32485044D01*
X41602841Y-32424536D01*
X41728282Y-32328282D01*
X41824536Y-32202841D01*
X41885044Y-32056762D01*
X41905682Y-31900000D01*
X41885044Y-31743238D01*
X41824536Y-31597159D01*
X41756059Y-31507918D01*
X41733305Y-31478264D01*
X41728282Y-31471718D01*
X41721736Y-31466695D01*
X41721733Y-31466692D01*
X41699931Y-31449963D01*
X41658063Y-31392625D01*
X41653841Y-31321754D01*
X41688605Y-31259851D01*
X41699931Y-31250037D01*
X41721733Y-31233308D01*
X41721736Y-31233305D01*
X41728282Y-31228282D01*
X41824536Y-31102841D01*
X41885044Y-30956762D01*
X41905682Y-30800000D01*
X41885044Y-30643238D01*
X41824536Y-30497159D01*
X41728282Y-30371718D01*
X41602841Y-30275464D01*
X41456762Y-30214956D01*
X41300000Y-30194318D01*
X41143238Y-30214956D01*
X40997159Y-30275464D01*
X40871718Y-30371718D01*
X40775464Y-30497159D01*
X40714956Y-30643238D01*
X40694318Y-30800000D01*
X40714956Y-30956762D01*
X40775464Y-31102841D01*
X40871718Y-31228282D01*
X40878264Y-31233305D01*
X40878267Y-31233308D01*
X40900069Y-31250037D01*
X40941937Y-31307375D01*
X40946159Y-31378246D01*
X40911395Y-31440149D01*
X40900069Y-31449963D01*
X40878267Y-31466692D01*
X40878264Y-31466695D01*
X40871718Y-31471718D01*
X40866695Y-31478264D01*
X40843941Y-31507918D01*
X40775464Y-31597159D01*
X40714956Y-31743238D01*
X40694318Y-31900000D01*
X39950713Y-31900000D01*
X40010044Y-31756762D01*
X40030682Y-31600000D01*
X40010044Y-31443238D01*
X39949536Y-31297159D01*
X39853282Y-31171718D01*
X39727841Y-31075464D01*
X39581762Y-31014956D01*
X39425000Y-30994318D01*
X39268238Y-31014956D01*
X39122159Y-31075464D01*
X38996718Y-31171718D01*
X38900464Y-31297159D01*
X38839956Y-31443238D01*
X38819318Y-31600000D01*
X36992517Y-31600000D01*
X37005682Y-31500000D01*
X36985044Y-31343238D01*
X36924536Y-31197159D01*
X36828282Y-31071718D01*
X36702841Y-30975464D01*
X36556762Y-30914956D01*
X36400000Y-30894318D01*
X36243238Y-30914956D01*
X36097159Y-30975464D01*
X35971718Y-31071718D01*
X35875464Y-31197159D01*
X35814956Y-31343238D01*
X35794318Y-31500000D01*
X34093323Y-31500000D01*
X34085786Y-31488123D01*
X34075288Y-31478264D01*
X33976358Y-31385362D01*
X33970582Y-31379938D01*
X33832092Y-31303803D01*
X33679019Y-31264500D01*
X33560650Y-31264500D01*
X33556725Y-31264996D01*
X33556722Y-31264996D01*
X33451067Y-31278343D01*
X33451065Y-31278343D01*
X33443208Y-31279336D01*
X33398193Y-31297159D01*
X33303637Y-31334596D01*
X33303634Y-31334597D01*
X33296268Y-31337514D01*
X33289857Y-31342172D01*
X33289855Y-31342173D01*
X33244034Y-31375464D01*
X33168413Y-31430406D01*
X33163360Y-31436514D01*
X33072729Y-31546068D01*
X33072726Y-31546072D01*
X33067676Y-31552177D01*
X33000386Y-31695174D01*
X32998901Y-31702957D01*
X32998901Y-31702958D01*
X32979848Y-31802841D01*
X32970773Y-31850412D01*
X32980696Y-32008138D01*
X32983147Y-32015681D01*
X33021056Y-32132351D01*
X33029533Y-32158441D01*
X33073564Y-32227823D01*
X33104939Y-32277262D01*
X33124552Y-32345496D01*
X33104161Y-32413501D01*
X33057708Y-32456027D01*
X33024928Y-32473457D01*
X33014706Y-32480249D01*
X32871067Y-32597397D01*
X32862363Y-32606041D01*
X32744216Y-32748856D01*
X32737356Y-32759027D01*
X32649196Y-32922076D01*
X32644444Y-32933381D01*
X32608750Y-33048692D01*
X32608544Y-33062795D01*
X31218839Y-33062795D01*
X31221455Y-33062027D01*
X31222575Y-33054232D01*
X31190862Y-32946479D01*
X31186269Y-32935111D01*
X31100393Y-32770846D01*
X31093679Y-32760585D01*
X30977532Y-32616127D01*
X30968954Y-32607368D01*
X30826961Y-32488222D01*
X30816841Y-32481292D01*
X30654415Y-32391998D01*
X30643142Y-32387166D01*
X30466462Y-32331120D01*
X30454468Y-32328570D01*
X30310239Y-32312393D01*
X30303215Y-32312000D01*
X30222115Y-32312000D01*
X30206876Y-32316475D01*
X30205671Y-32317865D01*
X30204000Y-32325548D01*
X30204000Y-33047885D01*
X29696000Y-33047885D01*
X29696000Y-32330115D01*
X29691525Y-32314876D01*
X29690135Y-32313671D01*
X29682452Y-32312000D01*
X29603343Y-32312000D01*
X29597195Y-32312301D01*
X29459397Y-32325812D01*
X29447362Y-32328195D01*
X29269924Y-32381767D01*
X29258584Y-32386441D01*
X29094923Y-32473460D01*
X29084706Y-32480249D01*
X28941067Y-32597397D01*
X28932363Y-32606041D01*
X28814216Y-32748856D01*
X28807356Y-32759027D01*
X28719196Y-32922076D01*
X28714444Y-32933381D01*
X28678750Y-33048692D01*
X28678544Y-33062795D01*
X28300500Y-33062795D01*
X28300500Y-28800000D01*
X54194318Y-28800000D01*
X54214956Y-28956762D01*
X54275464Y-29102841D01*
X54371718Y-29228282D01*
X54497159Y-29324536D01*
X54643238Y-29385044D01*
X54800000Y-29405682D01*
X54808188Y-29404604D01*
X54948574Y-29386122D01*
X54956762Y-29385044D01*
X55102841Y-29324536D01*
X55228282Y-29228282D01*
X55324536Y-29102841D01*
X55367134Y-29000000D01*
X69894318Y-29000000D01*
X69914956Y-29156762D01*
X69975464Y-29302841D01*
X70071718Y-29428282D01*
X70197159Y-29524536D01*
X70343238Y-29585044D01*
X70500000Y-29605682D01*
X70508188Y-29604604D01*
X70648574Y-29586122D01*
X70656762Y-29585044D01*
X70802841Y-29524536D01*
X70928282Y-29428282D01*
X71024536Y-29302841D01*
X71085044Y-29156762D01*
X71105682Y-29000000D01*
X71085044Y-28843238D01*
X71024536Y-28697159D01*
X70928282Y-28571718D01*
X70802841Y-28475464D01*
X70656762Y-28414956D01*
X70500000Y-28394318D01*
X70343238Y-28414956D01*
X70197159Y-28475464D01*
X70071718Y-28571718D01*
X69975464Y-28697159D01*
X69914956Y-28843238D01*
X69894318Y-29000000D01*
X55367134Y-29000000D01*
X55385044Y-28956762D01*
X55405682Y-28800000D01*
X55385044Y-28643238D01*
X55324536Y-28497159D01*
X55228282Y-28371718D01*
X55102841Y-28275464D01*
X54956762Y-28214956D01*
X54800000Y-28194318D01*
X54643238Y-28214956D01*
X54497159Y-28275464D01*
X54371718Y-28371718D01*
X54275464Y-28497159D01*
X54214956Y-28643238D01*
X54194318Y-28800000D01*
X28300500Y-28800000D01*
X28300500Y-24945768D01*
X28677425Y-24945768D01*
X28709138Y-25053521D01*
X28713731Y-25064889D01*
X28799607Y-25229154D01*
X28806321Y-25239415D01*
X28922468Y-25383873D01*
X28931046Y-25392632D01*
X29073039Y-25511778D01*
X29083159Y-25518708D01*
X29245585Y-25608002D01*
X29256858Y-25612834D01*
X29433538Y-25668880D01*
X29445532Y-25671430D01*
X29589761Y-25687607D01*
X29596785Y-25688000D01*
X29677885Y-25688000D01*
X29693124Y-25683525D01*
X29694329Y-25682135D01*
X29696000Y-25674452D01*
X29696000Y-25669885D01*
X30204000Y-25669885D01*
X30208475Y-25685124D01*
X30209865Y-25686329D01*
X30217548Y-25688000D01*
X30296657Y-25688000D01*
X30302805Y-25687699D01*
X30440603Y-25674188D01*
X30452638Y-25671805D01*
X30630076Y-25618233D01*
X30641416Y-25613559D01*
X30805077Y-25526540D01*
X30815294Y-25519751D01*
X30958933Y-25402603D01*
X30967637Y-25393959D01*
X31085784Y-25251144D01*
X31092644Y-25240973D01*
X31180804Y-25077924D01*
X31185556Y-25066619D01*
X31221250Y-24951308D01*
X31221331Y-24945768D01*
X32607425Y-24945768D01*
X32639138Y-25053521D01*
X32643731Y-25064889D01*
X32729607Y-25229154D01*
X32736321Y-25239415D01*
X32852468Y-25383873D01*
X32861046Y-25392632D01*
X33003039Y-25511778D01*
X33013156Y-25518705D01*
X33061302Y-25545174D01*
X33111360Y-25595519D01*
X33126253Y-25664937D01*
X33097685Y-25735903D01*
X33067676Y-25772177D01*
X33000386Y-25915174D01*
X32998901Y-25922957D01*
X32998901Y-25922958D01*
X32985289Y-25994318D01*
X32970773Y-26070412D01*
X32980696Y-26228138D01*
X32983147Y-26235681D01*
X33018095Y-26343238D01*
X33029533Y-26378441D01*
X33114214Y-26511877D01*
X33229418Y-26620062D01*
X33367908Y-26696197D01*
X33520981Y-26735500D01*
X33639350Y-26735500D01*
X33643275Y-26735004D01*
X33643278Y-26735004D01*
X33748933Y-26721657D01*
X33748935Y-26721657D01*
X33756792Y-26720664D01*
X33828234Y-26692378D01*
X33896363Y-26665404D01*
X33896366Y-26665403D01*
X33903732Y-26662486D01*
X33911611Y-26656762D01*
X33989737Y-26600000D01*
X35794318Y-26600000D01*
X35795396Y-26608188D01*
X35812092Y-26735004D01*
X35814956Y-26756762D01*
X35875464Y-26902841D01*
X35971718Y-27028282D01*
X36097159Y-27124536D01*
X36243238Y-27185044D01*
X36400000Y-27205682D01*
X36408188Y-27204604D01*
X36548574Y-27186122D01*
X36556762Y-27185044D01*
X36702841Y-27124536D01*
X36828282Y-27028282D01*
X36924536Y-26902841D01*
X36985044Y-26756762D01*
X36987909Y-26735004D01*
X37004604Y-26608188D01*
X37005682Y-26600000D01*
X36992517Y-26500000D01*
X67994318Y-26500000D01*
X68014956Y-26656762D01*
X68075464Y-26802841D01*
X68171718Y-26928282D01*
X68297159Y-27024536D01*
X68443238Y-27085044D01*
X68600000Y-27105682D01*
X68608188Y-27104604D01*
X68748574Y-27086122D01*
X68756762Y-27085044D01*
X68902841Y-27024536D01*
X69028282Y-26928282D01*
X69124536Y-26802841D01*
X69185044Y-26656762D01*
X69205682Y-26500000D01*
X69185044Y-26343238D01*
X69124536Y-26197159D01*
X69028282Y-26071718D01*
X68902841Y-25975464D01*
X68756762Y-25914956D01*
X68600000Y-25894318D01*
X68443238Y-25914956D01*
X68297159Y-25975464D01*
X68171718Y-26071718D01*
X68075464Y-26197159D01*
X68014956Y-26343238D01*
X67994318Y-26500000D01*
X36992517Y-26500000D01*
X36985044Y-26443238D01*
X36924536Y-26297159D01*
X36828282Y-26171718D01*
X36809589Y-26157374D01*
X36709392Y-26080491D01*
X36702841Y-26075464D01*
X36556762Y-26014956D01*
X36400000Y-25994318D01*
X36243238Y-26014956D01*
X36097159Y-26075464D01*
X36090608Y-26080491D01*
X35990412Y-26157374D01*
X35971718Y-26171718D01*
X35875464Y-26297159D01*
X35814956Y-26443238D01*
X35794318Y-26600000D01*
X33989737Y-26600000D01*
X34025173Y-26574254D01*
X34031587Y-26569594D01*
X34074844Y-26517305D01*
X34127271Y-26453932D01*
X34127274Y-26453928D01*
X34132324Y-26447823D01*
X34199614Y-26304826D01*
X34218697Y-26204789D01*
X34227742Y-26157374D01*
X34227742Y-26157372D01*
X34229227Y-26149588D01*
X34219304Y-25991862D01*
X34174164Y-25852937D01*
X34172136Y-25781969D01*
X34208799Y-25721171D01*
X34272511Y-25689845D01*
X34293997Y-25688000D01*
X34726657Y-25688000D01*
X34732805Y-25687699D01*
X34870603Y-25674188D01*
X34882638Y-25671805D01*
X35060076Y-25618233D01*
X35071416Y-25613559D01*
X35235077Y-25526540D01*
X35245294Y-25519751D01*
X35388933Y-25402603D01*
X35397637Y-25393959D01*
X35515784Y-25251144D01*
X35522644Y-25240973D01*
X35610804Y-25077924D01*
X35615556Y-25066619D01*
X35651250Y-24951308D01*
X35651456Y-24937205D01*
X35644701Y-24934000D01*
X32622076Y-24934000D01*
X32608545Y-24937973D01*
X32607425Y-24945768D01*
X31221331Y-24945768D01*
X31221456Y-24937205D01*
X31214701Y-24934000D01*
X30222115Y-24934000D01*
X30206876Y-24938475D01*
X30205671Y-24939865D01*
X30204000Y-24947548D01*
X30204000Y-25669885D01*
X29696000Y-25669885D01*
X29696000Y-24952115D01*
X29691525Y-24936876D01*
X29690135Y-24935671D01*
X29682452Y-24934000D01*
X28692076Y-24934000D01*
X28678545Y-24937973D01*
X28677425Y-24945768D01*
X28300500Y-24945768D01*
X28300500Y-24900000D01*
X43994318Y-24900000D01*
X44014956Y-25056762D01*
X44075464Y-25202841D01*
X44171718Y-25328282D01*
X44297159Y-25424536D01*
X44443238Y-25485044D01*
X44600000Y-25505682D01*
X44608188Y-25504604D01*
X44748574Y-25486122D01*
X44756762Y-25485044D01*
X44902841Y-25424536D01*
X45028282Y-25328282D01*
X45124536Y-25202841D01*
X45185044Y-25056762D01*
X45205682Y-24900000D01*
X45185044Y-24743238D01*
X45124536Y-24597159D01*
X45028282Y-24471718D01*
X44902841Y-24375464D01*
X44756762Y-24314956D01*
X44692373Y-24306479D01*
X44608188Y-24295396D01*
X44600000Y-24294318D01*
X44591812Y-24295396D01*
X44507628Y-24306479D01*
X44443238Y-24314956D01*
X44297159Y-24375464D01*
X44171718Y-24471718D01*
X44075464Y-24597159D01*
X44014956Y-24743238D01*
X43994318Y-24900000D01*
X28300500Y-24900000D01*
X28300500Y-24422795D01*
X28678544Y-24422795D01*
X28685299Y-24426000D01*
X29677885Y-24426000D01*
X29693124Y-24421525D01*
X29694329Y-24420135D01*
X29696000Y-24412452D01*
X29696000Y-24407885D01*
X30204000Y-24407885D01*
X30208475Y-24423124D01*
X30209865Y-24424329D01*
X30217548Y-24426000D01*
X31207924Y-24426000D01*
X31218839Y-24422795D01*
X32608544Y-24422795D01*
X32615299Y-24426000D01*
X33857885Y-24426000D01*
X33873124Y-24421525D01*
X33874329Y-24420135D01*
X33876000Y-24412452D01*
X33876000Y-24407885D01*
X34384000Y-24407885D01*
X34388475Y-24423124D01*
X34389865Y-24424329D01*
X34397548Y-24426000D01*
X35637924Y-24426000D01*
X35651455Y-24422027D01*
X35652575Y-24414232D01*
X35620862Y-24306479D01*
X35616269Y-24295111D01*
X35530393Y-24130846D01*
X35523679Y-24120585D01*
X35407532Y-23976127D01*
X35398954Y-23967368D01*
X35256961Y-23848222D01*
X35246841Y-23841292D01*
X35084415Y-23751998D01*
X35073142Y-23747166D01*
X34896462Y-23691120D01*
X34884468Y-23688570D01*
X34740239Y-23672393D01*
X34733215Y-23672000D01*
X34402115Y-23672000D01*
X34386876Y-23676475D01*
X34385671Y-23677865D01*
X34384000Y-23685548D01*
X34384000Y-24407885D01*
X33876000Y-24407885D01*
X33876000Y-23690115D01*
X33871525Y-23674876D01*
X33870135Y-23673671D01*
X33862452Y-23672000D01*
X33533343Y-23672000D01*
X33527195Y-23672301D01*
X33389397Y-23685812D01*
X33377362Y-23688195D01*
X33199924Y-23741767D01*
X33188584Y-23746441D01*
X33024923Y-23833460D01*
X33014706Y-23840249D01*
X32871067Y-23957397D01*
X32862363Y-23966041D01*
X32744216Y-24108856D01*
X32737356Y-24119027D01*
X32649196Y-24282076D01*
X32644444Y-24293381D01*
X32608750Y-24408692D01*
X32608544Y-24422795D01*
X31218839Y-24422795D01*
X31221455Y-24422027D01*
X31222575Y-24414232D01*
X31190862Y-24306479D01*
X31186269Y-24295111D01*
X31100393Y-24130846D01*
X31093679Y-24120585D01*
X30977532Y-23976127D01*
X30968954Y-23967368D01*
X30826961Y-23848222D01*
X30816841Y-23841292D01*
X30654415Y-23751998D01*
X30643142Y-23747166D01*
X30466462Y-23691120D01*
X30454468Y-23688570D01*
X30310239Y-23672393D01*
X30303215Y-23672000D01*
X30222115Y-23672000D01*
X30206876Y-23676475D01*
X30205671Y-23677865D01*
X30204000Y-23685548D01*
X30204000Y-24407885D01*
X29696000Y-24407885D01*
X29696000Y-23690115D01*
X29691525Y-23674876D01*
X29690135Y-23673671D01*
X29682452Y-23672000D01*
X29603343Y-23672000D01*
X29597195Y-23672301D01*
X29459397Y-23685812D01*
X29447362Y-23688195D01*
X29269924Y-23741767D01*
X29258584Y-23746441D01*
X29094923Y-23833460D01*
X29084706Y-23840249D01*
X28941067Y-23957397D01*
X28932363Y-23966041D01*
X28814216Y-24108856D01*
X28807356Y-24119027D01*
X28719196Y-24282076D01*
X28714444Y-24293381D01*
X28678750Y-24408692D01*
X28678544Y-24422795D01*
X28300500Y-24422795D01*
X28300500Y-23426500D01*
X28320502Y-23358379D01*
X28374158Y-23311886D01*
X28426500Y-23300500D01*
X71474000Y-23300500D01*
X71542121Y-23320502D01*
G37*
G04 #@! TD.AperFunction*
G04 #@! TD*
M02*
